<svg width="122" height="79" viewBox="0 0 122 79" fill="none" xmlns="http://www.w3.org/2000/svg">
<path d="M121.937 26.0058C121.925 25.9291 121.907 25.8571 121.893 25.7828C121.858 25.6248 121.822 25.4738 121.773 25.3228C121.748 25.2369 121.715 25.1556 121.685 25.0766C121.633 24.9419 121.577 24.8095 121.512 24.6817C121.474 24.6004 121.43 24.5214 121.388 24.4447C121.313 24.3193 121.236 24.2008 121.154 24.0824C121.105 24.0127 121.061 23.9407 121.007 23.8733C120.904 23.7455 120.795 23.6247 120.682 23.5086C120.638 23.4644 120.596 23.4133 120.552 23.3715C120.388 23.2159 120.215 23.0719 120.028 22.9418C119.982 22.9093 119.933 22.8837 119.886 22.8535C119.769 22.7745 119.645 22.6955 119.519 22.6282L119.461 22.6049C119.213 22.4795 118.956 22.368 118.683 22.289L118.65 22.2797L64.4971 0.741032C64.2682 0.629528 64.0369 0.524994 63.794 0.439044C63.0301 0.15564 62.2054 0 61.3364 0C61.2196 0 61.1145 0.0255528 60.9977 0.0301988C60.8855 0.0255528 60.7781 0 60.6589 0C59.7946 0 58.9653 0.15564 58.2014 0.439044C57.9607 0.527317 57.7271 0.629528 57.5005 0.741032L29.2876 11.9634V3.73303C29.2876 1.69345 27.6219 0.0371677 25.5708 0.0371677H14.9136C12.8602 0.0371677 11.1969 1.69345 11.1969 3.73303V19.1553L3.34995 22.2797L3.31958 22.289C3.04626 22.368 2.78929 22.4795 2.54167 22.6049L2.48093 22.6282C2.35478 22.6979 2.23564 22.7768 2.1165 22.8535C2.06744 22.8837 2.01838 22.9093 1.974 22.9418C1.78711 23.0719 1.61424 23.2159 1.45071 23.3715C1.40633 23.4133 1.36661 23.4644 1.32223 23.5086C1.21009 23.6247 1.09796 23.7455 0.997511 23.8733C0.943781 23.9407 0.899395 24.0127 0.848001 24.0824C0.768574 24.2008 0.686811 24.3193 0.616728 24.4447C0.572342 24.5214 0.527956 24.6004 0.490579 24.6817C0.425168 24.8095 0.369102 24.9419 0.317708 25.0766C0.287339 25.1556 0.254634 25.2369 0.226601 25.3228C0.179879 25.4738 0.144838 25.6248 0.109796 25.7828C0.0934436 25.8571 0.0747549 25.9315 0.0607384 26.0058C0.0210248 26.2404 0 26.4774 0 26.7236V74.3703C0 76.9256 2.08379 79 4.65583 79H117.342C119.912 79 121.998 76.9256 121.998 74.3703V26.7236C122 26.4774 121.974 26.2404 121.937 26.0058Z" fill="#EC222A"/>
<path d="M29.5517 49.2401C28.8579 50.0276 27.3722 51.2123 24.7768 51.2123C23.2887 51.2123 21.9688 50.8499 20.8288 49.8813C18.8781 48.2528 18.731 45.9368 18.731 45.1168C18.731 44.4106 18.8127 42.8008 19.9364 41.2374C21.5389 38.9888 23.7699 38.8215 24.7931 38.8215C27.4516 38.8215 29.0401 40.2014 29.6849 40.9424C30.0306 41.3373 30.1965 41.6161 30.4441 42.0621L27.3535 43.5883C27.3044 43.4745 27.239 43.3583 27.1899 43.2445C26.9914 42.8496 26.4144 41.6486 24.9263 41.6649C24.2488 41.6649 23.819 41.9134 23.5877 42.0784C22.4313 42.9309 22.4804 44.6058 22.4804 44.9031C22.4804 46.4967 22.992 47.3492 23.555 47.7952C24.132 48.2366 24.66 48.2528 24.9426 48.2528C26.2135 48.2528 26.8092 47.398 27.0404 47.0054C27.1222 46.8405 27.1876 46.6918 27.3044 46.348L30.4605 47.8579C30.047 48.6152 29.8344 48.9126 29.5517 49.2401Z" fill="white"/>
<path d="M41.0405 50.8499L40.5289 49.2238H36.4641L35.9502 50.8499H31.9858L36.4478 39.2512H40.6434L45.0049 50.8499H41.0405ZM38.5316 42.5522L37.2584 46.6429H39.7697L38.5316 42.5522Z" fill="white"/>
<path d="M56.1015 50.1252C54.597 51.2287 52.6324 51.1961 52.1371 51.1961C50.4365 51.1961 48.8176 50.9151 47.4276 49.8813C46.8996 49.4864 46.5866 49.1426 46.1895 48.6316L49.0138 46.8405C49.2614 47.2355 49.4109 47.4143 49.5745 47.5491C50.2356 48.1228 51.4573 48.3714 52.268 48.3714C53.3075 48.3714 54.034 48.0578 54.034 47.484C54.034 47.3516 53.9686 47.2517 53.9523 47.2029C53.8682 47.0403 53.7374 46.8893 53.3916 46.7755C52.9758 46.6268 52.2353 46.5293 51.1934 46.3179C49.5908 46.0019 48.7311 45.6117 48.1705 45.1169C47.8084 44.8056 47.1472 44.0321 47.1636 42.7684C47.1636 42.4548 47.18 41.7486 47.5934 41.0099C48.7825 38.8402 51.8732 38.875 52.3194 38.875C52.9127 38.875 55.0129 38.9076 56.6808 40.1225C57.0453 40.385 57.2579 40.6173 57.5732 40.9262L55.2441 42.8497C55.097 42.6499 55.0152 42.5523 54.9148 42.471C54.2373 41.8485 53.0646 41.6673 52.1885 41.6673C52.1044 41.6673 51.6582 41.6673 51.3125 41.8136C51.2448 41.8485 50.85 42.0296 50.85 42.4222C50.85 42.6359 50.9808 42.8334 51.1466 42.9495C51.4433 43.1284 52.1371 43.2631 52.4502 43.3119C52.8637 43.377 53.9546 43.5256 55.111 43.902C55.8375 44.1343 57.6386 44.7731 57.6386 47.0914C57.6386 48.8104 56.6131 49.7512 56.1015 50.1252Z" fill="white"/>
<path d="M60.1709 50.8499V39.2512H63.8736V50.8499H60.1709Z" fill="white"/>
<path d="M72.5827 42.1108V50.8499H68.8986V42.1108H65.9248V39.2512H75.5401V42.1108H72.5827Z" fill="white"/>
<path d="M84.9639 50.8499L84.4499 49.2238H80.3851L79.8735 50.8499H75.9092L80.3688 39.2512H84.5667L88.9305 50.8499H84.9639ZM82.4502 42.5522L81.1794 46.6429H83.6907L82.4502 42.5522Z" fill="white"/>
<path d="M100.37 50.1252C98.8656 51.2287 96.9009 51.1961 96.4034 51.1961C94.7027 51.1961 93.0838 50.9151 91.6961 49.8813C91.1682 49.4864 90.8505 49.1426 90.458 48.6316L93.2823 46.8405C93.5276 47.2355 93.6771 47.4143 93.843 47.5491C94.5064 48.1228 95.7259 48.3714 96.5365 48.3714C97.5784 48.3714 98.3073 48.0578 98.3073 47.484C98.3073 47.3516 98.2419 47.2517 98.2255 47.2029C98.1414 47.0403 98.0082 46.8893 97.6625 46.7755C97.2467 46.6268 96.5038 46.5293 95.4666 46.3179C93.8617 46.0019 93.002 45.6117 92.4413 45.1169C92.0793 44.8056 91.4181 44.0321 91.4345 42.7684C91.4345 42.4548 91.4508 41.7486 91.8667 41.0099C93.0534 38.8402 96.1464 38.875 96.5879 38.875C97.1836 38.875 99.2814 38.9076 100.949 40.1225C101.314 40.385 101.526 40.6173 101.844 40.9262L99.5127 42.8497C99.3632 42.6499 99.2814 42.5523 99.1833 42.471C98.5058 41.8485 97.3331 41.6673 96.4571 41.6673C96.3753 41.6673 95.9291 41.6673 95.5834 41.8136C95.518 41.8485 95.1185 42.0296 95.1185 42.4222C95.1185 42.6359 95.2517 42.8334 95.4175 42.9495C95.7142 43.1284 96.408 43.2631 96.7211 43.3119C97.1346 43.377 98.2278 43.5256 99.3795 43.902C100.106 44.1343 101.91 44.7731 101.91 47.0914C101.907 48.8104 100.882 49.7512 100.37 50.1252Z" fill="white"/>
<path d="M51.1838 28.8792V31.3369C50.9152 31.553 50.5811 31.7342 50.1817 31.8805C49.7799 32.0269 49.3407 32.0989 48.8571 32.0989C48.4062 32.0989 48.0161 32.0315 47.682 31.8991C47.3503 31.7644 47.0747 31.5762 46.8551 31.33C46.6355 31.0861 46.4696 30.791 46.3598 30.4449C46.25 30.1011 46.1963 29.7155 46.1963 29.2927C46.1963 28.8444 46.257 28.4402 46.3738 28.0848C46.4953 27.7293 46.6658 27.4297 46.8878 27.1834C47.1097 26.9395 47.3854 26.7514 47.7124 26.619C48.0395 26.4889 48.4132 26.4238 48.8337 26.4238C49.1982 26.4238 49.5159 26.4726 49.7845 26.5679C50.0532 26.6631 50.2821 26.7909 50.469 26.9535C50.6559 27.1138 50.8007 27.2996 50.9059 27.5133C51.011 27.7247 51.0834 27.9454 51.1231 28.18L49.663 28.3217C49.6046 28.0894 49.5135 27.9198 49.3804 27.813C49.2496 27.7038 49.0603 27.6504 48.8174 27.6504C48.4389 27.6504 48.1586 27.7828 47.9787 28.0499C47.7988 28.3194 47.7101 28.7189 47.7101 29.2532C47.7101 29.7922 47.8082 30.1964 48.0021 30.4658C48.1983 30.7353 48.5254 30.87 48.9856 30.87C49.3103 30.87 49.5953 30.805 49.8383 30.6749V30.0454H48.9716V28.8746H51.1838V28.8792Z" fill="white"/>
<path d="M57.0757 29.1766C56.9425 29.4368 56.7393 29.6458 56.4659 29.8084L57.5756 31.9618H56.0314L55.1414 30.1035H54.3518V31.9618H52.9595V26.5632H55.104C55.5245 26.5632 55.8749 26.612 56.1529 26.7073C56.4332 26.8025 56.6528 26.9303 56.8187 27.0882C56.9822 27.2462 57.099 27.4297 57.1668 27.6364C57.2345 27.8409 57.2696 28.0546 57.2696 28.2706C57.2719 28.6167 57.2065 28.9187 57.0757 29.1766ZM55.0666 28.9768C55.361 28.9768 55.5665 28.9187 55.6857 28.8072C55.8048 28.6934 55.8632 28.5308 55.8632 28.3171C55.8632 28.1173 55.8002 27.9593 55.674 27.8478C55.5455 27.7363 55.3283 27.6829 55.0199 27.6829H54.3494V28.9768H55.0666Z" fill="white"/>
<path d="M60.22 31.9618C59.9373 31.8712 59.6967 31.7295 59.5028 31.5391C59.3066 31.3462 59.1571 31.1023 59.0566 30.8027C58.9562 30.503 58.9048 30.1453 58.9048 29.7248V26.5632H60.3648V29.7782C60.3648 30.1406 60.4279 30.4101 60.5541 30.5866C60.6802 30.7632 60.8975 30.8515 61.2012 30.8515C61.5049 30.8515 61.7198 30.7632 61.8459 30.5866C61.9744 30.4101 62.0375 30.1406 62.0375 29.7782V26.5632H63.4975V29.7248C63.4975 30.1429 63.4462 30.503 63.3387 30.8027C63.2312 31.1023 63.0794 31.3486 62.8808 31.5391C62.6846 31.7295 62.4416 31.8712 62.1543 31.9618C61.867 32.0524 61.5446 32.0989 61.1848 32.0989C60.8251 32.0989 60.505 32.0548 60.22 31.9618Z" fill="white"/>
<path d="M67.3568 26.5654C67.7843 26.5654 68.1371 26.6142 68.4174 26.7095C68.7001 26.8047 68.922 26.9348 69.0879 27.0997C69.2537 27.2623 69.3706 27.4528 69.436 27.6712C69.5014 27.8872 69.5341 28.1195 69.5341 28.3657C69.5341 28.6189 69.499 28.8559 69.4336 29.0789C69.3635 29.3042 69.2444 29.5017 69.0785 29.6689C68.9127 29.8385 68.6907 29.9709 68.4128 30.0662C68.1371 30.1614 67.7913 30.2102 67.3755 30.2102H66.7424V31.964H65.3291V26.5654H67.3568ZM67.3638 29.0533C67.6675 29.0533 67.8801 28.9953 67.9969 28.8814C68.1184 28.7699 68.1768 28.598 68.1768 28.3727C68.1768 28.1451 68.1161 27.9801 67.9946 27.8733C67.8731 27.7687 67.6582 27.713 67.3545 27.713H66.7378V29.0533H67.3638Z" fill="white"/>
<path d="M74.7876 26.6236C75.117 26.756 75.3926 26.9418 75.6192 27.1834C75.8458 27.425 76.0187 27.72 76.1331 28.0685C76.25 28.4146 76.3107 28.8072 76.3107 29.2393C76.3107 29.6783 76.25 30.0732 76.1308 30.4286C76.0117 30.7817 75.8388 31.0791 75.6099 31.3276C75.3833 31.5739 75.1006 31.7644 74.7689 31.8991C74.4325 32.0315 74.0494 32.0989 73.6195 32.0989C73.1944 32.0989 72.8159 32.0338 72.4865 31.9037C72.1571 31.7713 71.8791 31.5855 71.6549 31.3439C71.4283 31.1023 71.2554 30.805 71.1409 30.4565C71.0218 30.1104 70.9634 29.7178 70.9634 29.2857C70.9634 28.8467 71.0218 28.4518 71.1433 28.0987C71.2601 27.7456 71.4353 27.4459 71.6642 27.1974C71.8931 26.9511 72.1735 26.7607 72.5099 26.6282C72.8463 26.4958 73.2247 26.4285 73.6592 26.4285C74.0774 26.4285 74.4558 26.4935 74.7876 26.6236ZM72.7645 30.4472C72.9584 30.7167 73.2481 30.8514 73.6382 30.8514C74.0283 30.8514 74.318 30.7167 74.5096 30.4472C74.6988 30.1778 74.7922 29.7852 74.7922 29.2648C74.7922 28.7445 74.6988 28.3519 74.5096 28.0824C74.3203 27.813 74.0283 27.6782 73.6382 27.6782C73.2481 27.6782 72.9561 27.813 72.7645 28.0824C72.5706 28.3519 72.4748 28.7468 72.4748 29.2648C72.4748 29.7829 72.5706 30.1778 72.7645 30.4472Z" fill="white"/>
<path d="M29.5938 58.2278H31.7313C32.633 58.2278 33.3175 58.4531 33.78 58.8991C34.2449 59.3475 34.4762 60.0025 34.4762 60.8644C34.4762 61.7517 34.2309 62.4324 33.7426 62.9109C33.2521 63.3848 32.5536 63.6241 31.6472 63.6241H29.5961V58.2278H29.5938ZM31.6705 62.3999C32.1144 62.3999 32.4414 62.2698 32.6517 62.0096C32.8596 61.7494 32.9647 61.3824 32.9647 60.9085C32.9647 60.4346 32.8666 60.0746 32.6751 59.8213C32.4835 59.5728 32.1751 59.4497 31.7476 59.4497H31.0561V62.3975H31.6705V62.3999Z" fill="white"/>
<path d="M40.0314 58.2278V59.4195H37.5668V60.2813H39.8772V61.4776H37.5668V62.4301H40.1903L40.0688 63.6264H36.1465V58.2278H40.0314Z" fill="white"/>
<path d="M43.2367 62.4116C43.3932 62.537 43.6221 62.5974 43.9282 62.5974C44.1875 62.5974 44.379 62.5533 44.5099 62.4603C44.6383 62.3697 44.7038 62.242 44.7038 62.0747C44.7038 61.9493 44.6594 61.8471 44.5729 61.7611C44.4865 61.6798 44.33 61.6148 44.101 61.5683L43.3792 61.4336C42.7765 61.3221 42.3303 61.1339 42.043 60.8737C41.7533 60.6089 41.6084 60.2489 41.6084 59.7843C41.6084 59.2244 41.8023 58.804 42.1901 58.5182C42.5779 58.2325 43.1105 58.0908 43.7903 58.0908C44.1851 58.0908 44.5215 58.135 44.8019 58.2279C45.0822 58.3185 45.3088 58.4369 45.4864 58.5903C45.6639 58.7436 45.7994 58.9178 45.8882 59.1153C45.9793 59.315 46.0377 59.5241 46.0634 59.7401L44.6477 59.8842C44.6033 59.6681 44.5169 59.5078 44.386 59.4033C44.2576 59.2964 44.0543 59.243 43.7833 59.243C43.5334 59.243 43.3512 59.2848 43.232 59.3685C43.1129 59.4521 43.0521 59.5613 43.0521 59.7053C43.0521 59.8307 43.1012 59.9283 43.197 60.0073C43.2928 60.0816 43.4469 60.1397 43.6595 60.1792L44.3977 60.3232C45.0355 60.4486 45.491 60.6507 45.7573 60.9341C46.026 61.2129 46.1615 61.5683 46.1615 61.9957C46.1615 62.2606 46.1171 62.5045 46.0236 62.7205C45.9325 62.9412 45.7947 63.1224 45.6055 63.278C45.4186 63.429 45.1803 63.5498 44.8906 63.6358C44.6033 63.724 44.2622 63.7659 43.8721 63.7659C42.3653 63.7566 41.5757 63.1177 41.501 61.854H42.954C42.9844 62.098 43.0802 62.2861 43.2367 62.4116Z" fill="white"/>
<path d="M52.7162 63.6264H51.2047L50.8917 62.5903H49.0602L48.7565 63.6264H47.2871L49.1723 58.2278H50.831L52.7162 63.6264ZM50.5343 61.4335L49.9783 59.5705L49.4153 61.4335H50.5343Z" fill="white"/>
<path d="M58.2833 60.8388C58.1501 61.099 57.9492 61.3104 57.6736 61.4707L58.7832 63.6264H57.2414L56.3513 61.7634H55.5594V63.6264H54.1694V58.2278H56.314C56.7345 58.2278 57.0849 58.2742 57.3629 58.3718C57.6432 58.4647 57.8628 58.5925 58.0287 58.7528C58.1922 58.9107 58.3113 59.0919 58.3767 59.301C58.4445 59.5054 58.4795 59.7168 58.4795 59.9329C58.4819 60.2767 58.4141 60.5786 58.2833 60.8388ZM56.2766 60.639C56.5733 60.639 56.7765 60.581 56.8957 60.4695C57.0148 60.3556 57.0755 60.1907 57.0755 59.9793C57.0755 59.7795 57.0101 59.6239 56.8863 59.5124C56.7602 59.4009 56.5406 59.3475 56.2322 59.3475H55.5617V60.6414H56.2766V60.639Z" fill="white"/>
<path d="M64.3219 60.8388C64.1887 61.099 63.9855 61.3104 63.7121 61.4707L64.8241 63.6264H63.28L62.3899 61.7634H61.598V63.6264H60.208V58.2278H62.3502C62.7707 58.2278 63.1211 58.2742 63.3991 58.3718C63.6794 58.4647 63.899 58.5925 64.0672 58.7528C64.2307 58.9107 64.3475 59.0919 64.4153 59.301C64.483 59.5054 64.5181 59.7168 64.5181 59.9329C64.5181 60.2767 64.4527 60.5786 64.3219 60.8388ZM62.3105 60.639C62.6072 60.639 62.8104 60.581 62.9295 60.4695C63.0487 60.3556 63.1094 60.1907 63.1094 59.9793C63.1094 59.7795 63.044 59.6239 62.9202 59.5124C62.7941 59.4009 62.5745 59.3475 62.2661 59.3475H61.5956V60.6414H62.3105V60.639Z" fill="white"/>
<path d="M69.8234 58.2883C70.1528 58.4207 70.4284 58.6042 70.655 58.8458C70.8793 59.0897 71.0498 59.3847 71.1666 59.7308C71.2834 60.0793 71.3418 60.4695 71.3418 60.9039C71.3418 61.343 71.2811 61.7379 71.1643 62.091C71.0428 62.4418 70.8699 62.7437 70.6433 62.99C70.4144 63.2385 70.1317 63.4267 69.7977 63.5614C69.4659 63.6962 69.0805 63.7612 68.6507 63.7612C68.2255 63.7612 67.847 63.6962 67.5177 63.5661C67.1883 63.436 66.9103 63.2478 66.6837 63.0062C66.4571 62.7647 66.2842 62.4696 66.1697 62.1212C66.0529 61.7727 65.9922 61.3848 65.9922 60.9481C65.9922 60.5114 66.0529 60.1141 66.1721 59.761C66.2912 59.408 66.4641 59.1106 66.693 58.862C66.9196 58.6181 67.2023 58.4253 67.534 58.2906C67.8704 58.1582 68.2535 58.0908 68.6834 58.0908C69.1155 58.0908 69.4916 58.1559 69.8234 58.2883ZM67.798 62.1096C67.9919 62.379 68.2816 62.5115 68.6717 62.5115C69.0618 62.5115 69.3538 62.379 69.543 62.1096C69.7323 61.8401 69.828 61.4452 69.828 60.9272C69.828 60.4045 69.7323 60.0119 69.543 59.7425C69.3538 59.473 69.0618 59.3383 68.6717 59.3383C68.2816 59.3383 67.9895 59.473 67.798 59.7425C67.6041 60.0119 67.5106 60.4045 67.5106 60.9272C67.5106 61.4452 67.6064 61.8401 67.798 62.1096Z" fill="white"/>
<path d="M74.484 58.2278V62.3929H76.8855L76.757 63.6264H73.0239V58.2278H74.484Z" fill="white"/>
<path d="M79.8292 58.2278V62.3929H82.2307L82.1022 63.6264H78.3691V58.2278H79.8292Z" fill="white"/>
<path d="M87.3467 58.2883C87.6761 58.4207 87.9541 58.6042 88.1807 58.8458C88.4073 59.0897 88.5779 59.3847 88.6947 59.7308C88.8091 60.0793 88.8675 60.4695 88.8675 60.9039C88.8675 61.343 88.8091 61.7379 88.69 62.091C88.5709 62.4418 88.398 62.7437 88.169 62.99C87.9401 63.2385 87.6598 63.4267 87.3234 63.5614C86.9893 63.6962 86.6085 63.7612 86.1764 63.7612C85.7489 63.7612 85.3704 63.6962 85.0434 63.5661C84.714 63.436 84.436 63.2478 84.2117 63.0062C83.9874 62.7647 83.8169 62.4696 83.7001 62.1212C83.5833 61.7727 83.5249 61.3848 83.5249 60.9481C83.5249 60.5114 83.5833 60.1141 83.7024 59.761C83.8216 59.408 83.9968 59.1106 84.2234 58.862C84.4523 58.6181 84.7327 58.4253 85.0691 58.2906C85.4008 58.1582 85.7839 58.0908 86.2137 58.0908C86.6389 58.0908 87.0174 58.1559 87.3467 58.2883ZM85.326 62.1096C85.5152 62.379 85.8096 62.5115 86.1974 62.5115C86.5899 62.5115 86.8772 62.379 87.0687 62.1096C87.2603 61.8401 87.3537 61.4452 87.3537 60.9272C87.3537 60.4045 87.2603 60.0119 87.0687 59.7425C86.8795 59.473 86.5899 59.3383 86.1974 59.3383C85.8096 59.3383 85.5152 59.473 85.326 59.7425C85.1321 60.0119 85.034 60.4045 85.034 60.9272C85.034 61.4452 85.1321 61.8401 85.326 62.1096Z" fill="white"/>
<path d="M91.9815 62.4116C92.138 62.537 92.367 62.5974 92.673 62.5974C92.93 62.5974 93.1239 62.5533 93.2524 62.4603C93.3808 62.3697 93.4463 62.242 93.4463 62.0747C93.4463 61.9493 93.4042 61.8471 93.3201 61.7611C93.2337 61.6798 93.0772 61.6148 92.8482 61.5683L92.1264 61.4336C91.5237 61.3221 91.0775 61.1339 90.7878 60.8737C90.5005 60.6089 90.3556 60.2489 90.3556 59.7843C90.3556 59.2244 90.5495 58.804 90.935 58.5182C91.3251 58.2325 91.8601 58.0908 92.5375 58.0908C92.9323 58.0908 93.2687 58.135 93.5467 58.2279C93.827 58.3185 94.056 58.4369 94.2335 58.5903C94.4111 58.7436 94.5466 58.9178 94.6353 59.1153C94.7264 59.315 94.7848 59.5241 94.8129 59.7401L93.3972 59.8842C93.3528 59.6681 93.2664 59.5078 93.1379 59.4033C93.0071 59.2964 92.8062 59.243 92.5305 59.243C92.2852 59.243 92.0983 59.2848 91.9792 59.3685C91.8601 59.4521 91.7993 59.5613 91.7993 59.7053C91.7993 59.8307 91.8484 59.9283 91.9465 60.0073C92.0399 60.0816 92.1964 60.1397 92.4067 60.1792L93.1449 60.3232C93.785 60.4486 94.2382 60.6507 94.5068 60.9341C94.7755 61.2129 94.911 61.5683 94.911 61.9957C94.911 62.2606 94.8666 62.5045 94.7732 62.7205C94.682 62.9412 94.5419 63.1224 94.355 63.278C94.1681 63.429 93.9298 63.5498 93.6401 63.6358C93.3505 63.724 93.0141 63.7659 92.6216 63.7659C91.1172 63.7566 90.3252 63.1177 90.2505 61.854H91.7012C91.7316 62.098 91.825 62.2861 91.9815 62.4116Z" fill="white"/>
</svg>
