<svg width="243" height="65" viewBox="0 0 243 65" fill="none" xmlns="http://www.w3.org/2000/svg">
<g clip-path="url(#clip0)">
<path d="M182.605 5.43994C184.458 5.43994 185.955 6.89558 185.955 8.78628C185.955 10.6377 184.455 12.0934 182.605 12.0934C180.751 12.0934 179.251 10.6344 179.251 8.78628C179.254 6.89558 180.751 5.43994 182.605 5.43994Z" fill="#FCF7EF"/>
<path d="M8.76449 28.2993C10.4741 27.6647 11.7939 26.546 13.3365 24.9333L13.343 24.9431C13.8114 24.4558 14.3125 23.9095 14.8659 23.3011L14.8561 23.2912C14.9445 23.1964 15.033 23.0982 15.1214 23.0001C15.4947 22.588 15.891 22.1529 16.3168 21.6917C16.7687 21.1977 17.2469 20.6776 17.7349 20.1379L17.7382 20.1412C18.8058 18.944 19.8408 17.7631 20.7414 16.5757C23.8232 12.5686 26.1551 7.97269 23.9248 3.90671C21.9925 0.396826 18.2327 -0.473286 15.3572 0.223458C11.9642 1.04777 9.71426 3.79223 9.62911 7.2138C9.53413 11.0475 11.4992 13.2293 14.7611 16.7785C15.2622 16.2126 15.7535 15.6467 16.2251 15.0775C13.271 11.862 11.7841 10.1545 11.8562 7.2694C11.9315 4.37121 13.9849 2.84688 15.8845 2.38565C16.3135 2.28098 16.7819 2.2221 17.2731 2.2221C18.9499 2.2221 20.8397 2.92539 21.9663 4.97636C23.5088 7.78624 21.9499 11.2209 19.2709 14.7929C17.7938 16.736 16.1596 18.5776 14.7349 20.1281C14.3092 20.5893 13.9162 21.0244 13.5395 21.4365C12.5308 22.5487 11.6629 23.5006 10.8278 24.2987C10.8245 24.2987 10.8245 24.2955 10.8245 24.2955C9.86164 25.2081 8.99047 25.8394 7.9883 26.2123C6.15426 26.8895 3.64229 26.8535 2.57789 24.5146C1.97528 23.1866 2.15868 21.8062 3.08225 20.73C3.84862 19.8337 4.95231 19.3496 6.12479 19.3496C6.51124 19.3496 6.90753 19.4019 7.30054 19.5131C8.2503 19.7748 9.36383 20.6809 10.3365 21.6295C10.8016 21.1389 11.2961 20.5959 11.8463 19.9907C10.5985 18.7771 9.2361 17.7402 7.8966 17.3706C5.46977 16.6967 2.97745 17.4327 1.38904 19.2874C-0.0978368 21.0244 -0.412243 23.324 0.550626 25.4404C1.92288 28.4596 5.22414 29.611 8.76449 28.2993Z" fill="#FCF7EF"/>
<path d="M36.8218 29.8391L39.6743 26.6171C39.1962 26.1166 38.6918 25.5703 38.1514 24.9783L33.8447 29.8391L38.158 34.7131C38.6984 34.1177 39.2027 33.5714 39.6809 33.071L36.8218 29.8391Z" fill="#FCF7EF"/>
<path d="M33.812 16.6402C34.6962 17.8047 35.7181 18.9627 36.7661 20.137V20.1337C37.2541 20.6767 37.7322 21.1935 38.1874 21.6875C38.6099 22.1487 39.0062 22.5838 39.3796 22.9959C39.468 23.094 39.5564 23.1922 39.6449 23.287L39.635 23.2969C40.1885 23.9053 40.6896 24.4516 41.1547 24.9422L41.1645 24.9324C42.707 26.5451 44.0269 27.6638 45.7365 28.2984C49.2735 29.6101 52.5748 28.4587 53.9503 25.4329C54.9132 23.3165 54.5988 21.0169 53.1087 19.2799C51.5202 17.4252 49.0279 16.6925 46.6011 17.3631C45.2583 17.736 43.8959 18.7729 42.6514 19.9832C42.6546 19.9898 42.6612 19.9963 42.6677 19.9996C43.2114 20.5982 43.7027 21.1347 44.1612 21.6221C45.1339 20.6734 46.2507 19.7706 47.2004 19.5057C48.7823 19.0673 50.4002 19.5318 51.4187 20.7258C52.3423 21.802 52.5257 23.1824 51.9231 24.5104C50.862 26.8493 48.3434 26.8853 46.5127 26.2081C45.5334 25.845 44.6786 25.2301 43.7387 24.3469C43.7354 24.3502 43.7321 24.3534 43.7289 24.3567C42.8937 23.5585 42.0258 22.6067 41.0171 21.4945C40.6437 21.0823 40.2475 20.644 39.8217 20.186C38.3971 18.6388 36.7595 16.8005 35.2857 14.8574L35.2825 14.8542C32.5707 11.2559 30.9856 7.79512 32.5347 4.96889C33.6613 2.91791 35.551 2.21463 37.2279 2.21463C37.7158 2.21463 38.1875 2.27351 38.6165 2.37818C40.5127 2.83941 42.5695 4.36374 42.6415 7.26193C42.7136 10.147 41.23 11.8513 38.2759 15.0668C38.7475 15.6327 39.2355 16.2018 39.7366 16.7677C42.9985 13.2186 44.9636 11.0401 44.8686 7.20305C44.7834 3.77821 42.5335 1.03703 39.1405 0.212715C36.265 -0.484029 32.5052 0.386084 30.5795 3.89597C28.3393 7.99466 30.7072 12.62 33.812 16.6402Z" fill="#FCF7EF"/>
<path d="M35.3282 37.8139L28.6962 29.839L35.3184 21.8739C34.8271 21.3309 34.3293 20.765 33.8282 20.1794L27.2519 28.0955L20.6723 20.1827C20.1712 20.7682 19.6701 21.3309 19.1821 21.8739L25.8076 29.839L19.1821 37.8041C19.6734 38.3471 20.1745 38.9098 20.6723 39.4953L27.2519 31.5858L33.838 39.5084C34.3391 38.9228 34.8369 38.3569 35.3282 37.8139ZM27.2519 29.8455L27.2453 29.8423L27.2519 29.839L27.2552 29.8423L27.2519 29.8455Z" fill="#FCF7EF"/>
<path d="M45.7363 31.3797C44.0529 32.0045 42.7461 33.1036 41.2298 34.6802C40.709 35.2265 40.1523 35.8349 39.5169 36.5317C39.1403 36.9471 38.7407 37.3887 38.3117 37.8532C36.7135 39.5901 35.1218 41.3107 33.8117 43.0379C30.7037 47.0613 28.3358 51.6867 30.576 55.7723C32.1022 58.556 34.7812 59.678 37.2571 59.678C37.9056 59.678 38.5409 59.6027 39.137 59.4555C42.53 58.6345 44.7799 55.89 44.8651 52.4652C44.9601 48.6347 42.9983 46.4562 39.7429 42.9136C39.2418 43.4828 38.7505 44.0486 38.2822 44.6178C41.2298 47.8268 42.7068 49.531 42.6381 52.4128C42.566 55.311 40.5093 56.8354 38.613 57.2966C36.7167 57.7578 33.9853 57.3555 32.5312 54.7059C30.9788 51.8797 32.5672 48.4188 35.279 44.8206V44.8174C36.6119 43.0608 38.0857 41.3991 39.4121 39.9532C39.5497 39.8028 39.6872 39.649 39.8248 39.4953C40.2505 39.0308 40.6501 38.5925 41.0267 38.177C41.0562 38.1443 41.0857 38.1116 41.1151 38.0789L41.1184 38.0822C41.6588 37.4868 42.1533 36.9373 42.6315 36.4335C42.602 36.4041 42.6348 36.4368 42.6315 36.4335C44.0496 34.9386 45.1566 33.9704 46.5059 33.4699C48.3367 32.7928 50.8519 32.8288 51.913 35.1676C52.5156 36.4957 52.3322 37.8761 51.4087 38.9523C50.3901 40.143 48.7722 40.6075 47.1904 40.1724C46.2439 39.9107 45.1304 39.0112 44.161 38.0658C43.6992 38.5532 43.2112 39.0897 42.6675 39.6915C42.6642 39.6981 42.6577 39.7014 42.6511 39.7079C43.8957 40.9182 45.2548 41.9486 46.5911 42.3215C49.0179 42.9954 51.5102 42.2594 53.0986 40.4046C54.5855 38.6677 54.8999 36.3681 53.937 34.2517C52.5779 31.2194 49.2733 30.068 45.7363 31.3797Z" fill="#FCF7EF"/>
<path d="M16.3494 24.9783C15.809 25.5736 15.3047 26.1199 14.8232 26.6171L17.6791 29.8424L14.8232 33.0677C15.3047 33.5649 15.809 34.1112 16.3494 34.7065L20.6561 29.8424L16.3494 24.9783Z" fill="#FCF7EF"/>
<path d="M20.7378 43.1067C19.8372 41.9193 18.8023 40.7417 17.7346 39.5412L17.7313 39.5445C17.2433 39.0015 16.7652 38.4846 16.3132 37.9907C15.8875 37.5295 15.4912 37.0944 15.1178 36.6823C15.0294 36.5841 14.941 36.486 14.8525 36.3911L14.8591 36.3813C14.3056 35.7729 13.8045 35.2266 13.3362 34.7392L13.3296 34.7458C11.7871 33.1331 10.4672 32.0144 8.75765 31.3798C5.21731 30.0681 1.91932 31.2195 0.54379 34.2453C-0.419079 36.3617 -0.104673 38.6613 1.38221 40.3982C2.97061 42.253 5.46621 42.9857 7.88976 42.3151C9.23254 41.9422 10.595 40.9053 11.8395 39.695C11.2893 39.0898 10.7947 38.5468 10.3297 38.0561C9.36027 39.0015 8.24347 39.9076 7.2937 40.1725C5.71184 40.6109 4.09396 40.1431 3.07542 38.9524C2.15185 37.8762 1.96844 36.4925 2.57106 35.1678C3.26864 33.6336 4.59177 33.0906 5.93782 33.0906C6.64196 33.0906 7.34938 33.2378 7.98146 33.4733C8.98363 33.8462 9.8548 34.4743 10.8177 35.3902L10.8209 35.3869C11.6561 36.1851 12.5207 37.137 13.5327 38.2491C13.9093 38.6613 14.3023 39.0963 14.7281 39.5576C16.1528 41.1048 17.787 42.9497 19.2641 44.8927C21.9431 48.468 23.502 51.9027 21.9594 54.7093C20.5086 57.3589 17.7772 57.7612 15.8809 57.3C13.9814 56.8388 11.9279 55.3145 11.8559 52.4195C11.7838 49.5344 13.2674 47.8269 16.2215 44.6114C15.7499 44.0455 15.2587 43.4796 14.7576 42.9104C11.4956 46.4596 9.52729 48.6381 9.62555 52.4751C9.7107 55.9 11.9574 58.6412 15.3536 59.4655C15.9497 59.6094 16.5851 59.6879 17.2335 59.6879C19.7095 59.6879 22.3885 58.5659 23.9147 55.7822C26.1482 51.7097 23.8197 47.1105 20.7378 43.1067Z" fill="#FCF7EF"/>
<path d="M67.5581 13.8598V5.75404H68.9566V6.60125C69.1531 6.03208 69.8638 5.62646 70.8299 5.62646C71.6552 5.62646 72.3561 5.91759 72.9128 6.50966C73.4827 7.09192 73.7611 7.81156 73.7611 8.68494C73.7611 9.55505 73.4827 10.278 72.9128 10.87C72.3528 11.4523 71.6552 11.7434 70.8299 11.7434C69.8638 11.7434 69.1531 11.3378 68.9566 10.7686V13.8598H67.5581ZM71.8746 9.96394C72.212 9.62702 72.3757 9.19523 72.3757 8.68494C72.3757 8.17138 72.212 7.74287 71.8746 7.40594C71.5471 7.06902 71.141 6.89238 70.6399 6.89238C70.1389 6.89238 69.7098 7.06575 69.3594 7.40594C69.0221 7.74287 68.8452 8.17465 68.8452 8.68494C68.8452 9.19523 69.0188 9.62702 69.3594 9.96394C69.7098 10.3009 70.1389 10.4742 70.6399 10.4742C71.141 10.4742 71.5504 10.3009 71.8746 9.96394Z" fill="#FCF7EF"/>
<path d="M76.1226 11.6159V5.75414H77.5079V6.62752C77.7863 6.01255 78.4282 5.63965 79.2535 5.63965C79.4173 5.63965 79.5548 5.64946 79.6727 5.67563V7.02332C79.4991 6.98734 79.2994 6.96444 79.0898 6.96444C78.1236 6.96444 77.5079 7.5696 77.5079 8.53457V11.6159H76.1226Z" fill="#FCF7EF"/>
<path d="M81.9126 4.24277C81.9126 3.77828 82.286 3.41846 82.751 3.41846C83.203 3.41846 83.5763 3.77828 83.5763 4.24277C83.5763 4.70727 83.203 5.06709 82.751 5.06709C82.286 5.07036 81.9126 4.70727 81.9126 4.24277ZM82.0534 5.75402H83.4486V11.6126H82.0534V5.75402Z" fill="#FCF7EF"/>
<path d="M88.0602 11.6157L85.5449 5.75391H86.9859L88.653 9.73156L90.3069 5.75391H91.7479L89.2359 11.6157H88.0602Z" fill="#FCF7EF"/>
<path d="M98.0651 6.60452V5.75731H99.4636V11.6158H98.0651V10.7686C97.8653 11.3378 97.1579 11.7434 96.1918 11.7434C95.3665 11.7434 94.6656 11.4523 94.0957 10.87C93.5357 10.278 93.2573 9.55505 93.2573 8.68494C93.2573 7.81156 93.5357 7.09192 94.0957 6.50966C94.6656 5.91759 95.3632 5.62646 96.1918 5.62646C97.1579 5.62646 97.8686 6.03535 98.0651 6.60452ZM97.6459 9.96394C97.9963 9.62702 98.1699 9.19523 98.1699 8.68494C98.1699 8.17138 97.9963 7.74286 97.6459 7.40594C97.3086 7.06902 96.8795 6.89238 96.3785 6.89238C95.8774 6.89238 95.4713 7.06575 95.1339 7.40594C94.8064 7.74286 94.6459 8.17465 94.6459 8.68494C94.6459 9.19523 94.8064 9.62702 95.1339 9.96394C95.4713 10.3009 95.8774 10.4742 96.3785 10.4742C96.8795 10.4742 97.3086 10.3009 97.6459 9.96394Z" fill="#FCF7EF"/>
<path d="M106.616 6.60462V3.51343H108.015V11.6159H106.616V10.7687C106.42 11.3379 105.709 11.7435 104.743 11.7435C103.918 11.7435 103.217 11.4524 102.647 10.8701C102.087 10.2781 101.809 9.55515 101.809 8.68504C101.809 7.81165 102.087 7.09201 102.647 6.50975C103.217 5.91769 103.914 5.62656 104.743 5.62656C105.709 5.62656 106.42 6.03545 106.616 6.60462ZM106.197 9.96404C106.548 9.62711 106.721 9.19533 106.721 8.68504C106.721 8.17147 106.548 7.74296 106.197 7.40604C105.86 7.06911 105.431 6.89247 104.93 6.89247C104.429 6.89247 104.023 7.06584 103.685 7.40604C103.358 7.74296 103.197 8.17474 103.197 8.68504C103.197 9.19533 103.358 9.62711 103.685 9.96404C104.023 10.301 104.429 10.4743 104.93 10.4743C105.431 10.4743 105.86 10.301 106.197 9.96404Z" fill="#FCF7EF"/>
<path d="M115.181 6.60452V5.75731H116.579V11.6158H115.181V10.7686C114.981 11.3378 114.274 11.7434 113.308 11.7434C112.482 11.7434 111.781 11.4523 111.211 10.87C110.651 10.278 110.373 9.55505 110.373 8.68494C110.373 7.81156 110.651 7.09192 111.211 6.50966C111.781 5.91759 112.479 5.62646 113.308 5.62646C114.274 5.62646 114.984 6.03535 115.181 6.60452ZM114.762 9.96394C115.112 9.62702 115.286 9.19523 115.286 8.68494C115.286 8.17138 115.112 7.74286 114.762 7.40594C114.424 7.06902 113.995 6.89238 113.494 6.89238C112.993 6.89238 112.587 7.06575 112.25 7.40594C111.922 7.74286 111.762 8.17465 111.762 8.68494C111.762 9.19523 111.922 9.62702 112.25 9.96394C112.587 10.3009 112.993 10.4742 113.494 10.4742C113.995 10.4742 114.424 10.3009 114.762 9.96394Z" fill="#FCF7EF"/>
<path d="M125.314 11.6158V3.51001H126.699V6.56849C126.968 6.00913 127.607 5.63949 128.409 5.63949C129.758 5.63949 130.551 6.53251 130.551 7.98814V11.6158H129.165V8.18441C129.165 7.37972 128.733 6.88251 127.99 6.88251C127.233 6.88251 126.699 7.44187 126.699 8.24329V11.6158H125.314Z" fill="#FCF7EF"/>
<path d="M137.707 6.60452V5.75731H139.105V11.6158H137.707V10.7686C137.51 11.3378 136.8 11.7434 135.833 11.7434C135.008 11.7434 134.307 11.4523 133.737 10.87C133.177 10.278 132.899 9.55505 132.899 8.68494C132.899 7.81156 133.177 7.09192 133.737 6.50966C134.307 5.91759 135.005 5.62646 135.833 5.62646C136.796 5.62646 137.507 6.03535 137.707 6.60452ZM137.287 9.96394C137.638 9.62702 137.812 9.19523 137.812 8.68494C137.812 8.17138 137.638 7.74286 137.287 7.40594C136.95 7.06902 136.521 6.89238 136.02 6.89238C135.519 6.89238 135.113 7.06575 134.776 7.40594C134.448 7.74286 134.288 8.17465 134.288 8.68494C134.288 9.19523 134.448 9.62702 134.776 9.96394C135.113 10.3009 135.519 10.4742 136.02 10.4742C136.518 10.4742 136.95 10.3009 137.287 9.96394Z" fill="#FCF7EF"/>
<path d="M141.706 11.6159V3.51343H143.101V6.60462C143.297 6.03544 144.008 5.62983 144.974 5.62983C145.799 5.62983 146.5 5.92096 147.057 6.51302C147.627 7.09528 147.905 7.81492 147.905 8.6883C147.905 9.55842 147.627 10.2813 147.057 10.8734C146.497 11.4557 145.799 11.7468 144.974 11.7468C144.008 11.7468 143.297 11.3412 143.101 10.772V11.6192H141.706V11.6159ZM146.025 9.96403C146.363 9.62711 146.526 9.19532 146.526 8.68503C146.526 8.17147 146.363 7.74296 146.025 7.40603C145.698 7.06911 145.292 6.89247 144.791 6.89247C144.29 6.89247 143.861 7.06584 143.51 7.40603C143.173 7.74296 142.996 8.17474 142.996 8.68503C142.996 9.19532 143.17 9.62711 143.51 9.96403C143.861 10.301 144.29 10.4743 144.791 10.4743C145.292 10.4743 145.698 10.301 146.025 9.96403Z" fill="#FCF7EF"/>
<path d="M150.132 4.24277C150.132 3.77828 150.502 3.41846 150.971 3.41846C151.426 3.41846 151.796 3.77828 151.796 4.24277C151.796 4.70727 151.423 5.06709 150.971 5.06709C150.502 5.07036 150.132 4.70727 150.132 4.24277ZM150.27 5.75402H151.665V11.6126H150.27V5.75402Z" fill="#FCF7EF"/>
<path d="M154.691 11.6158V7.02317H153.935V5.75398H154.691V3.51001H156.09V5.75398H157.357V7.02317H156.09V11.6158H154.691Z" fill="#FCF7EF"/>
<path d="M163.897 6.60452V5.75731H165.296V11.6158H163.897V10.7686C163.701 11.3378 162.99 11.7434 162.024 11.7434C161.199 11.7434 160.498 11.4523 159.928 10.87C159.368 10.278 159.089 9.55505 159.089 8.68494C159.089 7.81156 159.368 7.09192 159.928 6.50966C160.498 5.91759 161.195 5.62646 162.024 5.62646C162.987 5.62646 163.697 6.03535 163.897 6.60452ZM163.478 9.96394C163.828 9.62702 164.002 9.19523 164.002 8.68494C164.002 8.17138 163.828 7.74286 163.478 7.40594C163.141 7.06902 162.712 6.89238 162.211 6.89238C161.709 6.89238 161.303 7.06575 160.966 7.40594C160.638 7.74286 160.478 8.17465 160.478 8.68494C160.478 9.19523 160.638 9.62702 160.966 9.96394C161.303 10.3009 161.709 10.4742 162.211 10.4742C162.708 10.4742 163.141 10.3009 163.478 9.96394Z" fill="#FCF7EF"/>
<path d="M173.182 6.58157L172.321 7.47785C171.911 7.04607 171.413 6.83672 170.831 6.83672C170.316 6.83672 169.887 7.01008 169.537 7.36009C169.2 7.7101 169.026 8.1517 169.026 8.67507C169.026 9.19845 169.2 9.64005 169.537 9.99006C169.887 10.3401 170.316 10.5134 170.831 10.5134C171.413 10.5134 171.911 10.3041 172.321 9.8723L173.182 10.7686C172.553 11.4424 171.774 11.7793 170.831 11.7793C169.933 11.7793 169.177 11.4915 168.561 10.8962C167.945 10.3041 167.641 9.55827 167.641 8.67507C167.641 7.79188 167.942 7.05915 168.561 6.46381C169.177 5.87174 169.933 5.5708 170.831 5.5708C171.77 5.5708 172.553 5.90445 173.182 6.58157Z" fill="#FCF7EF"/>
<path d="M175.285 4.24277C175.285 3.77828 175.655 3.41846 176.123 3.41846C176.578 3.41846 176.948 3.77828 176.948 4.24277C176.948 4.70727 176.575 5.06709 176.123 5.06709C175.658 5.07036 175.285 4.70727 175.285 4.24277ZM175.425 5.75402H176.821V11.6126H175.425V5.75402Z" fill="#FCF7EF"/>
<path d="M187.969 11.6159V5.75414H189.355V6.59154C189.633 6.02237 190.298 5.63965 191.133 5.63965C192.531 5.63965 193.357 6.53266 193.357 7.9883V11.6159H191.958V8.18456C191.958 7.37987 191.493 6.88267 190.714 6.88267C189.921 6.88267 189.351 7.44202 189.351 8.24344V11.6159H187.969Z" fill="#FCF7EF"/>
<path d="M200.477 6.60452V5.75731H201.875V11.6158H200.477V10.7686C200.28 11.3378 199.57 11.7434 198.603 11.7434C197.778 11.7434 197.077 11.4523 196.507 10.87C195.947 10.278 195.669 9.55505 195.669 8.68494C195.669 7.81156 195.947 7.09192 196.507 6.50966C197.077 5.91759 197.775 5.62646 198.603 5.62646C199.57 5.62646 200.277 6.03535 200.477 6.60452ZM200.058 9.96394C200.408 9.62702 200.582 9.19523 200.582 8.68494C200.582 8.17138 200.408 7.74286 200.058 7.40594C199.72 7.06902 199.291 6.89238 198.79 6.89238C198.289 6.89238 197.883 7.06575 197.546 7.40594C197.218 7.74286 197.058 8.17465 197.058 8.68494C197.058 9.19523 197.218 9.62702 197.546 9.96394C197.883 10.3009 198.289 10.4742 198.79 10.4742C199.291 10.4742 199.72 10.3009 200.058 9.96394Z" fill="#FCF7EF"/>
<path d="M205.874 3.51001H204.479V11.6125H205.874V3.51001Z" fill="#FCF7EF"/>
<path d="M179.533 16.6011H185.719V30.1598C185.719 31.6939 186.093 32.358 187.131 32.358C187.504 32.358 187.753 32.3154 187.878 32.2762V37.5426C187.337 37.7487 186.384 37.873 185.015 37.873C181.36 37.873 179.533 35.9234 179.533 31.985V16.6011Z" fill="#FCF7EF"/>
<path d="M191.902 22.1979V16.6043V14.1641H197.922V16.6043H202.573V22.2012H197.922V29.6658C197.922 31.6546 198.711 32.443 200.578 32.443C200.912 32.443 201.449 32.4004 202.157 32.2761V37.7487C201.325 37.9548 200.329 38.0398 199.127 38.0398C194.31 38.0398 191.906 35.5505 191.906 30.5752V22.1979H191.902Z" fill="#FCF7EF"/>
<path d="M220.956 16.601V19.3357C220.333 17.5104 217.884 16.2249 214.73 16.2249C211.782 16.2249 209.293 17.2618 207.299 19.3749C205.347 21.4488 204.351 24.0199 204.351 27.0456C204.351 30.1139 205.347 32.685 207.299 34.7981C209.29 36.872 211.782 37.909 214.73 37.909C216.6 37.909 218.06 37.2842 219.21 36.4501L217.609 32.0112C217.065 32.178 216.482 32.2696 215.853 32.2696C214.36 32.2696 213.115 31.7724 212.077 30.778C211.039 29.741 210.541 28.498 210.541 27.0456C210.541 25.5933 211.039 24.3503 212.077 23.3558C213.115 22.3189 214.36 21.8217 215.853 21.8217C217.389 21.8217 218.676 22.3189 219.714 23.3558C220.792 24.3503 221.332 25.5933 221.332 27.0456V37.8632H226.818C226.857 37.8632 226.897 37.8664 226.936 37.8664C227.008 37.8664 227.073 37.8632 227.142 37.8632V30.1597V26.1363V16.601H220.956Z" fill="#FCF7EF"/>
<path d="M144.424 16.601V19.3357C143.802 17.5104 141.352 16.2249 138.198 16.2249C135.25 16.2249 132.761 17.2618 130.767 19.3749C128.815 21.4488 127.819 24.0199 127.819 27.0456C127.819 30.1139 128.815 32.685 130.767 34.7981C132.758 36.872 135.25 37.909 138.198 37.909C140.068 37.909 141.529 37.2842 142.678 36.4501L141.077 32.0112C140.533 32.178 139.95 32.2696 139.321 32.2696C137.828 32.2696 136.583 31.7724 135.545 30.778C134.507 29.741 134.009 28.498 134.009 27.0456C134.009 25.5933 134.507 24.3503 135.545 23.3558C136.583 22.3189 137.828 21.8217 139.321 21.8217C140.857 21.8217 142.144 22.3189 143.183 23.3558C144.26 24.3503 144.801 25.5933 144.801 27.0456V37.8632H150.286C150.326 37.8632 150.362 37.8664 150.404 37.8664C150.476 37.8664 150.542 37.8632 150.611 37.8632V30.1597V26.1363V16.601H144.424Z" fill="#FCF7EF"/>
<path d="M80.8614 16.601V19.3357C80.2391 17.5104 77.7894 16.2249 74.6355 16.2249C71.688 16.2249 69.1989 17.2618 67.2044 19.3749C65.2525 21.4488 64.2568 24.0199 64.2568 27.0456C64.2568 30.1139 65.2525 32.685 67.2044 34.7981C69.1956 36.872 71.688 37.909 74.6355 37.909C76.5056 37.909 77.9663 37.2842 79.1158 36.4501L77.5143 32.0112C76.9706 32.178 76.3877 32.2696 75.7589 32.2696C74.2654 32.2696 73.0209 31.7724 71.9827 30.778C70.9445 29.741 70.4467 28.498 70.4467 27.0456C70.4467 25.5933 70.9445 24.3503 71.9827 23.3558C73.0209 22.3189 74.2654 21.8217 75.7589 21.8217C77.2949 21.8217 78.582 22.3189 79.6202 23.3558C80.6977 24.3503 81.238 25.5933 81.238 27.0456V37.8632H86.727C86.7663 37.8632 86.8024 37.8664 86.845 37.8664C86.917 37.8664 86.9825 37.8632 87.0513 37.8632V30.1597V26.1363V16.601H80.8614Z" fill="#FCF7EF"/>
<path d="M126.863 32.5313C125.445 32.5313 124.603 32.636 124.119 31.7593C123.912 31.4126 123.834 30.8696 123.834 30.0747V24.8115C123.834 19.3815 121.178 16.1497 116.488 16.1497C113.042 16.1497 110.76 17.2684 109.6 19.4666C108.647 17.2684 106.738 16.1497 103.915 16.1497C101.383 16.1497 99.2674 17.3927 98.4781 19.2179V16.6076H92.2915V37.4968H98.4748V25.7667C98.4748 23.3199 99.9257 21.6222 101.92 21.6222C103.911 21.6222 105.032 23.1138 105.032 25.5606V37.4968H111.215V25.7667C111.215 23.3199 112.626 21.6222 114.618 21.6222C116.566 21.6222 117.647 23.1138 117.647 25.5606V31.779C117.647 35.7566 119.471 37.7487 123.166 37.7487C125.111 37.7454 127.78 36.6365 126.863 32.5313Z" fill="#FCF7EF"/>
<path d="M161.428 33.5649C163.514 32.6915 166.845 31.7298 170.493 32.3415L177.279 16.5225H171.319L165.653 29.1195L159.987 16.5225H154.023L160.901 32.5476C161.051 32.9041 161.228 33.241 161.428 33.5649Z" fill="#FCF7EF"/>
<path d="M237.311 52.4915C237.134 52.7074 237.082 52.7728 236.918 52.9396C236.014 53.8686 235.074 54.7584 234.04 55.5434C233.561 55.9032 233.067 56.2402 232.54 56.5215C232.232 56.685 231.914 56.829 231.587 56.9434C230.853 57.1986 230.116 57.1855 229.386 56.9565C228.642 56.7243 228.072 56.2598 227.676 55.5892C227.43 55.1705 227.263 54.7224 227.155 54.2481C227.113 54.0551 227.07 53.8588 227.028 53.656C226.975 53.6723 226.92 53.6724 226.884 53.6985C226.782 53.7803 226.687 53.8752 226.589 53.9667C225.953 54.5523 225.292 55.1051 224.588 55.6088C223.992 56.0341 223.376 56.4233 222.714 56.7406C222.174 57.0023 221.62 57.2215 221.028 57.3294C220.373 57.4505 219.714 57.5126 219.046 57.4276C218.699 57.385 218.359 57.3294 218.021 57.2248C216.954 56.8944 216.154 56.2369 215.604 55.2719C215.424 54.9546 215.27 54.6242 215.162 54.2742C215.142 54.2121 215.11 54.1532 215.021 54.1205C214.93 54.1957 214.825 54.2775 214.726 54.3658C214.291 54.7485 213.839 55.1149 213.367 55.4551C212.84 55.8345 212.293 56.1747 211.707 56.4593C211.016 56.793 210.292 57.0154 209.526 57.1135C208.897 57.1921 208.268 57.2149 207.636 57.1888C206.968 57.1626 206.319 57.0252 205.694 56.7897C205.288 56.636 204.908 56.4332 204.561 56.1747C203.932 55.7102 203.464 55.1182 203.162 54.3985C203.103 54.2612 203.054 54.1205 202.998 53.9831C202.976 53.9242 202.881 53.9046 202.831 53.9471C202.756 54.0125 202.684 54.0812 202.609 54.1467C202.196 54.5065 201.787 54.8728 201.364 55.2196C200.853 55.6416 200.306 56.0243 199.73 56.3547C199.226 56.6458 198.705 56.8977 198.132 57.0318C196.255 57.4701 194.644 56.3187 194.241 54.7191C194.166 54.4247 194.159 54.1303 194.13 53.8326C194.126 53.8097 194.09 53.7901 194.064 53.7738C194.054 53.7672 194.031 53.777 194.022 53.7868C193.982 53.8195 193.946 53.849 193.913 53.885C193.789 54.0191 193.671 54.1597 193.547 54.2939C193.186 54.6864 192.81 55.0593 192.4 55.3995C191.916 55.8051 191.401 56.1682 190.822 56.4299C190.471 56.5902 190.108 56.6948 189.721 56.7177C188.968 56.7603 188.405 56.4528 188.028 55.8018C187.851 55.4976 187.74 55.1672 187.681 54.8238C187.635 54.5621 187.602 54.3004 187.563 54.0387C187.557 53.9929 187.481 53.9733 187.442 54.006C187.353 54.078 187.262 54.1532 187.177 54.2284C186.577 54.7551 185.958 55.2556 185.303 55.7135C184.691 56.142 184.052 56.528 183.371 56.8388C182.903 57.0514 182.418 57.228 181.914 57.3327C181.239 57.4701 180.564 57.4864 179.893 57.3033C178.386 56.8976 177.699 55.6775 177.604 54.5981C177.591 54.4672 177.577 54.3331 177.558 54.2023C177.554 54.1794 177.515 54.1597 177.489 54.1434C177.479 54.1368 177.453 54.1467 177.443 54.1565C177.338 54.2611 177.23 54.3658 177.129 54.4738C176.641 54.9971 176.143 55.5074 175.599 55.9719C175.285 56.2402 174.957 56.4953 174.623 56.7439C174.345 56.9533 174.037 57.1201 173.719 57.2673C172.901 57.6402 172.052 57.6794 171.188 57.4734C170.88 57.3981 170.598 57.2477 170.346 57.0547C170.025 56.8126 169.763 56.5149 169.557 56.1682C169.275 55.6906 169.105 55.1738 169.039 54.6242C168.938 53.7705 169.043 52.9364 169.298 52.1186C169.485 51.5298 169.73 50.9704 170.035 50.4372C171.08 48.612 172.491 47.1498 174.315 46.0899C175.079 45.6451 175.887 45.3016 176.749 45.0988C177.008 45.0399 177.27 44.981 177.532 44.9647C178.681 44.8927 179.601 45.3343 180.286 46.26C180.384 46.3909 180.466 46.5348 180.558 46.682C180.61 46.6559 180.663 46.6428 180.692 46.6101C180.816 46.4759 181.17 46.0507 181.324 45.8413L183.306 46.9372C183.25 47.0582 183.168 47.2577 183.125 47.333C183.07 47.4344 183.014 47.5358 182.942 47.6274C182.791 47.8236 182.631 48.0166 182.47 48.2063C182.018 48.7363 181.566 49.2662 181.111 49.7961C180.947 49.9858 180.81 50.1919 180.692 50.4111C180.374 51.0129 180.08 51.6246 179.86 52.269C179.713 52.6943 179.601 53.1261 179.565 53.5742C179.549 53.7901 179.559 54.006 179.595 54.2186C179.677 54.7093 180.027 55.0429 180.532 55.1084C180.898 55.1574 181.262 55.1313 181.619 55.0528C182.14 54.9415 182.637 54.7584 183.125 54.5392C183.931 54.1794 184.701 53.7574 185.428 53.2569C186.25 52.691 187.016 52.0564 187.75 51.3826C187.848 51.2943 187.94 51.2027 187.986 51.0686C188.585 49.2956 189.6 47.768 190.825 46.3745C191.166 45.9885 191.529 45.6255 191.88 45.246C192.027 45.089 192.201 45.0268 192.413 45.0268C192.669 45.0268 192.908 45.0824 193.131 45.2002C193.232 45.2525 193.33 45.3212 193.416 45.3997C193.671 45.6353 193.727 45.9591 193.56 46.26C193.481 46.404 193.38 46.5381 193.278 46.6689C192.947 47.104 192.607 47.5325 192.276 47.9708C191.788 48.6218 191.326 49.2891 190.913 49.9924C190.694 50.3653 190.494 50.7447 190.317 51.1405C190.003 51.8405 189.807 52.5765 189.705 53.3354C189.669 53.6004 189.666 53.8653 189.748 54.1238C189.767 54.1859 189.79 54.2513 189.823 54.3069C189.895 54.428 190.003 54.5032 190.15 54.4967C190.249 54.4901 190.35 54.477 190.442 54.4476C190.665 54.3789 190.868 54.2611 191.064 54.1368C191.428 53.9013 191.758 53.6233 192.076 53.3322C192.528 52.9167 192.954 52.4719 193.357 52.0106C194.529 50.6728 195.574 49.2367 196.54 47.7451C196.982 47.0647 197.395 46.3614 197.821 45.6712C197.873 45.5862 197.919 45.4979 197.968 45.4096C198.079 45.2035 198.266 45.0988 198.489 45.0628C198.842 45.0105 199.186 45.0563 199.497 45.2427C199.583 45.2918 199.664 45.3539 199.73 45.4259C199.894 45.6156 199.959 45.8315 199.851 46.0703C199.792 46.2044 199.714 46.3353 199.635 46.4596C199.216 47.1563 198.787 47.8465 198.377 48.5465C197.909 49.348 197.47 50.169 197.08 51.0129C196.815 51.5854 196.563 52.1611 196.412 52.7793C196.357 53.005 196.308 53.2308 196.275 53.4597C196.232 53.7574 196.245 54.0551 196.337 54.3462C196.468 54.7682 196.759 55.0135 197.185 55.0953C197.549 55.164 197.912 55.1378 198.269 55.0397C198.59 54.9513 198.898 54.8271 199.183 54.6504C199.448 54.4836 199.714 54.3102 199.966 54.1172C200.283 53.8752 200.595 53.6266 200.889 53.3616C201.482 52.8284 202.062 52.2821 202.648 51.7424C202.759 51.6377 202.845 51.5232 202.871 51.3662C202.894 51.2354 202.926 51.1078 202.962 50.9802C203.09 50.5321 203.264 50.1036 203.483 49.6914C203.686 49.3087 203.915 48.9456 204.174 48.5989C205.055 47.4376 206.107 46.4563 207.331 45.6647C208.075 45.1839 208.871 44.8208 209.732 44.5951C210.413 44.4184 211.104 44.3595 211.805 44.4413C212.29 44.5002 212.742 44.6507 213.145 44.9352C213.557 45.2264 213.819 45.6124 213.927 46.1063C213.986 46.3713 213.986 46.6297 213.927 46.8946C213.862 47.189 213.754 47.4638 213.606 47.7288C213.204 48.4484 212.65 49.0405 212.021 49.5639C211.858 49.7045 211.835 49.7241 211.733 49.8157C211.314 49.3709 211.121 49.1452 210.587 48.5106C210.836 48.2358 210.793 48.2881 210.98 48.069C211.065 47.9676 211.163 47.8792 211.255 47.7811C211.448 47.5685 211.596 47.3297 211.651 47.0451C211.674 46.9339 211.681 46.8129 211.661 46.7016C211.569 46.2044 211.157 46.0442 210.783 46.0703C210.603 46.0834 210.423 46.1259 210.256 46.211C210.05 46.3157 209.837 46.4105 209.637 46.5283C208.356 47.297 207.256 48.2718 206.342 49.4526C205.812 50.1428 205.409 50.9017 205.176 51.7457C205.068 52.1317 205.006 52.5209 205.019 52.9233C205.029 53.1915 205.078 53.4499 205.167 53.7018C205.373 54.2971 205.779 54.7191 206.349 54.9808C206.794 55.1836 207.266 55.2654 207.751 55.2785C208.167 55.2883 208.579 55.2261 208.985 55.1443C209.771 54.9841 210.511 54.6962 211.229 54.3397C211.854 54.0289 212.45 53.6691 213.023 53.2733C213.665 52.8284 214.275 52.341 214.864 51.8275C215.008 51.7032 215.11 51.5658 215.159 51.3793C215.493 50.1199 216.141 49.0274 216.999 48.0591C217.841 47.1105 218.797 46.2928 219.868 45.6091C220.487 45.2166 221.139 44.8895 221.85 44.6965C222.253 44.5852 222.659 44.5198 223.081 44.546C223.35 44.5623 223.605 44.6245 223.851 44.739C224.375 44.9843 224.666 45.4063 224.748 45.9689C224.801 46.332 224.778 46.6951 224.686 47.0549C224.594 47.4278 224.46 47.7844 224.286 48.1246C223.877 48.9293 223.373 49.6653 222.718 50.29C221.899 51.0686 221.041 51.8013 220.163 52.5111C219.57 52.992 218.964 53.4597 218.336 53.8915C218.047 54.0878 217.753 54.2742 217.461 54.464C217.363 54.5294 217.347 54.6112 217.405 54.7191C217.69 55.2392 218.146 55.5107 218.722 55.5925C219.171 55.6546 219.619 55.6383 220.058 55.5401C220.366 55.4715 220.674 55.3995 220.972 55.3014C222.276 54.8728 223.487 54.2742 224.565 53.4107C225.357 52.7761 226.104 52.0957 226.831 51.3891C226.942 51.2812 227.015 51.1667 227.031 51.0031C227.152 49.6587 227.473 48.3568 227.886 47.0745C228.436 45.3638 229.166 43.7315 230.047 42.1646C231.662 39.2959 233.65 36.715 236.021 34.4318C236.522 33.9476 237.046 33.4864 237.6 33.0612C238.205 32.5901 238.844 32.1747 239.542 31.8541C239.905 31.6873 240.279 31.5532 240.668 31.4649C241.045 31.3766 241.425 31.37 241.808 31.406C242.011 31.4256 242.194 31.4976 242.371 31.5957C242.61 31.7298 242.784 31.9228 242.889 32.178C242.918 32.2532 242.958 32.3252 242.994 32.4004C242.994 32.963 242.994 33.5289 242.994 34.0916C242.967 34.1308 242.918 34.1668 242.915 34.2093C242.882 34.5103 242.768 34.785 242.656 35.0631C242.427 35.6323 242.142 36.1785 241.837 36.7117C241.261 37.7225 240.603 38.6776 239.912 39.6132C238.857 41.0426 237.727 42.4132 236.561 43.7511C234.74 45.8413 232.841 47.8596 230.886 49.8255C230.371 50.3424 229.851 50.8559 229.333 51.3728C229.251 51.4545 229.166 51.5331 229.084 51.6181C229.016 51.6901 228.966 51.7751 228.96 51.8831C228.911 52.5798 228.891 53.2765 229.048 53.9635C229.091 54.1565 229.16 54.3462 229.242 54.5261C229.422 54.9219 229.746 55.1313 230.172 55.1869C230.404 55.2163 230.633 55.2098 230.863 55.1509C231.154 55.0789 231.433 54.9742 231.701 54.8434C232.104 54.6471 232.484 54.4051 232.851 54.1467C233.558 53.6495 234.223 53.0966 234.865 52.5209C235.31 52.1219 235.743 51.7097 236.181 51.3041C236.267 51.2256 236.348 51.1405 236.44 51.0718L237.311 52.4915ZM240.989 33.964C240.986 33.9149 240.986 33.8822 240.979 33.8495C240.973 33.8168 240.963 33.7841 240.953 33.7546C240.917 33.6303 240.776 33.5322 240.649 33.5453C240.432 33.5682 240.229 33.6369 240.033 33.735C239.722 33.892 239.43 34.0818 239.152 34.2911C238.517 34.7752 237.92 35.2986 237.36 35.8645C236.836 36.3977 236.342 36.9538 235.867 37.5328C234.171 39.6066 232.716 41.8375 231.485 44.2123C230.837 45.4619 230.26 46.7474 229.802 48.082C229.72 48.3176 229.644 48.5531 229.569 48.7886C229.549 48.8475 229.566 48.9358 229.589 48.926C229.635 48.9096 229.684 48.8933 229.716 48.8638C229.792 48.7984 229.857 48.7232 229.926 48.6512C232.53 45.9722 234.986 43.1689 237.282 40.2249C238.117 39.152 238.919 38.0561 239.65 36.908C239.935 36.4598 240.206 36.0052 240.449 35.5341C240.609 35.2234 240.753 34.9093 240.862 34.5757C240.924 34.3729 240.979 34.1668 240.989 33.964ZM179.009 48.5106C179.015 48.2881 178.992 48.0788 178.933 47.8662C178.789 47.3232 178.422 47.1105 177.98 47.0484C177.915 47.0386 177.849 47.0418 177.78 47.0386C177.394 47.0222 177.021 47.0942 176.651 47.1988C175.92 47.4049 175.278 47.7778 174.682 48.2358C174.086 48.6937 173.565 49.2237 173.097 49.8125C172.432 50.6466 171.882 51.5527 171.502 52.5536C171.348 52.9593 171.24 53.3747 171.178 53.8032C171.142 54.0682 171.152 54.3298 171.214 54.5915C171.315 55.0233 171.617 55.2621 172.065 55.2948C172.282 55.3112 172.495 55.2883 172.707 55.2327C173.048 55.1411 173.359 54.9906 173.664 54.8172C174.053 54.5915 174.41 54.3233 174.758 54.0354C175.409 53.4924 176.002 52.8906 176.572 52.2625C177.243 51.5232 177.862 50.7447 178.481 49.9662C178.606 49.8125 178.707 49.6391 178.812 49.469C178.855 49.4003 178.891 49.3218 178.907 49.24C178.959 49.0012 179.018 48.7559 179.009 48.5106ZM217.455 52.0793C217.556 52.0204 217.658 51.9648 217.753 51.8994C218.499 51.4055 219.22 50.8756 219.911 50.2999C220.487 49.8223 221.021 49.3022 221.506 48.733C221.797 48.3928 222.072 48.0395 222.308 47.6568C222.429 47.4573 222.541 47.2545 222.61 47.032C222.629 46.9699 222.646 46.9045 222.659 46.839C222.691 46.6689 222.57 46.5348 222.407 46.561C222.357 46.5675 222.308 46.5773 222.259 46.5904C221.948 46.6657 221.666 46.803 221.395 46.9666C220.893 47.2643 220.441 47.6274 219.999 48.0068C218.869 48.9816 218.07 50.1854 217.533 51.569C217.481 51.7064 217.442 51.8503 217.402 51.9943C217.405 52.0139 217.435 52.0433 217.455 52.0793Z" fill="#FCF7EF"/>
<path d="M155.382 64.8726C152.484 64.4637 150.336 62.9721 148.937 60.4075C148.433 59.4818 148.125 58.4874 147.925 57.4537C147.729 56.42 147.673 55.3798 147.735 54.3331C147.797 53.2863 147.991 52.2625 148.279 51.255C148.734 49.6685 149.412 48.1769 150.257 46.7605C150.987 45.5305 151.829 44.3824 152.762 43.2964C155.042 40.6501 157.727 38.5173 160.845 36.9341C162.27 36.2112 163.747 35.6257 165.303 35.2429C166.498 34.9485 167.71 34.7621 168.948 34.8013C169.714 34.8242 170.467 34.9387 171.198 35.1841C171.496 35.2855 171.787 35.4098 172.062 35.5635C173.238 36.2112 173.952 37.2023 174.234 38.5075C174.381 39.1813 174.384 39.8552 174.26 40.5323C174.194 40.8758 174.132 41.216 174.024 41.5464C173.962 41.7361 173.88 41.916 173.798 42.0959C173.762 42.1711 173.697 42.2267 173.605 42.2333C173.589 42.2333 173.572 42.2366 173.556 42.2366C172.943 42.2693 172.328 42.302 171.715 42.3347C171.65 42.338 171.581 42.3347 171.515 42.3347C171.473 42.3347 171.42 42.2693 171.434 42.2333C171.473 42.1253 171.509 42.0141 171.555 41.9094C171.745 41.4842 171.892 41.0459 171.987 40.5879C172.095 40.0645 172.131 39.5379 172.043 39.008C171.902 38.1542 171.46 37.5033 170.693 37.0846C170.294 36.8687 169.865 36.7411 169.419 36.6855C168.656 36.5874 167.893 36.6201 167.137 36.728C165.692 36.9308 164.336 37.4051 163.03 38.0397C161.621 38.7234 160.315 39.5706 159.09 40.5454C156.388 42.6978 154.138 45.246 152.366 48.2129C151.639 49.4264 151.03 50.6923 150.584 52.0368C150.339 52.7793 150.159 53.5349 150.051 54.3069C150.041 54.3723 150.034 54.4378 150.028 54.5032C149.92 56.0112 150.11 57.4831 150.627 58.9061C150.827 59.4524 151.092 59.9692 151.423 60.45C152.104 61.4314 152.998 62.1477 154.115 62.5763C155.173 62.9819 156.26 63.1258 157.39 62.995C158.389 62.8805 159.345 62.622 160.266 62.2328C162.093 61.4641 163.714 60.3912 165.073 58.9355C165.142 58.8636 165.296 58.6967 165.404 58.5888L167.009 59.243C166.96 59.3477 166.898 59.4458 166.826 59.5374C166.714 59.6813 166.596 59.8187 166.475 59.9594C165.28 61.3365 163.911 62.5076 162.316 63.4006C161.251 63.9959 160.131 64.4375 158.939 64.7025C158.468 64.8071 157.989 64.8595 157.515 64.9314C157.515 64.938 156.604 65.023 155.382 64.8726Z" fill="#FCF7EF"/>
</g>
<defs>
<clipPath id="clip0">
<rect width="243" height="65" fill="white"/>
</clipPath>
</defs>
</svg>
