<svg width="1273" height="270" viewBox="0 0 1273 270" fill="none" xmlns="http://www.w3.org/2000/svg">
<path d="M265.424 38.7396C267.34 37.4749 269.541 36.7609 272.328 36.2465C272.328 36.2344 272.322 36.2283 272.322 36.2162C274.819 35.7745 277.636 35.478 280.919 35.1331C282.134 35.006 283.427 34.8729 284.794 34.7216C289.388 34.2133 294.775 33.705 300.137 33.6142H300.143C310.046 33.4932 318.244 35.1875 321.242 41.6199C323.413 46.2854 322.204 50.5514 320.027 53.5286C319.392 54.3939 318.673 55.1563 317.935 55.7796C314.653 58.545 309.278 60.203 304.049 56.5602C298.838 52.9356 297.743 48.0826 295.881 38.6549C294.267 38.7517 292.623 38.8788 290.966 39.03C293.022 49.432 294.334 55.7554 301.256 60.5782C307.434 64.8866 315.227 64.4691 321.097 59.5253C326.067 55.3379 329.416 47.538 325.686 39.5504C321.351 30.2559 310.07 28.4284 298.898 28.7007L298.904 28.6947C295.688 28.7431 292.308 29.0517 288.862 29.3724V29.3784C287.266 29.5418 285.725 29.7113 284.262 29.8746C282.895 30.0259 281.608 30.159 280.393 30.2861C280.102 30.3164 279.812 30.3466 279.528 30.3769L279.522 30.3527C277.72 30.5403 276.106 30.7157 274.631 30.9094L274.637 30.9396C269.777 31.575 266.071 32.4524 262.728 34.6611L265.424 38.7396Z" fill="#ED6F63"/>
<path d="M408.093 118.47C405.148 124.103 407.288 130.439 413.425 134.233C416.387 136.066 419.633 136.732 423.877 137.162L423.871 137.186C425.159 137.313 426.568 137.422 428.14 137.543V137.519C428.387 137.537 428.635 137.555 428.895 137.573C429.953 137.652 431.078 137.736 432.269 137.833C433.544 137.936 434.892 138.045 436.283 138.142L436.277 138.148C439.282 138.342 442.232 138.523 445.025 138.481H445.019C454.74 138.432 464.504 136.556 468.034 128.357C471.069 121.314 467.962 114.621 463.53 111.105L460.882 114.446C461.541 114.972 462.188 115.607 462.762 116.346C464.733 118.875 465.894 122.554 464.123 126.669C461.68 132.339 454.595 134.021 445.98 134.172H445.974C441.307 134.233 436.615 133.93 432.607 133.604C431.41 133.507 430.286 133.422 429.228 133.343C426.362 133.132 423.908 132.944 421.725 132.623C421.725 132.611 421.725 132.605 421.731 132.593C419.295 132.218 417.366 131.649 415.662 130.602C412.488 128.642 409.586 124.799 411.865 120.442L408.093 118.47Z" fill="#E3D6C7"/>
<path d="M444.245 139.007C441.579 139.007 438.762 138.826 436.253 138.668L435.503 138.62L435.509 138.608C434.379 138.523 433.285 138.438 432.233 138.354C431.078 138.263 429.984 138.178 428.956 138.1L428.599 138.075L428.11 138.063C426.447 137.936 425.081 137.827 423.829 137.706L423.285 137.652L423.291 137.621C419.368 137.198 416.121 136.502 413.165 134.675C406.781 130.735 404.562 124.127 407.646 118.234L407.881 117.78L412.567 120.237L412.331 120.69C410.215 124.733 412.954 128.327 415.946 130.173C417.464 131.104 419.271 131.697 421.822 132.091L422.318 132.169V132.188C424.416 132.472 426.786 132.647 429.289 132.835L429.772 132.871C430.691 132.938 431.658 133.011 432.674 133.095C436.344 133.392 441.168 133.725 445.992 133.664H446.089H446.095C456.058 133.476 461.644 131.189 463.682 126.475C465.647 121.913 463.712 118.373 462.388 116.672C461.85 115.989 461.251 115.377 460.592 114.857L460.193 114.536L463.476 110.391L463.875 110.712C468.458 114.349 471.674 121.277 468.53 128.569C465.767 134.977 459.033 138.378 447.969 138.922L448.072 138.959L446.21 138.989C445.908 138.995 445.612 139.001 445.303 139.001L445.055 139.007C444.777 139.007 444.511 139.007 444.245 139.007ZM436.864 137.676C439.107 137.821 441.561 137.966 443.901 137.979L445.025 137.972C457.382 137.906 464.758 134.699 467.575 128.164C470.41 121.58 467.678 115.311 463.621 111.844L461.608 114.379C462.176 114.875 462.702 115.432 463.18 116.037C465.677 119.238 466.197 123.189 464.607 126.881C462.388 132.024 456.475 134.511 445.999 134.693H445.902H445.896C441.065 134.753 436.241 134.42 432.577 134.124C431.562 134.039 430.601 133.967 429.682 133.9L429.198 133.864C426.477 133.658 423.908 133.47 421.659 133.138L421.163 133.065L421.169 133.029C418.733 132.611 416.938 131.994 415.402 131.044C412.149 129.035 409.181 125.15 411.194 120.672L408.323 119.172C405.856 124.436 407.972 130.263 413.703 133.797C416.629 135.6 419.906 136.248 423.938 136.653L424.482 136.708L424.476 136.732C425.45 136.823 426.508 136.907 427.729 136.998L428.188 137.01L429.035 137.071C430.068 137.15 431.163 137.228 432.323 137.325C433.599 137.428 434.941 137.537 436.332 137.634L436.864 137.676Z" fill="#E3D6C7"/>
<path d="M249.3 167.726C243.533 165.063 237.312 167.52 233.836 173.844C232.161 176.899 231.653 180.173 231.435 184.439L231.411 184.433C231.351 185.728 231.309 187.144 231.266 188.717H231.29C231.284 188.965 231.278 189.22 231.272 189.474C231.248 190.539 231.218 191.664 231.182 192.862C231.139 194.145 231.103 195.495 231.073 196.892H231.067C231.024 199.906 230.988 202.859 231.169 205.655V205.649C231.708 215.367 234.065 225.03 242.42 228.153C249.596 230.833 256.125 227.39 259.408 222.785L255.944 220.304C255.454 220.988 254.85 221.666 254.137 222.277C251.712 224.371 248.097 225.72 243.907 224.153C238.128 221.993 236.097 214.998 235.516 206.387V206.381C235.22 201.721 235.293 197.014 235.413 192.983C235.45 191.785 235.48 190.66 235.504 189.595C235.577 186.72 235.637 184.258 235.849 182.055C235.861 182.055 235.867 182.055 235.873 182.055C236.127 179.604 236.598 177.644 237.56 175.889C239.361 172.615 243.049 169.523 247.505 171.587L249.3 167.726Z" fill="#E3D6C7"/>
<path d="M249.3 167.726C243.533 165.063 237.312 167.52 233.836 173.844C232.161 176.899 231.653 180.173 231.435 184.439L231.411 184.433C231.351 185.728 231.309 187.144 231.266 188.717H231.29C231.284 188.965 231.278 189.22 231.272 189.474C231.248 190.539 231.218 191.664 231.182 192.862C231.139 194.145 231.103 195.495 231.073 196.892H231.067C231.024 199.906 230.988 202.859 231.169 205.655V205.649C231.708 215.367 234.065 225.03 242.42 228.153C249.596 230.833 256.125 227.39 259.408 222.785L255.944 220.304C255.454 220.988 254.85 221.666 254.137 222.277C251.712 224.371 248.097 225.72 243.907 224.153C238.128 221.993 236.097 214.998 235.516 206.387V206.381C235.22 201.721 235.293 197.014 235.413 192.983C235.45 191.785 235.48 190.66 235.504 189.595C235.577 186.72 235.637 184.258 235.849 182.055C235.861 182.055 235.867 182.055 235.873 182.055C236.127 179.604 236.598 177.644 237.56 175.889C239.361 172.615 243.049 169.523 247.505 171.587L249.3 167.726Z" fill="#E3D6C7"/>
<path d="M409.199 56.2334L425.71 76.1417C426.737 74.9375 427.771 73.7757 428.781 72.6562L415.148 56.2334L428.775 39.8166C427.765 38.6972 426.737 37.5354 425.704 36.3312L412.168 52.639L409.199 56.2334ZM412.174 56.2274L412.186 56.2334L412.174 56.2455L412.162 56.2334L412.174 56.2274Z" fill="#E3D6C7"/>
<path d="M434.596 66.2602C435.708 65.0379 436.742 63.9063 437.734 62.8837L431.857 56.2335L437.734 49.5893C436.742 48.5606 435.708 47.4351 434.596 46.2128L425.739 56.2395L434.596 66.2602Z" fill="#E3D6C7"/>
<path d="M391.927 140.95C393.04 139.727 394.073 138.596 395.065 137.573L389.189 130.929L395.065 124.285C394.073 123.256 393.04 122.13 391.927 120.908L383.064 130.935L391.927 140.95Z" fill="#E3D6C7"/>
<path d="M379.238 140.95C380.35 139.727 381.39 138.596 382.375 137.573L376.499 130.929L382.375 124.285C381.384 123.256 380.35 122.13 379.238 120.908L370.381 130.935L379.238 140.95Z" fill="#E3D6C7"/>
<path d="M480.476 157.39C479.115 156.156 477.87 155.006 476.727 153.905L469.358 160.428L461.994 153.905C460.852 155.006 459.606 156.156 458.246 157.39L469.358 167.23L480.476 157.39Z" fill="#ED6F63"/>
<path d="M401.31 191.555C399.949 190.321 398.704 189.171 397.561 188.07L390.192 194.593L382.822 188.07C381.686 189.171 380.434 190.321 379.074 191.555L390.186 201.394L401.31 191.555Z" fill="#ED6F63"/>
<path d="M262.359 131.83C261.12 133.192 259.971 134.438 258.877 135.582L265.394 142.958L258.877 150.335C259.977 151.472 261.126 152.725 262.359 154.08L272.189 142.958L262.359 131.83Z" fill="#ED6F63"/>
<path d="M127.676 109.502C126.436 110.863 125.294 112.11 124.193 113.253L130.717 120.63L124.193 128.006C125.294 129.144 126.442 130.396 127.676 131.758L137.506 120.636L127.676 109.502Z" fill="#ED6F63"/>
<path d="M20.1562 144.532C21.3895 143.17 22.5382 141.924 23.6385 140.786L17.1214 133.41L23.6385 126.034C22.5382 124.89 21.3895 123.643 20.1562 122.282L10.3262 133.404L20.1562 144.532Z" fill="#ED6F63"/>
<path d="M465.247 206.901C463.089 208.535 460.943 210.374 458.772 212.286L462.007 216.068C464.28 214.09 466.71 212.069 469.213 210.169C477.175 204.196 484.829 200.729 491.092 204.166C496.992 207.397 497.893 213.485 496.865 217.708C495.838 221.938 492.44 226.519 485.99 226.676C481.486 226.791 478.269 225.2 474.291 221.98L471.021 225.714C475.803 229.617 480.023 231.795 486.116 231.644C493.746 231.457 499.858 226.446 501.69 218.882C502.01 217.551 502.186 216.141 502.186 214.695C502.186 209.182 499.683 203.21 493.48 199.809C484.418 194.847 474.177 200.039 465.247 206.901Z" fill="#ED6F63"/>
<path d="M401.806 3.20117H407.301C407.301 12.8467 415.142 20.6951 424.779 20.6951C434.415 20.6951 442.256 12.8467 442.256 3.20117H447.752C447.752 15.8783 437.444 26.1956 424.779 26.1956C412.113 26.1956 401.806 15.8783 401.806 3.20117Z" fill="#113D67"/>
<path d="M432.051 260.26V254.76C441.687 254.76 449.529 246.911 449.529 237.272C449.529 227.626 441.687 219.778 432.051 219.778V214.277C444.716 214.277 455.024 224.595 455.024 237.272C455.024 249.949 444.716 260.26 432.051 260.26Z" fill="#E3D6C7"/>
<path d="M432.051 260.26V254.76C441.687 254.76 449.529 246.911 449.529 237.272C449.529 227.626 441.687 219.778 432.051 219.778V214.277C444.716 214.277 455.024 224.595 455.024 237.272C455.024 249.949 444.716 260.26 432.051 260.26Z" fill="#E3D6C7"/>
<path d="M473.457 78.3807H478.952C478.952 88.0262 486.794 95.8746 496.424 95.8746V101.375C483.765 101.375 473.457 91.0578 473.457 78.3807Z" fill="#ED6F63"/>
<path d="M287.411 213.194C299.768 212.402 306.733 207.573 310.402 203.67L310.493 203.573C316.859 197.413 317.754 188.736 317.826 187.87V169.215H323.322L323.316 188.155C323.285 188.621 322.499 199.573 314.356 207.488C309.997 212.111 301.854 217.781 287.756 218.689L287.411 213.194Z" fill="#E3D6C7"/>
<path d="M501.732 247.274H475.627V252.775H501.732V247.274Z" fill="#113D67"/>
<path d="M496.484 183.767H457.067V189.268H496.484V183.767Z" fill="#E3D6C7"/>
<path d="M420.915 237.266H381.492V242.766H420.915V237.266Z" fill="#E3D6C7"/>
<path d="M504.247 52.9354H498.752V79.4274H504.247V52.9354Z" fill="#113D67"/>
<path d="M394.502 19.6118H389.007V46.1038H394.502V19.6118Z" fill="#E3D6C7"/>
<path d="M340.57 171.49H335.074V210.949H340.57V171.49Z" fill="#ED6F63"/>
<path d="M503.787 138.305H498.292V171.714H503.787V138.305Z" fill="#ED6F63"/>
<path d="M270.937 53.3289H265.441V79.0342H270.937V53.3289Z" fill="#ED6F63"/>
<path d="M218.402 30.413H212.906V56.1183H218.402V30.413Z" fill="#ED6F63"/>
<path d="M278.374 194.732H252.692V200.233H278.374V194.732Z" fill="#ED6F63"/>
<path d="M242.245 263.624H216.563V269.125H242.245V263.624Z" fill="#113D67"/>
<path d="M279.22 11.0132H253.538V16.5137H279.22V11.0132Z" fill="#ED6F63"/>
<path d="M504.06 3.52777H464.637V9.02827H504.06V3.52777Z" fill="#ED6F63"/>
<path d="M393.384 97.121V91.6205L418.606 91.6326C418.793 91.6447 423.249 92.0501 427.928 95.0394C432.233 97.7866 437.595 103.311 438.719 114.028L433.254 114.603C431.634 99.1179 419.567 97.2844 418.243 97.127H393.384V97.121Z" fill="#ED6F63"/>
<path d="M334.271 229.635L339.736 229.06C341.356 244.545 353.423 246.379 354.747 246.536H370.356V252.037L354.378 252.031C354.191 252.012 349.735 251.613 345.056 248.624C340.757 245.877 335.389 240.352 334.271 229.635Z" fill="#113D67"/>
<path d="M411.104 196.935V191.434C428.104 191.434 445.545 177.595 445.545 160.579H451.04C451.046 180.621 431.132 196.935 411.104 196.935Z" fill="#113D67"/>
<path d="M453.253 68.3116V62.8111H458.301C465.036 62.8111 470.513 57.3287 470.513 50.5877C470.513 43.8467 465.036 38.3583 458.301 38.3583H453.253V32.8578H458.301C468.065 32.8578 476.014 40.8091 476.014 50.5877C476.014 60.3603 468.071 68.3116 458.301 68.3116H453.253V68.3116Z" fill="#ED6F63"/>
<path d="M318.141 141.821V137.059H323.636V141.821C323.636 148.09 328.732 153.191 334.996 153.191C341.259 153.191 346.355 148.09 346.355 141.821V137.059H351.851V141.821C351.851 151.121 344.288 158.691 334.996 158.691C325.704 158.691 318.141 151.128 318.141 141.821Z" fill="#113D67"/>
<path d="M265.532 114.899V110.137C265.532 100.836 272.926 93.2664 282.018 93.2664C291.111 93.2664 298.505 100.836 298.505 110.137V141.621H293.009V110.137C293.009 103.868 288.082 98.7669 282.018 98.7669C275.961 98.7669 271.028 103.868 271.028 110.137V114.899H265.532Z" fill="#113D67"/>
<path d="M352.311 197.485C352.311 184.935 362.515 174.727 375.048 174.727V180.228C365.538 180.228 357.806 187.973 357.806 197.485C357.806 207.004 365.538 214.743 375.048 214.743H388.445V220.244H375.048C362.515 220.244 352.311 210.036 352.311 197.485Z" fill="#E3D6C7"/>
<path d="M333.521 35.7381C334.796 23.9807 341.005 18.5468 345.999 16.0537C351.355 13.3791 356.421 13.5122 356.633 13.5183L356.463 19.0188C355.829 19.0006 340.878 18.8372 338.986 36.3311L333.521 35.7381Z" fill="#113D67"/>
<path d="M321.98 106.936C321.98 109.834 319.629 112.188 316.733 112.188C313.837 112.188 311.485 109.834 311.485 106.936C311.485 104.037 313.837 101.684 316.733 101.684C319.629 101.684 321.98 104.031 321.98 106.936Z" fill="#ED6F63"/>
<path d="M321.98 117.441C321.98 120.339 319.629 122.693 316.733 122.693C313.837 122.693 311.485 120.339 311.485 117.441C311.485 114.542 313.837 112.188 316.733 112.188C319.629 112.188 321.98 114.542 321.98 117.441Z" fill="#ED6F63"/>
<path d="M499.707 43.3627C496.806 43.3627 494.46 41.0088 494.46 38.1103C494.46 35.2117 496.812 32.8578 499.707 32.8578C502.603 32.8578 504.955 35.2117 504.955 38.1103C504.955 41.0148 502.603 43.3627 499.707 43.3627Z" fill="#E3D6C7"/>
<path d="M455.024 98.7668C452.128 98.7668 449.776 96.4129 449.776 93.5144C449.776 90.6159 452.128 88.262 455.024 88.262C457.92 88.262 460.271 90.6159 460.271 93.5144C460.271 96.4129 457.92 98.7668 455.024 98.7668Z" fill="#113D67"/>
<path d="M388.136 72.8437C385.234 72.8437 382.889 70.4898 382.889 67.5913C382.889 64.6928 385.24 62.3389 388.136 62.3389C391.038 62.3389 393.384 64.6928 393.384 67.5913C393.39 70.4898 391.038 72.8437 388.136 72.8437Z" fill="#113D67"/>
<path d="M290.453 81.3941C287.557 81.3941 285.205 79.0402 285.205 76.1417C285.205 73.2432 287.557 70.8893 290.453 70.8893C293.348 70.8893 295.7 73.2432 295.7 76.1417C295.7 79.0402 293.348 81.3941 290.453 81.3941Z" fill="#E3D6C7"/>
<path d="M251.659 89.7325C248.763 89.7325 246.411 87.3786 246.411 84.4801C246.411 81.5816 248.763 79.2277 251.659 79.2277C254.555 79.2277 256.906 81.5816 256.906 84.4801C256.906 87.3786 254.561 89.7325 251.659 89.7325Z" fill="#E3D6C7"/>
<path d="M376.535 105.901C373.633 105.901 371.287 103.547 371.287 100.649C371.287 97.7504 373.639 95.3965 376.535 95.3965C379.43 95.3965 381.782 97.7504 381.782 100.649C381.782 103.547 379.43 105.901 376.535 105.901Z" fill="#113D67"/>
<path d="M408.147 223.941C405.245 223.941 402.899 221.587 402.899 218.689C402.899 215.79 405.251 213.436 408.147 213.436C411.043 213.436 413.395 215.79 413.395 218.689C413.395 221.587 411.043 223.941 408.147 223.941Z" fill="#ED6F63"/>
<path d="M413.558 266.311C410.662 266.311 408.311 263.957 408.311 261.059C408.311 258.16 410.662 255.806 413.558 255.806C416.454 255.806 418.806 258.16 418.806 261.059C418.806 263.963 416.454 266.311 413.558 266.311Z" fill="#ED6F63"/>
<path d="M372.351 162.068C369.449 162.068 367.104 159.714 367.104 156.816C367.104 153.917 369.455 151.563 372.351 151.563C375.253 151.563 377.599 153.917 377.599 156.816C377.599 159.714 375.247 162.068 372.351 162.068Z" fill="#E3D6C7"/>
<path d="M159.113 261.059C156.217 261.059 153.865 258.705 153.865 255.806C153.865 252.908 156.217 250.554 159.113 250.554C162.009 250.554 164.36 252.908 164.36 255.806C164.36 258.711 162.009 261.059 159.113 261.059Z" fill="#113D67"/>
<path d="M421.023 150.017L401.201 169.858L404.809 173.469L424.631 153.628L421.023 150.017Z" fill="#ED6F63"/>
<path d="M404.806 150.009L401.197 153.62L421.017 173.464L424.625 169.853L404.806 150.009Z" fill="#ED6F63"/>
<path d="M540.167 220.447L520.345 240.287L523.953 243.899L543.775 224.058L540.167 220.447Z" fill="#ED6F63"/>
<path d="M523.963 220.467L520.354 224.077L540.171 243.924L543.78 240.313L523.963 220.467Z" fill="#ED6F63"/>
<path d="M188.828 136.149L169.006 155.99L172.614 159.601L192.436 139.76L188.828 136.149Z" fill="#113D67"/>
<path d="M172.613 136.154L169.004 139.764L188.821 159.611L192.43 156L172.613 136.154Z" fill="#113D67"/>
<path d="M99.8244 33.9591L79.9346 50.4848C81.1376 51.5135 82.2984 52.5483 83.4168 53.5588L99.8184 39.9195L116.22 53.5588C117.338 52.5483 118.499 51.5196 119.702 50.4848L103.409 36.9363L99.8244 33.9591ZM99.8365 36.9363L99.8305 36.9484L99.8184 36.9363L99.8305 36.9302L99.8365 36.9363Z" fill="#113D67"/>
<path d="M89.8066 59.38C91.0278 60.4934 92.1584 61.5342 93.1801 62.5205L99.8181 56.6388L106.456 62.5205C107.484 61.5281 108.608 60.4934 109.829 59.38L99.8181 50.509L89.8066 59.38Z" fill="#113D67"/>
<path d="M277.394 163.369C278.615 164.482 279.745 165.523 280.767 166.509L287.405 160.628L294.043 166.509C295.071 165.517 296.195 164.482 297.416 163.369L287.399 154.498L277.394 163.369Z" fill="#113D67"/>
<path d="M0.168945 75.2401C1.39619 76.3535 2.52066 77.3883 3.54236 78.3807L10.1804 72.499L16.8184 78.3807C17.8461 77.3883 18.9706 76.3535 20.1918 75.2401L10.1743 66.3691L0.168945 75.2401Z" fill="#113D67"/>
<path d="M277.394 178.685C278.615 179.798 279.745 180.839 280.767 181.825L287.405 175.943L294.043 181.825C295.071 180.833 296.195 179.798 297.416 178.685L287.399 169.814L277.394 178.685Z" fill="#113D67"/>
<path d="M112.049 176.494C110.936 177.722 109.897 178.848 108.911 179.871L114.787 186.515L108.911 193.159C109.903 194.188 110.936 195.313 112.049 196.535L120.912 186.521L112.049 176.494Z" fill="#E3D6C7"/>
<path d="M98.5849 177.995C97.4725 179.223 96.4327 180.349 95.4473 181.371L101.324 188.015L95.4473 194.659C96.4387 195.688 97.4725 196.814 98.5849 198.036L107.442 188.009L98.5849 177.995Z" fill="#E3D6C7"/>
<path d="M472.653 26.4738C473.875 27.5872 475.005 28.628 476.027 29.6144L482.665 23.7327L489.303 29.6144C490.331 28.622 491.455 27.5872 492.676 26.4738L482.671 17.6089L472.653 26.4738Z" fill="#113D67"/>
<path d="M299.17 9.65761C300.391 10.771 301.522 11.8118 302.543 12.7982L309.187 6.91644L315.825 12.7982C316.847 11.8058 317.978 10.771 319.199 9.65761L309.181 0.786621L299.17 9.65761Z" fill="#113D67"/>
<path d="M75.6846 0H81.18C81.18 9.64554 89.021 17.4939 98.6516 17.4939C108.288 17.4939 116.129 9.64554 116.129 0H121.625C121.625 12.6772 111.317 22.9944 98.6516 22.9944C85.9922 22.9944 75.6846 12.6772 75.6846 0Z" fill="#ED6F63"/>
<path d="M89.7944 263.624H42.7842V269.125H89.7944V263.624Z" fill="#113D67"/>
<path d="M97.4544 111.91H91.959L91.9711 95.9169C91.9832 95.7293 92.3882 91.2696 95.3687 86.586C98.1134 82.2776 103.633 76.9102 114.34 75.7847L114.914 81.255C99.4434 82.8827 97.6116 94.9548 97.4544 96.28V111.91Z" fill="#E3D6C7"/>
<path d="M355.793 95.2109L335.971 115.052L339.579 118.663L359.401 98.8222L355.793 95.2109Z" fill="#E3D6C7"/>
<path d="M339.566 95.1969L335.959 98.8087L355.784 118.647L359.391 115.035L339.566 95.1969Z" fill="#E3D6C7"/>
<path d="M118.091 220.37L98.2686 240.211L101.876 243.822L121.699 223.982L118.091 220.37Z" fill="#ED6F63"/>
<path d="M101.875 220.385L98.2676 223.997L118.093 243.834L121.7 240.223L101.875 220.385Z" fill="#ED6F63"/>
<path d="M343.823 61.0681C356.041 69.9815 364.015 58.7505 364.015 58.7505C364.015 58.7505 367.721 52.7538 367.515 42.6363C367.667 31.0968 367.491 17.5664 367.491 17.5664L367.443 3.40668H373.307L373.301 46.9689C373.301 46.9689 373.93 64.0453 359.565 69.2432C346.296 72.88 339.966 65.3644 339.966 65.3644L343.823 61.0681Z" fill="#ED6F63"/>
<path d="M145.316 245.568C146.55 244.206 147.698 242.96 148.799 241.816L142.282 234.44L148.799 227.063C147.698 225.926 146.55 224.673 145.316 223.312L135.486 234.434L145.316 245.568Z" fill="#ED6F63"/>
<path d="M245.382 113.502C247.474 111.916 249.554 110.131 251.658 108.279L248.52 104.612C246.319 106.531 243.962 108.491 241.537 110.331C233.817 116.116 226.405 119.474 220.336 116.146C214.617 113.011 213.746 107.112 214.744 103.021C215.741 98.9183 219.03 94.4828 225.281 94.3315C229.646 94.2226 232.759 95.7596 236.622 98.882L239.796 95.2634C235.159 91.4874 231.073 89.3695 225.166 89.5148C217.772 89.6963 211.848 94.5493 210.07 101.883C209.756 103.172 209.593 104.54 209.593 105.944C209.593 111.287 212.017 117.072 218.026 120.37C226.804 125.186 236.731 120.152 245.382 113.502Z" fill="#ED6F63"/>
<path d="M197.454 269.379V263.879C192.786 263.879 188.397 262.057 185.096 258.753C181.796 255.45 179.976 251.056 179.976 246.385C179.976 236.739 187.817 228.891 197.454 228.891V223.391C184.788 223.391 174.48 233.708 174.48 246.385C174.48 252.527 176.868 258.3 181.209 262.644C185.55 266.989 191.317 269.379 197.454 269.379Z" fill="#113D67"/>
<path d="M154.959 213.775C167.316 212.982 174.281 208.154 177.95 204.245L178.041 204.154C184.407 198 185.302 189.316 185.374 188.451V169.795H190.87L190.864 188.736C190.833 189.195 190.047 200.154 181.904 208.069C177.545 212.686 169.402 218.362 155.304 219.27L154.959 213.775Z" fill="#ED6F63"/>
<path d="M212.344 168.295H206.849V207.754H212.344V168.295Z" fill="#113D67"/>
<path d="M143.975 40.4763H138.479V66.1816H143.975V40.4763Z" fill="#ED6F63"/>
<path d="M149.948 161.669H124.267V167.169H149.948V161.669Z" fill="#113D67"/>
<path d="M340.11 75.6334H314.429V81.1339H340.11V75.6334Z" fill="#113D67"/>
<path d="M192.436 1.21631H161.761V5.50052H192.436V1.21631Z" fill="#113D67"/>
<path d="M205.416 225.847L210.881 225.272C212.507 240.757 224.568 242.591 225.898 242.748H241.508V248.249L225.53 248.243C225.342 248.224 220.887 247.825 216.207 244.836C211.903 242.089 206.54 236.564 205.416 225.847Z" fill="#E3D6C7"/>
<path d="M210.246 138.42V133.658H215.741V138.42C215.741 144.689 220.838 149.79 227.101 149.79C233.364 149.79 238.461 144.689 238.461 138.42V133.658H243.956V138.42C243.956 147.721 236.393 155.291 227.101 155.291C217.803 155.291 210.246 147.721 210.246 138.42Z" fill="#E3D6C7"/>
<path d="M169.263 90.3982H174.021C183.313 90.3982 190.876 97.7988 190.876 106.9C190.876 116.001 183.313 123.401 174.021 123.401H152.825V117.901H174.021C180.284 117.901 185.38 112.969 185.38 106.9C185.38 100.836 180.284 95.9047 174.021 95.9047H169.263V90.3982Z" fill="#E3D6C7"/>
<path d="M75.6787 147.503C75.6787 136.109 84.9405 126.838 96.3182 126.838C107.702 126.838 116.964 136.109 116.964 147.503C116.964 158.897 107.702 168.168 96.3182 168.168C84.9405 168.168 75.6787 158.897 75.6787 147.503ZM111.976 147.503C111.976 138.862 104.951 131.837 96.3182 131.837C87.6852 131.837 80.6663 138.868 80.6663 147.503C80.6663 156.144 87.6912 163.169 96.3182 163.169C104.951 163.169 111.976 156.138 111.976 147.503Z" fill="#113D67"/>
<path d="M533.967 1.21631L514.077 17.742C515.28 18.7707 516.441 19.8055 517.559 20.816L533.961 7.17669L550.369 20.816C551.487 19.8055 552.648 18.7768 553.851 17.742L537.564 4.19348L533.967 1.21631ZM533.979 4.19348L533.973 4.20558L533.961 4.19348L533.973 4.18137L533.979 4.19348Z" fill="#113D67"/>
<path d="M523.949 26.6372C525.17 27.7506 526.301 28.7853 527.323 29.7777L533.961 23.896L540.599 29.7777C541.626 28.7853 542.751 27.7506 543.972 26.6372L533.955 17.7662L523.949 26.6372Z" fill="#113D67"/>
<path d="M550.133 199.797H520.353V205.298H550.133V199.797Z" fill="#E3D6C7"/>
<path d="M517.518 56.7839V51.2834L533.496 51.2955C533.683 51.3076 538.139 51.7131 542.818 54.6963C547.117 57.4435 552.485 62.9682 553.609 73.6848L548.144 74.2597C546.524 58.7748 534.457 56.9413 533.133 56.7839H517.518Z" fill="#E3D6C7"/>
<path d="M513.527 183.035V177.535C530.527 177.535 544.354 163.696 544.354 146.68H549.849C549.849 166.721 533.556 183.035 513.527 183.035Z" fill="#113D67"/>
<path d="M513.406 106.688C513.406 95.2936 522.668 86.0232 534.046 86.0232C545.43 86.0232 554.691 95.2936 554.691 106.688C554.691 118.082 545.43 127.353 534.046 127.353C522.668 127.353 513.406 118.082 513.406 106.688ZM549.704 106.688C549.704 98.0468 542.679 91.0214 534.052 91.0214C525.419 91.0214 518.4 98.0529 518.4 106.688C518.4 115.329 525.419 122.354 534.052 122.354C542.685 122.354 549.704 115.329 549.704 106.688Z" fill="#ED6F63"/>
<path d="M195.289 25.5115C196.559 13.7542 202.773 8.32022 207.767 5.82715C213.123 3.15254 218.19 3.28566 218.401 3.29171L218.232 8.79221C217.597 8.78011 202.653 8.61068 200.754 26.1046L195.289 25.5115Z" fill="#ED6F63"/>
<path d="M479.539 134.408C480.815 122.651 487.023 117.217 492.017 114.724C497.373 112.049 502.44 112.182 502.651 112.188L502.482 117.689C501.847 117.671 486.896 117.507 485.004 135.001L479.539 134.408Z" fill="#113D67"/>
<path d="M202.931 78.084C202.931 80.9886 200.579 83.3364 197.683 83.3364C194.787 83.3364 192.436 80.9825 192.436 78.084C192.436 75.1855 194.787 72.8316 197.683 72.8316C200.579 72.8316 202.931 75.1855 202.931 78.084Z" fill="#113D67"/>
<path d="M202.931 88.5949C202.931 91.4994 200.579 93.8473 197.683 93.8473C194.787 93.8473 192.436 91.4934 192.436 88.5949C192.436 85.6964 194.787 83.3425 197.683 83.3425C200.579 83.3425 202.931 85.6903 202.931 88.5949Z" fill="#113D67"/>
<path d="M276.771 244.951C273.875 244.951 271.523 242.597 271.523 239.698C271.523 236.8 273.875 234.446 276.771 234.446C279.667 234.446 282.019 236.8 282.019 239.698C282.019 242.597 279.667 244.951 276.771 244.951Z" fill="#113D67"/>
<path d="M616.059 48.2216C614.566 46.4789 612.65 45.1779 610.117 43.9072C610.123 43.8951 610.123 43.889 610.129 43.8769C607.849 42.7574 605.226 41.6924 602.167 40.4519C601.03 39.9921 599.833 39.508 598.557 38.9815C594.283 37.2146 589.253 35.2298 584.127 33.6565L584.121 33.6505C574.635 30.7883 566.292 30.1347 561.631 35.4779C558.252 39.3567 558.228 43.7922 559.497 47.2534C559.866 48.264 560.343 49.1898 560.882 49.9946C563.27 53.5648 567.973 56.6448 574.012 54.5995C580.028 52.5603 582.422 48.2035 586.823 39.6653C588.346 40.2039 589.894 40.7908 591.442 41.3899C586.581 50.8115 583.57 56.5238 575.584 59.2347C568.451 61.6552 561.087 59.0955 556.819 52.7116C553.204 47.3079 552.152 38.8847 557.943 32.2466C564.684 24.5193 576.026 25.8989 586.684 29.2634L586.678 29.2573C589.755 30.1952 592.917 31.4297 596.139 32.7004C597.626 33.2995 599.059 33.8925 600.425 34.4553C601.695 34.9817 602.898 35.4658 604.029 35.9257C604.301 36.0346 604.567 36.1435 604.833 36.2525L604.845 36.2282C606.525 36.912 608.025 37.5292 609.391 38.1162L609.379 38.1404C613.871 40.101 617.184 41.9768 619.789 45.0206L616.059 48.2216Z" fill="#113D67"/>
<path d="M575.845 268.29V262.789C580.512 262.789 584.901 260.968 588.202 257.664C591.503 254.36 593.322 249.967 593.322 245.296C593.322 235.65 585.481 227.802 575.845 227.802V222.301C588.51 222.301 598.818 232.618 598.818 245.296C598.818 251.437 596.43 257.21 592.089 261.555C587.754 265.894 581.981 268.29 575.845 268.29Z" fill="#ED6F63"/>
<path d="M566.909 208.838C579.266 208.045 586.231 203.216 589.9 199.313L589.991 199.216C596.357 193.062 597.252 184.379 597.324 183.513V164.858H602.82L602.814 183.798C602.783 184.258 601.997 195.216 593.854 203.131C589.495 207.748 581.352 213.424 567.254 214.332L566.909 208.838Z" fill="#E3D6C7"/>
<path d="M629.644 176.79H624.759V216.25H629.644V176.79Z" fill="#ED6F63"/>
<path d="M630.532 253.755H627.262C627.074 253.743 622.619 253.338 617.946 250.354C613.641 247.607 608.279 242.082 607.154 231.366L612.619 230.791C614.24 246.276 626.307 248.109 627.637 248.267H630.538V253.755H630.532Z" fill="#113D67"/>
<path d="M625.829 128.593H630.587V134.094H625.829C619.566 134.094 614.47 139.195 614.47 145.464C614.47 151.733 619.566 156.834 625.829 156.834H630.587V162.334H625.829C616.538 162.334 608.975 154.764 608.975 145.464C608.975 136.157 616.538 128.593 625.829 128.593Z" fill="#113D67"/>
<path d="M566.48 115.147V110.385C566.48 101.085 573.874 93.5146 582.967 93.5146C592.059 93.5146 599.453 101.085 599.453 110.385V141.869H593.957V110.385C593.957 104.116 589.03 99.0151 582.967 99.0151C576.909 99.0151 571.982 104.116 571.982 110.385V115.147H566.48Z" fill="#113D67"/>
<path d="M606.985 23.436C608.261 11.6787 614.47 6.24472 619.463 3.75165C624.82 1.07704 629.886 1.21016 630.098 1.21621L629.928 6.71671C629.294 6.70461 614.349 6.53518 612.451 24.0291L606.985 23.436Z" fill="#113D67"/>
<path d="M621.331 101.436C621.331 104.34 618.979 106.688 616.084 106.688C613.182 106.688 610.836 104.334 610.836 101.436C610.836 98.5371 613.182 96.1832 616.084 96.1832C618.979 96.1832 621.331 98.531 621.331 101.436Z" fill="#ED6F63"/>
<path d="M621.331 111.94C621.331 114.845 618.979 117.193 616.084 117.193C613.182 117.193 610.836 114.839 610.836 111.94C610.836 109.042 613.182 106.688 616.084 106.688C618.979 106.688 621.331 109.036 621.331 111.94Z" fill="#ED6F63"/>
<path d="M588.213 83.6391C585.318 83.6391 582.966 81.2852 582.966 78.3867C582.966 75.4882 585.318 73.1343 588.213 73.1343C591.109 73.1343 593.461 75.4882 593.461 78.3867C593.461 81.2852 591.109 83.6391 588.213 83.6391Z" fill="#E3D6C7"/>
<path d="M579.042 11.5335C576.147 11.5335 573.795 9.17959 573.795 6.28109C573.795 3.38259 576.147 1.02869 579.042 1.02869C581.938 1.02869 584.29 3.38259 584.29 6.28109C584.296 9.17959 581.944 11.5335 579.042 11.5335Z" fill="#E3D6C7"/>
<path d="M610.836 215.808C607.935 215.808 605.589 213.454 605.589 210.556C605.589 207.657 607.941 205.303 610.836 205.303C613.732 205.303 616.084 207.657 616.084 210.556C616.084 213.454 613.732 215.808 610.836 215.808Z" fill="#E3D6C7"/>
<path d="M561.698 149.355C562.919 150.468 564.05 151.509 565.072 152.495L571.716 146.613L578.354 152.495C579.382 151.503 580.506 150.468 581.727 149.355L571.71 140.484L561.698 149.355Z" fill="#113D67"/>
<path d="M561.698 166.389C562.919 167.502 564.05 168.543 565.072 169.529L571.716 163.648L578.354 169.529C579.382 168.537 580.506 167.502 581.727 166.389L571.71 157.518L561.698 166.389Z" fill="#113D67"/>
<path d="M606.828 76.426L610.437 80.0385L629.644 60.814V59.5856L626.645 56.5842L606.828 76.426Z" fill="#E3D6C7"/>
<path d="M606.828 60.203L626.645 80.0387L629.644 77.0434V75.815L610.437 56.5905L606.828 60.203Z" fill="#E3D6C7"/>
<path d="M561.698 245.271C558.802 245.271 556.45 242.917 556.45 240.019C556.45 237.12 558.802 234.767 561.698 234.767C564.6 234.767 566.945 237.12 566.945 240.019C566.945 242.917 564.6 245.271 561.698 245.271Z" fill="#113D67"/>
<path d="M266.27 244.951C263.374 244.951 261.022 242.597 261.022 239.698C261.022 236.8 263.374 234.446 266.27 234.446C269.172 234.446 271.518 236.8 271.518 239.698C271.524 242.597 269.172 244.951 266.27 244.951Z" fill="#113D67"/>
<path d="M141.925 11.4972C139.023 11.4972 136.678 9.14333 136.678 6.24483C136.678 3.34633 139.029 0.992432 141.925 0.992432C144.821 0.992432 147.173 3.34633 147.173 6.24483C147.173 9.14333 144.821 11.4972 141.925 11.4972Z" fill="#ED6F63"/>
<path d="M524.046 151.787C521.151 151.787 518.799 149.433 518.799 146.535C518.799 143.636 521.151 141.282 524.046 141.282C526.948 141.282 529.294 143.636 529.294 146.535C529.3 149.439 526.948 151.787 524.046 151.787Z" fill="#E3D6C7"/>
<path d="M145.946 153.13C143.044 153.13 140.698 150.777 140.698 147.878C140.698 144.98 143.05 142.626 145.946 142.626C148.842 142.626 151.193 144.98 151.193 147.878C151.193 150.777 148.842 153.13 145.946 153.13Z" fill="#ED6F63"/>
<path d="M126.914 31.9864L135.559 31.932C135.559 31.932 149.077 31.7565 160.606 31.9078C170.72 31.702 176.711 35.4114 176.711 35.4114C176.711 35.4114 187.932 43.3929 179.027 55.6222C171.482 64.1362 162.492 59.265 162.492 59.265C162.492 59.265 161.271 61.0925 158.962 63.9426C173.344 72.2811 183.319 59.4829 183.319 59.4829C183.319 59.4829 190.828 53.1473 187.194 39.865C182.001 25.4875 164.935 26.1168 164.935 26.1168H126.908V31.9864H126.914Z" fill="#E3D6C7"/>
<path d="M39.8042 250.548C36.9023 250.548 34.5566 248.194 34.5566 245.296C34.5566 242.397 36.9084 240.043 39.8042 240.043C42.7 240.043 45.0517 242.397 45.0517 245.296C45.0517 248.194 42.7 250.548 39.8042 250.548Z" fill="#113D67"/>
<path d="M60.0264 124.427L40.2041 144.268L43.812 147.879L63.6343 128.039L60.0264 124.427Z" fill="#E3D6C7"/>
<path d="M43.8174 124.423L40.209 128.034L60.0285 147.877L63.6369 144.266L43.8174 124.423Z" fill="#E3D6C7"/>
<path d="M161.968 178.152L142.146 197.992L145.753 201.604L165.576 181.763L161.968 178.152Z" fill="#E3D6C7"/>
<path d="M145.749 178.165L142.141 181.776L161.96 201.619L165.569 198.009L145.749 178.165Z" fill="#E3D6C7"/>
<path d="M150.669 74.7557L130.847 94.5963L134.455 98.2076L154.277 78.3669L150.669 74.7557Z" fill="#113D67"/>
<path d="M134.462 74.7611L130.854 78.3718L150.673 98.2153L154.281 94.6045L134.462 74.7611Z" fill="#113D67"/>
<path d="M8.12494 178.152C7.01256 179.374 5.97273 180.506 4.9873 181.529L10.8636 188.173L4.9873 194.817C5.97877 195.846 7.01256 196.971 8.12494 198.193L16.9877 188.167L8.12494 178.152Z" fill="#E3D6C7"/>
<path d="M0.918945 233.496V234.089L4.23191 237.405L24.0492 217.563L20.4461 213.951L0.918945 233.496Z" fill="#ED6F63"/>
<path d="M0.918945 217.267V217.86L20.4461 237.405L24.0492 233.792L4.23191 213.951L0.918945 217.267Z" fill="#ED6F63"/>
<path d="M61.1562 250.203V244.703C65.8234 244.703 70.2125 242.881 73.5133 239.577C76.8142 236.273 78.6339 231.88 78.6339 227.209C78.6339 217.563 70.7928 209.715 61.1562 209.715V204.214C73.8217 204.214 84.1293 214.532 84.1293 227.209C84.1293 233.351 81.7413 239.123 77.4006 243.468C73.0599 247.813 67.2925 250.203 61.1562 250.203Z" fill="#113D67"/>
<path d="M24.8291 203.754C37.1862 202.962 44.1507 198.133 47.8203 194.23L47.911 194.133C54.277 187.979 55.1717 179.296 55.2443 178.43V159.775H60.7397L60.7336 178.715C60.7034 179.175 59.9175 190.133 51.7741 198.048C47.4153 202.671 39.2719 208.341 25.1737 209.249L24.8291 203.754Z" fill="#ED6F63"/>
<path d="M60.3528 43.2659H54.8574V68.9712H60.3528V43.2659Z" fill="#ED6F63"/>
<path d="M47.3973 171.472H21.7158V176.972H47.3973V171.472Z" fill="#113D67"/>
<path d="M57.5833 1.21631H26.9082V6.63209H57.5833V1.21631Z" fill="#113D67"/>
<path d="M26.8661 83.3365H31.6239C40.916 83.3365 48.4789 90.7371 48.4789 99.838C48.4789 108.939 40.916 116.34 31.6239 116.34H0.168945V110.839H31.6239C37.8871 110.839 42.9835 105.907 42.9835 99.838C42.9835 93.7748 37.8871 88.8431 31.6239 88.8431H26.8661V83.3365Z" fill="#E3D6C7"/>
<path d="M75.6484 95.4933C75.6484 98.3979 73.2967 100.746 70.4009 100.746C67.505 100.746 65.1533 98.3918 65.1533 95.4933C65.1533 92.5948 67.505 90.2409 70.4009 90.2409C73.2967 90.2409 75.6484 92.5887 75.6484 95.4933Z" fill="#113D67"/>
<path d="M75.6484 105.998C75.6484 108.902 73.2967 111.25 70.4009 111.25C67.505 111.25 65.1533 108.896 65.1533 105.998C65.1533 103.099 67.505 100.746 70.4009 100.746C73.2967 100.746 75.6484 103.099 75.6484 105.998Z" fill="#113D67"/>
<path d="M6.35398 10.5048C3.45212 10.5048 1.10645 8.1509 1.10645 5.2524C1.10645 2.3539 3.45816 0 6.35398 0C9.2498 0 11.6015 2.3539 11.6015 5.2524C11.6015 8.15696 9.25585 10.5048 6.35398 10.5048Z" fill="#ED6F63"/>
<path d="M7.95554 165.82C5.05368 165.82 2.70801 163.466 2.70801 160.567C2.70801 157.669 5.05973 155.315 7.95554 155.315C10.8514 155.315 13.2031 157.669 13.2031 160.567C13.2091 163.466 10.8574 165.82 7.95554 165.82Z" fill="#ED6F63"/>
<path d="M78.0962 191.446C75.1943 191.446 72.8486 189.092 72.8486 186.194C72.8486 183.295 75.2003 180.942 78.0962 180.942C80.998 180.942 83.3437 183.295 83.3437 186.194C83.3437 189.092 80.998 191.446 78.0962 191.446Z" fill="#ED6F63"/>
<path d="M70.4429 26.6372L61.7917 26.5827C61.7917 26.5827 48.2739 26.4072 36.745 26.5585C26.6308 26.3528 20.6397 30.0621 20.6397 30.0621C20.6397 30.0621 9.41912 38.0436 18.3242 50.273C25.8751 58.787 34.8648 53.9158 34.8648 53.9158C34.8648 53.9158 36.086 55.7372 38.3954 58.5933C24.0131 66.9318 14.0379 54.1336 14.0379 54.1336C14.0379 54.1336 6.52935 47.7981 10.1627 34.5158C15.3558 20.1382 32.4164 20.7676 32.4164 20.7676H70.4429V26.6372V26.6372Z" fill="#E3D6C7"/>
<path d="M216.201 67.5128C228.425 76.4261 236.393 65.1952 236.393 65.1952C236.393 65.1952 240.099 59.1985 239.893 49.0809C240.044 37.5414 239.869 24.011 239.869 24.011L239.815 0.605164H245.679V53.4136C245.679 53.4136 246.308 70.4899 231.943 75.6879C218.673 79.3246 212.344 71.8091 212.344 71.8091L216.201 67.5128Z" fill="#113D67"/>
<path d="M907.419 38.7396C909.336 37.4749 911.536 36.7609 914.323 36.2465C914.323 36.2344 914.317 36.2283 914.317 36.2162C916.814 35.7745 919.631 35.478 922.914 35.1331C924.129 35.006 925.423 34.8729 926.789 34.7216C931.384 34.2133 936.77 33.705 942.133 33.6142H942.139C952.047 33.4932 960.239 35.1875 963.238 41.6199C965.408 46.2854 964.205 50.5514 962.023 53.5286C961.388 54.3939 960.668 55.1563 959.931 55.7796C956.648 58.545 951.274 60.203 946.044 56.5602C940.833 52.9356 939.739 48.0826 937.871 38.6549C936.256 38.7517 934.612 38.8788 932.949 39.03C935.005 49.432 936.317 55.7554 943.239 60.5782C949.418 64.8866 957.21 64.4691 963.081 59.5253C968.05 55.3379 971.399 47.538 967.669 39.5504C963.334 30.2559 952.053 28.4284 940.881 28.7007L940.887 28.6947C937.671 28.7431 934.292 29.0517 930.846 29.3724V29.3784C929.25 29.5418 927.708 29.7113 926.245 29.8746C924.879 30.0259 923.591 30.159 922.376 30.2861C922.086 30.3164 921.795 30.3466 921.511 30.3769L921.505 30.3527C919.704 30.5403 918.09 30.7157 916.614 30.9094L916.62 30.9396C911.76 31.575 908.06 32.4524 904.717 34.6611L907.419 38.7396Z" fill="#ED6F63"/>
<path d="M1050.09 118.47C1047.14 124.103 1049.28 130.439 1055.42 134.233C1058.38 136.066 1061.62 136.732 1065.87 137.162L1065.86 137.186C1067.15 137.313 1068.56 137.422 1070.13 137.543V137.519C1070.38 137.537 1070.62 137.555 1070.88 137.573C1071.94 137.652 1073.06 137.736 1074.25 137.833C1075.53 137.936 1076.88 138.045 1078.27 138.142V138.148C1081.27 138.342 1084.22 138.523 1087.01 138.481H1087.01C1096.73 138.432 1106.49 136.556 1110.02 128.357C1113.06 121.314 1109.95 114.621 1105.52 111.105L1102.87 114.446C1103.53 114.972 1104.18 115.607 1104.75 116.346C1106.72 118.875 1107.88 122.554 1106.11 126.669C1103.67 132.339 1096.58 134.021 1087.97 134.172H1087.96C1083.3 134.233 1078.6 133.93 1074.59 133.604C1073.4 133.507 1072.28 133.422 1071.21 133.343C1068.35 133.132 1065.89 132.944 1063.71 132.623C1063.71 132.611 1063.71 132.605 1063.71 132.593C1061.28 132.218 1059.35 131.649 1057.64 130.602C1054.47 128.642 1051.57 124.799 1053.85 120.442L1050.09 118.47Z" fill="#E3D6C7"/>
<path d="M1086.24 139.007C1083.57 139.007 1080.76 138.826 1078.25 138.668L1077.5 138.62L1077.5 138.608C1076.37 138.523 1075.28 138.438 1074.23 138.354C1073.07 138.263 1071.98 138.178 1070.95 138.1L1070.59 138.075L1070.1 138.063C1068.44 137.936 1067.08 137.827 1065.82 137.706L1065.28 137.652L1065.29 137.621C1061.36 137.198 1058.12 136.502 1055.16 134.675C1048.78 130.735 1046.56 124.127 1049.64 118.234L1049.88 117.78L1054.56 120.237L1054.33 120.69C1052.21 124.733 1054.95 128.327 1057.94 130.173C1059.45 131.104 1061.27 131.697 1063.82 132.091L1064.31 132.169V132.188C1066.4 132.472 1068.77 132.647 1071.28 132.835L1071.76 132.871C1072.68 132.938 1073.65 133.011 1074.66 133.095C1078.33 133.392 1083.16 133.725 1087.99 133.664H1088.08H1088.09C1098.05 133.476 1103.64 131.189 1105.68 126.475C1107.64 121.913 1105.71 118.373 1104.38 116.672C1103.85 115.989 1103.25 115.377 1102.59 114.857L1102.19 114.536L1105.47 110.391L1105.88 110.712C1110.46 114.349 1113.67 121.277 1110.53 128.569C1107.77 134.977 1101.03 138.378 1089.97 138.922L1090.07 138.959L1088.21 138.989C1087.91 138.995 1087.61 139.001 1087.3 139.001L1087.06 139.007C1086.77 139.007 1086.51 139.007 1086.24 139.007ZM1078.86 137.676C1081.1 137.821 1083.56 137.966 1085.9 137.979L1087.02 137.972C1099.38 137.906 1106.75 134.699 1109.57 128.164C1112.41 121.58 1109.67 115.311 1105.62 111.844L1103.61 114.379C1104.18 114.875 1104.7 115.432 1105.17 116.037C1107.67 119.238 1108.19 123.189 1106.6 126.881C1104.38 132.024 1098.47 134.511 1087.99 134.693H1087.9H1087.89C1083.06 134.753 1078.24 134.42 1074.57 134.124C1073.56 134.039 1072.6 133.967 1071.68 133.9L1071.19 133.864C1068.47 133.658 1065.9 133.47 1063.65 133.138L1063.16 133.065L1063.16 133.029C1060.73 132.611 1058.93 131.994 1057.4 131.044C1054.14 129.035 1051.18 125.15 1053.19 120.672L1050.32 119.172C1047.86 124.436 1049.97 130.263 1055.7 133.797C1058.63 135.6 1061.91 136.248 1065.93 136.653L1066.48 136.708L1066.47 136.732C1067.44 136.823 1068.5 136.907 1069.72 136.998L1070.18 137.01L1071.03 137.071C1072.06 137.15 1073.16 137.228 1074.32 137.325C1075.59 137.428 1076.94 137.537 1078.33 137.634L1078.86 137.676Z" fill="#E3D6C7"/>
<path d="M891.295 167.726C885.528 165.063 879.307 167.52 875.83 173.844C874.15 176.899 873.648 180.173 873.43 184.439L873.406 184.433C873.346 185.728 873.303 187.144 873.267 188.717H873.291C873.285 188.965 873.279 189.22 873.273 189.474C873.249 190.539 873.219 191.664 873.182 192.862C873.14 194.145 873.104 195.495 873.074 196.892H873.068C873.025 199.906 872.989 202.859 873.17 205.655V205.649C873.708 215.367 876.066 225.03 884.421 228.153C891.597 230.833 898.126 227.39 901.409 222.785L897.945 220.304C897.455 220.988 896.845 221.666 896.144 222.277C893.719 224.371 890.104 225.72 885.908 224.153C880.129 221.993 878.098 214.998 877.517 206.387V206.381C877.221 201.721 877.293 197.014 877.42 192.983C877.457 191.785 877.487 190.66 877.511 189.595C877.578 186.72 877.644 184.258 877.856 182.055C877.868 182.055 877.874 182.055 877.88 182.055C878.134 179.604 878.605 177.644 879.567 175.889C881.368 172.615 885.056 169.523 889.512 171.587L891.295 167.726Z" fill="#E3D6C7"/>
<path d="M891.295 167.726C885.528 165.063 879.307 167.52 875.83 173.844C874.15 176.899 873.648 180.173 873.43 184.439L873.406 184.433C873.346 185.728 873.303 187.144 873.267 188.717H873.291C873.285 188.965 873.279 189.22 873.273 189.474C873.249 190.539 873.219 191.664 873.182 192.862C873.14 194.145 873.104 195.495 873.074 196.892H873.068C873.025 199.906 872.989 202.859 873.17 205.655V205.649C873.708 215.367 876.066 225.03 884.421 228.153C891.597 230.833 898.126 227.39 901.409 222.785L897.945 220.304C897.455 220.988 896.845 221.666 896.144 222.277C893.719 224.371 890.104 225.72 885.908 224.153C880.129 221.993 878.098 214.998 877.517 206.387V206.381C877.221 201.721 877.293 197.014 877.42 192.983C877.457 191.785 877.487 190.66 877.511 189.595C877.578 186.72 877.644 184.258 877.856 182.055C877.868 182.055 877.874 182.055 877.88 182.055C878.134 179.604 878.605 177.644 879.567 175.889C881.368 172.615 885.056 169.523 889.512 171.587L891.295 167.726Z" fill="#E3D6C7"/>
<path d="M1051.19 56.2333L1067.7 76.1416C1068.73 74.9375 1069.77 73.7756 1070.78 72.6562L1057.15 56.2394L1070.78 39.8226C1069.77 38.7032 1068.74 37.5413 1067.7 36.3372L1054.17 52.645L1051.19 56.2333ZM1054.17 56.2273L1054.18 56.2333L1054.17 56.2454L1054.16 56.2333L1054.17 56.2273Z" fill="#E3D6C7"/>
<path d="M1076.6 66.2602C1077.71 65.0379 1078.74 63.9063 1079.74 62.8837L1073.86 56.2335L1079.74 49.5893C1078.74 48.5606 1077.71 47.4351 1076.6 46.2128L1067.73 56.2395L1076.6 66.2602Z" fill="#E3D6C7"/>
<path d="M1033.92 140.95C1035.03 139.727 1036.07 138.596 1037.06 137.573L1031.18 130.929L1037.06 124.285C1036.07 123.256 1035.03 122.13 1033.92 120.908L1025.06 130.935L1033.92 140.95Z" fill="#E3D6C7"/>
<path d="M1021.24 140.95C1022.35 139.727 1023.38 138.596 1024.38 137.573L1018.5 130.929L1024.38 124.285C1023.38 123.256 1022.35 122.13 1021.24 120.908L1012.38 130.935L1021.24 140.95Z" fill="#E3D6C7"/>
<path d="M1122.47 157.39C1121.11 156.156 1119.87 155.006 1118.72 153.905L1111.35 160.428L1103.98 153.905C1102.85 155.006 1101.6 156.156 1100.24 157.39L1111.35 167.23L1122.47 157.39Z" fill="#ED6F63"/>
<path d="M1043.31 191.555C1041.95 190.321 1040.71 189.171 1039.56 188.07L1032.19 194.593L1024.82 188.07C1023.69 189.171 1022.44 190.321 1021.08 191.555L1032.19 201.394L1043.31 191.555Z" fill="#ED6F63"/>
<path d="M904.359 131.83C903.12 133.192 901.971 134.438 900.877 135.582L907.4 142.958L900.877 150.335C901.977 151.472 903.126 152.725 904.359 154.08L914.189 142.958L904.359 131.83Z" fill="#ED6F63"/>
<path d="M769.671 109.502C768.431 110.863 767.289 112.11 766.188 113.253L772.706 120.63L766.188 128.006C767.289 129.144 768.437 130.396 769.671 131.758L779.501 120.636L769.671 109.502Z" fill="#ED6F63"/>
<path d="M662.157 144.532C663.39 143.17 664.539 141.924 665.639 140.786L659.116 133.41L665.639 126.034C664.539 124.89 663.39 123.643 662.157 122.282L652.327 133.404L662.157 144.532Z" fill="#ED6F63"/>
<path d="M1107.24 206.901C1105.08 208.535 1102.94 210.374 1100.77 212.286L1104 216.068C1106.28 214.09 1108.71 212.069 1111.21 210.169C1119.18 204.196 1126.82 200.729 1133.09 204.166C1138.99 207.397 1139.89 213.485 1138.86 217.708C1137.83 221.938 1134.44 226.519 1127.98 226.676C1123.48 226.791 1120.26 225.2 1116.28 221.98L1113.01 225.714C1117.8 229.617 1122.01 231.795 1128.11 231.644C1135.74 231.457 1141.85 226.446 1143.69 218.882C1144.01 217.551 1144.17 216.141 1144.17 214.695C1144.17 209.182 1141.67 203.21 1135.47 199.809C1126.42 194.847 1116.17 200.039 1107.24 206.901Z" fill="#ED6F63"/>
<path d="M1043.81 3.20117H1049.3C1049.3 12.8467 1057.14 20.6951 1066.77 20.6951C1076.41 20.6951 1084.25 12.8467 1084.25 3.20117H1089.75C1089.75 15.8783 1079.44 26.1956 1066.77 26.1956C1054.11 26.1956 1043.81 15.8783 1043.81 3.20117Z" fill="#113D67"/>
<path d="M1074.05 260.26V254.76C1083.68 254.76 1091.52 246.911 1091.52 237.272C1091.52 227.626 1083.68 219.778 1074.05 219.778V214.277C1086.71 214.277 1097.02 224.595 1097.02 237.272C1097.02 249.949 1086.71 260.26 1074.05 260.26Z" fill="#E3D6C7"/>
<path d="M1074.05 260.26V254.76C1083.68 254.76 1091.52 246.911 1091.52 237.272C1091.52 227.626 1083.68 219.778 1074.05 219.778V214.277C1086.71 214.277 1097.02 224.595 1097.02 237.272C1097.02 249.949 1086.71 260.26 1074.05 260.26Z" fill="#E3D6C7"/>
<path d="M1115.45 78.3807H1120.95C1120.95 88.0262 1128.79 95.8746 1138.43 95.8746V101.375C1125.76 101.375 1115.45 91.0578 1115.45 78.3807Z" fill="#ED6F63"/>
<path d="M929.406 213.194C941.763 212.402 948.728 207.573 952.397 203.67L952.488 203.573C958.854 197.413 959.749 188.736 959.827 187.87V169.215H965.323L965.317 188.155C965.286 188.621 964.501 199.573 956.357 207.488C951.998 212.111 943.855 217.781 929.757 218.689L929.406 213.194Z" fill="#E3D6C7"/>
<path d="M1143.73 247.274H1117.63V252.775H1143.73V247.274Z" fill="#113D67"/>
<path d="M1138.48 183.767H1099.06V189.268H1138.48V183.767Z" fill="#E3D6C7"/>
<path d="M1062.91 237.266H1023.49V242.766H1062.91V237.266Z" fill="#E3D6C7"/>
<path d="M1146.24 52.9354H1140.75V79.4274H1146.24V52.9354Z" fill="#113D67"/>
<path d="M1036.5 19.6118H1031V46.1038H1036.5V19.6118Z" fill="#E3D6C7"/>
<path d="M982.565 171.49H977.069V210.949H982.565V171.49Z" fill="#ED6F63"/>
<path d="M1145.78 138.305H1140.29V171.714H1145.78V138.305Z" fill="#ED6F63"/>
<path d="M912.939 53.3289H907.443V79.0342H912.939V53.3289Z" fill="#ED6F63"/>
<path d="M860.397 30.413H854.901V56.1183H860.397V30.413Z" fill="#ED6F63"/>
<path d="M920.368 194.732H894.687V200.233H920.368V194.732Z" fill="#ED6F63"/>
<path d="M884.24 263.624H858.559V269.125H884.24V263.624Z" fill="#113D67"/>
<path d="M921.215 11.0132H895.533V16.5137H921.215V11.0132Z" fill="#ED6F63"/>
<path d="M1146.05 3.52777H1106.63V9.02827H1146.05V3.52777Z" fill="#ED6F63"/>
<path d="M1035.38 97.121V91.6205L1060.61 91.6326C1060.79 91.6447 1065.25 92.0501 1069.93 95.0394C1074.23 97.7866 1079.6 103.311 1080.72 114.028L1075.26 114.603C1073.63 99.1179 1061.57 97.2844 1060.24 97.127H1035.38V97.121Z" fill="#ED6F63"/>
<path d="M976.266 229.635L981.731 229.06C983.357 244.545 995.418 246.379 996.748 246.536H1012.36V252.037L996.379 252.031C996.192 252.012 991.736 251.613 987.057 248.624C982.752 245.877 977.39 240.352 976.266 229.635Z" fill="#113D67"/>
<path d="M1053.1 196.935V191.434C1070.1 191.434 1087.55 177.595 1087.55 160.579H1093.04C1093.04 180.621 1073.13 196.935 1053.1 196.935Z" fill="#113D67"/>
<path d="M1095.25 68.3116V62.8111H1100.3C1107.04 62.8111 1112.51 57.3287 1112.51 50.5877C1112.51 43.8467 1107.04 38.3583 1100.3 38.3583H1095.25V32.8578H1100.3C1110.07 32.8578 1118.02 40.8091 1118.02 50.5877C1118.02 60.3603 1110.07 68.3116 1100.3 68.3116H1095.25V68.3116Z" fill="#ED6F63"/>
<path d="M960.142 141.821V137.059H965.637V141.821C965.637 148.09 970.733 153.191 976.997 153.191C983.26 153.191 988.356 148.09 988.356 141.821V137.059H993.852V141.821C993.852 151.121 986.289 158.691 976.997 158.691C967.699 158.691 960.142 151.128 960.142 141.821Z" fill="#113D67"/>
<path d="M907.527 114.899V110.137C907.527 100.836 914.921 93.2664 924.014 93.2664C933.106 93.2664 940.5 100.836 940.5 110.137V141.621H935.004V110.137C935.004 103.868 930.077 98.7669 924.014 98.7669C917.956 98.7669 913.023 103.868 913.023 110.137V114.899H907.527Z" fill="#113D67"/>
<path d="M994.312 197.485C994.312 184.935 1004.52 174.727 1017.05 174.727V180.228C1007.54 180.228 999.807 187.973 999.807 197.485C999.807 207.004 1007.55 214.743 1017.05 214.743H1030.45V220.244H1017.05C1004.51 220.244 994.312 210.036 994.312 197.485Z" fill="#E3D6C7"/>
<path d="M975.516 35.7381C976.791 23.9807 983 18.5468 987.994 16.0537C993.35 13.3791 998.416 13.5122 998.628 13.5183L998.459 19.0188C997.824 19.0006 982.879 18.8372 980.981 36.3311L975.516 35.7381Z" fill="#113D67"/>
<path d="M963.975 106.936C963.975 109.834 961.624 112.188 958.728 112.188C955.826 112.188 953.48 109.834 953.48 106.936C953.48 104.037 955.832 101.684 958.728 101.684C961.63 101.684 963.975 104.031 963.975 106.936Z" fill="#ED6F63"/>
<path d="M963.975 117.441C963.975 120.339 961.624 122.693 958.728 122.693C955.826 122.693 953.48 120.339 953.48 117.441C953.48 114.542 955.832 112.188 958.728 112.188C961.63 112.188 963.975 114.542 963.975 117.441Z" fill="#ED6F63"/>
<path d="M1141.7 43.3627C1138.8 43.3627 1136.45 41.0088 1136.45 38.1103C1136.45 35.2117 1138.81 32.8578 1141.7 32.8578C1144.6 32.8578 1146.95 35.2117 1146.95 38.1103C1146.95 41.0148 1144.6 43.3627 1141.7 43.3627Z" fill="#E3D6C7"/>
<path d="M1097.02 98.7668C1094.12 98.7668 1091.77 96.4129 1091.77 93.5144C1091.77 90.6159 1094.12 88.262 1097.02 88.262C1099.91 88.262 1102.27 90.6159 1102.27 93.5144C1102.27 96.4129 1099.91 98.7668 1097.02 98.7668Z" fill="#113D67"/>
<path d="M1030.14 72.8437C1027.24 72.8437 1024.89 70.4898 1024.89 67.5913C1024.89 64.6928 1027.24 62.3389 1030.14 62.3389C1033.03 62.3389 1035.38 64.6928 1035.38 67.5913C1035.38 70.4898 1033.03 72.8437 1030.14 72.8437Z" fill="#113D67"/>
<path d="M932.448 81.3941C929.552 81.3941 927.2 79.0402 927.2 76.1417C927.2 73.2432 929.552 70.8893 932.448 70.8893C935.35 70.8893 937.695 73.2432 937.695 76.1417C937.695 79.0402 935.35 81.3941 932.448 81.3941Z" fill="#E3D6C7"/>
<path d="M893.653 89.7325C890.751 89.7325 888.405 87.3786 888.405 84.4801C888.405 81.5816 890.757 79.2277 893.653 79.2277C896.555 79.2277 898.9 81.5816 898.9 84.4801C898.906 87.3786 896.555 89.7325 893.653 89.7325Z" fill="#E3D6C7"/>
<path d="M1018.53 105.901C1015.63 105.901 1013.28 103.547 1013.28 100.649C1013.28 97.7504 1015.63 95.3965 1018.53 95.3965C1021.43 95.3965 1023.78 97.7504 1023.78 100.649C1023.78 103.547 1021.43 105.901 1018.53 105.901Z" fill="#113D67"/>
<path d="M1050.14 223.941C1047.24 223.941 1044.89 221.587 1044.89 218.689C1044.89 215.79 1047.25 213.436 1050.14 213.436C1053.04 213.436 1055.39 215.79 1055.39 218.689C1055.39 221.587 1053.04 223.941 1050.14 223.941Z" fill="#ED6F63"/>
<path d="M1055.55 266.311C1052.65 266.311 1050.31 263.957 1050.31 261.059C1050.31 258.16 1052.66 255.806 1055.55 255.806C1058.45 255.806 1060.8 258.16 1060.8 261.059C1060.8 263.963 1058.45 266.311 1055.55 266.311Z" fill="#ED6F63"/>
<path d="M1014.35 162.068C1011.44 162.068 1009.1 159.714 1009.1 156.816C1009.1 153.917 1011.45 151.563 1014.35 151.563C1017.24 151.563 1019.59 153.917 1019.59 156.816C1019.59 159.714 1017.24 162.068 1014.35 162.068Z" fill="#E3D6C7"/>
<path d="M801.108 261.059C798.212 261.059 795.86 258.705 795.86 255.806C795.86 252.908 798.212 250.554 801.108 250.554C804.004 250.554 806.356 252.908 806.356 255.806C806.356 258.711 804.004 261.059 801.108 261.059Z" fill="#113D67"/>
<path d="M1063.01 150.022L1043.19 169.863L1046.8 173.474L1066.62 153.633L1063.01 150.022Z" fill="#ED6F63"/>
<path d="M1046.84 150.068L1043.23 153.679L1063.05 173.522L1066.66 169.911L1046.84 150.068Z" fill="#ED6F63"/>
<path d="M1182.16 220.452L1162.34 240.293L1165.94 243.904L1185.77 224.063L1182.16 220.452Z" fill="#ED6F63"/>
<path d="M1165.93 220.43L1162.32 224.041L1182.14 243.884L1185.75 240.273L1165.93 220.43Z" fill="#ED6F63"/>
<path d="M830.819 136.154L810.997 155.995L814.605 159.606L834.427 139.766L830.819 136.154Z" fill="#113D67"/>
<path d="M814.628 136.191L811.02 139.802L830.839 159.645L834.447 156.034L814.628 136.191Z" fill="#113D67"/>
<path d="M741.825 33.9591L721.936 50.4848C723.139 51.5135 724.299 52.5483 725.418 53.5588L741.819 39.9195L758.221 53.5588C759.339 52.5483 760.5 51.5196 761.703 50.4848L745.416 36.9363L741.825 33.9591ZM741.831 36.9363L741.825 36.9484L741.813 36.9363L741.825 36.9302L741.831 36.9363Z" fill="#113D67"/>
<path d="M731.808 59.38C733.029 60.4934 734.159 61.5342 735.181 62.5205L741.819 56.6388L748.457 62.5205C749.485 61.5281 750.609 60.4934 751.831 59.38L741.813 50.509L731.808 59.38Z" fill="#113D67"/>
<path d="M919.396 163.369C920.617 164.482 921.747 165.523 922.769 166.509L929.407 160.628L936.045 166.509C937.073 165.517 938.197 164.482 939.419 163.369L929.401 154.498L919.396 163.369Z" fill="#113D67"/>
<path d="M642.164 75.2401C643.385 76.3535 644.516 77.3883 645.538 78.3807L652.175 72.499L658.813 78.3807C659.841 77.3883 660.966 76.3535 662.187 75.2401L652.169 66.3691L642.164 75.2401Z" fill="#113D67"/>
<path d="M919.396 178.685C920.617 179.798 921.747 180.839 922.769 181.825L929.407 175.943L936.045 181.825C937.073 180.833 938.197 179.798 939.419 178.685L929.401 169.814L919.396 178.685Z" fill="#113D67"/>
<path d="M754.05 176.494C752.937 177.722 751.898 178.848 750.912 179.871L756.788 186.515L750.912 193.159C751.904 194.188 752.937 195.313 754.05 196.535L762.912 186.509L754.05 176.494Z" fill="#E3D6C7"/>
<path d="M740.58 177.995C739.468 179.223 738.428 180.349 737.442 181.371L743.319 188.015L737.442 194.659C738.434 195.688 739.468 196.814 740.58 198.036L749.443 188.009L740.58 177.995Z" fill="#E3D6C7"/>
<path d="M1114.65 26.4739C1115.88 27.5873 1117 28.6281 1118.03 29.6144L1124.67 23.7327L1131.3 29.6144C1132.33 28.6221 1133.46 27.5873 1134.68 26.4739L1124.66 17.6029L1114.65 26.4739Z" fill="#113D67"/>
<path d="M941.165 9.65761C942.386 10.771 943.517 11.8118 944.538 12.7982L951.176 6.91644L957.814 12.7982C958.842 11.8058 959.967 10.771 961.188 9.65761L951.183 0.786621L941.165 9.65761Z" fill="#113D67"/>
<path d="M717.68 0H723.175C723.175 9.64554 731.016 17.4939 740.653 17.4939C750.289 17.4939 758.13 9.64554 758.13 0H763.626C763.626 12.6772 753.318 22.9944 740.653 22.9944C727.987 22.9944 717.68 12.6772 717.68 0Z" fill="#ED6F63"/>
<path d="M731.795 263.624H684.785V269.125H731.795V263.624Z" fill="#113D67"/>
<path d="M739.449 111.91H733.954L733.966 95.9169C733.978 95.7293 734.383 91.2696 737.364 86.586C740.108 82.2776 745.628 76.9102 756.335 75.7847L756.909 81.255C741.438 82.8827 739.607 94.9548 739.449 96.28V111.91Z" fill="#E3D6C7"/>
<path d="M997.784 95.2162L977.961 115.057L981.569 118.668L1001.39 98.8275L997.784 95.2162Z" fill="#E3D6C7"/>
<path d="M981.588 95.2466L977.98 98.8584L997.806 118.696L1001.41 115.084L981.588 95.2466Z" fill="#E3D6C7"/>
<path d="M760.068 220.362L740.246 240.202L743.854 243.813L763.676 223.973L760.068 220.362Z" fill="#ED6F63"/>
<path d="M743.88 220.406L740.272 224.018L760.098 243.856L763.705 240.244L743.88 220.406Z" fill="#ED6F63"/>
<path d="M985.818 61.0681C998.042 69.9815 1006.01 58.7505 1006.01 58.7505C1006.01 58.7505 1009.72 52.7538 1009.51 42.6363C1009.66 31.0968 1009.49 17.5664 1009.49 17.5664L1009.43 3.40668H1015.3V46.9689C1015.3 46.9689 1015.92 64.0453 1001.56 69.2432C988.29 72.88 981.96 65.3644 981.96 65.3644L985.818 61.0681Z" fill="#ED6F63"/>
<path d="M787.318 245.568C788.558 244.206 789.7 242.96 790.801 241.816L784.277 234.44L790.801 227.063C789.7 225.926 788.552 224.673 787.318 223.312L777.488 234.434L787.318 245.568Z" fill="#ED6F63"/>
<path d="M887.377 113.502C889.469 111.916 891.549 110.131 893.653 108.279L890.515 104.612C888.315 106.531 885.957 108.491 883.532 110.331C875.812 116.116 868.401 119.474 862.331 116.146C856.612 113.011 855.741 107.112 856.733 103.021C857.724 98.9183 861.019 94.4828 867.276 94.3315C871.641 94.2226 874.754 95.7596 878.617 98.882L881.791 95.2634C877.154 91.4874 873.068 89.3695 867.161 89.5148C859.768 89.6963 853.843 94.5493 852.066 101.883C851.751 103.172 851.588 104.54 851.588 105.944C851.588 111.287 854.012 117.072 860.021 120.37C868.799 125.186 878.726 120.152 887.377 113.502Z" fill="#ED6F63"/>
<path d="M839.449 269.379V263.879C834.782 263.879 830.392 262.057 827.092 258.753C823.791 255.45 821.971 251.056 821.971 246.385C821.971 236.739 829.812 228.891 839.449 228.891V223.391C826.783 223.391 816.476 233.708 816.476 246.385C816.476 252.527 818.864 258.3 823.204 262.644C827.545 266.989 833.312 269.379 839.449 269.379Z" fill="#113D67"/>
<path d="M796.954 213.775C809.311 212.982 816.276 208.154 819.945 204.245L820.036 204.154C826.402 198 827.297 189.316 827.375 188.451V169.795H832.871L832.865 188.736C832.834 189.195 832.048 200.154 823.905 208.069C819.546 212.686 811.403 218.362 797.305 219.27L796.954 213.775Z" fill="#ED6F63"/>
<path d="M854.339 168.295H848.844V207.754H854.339V168.295Z" fill="#113D67"/>
<path d="M785.97 40.4763H780.475V66.1816H785.97V40.4763Z" fill="#ED6F63"/>
<path d="M791.949 161.669H766.268V167.169H791.949V161.669Z" fill="#113D67"/>
<path d="M982.111 75.6334H956.43V81.1339H982.111V75.6334Z" fill="#113D67"/>
<path d="M834.431 1.21631H803.756V5.50052H834.431V1.21631Z" fill="#113D67"/>
<path d="M847.41 225.847L852.875 225.272C854.502 240.757 866.562 242.591 867.886 242.748H883.496V248.249L867.518 248.243C867.33 248.224 862.875 247.825 858.195 244.836C853.897 242.089 848.535 236.564 847.41 225.847Z" fill="#E3D6C7"/>
<path d="M852.241 138.42V133.658H857.737V138.42C857.737 144.689 862.833 149.79 869.096 149.79C875.359 149.79 880.456 144.689 880.456 138.42V133.658H885.951V138.42C885.951 147.721 878.388 155.291 869.096 155.291C859.804 155.291 852.241 147.721 852.241 138.42Z" fill="#E3D6C7"/>
<path d="M811.258 90.3982H816.016C825.308 90.3982 832.871 97.7988 832.871 106.9C832.871 116.001 825.308 123.401 816.016 123.401H794.82V117.901H816.016C822.279 117.901 827.375 112.969 827.375 106.9C827.375 100.836 822.279 95.9047 816.016 95.9047H811.258V90.3982Z" fill="#E3D6C7"/>
<path d="M717.673 147.503C717.673 136.109 726.935 126.838 738.318 126.838C749.702 126.838 758.964 136.109 758.964 147.503C758.964 158.897 749.702 168.168 738.318 168.168C726.935 168.168 717.673 158.897 717.673 147.503ZM753.97 147.503C753.97 138.862 746.945 131.837 738.312 131.837C729.679 131.837 722.66 138.868 722.66 147.503C722.66 156.144 729.679 163.169 738.312 163.169C746.951 163.169 753.97 156.138 753.97 147.503Z" fill="#113D67"/>
<path d="M1175.97 1.21631L1156.08 17.742C1157.28 18.7707 1158.44 19.8055 1159.56 20.816L1175.96 7.17669L1192.36 20.816C1193.48 19.8055 1194.64 18.7768 1195.85 17.742L1179.55 4.19348L1175.97 1.21631ZM1175.97 4.19348L1175.97 4.20558L1175.96 4.19348L1175.97 4.18137L1175.97 4.19348Z" fill="#113D67"/>
<path d="M1165.95 26.6372C1167.17 27.7506 1168.3 28.7853 1169.32 29.7777L1175.96 23.896L1182.6 29.7777C1183.63 28.7853 1184.75 27.7506 1185.97 26.6372L1175.96 17.7662L1165.95 26.6372Z" fill="#113D67"/>
<path d="M1192.13 199.797H1162.35V205.298H1192.13V199.797Z" fill="#E3D6C7"/>
<path d="M1159.51 56.7839V51.2834L1175.49 51.2955C1175.68 51.3076 1180.13 51.7131 1184.81 54.6963C1189.12 57.4435 1194.48 62.9682 1195.6 73.6848L1190.14 74.2597C1188.51 58.7748 1176.45 56.9413 1175.13 56.7839H1159.51Z" fill="#E3D6C7"/>
<path d="M1155.52 183.035V177.535C1172.52 177.535 1186.35 163.696 1186.35 146.68H1191.84C1191.85 166.721 1175.55 183.035 1155.52 183.035Z" fill="#113D67"/>
<path d="M1155.4 106.688C1155.4 95.2936 1164.66 86.0232 1176.05 86.0232C1187.43 86.0232 1196.69 95.2936 1196.69 106.688C1196.69 118.082 1187.43 127.353 1176.05 127.353C1164.66 127.353 1155.4 118.082 1155.4 106.688ZM1191.7 106.688C1191.7 98.0468 1184.68 91.0214 1176.05 91.0214C1167.41 91.0214 1160.39 98.0529 1160.39 106.688C1160.39 115.329 1167.42 122.354 1176.05 122.354C1184.68 122.354 1191.7 115.329 1191.7 106.688Z" fill="#ED6F63"/>
<path d="M837.29 25.5115C838.566 13.7542 844.774 8.32022 849.768 5.82715C855.124 3.15254 860.191 3.28566 860.402 3.29171L860.233 8.79221C859.598 8.78011 844.654 8.61068 842.755 26.1046L837.29 25.5115Z" fill="#ED6F63"/>
<path d="M1121.53 134.408C1122.8 122.651 1129.02 117.217 1134.01 114.724C1139.36 112.049 1144.43 112.182 1144.64 112.188L1144.47 117.689C1143.84 117.671 1128.89 117.507 1126.99 135.001L1121.53 134.408Z" fill="#113D67"/>
<path d="M844.926 78.084C844.926 80.9886 842.574 83.3364 839.678 83.3364C836.782 83.3364 834.431 80.9825 834.431 78.084C834.431 75.1855 836.782 72.8316 839.678 72.8316C842.58 72.8316 844.926 75.1855 844.926 78.084Z" fill="#113D67"/>
<path d="M844.926 88.5949C844.926 91.4994 842.574 93.8473 839.678 93.8473C836.782 93.8473 834.431 91.4934 834.431 88.5949C834.431 85.6964 836.782 83.3425 839.678 83.3425C842.58 83.3364 844.926 85.6903 844.926 88.5949Z" fill="#113D67"/>
<path d="M918.766 244.951C915.864 244.951 913.519 242.597 913.519 239.698C913.519 236.8 915.87 234.446 918.766 234.446C921.662 234.446 924.014 236.8 924.014 239.698C924.014 242.597 921.662 244.951 918.766 244.951Z" fill="#113D67"/>
<path d="M1258.05 48.2216C1256.56 46.4789 1254.64 45.1779 1252.11 43.9072C1252.12 43.8951 1252.12 43.889 1252.12 43.8769C1249.84 42.7574 1247.22 41.6924 1244.16 40.4519C1243.03 39.9921 1241.82 39.508 1240.55 38.9815C1236.28 37.2146 1231.25 35.2298 1226.12 33.6565L1226.12 33.6505C1216.63 30.7883 1208.29 30.1347 1203.63 35.4779C1200.25 39.3567 1200.22 43.7922 1201.49 47.2534C1201.86 48.264 1202.34 49.1898 1202.88 49.9946C1205.26 53.5648 1209.97 56.6448 1216.01 54.5995C1222.02 52.5603 1224.42 48.2035 1228.82 39.6653C1230.34 40.2039 1231.89 40.7908 1233.44 41.3899C1228.58 50.8115 1225.57 56.5238 1217.58 59.2347C1210.45 61.6552 1203.08 59.0955 1198.81 52.7116C1195.2 47.3079 1194.15 38.8847 1199.94 32.2466C1206.68 24.5193 1218.02 25.8989 1228.68 29.2634L1228.67 29.2573C1231.75 30.1952 1234.91 31.4297 1238.13 32.7004C1239.62 33.2995 1241.05 33.8925 1242.41 34.4553C1243.68 34.9817 1244.88 35.4658 1246.02 35.9257C1246.29 36.0346 1246.56 36.1435 1246.82 36.2525L1246.83 36.2282C1248.51 36.912 1250.01 37.5292 1251.38 38.1162L1251.37 38.1404C1255.87 40.101 1259.18 41.9768 1261.78 45.0206L1258.05 48.2216Z" fill="#113D67"/>
<path d="M1217.85 268.29V262.789C1222.51 262.789 1226.9 260.968 1230.2 257.664C1233.5 254.36 1235.32 249.967 1235.32 245.296C1235.32 235.65 1227.48 227.802 1217.85 227.802V222.301C1230.51 222.301 1240.82 232.618 1240.82 245.296C1240.82 251.437 1238.43 257.21 1234.09 261.555C1229.75 265.894 1223.98 268.29 1217.85 268.29Z" fill="#ED6F63"/>
<path d="M1208.91 208.838C1221.26 208.045 1228.23 203.216 1231.9 199.313L1231.99 199.216C1238.36 193.062 1239.25 184.379 1239.33 183.513V164.858H1244.82L1244.81 183.798C1244.78 184.258 1244 195.216 1235.86 203.131C1231.5 207.748 1223.35 213.424 1209.25 214.332L1208.91 208.838Z" fill="#E3D6C7"/>
<path d="M1271.64 176.79H1266.75V216.25H1271.64V176.79Z" fill="#ED6F63"/>
<path d="M1272.53 253.755H1269.26C1269.07 253.743 1264.61 253.338 1259.93 250.354C1255.63 247.607 1250.27 242.082 1249.14 231.366L1254.61 230.791C1256.23 246.276 1268.3 248.109 1269.63 248.267H1272.53V253.755V253.755Z" fill="#113D67"/>
<path d="M1267.82 128.593H1272.58V134.094H1267.82C1261.56 134.094 1256.46 139.195 1256.46 145.464C1256.46 151.733 1261.56 156.834 1267.82 156.834H1272.58V162.334H1267.82C1258.53 162.334 1250.97 154.764 1250.97 145.464C1250.97 136.157 1258.53 128.593 1267.82 128.593Z" fill="#113D67"/>
<path d="M1208.48 115.147V110.385C1208.48 101.085 1215.87 93.5146 1224.96 93.5146C1234.05 93.5146 1241.45 101.085 1241.45 110.385V141.869H1235.95V110.385C1235.95 104.116 1231.03 99.0151 1224.96 99.0151C1218.9 99.0151 1213.97 104.116 1213.97 110.385V115.147H1208.48Z" fill="#113D67"/>
<path d="M1248.98 23.436C1250.25 11.6787 1256.46 6.24472 1261.46 3.75165C1266.81 1.07704 1271.88 1.21016 1272.09 1.21621L1271.92 6.71671C1271.29 6.70461 1256.34 6.53518 1254.45 24.0291L1248.98 23.436Z" fill="#113D67"/>
<path d="M1263.33 101.436C1263.33 104.34 1260.97 106.688 1258.08 106.688C1255.18 106.688 1252.83 104.334 1252.83 101.436C1252.83 98.5371 1255.18 96.1832 1258.08 96.1832C1260.98 96.1832 1263.33 98.531 1263.33 101.436Z" fill="#ED6F63"/>
<path d="M1263.33 111.94C1263.33 114.845 1260.97 117.193 1258.08 117.193C1255.18 117.193 1252.83 114.839 1252.83 111.94C1252.83 109.042 1255.18 106.688 1258.08 106.688C1260.98 106.688 1263.33 109.036 1263.33 111.94Z" fill="#ED6F63"/>
<path d="M1230.21 83.6391C1227.31 83.6391 1224.96 81.2852 1224.96 78.3867C1224.96 75.4882 1227.31 73.1343 1230.21 73.1343C1233.1 73.1343 1235.46 75.4882 1235.46 78.3867C1235.46 81.2852 1233.11 83.6391 1230.21 83.6391Z" fill="#E3D6C7"/>
<path d="M1221.04 11.5335C1218.14 11.5335 1215.8 9.17959 1215.8 6.28109C1215.8 3.38259 1218.15 1.02869 1221.04 1.02869C1223.95 1.02869 1226.29 3.38259 1226.29 6.28109C1226.29 9.17959 1223.94 11.5335 1221.04 11.5335Z" fill="#E3D6C7"/>
<path d="M1252.83 215.808C1249.93 215.808 1247.58 213.454 1247.58 210.556C1247.58 207.657 1249.94 205.303 1252.83 205.303C1255.73 205.303 1258.08 207.657 1258.08 210.556C1258.08 213.454 1255.73 215.808 1252.83 215.808Z" fill="#E3D6C7"/>
<path d="M1203.69 149.355C1204.91 150.468 1206.05 151.509 1207.07 152.495L1213.7 146.613L1220.34 152.495C1221.37 151.503 1222.5 150.468 1223.72 149.355L1213.7 140.484L1203.69 149.355Z" fill="#113D67"/>
<path d="M1203.69 166.389C1204.91 167.502 1206.05 168.543 1207.07 169.529L1213.7 163.648L1220.34 169.529C1221.37 168.537 1222.5 167.502 1223.72 166.389L1213.7 157.518L1203.69 166.389Z" fill="#113D67"/>
<path d="M1248.82 76.426L1252.43 80.0385L1271.64 60.814V59.5856L1268.65 56.5842L1248.82 76.426Z" fill="#E3D6C7"/>
<path d="M1248.82 60.203L1268.65 80.0387L1271.64 77.0434V75.815L1252.43 56.5905L1248.82 60.203Z" fill="#E3D6C7"/>
<path d="M1203.69 245.271C1200.79 245.271 1198.45 242.917 1198.45 240.019C1198.45 237.12 1200.8 234.767 1203.69 234.767C1206.59 234.767 1208.94 237.12 1208.94 240.019C1208.95 242.917 1206.59 245.271 1203.69 245.271Z" fill="#113D67"/>
<path d="M908.271 244.951C905.375 244.951 903.023 242.597 903.023 239.698C903.023 236.8 905.375 234.446 908.271 234.446C911.167 234.446 913.519 236.8 913.519 239.698C913.519 242.597 911.167 244.951 908.271 244.951Z" fill="#113D67"/>
<path d="M783.92 11.4972C781.018 11.4972 778.673 9.14333 778.673 6.24483C778.673 3.34633 781.025 0.992432 783.92 0.992432C786.822 0.992432 789.168 3.34633 789.168 6.24483C789.168 9.14333 786.822 11.4972 783.92 11.4972Z" fill="#ED6F63"/>
<path d="M1166.05 151.787C1163.15 151.787 1160.8 149.433 1160.8 146.535C1160.8 143.636 1163.15 141.282 1166.05 141.282C1168.94 141.282 1171.3 143.636 1171.3 146.535C1171.3 149.439 1168.94 151.787 1166.05 151.787Z" fill="#E3D6C7"/>
<path d="M787.941 153.13C785.039 153.13 782.693 150.777 782.693 147.878C782.693 144.98 785.045 142.626 787.941 142.626C790.837 142.626 793.188 144.98 793.188 147.878C793.188 150.777 790.837 153.13 787.941 153.13Z" fill="#ED6F63"/>
<path d="M768.915 31.9864L777.566 31.932C777.566 31.932 791.084 31.7565 802.613 31.9078C812.727 31.702 818.718 35.4114 818.718 35.4114C818.718 35.4114 829.939 43.3929 821.034 55.6222C813.489 64.1362 804.499 59.265 804.499 59.265C804.499 59.265 803.278 61.0925 800.969 63.9426C815.351 72.2811 825.326 59.4829 825.326 59.4829C825.326 59.4829 832.835 53.1473 829.201 39.865C824.008 25.4875 806.948 26.1168 806.948 26.1168H768.921V31.9864H768.915Z" fill="#E3D6C7"/>
<path d="M681.798 250.548C678.896 250.548 676.551 248.194 676.551 245.296C676.551 242.397 678.903 240.043 681.798 240.043C684.694 240.043 687.046 242.397 687.046 245.296C687.046 248.194 684.7 250.548 681.798 250.548Z" fill="#113D67"/>
<path d="M702.025 124.437L682.203 144.278L685.811 147.889L705.633 128.048L702.025 124.437Z" fill="#E3D6C7"/>
<path d="M685.792 124.411L682.184 128.022L702.003 147.866L705.612 144.255L685.792 124.411Z" fill="#E3D6C7"/>
<path d="M803.959 178.157L784.137 197.998L787.745 201.609L807.567 181.769L803.959 178.157Z" fill="#E3D6C7"/>
<path d="M787.772 178.194L784.163 181.804L803.983 201.648L807.591 198.037L787.772 178.194Z" fill="#E3D6C7"/>
<path d="M792.648 74.7361L772.826 94.5767L776.434 98.188L796.256 78.3474L792.648 74.7361Z" fill="#113D67"/>
<path d="M776.468 74.7764L772.859 78.3867L792.676 98.2329L796.285 94.6227L776.468 74.7764Z" fill="#113D67"/>
<path d="M650.12 178.152C649.008 179.374 647.968 180.506 646.982 181.529L652.859 188.173L646.982 194.817C647.974 195.846 649.008 196.971 650.12 198.193L658.983 188.167L650.12 178.152Z" fill="#E3D6C7"/>
<path d="M642.914 233.496V234.089L646.227 237.405L666.05 217.563L662.441 213.951L642.914 233.496Z" fill="#ED6F63"/>
<path d="M642.914 217.267V217.86L662.441 237.405L666.05 233.792L646.227 213.951L642.914 217.267Z" fill="#ED6F63"/>
<path d="M703.151 250.203V244.703C707.819 244.703 712.208 242.881 715.508 239.577C718.809 236.273 720.629 231.88 720.629 227.209C720.629 217.563 712.788 209.715 703.151 209.715V204.214C715.817 204.214 726.124 214.532 726.124 227.209C726.124 233.351 723.736 239.123 719.396 243.468C715.055 247.813 709.288 250.203 703.151 250.203Z" fill="#113D67"/>
<path d="M666.824 203.754C679.181 202.962 686.146 198.133 689.815 194.23L689.906 194.133C696.272 187.979 697.167 179.296 697.239 178.43V159.775H702.735L702.729 178.715C702.698 179.175 701.913 190.133 693.769 198.048C689.41 202.671 681.267 208.341 667.169 209.249L666.824 203.754Z" fill="#ED6F63"/>
<path d="M702.354 43.2659H696.858V68.9712H702.354V43.2659Z" fill="#ED6F63"/>
<path d="M689.392 171.472H663.711V176.972H689.392V171.472Z" fill="#113D67"/>
<path d="M699.579 1.21631H668.903V6.63209H699.579V1.21631Z" fill="#113D67"/>
<path d="M668.861 83.3365H673.619C682.911 83.3365 690.474 90.7371 690.474 99.838C690.474 108.939 682.911 116.34 673.619 116.34H642.164V110.839H673.619C679.882 110.839 684.979 105.907 684.979 99.838C684.979 93.7748 679.882 88.8431 673.619 88.8431H668.861V83.3365Z" fill="#E3D6C7"/>
<path d="M717.643 95.4933C717.643 98.3979 715.291 100.746 712.395 100.746C709.499 100.746 707.147 98.3918 707.147 95.4933C707.147 92.5948 709.499 90.2409 712.395 90.2409C715.297 90.2409 717.643 92.5887 717.643 95.4933Z" fill="#113D67"/>
<path d="M717.643 105.998C717.643 108.902 715.291 111.25 712.395 111.25C709.499 111.25 707.147 108.896 707.147 105.998C707.147 103.099 709.499 100.746 712.395 100.746C715.297 100.746 717.643 103.099 717.643 105.998Z" fill="#113D67"/>
<path d="M648.349 10.5048C645.453 10.5048 643.102 8.1509 643.102 5.2524C643.102 2.3539 645.453 0 648.349 0C651.245 0 653.597 2.3539 653.597 5.2524C653.597 8.15696 651.251 10.5048 648.349 10.5048Z" fill="#ED6F63"/>
<path d="M649.956 165.82C647.055 165.82 644.709 163.466 644.709 160.567C644.709 157.669 647.061 155.315 649.956 155.315C652.858 155.315 655.204 157.669 655.204 160.567C655.204 163.466 652.852 165.82 649.956 165.82Z" fill="#ED6F63"/>
<path d="M720.091 191.446C717.195 191.446 714.844 189.092 714.844 186.194C714.844 183.295 717.195 180.942 720.091 180.942C722.987 180.942 725.339 183.295 725.339 186.194C725.339 189.092 722.993 191.446 720.091 191.446Z" fill="#ED6F63"/>
<path d="M712.438 26.6372L703.787 26.5827C703.787 26.5827 690.269 26.4072 678.74 26.5585C668.626 26.3528 662.635 30.0621 662.635 30.0621C662.635 30.0621 651.414 38.0436 660.32 50.273C667.864 58.787 676.854 53.9158 676.854 53.9158C676.854 53.9158 678.075 55.7372 680.385 58.5933C666.002 66.9318 656.027 54.1336 656.027 54.1336C656.027 54.1336 648.519 47.7981 652.152 34.5158C657.345 20.1382 674.406 20.7676 674.406 20.7676H712.432V26.6372H712.438Z" fill="#E3D6C7"/>
<path d="M858.196 67.5128C870.42 76.4261 878.388 65.1952 878.388 65.1952C878.388 65.1952 882.094 59.1985 881.888 49.0809C882.04 37.5414 881.864 24.011 881.864 24.011L881.81 0.605164H887.674V53.4136C887.674 53.4136 888.303 70.4899 873.939 75.6879C860.669 79.3246 854.339 71.8091 854.339 71.8091L858.196 67.5128Z" fill="#113D67"/>
</svg>
