<?xml version="1.0" encoding="utf-8"?>
<!-- Generator: Adobe Illustrator 24.0.2, SVG Export Plug-In . SVG Version: 6.00 Build 0)  -->
<svg version="1.1" id="Capa_1" xmlns="http://www.w3.org/2000/svg" xmlns:xlink="http://www.w3.org/1999/xlink" x="0px" y="0px"
	 viewBox="0 0 100 100" style="enable-background:new 0 0 100 100;" xml:space="preserve">
<style type="text/css">
	.st0{fill:#EC7A96;}
	.st1{fill:#FFFFFF;}
	.st2{fill:#103E68;}
	.st3{fill:#FFB340;}
</style>
<circle class="st0" cx="61.62" cy="237.69" r="29.32"/>
<path class="st1" d="M52.79,248.22c-1.42-0.07-1.4-2.07,0-2.14c3.95,0.01,14.38,0,18.46,0.01c1.12,0,2.07-0.76,2.32-1.85l2.32-10.03
	c0.13-0.57,0-1.17-0.37-1.63c-0.37-0.46-0.91-0.73-1.5-0.73c-1.64,0-15.57-0.06-22.7-0.09l-1.13-4.2c-0.27-1-1.19-1.7-2.23-1.7
	h-3.62c-0.53,0-0.95,0.43-0.95,0.95c0,0.53,0.43,0.95,0.95,0.95h3.62c0.18,0,0.34,0.12,0.38,0.29l4.34,16.11
	c-0.76,0.03-1.47,0.34-2.01,0.89c-0.57,0.58-0.87,1.34-0.86,2.14c0.03,1.61,1.36,2.93,2.98,2.93h1.39
	c-0.21,0.43-0.32,0.92-0.32,1.43c0,1.84,1.5,3.34,3.34,3.34c1.84,0,3.34-1.5,3.34-3.34c0-0.51-0.12-1-0.32-1.43h6.03
	c-0.21,0.43-0.32,0.92-0.32,1.43c0,1.84,1.5,3.34,3.34,3.34c1.84,0,3.34-1.5,3.34-3.34c0-0.53-0.13-1.03-0.35-1.48
	c0.38-0.13,0.65-0.48,0.65-0.9c0-0.53-0.43-0.95-0.95-0.95H52.79z M58.63,251.56c0,0.79-0.64,1.43-1.43,1.43s-1.43-0.64-1.43-1.43
	c0-0.79,0.64-1.43,1.43-1.43h0C57.99,250.13,58.63,250.77,58.63,251.56z M69.25,252.99c-0.79,0-1.43-0.64-1.43-1.43
	c0-0.78,0.63-1.42,1.41-1.43h0.05c0.78,0.01,1.41,0.65,1.41,1.43C70.69,252.35,70.04,252.99,69.25,252.99L69.25,252.99z
	 M74.02,233.77c0.01,0.01,0,0.01,0,0.02l-0.98,4.23h-3.3l0.56-4.26l3.7,0.01C74.01,233.76,74.01,233.76,74.02,233.77L74.02,233.77z
	 M64.18,244.18v-4.26h3.38L67,244.18H64.18z M59.45,244.18l-0.57-4.26h3.39v4.26H59.45z M55.06,244.18L55.06,244.18
	c-0.24,0-0.44-0.16-0.5-0.38l-1.05-3.88h3.45l0.57,4.26H55.06z M58.63,238.01l-0.57-4.31l4.22,0.02v4.3H58.63z M64.18,238.01v-4.29
	l4.2,0.02l-0.56,4.27H64.18z M56.13,233.69l0.57,4.32h-3.71l-1.17-4.34L56.13,233.69z M71.24,244.18h-2.32l0.56-4.26h3.12l-0.9,3.89
	C71.65,244.03,71.47,244.18,71.24,244.18z"/>
<g>
	<path class="st2" d="M27.89,234.46c1.65-15.26,9.73-22.32,16.21-25.55c6.96-3.47,13.54-3.3,13.82-3.29l-0.22,7.14
		c-0.83-0.02-20.24-0.24-22.7,22.47L27.89,234.46z"/>
</g>
<circle class="st3" cx="52.03" cy="51.55" r="29.32"/>
<g>
	<path class="st2" d="M18.3,48.32C19.95,33.06,28.02,26,34.5,22.77c6.96-3.47,13.54-3.3,13.82-3.29l-0.22,7.14
		c-0.83-0.02-20.24-0.24-22.7,22.47L18.3,48.32z"/>
</g>
<g>
	<path class="st1" d="M69.11,50.62c-0.02-0.3-0.28-0.54-0.58-0.54h-8.39l-0.38-7.63c-0.02-0.31-0.27-0.56-0.58-0.56h-4.09v-2.92
		c0-2.91-2.35-5.26-5.26-5.26c-0.6,0-1.19,0.1-1.76,0.3c-2.74-0.97-5.75,0.46-6.72,3.2c-0.2,0.56-0.3,1.16-0.3,1.76v2.92h-4.09
		c-0.31,0-0.57,0.24-0.58,0.56l-1.17,23.4c-0.02,0.32,0.23,0.6,0.55,0.61c0.01,0,0.02,0,0.03,0H69.7c0.32,0,0.58-0.26,0.58-0.58
		c0-0.01,0-0.03,0-0.04L69.11,50.62z M67.36,63.42l1.25,1.87h-2.49L67.36,63.42z M68.94,63.69l-1.02-1.53l-1.09-10.91h1.15
		L68.94,63.69z M65.66,51.25l1.1,10.96l-1.28,1.93l-0.99-12.89H65.66z M58.97,50.08h-1.1l-0.41-7.02h1.16L58.97,50.08z M56.28,43.06
		l0.41,7.02h-1.24l-0.35-7.02H56.28z M49.81,34.87c2.26,0,4.09,1.83,4.09,4.09v2.92h-2.34v-2.92c0-1.59-0.72-3.09-1.95-4.09
		C49.68,34.87,49.75,34.87,49.81,34.87z M48.06,35.27c1.43,0.68,2.34,2.12,2.34,3.7v2.92h-4.68v-2.92
		C45.72,37.39,46.63,35.95,48.06,35.27z M42.21,38.97c0-2.26,1.83-4.09,4.09-4.09c0.07,0,0.13,0,0.2,0.01
		c-1.24,1-1.95,2.5-1.95,4.09v2.92h-2.34V38.97z M49.27,65.29H36.39l1.11-22.23h3.54v3.78l-1.49,1c-0.16,0.11-0.26,0.29-0.26,0.49
		v4.68c0,0.32,0.26,0.58,0.58,0.58h3.51c0.32,0,0.58-0.26,0.58-0.58v-4.68c0-0.2-0.1-0.38-0.26-0.49l-1.49-1v-3.78h8.19v1.75
		c0,0.32,0.26,0.58,0.58,0.58c0.32,0,0.58-0.26,0.58-0.58v-1.75h2.37l0.35,7.02h-3.3c-0.31,0-0.56,0.24-0.58,0.54L49.27,65.29z
		 M41.62,47.86l1.17,0.78v3.78h-2.34v-3.78L41.62,47.86z M51.52,51.25h11.78l1.08,14.04H50.44L51.52,51.25z"/>
	<path class="st1" d="M60.34,53.59c-0.32,0-0.58,0.26-0.58,0.58v4.68c0,0.97-0.79,1.75-1.75,1.75h-1.17c-0.97,0-1.75-0.79-1.75-1.75
		v-4.68c0-0.32-0.26-0.58-0.58-0.58c-0.32,0-0.58,0.26-0.58,0.58v4.68c0,1.61,1.31,2.92,2.92,2.92H58c1.61,0,2.92-1.31,2.92-2.92
		v-4.68C60.93,53.85,60.66,53.59,60.34,53.59z"/>
</g>
</svg>
