<?xml version="1.0" encoding="utf-8"?>
<!-- Generator: Adobe Illustrator 24.0.2, SVG Export Plug-In . SVG Version: 6.00 Build 0)  -->
<svg version="1.1" id="Capa_1" xmlns="http://www.w3.org/2000/svg" xmlns:xlink="http://www.w3.org/1999/xlink" x="0px" y="0px"
	 viewBox="0 0 100 100" style="enable-background:new 0 0 100 100;" xml:space="preserve">
<style type="text/css">
	.st0{fill:#EC7A96;}
	.st1{fill:#FFFFFF;}
	.st2{fill:#103E68;}
	.st3{fill:#F0454E;}
</style>
<circle class="st0" cx="61.6" cy="237.7" r="29.3"/>
<path class="st1" d="M52.8,248.2c-1.4-0.1-1.4-2.1,0-2.1c4,0,14.4,0,18.5,0c1.1,0,2.1-0.8,2.3-1.9l2.3-10c0.1-0.6,0-1.2-0.4-1.6
	s-0.9-0.7-1.5-0.7c-1.6,0-15.6-0.1-22.7-0.1l-1.1-4.2c-0.3-1-1.2-1.7-2.2-1.7h-3.6c-0.5,0-1,0.4-1,0.9c0,0.5,0.4,0.9,1,0.9H48
	c0.2,0,0.3,0.1,0.4,0.3l4.3,16.1c-0.8,0-1.5,0.3-2,0.9c-0.6,0.6-0.9,1.3-0.9,2.1c0,1.6,1.4,2.9,3,2.9h1.4c-0.2,0.4-0.3,0.9-0.3,1.4
	c0,1.8,1.5,3.3,3.3,3.3s3.3-1.5,3.3-3.3c0-0.5-0.1-1-0.3-1.4h6c-0.2,0.4-0.3,0.9-0.3,1.4c0,1.8,1.5,3.3,3.3,3.3s3.3-1.5,3.3-3.3
	c0-0.5-0.1-1-0.3-1.5c0.4-0.1,0.7-0.5,0.7-0.9c0-0.5-0.4-0.9-0.9-0.9L52.8,248.2L52.8,248.2z M58.6,251.6c0,0.8-0.6,1.4-1.4,1.4
	s-1.4-0.6-1.4-1.4s0.6-1.4,1.4-1.4l0,0C58,250.1,58.6,250.8,58.6,251.6z M69.2,253c-0.8,0-1.4-0.6-1.4-1.4c0-0.8,0.6-1.4,1.4-1.4
	h0.1c0.8,0,1.4,0.6,1.4,1.4C70.7,252.4,70,253,69.2,253L69.2,253z M74,233.8C74,233.8,74,233.8,74,233.8l-1,4.2h-3.3l0.6-4.3
	L74,233.8C74,233.8,74,233.8,74,233.8L74,233.8z M64.2,244.2v-4.3h3.4l-0.6,4.3H64.2z M59.5,244.2l-0.6-4.3h3.4v4.3H59.5z
	 M55.1,244.2L55.1,244.2c-0.2,0-0.4-0.2-0.5-0.4l-1-3.9H57l0.6,4.3L55.1,244.2L55.1,244.2z M58.6,238l-0.6-4.3l4.2,0v4.3L58.6,238
	L58.6,238z M64.2,238v-4.3l4.2,0l-0.6,4.3L64.2,238L64.2,238z M56.1,233.7l0.6,4.3H53l-1.2-4.3L56.1,233.7z M71.2,244.2h-2.3
	l0.6-4.3h3.1l-0.9,3.9C71.7,244,71.5,244.2,71.2,244.2z"/>
<g>
	<path class="st2" d="M27.9,234.5c1.6-15.3,9.7-22.3,16.2-25.6c7-3.5,13.5-3.3,13.8-3.3l-0.2,7.1c-0.8,0-20.2-0.2-22.7,22.5
		L27.9,234.5z"/>
</g>
<g>
	<circle class="st3" cx="52.2" cy="51.4" r="29.3"/>
	<g>
		<path class="st2" d="M18.5,48.1c1.7-15.3,9.7-22.3,16.2-25.6c7-3.5,13.5-3.3,13.8-3.3l-0.2,7.1c-0.8,0-20.2-0.2-22.7,22.5
			L18.5,48.1z"/>
	</g>
	<g>
		<g>
			<g>
				<path class="st1" d="M53.9,41.4H42.7c-0.3,0-0.6,0.3-0.6,0.6v7.4c0,0.3,0.3,0.6,0.6,0.6h11.3c0.3,0,0.6-0.3,0.6-0.6V42
					C54.6,41.7,54.3,41.4,53.9,41.4z M53.3,48.9h-10v-6.2h10V48.9z"/>
			</g>
		</g>
		<g>
			<g>
				<path class="st1" d="M67.4,64.2H56.7V54.1h1c0.9,0,1.7,0.8,1.7,1.7c0,0,0,0,0,0v1.8c0,1.9,1.5,3.4,3.4,3.4s3.4-1.5,3.4-3.4V47.5
					c0-1-0.4-2-1.1-2.8l-5-5.7l-1,0.8l3.9,4.4c-1.4,0.2-2.3,1.6-2.1,2.9c0.2,1.2,1.3,2.1,2.5,2.1c0.5,0,1-0.2,1.5-0.5v8.7
					c0,1.2-0.9,2.1-2.1,2.1s-2.1-0.9-2.1-2.1v-1.8c0-1.6-1.3-3-3-3h0h-1V40.9c0-1.4-1.2-2.7-2.6-2.7H42.3c-1.4,0-2.6,1.2-2.6,2.7
					v23.3h-1.4c-0.3,0-0.6,0.3-0.6,0.6s0.3,0.6,0.6,0.6h29.1c0.3,0,0.6-0.3,0.6-0.6S67.7,64.2,67.4,64.2z M63.5,48
					c-0.7,0-1.3-0.6-1.3-1.3c0-0.7,0.6-1.3,1.3-1.3c0.7,0,1.3,0.6,1.3,1.3S64.2,48,63.5,48z M55.5,64.2H41V40.9
					c0-0.8,0.6-1.4,1.3-1.4h11.8c0.8,0,1.3,0.6,1.3,1.4L55.5,64.2L55.5,64.2z"/>
			</g>
		</g>
	</g>
</g>
</svg>
