<svg width="393" height="135" viewBox="0 0 393 135" fill="none" xmlns="http://www.w3.org/2000/svg">
<g clip-path="url(#clip0)">
<path d="M25.6787 135C13.3534 135 3.35748 124.735 3.35748 112.078C3.35748 99.4211 13.3534 89.1562 25.6787 89.1562C38.0041 89.1562 48 99.4211 48 112.078C48 124.735 38.0041 135 25.6787 135Z" fill="#EF7869"/>
<path d="M34.1545 91.6046V117.559L42.4006 128.7" stroke="white" stroke-miterlimit="10"/>
<path d="M17.203 91.6046V117.559L8.95694 128.7" stroke="white" stroke-miterlimit="10"/>
<path d="M0 109.551C1.25769 97.6244 7.40396 92.0989 12.3363 89.572C17.6405 86.8542 22.6493 87.0002 22.8571 87.0002L22.6931 92.5818C22.0588 92.5706 7.27273 92.4021 5.4026 110.147L0 109.551Z" fill="#0E3E67"/>
<path d="M30.3049 115.11H21.0526L25.6788 110.36L30.3049 115.11Z" fill="white"/>
<path d="M25.6787 115.11V131.597" stroke="white" stroke-miterlimit="10"/>
</g>
<g clip-path="url(#clip1)">
<path d="M25.6788 48C38.0065 48 48 37.7375 48 25.0781C48 12.4187 38.0065 2.15625 25.6788 2.15625C13.3511 2.15625 3.35751 12.4187 3.35751 25.0781C3.35751 37.7375 13.3511 48 25.6788 48Z" fill="#EE7768"/>
<path d="M0 22.5514C1.25769 10.6244 7.40396 5.09889 12.3363 2.57198C17.6405 -0.145846 22.6493 0.000153428 22.8571 0.000153428L22.6931 5.58181C22.0588 5.57058 7.28366 5.40212 5.4026 23.1466L0 22.5514Z" fill="#103E68"/>
<path d="M23.7977 24.1348H13.3315V18.6429H23.7977V24.1348ZM13.9549 23.4946H23.1633V19.2943H13.9549V23.4946Z" fill="white"/>
<path d="M29.6596 28.9864H19.1935V23.4946H29.6596V28.9864ZM19.8169 28.3463H29.0253V24.146H19.8169V28.3463Z" fill="white"/>
<path d="M39.4915 28.9864H29.0253V23.4946H39.4915V28.9864ZM29.6596 28.3463H38.8681V24.146H29.6596V28.3463Z" fill="white"/>
<path d="M19.8169 28.9864H9.36163V23.4946H19.8278V28.9864H19.8169ZM9.98501 28.3463H19.1935V24.146H9.98501V28.3463Z" fill="white"/>
<path d="M31.7485 34.029H21.2823V28.5372H31.7485V34.029ZM21.9166 33.3889H31.1251V29.1886H21.9166V33.3889Z" fill="white"/>
<path d="M41.5913 34.029H31.1251V28.5372H41.5913V34.029ZM31.7485 33.3889H40.9569V29.1886H31.7485V33.3889Z" fill="white"/>
<path d="M21.9166 34.029H11.4504V28.5372H21.9166V34.029ZM12.0848 33.3889H21.2932V29.1886H12.0848V33.3889Z" fill="white"/>
<path d="M33.6295 24.1348H23.1633V18.6429H33.6295V24.1348ZM23.7976 23.4946H33.0061V19.2943H23.7976V23.4946Z" fill="white"/>
</g>
<g clip-path="url(#clip2)">
<path d="M229.679 48C242.006 48 252 37.7375 252 25.0781C252 12.4187 242.006 2.15625 229.679 2.15625C217.351 2.15625 207.357 12.4187 207.357 25.0781C207.357 37.7375 217.351 48 229.679 48Z" fill="#EE7768"/>
<path d="M204 22.5514C205.258 10.6244 211.404 5.09889 216.336 2.57198C221.64 -0.145846 226.649 0.000153428 226.857 0.000153428L226.693 5.58181C226.059 5.57058 211.284 5.40212 209.403 23.1466L204 22.5514Z" fill="#103E68"/>
<path d="M235.005 37.4656H218.709V20.743H234.994V37.4656H235.005ZM220.601 35.5339H233.124V22.6747H220.601V35.5339Z" fill="white"/>
<path d="M242.201 30.0646H225.917V13.342H242.201V30.0646ZM227.798 28.1329H240.32V15.2737H227.798V28.1329Z" fill="white"/>
</g>
<path d="M59.444 14.812C59.444 13.996 59.632 13.264 60.008 12.616C60.392 11.968 60.908 11.464 61.556 11.104C62.212 10.736 62.928 10.552 63.704 10.552C64.592 10.552 65.38 10.772 66.068 11.212C66.764 11.644 67.268 12.26 67.58 13.06H65.936C65.72 12.62 65.42 12.292 65.036 12.076C64.652 11.86 64.208 11.752 63.704 11.752C63.152 11.752 62.66 11.876 62.228 12.124C61.796 12.372 61.456 12.728 61.208 13.192C60.968 13.656 60.848 14.196 60.848 14.812C60.848 15.428 60.968 15.968 61.208 16.432C61.456 16.896 61.796 17.256 62.228 17.512C62.66 17.76 63.152 17.884 63.704 17.884C64.208 17.884 64.652 17.776 65.036 17.56C65.42 17.344 65.72 17.016 65.936 16.576H67.58C67.268 17.376 66.764 17.992 66.068 18.424C65.38 18.856 64.592 19.072 63.704 19.072C62.92 19.072 62.204 18.892 61.556 18.532C60.908 18.164 60.392 17.656 60.008 17.008C59.632 16.36 59.444 15.628 59.444 14.812ZM72.9853 19.084C72.2093 19.084 71.4933 18.904 70.8373 18.544C70.1893 18.176 69.6733 17.668 69.2893 17.02C68.9133 16.364 68.7253 15.628 68.7253 14.812C68.7253 13.996 68.9133 13.264 69.2893 12.616C69.6733 11.968 70.1893 11.464 70.8373 11.104C71.4933 10.736 72.2093 10.552 72.9853 10.552C73.7693 10.552 74.4853 10.736 75.1333 11.104C75.7893 11.464 76.3053 11.968 76.6813 12.616C77.0573 13.264 77.2453 13.996 77.2453 14.812C77.2453 15.628 77.0573 16.364 76.6813 17.02C76.3053 17.668 75.7893 18.176 75.1333 18.544C74.4853 18.904 73.7693 19.084 72.9853 19.084ZM72.9853 17.896C73.5373 17.896 74.0293 17.772 74.4613 17.524C74.8933 17.268 75.2293 16.908 75.4693 16.444C75.7173 15.972 75.8413 15.428 75.8413 14.812C75.8413 14.196 75.7173 13.656 75.4693 13.192C75.2293 12.728 74.8933 12.372 74.4613 12.124C74.0293 11.876 73.5373 11.752 72.9853 11.752C72.4333 11.752 71.9413 11.876 71.5093 12.124C71.0773 12.372 70.7373 12.728 70.4893 13.192C70.2493 13.656 70.1293 14.196 70.1293 14.812C70.1293 15.428 70.2493 15.972 70.4893 16.444C70.7373 16.908 71.0773 17.268 71.5093 17.524C71.9413 17.772 72.4333 17.896 72.9853 17.896ZM85.4434 19H84.0754L79.9594 12.772V19H78.5914V10.648H79.9594L84.0754 16.864V10.648H85.4434V19ZM89.9878 19.084C89.4278 19.084 88.9238 18.988 88.4758 18.796C88.0278 18.596 87.6758 18.316 87.4198 17.956C87.1638 17.596 87.0358 17.176 87.0358 16.696H88.4998C88.5318 17.056 88.6718 17.352 88.9198 17.584C89.1758 17.816 89.5318 17.932 89.9878 17.932C90.4598 17.932 90.8278 17.82 91.0918 17.596C91.3558 17.364 91.4878 17.068 91.4878 16.708C91.4878 16.428 91.4038 16.2 91.2358 16.024C91.0758 15.848 90.8718 15.712 90.6238 15.616C90.3838 15.52 90.0478 15.416 89.6158 15.304C89.0718 15.16 88.6278 15.016 88.2838 14.872C87.9478 14.72 87.6598 14.488 87.4198 14.176C87.1798 13.864 87.0598 13.448 87.0598 12.928C87.0598 12.448 87.1798 12.028 87.4198 11.668C87.6598 11.308 87.9958 11.032 88.4278 10.84C88.8598 10.648 89.3598 10.552 89.9278 10.552C90.7358 10.552 91.3958 10.756 91.9078 11.164C92.4278 11.564 92.7158 12.116 92.7718 12.82H91.2598C91.2358 12.516 91.0918 12.256 90.8278 12.04C90.5638 11.824 90.2158 11.716 89.7838 11.716C89.3918 11.716 89.0718 11.816 88.8238 12.016C88.5758 12.216 88.4518 12.504 88.4518 12.88C88.4518 13.136 88.5278 13.348 88.6798 13.516C88.8398 13.676 89.0398 13.804 89.2798 13.9C89.5198 13.996 89.8478 14.1 90.2638 14.212C90.8158 14.364 91.2638 14.516 91.6078 14.668C91.9598 14.82 92.2558 15.056 92.4958 15.376C92.7438 15.688 92.8678 16.108 92.8678 16.636C92.8678 17.06 92.7518 17.46 92.5198 17.836C92.2958 18.212 91.9638 18.516 91.5238 18.748C91.0918 18.972 90.5798 19.084 89.9878 19.084ZM99.87 10.66V11.776H97.65V19H96.282V11.776H94.05V10.66H99.87ZM105.587 19L103.667 15.664H102.623V19H101.255V10.66H104.135C104.775 10.66 105.315 10.772 105.755 10.996C106.203 11.22 106.535 11.52 106.751 11.896C106.975 12.272 107.087 12.692 107.087 13.156C107.087 13.7 106.927 14.196 106.607 14.644C106.295 15.084 105.811 15.384 105.155 15.544L107.219 19H105.587ZM102.623 14.572H104.135C104.647 14.572 105.031 14.444 105.287 14.188C105.551 13.932 105.683 13.588 105.683 13.156C105.683 12.724 105.555 12.388 105.299 12.148C105.043 11.9 104.655 11.776 104.135 11.776H102.623V14.572ZM110.194 10.66V15.976C110.194 16.608 110.358 17.084 110.686 17.404C111.022 17.724 111.486 17.884 112.078 17.884C112.678 17.884 113.142 17.724 113.47 17.404C113.806 17.084 113.974 16.608 113.974 15.976V10.66H115.342V15.952C115.342 16.632 115.194 17.208 114.898 17.68C114.602 18.152 114.206 18.504 113.71 18.736C113.214 18.968 112.666 19.084 112.066 19.084C111.466 19.084 110.918 18.968 110.422 18.736C109.934 18.504 109.546 18.152 109.258 17.68C108.97 17.208 108.826 16.632 108.826 15.952V10.66H110.194ZM116.667 14.812C116.667 13.996 116.855 13.264 117.231 12.616C117.615 11.968 118.131 11.464 118.779 11.104C119.435 10.736 120.151 10.552 120.927 10.552C121.815 10.552 122.603 10.772 123.291 11.212C123.987 11.644 124.491 12.26 124.803 13.06H123.159C122.943 12.62 122.643 12.292 122.259 12.076C121.875 11.86 121.431 11.752 120.927 11.752C120.375 11.752 119.883 11.876 119.451 12.124C119.019 12.372 118.679 12.728 118.431 13.192C118.191 13.656 118.071 14.196 118.071 14.812C118.071 15.428 118.191 15.968 118.431 16.432C118.679 16.896 119.019 17.256 119.451 17.512C119.883 17.76 120.375 17.884 120.927 17.884C121.431 17.884 121.875 17.776 122.259 17.56C122.643 17.344 122.943 17.016 123.159 16.576H124.803C124.491 17.376 123.987 17.992 123.291 18.424C122.603 18.856 121.815 19.072 120.927 19.072C120.143 19.072 119.427 18.892 118.779 18.532C118.131 18.164 117.615 17.656 117.231 17.008C116.855 16.36 116.667 15.628 116.667 14.812ZM125.948 14.812C125.948 13.996 126.136 13.264 126.512 12.616C126.896 11.968 127.412 11.464 128.06 11.104C128.716 10.736 129.432 10.552 130.208 10.552C131.096 10.552 131.884 10.772 132.572 11.212C133.268 11.644 133.772 12.26 134.084 13.06H132.44C132.224 12.62 131.924 12.292 131.54 12.076C131.156 11.86 130.712 11.752 130.208 11.752C129.656 11.752 129.164 11.876 128.732 12.124C128.3 12.372 127.96 12.728 127.712 13.192C127.472 13.656 127.352 14.196 127.352 14.812C127.352 15.428 127.472 15.968 127.712 16.432C127.96 16.896 128.3 17.256 128.732 17.512C129.164 17.76 129.656 17.884 130.208 17.884C130.712 17.884 131.156 17.776 131.54 17.56C131.924 17.344 132.224 17.016 132.44 16.576H134.084C133.772 17.376 133.268 17.992 132.572 18.424C131.884 18.856 131.096 19.072 130.208 19.072C129.424 19.072 128.708 18.892 128.06 18.532C127.412 18.164 126.896 17.656 126.512 17.008C126.136 16.36 125.948 15.628 125.948 14.812ZM137.053 10.66V19H135.685V10.66H137.053ZM142.653 19.084C141.877 19.084 141.161 18.904 140.505 18.544C139.857 18.176 139.341 17.668 138.957 17.02C138.581 16.364 138.393 15.628 138.393 14.812C138.393 13.996 138.581 13.264 138.957 12.616C139.341 11.968 139.857 11.464 140.505 11.104C141.161 10.736 141.877 10.552 142.653 10.552C143.437 10.552 144.153 10.736 144.801 11.104C145.457 11.464 145.973 11.968 146.349 12.616C146.725 13.264 146.913 13.996 146.913 14.812C146.913 15.628 146.725 16.364 146.349 17.02C145.973 17.668 145.457 18.176 144.801 18.544C144.153 18.904 143.437 19.084 142.653 19.084ZM142.653 17.896C143.205 17.896 143.697 17.772 144.129 17.524C144.561 17.268 144.897 16.908 145.137 16.444C145.385 15.972 145.509 15.428 145.509 14.812C145.509 14.196 145.385 13.656 145.137 13.192C144.897 12.728 144.561 12.372 144.129 12.124C143.697 11.876 143.205 11.752 142.653 11.752C142.101 11.752 141.609 11.876 141.177 12.124C140.745 12.372 140.405 12.728 140.157 13.192C139.917 13.656 139.797 14.196 139.797 14.812C139.797 15.428 139.917 15.972 140.157 16.444C140.405 16.908 140.745 17.268 141.177 17.524C141.609 17.772 142.101 17.896 142.653 17.896ZM143.889 8.872L141.237 10.18V9.172L143.889 7.708V8.872ZM155.111 19H153.743L149.627 12.772V19H148.259V10.648H149.627L153.743 16.864V10.648H155.111V19ZM62.624 28.66C63.512 28.66 64.288 28.832 64.952 29.176C65.624 29.512 66.14 30 66.5 30.64C66.868 31.272 67.052 32.012 67.052 32.86C67.052 33.708 66.868 34.444 66.5 35.068C66.14 35.692 65.624 36.172 64.952 36.508C64.288 36.836 63.512 37 62.624 37H59.9V28.66H62.624ZM62.624 35.884C63.6 35.884 64.348 35.62 64.868 35.092C65.388 34.564 65.648 33.82 65.648 32.86C65.648 31.892 65.388 31.136 64.868 30.592C64.348 30.048 63.6 29.776 62.624 29.776H61.268V35.884H62.624ZM69.7758 29.764V32.212H72.6558V33.328H69.7758V35.884H73.0158V37H68.4078V28.648H73.0158V29.764H69.7758ZM82.282 32.716C82.73 32.796 83.11 33.032 83.422 33.424C83.734 33.816 83.89 34.26 83.89 34.756C83.89 35.18 83.778 35.564 83.554 35.908C83.338 36.244 83.022 36.512 82.606 36.712C82.19 36.904 81.706 37 81.154 37H77.818V28.66H80.998C81.566 28.66 82.054 28.756 82.462 28.948C82.87 29.14 83.178 29.4 83.386 29.728C83.594 30.048 83.698 30.408 83.698 30.808C83.698 31.288 83.57 31.688 83.314 32.008C83.058 32.328 82.714 32.564 82.282 32.716ZM79.186 32.164H80.878C81.326 32.164 81.674 32.064 81.922 31.864C82.178 31.656 82.306 31.36 82.306 30.976C82.306 30.6 82.178 30.308 81.922 30.1C81.674 29.884 81.326 29.776 80.878 29.776H79.186V32.164ZM81.034 35.884C81.498 35.884 81.862 35.772 82.126 35.548C82.39 35.324 82.522 35.012 82.522 34.612C82.522 34.204 82.382 33.88 82.102 33.64C81.822 33.4 81.45 33.28 80.986 33.28H79.186V35.884H81.034ZM86.7446 35.896H89.5646V37H85.3766V28.66H86.7446V35.896ZM94.5126 37.084C93.7366 37.084 93.0206 36.904 92.3646 36.544C91.7166 36.176 91.2006 35.668 90.8166 35.02C90.4406 34.364 90.2526 33.628 90.2526 32.812C90.2526 31.996 90.4406 31.264 90.8166 30.616C91.2006 29.968 91.7166 29.464 92.3646 29.104C93.0206 28.736 93.7366 28.552 94.5126 28.552C95.2966 28.552 96.0126 28.736 96.6606 29.104C97.3166 29.464 97.8326 29.968 98.2086 30.616C98.5846 31.264 98.7726 31.996 98.7726 32.812C98.7726 33.628 98.5846 34.364 98.2086 35.02C97.8326 35.668 97.3166 36.176 96.6606 36.544C96.0126 36.904 95.2966 37.084 94.5126 37.084ZM94.5126 35.896C95.0646 35.896 95.5566 35.772 95.9886 35.524C96.4206 35.268 96.7566 34.908 96.9966 34.444C97.2446 33.972 97.3686 33.428 97.3686 32.812C97.3686 32.196 97.2446 31.656 96.9966 31.192C96.7566 30.728 96.4206 30.372 95.9886 30.124C95.5566 29.876 95.0646 29.752 94.5126 29.752C93.9606 29.752 93.4686 29.876 93.0366 30.124C92.6046 30.372 92.2646 30.728 92.0166 31.192C91.7766 31.656 91.6566 32.196 91.6566 32.812C91.6566 33.428 91.7766 33.972 92.0166 34.444C92.2646 34.908 92.6046 35.268 93.0366 35.524C93.4686 35.772 93.9606 35.896 94.5126 35.896ZM99.6628 32.812C99.6628 31.996 99.8508 31.264 100.227 30.616C100.611 29.968 101.127 29.464 101.775 29.104C102.431 28.736 103.147 28.552 103.923 28.552C104.811 28.552 105.599 28.772 106.287 29.212C106.983 29.644 107.487 30.26 107.799 31.06H106.155C105.939 30.62 105.639 30.292 105.255 30.076C104.871 29.86 104.427 29.752 103.923 29.752C103.371 29.752 102.879 29.876 102.447 30.124C102.015 30.372 101.675 30.728 101.427 31.192C101.187 31.656 101.067 32.196 101.067 32.812C101.067 33.428 101.187 33.968 101.427 34.432C101.675 34.896 102.015 35.256 102.447 35.512C102.879 35.76 103.371 35.884 103.923 35.884C104.427 35.884 104.871 35.776 105.255 35.56C105.639 35.344 105.939 35.016 106.155 34.576H107.799C107.487 35.376 106.983 35.992 106.287 36.424C105.599 36.856 104.811 37.072 103.923 37.072C103.139 37.072 102.423 36.892 101.775 36.532C101.127 36.164 100.611 35.656 100.227 35.008C99.8508 34.36 99.6628 33.628 99.6628 32.812ZM113.996 37L110.768 33.268V37H109.4V28.66H110.768V32.464L114.008 28.66H115.724L112.1 32.836L115.784 37H113.996Z" fill="#575756"/>
<path d="M266.624 10.66C267.512 10.66 268.288 10.832 268.952 11.176C269.624 11.512 270.14 12 270.5 12.64C270.868 13.272 271.052 14.012 271.052 14.86C271.052 15.708 270.868 16.444 270.5 17.068C270.14 17.692 269.624 18.172 268.952 18.508C268.288 18.836 267.512 19 266.624 19H263.9V10.66H266.624ZM266.624 17.884C267.6 17.884 268.348 17.62 268.868 17.092C269.388 16.564 269.648 15.82 269.648 14.86C269.648 13.892 269.388 13.136 268.868 12.592C268.348 12.048 267.6 11.776 266.624 11.776H265.268V17.884H266.624ZM273.776 10.66V19H272.408V10.66H273.776ZM278.32 19.084C277.76 19.084 277.256 18.988 276.808 18.796C276.36 18.596 276.008 18.316 275.752 17.956C275.496 17.596 275.368 17.176 275.368 16.696H276.832C276.864 17.056 277.004 17.352 277.252 17.584C277.508 17.816 277.864 17.932 278.32 17.932C278.792 17.932 279.16 17.82 279.424 17.596C279.688 17.364 279.82 17.068 279.82 16.708C279.82 16.428 279.736 16.2 279.568 16.024C279.408 15.848 279.204 15.712 278.956 15.616C278.716 15.52 278.38 15.416 277.948 15.304C277.404 15.16 276.96 15.016 276.616 14.872C276.28 14.72 275.992 14.488 275.752 14.176C275.512 13.864 275.392 13.448 275.392 12.928C275.392 12.448 275.512 12.028 275.752 11.668C275.992 11.308 276.328 11.032 276.76 10.84C277.192 10.648 277.692 10.552 278.26 10.552C279.068 10.552 279.728 10.756 280.24 11.164C280.76 11.564 281.048 12.116 281.104 12.82H279.592C279.568 12.516 279.424 12.256 279.16 12.04C278.896 11.824 278.548 11.716 278.116 11.716C277.724 11.716 277.404 11.816 277.156 12.016C276.908 12.216 276.784 12.504 276.784 12.88C276.784 13.136 276.86 13.348 277.012 13.516C277.172 13.676 277.372 13.804 277.612 13.9C277.852 13.996 278.18 14.1 278.596 14.212C279.148 14.364 279.596 14.516 279.94 14.668C280.292 14.82 280.588 15.056 280.828 15.376C281.076 15.688 281.2 16.108 281.2 16.636C281.2 17.06 281.084 17.46 280.852 17.836C280.628 18.212 280.296 18.516 279.856 18.748C279.424 18.972 278.912 19.084 278.32 19.084ZM284.182 11.764V14.212H287.062V15.328H284.182V17.884H287.422V19H282.814V10.648H287.422V11.764H284.182ZM295.959 19H294.591L290.475 12.772V19H289.107V10.648H290.475L294.591 16.864V10.648H295.959V19ZM290.583 9.964C290.647 9.5 290.799 9.152 291.039 8.92C291.279 8.68 291.579 8.56 291.939 8.56C292.091 8.56 292.223 8.584 292.335 8.632C292.447 8.68 292.583 8.752 292.743 8.848C292.863 8.928 292.963 8.988 293.043 9.028C293.131 9.068 293.227 9.088 293.331 9.088C293.467 9.088 293.579 9.048 293.667 8.968C293.763 8.88 293.823 8.752 293.847 8.584H294.615C294.551 9.048 294.399 9.4 294.159 9.64C293.919 9.872 293.619 9.988 293.259 9.988C293.107 9.988 292.971 9.964 292.851 9.916C292.731 9.86 292.599 9.784 292.455 9.688C292.311 9.6 292.199 9.54 292.119 9.508C292.047 9.468 291.963 9.448 291.867 9.448C291.731 9.448 291.615 9.492 291.519 9.58C291.431 9.668 291.375 9.796 291.351 9.964H290.583ZM301.559 19.084C300.783 19.084 300.067 18.904 299.411 18.544C298.763 18.176 298.247 17.668 297.863 17.02C297.487 16.364 297.299 15.628 297.299 14.812C297.299 13.996 297.487 13.264 297.863 12.616C298.247 11.968 298.763 11.464 299.411 11.104C300.067 10.736 300.783 10.552 301.559 10.552C302.343 10.552 303.059 10.736 303.707 11.104C304.363 11.464 304.879 11.968 305.255 12.616C305.631 13.264 305.819 13.996 305.819 14.812C305.819 15.628 305.631 16.364 305.255 17.02C304.879 17.668 304.363 18.176 303.707 18.544C303.059 18.904 302.343 19.084 301.559 19.084ZM301.559 17.896C302.111 17.896 302.603 17.772 303.035 17.524C303.467 17.268 303.803 16.908 304.043 16.444C304.291 15.972 304.415 15.428 304.415 14.812C304.415 14.196 304.291 13.656 304.043 13.192C303.803 12.728 303.467 12.372 303.035 12.124C302.603 11.876 302.111 11.752 301.559 11.752C301.007 11.752 300.515 11.876 300.083 12.124C299.651 12.372 299.311 12.728 299.063 13.192C298.823 13.656 298.703 14.196 298.703 14.812C298.703 15.428 298.823 15.972 299.063 16.444C299.311 16.908 299.651 17.268 300.083 17.524C300.515 17.772 301.007 17.896 301.559 17.896ZM272.684 28.66V37H271.316V31.288L268.772 37H267.824L265.268 31.288V37H263.9V28.66H265.376L268.304 35.2L271.22 28.66H272.684ZM278.286 37.084C277.51 37.084 276.794 36.904 276.138 36.544C275.49 36.176 274.974 35.668 274.59 35.02C274.214 34.364 274.026 33.628 274.026 32.812C274.026 31.996 274.214 31.264 274.59 30.616C274.974 29.968 275.49 29.464 276.138 29.104C276.794 28.736 277.51 28.552 278.286 28.552C279.07 28.552 279.786 28.736 280.434 29.104C281.09 29.464 281.606 29.968 281.982 30.616C282.358 31.264 282.546 31.996 282.546 32.812C282.546 33.628 282.358 34.364 281.982 35.02C281.606 35.668 281.09 36.176 280.434 36.544C279.786 36.904 279.07 37.084 278.286 37.084ZM278.286 35.896C278.838 35.896 279.33 35.772 279.762 35.524C280.194 35.268 280.53 34.908 280.77 34.444C281.018 33.972 281.142 33.428 281.142 32.812C281.142 32.196 281.018 31.656 280.77 31.192C280.53 30.728 280.194 30.372 279.762 30.124C279.33 29.876 278.838 29.752 278.286 29.752C277.734 29.752 277.242 29.876 276.81 30.124C276.378 30.372 276.038 30.728 275.79 31.192C275.55 31.656 275.43 32.196 275.43 32.812C275.43 33.428 275.55 33.972 275.79 34.444C276.038 34.908 276.378 35.268 276.81 35.524C277.242 35.772 277.734 35.896 278.286 35.896ZM286.616 28.66C287.504 28.66 288.28 28.832 288.944 29.176C289.616 29.512 290.132 30 290.492 30.64C290.86 31.272 291.044 32.012 291.044 32.86C291.044 33.708 290.86 34.444 290.492 35.068C290.132 35.692 289.616 36.172 288.944 36.508C288.28 36.836 287.504 37 286.616 37H283.892V28.66H286.616ZM286.616 35.884C287.592 35.884 288.34 35.62 288.86 35.092C289.38 34.564 289.64 33.82 289.64 32.86C289.64 31.892 289.38 31.136 288.86 30.592C288.34 30.048 287.592 29.776 286.616 29.776H285.26V35.884H286.616ZM293.768 29.764V32.212H296.648V33.328H293.768V35.884H297.008V37H292.4V28.648H297.008V29.764H293.768ZM303.025 37L301.105 33.664H300.061V37H298.693V28.66H301.573C302.213 28.66 302.753 28.772 303.193 28.996C303.641 29.22 303.973 29.52 304.189 29.896C304.413 30.272 304.525 30.692 304.525 31.156C304.525 31.7 304.365 32.196 304.045 32.644C303.733 33.084 303.249 33.384 302.593 33.544L304.657 37H303.025ZM300.061 32.572H301.573C302.085 32.572 302.469 32.444 302.725 32.188C302.989 31.932 303.121 31.588 303.121 31.156C303.121 30.724 302.993 30.388 302.737 30.148C302.481 29.9 302.093 29.776 301.573 29.776H300.061V32.572ZM313.127 37H311.759L307.643 30.772V37H306.275V28.648H307.643L311.759 34.864V28.648H313.127V37ZM318.727 37.084C317.951 37.084 317.235 36.904 316.579 36.544C315.931 36.176 315.415 35.668 315.031 35.02C314.655 34.364 314.467 33.628 314.467 32.812C314.467 31.996 314.655 31.264 315.031 30.616C315.415 29.968 315.931 29.464 316.579 29.104C317.235 28.736 317.951 28.552 318.727 28.552C319.511 28.552 320.227 28.736 320.875 29.104C321.531 29.464 322.047 29.968 322.423 30.616C322.799 31.264 322.987 31.996 322.987 32.812C322.987 33.628 322.799 34.364 322.423 35.02C322.047 35.668 321.531 36.176 320.875 36.544C320.227 36.904 319.511 37.084 318.727 37.084ZM318.727 35.896C319.279 35.896 319.771 35.772 320.203 35.524C320.635 35.268 320.971 34.908 321.211 34.444C321.459 33.972 321.583 33.428 321.583 32.812C321.583 32.196 321.459 31.656 321.211 31.192C320.971 30.728 320.635 30.372 320.203 30.124C319.771 29.876 319.279 29.752 318.727 29.752C318.175 29.752 317.683 29.876 317.251 30.124C316.819 30.372 316.479 30.728 316.231 31.192C315.991 31.656 315.871 32.196 315.871 32.812C315.871 33.428 315.991 33.972 316.231 34.444C316.479 34.908 316.819 35.268 317.251 35.524C317.683 35.772 318.175 35.896 318.727 35.896Z" fill="#575756"/>
<path d="M65.732 100.144C65.732 100.568 65.632 100.968 65.432 101.344C65.232 101.72 64.912 102.028 64.472 102.268C64.032 102.5 63.468 102.616 62.78 102.616H61.268V106H59.9V97.66H62.78C63.42 97.66 63.96 97.772 64.4 97.996C64.848 98.212 65.18 98.508 65.396 98.884C65.62 99.26 65.732 99.68 65.732 100.144ZM62.78 101.5C63.3 101.5 63.688 101.384 63.944 101.152C64.2 100.912 64.328 100.576 64.328 100.144C64.328 99.232 63.812 98.776 62.78 98.776H61.268V101.5H62.78ZM72.0647 104.296H68.5727L67.9727 106H66.5447L69.5327 97.648H71.1167L74.1047 106H72.6647L72.0647 104.296ZM71.6807 103.18L70.3247 99.304L68.9567 103.18H71.6807ZM78.1519 106.084C77.5919 106.084 77.0879 105.988 76.6399 105.796C76.1919 105.596 75.8399 105.316 75.5839 104.956C75.3279 104.596 75.1999 104.176 75.1999 103.696H76.6639C76.6959 104.056 76.8359 104.352 77.0839 104.584C77.3399 104.816 77.6959 104.932 78.1519 104.932C78.6239 104.932 78.9919 104.82 79.2559 104.596C79.5199 104.364 79.6519 104.068 79.6519 103.708C79.6519 103.428 79.5679 103.2 79.3999 103.024C79.2399 102.848 79.0359 102.712 78.7879 102.616C78.5479 102.52 78.2119 102.416 77.7799 102.304C77.2359 102.16 76.7919 102.016 76.4479 101.872C76.1119 101.72 75.8239 101.488 75.5839 101.176C75.3439 100.864 75.2239 100.448 75.2239 99.928C75.2239 99.448 75.3439 99.028 75.5839 98.668C75.8239 98.308 76.1599 98.032 76.5919 97.84C77.0239 97.648 77.5239 97.552 78.0919 97.552C78.8999 97.552 79.5599 97.756 80.0719 98.164C80.5919 98.564 80.8799 99.116 80.9359 99.82H79.4239C79.3999 99.516 79.2559 99.256 78.9919 99.04C78.7279 98.824 78.3799 98.716 77.9479 98.716C77.5559 98.716 77.2359 98.816 76.9879 99.016C76.7399 99.216 76.6159 99.504 76.6159 99.88C76.6159 100.136 76.6919 100.348 76.8439 100.516C77.0039 100.676 77.2039 100.804 77.4439 100.9C77.6839 100.996 78.0119 101.1 78.4279 101.212C78.9799 101.364 79.4279 101.516 79.7719 101.668C80.1239 101.82 80.4199 102.056 80.6599 102.376C80.9079 102.688 81.0319 103.108 81.0319 103.636C81.0319 104.06 80.9159 104.46 80.6839 104.836C80.4599 105.212 80.1279 105.516 79.6879 105.748C79.2559 105.972 78.7439 106.084 78.1519 106.084ZM84.0141 97.66V106H82.6461V97.66H84.0141ZM87.1782 104.896H89.9982V106H85.8102V97.66H87.1782V104.896ZM92.5102 104.896H95.3302V106H91.1422V97.66H92.5102V104.896ZM100.278 106.084C99.5022 106.084 98.7862 105.904 98.1302 105.544C97.4822 105.176 96.9662 104.668 96.5822 104.02C96.2062 103.364 96.0182 102.628 96.0182 101.812C96.0182 100.996 96.2062 100.264 96.5822 99.616C96.9662 98.968 97.4822 98.464 98.1302 98.104C98.7862 97.736 99.5022 97.552 100.278 97.552C101.062 97.552 101.778 97.736 102.426 98.104C103.082 98.464 103.598 98.968 103.974 99.616C104.35 100.264 104.538 100.996 104.538 101.812C104.538 102.628 104.35 103.364 103.974 104.02C103.598 104.668 103.082 105.176 102.426 105.544C101.778 105.904 101.062 106.084 100.278 106.084ZM100.278 104.896C100.83 104.896 101.322 104.772 101.754 104.524C102.186 104.268 102.522 103.908 102.762 103.444C103.01 102.972 103.134 102.428 103.134 101.812C103.134 101.196 103.01 100.656 102.762 100.192C102.522 99.728 102.186 99.372 101.754 99.124C101.322 98.876 100.83 98.752 100.278 98.752C99.7262 98.752 99.2342 98.876 98.8022 99.124C98.3702 99.372 98.0302 99.728 97.7822 100.192C97.5422 100.656 97.4222 101.196 97.4222 101.812C97.4222 102.428 97.5422 102.972 97.7822 103.444C98.0302 103.908 98.3702 104.268 98.8022 104.524C99.2342 104.772 99.7262 104.896 100.278 104.896ZM61.268 122.896H64.088V124H59.9V115.66H61.268V122.896ZM70.26 122.296H66.768L66.168 124H64.74L67.728 115.648H69.312L72.3 124H70.86L70.26 122.296ZM69.876 121.18L68.52 117.304L67.152 121.18H69.876ZM78.9872 115.66V116.776H76.7672V124H75.3992V116.776H73.1672V115.66H78.9872ZM81.7407 116.764V119.212H84.6207V120.328H81.7407V122.884H84.9807V124H80.3727V115.648H84.9807V116.764H81.7407ZM90.9976 124L89.0776 120.664H88.0336V124H86.6656V115.66H89.5456C90.1856 115.66 90.7256 115.772 91.1656 115.996C91.6136 116.22 91.9456 116.52 92.1616 116.896C92.3856 117.272 92.4976 117.692 92.4976 118.156C92.4976 118.7 92.3376 119.196 92.0176 119.644C91.7056 120.084 91.2216 120.384 90.5656 120.544L92.6296 124H90.9976ZM88.0336 119.572H89.5456C90.0576 119.572 90.4416 119.444 90.6976 119.188C90.9616 118.932 91.0936 118.588 91.0936 118.156C91.0936 117.724 90.9656 117.388 90.7096 117.148C90.4536 116.9 90.0656 116.776 89.5456 116.776H88.0336V119.572ZM99.2757 122.296H95.7837L95.1837 124H93.7557L96.7437 115.648H98.3277L101.316 124H99.8757L99.2757 122.296ZM98.8917 121.18L97.5357 117.304L96.1677 121.18H98.8917ZM103.983 122.896H106.803V124H102.615V115.66H103.983V122.896Z" fill="#575756"/>
<path d="M272.732 100.144C272.732 100.568 272.632 100.968 272.432 101.344C272.232 101.72 271.912 102.028 271.472 102.268C271.032 102.5 270.468 102.616 269.78 102.616H268.268V106H266.9V97.66H269.78C270.42 97.66 270.96 97.772 271.4 97.996C271.848 98.212 272.18 98.508 272.396 98.884C272.62 99.26 272.732 99.68 272.732 100.144ZM269.78 101.5C270.3 101.5 270.688 101.384 270.944 101.152C271.2 100.912 271.328 100.576 271.328 100.144C271.328 99.232 270.812 98.776 269.78 98.776H268.268V101.5H269.78ZM278.369 106L276.449 102.664H275.405V106H274.037V97.66H276.917C277.557 97.66 278.097 97.772 278.537 97.996C278.985 98.22 279.317 98.52 279.533 98.896C279.757 99.272 279.869 99.692 279.869 100.156C279.869 100.7 279.709 101.196 279.389 101.644C279.077 102.084 278.593 102.384 277.937 102.544L280.001 106H278.369ZM275.405 101.572H276.917C277.429 101.572 277.813 101.444 278.069 101.188C278.333 100.932 278.465 100.588 278.465 100.156C278.465 99.724 278.337 99.388 278.081 99.148C277.825 98.9 277.437 98.776 276.917 98.776H275.405V101.572ZM282.987 98.764V101.212H285.867V102.328H282.987V104.884H286.227V106H281.619V97.648H286.227V98.764H282.987ZM293.744 100.144C293.744 100.568 293.644 100.968 293.444 101.344C293.244 101.72 292.924 102.028 292.484 102.268C292.044 102.5 291.48 102.616 290.792 102.616H289.28V106H287.912V97.66H290.792C291.432 97.66 291.972 97.772 292.412 97.996C292.86 98.212 293.192 98.508 293.408 98.884C293.632 99.26 293.744 99.68 293.744 100.144ZM290.792 101.5C291.312 101.5 291.7 101.384 291.956 101.152C292.212 100.912 292.34 100.576 292.34 100.144C292.34 99.232 291.824 98.776 290.792 98.776H289.28V101.5H290.792ZM300.076 104.296H296.584L295.984 106H294.556L297.544 97.648H299.128L302.116 106H300.676L300.076 104.296ZM299.692 103.18L298.336 99.304L296.968 103.18H299.692ZM307.748 106L305.828 102.664H304.784V106H303.416V97.66H306.296C306.936 97.66 307.476 97.772 307.916 97.996C308.364 98.22 308.696 98.52 308.912 98.896C309.136 99.272 309.248 99.692 309.248 100.156C309.248 100.7 309.088 101.196 308.768 101.644C308.456 102.084 307.972 102.384 307.316 102.544L309.38 106H307.748ZM304.784 101.572H306.296C306.808 101.572 307.192 101.444 307.448 101.188C307.712 100.932 307.844 100.588 307.844 100.156C307.844 99.724 307.716 99.388 307.46 99.148C307.204 98.9 306.816 98.776 306.296 98.776H304.784V101.572ZM316.026 104.296H312.534L311.934 106H310.506L313.494 97.648H315.078L318.066 106H316.626L316.026 104.296ZM315.642 103.18L314.286 99.304L312.918 103.18H315.642ZM322.089 97.66C322.977 97.66 323.753 97.832 324.417 98.176C325.089 98.512 325.605 99 325.965 99.64C326.333 100.272 326.517 101.012 326.517 101.86C326.517 102.708 326.333 103.444 325.965 104.068C325.605 104.692 325.089 105.172 324.417 105.508C323.753 105.836 322.977 106 322.089 106H319.365V97.66H322.089ZM322.089 104.884C323.065 104.884 323.813 104.62 324.333 104.092C324.853 103.564 325.113 102.82 325.113 101.86C325.113 100.892 324.853 100.136 324.333 99.592C323.813 99.048 323.065 98.776 322.089 98.776H320.733V104.884H322.089ZM331.677 106.084C330.901 106.084 330.185 105.904 329.529 105.544C328.881 105.176 328.365 104.668 327.981 104.02C327.605 103.364 327.417 102.628 327.417 101.812C327.417 100.996 327.605 100.264 327.981 99.616C328.365 98.968 328.881 98.464 329.529 98.104C330.185 97.736 330.901 97.552 331.677 97.552C332.461 97.552 333.177 97.736 333.825 98.104C334.481 98.464 334.997 98.968 335.373 99.616C335.749 100.264 335.937 100.996 335.937 101.812C335.937 102.628 335.749 103.364 335.373 104.02C334.997 104.668 334.481 105.176 333.825 105.544C333.177 105.904 332.461 106.084 331.677 106.084ZM331.677 104.896C332.229 104.896 332.721 104.772 333.153 104.524C333.585 104.268 333.921 103.908 334.161 103.444C334.409 102.972 334.533 102.428 334.533 101.812C334.533 101.196 334.409 100.656 334.161 100.192C333.921 99.728 333.585 99.372 333.153 99.124C332.721 98.876 332.229 98.752 331.677 98.752C331.125 98.752 330.633 98.876 330.201 99.124C329.769 99.372 329.429 99.728 329.181 100.192C328.941 100.656 328.821 101.196 328.821 101.812C328.821 102.428 328.941 102.972 329.181 103.444C329.429 103.908 329.769 104.268 330.201 104.524C330.633 104.772 331.125 104.896 331.677 104.896ZM272.732 118.144C272.732 118.568 272.632 118.968 272.432 119.344C272.232 119.72 271.912 120.028 271.472 120.268C271.032 120.5 270.468 120.616 269.78 120.616H268.268V124H266.9V115.66H269.78C270.42 115.66 270.96 115.772 271.4 115.996C271.848 116.212 272.18 116.508 272.396 116.884C272.62 117.26 272.732 117.68 272.732 118.144ZM269.78 119.5C270.3 119.5 270.688 119.384 270.944 119.152C271.2 118.912 271.328 118.576 271.328 118.144C271.328 117.232 270.812 116.776 269.78 116.776H268.268V119.5H269.78ZM279.065 122.296H275.573L274.973 124H273.545L276.533 115.648H278.117L281.105 124H279.665L279.065 122.296ZM278.681 121.18L277.325 117.304L275.957 121.18H278.681ZM286.736 124L284.816 120.664H283.772V124H282.404V115.66H285.284C285.924 115.66 286.464 115.772 286.904 115.996C287.352 116.22 287.684 116.52 287.9 116.896C288.124 117.272 288.236 117.692 288.236 118.156C288.236 118.7 288.076 119.196 287.756 119.644C287.444 120.084 286.96 120.384 286.304 120.544L288.368 124H286.736ZM283.772 119.572H285.284C285.796 119.572 286.18 119.444 286.436 119.188C286.7 118.932 286.832 118.588 286.832 118.156C286.832 117.724 286.704 117.388 286.448 117.148C286.192 116.9 285.804 116.776 285.284 116.776H283.772V119.572ZM295.014 122.296H291.522L290.922 124H289.494L292.482 115.648H294.066L297.054 124H295.614L295.014 122.296ZM294.63 121.18L293.274 117.304L291.906 121.18H294.63ZM302.838 122.896H305.658V124H301.47V115.66H302.838V122.896ZM311.83 122.296H308.338L307.738 124H306.31L309.298 115.648H310.882L313.87 124H312.43L311.83 122.296ZM311.446 121.18L310.09 117.304L308.722 121.18H311.446ZM323.315 122.296H319.823L319.223 124H317.795L320.783 115.648H322.367L325.355 124H323.915L323.315 122.296ZM322.931 121.18L321.575 117.304L320.207 121.18H322.931ZM335.438 115.66V124H334.07V118.288L331.526 124H330.578L328.022 118.288V124H326.654V115.66H328.13L331.058 122.2L333.974 115.66H335.438ZM343.068 118.144C343.068 118.568 342.968 118.968 342.768 119.344C342.568 119.72 342.248 120.028 341.808 120.268C341.368 120.5 340.804 120.616 340.116 120.616H338.604V124H337.236V115.66H340.116C340.756 115.66 341.296 115.772 341.736 115.996C342.184 116.212 342.516 116.508 342.732 116.884C342.956 117.26 343.068 117.68 343.068 118.144ZM340.116 119.5C340.636 119.5 341.024 119.384 341.28 119.152C341.536 118.912 341.664 118.576 341.664 118.144C341.664 117.232 341.148 116.776 340.116 116.776H338.604V119.5H340.116ZM345.741 122.896H348.561V124H344.373V115.66H345.741V122.896ZM351.073 115.66V124H349.705V115.66H351.073ZM357.897 122.296H354.405L353.805 124H352.377L355.365 115.648H356.949L359.937 124H358.497L357.897 122.296ZM357.513 121.18L356.157 117.304L354.789 121.18H357.513ZM360.78 119.812C360.78 118.996 360.968 118.264 361.344 117.616C361.728 116.968 362.244 116.464 362.892 116.104C363.548 115.736 364.264 115.552 365.04 115.552C365.928 115.552 366.716 115.772 367.404 116.212C368.1 116.644 368.604 117.26 368.916 118.06H367.272C367.056 117.62 366.756 117.292 366.372 117.076C365.988 116.86 365.544 116.752 365.04 116.752C364.488 116.752 363.996 116.876 363.564 117.124C363.132 117.372 362.792 117.728 362.544 118.192C362.304 118.656 362.184 119.196 362.184 119.812C362.184 120.428 362.304 120.968 362.544 121.432C362.792 121.896 363.132 122.256 363.564 122.512C363.996 122.76 364.488 122.884 365.04 122.884C365.544 122.884 365.988 122.776 366.372 122.56C366.756 122.344 367.056 122.016 367.272 121.576H368.916C368.604 122.376 368.1 122.992 367.404 123.424C366.716 123.856 365.928 124.072 365.04 124.072C364.256 124.072 363.54 123.892 362.892 123.532C362.244 123.164 361.728 122.656 361.344 122.008C360.968 121.36 360.78 120.628 360.78 119.812ZM371.885 115.66V124H370.517V115.66H371.885ZM377.485 124.084C376.709 124.084 375.993 123.904 375.337 123.544C374.689 123.176 374.173 122.668 373.789 122.02C373.413 121.364 373.225 120.628 373.225 119.812C373.225 118.996 373.413 118.264 373.789 117.616C374.173 116.968 374.689 116.464 375.337 116.104C375.993 115.736 376.709 115.552 377.485 115.552C378.269 115.552 378.985 115.736 379.633 116.104C380.289 116.464 380.805 116.968 381.181 117.616C381.557 118.264 381.745 118.996 381.745 119.812C381.745 120.628 381.557 121.364 381.181 122.02C380.805 122.668 380.289 123.176 379.633 123.544C378.985 123.904 378.269 124.084 377.485 124.084ZM377.485 122.896C378.037 122.896 378.529 122.772 378.961 122.524C379.393 122.268 379.729 121.908 379.969 121.444C380.217 120.972 380.341 120.428 380.341 119.812C380.341 119.196 380.217 118.656 379.969 118.192C379.729 117.728 379.393 117.372 378.961 117.124C378.529 116.876 378.037 116.752 377.485 116.752C376.933 116.752 376.441 116.876 376.009 117.124C375.577 117.372 375.237 117.728 374.989 118.192C374.749 118.656 374.629 119.196 374.629 119.812C374.629 120.428 374.749 120.972 374.989 121.444C375.237 121.908 375.577 122.268 376.009 122.524C376.441 122.772 376.933 122.896 377.485 122.896ZM378.721 113.872L376.069 115.18V114.172L378.721 112.708V113.872ZM389.943 124H388.575L384.459 117.772V124H383.091V115.648H384.459L388.575 121.864V115.648H389.943V124Z" fill="#575756"/>
<g clip-path="url(#clip3)">
<path d="M221.676 134C234.005 134 244 123.735 244 111.072C244 98.4097 234.005 88.1447 221.676 88.1447C209.346 88.1447 199.351 98.4097 199.351 111.072C199.351 123.735 209.346 134 221.676 134Z" fill="#EE7768"/>
<path d="M196 108.552C197.256 96.62 203.406 91.0999 208.343 88.5721C213.639 85.86 218.647 85.9926 218.855 86L218.683 91.579C218.059 91.5642 203.276 91.3947 201.403 109.156L196 108.552Z" fill="#103E68"/>
<path d="M233.803 114.868L224.28 105.265C223.462 104.439 222.135 104.439 221.317 105.265L211.801 114.868C211.543 115.126 211.536 115.553 211.794 115.818C212.045 116.084 212.462 116.091 212.72 115.826L213.459 115.081V122.754C213.459 124.368 214.744 125.687 216.315 125.687H229.282C230.854 125.687 232.138 124.368 232.138 122.754V115.081L232.877 115.826C233.006 115.951 233.171 116.017 233.337 116.017C233.509 116.017 233.674 115.951 233.803 115.818C234.068 115.561 234.061 115.133 233.803 114.868ZM230.832 122.754C230.832 123.631 230.143 124.338 229.289 124.338H216.322C215.468 124.338 214.779 123.631 214.779 122.754V113.762L222.25 106.223C222.329 106.142 222.415 106.083 222.515 106.046C222.781 105.935 223.089 105.98 223.312 106.164C223.333 106.179 223.355 106.201 223.369 106.216L230.839 113.755L230.832 122.754Z" fill="white"/>
<path d="M212.426 109.156C215.981 109.156 218.863 106.196 218.863 102.545C218.863 98.8943 215.981 95.9346 212.426 95.9346C208.871 95.9346 205.989 98.8943 205.989 102.545C205.989 106.196 208.871 109.156 212.426 109.156Z" fill="white"/>
<path d="M212.785 100.253H212.067V105.899H212.785V100.253Z" fill="#EE7768"/>
<path d="M209.491 102.693L210.015 103.194L212.419 100.533L214.83 103.194L215.354 102.693L212.419 99.4501L209.491 102.693Z" fill="#EE7768"/>
</g>
<defs>
<clipPath id="clip0">
<rect width="48" height="48" fill="white" transform="translate(0 87)"/>
</clipPath>
<clipPath id="clip1">
<rect width="48" height="48" fill="white"/>
</clipPath>
<clipPath id="clip2">
<rect width="48" height="48" fill="white" transform="translate(204)"/>
</clipPath>
<clipPath id="clip3">
<rect width="48" height="48" fill="white" transform="translate(196 86)"/>
</clipPath>
</defs>
</svg>
