<svg width="68" height="70" viewBox="0 0 68 70" fill="none" xmlns="http://www.w3.org/2000/svg">
<g clip-path="url(#clip0)">
<path d="M33.7002 65.78C50.5228 65.78 64.1602 52.1426 64.1602 35.32C64.1602 18.4974 50.5228 4.85999 33.7002 4.85999C16.8776 4.85999 3.24023 18.4974 3.24023 35.32C3.24023 52.1426 16.8776 65.78 33.7002 65.78Z" fill="#E3D6C7"/>
<path d="M0 29.9199C1.72 14.0899 10.09 6.76994 16.82 3.40994C24.04 -0.190058 30.86 -0.0100585 31.15 -5.84726e-05L30.92 7.39994C30.06 7.37994 9.92 7.14994 7.37 30.7099L0 29.9199Z" fill="#FF6F61"/>
<path d="M67.4501 39.0899C65.7401 54.9199 57.3601 62.2399 50.6401 65.5999C43.4201 69.1999 36.5901 69.0199 36.3101 69.0099L36.5401 61.6099C37.4001 61.6299 57.5401 61.8599 60.0901 38.2999L67.4501 39.0899Z" fill="#FF6F61"/>
<path d="M49.9701 17.85H40.2101C39.8701 17.85 39.6001 18.12 39.6001 18.46C39.6001 18.8 39.8701 19.07 40.2101 19.07H42.9001V24.36H31.0801V19.07H38.1801C38.5201 19.07 38.7901 18.8 38.7901 18.46C38.7901 18.12 38.5201 17.85 38.1801 17.85H17.4201C17.0801 17.85 16.8101 18.12 16.8101 18.46V24.97V31.48V38V44.51V51.02C16.8101 51.36 17.0801 51.63 17.4201 51.63H49.9701C50.3101 51.63 50.5801 51.36 50.5801 51.02V18.47C50.5801 18.13 50.3101 17.85 49.9701 17.85ZM37.5401 25.59H49.3601V30.88H41.4401C41.1001 30.88 40.8301 31.15 40.8301 31.49C40.8301 31.83 41.1001 32.1 41.4401 32.1H42.9001V37.39H31.0801V32.1H39.4001C39.7401 32.1 40.0101 31.83 40.0101 31.49C40.0101 31.15 39.7401 30.88 39.4001 30.88H37.5401V25.59ZM49.3601 38.61V43.9H37.5401V38.61H49.3601ZM36.3201 25.59V30.88H24.4901V25.59H36.3201ZM18.0301 19.08H29.8501V24.37H18.0301V19.08ZM18.0301 25.59H23.2701V30.88H18.0301V25.59ZM18.0301 32.1H29.8501V37.39H18.0301V32.1ZM18.0301 38.61H23.2701V43.9H18.0301V38.61ZM29.8601 50.41H18.0301V45.12H26.8501C27.1901 45.12 27.4601 44.85 27.4601 44.51C27.4601 44.17 27.1901 43.9 26.8501 43.9H24.4901V38.61H36.3101V43.9H28.8801C28.5401 43.9 28.2701 44.17 28.2701 44.51C28.2701 44.85 28.5401 45.12 28.8801 45.12H29.8501V50.41H29.8601ZM42.9001 50.41H31.0801V45.12H42.9001V50.41ZM49.3601 50.41H44.1201V45.12H49.3601V50.41ZM49.3601 37.39H44.1201V32.1H49.3601V37.39ZM49.3601 24.37H44.1201V19.08H49.3601V24.37Z" fill="#0D3E69"/>
</g>
<defs>
<clipPath id="clip0">
<rect width="67.45" height="69.01" fill="white"/>
</clipPath>
</defs>
</svg>
