<svg width="68" height="70" viewBox="0 0 68 70" fill="none" xmlns="http://www.w3.org/2000/svg">
<g clip-path="url(#clip0)">
<path d="M34 65.78C50.8226 65.78 64.46 52.1426 64.46 35.32C64.46 18.4974 50.8226 4.85999 34 4.85999C17.1774 4.85999 3.54004 18.4974 3.54004 35.32C3.54004 52.1426 17.1774 65.78 34 65.78Z" fill="#E3D6C7"/>
<path d="M33.1899 48.2599H21.2399C20.7999 48.2599 20.4399 47.8999 20.4399 47.4599V43.2999C20.4399 42.8599 20.7999 42.4999 21.2399 42.4999H33.1899C33.6299 42.4999 33.9899 42.8599 33.9899 43.2999V47.4599C33.9999 47.8999 33.6399 48.2599 33.1899 48.2599ZM22.0399 46.6499H32.3899V44.0999H22.0399V46.6499Z" fill="#0D3E69"/>
<path d="M57.9801 19.5699C57.9801 19.3599 57.8901 19.1499 57.7401 19.0099L54.6901 16.0599C54.3701 15.7499 53.8601 15.7599 53.5501 16.0799L37.6001 32.5499V23.9499C37.6001 21.5099 35.6101 19.5199 33.1701 19.5199H21.2601C18.8201 19.5199 16.8301 21.5099 16.8301 23.9499V51.8499C16.8301 52.2899 17.1901 52.6499 17.6301 52.6499H42.6701C43.1101 52.6499 43.4701 52.2899 43.4701 51.8499C43.4701 51.4099 43.1101 51.0499 42.6701 51.0499H37.6001V36.4499C37.6001 35.3099 38.5001 34.3699 39.6301 34.3199C39.6401 34.3199 39.6501 34.3199 39.6601 34.3199C39.6901 34.3199 39.7101 34.3199 39.7401 34.3199C40.9201 34.3199 41.8701 35.2799 41.8701 36.4499V44.5399C41.8701 44.9799 42.2301 45.3399 42.6701 45.3399C43.1101 45.3399 43.4701 44.9799 43.4701 44.5399V36.4499C43.4701 35.9899 43.3901 35.5499 43.2401 35.1499L57.7501 20.1499C57.9101 19.9899 57.9901 19.7799 57.9801 19.5699ZM49.9501 25.8899L48.7101 27.1799L49.7801 22.2699L51.6001 20.3899L50.5201 25.2999L49.9501 25.8899ZM43.7501 32.2999L44.8301 27.3899L47.6601 24.4699L46.5801 29.3799L43.7501 32.2999ZM18.4301 23.9499C18.4301 22.3899 19.7001 21.1299 21.2501 21.1299H33.1701C34.7301 21.1299 35.9901 22.3999 35.9901 23.9499V38.0799H34.3801V23.5399C34.3801 23.0999 34.0201 22.7399 33.5801 22.7399H20.8501C20.4101 22.7399 20.0501 23.0999 20.0501 23.5399V38.0799H18.4401V23.9499H18.4301ZM32.7801 38.0899H21.6501V24.3499H32.7801V38.0899ZM18.4301 39.6999H36.0001V51.0599H18.4301V39.6999ZM40.5901 32.7999L40.8801 31.4699L42.7001 29.5899L41.8701 33.3799C41.4901 33.1099 41.0601 32.9099 40.5901 32.7999ZM52.6601 23.0999L53.7401 18.1899L54.1501 17.7699L56.0501 19.6099L52.6601 23.0999Z" fill="#0D3E69"/>
<path d="M39.7399 39.3898C39.2999 39.3898 38.9399 39.0298 38.9399 38.5898V37.2498C38.9399 36.8098 39.2999 36.4498 39.7399 36.4498C40.1799 36.4498 40.5399 36.8098 40.5399 37.2498V38.5898C40.5399 39.0298 40.1799 39.3898 39.7399 39.3898Z" fill="#0D3E69"/>
<path d="M42.6699 49.0899C42.6199 49.0899 42.5599 49.0799 42.5099 49.0699C42.4599 49.0599 42.4099 49.0399 42.3599 49.0199C42.3099 48.9999 42.2599 48.9799 42.2199 48.9499C42.1799 48.9199 42.1299 48.8899 42.0999 48.8499C42.0699 48.8099 42.0299 48.7699 41.9999 48.7299C41.9699 48.6899 41.9499 48.6399 41.9299 48.5899C41.9099 48.5399 41.8899 48.4899 41.8799 48.4399C41.8699 48.3899 41.8599 48.3399 41.8599 48.2799C41.8599 48.2199 41.8699 48.1699 41.8799 48.1199C41.8899 48.0699 41.9099 48.0199 41.9299 47.9699C41.9499 47.9199 41.9699 47.8799 41.9999 47.8299C42.0299 47.7899 42.0599 47.7499 42.0999 47.7099C42.1399 47.6699 42.1799 47.6399 42.2199 47.6099C42.2599 47.5799 42.3099 47.5599 42.3599 47.5399C42.4099 47.5199 42.4599 47.4999 42.5099 47.4899C42.7699 47.4399 43.0499 47.5199 43.2399 47.7099C43.2799 47.7499 43.3099 47.7899 43.3399 47.8299C43.3699 47.8699 43.3899 47.9199 43.4099 47.9699C43.4299 48.0199 43.4499 48.0699 43.4599 48.1199C43.4699 48.1699 43.4799 48.2299 43.4799 48.2799C43.4799 48.3299 43.4699 48.3899 43.4599 48.4399C43.4499 48.4899 43.4299 48.5399 43.4099 48.5899C43.3899 48.6399 43.3699 48.6899 43.3399 48.7299C43.3099 48.7699 43.2799 48.8199 43.2399 48.8499C43.1999 48.8799 43.1599 48.9199 43.1199 48.9499C43.0799 48.9799 43.0299 48.9999 42.9799 49.0199C42.9299 49.0399 42.8799 49.0599 42.8299 49.0699C42.7799 49.0899 42.7299 49.0899 42.6699 49.0899Z" fill="#0D3E69"/>
<path d="M0 29.9199C1.72 14.0899 10.09 6.76994 16.82 3.40994C24.04 -0.190058 30.86 -0.0100585 31.15 -5.84726e-05L30.92 7.39994C30.06 7.37994 9.92 7.14994 7.37 30.7099L0 29.9199Z" fill="#FF6F61"/>
<path d="M67.4501 39.0899C65.7401 54.9199 57.3601 62.2399 50.6401 65.5999C43.4201 69.1999 36.5901 69.0199 36.3101 69.0099L36.5401 61.6099C37.4001 61.6299 57.5401 61.8599 60.0901 38.2999L67.4501 39.0899Z" fill="#FF6F61"/>
</g>
<defs>
<clipPath id="clip0">
<rect width="67.45" height="69.01" fill="white"/>
</clipPath>
</defs>
</svg>
