<svg width="68" height="70" viewBox="0 0 68 70" fill="none" xmlns="http://www.w3.org/2000/svg">
<g clip-path="url(#clip0)">
<path d="M34.4302 65.78C51.2528 65.78 64.8902 52.1426 64.8902 35.32C64.8902 18.4974 51.2528 4.85999 34.4302 4.85999C17.6076 4.85999 3.97021 18.4974 3.97021 35.32C3.97021 52.1426 17.6076 65.78 34.4302 65.78Z" fill="#E3D6C7"/>
<path d="M0 29.9199C1.72 14.0899 10.09 6.76994 16.82 3.40994C24.04 -0.190058 30.86 -0.0100585 31.15 -5.84726e-05L30.92 7.39994C30.06 7.37994 9.92 7.14994 7.37 30.7099L0 29.9199Z" fill="#FF6F61"/>
<path d="M67.4501 39.0899C65.7401 54.9199 57.3601 62.2399 50.6401 65.5999C43.4201 69.1999 36.5901 69.0199 36.3101 69.0099L36.5401 61.6099C37.4001 61.6299 57.5401 61.8599 60.0901 38.2999L67.4501 39.0899Z" fill="#FF6F61"/>
<path d="M33.7301 17.47C26.7501 17.47 21.0601 23.19 21.0601 30.23C21.0601 40.23 32.5301 50.55 33.0201 50.98C33.2201 51.16 33.4701 51.25 33.7201 51.25C33.9701 51.25 34.2201 51.16 34.4201 50.98C34.9101 50.55 46.3801 40.22 46.3801 30.23C46.3901 23.2 40.7101 17.47 33.7301 17.47ZM33.7301 37.18C29.8501 37.18 26.6901 34.02 26.6901 30.14C26.6901 26.26 29.8501 23.1 33.7301 23.1C37.6101 23.1 40.7701 26.26 40.7701 30.14C40.7701 34.02 37.6101 37.18 33.7301 37.18Z" fill="#0D3E69"/>
</g>
<defs>
<clipPath id="clip0">
<rect width="67.45" height="69.01" fill="white"/>
</clipPath>
</defs>
</svg>
