<svg width="68" height="70" viewBox="0 0 68 70" fill="none" xmlns="http://www.w3.org/2000/svg">
<g clip-path="url(#clip0)">
<path d="M36.2998 65.78C53.1224 65.78 66.7598 52.1426 66.7598 35.32C66.7598 18.4974 53.1224 4.85999 36.2998 4.85999C19.4772 4.85999 5.83984 18.4974 5.83984 35.32C5.83984 52.1426 19.4772 65.78 36.2998 65.78Z" fill="#E3D6C7"/>
<path d="M52.61 31.34L49.3 28.32V18.32C49.3 17.68 48.78 17.17 48.15 17.17H40.18C39.54 17.17 39.03 17.69 39.03 18.32V18.96L35.03 15.32C34.26 14.62 33.1 14.62 32.32 15.32L14.75 31.34C14.13 31.9 13.93 32.77 14.23 33.55C14.53 34.33 15.27 34.83 16.1 34.83H18.91V50.88C18.91 51.52 19.43 52.03 20.06 52.03H29.69C30.33 52.03 30.84 51.51 30.84 50.88V41.14H36.5V50.88C36.5 51.52 37.02 52.03 37.65 52.03H47.28C47.92 52.03 48.43 51.51 48.43 50.88V34.83H51.24C52.08 34.83 52.81 34.33 53.11 33.55C53.43 32.77 53.23 31.9 52.61 31.34ZM47.3 32.53C46.66 32.53 46.15 33.05 46.15 33.68V49.73H38.82V39.99C38.82 39.35 38.3 38.84 37.67 38.84H29.7C29.06 38.84 28.55 39.36 28.55 39.99V49.73H21.22V33.68C21.22 33.04 20.7 32.53 20.07 32.53H16.87L33.68 17.2L39.41 22.42C39.75 22.73 40.23 22.81 40.65 22.62C41.07 22.44 41.34 22.02 41.34 21.57V19.47H47V28.83C47 29.15 47.14 29.46 47.38 29.68L50.5 32.52H47.3V32.53Z" fill="#0D3E69"/>
<path d="M0 29.9199C1.72 14.0899 10.09 6.76994 16.82 3.40994C24.04 -0.190058 30.86 -0.0100585 31.15 -5.84726e-05L30.92 7.39994C30.06 7.37994 9.92 7.14994 7.37 30.7099L0 29.9199Z" fill="#FF6F61"/>
<path d="M67.4501 39.09C65.7401 54.92 57.3601 62.24 50.6401 65.6C43.4201 69.2 36.5901 69.0201 36.3101 69.0101L36.5401 61.6101C37.4001 61.6301 57.5401 61.86 60.0901 38.3L67.4501 39.09Z" fill="#FF6F61"/>
</g>
<defs>
<clipPath id="clip0">
<rect width="67.45" height="69.01" fill="white"/>
</clipPath>
</defs>
</svg>
