<svg width="48" height="48" viewBox="0 0 48 48" fill="none" xmlns="http://www.w3.org/2000/svg">
<g clip-path="url(#clip0)">
<path d="M25.6787 48C38.0064 48 47.9999 37.7375 47.9999 25.0781C47.9999 12.4187 38.0064 2.15625 25.6787 2.15625C13.351 2.15625 3.35742 12.4187 3.35742 25.0781C3.35742 37.7375 13.351 48 25.6787 48Z" fill="#EE7768"/>
<path d="M0 22.5514C1.25769 10.6244 7.40396 5.09889 12.3363 2.57198C17.6405 -0.145846 22.6493 0.000153428 22.8571 0.000153428L22.6931 5.58181C22.0588 5.57058 7.28366 5.40212 5.4026 23.1466L0 22.5514Z" fill="#103E68"/>
<path d="M23.7977 24.1348H13.3315V18.6429H23.7977V24.1348ZM13.9549 23.4946H23.1634V19.2943H13.9549V23.4946Z" fill="white"/>
<path d="M29.6595 28.9864H19.1934V23.4946H29.6595V28.9864ZM19.8167 28.3463H29.0252V24.146H19.8167V28.3463Z" fill="white"/>
<path d="M39.4916 28.9864H29.0254V23.4946H39.4916V28.9864ZM29.6597 28.3463H38.8682V24.146H29.6597V28.3463Z" fill="white"/>
<path d="M19.8168 28.9864H9.36157V23.4946H19.8277V28.9864H19.8168ZM9.98495 28.3463H19.1934V24.146H9.98495V28.3463Z" fill="white"/>
<path d="M31.7484 34.029H21.2822V28.5372H31.7484V34.029ZM21.9165 33.3889H31.125V29.1886H21.9165V33.3889Z" fill="white"/>
<path d="M41.5912 34.029H31.125V28.5372H41.5912V34.029ZM31.7484 33.3889H40.9569V29.1886H31.7484V33.3889Z" fill="white"/>
<path d="M21.9166 34.029H11.4504V28.5372H21.9166V34.029ZM12.0848 33.3889H21.2932V29.1886H12.0848V33.3889Z" fill="white"/>
<path d="M33.6295 24.1348H23.1633V18.6429H33.6295V24.1348ZM23.7976 23.4946H33.0061V19.2943H23.7976V23.4946Z" fill="white"/>
</g>
<defs>
<clipPath id="clip0">
<rect width="48" height="48" fill="white"/>
</clipPath>
</defs>
</svg>
