<svg width="48" height="48" viewBox="0 0 48 48" fill="none" xmlns="http://www.w3.org/2000/svg">
<g clip-path="url(#clip0)">
<path d="M25.6787 48C38.0064 48 47.9999 37.7375 47.9999 25.0781C47.9999 12.4187 38.0064 2.15625 25.6787 2.15625C13.351 2.15625 3.35742 12.4187 3.35742 25.0781C3.35742 37.7375 13.351 48 25.6787 48Z" fill="#EE7768"/>
<path d="M0 22.5514C1.25769 10.6244 7.40396 5.09889 12.3363 2.57198C17.6405 -0.145846 22.6493 0.000153428 22.8571 0.000153428L22.6931 5.58181C22.0588 5.57058 7.28366 5.40212 5.4026 23.1466L0 22.5514Z" fill="#103E68"/>
<path d="M31.0048 37.4656H14.7095V20.743H30.9938V37.4656H31.0048ZM16.6015 35.5339H29.1237V22.6747H16.6015V35.5339Z" fill="white"/>
<path d="M38.2011 30.0646H21.9167V13.342H38.2011V30.0646ZM23.7978 28.1329H36.32V15.2737H23.7978V28.1329Z" fill="white"/>
</g>
<defs>
<clipPath id="clip0">
<rect width="48" height="48" fill="white"/>
</clipPath>
</defs>
</svg>
