<svg width="383" height="103" viewBox="0 0 383 103" fill="none" xmlns="http://www.w3.org/2000/svg">
<g clip-path="url(#clip0)">
<path d="M287.809 8.62C290.73 8.62 293.089 10.9266 293.089 13.9226C293.089 16.8565 290.725 19.1631 287.809 19.1631C284.887 19.1631 282.523 16.8513 282.523 13.9226C282.528 10.9266 284.887 8.62 287.809 8.62Z" fill="#FAF7F2"/>
<path d="M13.8132 44.8424C16.5077 43.8368 18.588 42.0641 21.0193 39.5086L21.0296 39.5242C21.7678 38.7518 22.5575 37.8862 23.4299 36.9221L23.4144 36.9065C23.5538 36.7562 23.6932 36.6007 23.8325 36.4452C24.421 35.7921 25.0456 35.1027 25.7166 34.3718C26.429 33.5891 27.1826 32.765 27.9518 31.9097L27.9569 31.9149C29.6397 30.0178 31.2709 28.1465 32.6904 26.265C37.5478 19.9152 41.2231 12.6325 37.7078 6.18952C34.6623 0.627695 28.7364 -0.751098 24.2042 0.352973C18.8564 1.6592 15.3102 6.0081 15.176 11.43C15.0263 17.505 18.1234 20.9623 23.2647 26.5863C24.0545 25.6896 24.8288 24.7929 25.5721 23.8909C20.916 18.7956 18.5725 16.0899 18.6861 11.5181C18.8048 6.92557 22.0413 4.51009 25.0353 3.77922C25.7115 3.61335 26.4496 3.52005 27.2239 3.52005C29.8668 3.52005 32.8453 4.63449 34.621 7.8845C37.0522 12.3371 34.5952 17.7797 30.3727 23.44C28.0447 26.5189 25.4689 29.4372 23.2234 31.8942C22.5524 32.625 21.9329 33.3144 21.3393 33.9675C19.7494 35.7299 18.3815 37.2383 17.0652 38.503C17.0601 38.503 17.0601 38.4979 17.0601 38.4979C15.5425 39.944 14.1694 40.9444 12.5898 41.5354C9.69916 42.6083 5.73996 42.5513 4.06233 38.8451C3.11253 36.7407 3.4016 34.5533 4.85726 32.8479C6.06516 31.4277 7.80473 30.6605 9.6527 30.6605C10.2618 30.6605 10.8864 30.7434 11.5058 30.9197C13.0028 31.3344 14.7579 32.7702 16.2909 34.2734C17.0239 33.4958 17.8034 32.6354 18.6706 31.6765C16.7039 29.7534 14.5565 28.1103 12.4453 27.5245C8.62031 26.4567 4.69208 27.623 2.18854 30.562C-0.154973 33.3144 -0.650519 36.9584 0.86709 40.3121C3.02994 45.0964 8.23317 46.9209 13.8132 44.8424Z" fill="#FAF7F2"/>
<path d="M58.0357 47.2832L62.5317 42.1775C61.7781 41.3844 60.9832 40.5188 60.1314 39.5806L53.3435 47.2832L60.1418 55.0065C60.9935 54.0631 61.7884 53.1974 62.5421 52.4044L58.0357 47.2832Z" fill="#FAF7F2"/>
<path d="M53.2918 26.3681C54.6855 28.2134 56.296 30.0483 57.9478 31.9092V31.904C58.717 32.7644 59.4706 33.5834 60.1881 34.3661C60.854 35.097 61.4786 35.7864 62.0671 36.4395C62.2064 36.595 62.3458 36.7505 62.4852 36.9008L62.4697 36.9163C63.3421 37.8805 64.1318 38.7461 64.8648 39.5236L64.8803 39.5081C67.3116 42.0635 69.3918 43.8362 72.0864 44.8418C77.6613 46.9204 82.8645 45.0958 85.0325 40.3011C86.5501 36.9474 86.0546 33.3035 83.7059 30.5511C81.2024 27.6121 77.2741 26.451 73.4491 27.5136C71.3327 28.1045 69.1854 29.7477 67.2238 31.6655C67.229 31.6759 67.2393 31.6863 67.2496 31.6914C68.1065 32.64 68.8808 33.4901 69.6035 34.2624C71.1366 32.7592 72.8968 31.3286 74.3938 30.9087C76.887 30.2142 79.437 30.9502 81.0423 32.8422C82.498 34.5475 82.7871 36.7349 81.8373 38.8394C80.1648 42.5456 76.1953 42.6026 73.3098 41.5296C71.7663 40.9542 70.4191 39.9798 68.9376 38.5802C68.9324 38.5854 68.9273 38.5906 68.9221 38.5958C67.6058 37.331 66.2379 35.8226 64.648 34.0603C64.0596 33.4072 63.435 32.7126 62.7639 31.9869C60.5185 29.5351 57.9375 26.622 55.6146 23.5431L55.6095 23.5379C51.3354 17.8361 48.837 12.3521 51.2786 7.87357C53.0543 4.62356 56.0328 3.50912 58.6757 3.50912C59.4448 3.50912 60.1881 3.60242 60.8643 3.76829C63.8531 4.49916 67.0948 6.91464 67.2083 11.5072C67.3219 16.0789 64.9836 18.7795 60.3275 23.8748C61.0708 24.7716 61.8399 25.6735 62.6297 26.5702C67.771 20.9462 70.8682 17.494 70.7185 11.4139C70.5843 5.9868 67.038 1.64309 61.6902 0.33686C57.1581 -0.767211 51.2322 0.611582 48.1969 6.17341C44.6662 12.6682 48.3983 19.9976 53.2918 26.3681Z" fill="#FAF7F2"/>
<path d="M55.6817 59.9203L45.2288 47.2831L55.6662 34.6615C54.892 33.801 54.1073 32.9043 53.3176 31.9764L42.9524 44.5203L32.5821 31.9816C31.7923 32.9095 31.0025 33.801 30.2334 34.6615L40.676 47.2831L30.2334 59.9048C31.0077 60.7652 31.7975 61.6568 32.5821 62.5846L42.9524 50.0511L53.3331 62.6053C54.1228 61.6775 54.9074 60.7808 55.6817 59.9203ZM42.9524 47.2935L42.9421 47.2883L42.9524 47.2831L42.9576 47.2883L42.9524 47.2935Z" fill="#FAF7F2"/>
<path d="M72.0863 49.7246C69.4331 50.7146 67.3735 52.4562 64.9835 54.9547C64.1627 55.8203 63.2852 56.7844 62.2838 57.8885C61.6902 58.5468 61.0604 59.2465 60.3842 59.9826C57.8652 62.735 55.3565 65.4615 53.2917 68.1983C48.393 74.574 44.6609 81.9033 48.1917 88.3774C50.5972 92.7885 54.8196 94.5665 58.7221 94.5665C59.7441 94.5665 60.7455 94.4472 61.685 94.214C67.0328 92.9129 70.579 88.564 70.7132 83.137C70.8629 77.0672 67.7709 73.615 62.64 68.0014C61.8502 68.9033 61.0759 69.8 60.3377 70.7019C64.9835 75.7869 67.3115 78.4874 67.2031 83.054C67.0896 87.6466 63.8479 90.062 60.8591 90.7929C57.8703 91.5238 53.5653 90.8862 51.2734 86.6876C48.8266 82.2092 51.3302 76.7251 55.6042 71.0233V71.0181C57.7052 68.2346 60.028 65.6014 62.1186 63.3104C62.3354 63.0719 62.5522 62.8283 62.769 62.5847C63.4401 61.8486 64.0698 61.154 64.6634 60.4957C64.7099 60.4439 64.7564 60.3921 64.8028 60.3402L64.808 60.3454C65.6597 59.402 66.4391 58.5312 67.1928 57.733C67.1463 57.6863 67.198 57.7382 67.1928 57.733C69.4279 55.3641 71.1726 53.8299 73.2994 53.0368C76.1849 51.9638 80.1492 52.0208 81.8217 55.727C82.7715 57.8315 82.4824 60.0189 81.0268 61.7242C79.4214 63.611 76.8714 64.347 74.3782 63.6576C72.8864 63.243 71.1313 61.8175 69.6034 60.3195C68.8756 61.0918 68.1065 61.9419 67.2496 62.8957C67.2444 62.906 67.2341 62.9112 67.2238 62.9216C69.1853 64.8395 71.3275 66.4722 73.4336 67.0632C77.2586 68.1309 81.1868 66.9647 83.6903 64.0257C86.0339 61.2733 86.5294 57.6293 85.0118 54.2756C82.8696 49.4706 77.6612 47.646 72.0863 49.7246Z" fill="#FAF7F2"/>
<path d="M25.7683 39.5806C24.9165 40.524 24.1216 41.3896 23.3628 42.1775L27.864 47.2883L23.3628 52.3992C24.1216 53.1871 24.9165 54.0527 25.7683 54.9961L32.5562 47.2883L25.7683 39.5806Z" fill="#FAF7F2"/>
<path d="M32.6853 68.3073C31.2658 66.4257 29.6346 64.5597 27.9518 62.6573L27.9467 62.6625C27.1775 61.8021 26.4239 60.9831 25.7115 60.2004C25.0405 59.4695 24.4159 58.7801 23.8274 58.127C23.6881 57.9715 23.5487 57.816 23.4093 57.6657L23.4196 57.6501C22.5473 56.686 21.7575 55.8204 21.0194 55.0481L21.009 55.0584C18.5778 52.503 16.4975 50.7303 13.803 49.7247C8.22292 47.6461 3.02485 49.4707 0.856836 54.2654C-0.660773 57.619 -0.165227 61.263 2.17829 64.0154C4.68183 66.9544 8.61522 68.1155 12.4351 67.0529C14.5514 66.462 16.6988 64.8188 18.6603 62.901C17.7931 61.942 17.0137 61.0816 16.2807 60.3041C14.7528 61.8021 12.9925 63.2379 11.4956 63.6577C9.00237 64.3523 6.45237 63.6111 4.84701 61.7243C3.39135 60.019 3.10228 57.8264 4.05207 55.7271C5.15156 53.2961 7.23699 52.4356 9.35854 52.4356C10.4684 52.4356 11.5833 52.6689 12.5796 53.0421C14.1591 53.633 15.5322 54.6282 17.0498 56.0796L17.055 56.0744C18.3713 57.3391 19.734 58.8475 21.3291 60.6099C21.9227 61.263 22.5421 61.9524 23.2132 62.6833C25.4586 65.135 28.0344 68.0585 30.3624 71.1374C34.5849 76.8029 37.042 82.2455 34.6107 86.6929C32.324 90.8915 28.0189 91.529 25.0302 90.7982C22.0363 90.0673 18.7997 87.6518 18.6862 83.0645C18.5726 78.4927 20.9109 75.787 25.567 70.6917C24.8237 69.7949 24.0494 68.8982 23.2596 67.9963C18.1183 73.6203 15.016 77.0725 15.1709 83.1526C15.3051 88.5797 18.8462 92.9234 24.1991 94.2296C25.1386 94.4577 26.14 94.5821 27.1621 94.5821C31.0645 94.5821 35.2869 92.8042 37.6924 88.3931C41.2128 81.9397 37.5427 74.6518 32.6853 68.3073Z" fill="#FAF7F2"/>
<path d="M106.48 21.9621V9.11756H108.685V10.4601C108.994 9.55815 110.114 8.91541 111.637 8.91541C112.938 8.91541 114.043 9.37673 114.92 10.3149C115.818 11.2376 116.257 12.3779 116.257 13.7619C116.257 15.1407 115.818 16.2862 114.92 17.2244C114.038 18.1471 112.938 18.6084 111.637 18.6084C110.114 18.6084 108.994 17.9657 108.685 17.0638V21.9621H106.48ZM113.284 15.7886C113.816 15.2547 114.074 14.5705 114.074 13.7619C114.074 12.9481 113.816 12.2691 113.284 11.7352C112.768 11.2013 112.128 10.9214 111.338 10.9214C110.548 10.9214 109.872 11.1961 109.32 11.7352C108.788 12.2691 108.509 12.9533 108.509 13.7619C108.509 14.5705 108.783 15.2547 109.32 15.7886C109.872 16.3225 110.548 16.5973 111.338 16.5973C112.128 16.5973 112.773 16.3225 113.284 15.7886Z" fill="#FAF7F2"/>
<path d="M119.979 18.4063V9.11758H122.163V10.5016C122.601 9.52707 123.613 8.93616 124.914 8.93616C125.172 8.93616 125.389 8.95171 125.575 8.99318V11.1287C125.301 11.0717 124.986 11.0354 124.656 11.0354C123.133 11.0354 122.163 11.9944 122.163 13.5235V18.4063H119.979Z" fill="#FAF7F2"/>
<path d="M129.105 6.72285C129.105 5.9868 129.694 5.41663 130.427 5.41663C131.139 5.41663 131.727 5.9868 131.727 6.72285C131.727 7.4589 131.139 8.02908 130.427 8.02908C129.694 8.03426 129.105 7.4589 129.105 6.72285ZM129.327 9.1176H131.526V18.4011H129.327V9.1176Z" fill="#FAF7F2"/>
<path d="M138.794 18.4064L134.83 9.11768H137.101L139.729 15.4207L142.335 9.11768H144.607L140.647 18.4064H138.794Z" fill="#FAF7F2"/>
<path d="M154.564 10.4653V9.12274H156.768V18.4063H154.564V17.0638C154.249 17.9657 153.134 18.6084 151.611 18.6084C150.31 18.6084 149.206 18.1471 148.308 17.2244C147.425 16.2862 146.986 15.1407 146.986 13.7619C146.986 12.3779 147.425 11.2376 148.308 10.3149C149.206 9.37673 150.305 8.91541 151.611 8.91541C153.134 8.91541 154.254 9.56333 154.564 10.4653ZM153.903 15.7886C154.455 15.2547 154.729 14.5705 154.729 13.7619C154.729 12.9481 154.455 12.2691 153.903 11.7352C153.371 11.2013 152.695 10.9214 151.905 10.9214C151.116 10.9214 150.476 11.1961 149.944 11.7352C149.428 12.2691 149.175 12.9533 149.175 13.7619C149.175 14.5705 149.428 15.2547 149.944 15.7886C150.476 16.3225 151.116 16.5973 151.905 16.5973C152.695 16.5973 153.371 16.3225 153.903 15.7886Z" fill="#FAF7F2"/>
<path d="M168.042 10.4652V5.56689H170.246V18.4063H168.042V17.0638C167.732 17.9657 166.612 18.6084 165.089 18.6084C163.788 18.6084 162.684 18.1471 161.785 17.2244C160.903 16.2862 160.464 15.1407 160.464 13.7619C160.464 12.3779 160.903 11.2376 161.785 10.3149C162.684 9.37672 163.783 8.91539 165.089 8.91539C166.612 8.91539 167.732 9.56332 168.042 10.4652ZM167.381 15.7886C167.933 15.2547 168.207 14.5705 168.207 13.7619C168.207 12.9481 167.933 12.2691 167.381 11.7352C166.849 11.2013 166.173 10.9214 165.383 10.9214C164.593 10.9214 163.953 11.1961 163.422 11.7352C162.905 12.2691 162.653 12.9533 162.653 13.7619C162.653 14.5705 162.905 15.2547 163.422 15.7886C163.953 16.3225 164.593 16.5972 165.383 16.5972C166.173 16.5972 166.849 16.3225 167.381 15.7886Z" fill="#FAF7F2"/>
<path d="M181.54 10.4653V9.12274H183.744V18.4063H181.54V17.0638C181.225 17.9657 180.11 18.6084 178.587 18.6084C177.287 18.6084 176.182 18.1471 175.284 17.2244C174.401 16.2862 173.962 15.1407 173.962 13.7619C173.962 12.3779 174.401 11.2376 175.284 10.3149C176.182 9.37673 177.282 8.91541 178.587 8.91541C180.11 8.91541 181.23 9.56333 181.54 10.4653ZM180.879 15.7886C181.432 15.2547 181.705 14.5705 181.705 13.7619C181.705 12.9481 181.432 12.2691 180.879 11.7352C180.348 11.2013 179.671 10.9214 178.882 10.9214C178.092 10.9214 177.452 11.1961 176.92 11.7352C176.404 12.2691 176.151 12.9533 176.151 13.7619C176.151 14.5705 176.404 15.2547 176.92 15.7886C177.452 16.3225 178.092 16.5973 178.882 16.5973C179.671 16.5973 180.348 16.3225 180.879 15.7886Z" fill="#FAF7F2"/>
<path d="M197.511 18.4063V5.56177H199.695V10.4083C200.118 9.52191 201.125 8.93618 202.389 8.93618C204.516 8.93618 205.765 10.3513 205.765 12.6579V18.4063H203.582V12.9689C203.582 11.6938 202.9 10.9059 201.729 10.9059C200.536 10.9059 199.695 11.7923 199.695 13.0622V18.4063H197.511Z" fill="#FAF7F2"/>
<path d="M217.044 10.4653V9.12274H219.248V18.4063H217.044V17.0638C216.734 17.9657 215.614 18.6084 214.091 18.6084C212.79 18.6084 211.686 18.1471 210.788 17.2244C209.905 16.2862 209.466 15.1407 209.466 13.7619C209.466 12.3779 209.905 11.2376 210.788 10.3149C211.686 9.37673 212.785 8.91541 214.091 8.91541C215.609 8.91541 216.729 9.56333 217.044 10.4653ZM216.383 15.7886C216.935 15.2547 217.209 14.5705 217.209 13.7619C217.209 12.9481 216.935 12.2691 216.383 11.7352C215.851 11.2013 215.175 10.9214 214.385 10.9214C213.596 10.9214 212.956 11.1961 212.424 11.7352C211.908 12.2691 211.655 12.9533 211.655 13.7619C211.655 14.5705 211.908 15.2547 212.424 15.7886C212.956 16.3225 213.596 16.5973 214.385 16.5973C215.17 16.5973 215.851 16.3225 216.383 15.7886Z" fill="#FAF7F2"/>
<path d="M223.347 18.4063V5.56689H225.546V10.4652C225.855 9.56332 226.976 8.92057 228.498 8.92057C229.799 8.92057 230.904 9.3819 231.781 10.3201C232.679 11.2428 233.118 12.3831 233.118 13.7671C233.118 15.1459 232.679 16.2914 231.781 17.2296C230.899 18.1523 229.799 18.6136 228.498 18.6136C226.976 18.6136 225.855 17.9708 225.546 17.0689V18.4114H223.347V18.4063ZM230.155 15.7886C230.687 15.2547 230.945 14.5705 230.945 13.7619C230.945 12.9481 230.687 12.2691 230.155 11.7352C229.639 11.2013 228.999 10.9214 228.209 10.9214C227.419 10.9214 226.743 11.1961 226.191 11.7352C225.659 12.2691 225.38 12.9533 225.38 13.7619C225.38 14.5705 225.654 15.2547 226.191 15.7886C226.743 16.3225 227.419 16.5972 228.209 16.5972C228.999 16.5972 229.639 16.3225 230.155 15.7886Z" fill="#FAF7F2"/>
<path d="M236.628 6.72285C236.628 5.9868 237.212 5.41663 237.95 5.41663C238.667 5.41663 239.251 5.9868 239.251 6.72285C239.251 7.4589 238.662 8.02908 237.95 8.02908C237.212 8.03426 236.628 7.4589 236.628 6.72285ZM236.845 9.1176H239.044V18.4011H236.845V9.1176Z" fill="#FAF7F2"/>
<path d="M243.814 18.4063V11.1288H242.621V9.1176H243.814V5.56177H246.018V9.1176H248.016V11.1288H246.018V18.4063H243.814Z" fill="#FAF7F2"/>
<path d="M258.324 10.4653V9.12274H260.528V18.4063H258.324V17.0638C258.014 17.9657 256.894 18.6084 255.371 18.6084C254.071 18.6084 252.966 18.1471 252.068 17.2244C251.185 16.2862 250.746 15.1407 250.746 13.7619C250.746 12.3779 251.185 11.2376 252.068 10.3149C252.966 9.37673 254.065 8.91541 255.371 8.91541C256.889 8.91541 258.009 9.56333 258.324 10.4653ZM257.663 15.7886C258.216 15.2547 258.489 14.5705 258.489 13.7619C258.489 12.9481 258.216 12.2691 257.663 11.7352C257.132 11.2013 256.455 10.9214 255.666 10.9214C254.876 10.9214 254.236 11.1961 253.704 11.7352C253.188 12.2691 252.935 12.9533 252.935 13.7619C252.935 14.5705 253.188 15.2547 253.704 15.7886C254.236 16.3225 254.876 16.5973 255.666 16.5973C256.45 16.5973 257.132 16.3225 257.663 15.7886Z" fill="#FAF7F2"/>
<path d="M272.958 10.429L271.601 11.8492C270.955 11.165 270.171 10.8333 269.252 10.8333C268.441 10.8333 267.765 11.108 267.213 11.6626C266.681 12.2172 266.408 12.917 266.408 13.7463C266.408 14.5757 266.681 15.2755 267.213 15.8301C267.765 16.3847 268.441 16.6594 269.252 16.6594C270.171 16.6594 270.955 16.3277 271.601 15.6435L272.958 17.0637C271.967 18.1315 270.738 18.6654 269.252 18.6654C267.837 18.6654 266.645 18.2093 265.675 17.2659C264.704 16.3277 264.224 15.1459 264.224 13.7463C264.224 12.3468 264.699 11.1857 265.675 10.2423C266.645 9.30415 267.837 8.82727 269.252 8.82727C270.733 8.82727 271.967 9.35598 272.958 10.429Z" fill="#FAF7F2"/>
<path d="M276.272 6.72285C276.272 5.9868 276.855 5.41663 277.593 5.41663C278.311 5.41663 278.894 5.9868 278.894 6.72285C278.894 7.4589 278.306 8.02908 277.593 8.02908C276.86 8.03426 276.272 7.4589 276.272 6.72285ZM276.494 9.1176H278.693V18.4011H276.494V9.1176Z" fill="#FAF7F2"/>
<path d="M296.264 18.4063V9.11758H298.448V10.4445C298.886 9.54262 299.934 8.93616 301.25 8.93616C303.455 8.93616 304.755 10.3512 304.755 12.6579V18.4063H302.551V12.9689C302.551 11.6937 301.818 10.9059 300.59 10.9059C299.341 10.9059 298.442 11.7922 298.442 13.0622V18.4063H296.264Z" fill="#FAF7F2"/>
<path d="M315.978 10.4653V9.12274H318.182V18.4063H315.978V17.0638C315.668 17.9657 314.548 18.6084 313.025 18.6084C311.724 18.6084 310.62 18.1471 309.721 17.2244C308.839 16.2862 308.4 15.1407 308.4 13.7619C308.4 12.3779 308.839 11.2376 309.721 10.3149C310.62 9.37673 311.719 8.91541 313.025 8.91541C314.548 8.91541 315.663 9.56333 315.978 10.4653ZM315.317 15.7886C315.869 15.2547 316.143 14.5705 316.143 13.7619C316.143 12.9481 315.869 12.2691 315.317 11.7352C314.785 11.2013 314.109 10.9214 313.319 10.9214C312.529 10.9214 311.889 11.1961 311.358 11.7352C310.841 12.2691 310.589 12.9533 310.589 13.7619C310.589 14.5705 310.841 15.2547 311.358 15.7886C311.889 16.3225 312.529 16.5973 313.319 16.5973C314.109 16.5973 314.785 16.3225 315.317 15.7886Z" fill="#FAF7F2"/>
<path d="M324.484 5.56177H322.286V18.4011H324.484V5.56177Z" fill="#FAF7F2"/>
<path d="M282.967 26.3059H292.718V47.7912C292.718 50.2223 293.306 51.2745 294.943 51.2745C295.531 51.2745 295.923 51.2071 296.119 51.1449V59.4902C295.268 59.8168 293.766 60.0138 291.608 60.0138C285.847 60.0138 282.967 56.9244 282.967 50.6836V26.3059Z" fill="#FAF7F2"/>
<path d="M302.464 35.1747V26.3111V22.4442H311.951V26.3111H319.281V35.1799H311.951V47.0085C311.951 50.16 313.195 51.4092 316.137 51.4092C316.664 51.4092 317.511 51.3419 318.626 51.1449V59.8168C317.314 60.1433 315.745 60.2781 313.851 60.2781C306.258 60.2781 302.469 56.3335 302.469 48.4495V35.1747H302.464Z" fill="#FAF7F2"/>
<path d="M348.255 26.3058V30.6392C347.274 27.7468 343.413 25.7097 338.442 25.7097C333.797 25.7097 329.873 27.3529 326.73 30.7014C323.653 33.9877 322.084 38.0618 322.084 42.8565C322.084 47.7186 323.653 51.7927 326.73 55.1412C329.868 58.4275 333.797 60.0707 338.442 60.0707C341.39 60.0707 343.692 59.0807 345.504 57.7589L342.98 50.725C342.123 50.9893 341.204 51.1345 340.213 51.1345C337.859 51.1345 335.897 50.3466 334.261 48.7708C332.625 47.1277 331.84 45.158 331.84 42.8565C331.84 40.5551 332.625 38.5854 334.261 37.0096C335.897 35.3665 337.859 34.5786 340.213 34.5786C342.634 34.5786 344.662 35.3665 346.299 37.0096C347.997 38.5854 348.849 40.5551 348.849 42.8565V59.9981H357.495C357.557 59.9981 357.619 60.0033 357.681 60.0033C357.794 60.0033 357.898 59.9981 358.006 59.9981V47.7911V41.4155V26.3058H348.255Z" fill="#FAF7F2"/>
<path d="M227.631 26.3058V30.6392C226.65 27.7468 222.789 25.7097 217.818 25.7097C213.172 25.7097 209.249 27.3529 206.106 30.7014C203.029 33.9877 201.46 38.0618 201.46 42.8565C201.46 47.7186 203.029 51.7927 206.106 55.1412C209.244 58.4275 213.172 60.0707 217.818 60.0707C220.766 60.0707 223.068 59.0807 224.88 57.7589L222.355 50.725C221.499 50.9893 220.58 51.1345 219.589 51.1345C217.235 51.1345 215.273 50.3466 213.637 48.7708C212.001 47.1277 211.216 45.158 211.216 42.8565C211.216 40.5551 212.001 38.5854 213.637 37.0096C215.273 35.3665 217.235 34.5786 219.589 34.5786C222.01 34.5786 224.038 35.3665 225.675 37.0096C227.373 38.5854 228.225 40.5551 228.225 42.8565V59.9981H236.871C236.933 59.9981 236.99 60.0033 237.057 60.0033C237.17 60.0033 237.273 59.9981 237.382 59.9981V47.7911V41.4155V26.3058H227.631Z" fill="#FAF7F2"/>
<path d="M127.448 26.3058V30.6392C126.467 27.7468 122.606 25.7097 117.635 25.7097C112.99 25.7097 109.066 27.3529 105.923 30.7014C102.846 33.9877 101.277 38.0618 101.277 42.8565C101.277 47.7186 102.846 51.7927 105.923 55.1412C109.061 58.4275 112.99 60.0707 117.635 60.0707C120.583 60.0707 122.885 59.0807 124.697 57.7589L122.173 50.725C121.316 50.9893 120.397 51.1345 119.406 51.1345C117.052 51.1345 115.09 50.3466 113.454 48.7708C111.818 47.1277 111.033 45.158 111.033 42.8565C111.033 40.5551 111.818 38.5854 113.454 37.0096C115.09 35.3665 117.052 34.5786 119.406 34.5786C121.827 34.5786 123.855 35.3665 125.492 37.0096C127.19 38.5854 128.042 40.5551 128.042 42.8565V59.9981H136.693C136.755 59.9981 136.812 60.0033 136.879 60.0033C136.993 60.0033 137.096 59.9981 137.204 59.9981V47.7911V41.4155V26.3058H127.448Z" fill="#FAF7F2"/>
<path d="M199.952 51.5492C197.717 51.5492 196.391 51.7151 195.627 50.3259C195.302 49.7765 195.178 48.916 195.178 47.6565V39.3163C195.178 30.7118 190.991 25.5906 183.599 25.5906C178.169 25.5906 174.571 27.3633 172.744 30.8466C171.242 27.3633 168.232 25.5906 163.783 25.5906C159.793 25.5906 156.458 27.5603 155.214 30.4526V26.3163H145.463V59.4177H155.209V40.8299C155.209 36.9527 157.496 34.2625 160.639 34.2625C163.778 34.2625 165.543 36.6261 165.543 40.5033V59.4177H175.289V40.8299C175.289 36.9527 177.514 34.2625 180.652 34.2625C183.723 34.2625 185.427 36.6261 185.427 40.5033V50.357C185.427 56.6601 188.302 59.8168 194.125 59.8168C197.191 59.8116 201.398 58.0544 199.952 51.5492Z" fill="#FAF7F2"/>
<path d="M254.432 53.1872C257.72 51.8032 262.97 50.2793 268.72 51.2486L279.416 26.1815H270.021L261.091 46.1429L252.161 26.1815H242.761L253.601 51.5751C253.838 52.1401 254.117 52.674 254.432 53.1872Z" fill="#FAF7F2"/>
<path d="M374.034 83.1784C373.755 83.5205 373.672 83.6242 373.414 83.8885C371.99 85.3606 370.508 86.7705 368.877 88.0146C368.123 88.5847 367.344 89.1186 366.513 89.5644C366.028 89.8236 365.527 90.0516 365.011 90.2331C363.854 90.6374 362.693 90.6166 361.542 90.2538C360.37 89.8858 359.472 89.1497 358.847 88.0871C358.46 87.4236 358.197 86.7135 358.027 85.9619C357.96 85.6561 357.892 85.3451 357.825 85.0237C357.743 85.0496 357.655 85.0496 357.598 85.0911C357.438 85.2207 357.288 85.371 357.134 85.5161C356.132 86.444 355.089 87.32 353.98 88.1182C353.04 88.7921 352.07 89.4089 351.027 89.9117C350.175 90.3264 349.303 90.6737 348.369 90.8447C347.336 91.0365 346.299 91.135 345.246 91.0002C344.699 90.9328 344.162 90.8447 343.63 90.6788C341.947 90.1553 340.688 89.1134 339.82 87.5843C339.537 87.0815 339.294 86.558 339.124 86.0034C339.093 85.9049 339.041 85.8116 338.902 85.7598C338.757 85.879 338.592 86.0086 338.437 86.1485C337.751 86.755 337.038 87.3355 336.295 87.8746C335.464 88.4759 334.602 89.015 333.678 89.4659C332.589 89.9946 331.448 90.3471 330.24 90.5026C329.249 90.627 328.258 90.6633 327.261 90.6218C326.208 90.5804 325.186 90.3627 324.2 89.9894C323.56 89.7458 322.962 89.4244 322.414 89.015C321.423 88.2789 320.685 87.3407 320.21 86.2004C320.117 85.9827 320.04 85.7598 319.952 85.5421C319.916 85.4488 319.766 85.4177 319.689 85.485C319.57 85.5887 319.457 85.6976 319.338 85.8012C318.688 86.3714 318.042 86.952 317.376 87.5014C316.571 88.1701 315.709 88.7765 314.801 89.3C314.006 89.7614 313.185 90.1605 312.282 90.373C309.324 91.0676 306.784 89.243 306.149 86.7083C306.03 86.2418 306.02 85.7753 305.974 85.3036C305.969 85.2673 305.912 85.2362 305.87 85.2103C305.855 85.2 305.819 85.2155 305.803 85.231C305.741 85.2829 305.685 85.3295 305.633 85.3866C305.437 85.5991 305.251 85.822 305.055 86.0345C304.487 86.6565 303.893 87.2474 303.248 87.7865C302.484 88.4292 301.674 89.0046 300.76 89.4193C300.208 89.6733 299.635 89.8391 299.026 89.8754C297.838 89.9428 296.951 89.4556 296.357 88.424C296.078 87.942 295.903 87.4185 295.81 86.8742C295.738 86.4595 295.686 86.0448 295.624 85.6302C295.614 85.5576 295.495 85.5265 295.433 85.5783C295.294 85.6924 295.149 85.8116 295.015 85.9308C294.07 86.7654 293.095 87.5584 292.062 88.2841C291.097 88.9631 290.09 89.5748 289.017 90.0672C288.279 90.4041 287.515 90.684 286.72 90.8499C285.656 91.0676 284.593 91.0935 283.535 90.8032C281.16 90.1605 280.076 88.2271 279.927 86.5165C279.906 86.3092 279.885 86.0967 279.854 85.8893C279.849 85.8531 279.787 85.822 279.746 85.7961C279.73 85.7857 279.689 85.8012 279.674 85.8168C279.508 85.9827 279.338 86.1485 279.178 86.3196C278.409 87.1489 277.624 87.9575 276.767 88.6936C276.272 89.1186 275.756 89.5229 275.229 89.9169C274.79 90.2486 274.305 90.513 273.805 90.7462C272.514 91.3371 271.177 91.3993 269.814 91.0728C269.329 90.9536 268.885 90.7151 268.488 90.4093C267.982 90.0257 267.569 89.554 267.244 89.0046C266.8 88.2478 266.531 87.4288 266.428 86.558C266.268 85.2051 266.433 83.8834 266.836 82.5875C267.13 81.6545 267.517 80.7681 267.997 79.9232C269.644 77.0309 271.869 74.7139 274.744 73.0344C275.947 72.3295 277.222 71.7852 278.579 71.4639C278.987 71.3705 279.4 71.2773 279.813 71.2513C281.625 71.1373 283.075 71.8371 284.154 73.304C284.309 73.5113 284.438 73.7394 284.583 73.9726C284.665 73.9312 284.748 73.9104 284.794 73.8586C284.99 73.6461 285.548 72.9722 285.791 72.6405L288.913 74.3769C288.826 74.5687 288.697 74.8849 288.63 75.0041C288.542 75.1648 288.454 75.3255 288.341 75.4707C288.103 75.7817 287.85 76.0875 287.597 76.3881C286.885 77.2278 286.173 78.0675 285.455 78.9073C285.197 79.2079 284.98 79.5345 284.794 79.8818C284.294 80.8355 283.829 81.8048 283.483 82.8259C283.251 83.4998 283.075 84.184 283.019 84.8941C282.993 85.2362 283.008 85.5783 283.065 85.9153C283.194 86.6928 283.746 87.2215 284.541 87.3252C285.119 87.4029 285.692 87.3614 286.255 87.237C287.076 87.0608 287.86 86.7705 288.63 86.4232C289.899 85.8531 291.112 85.1844 292.258 84.3913C293.554 83.4946 294.762 82.489 295.918 81.4212C296.073 81.2813 296.218 81.1361 296.29 80.9236C297.235 78.1142 298.835 75.6935 300.765 73.4854C301.302 72.8737 301.875 72.2984 302.427 71.6971C302.66 71.4483 302.933 71.3498 303.269 71.3498C303.671 71.3498 304.048 71.4379 304.399 71.6245C304.559 71.7075 304.714 71.8163 304.848 71.9407C305.251 72.3139 305.339 72.8271 305.076 73.304C304.952 73.532 304.792 73.7446 304.632 73.9519C304.11 74.6413 303.573 75.3203 303.052 76.0149C302.283 77.0464 301.555 78.1038 300.905 79.2183C300.559 79.8092 300.244 80.4105 299.965 81.0377C299.47 82.1469 299.16 83.3132 299 84.5157C298.943 84.9356 298.938 85.3555 299.067 85.7649C299.098 85.8634 299.134 85.9671 299.186 86.0552C299.299 86.247 299.47 86.3662 299.702 86.3559C299.857 86.3455 300.017 86.3248 300.161 86.2781C300.512 86.1693 300.832 85.9827 301.142 85.7857C301.715 85.4125 302.236 84.9719 302.737 84.5106C303.449 83.8523 304.121 83.1473 304.755 82.4165C306.603 80.2964 308.25 78.0209 309.773 75.6573C310.47 74.5791 311.12 73.4647 311.791 72.371C311.874 72.2362 311.946 72.0962 312.023 71.9563C312.199 71.6297 312.493 71.4639 312.844 71.4068C313.402 71.3239 313.944 71.3965 314.434 71.6919C314.568 71.7697 314.697 71.8682 314.801 71.9822C315.059 72.2828 315.162 72.6249 314.992 73.0033C314.899 73.2159 314.775 73.4232 314.651 73.6202C313.99 74.7242 313.314 75.8179 312.669 76.9272C311.931 78.1971 311.239 79.4982 310.625 80.8355C310.206 81.7426 309.809 82.6549 309.572 83.6346C309.484 83.9922 309.406 84.3499 309.355 84.7127C309.288 85.1844 309.308 85.6561 309.453 86.1174C309.659 86.7861 310.119 87.1748 310.79 87.3044C311.363 87.4133 311.936 87.3718 312.498 87.2163C313.004 87.0764 313.489 86.8794 313.939 86.5995C314.357 86.3351 314.775 86.0604 315.172 85.7546C315.673 85.371 316.163 84.9771 316.628 84.5572C317.562 83.7123 318.476 82.8467 319.4 81.9914C319.575 81.8255 319.71 81.6441 319.751 81.3953C319.787 81.188 319.839 80.9858 319.895 80.7837C320.097 80.0735 320.37 79.3945 320.716 78.7414C321.036 78.1349 321.398 77.5596 321.805 77.0101C323.194 75.17 324.851 73.615 326.781 72.3606C327.953 71.5986 329.208 71.0233 330.565 70.6656C331.639 70.3857 332.728 70.2924 333.833 70.422C334.597 70.5153 335.309 70.7537 335.944 71.2047C336.594 71.666 337.007 72.2777 337.178 73.0603C337.27 73.4802 337.27 73.8897 337.178 74.3096C337.074 74.7761 336.904 75.2115 336.672 75.6313C336.037 76.7717 335.164 77.7099 334.173 78.5392C333.915 78.7621 333.879 78.7932 333.719 78.9384C333.058 78.2334 332.754 77.8758 331.912 76.8702C332.305 76.4348 332.238 76.5177 332.532 76.1704C332.666 76.0097 332.821 75.8698 332.965 75.7143C333.27 75.3773 333.502 74.999 333.59 74.548C333.626 74.3718 333.636 74.18 333.606 74.0037C333.461 73.2159 332.811 72.9619 332.222 73.0033C331.938 73.0241 331.654 73.0915 331.391 73.2262C331.066 73.3921 330.73 73.5424 330.415 73.729C328.397 74.9471 326.663 76.4918 325.223 78.363C324.386 79.4567 323.751 80.6593 323.385 81.9966C323.215 82.6082 323.116 83.2251 323.137 83.8626C323.153 84.2877 323.23 84.6972 323.369 85.0963C323.695 86.0397 324.335 86.7083 325.233 87.123C325.935 87.4444 326.678 87.574 327.442 87.5947C328.098 87.6103 328.748 87.5118 329.388 87.3822C330.627 87.1282 331.794 86.672 332.924 86.1071C333.91 85.6146 334.85 85.0444 335.753 84.4173C336.765 83.7123 337.725 82.94 338.654 82.1262C338.881 81.9292 339.041 81.7115 339.118 81.416C339.645 79.4204 340.667 77.6892 342.019 76.1549C343.346 74.6517 344.853 73.3558 346.541 72.2725C347.517 71.6505 348.544 71.1321 349.664 70.8263C350.299 70.6501 350.939 70.5464 351.605 70.5878C352.028 70.6138 352.431 70.7123 352.818 70.8937C353.644 71.2824 354.104 71.9511 354.233 72.8426C354.315 73.418 354.279 73.9934 354.135 74.5635C353.99 75.1545 353.778 75.7194 353.505 76.2585C352.86 77.5337 352.065 78.6999 351.032 79.69C349.742 80.9236 348.389 82.0847 347.006 83.2095C346.072 83.9715 345.117 84.7127 344.126 85.3969C343.671 85.7079 343.207 86.0034 342.747 86.304C342.592 86.4077 342.567 86.5373 342.66 86.7083C343.109 87.5325 343.826 87.9627 344.735 88.0923C345.442 88.1908 346.149 88.1649 346.841 88.0094C347.326 87.9005 347.811 87.7865 348.281 87.631C350.335 86.952 352.245 86.0034 353.944 84.635C355.193 83.6294 356.37 82.5512 357.516 81.4316C357.691 81.2605 357.805 81.0791 357.83 80.82C358.021 78.6896 358.527 76.6266 359.178 74.5946C360.045 71.8837 361.196 69.2972 362.585 66.8143C365.129 62.2684 368.263 58.1787 372 54.5607C372.79 53.7935 373.616 53.0627 374.488 52.3888C375.443 51.6424 376.45 50.9841 377.549 50.4761C378.122 50.2118 378.71 49.9993 379.325 49.8593C379.918 49.7193 380.517 49.709 381.121 49.766C381.441 49.7971 381.73 49.9111 382.009 50.0666C382.386 50.2792 382.659 50.585 382.825 50.9893C382.871 51.1085 382.933 51.2225 382.99 51.3418C382.99 52.2333 382.99 53.13 382.99 54.0216C382.948 54.0838 382.871 54.1408 382.866 54.2082C382.814 54.6851 382.634 55.1205 382.458 55.5611C382.097 56.463 381.648 57.3286 381.168 58.1735C380.259 59.7752 379.222 61.2888 378.132 62.7712C376.47 65.0364 374.689 67.2083 372.852 69.3283C369.982 72.6405 366.988 75.8387 363.906 78.9539C363.096 79.7729 362.275 80.5867 361.459 81.4057C361.33 81.5353 361.196 81.6597 361.067 81.7944C360.959 81.9085 360.881 82.0432 360.871 82.2143C360.793 83.3184 360.762 84.4224 361.01 85.511C361.077 85.8168 361.186 86.1174 361.315 86.4025C361.599 87.0297 362.11 87.3615 362.781 87.4496C363.147 87.4962 363.509 87.4859 363.87 87.3925C364.329 87.2785 364.768 87.1126 365.191 86.9053C365.826 86.5943 366.425 86.2107 367.003 85.8012C368.118 85.0133 369.166 84.1373 370.178 83.2251C370.88 82.5927 371.561 81.9396 372.253 81.2968C372.387 81.1724 372.516 81.0377 372.661 80.9288L374.034 83.1784ZM379.831 53.8194C379.825 53.7417 379.825 53.6899 379.815 53.638C379.805 53.5862 379.789 53.5344 379.774 53.4877C379.717 53.2907 379.495 53.1352 379.294 53.156C378.953 53.1923 378.633 53.3011 378.323 53.4566C377.833 53.7054 377.374 54.006 376.935 54.3378C375.933 55.1049 374.994 55.9343 374.111 56.831C373.285 57.6759 372.506 58.5571 371.757 59.4746C369.083 62.7609 366.792 66.296 364.851 70.0591C363.829 72.0392 362.92 74.0763 362.197 76.1911C362.068 76.5644 361.95 76.9376 361.831 77.3108C361.8 77.4041 361.826 77.544 361.862 77.5285C361.934 77.5026 362.012 77.4766 362.063 77.43C362.182 77.3263 362.285 77.2071 362.394 77.0931C366.497 72.8478 370.369 68.4056 373.987 63.7405C375.304 62.0404 376.568 60.3039 377.719 58.4845C378.168 57.7744 378.597 57.0539 378.979 56.3075C379.232 55.8151 379.459 55.3175 379.629 54.7887C379.727 54.4674 379.815 54.1408 379.831 53.8194ZM282.141 76.8702C282.151 76.5177 282.115 76.186 282.022 75.849C281.795 74.9886 281.217 74.6517 280.52 74.5532C280.417 74.5376 280.314 74.5428 280.205 74.5376C279.596 74.5117 279.008 74.6257 278.424 74.7916C277.273 75.1182 276.262 75.7091 275.322 76.4348C274.383 77.1604 273.562 78.0002 272.824 78.9332C271.776 80.255 270.909 81.6908 270.31 83.2769C270.067 83.9196 269.897 84.5779 269.799 85.257C269.742 85.6768 269.758 86.0915 269.856 86.5062C270.016 87.1904 270.491 87.5688 271.198 87.6206C271.538 87.6465 271.874 87.6103 272.209 87.5221C272.746 87.377 273.237 87.1386 273.717 86.8638C274.331 86.5062 274.894 86.0811 275.441 85.625C276.468 84.7645 277.402 83.8108 278.301 82.8156C279.359 81.6441 280.334 80.4105 281.31 79.1768C281.506 78.9332 281.666 78.6585 281.831 78.3889C281.898 78.2801 281.955 78.1557 281.981 78.0261C282.064 77.6477 282.157 77.2589 282.141 76.8702ZM342.737 82.5253C342.897 82.432 343.057 82.3439 343.207 82.2402C344.384 81.4575 345.519 80.6178 346.608 79.7055C347.517 78.9487 348.358 78.1246 349.122 77.2226C349.582 76.6836 350.015 76.1238 350.387 75.5173C350.578 75.2011 350.753 74.8797 350.862 74.5273C350.893 74.4288 350.919 74.3251 350.939 74.2214C350.991 73.9519 350.8 73.7394 350.542 73.7808C350.464 73.7912 350.387 73.8068 350.31 73.8275C349.819 73.9467 349.375 74.1644 348.947 74.4236C348.157 74.8953 347.445 75.4706 346.748 76.0719C344.967 77.6166 343.707 79.5241 342.861 81.7167C342.778 81.9344 342.716 82.1625 342.654 82.3905C342.66 82.4216 342.706 82.4683 342.737 82.5253Z" fill="#FAF7F2"/>
<path d="M244.903 102.798C240.335 102.15 236.948 99.7862 234.744 95.7223C233.949 94.2554 233.464 92.6797 233.149 91.0417C232.839 89.4037 232.752 87.7554 232.85 86.0967C232.948 84.438 233.252 82.8156 233.707 81.2191C234.424 78.7051 235.493 76.3415 236.824 74.0971C237.976 72.1481 239.302 70.3287 240.773 68.6078C244.366 64.4144 248.599 61.0348 253.513 58.526C255.758 57.3805 258.086 56.4526 260.538 55.8462C262.422 55.3797 264.332 55.0842 266.284 55.1464C267.491 55.1827 268.679 55.3641 269.83 55.7529C270.3 55.9136 270.759 56.1105 271.193 56.3542C273.046 57.3805 274.171 58.9511 274.615 61.0193C274.847 62.087 274.852 63.1548 274.656 64.2278C274.553 64.7721 274.455 65.3111 274.285 65.8347C274.187 66.1353 274.057 66.4204 273.928 66.7055C273.872 66.8247 273.768 66.9128 273.624 66.9232C273.598 66.9232 273.572 66.9284 273.546 66.9284C272.581 66.9802 271.611 67.032 270.645 67.0839C270.542 67.0891 270.434 67.0839 270.331 67.0839C270.263 67.0839 270.181 66.9802 270.201 66.9232C270.263 66.7521 270.32 66.5759 270.392 66.41C270.692 65.7362 270.924 65.0416 271.074 64.3159C271.244 63.4866 271.301 62.652 271.162 61.8123C270.94 60.4594 270.243 59.4279 269.035 58.7645C268.405 58.4224 267.729 58.2202 267.027 58.1321C265.824 57.9766 264.621 58.0284 263.429 58.1995C261.153 58.5208 259.016 59.2724 256.956 60.278C254.736 61.3614 252.677 62.7039 250.746 64.2485C246.488 67.6592 242.941 71.6971 240.149 76.3985C239.003 78.3216 238.043 80.3275 237.341 82.4579C236.953 83.6346 236.67 84.8319 236.499 86.0552C236.484 86.1589 236.473 86.2626 236.463 86.3662C236.293 88.7558 236.592 91.0884 237.408 93.3431C237.723 94.2088 238.141 95.0278 238.662 95.7897C239.736 97.3448 241.145 98.4799 242.905 99.159C244.572 99.8017 246.286 100.03 248.067 99.8224C249.641 99.641 251.149 99.2315 252.599 98.6147C255.48 97.3966 258.035 95.6964 260.177 93.3898C260.285 93.2758 260.528 93.0114 260.698 92.8404L263.228 93.877C263.15 94.0429 263.052 94.1984 262.939 94.3435C262.763 94.5716 262.577 94.7893 262.386 95.0122C260.502 97.1944 258.345 99.0501 255.831 100.465C254.153 101.409 252.388 102.108 250.509 102.528C249.765 102.694 249.012 102.777 248.263 102.891C248.263 102.901 246.828 103.036 244.903 102.798Z" fill="#FAF7F2"/>
</g>
<defs>
<clipPath id="clip0">
<rect width="383" height="103" fill="white"/>
</clipPath>
</defs>
</svg>
