<?xml version="1.0" encoding="utf-8"?>
<!-- Generator: Adobe Illustrator 25.4.1, SVG Export Plug-In . SVG Version: 6.00 Build 0)  -->
<svg version="1.1" id="Capa_1" xmlns="http://www.w3.org/2000/svg" xmlns:xlink="http://www.w3.org/1999/xlink" x="0px" y="0px"
	 viewBox="0 0 373.4 109" style="enable-background:new 0 0 373.4 109;" xml:space="preserve">
<style type="text/css">
	.st0{clip-path:url(#SVGID_00000083795871460034926800000003920594016265031840_);}
	.st1{fill-rule:evenodd;clip-rule:evenodd;fill:#FAF7F2;}
	.st2{clip-path:url(#SVGID_00000013156053990048621790000016694669606833218704_);}
	.st3{fill:#FAF7F2;}
	.st4{clip-path:url(#SVGID_00000057127682322366648510000009387585622395330226_);}
</style>
<g>
	<defs>
		<rect id="SVGID_1_" y="17.7" width="104.1" height="73.2"/>
	</defs>
	<clipPath id="SVGID_00000003100029038999082460000001237216958729598631_">
		<use xlink:href="#SVGID_1_"  style="overflow:visible;"/>
	</clipPath>
	<g style="clip-path:url(#SVGID_00000003100029038999082460000001237216958729598631_);">
		<path class="st1" d="M71.7,76.9v-26v-1.3l-0.9-0.9L52.1,30L33.3,48.7l-0.9,0.9v1.3v26h6.2V52.2l13.4-13.4l13.4,13.4v24.7H71.7z
			 M0,29.6v8.8l13.8,13.8v24.7H20v-26v-1.3l-0.9-0.9L0,29.6z M84.1,49.6v1.3v26h6.2V52.2l13.8-13.8v-8.8L85,48.7L84.1,49.6z
			 M26,35.7c5,0,9-4,9-9c0-5-4-9-9-9s-9,4-9,9C17,31.7,21,35.7,26,35.7z M78.1,35.7c5,0,9-4,9-9c0-5-4-9-9-9c-5,0-9,4-9,9
			C69.1,31.7,73.1,35.7,78.1,35.7z M78.1,44l-26-26l-26,26L0,18v8.8l22.9,22.9v27.2h6.2V49.7l22.9-22.9l22.9,22.9v27.2h6.2V49.7
			l22.9-22.9V18L78.1,44z M0.1,90.6h3.1V80.4H0.1V90.6z M15,87.3L15,87.3l-6-6.8H6v10.2h2.9v-6.8h0l5.9,6.8h3.1V80.4H15L15,87.3
			L15,87.3z M20.7,90.6h3.1v-4.2h5.9v-1.7h-5.9v-2.4h6.8v-1.9h-10V90.6z M43.9,81.7c-0.6-0.5-1.3-0.9-2.2-1.1
			c-0.9-0.3-1.8-0.4-2.9-0.4c-1.1,0-2.1,0.1-2.9,0.4c-0.9,0.3-1.6,0.7-2.2,1.1c-0.6,0.5-1.1,1.1-1.4,1.7c-0.3,0.6-0.5,1.4-0.5,2.1
			c0,0.7,0.2,1.4,0.5,2.1c0.3,0.6,0.8,1.2,1.4,1.7c0.6,0.5,1.3,0.8,2.2,1.1c0.9,0.3,1.8,0.4,2.9,0.4c1.1,0,2.1-0.1,2.9-0.4
			c0.9-0.3,1.6-0.6,2.2-1.1c0.6-0.5,1.1-1,1.4-1.7c0.3-0.6,0.5-1.3,0.5-2.1c0-0.8-0.2-1.5-0.5-2.1C44.9,82.8,44.5,82.2,43.9,81.7z
			 M42.4,86.8c-0.1,0.4-0.4,0.8-0.7,1.1c-0.3,0.3-0.7,0.6-1.2,0.8c-0.5,0.2-1.1,0.3-1.8,0.3c-0.7,0-1.3-0.1-1.8-0.3
			c-0.5-0.2-0.9-0.5-1.2-0.8c-0.3-0.3-0.5-0.7-0.7-1.1c-0.1-0.4-0.2-0.8-0.2-1.3c0-0.4,0.1-0.9,0.2-1.3c0.1-0.4,0.4-0.8,0.7-1.1
			c0.3-0.3,0.7-0.6,1.2-0.8c0.5-0.2,1.1-0.3,1.8-0.3c0.7,0,1.3,0.1,1.8,0.3c0.5,0.2,0.9,0.5,1.2,0.8c0.3,0.3,0.5,0.7,0.7,1.1
			c0.1,0.4,0.2,0.9,0.2,1.3C42.6,86,42.5,86.4,42.4,86.8z M56.9,87.3L56.9,87.3l-6-6.8h-3.1v10.2h2.9v-6.8h0l5.9,6.8h3.1V80.4h-2.9
			V87.3L56.9,87.3z M79.3,87.6L79.3,87.6l-3.6-7.2h-3.6l5.1,10.2h3.9l5.3-10.2h-3.6L79.3,87.6z M66.2,80.4l-5.1,10.2h3.5l3.5-7.2h0
			l3.4,7.2H75l-5-10.2H66.2z M87.7,90.6h3.1V80.4h-3.1V90.6z M92.4,82.3h4.2v8.3h3.1v-8.3h4.2v-1.9H92.4V82.3z"/>
	</g>
</g>
<g>
	<defs>
		<rect id="SVGID_00000083783186033331598890000014049717508630395795_" x="153.1" y="10.9" width="81.5" height="82.2"/>
	</defs>
	<clipPath id="SVGID_00000025418168452705065060000009896525655702637243_">
		<use xlink:href="#SVGID_00000083783186033331598890000014049717508630395795_"  style="overflow:visible;"/>
	</clipPath>
	<g style="clip-path:url(#SVGID_00000025418168452705065060000009896525655702637243_);">
		<path class="st3" d="M156.3,89c0,1.3,0,2.3,0.1,2.9c0,0.4,0.1,0.7,0.5,0.7c0.2,0,0.5,0.1,0.7,0.1c0.2,0,0.2,0,0.2,0.1
			c0,0.1-0.1,0.1-0.3,0.1c-0.9,0-1.7,0-2.1,0c-0.4,0-1.2,0-1.7,0c-0.2,0-0.3,0-0.3-0.1c0-0.1,0.1-0.1,0.2-0.1c0.2,0,0.4,0,0.5-0.1
			c0.3-0.1,0.3-0.4,0.4-0.7c0.1-0.6,0.1-1.6,0.1-2.9v-2.4c0-2.1,0-2.5,0-2.9c0-0.5-0.1-0.7-0.6-0.8c-0.1,0-0.3,0-0.5,0
			c-0.1,0-0.2,0-0.2-0.1c0-0.1,0.1-0.1,0.3-0.1c0.4,0,0.8,0,1.1,0c0.4,0,0.7,0,0.9,0c0.5,0,3.3,0,3.6,0c0.3,0,0.4,0,0.6-0.1
			c0.1,0,0.2-0.1,0.2-0.1c0.1,0,0.1,0.1,0.1,0.1c0,0.1-0.1,0.3-0.1,0.6c0,0.1,0,0.9-0.1,1.1c0,0.1,0,0.2-0.1,0.2
			c-0.1,0-0.1-0.1-0.1-0.2c0-0.1,0-0.3-0.1-0.5c-0.1-0.2-0.4-0.4-0.9-0.4l-2.1,0c-0.1,0-0.1,0-0.1,0.2V87c0,0.1,0,0.1,0.1,0.1l1.8,0
			c0.2,0,0.4,0,0.6,0c0.3,0,0.5-0.1,0.6-0.2c0.1-0.1,0.1-0.1,0.2-0.1c0.1,0,0.1,0,0.1,0.1c0,0.1-0.1,0.4-0.1,0.8
			c0,0.3-0.1,0.9-0.1,1c0,0.1,0,0.3-0.1,0.3c-0.1,0-0.1-0.1-0.1-0.2c0-0.1,0-0.3-0.1-0.4c-0.1-0.2-0.3-0.4-0.7-0.5c-0.3,0-1.8,0-2,0
			c-0.1,0-0.1,0-0.1,0.1L156.3,89L156.3,89z"/>
		<path class="st3" d="M171.3,88c0-3.1-1.8-5-4-5c-1.6,0-3.4,0.9-3.4,4.3c0,2.8,1.6,5.1,4.2,5.1C169.1,92.4,171.3,92,171.3,88z
			 M162,87.8c0-2.3,1.5-5.3,5.7-5.3c3.4,0,5.5,2,5.5,5.1s-2.2,5.6-5.7,5.6C163.6,93.1,162,90.2,162,87.8z"/>
		<path class="st3" d="M175,83.9c-0.3-0.7-0.5-0.9-1-1c-0.2-0.1-0.4-0.1-0.5-0.1c-0.1,0-0.2,0-0.2-0.1c0-0.1,0.2-0.1,0.4-0.1
			c0.7,0,1.5,0,2,0c0.3,0,1,0,1.7,0c0.2,0,0.3,0,0.3,0.1c0,0.1-0.1,0.1-0.2,0.1c-0.2,0-0.4,0-0.5,0.1c-0.1,0.1-0.1,0.2-0.1,0.3
			c0,0.2,0.1,0.6,0.3,1.1l2.4,6.2h0.1c0.6-1.5,2.4-5.9,2.7-6.8c0.1-0.2,0.1-0.4,0.1-0.5c0-0.1-0.1-0.2-0.2-0.3
			c-0.2-0.1-0.4-0.1-0.5-0.1c-0.1,0-0.2,0-0.2-0.1c0-0.1,0.1-0.1,0.4-0.1c0.7,0,1.3,0,1.4,0c0.2,0,0.9,0,1.3,0c0.2,0,0.3,0,0.3,0.1
			c0,0.1-0.1,0.1-0.2,0.1s-0.4,0-0.7,0.2c-0.2,0.1-0.4,0.4-0.8,1.2c-0.5,1.3-0.9,2-1.6,3.7c-0.9,2-1.5,3.5-1.8,4.2
			c-0.4,0.8-0.4,1-0.6,1c-0.2,0-0.3-0.2-0.5-0.8L175,83.9z"/>
		<path class="st3" d="M187,86.6c0-2.1,0-2.5,0-2.9c0-0.5-0.2-0.7-0.5-0.8c-0.2,0-0.3-0.1-0.5-0.1c-0.1,0-0.2,0-0.2-0.1
			c0-0.1,0.1-0.1,0.3-0.1c0.5,0,1.4,0,1.8,0c0.3,0,1.2,0,1.7,0c0.2,0,0.3,0,0.3,0.1c0,0.1-0.1,0.1-0.2,0.1c-0.1,0-0.2,0-0.4,0
			c-0.4,0.1-0.5,0.3-0.5,0.8c0,0.4,0,0.8,0,2.9V89c0,1.3,0,2.4,0.1,3c0,0.4,0.1,0.6,0.5,0.7c0.2,0,0.5,0.1,0.7,0.1
			c0.2,0,0.2,0,0.2,0.1c0,0.1-0.1,0.1-0.3,0.1c-0.9,0-1.8,0-2.1,0c-0.3,0-1.2,0-1.7,0c-0.2,0-0.3,0-0.3-0.1c0-0.1,0.1-0.1,0.2-0.1
			c0.2,0,0.4,0,0.5-0.1c0.3-0.1,0.4-0.3,0.4-0.7c0.1-0.6,0.1-1.7,0.1-3L187,86.6L187,86.6z"/>
		<path class="st3" d="M192.2,92.8c-0.2-0.1-0.3-0.2-0.3-0.5c0-0.7,0.1-1.6,0.1-1.8c0-0.2,0.1-0.4,0.2-0.4c0.1,0,0.2,0.1,0.2,0.2
			c0,0.2,0.1,0.5,0.1,0.7c0.3,1,1.2,1.4,2.2,1.4c1.4,0,2.1-0.8,2.1-1.6c0-0.7-0.2-1.3-1.5-2.2l-0.7-0.5c-1.7-1.2-2.3-2.1-2.3-3.2
			c0-1.5,1.4-2.6,3.5-2.6c1,0,1.6,0.1,2,0.2c0.1,0,0.2,0.1,0.2,0.2c0,0.2-0.1,0.6-0.1,1.6c0,0.3,0,0.4-0.2,0.4
			c-0.1,0-0.2-0.1-0.2-0.2c0-0.1-0.1-0.5-0.4-0.9c-0.2-0.3-0.7-0.7-1.7-0.7c-1.1,0-1.8,0.6-1.8,1.4c0,0.6,0.4,1.1,1.6,2l0.4,0.3
			c1.9,1.2,2.5,2.2,2.5,3.5c0,0.8-0.3,1.7-1.4,2.4c-0.8,0.4-1.6,0.6-2.4,0.6C193.6,93.1,192.9,93,192.2,92.8z"/>
		<path class="st3" d="M200.4,92.8c-0.2-0.1-0.3-0.2-0.3-0.5c0-0.7,0.1-1.6,0.1-1.8c0-0.2,0.1-0.4,0.2-0.4c0.1,0,0.2,0.1,0.2,0.2
			c0,0.2,0.1,0.5,0.1,0.7c0.3,1,1.2,1.4,2.2,1.4c1.4,0,2.1-0.8,2.1-1.6c0-0.7-0.2-1.3-1.5-2.2l-0.7-0.5c-1.7-1.2-2.3-2.1-2.3-3.2
			c0-1.5,1.4-2.6,3.5-2.6c1,0,1.6,0.1,2,0.2c0.1,0,0.2,0.1,0.2,0.2c0,0.2-0.1,0.6-0.1,1.6c0,0.3,0,0.4-0.2,0.4
			c-0.1,0-0.2-0.1-0.2-0.2c0-0.1-0.1-0.5-0.4-0.9c-0.2-0.3-0.7-0.7-1.7-0.7c-1.1,0-1.8,0.6-1.8,1.4c0,0.6,0.4,1.1,1.6,2l0.4,0.3
			c1.9,1.2,2.5,2.2,2.5,3.5c0,0.8-0.3,1.7-1.4,2.4c-0.8,0.4-1.6,0.6-2.4,0.6C201.8,93.1,201.1,93,200.4,92.8z"/>
		<path class="st3" d="M208.8,92.8c-0.2-0.1-0.3-0.2-0.3-0.5c0-0.7,0.1-1.6,0.1-1.8c0-0.2,0.1-0.4,0.2-0.4c0.1,0,0.2,0.1,0.2,0.2
			c0,0.2,0.1,0.5,0.1,0.7c0.3,1,1.2,1.4,2.2,1.4c1.4,0,2.1-0.8,2.1-1.6c0-0.7-0.2-1.3-1.5-2.2l-0.7-0.5c-1.7-1.2-2.3-2.1-2.3-3.2
			c0-1.5,1.4-2.6,3.5-2.6c1,0,1.6,0.1,2,0.2c0.1,0,0.2,0.1,0.2,0.2c0,0.2-0.1,0.6-0.1,1.6c0,0.3,0,0.4-0.2,0.4
			c-0.1,0-0.2-0.1-0.2-0.2c0-0.1-0.1-0.5-0.4-0.9c-0.2-0.3-0.7-0.7-1.7-0.7c-1.1,0-1.8,0.6-1.8,1.4c0,0.6,0.4,1.1,1.6,2l0.4,0.3
			c1.9,1.2,2.5,2.2,2.5,3.5c0,0.8-0.3,1.7-1.4,2.4c-0.8,0.4-1.6,0.6-2.4,0.6C210.2,93.1,209.5,93,208.8,92.8z"/>
		<path class="st3" d="M220.6,83.4l-2,0.1c-0.8,0-1.1,0.1-1.3,0.4c-0.1,0.2-0.2,0.4-0.2,0.5c0,0.1-0.1,0.2-0.2,0.2
			c-0.1,0-0.1-0.1-0.1-0.2c0-0.2,0.3-1.5,0.3-1.6c0-0.2,0.1-0.3,0.2-0.3c0.1,0,0.2,0.1,0.6,0.2c0.4,0,0.9,0.1,1.4,0.1h5.4
			c0.4,0,0.7,0,0.9-0.1c0.2,0,0.3-0.1,0.4-0.1c0.1,0,0.1,0.1,0.1,0.3c0,0.3,0,1.2,0,1.6c0,0.1,0,0.2-0.1,0.2c-0.1,0-0.1-0.1-0.2-0.3
			l0-0.2c0-0.4-0.4-0.7-1.6-0.8l-1.7,0V89c0,1.3,0,2.3,0.1,2.9c0,0.4,0.1,0.7,0.5,0.7c0.2,0,0.5,0.1,0.7,0.1c0.2,0,0.2,0,0.2,0.1
			c0,0.1-0.1,0.1-0.3,0.1c-0.9,0-1.8,0-2.1,0c-0.3,0-1.2,0-1.7,0c-0.2,0-0.3,0-0.3-0.1c0-0.1,0.1-0.1,0.2-0.1c0.2,0,0.4,0,0.5-0.1
			c0.3-0.1,0.4-0.4,0.4-0.7c0.1-0.6,0.1-1.7,0.1-2.9L220.6,83.4L220.6,83.4z"/>
		<path class="st3" d="M229.1,86.6c0-2.1,0-2.5,0-2.9c0-0.5-0.1-0.7-0.6-0.8c-0.1,0-0.3,0-0.5,0c-0.2,0-0.2,0-0.2-0.1
			c0-0.1,0.1-0.1,0.3-0.1c0.4,0,0.8,0,1.1,0c0.4,0,0.7,0,0.9,0c0.4,0,3.2,0,3.4,0c0.3,0,0.5-0.1,0.6-0.1c0.1,0,0.2-0.1,0.2-0.1
			c0.1,0,0.1,0.1,0.1,0.1c0,0.1-0.1,0.3-0.1,0.9c0,0.1,0,0.7-0.1,0.9c0,0.1,0,0.2-0.1,0.2c-0.1,0-0.1-0.1-0.1-0.2
			c0-0.1,0-0.3-0.1-0.5c-0.1-0.2-0.2-0.4-0.9-0.5c-0.2,0-1.7-0.1-1.9-0.1c-0.1,0-0.1,0-0.1,0.1v3.5c0,0.1,0,0.2,0.1,0.2
			c0.3,0,1.9,0,2.2,0c0.3,0,0.5-0.1,0.7-0.2c0.1-0.1,0.2-0.2,0.2-0.2c0.1,0,0.1,0,0.1,0.1c0,0.1-0.1,0.3-0.1,1
			c0,0.3-0.1,0.8-0.1,0.9c0,0.1,0,0.3-0.1,0.3c-0.1,0-0.1-0.1-0.1-0.1c0-0.1,0-0.3-0.1-0.5c-0.1-0.3-0.3-0.5-0.8-0.5
			c-0.3,0-1.6,0-1.9,0c-0.1,0-0.1,0.1-0.1,0.1V89c0,0.5,0,1.7,0,2.1c0,0.9,0.2,1.1,1.6,1.1c0.4,0,0.9,0,1.3-0.2
			c0.4-0.2,0.5-0.4,0.6-1c0-0.2,0.1-0.2,0.2-0.2c0.1,0,0.1,0.1,0.1,0.2c0,0.3-0.1,1.2-0.2,1.5c-0.1,0.4-0.2,0.4-0.7,0.4
			c-1,0-1.8,0-2.4,0c-0.6,0-1,0-1.4,0c-0.2,0-0.5,0-0.8,0c-0.3,0-0.7,0-0.9,0c-0.2,0-0.3,0-0.3-0.1c0-0.1,0.1-0.1,0.2-0.1
			c0.2,0,0.4,0,0.5-0.1c0.3-0.1,0.3-0.4,0.4-0.7c0.1-0.6,0.1-1.7,0.1-2.9L229.1,86.6L229.1,86.6z"/>
		<path class="st3" d="M175,32.4c0,0.2-0.1,0.4,0,0.6c0.2,1.6,0.5,3.1,0.8,4.7c0.1,0.3,0.3,0.5,0.5,0.8c0.1,0.1,0.2,0,0.2,0
			C176.8,36.7,176.3,33.1,175,32.4z M212.8,32.5c-0.1,0-0.1,0-0.2,0c-0.2,0.3-0.4,0.5-0.6,0.8c-0.7,1.4-0.8,2.9-0.9,4.4
			c0,0.2,0.1,0.4,0.1,0.6c0,0.1,0.1,0.1,0.2,0.1c0.2-0.2,0.4-0.3,0.5-0.5c0.1-0.1,0.1-0.2,0.1-0.3c0.1-0.2,0.1-0.4,0.2-0.7
			c0.2-1.2,0.4-2.4,0.6-3.6C212.9,33,212.8,32.7,212.8,32.5z M216.6,28.6c-1.1,0.3-1.8,4.9-1.8,7.2c0,0.1,0.1,0.1,0.1,0
			C215.7,34.9,217,29.7,216.6,28.6z M172.9,36.1c0,0,0.1,0,0.1,0c0-0.2,0-0.3,0-0.5c-0.1-0.8-0.1-1.6-0.2-2.4
			c-0.2-1.5-0.5-2.9-1.2-4.3c-0.1-0.1-0.2-0.2-0.3-0.3c0,0.1-0.1,0.3-0.1,0.4c0.1,0.9,0.2,1.9,0.3,2.8
			C171.6,33.4,172.3,34.7,172.9,36.1z M169.7,34.6c0-0.2,0-0.4-0.1-0.6c-0.1-1-0.3-2-0.4-3c-0.3-1.6-0.6-3.2-1-4.8
			c-0.2-0.7-0.7-1.3-1-1.9c-0.1-0.1-0.3-0.1-0.4-0.2c0,0.1-0.1,0.2-0.1,0.3c0.2,1.3,0.4,2.7,0.6,4c0.2,1.3,0.3,2.5,0.6,3.8
			c0.2,1,0.4,2,0.7,2.9c0.1,0.4,0.4,0.5,0.8,0.2C169.5,35.4,169.7,34.7,169.7,34.6z M221.2,24.8c0-0.2-0.1-0.4-0.1-0.6
			c-0.2,0.1-0.4,0.2-0.6,0.4c-0.1,0.1-0.2,0.2-0.2,0.4c-0.9,1.4-1.1,3-1.4,4.6c-0.3,1.5-0.5,3.1-0.7,4.7c0,0.4,0,0.8,0.2,1.1
			c0.1,0.2,0.4,0.3,0.6,0.3c0.1,0,0.3-0.2,0.4-0.3c0.2-0.4,0.4-0.8,0.4-1.2c0.3-1.7,0.5-3.3,0.8-5C220.7,27.8,220.9,26.3,221.2,24.8
			z M162.9,24.7c-0.1,0.4-0.3,0.8-0.3,1.2c-0.2,1.7-0.3,3.4-0.4,5.2c-0.2,2.4-0.3,4.8-0.4,7.3c-0.1,1.6-0.1,3.1,0.6,4.6
			c1.3,2.7,2.5,5.5,4.2,8c1,1.4,1.9,2.8,3.5,3.6c2,1,4,2.1,6,3.1c3.5,1.6,7,3.1,10.5,4.7c1.6,0.8,3.2,1.8,4.7,2.8
			c0.7,0.4,1.2,1.1,1.9,1.6c0.6,0.5,0.7,0.5,1.3,0c1.3-1.1,2.5-2.2,4.1-3c3-1.5,6.1-2.9,9.1-4.3c3.3-1.5,6.7-2.9,9.8-4.8
			c0.9-0.5,1.7-1.1,2.4-1.9c2.1-2.7,3.7-5.7,5.1-8.8c0.3-0.7,0.6-1.3,0.8-2c0.5-1.7,0.2-3.4,0.1-5.1c-0.1-2.2-0.3-4.4-0.4-6.6
			c-0.1-1.2-0.1-2.4-0.2-3.7c0-0.4-0.2-0.8-0.3-1.2c-0.1-0.4-0.3-0.5-0.6-0.2c-0.3,0.4-0.7,0.8-0.8,1.3c-0.3,1.5-0.5,2.9-0.7,4.4
			c-0.2,1.5-0.5,3-0.7,4.5c-0.3,1.6-0.5,3.3-0.9,4.9c-0.3,1.3-0.6,2.7-1.1,4c-0.7,1.9-2.1,3.3-3.8,4.4c-1.5,0.9-3.1,1.7-4.6,2.5
			c-0.9,0.4-1.8,0.6-2.7,0.9c-0.4,0.1-0.6,0-0.7-0.5c-0.3-1.1,0.1-2,1-2.6c1.4-0.8,2.8-1.5,4.2-2.3c1.6-0.8,3.1-1.7,3.7-3.5
			c0.4-1,0.7-2,0.3-3c-0.1-0.3-0.2-0.5-0.6-0.3c-0.7,0.3-1.5,0.6-2.2,1c-1.9,0.9-3.7,1.9-5.6,2.8c-2.4,1.2-4.8,2.3-7.2,3.5
			c-1.3,0.7-2.6,1.5-3.6,2.5c-1.8,1.8-2.6,4-3.3,6.4c-0.4,1.5-0.7,2.9-1,4.4c0,0.2-0.1,0.3-0.2,0.6c-0.1-0.2-0.1-0.2-0.1-0.3
			c-0.5-2.1-1-4.3-1.6-6.4c-0.6-2.1-1.7-3.8-3.4-5.2c-1.8-1.5-3.9-2.4-5.9-3.4c-2.3-1.1-4.6-2.2-6.8-3.4c-1.8-0.9-3.6-1.8-5.5-2.7
			c-0.2,0.4-0.3,0.6-0.3,0.9c-0.2,1.7,0.3,3.1,1.4,4.3c1,1.1,2.3,1.7,3.5,2.3c1.1,0.6,2.3,1.1,3.3,1.8c1.1,0.7,1.4,1.7,1,2.8
			c-0.1,0.3-0.2,0.4-0.5,0.3c-0.5-0.1-1.1-0.2-1.6-0.4c-1.6-0.7-3.1-1.4-4.6-2.2c-1.1-0.6-2.1-1.3-3.1-2.2c-1.8-1.6-2.5-3.7-3-5.9
			c-0.3-1.7-0.6-3.5-0.9-5.2c-0.5-3.1-1-6.1-1.4-9.2C164.2,25.9,163.8,25.2,162.9,24.7z M193.9,48.9c0.1-0.1,0.2-0.1,0.2-0.2
			c2.1-2.8,4.9-4.7,8-6.1c1.3-0.6,2.7-1.2,4.1-1.7c1-0.4,1.5-1.1,1.7-2c0.5-1.8,0.9-3.6,1.4-5.4c0.4-1.5,0.8-3.1,1.6-4.4
			c0.2-0.4,0.5-0.7,0.8-1c0.6-0.5,1.1-1.1,1.4-1.8c0.4-0.8,1-1.3,1.7-1.7c0.3-0.2,0.6-0.4,1-0.6c0.8-0.5,1.2-1.2,1.6-2
			c1.2-2.5,3.8-4.1,6.6-3.8c1.8,0.2,2.9,1.3,3.6,2.9c0.4,1.1,0.6,2.2,0.7,3.4c0.2,2.5,0.4,5.1,0.6,7.6c0.2,2.9,0.4,5.7,0.3,8.6
			c-0.1,1.1-0.4,2.2-0.9,3.2c-1.9,3.9-4.1,7.6-6.4,11.2c-1,1.5-2.4,2.5-4,3.2c-3,1.3-6,2.6-8.9,4c-2.9,1.3-5.8,2.5-8.5,4.2
			c-1.4,0.9-2.7,1.9-4.1,2.8c-0.5,0.3-0.9,0.6-1.4,0.9c-0.9,0.6-1.8,0.4-2.7-0.2c-0.9-0.6-1.8-1.4-2.7-2c-1.5-0.9-2.9-1.9-4.5-2.7
			c-3.2-1.6-6.4-3-9.7-4.4c-2.2-1-4.3-2-6.5-3c-1.4-0.6-2.5-1.6-3.3-2.9c-1.5-2.5-2.9-4.9-4.3-7.4c-0.9-1.5-1.6-3.1-2.3-4.7
			c-0.3-0.8-0.5-1.7-0.6-2.6c-0.1-1.4,0-2.9,0.1-4.3c0.1-1.6,0.2-3.1,0.4-4.7c0.1-1.6,0.3-3.2,0.4-4.8c0.1-1.1,0.2-2.2,0.3-3.3
			c0.1-1.2,0.5-2.4,1.2-3.4c1.1-1.5,2.6-2,4.4-1.7c2,0.3,3.5,1.3,4.6,2.9c0.2,0.3,0.4,0.7,0.6,1c0.4,1,1,1.7,1.9,2.1
			c1.2,0.6,2,1.5,2.6,2.6c0.2,0.4,0.6,0.8,1,1.1c0.8,0.6,1.2,1.4,1.5,2.3c0.6,1.9,1.1,3.8,1.7,5.7c0.3,1.1,0.6,2.2,1,3.3
			c0.2,0.8,0.8,1.3,1.6,1.6c2.5,0.8,4.8,1.9,7,3.3c1.9,1.2,3.6,2.7,5,4.5C193.7,48.8,193.8,48.9,193.9,48.9z"/>
		<path class="st3" d="M204.3,36.7c0-0.1,0-0.2,0-0.3c0-4.3,0-8.5,0-12.8c0-0.2-0.1-0.4-0.3-0.5c-3.3-2.2-6.5-4.3-9.8-6.5
			c-0.3-0.2-0.4-0.2-0.7,0c-3.3,2.2-6.5,4.3-9.8,6.5c-0.2,0.1-0.3,0.4-0.3,0.6c0,4.2,0,8.3,0,12.5c0,0.4,0.1,0.5,0.5,0.5
			c1.6,0,3.1,0,4.7,0c0.4,0,0.5-0.1,0.5-0.5c0-1.7,0-3.4,0-5.1c0-0.4,0.1-0.6,0.6-0.6c2.5,0,4.9,0,7.4,0c0.4,0,1.1-0.1,1.3,0.1
			c0.2,0.3,0.1,0.9,0.1,1.3c0,1.5,0,2.9,0,4.4c0,0.2-0.1,0.5,0.3,0.5C200.7,36.7,202.4,36.7,204.3,36.7z M207.1,25.1
			c0,0.2,0,0.3,0,0.5c0,4.3,0,8.7,0,13c0,0.6,0,0.7-0.6,0.7c-8.4,0-16.8,0-25.1,0c-0.6,0-0.6,0-0.6-0.7c0-4.4,0-13.7,0-13.7
			s-1,0.7-1.4,1c-0.2,0.2-0.4,0.2-0.7,0c-0.8-0.9-1.6-1.8-2.4-2.7c-0.3-0.3-0.2-0.5,0.1-0.7c2.4-1.6,16.2-10.8,17.4-11.5
			c0.1-0.1,0.4,0,0.5,0c2.6,1.7,16.8,11.1,17.4,11.5c0.3,0.2,0.3,0.4,0.1,0.6c-0.8,0.9-1.6,1.8-2.3,2.7c-0.2,0.3-0.4,0.3-0.7,0.1
			c-0.4-0.3-0.9-0.6-1.3-0.9C207.2,25,207.1,25,207.1,25.1z"/>
	</g>
</g>
<g>
	<defs>
		<rect id="SVGID_00000012454509067600530480000008360781592828342181_" x="295.1" y="0.3" width="78.3" height="108.3"/>
	</defs>
	<clipPath id="SVGID_00000016760823018568990730000004884153719502136491_">
		<use xlink:href="#SVGID_00000012454509067600530480000008360781592828342181_"  style="overflow:visible;"/>
	</clipPath>
	<g style="clip-path:url(#SVGID_00000016760823018568990730000004884153719502136491_);">
		<path class="st3" d="M307.8,89.1c0,0.5-0.1,1-0.3,1.4c-0.2,0.4-0.4,0.8-0.8,1.2c-0.3,0.3-0.8,0.6-1.3,0.8
			c-0.5,0.2-1.1,0.3-1.8,0.3c-0.8,0-1.4-0.1-2-0.4c-0.6-0.2-1-0.6-1.4-1c-0.4-0.4-0.6-0.9-0.8-1.5c-0.2-0.6-0.3-1.3-0.3-2
			c0-0.7,0.1-1.4,0.3-2c0.2-0.6,0.5-1.1,0.9-1.6c0.4-0.4,0.9-0.8,1.4-1c0.6-0.2,1.2-0.4,2-0.4c1.2,0,2.1,0.3,2.7,0.9
			c0.7,0.6,1.1,1.4,1.2,2.5l-2.5,0.3c0-0.2-0.1-0.4-0.2-0.6c-0.1-0.2-0.2-0.3-0.3-0.5c-0.1-0.1-0.3-0.2-0.4-0.3
			c-0.2-0.1-0.4-0.1-0.6-0.1c-1.2,0-1.8,0.9-1.8,2.7c0,0.5,0,0.9,0.1,1.3c0.1,0.4,0.2,0.6,0.4,0.9c0.2,0.2,0.4,0.4,0.6,0.5
			c0.2,0.1,0.5,0.1,0.7,0.1c0.9,0,1.4-0.5,1.6-1.5L307.8,89.1L307.8,89.1z"/>
		<path class="st3" d="M316.4,86.1c0,0.6-0.1,1.1-0.3,1.6c-0.2,0.5-0.6,0.8-1.1,1.1l1.9,3.7h-2.7l-1.5-3.2h-1.4v3.2H309v-9.4h3.7
			c0.7,0,1.3,0.1,1.8,0.2c0.5,0.2,0.9,0.4,1.2,0.7c0.3,0.3,0.5,0.6,0.6,1C316.4,85.4,316.4,85.8,316.4,86.1z M311.4,87.4h1.2
			c0.5,0,0.9-0.1,1.1-0.3c0.2-0.2,0.3-0.5,0.3-0.9c0-0.3-0.1-0.6-0.3-0.8c-0.2-0.2-0.6-0.3-1.1-0.3h-1.2V87.4z"/>
		<path class="st3" d="M317.9,83.2h6.7v2.1h-4.3v1.5h4v2.1h-4v1.7h4.5l-0.2,2.1h-6.8V83.2L317.9,83.2z M322,82.4h-2.2l1.7-2h2.7
			L322,82.4z"/>
		<path class="st3" d="M326.2,92.6v-9.4h3.7c1.6,0,2.7,0.4,3.5,1.2c0.8,0.8,1.2,1.9,1.2,3.4c0,1.5-0.4,2.7-1.3,3.6
			c-0.8,0.8-2.1,1.2-3.6,1.2H326.2z M328.7,90.4h1.1c0.8,0,1.3-0.2,1.7-0.7c0.4-0.5,0.5-1.1,0.5-1.9c0-0.8-0.2-1.5-0.5-1.9
			c-0.3-0.4-0.9-0.6-1.6-0.6h-1.2V90.4L328.7,90.4z"/>
		<path class="st3" d="M336,83.2h2.5v9.4H336V83.2z"/>
		<path class="st3" d="M342.4,85.3h-2.7v-2.1h7.9v2.1H345v7.2h-2.5V85.3z"/>
		<path class="st3" d="M352.8,82.9c0.7,0,1.4,0.1,2,0.3c0.6,0.2,1,0.6,1.4,1c0.4,0.4,0.7,0.9,0.9,1.5c0.2,0.6,0.3,1.3,0.3,2
			c0,0.8-0.1,1.4-0.3,2.1c-0.2,0.6-0.5,1.1-0.9,1.6c-0.4,0.4-0.9,0.8-1.5,1c-0.6,0.2-1.2,0.3-2,0.3c-0.7,0-1.4-0.1-2-0.3
			c-0.6-0.2-1-0.6-1.4-1c-0.4-0.4-0.7-0.9-0.9-1.5c-0.2-0.6-0.3-1.3-0.3-2c0-0.8,0.1-1.4,0.3-2.1c0.2-0.6,0.5-1.1,0.9-1.6
			c0.4-0.4,0.9-0.8,1.5-1C351.4,83,352,82.9,352.8,82.9z M350.7,87.9c0,0.9,0.2,1.6,0.5,2.1c0.3,0.5,0.8,0.7,1.5,0.7
			c0.7,0,1.2-0.2,1.5-0.7c0.3-0.5,0.5-1.2,0.5-2.1c0-0.9-0.2-1.6-0.5-2.1c-0.3-0.5-0.8-0.7-1.5-0.7c-0.7,0-1.2,0.2-1.5,0.7
			C350.9,86.3,350.7,87,350.7,87.9z"/>
		<path class="st3" d="M360.8,89.5c0.1,0.4,0.2,0.8,0.5,1c0.3,0.2,0.7,0.3,1.2,0.3c0.4,0,0.8-0.1,1-0.2c0.2-0.2,0.3-0.4,0.3-0.7
			c0-0.2-0.1-0.4-0.2-0.5c-0.2-0.1-0.4-0.3-0.8-0.3l-1.3-0.2c-1-0.2-1.8-0.5-2.3-1c-0.5-0.5-0.7-1.1-0.7-1.9c0-1,0.3-1.7,1-2.2
			c0.7-0.5,1.6-0.7,2.8-0.7c0.7,0,1.3,0.1,1.8,0.2c0.5,0.2,0.9,0.4,1.2,0.6c0.3,0.3,0.5,0.6,0.7,0.9c0.2,0.3,0.3,0.7,0.3,1.1
			l-2.4,0.2c-0.1-0.4-0.2-0.7-0.5-0.8c-0.2-0.2-0.6-0.3-1-0.3c-0.4,0-0.7,0.1-1,0.2c-0.2,0.1-0.3,0.3-0.3,0.6c0,0.2,0.1,0.4,0.2,0.5
			c0.2,0.1,0.4,0.2,0.8,0.3l1.3,0.2c1.1,0.2,1.9,0.6,2.4,1.1c0.5,0.5,0.7,1.1,0.7,1.8c0,0.5-0.1,0.9-0.2,1.3c-0.2,0.4-0.4,0.7-0.7,1
			c-0.3,0.3-0.7,0.5-1.2,0.6s-1.1,0.2-1.8,0.2c-2.6,0-4-1.1-4.1-3.3L360.8,89.5L360.8,89.5z"/>
		<path class="st3" d="M295.1,99h3.9c0.7,0,1.2,0.1,1.6,0.2c0.4,0.1,0.8,0.3,1,0.5c0.3,0.2,0.4,0.5,0.5,0.8c0.1,0.3,0.2,0.6,0.2,0.9
			c0,0.4-0.1,0.8-0.3,1.1c-0.2,0.3-0.5,0.6-0.9,0.8c0.5,0.3,0.9,0.6,1.1,0.9c0.2,0.4,0.3,0.8,0.3,1.3c0,0.4-0.1,0.7-0.2,1.1
			c-0.1,0.3-0.3,0.6-0.6,0.9c-0.3,0.3-0.6,0.5-1.1,0.6c-0.5,0.2-1,0.2-1.7,0.2h-4V99z M297.5,102.6h1.4c0.4,0,0.7-0.1,0.9-0.2
			c0.2-0.1,0.2-0.4,0.2-0.6c0-0.3-0.1-0.5-0.3-0.6c-0.2-0.1-0.5-0.2-1-0.2h-1.2V102.6z M297.5,106.5h1.4c0.5,0,0.9-0.1,1.1-0.3
			c0.2-0.2,0.3-0.4,0.3-0.8s-0.1-0.6-0.3-0.7c-0.2-0.2-0.5-0.3-1-0.3h-1.5V106.5z"/>
		<path class="st3" d="M309.2,99l3.3,9.4h-2.6l-0.5-1.8h-3.2l-0.5,1.8h-2.5l3.3-9.4H309.2z M306.8,104.5h1.9l-1-3.2L306.8,104.5z"/>
		<path class="st3" d="M313.6,99h2.2l3.4,5.4V99h2.4v9.4h-2.2l-3.4-5.4v5.4h-2.4L313.6,99L313.6,99z"/>
		<path class="st3" d="M331.6,104.9c0,0.5-0.1,1-0.3,1.4c-0.2,0.4-0.4,0.8-0.8,1.2c-0.3,0.3-0.8,0.6-1.3,0.8
			c-0.5,0.2-1.1,0.3-1.8,0.3c-0.8,0-1.4-0.1-2-0.4c-0.6-0.2-1-0.6-1.4-1c-0.4-0.4-0.6-0.9-0.8-1.5c-0.2-0.6-0.3-1.3-0.3-2
			c0-0.7,0.1-1.4,0.3-2c0.2-0.6,0.5-1.1,0.9-1.6c0.4-0.4,0.9-0.8,1.4-1c0.6-0.2,1.2-0.4,2-0.4c1.2,0,2.1,0.3,2.7,0.9
			c0.7,0.6,1.1,1.4,1.2,2.5l-2.5,0.3c0-0.2-0.1-0.4-0.2-0.6c-0.1-0.2-0.2-0.3-0.3-0.5c-0.1-0.1-0.3-0.2-0.4-0.3
			c-0.2-0.1-0.4-0.1-0.6-0.1c-1.2,0-1.8,0.9-1.8,2.7c0,0.5,0,0.9,0.1,1.3c0.1,0.4,0.2,0.6,0.4,0.9c0.2,0.2,0.4,0.4,0.6,0.5
			c0.2,0.1,0.5,0.1,0.7,0.1c0.9,0,1.4-0.5,1.6-1.5L331.6,104.9L331.6,104.9z"/>
		<path class="st3" d="M338,99l3.3,9.4h-2.6l-0.5-1.8h-3.2l-0.5,1.8h-2.5l3.3-9.4H338z M335.5,104.5h1.9l-1-3.2L335.5,104.5z"/>
		<path class="st3" d="M349.8,101.9c0,0.6-0.1,1.1-0.3,1.6c-0.2,0.5-0.6,0.8-1.1,1.1l1.9,3.8h-2.7l-1.5-3.2h-1.4v3.2h-2.4V99h3.7
			c0.7,0,1.3,0.1,1.8,0.2c0.5,0.2,0.9,0.4,1.2,0.7c0.3,0.3,0.5,0.6,0.6,1C349.7,101.2,349.8,101.6,349.8,101.9z M344.7,103.2h1.2
			c0.5,0,0.9-0.1,1.1-0.3c0.2-0.2,0.3-0.5,0.3-0.9c0-0.3-0.1-0.6-0.3-0.8c-0.2-0.2-0.6-0.3-1.1-0.3h-1.2V103.2z"/>
		<path class="st3" d="M351.3,99h2.5v9.4h-2.5V99z"/>
		<path class="st3" d="M359.8,98.7c0.7,0,1.4,0.1,2,0.3c0.6,0.2,1,0.6,1.4,1c0.4,0.4,0.7,0.9,0.9,1.5c0.2,0.6,0.3,1.3,0.3,2
			c0,0.8-0.1,1.4-0.3,2.1c-0.2,0.6-0.5,1.1-0.9,1.6c-0.4,0.4-0.9,0.8-1.5,1c-0.6,0.2-1.2,0.3-2,0.3c-0.7,0-1.4-0.1-2-0.3
			c-0.6-0.2-1-0.6-1.4-1c-0.4-0.4-0.7-0.9-0.9-1.5c-0.2-0.6-0.3-1.3-0.3-2c0-0.8,0.1-1.4,0.3-2.1c0.2-0.6,0.5-1.1,0.9-1.6
			c0.4-0.4,0.9-0.8,1.5-1C358.4,98.8,359.1,98.7,359.8,98.7z M357.8,103.7c0,0.9,0.2,1.6,0.5,2.1c0.3,0.5,0.8,0.7,1.5,0.7
			c0.7,0,1.2-0.2,1.5-0.7c0.3-0.5,0.5-1.2,0.5-2.1c0-0.9-0.2-1.6-0.5-2.1c-0.3-0.5-0.8-0.7-1.5-0.7c-0.7,0-1.2,0.2-1.5,0.7
			C358,102.1,357.8,102.7,357.8,103.7z"/>
		<path class="st3" d="M367.9,105.3c0.1,0.4,0.2,0.8,0.5,1c0.3,0.2,0.7,0.3,1.2,0.3c0.4,0,0.8-0.1,1-0.2c0.2-0.2,0.3-0.4,0.3-0.7
			c0-0.2-0.1-0.4-0.2-0.5c-0.2-0.1-0.4-0.3-0.8-0.3l-1.3-0.2c-1-0.2-1.8-0.5-2.3-1c-0.5-0.5-0.7-1.1-0.7-1.9c0-1,0.3-1.7,1-2.2
			c0.7-0.5,1.6-0.7,2.8-0.7c0.7,0,1.3,0.1,1.8,0.2c0.5,0.2,0.9,0.4,1.2,0.6c0.3,0.3,0.5,0.6,0.7,0.9c0.2,0.3,0.3,0.7,0.3,1.1
			l-2.4,0.2c-0.1-0.4-0.2-0.7-0.5-0.8c-0.2-0.2-0.6-0.3-1-0.3c-0.4,0-0.7,0.1-1,0.2c-0.2,0.1-0.3,0.3-0.3,0.6c0,0.2,0.1,0.4,0.2,0.5
			c0.2,0.1,0.4,0.2,0.8,0.3l1.3,0.2c1.1,0.2,1.9,0.6,2.4,1.1c0.5,0.5,0.7,1.1,0.7,1.8c0,0.5-0.1,0.9-0.2,1.3c-0.2,0.4-0.4,0.7-0.7,1
			c-0.3,0.3-0.7,0.5-1.2,0.6c-0.5,0.2-1.1,0.2-1.8,0.2c-2.6,0-4-1.1-4.1-3.3L367.9,105.3L367.9,105.3z"/>
		<path class="st3" d="M367.3,62.8c3.9-6.8,2.3-15.5-3.8-20.5v-9.6h1.5c0.8,0,1.5-0.7,1.5-1.5v-4.4h1.5c0.8,0,1.5-0.7,1.5-1.5
			c0-0.5-0.2-0.9-0.6-1.2L335,0.6c-0.5-0.3-1.2-0.3-1.7,0l-33.9,23.6c-0.7,0.5-0.8,1.4-0.4,2.1c0.3,0.4,0.7,0.6,1.2,0.6h1.5v4.4
			c0,0.8,0.7,1.5,1.5,1.5h1.5v23.6h-1.5c-0.8,0-1.5,0.7-1.5,1.5v4.7c-1.8,0.6-2.9,2.3-2.9,4.1v2.9c0,0.8,0.7,1.5,1.5,1.5H368
			c0.8,0,1.5-0.7,1.5-1.5v-2.9C369.4,65,368.6,63.6,367.3,62.8z M363.6,29.8h-11.8v-2.9h11.8V29.8z M360.6,32.7v7.7
			c-1.8-0.9-3.8-1.5-5.9-1.7v-6L360.6,32.7z M334.1,3.6l29.2,20.3h-58.3L334.1,3.6z M317.9,56.3h-1.5V32.7h1.5
			c0.8,0,1.5-0.7,1.5-1.5v-4.4h5.9v4.4c0,0.8,0.7,1.5,1.5,1.5h1.5v23.6h-1.5c-0.8,0-1.5,0.7-1.5,1.5v4.4h-5.9v-4.4
			C319.4,56.9,318.7,56.3,317.9,56.3z M328.2,59.2h9.5c0.3,1,0.7,2,1.2,2.9h-10.6V59.2z M331.2,56.3V32.7h5.9v23.6H331.2z
			 M338.5,29.8h-10.3v-2.9H340v2.9H338.5z M340,32.7h1.5c0.8,0,1.5-0.7,1.5-1.5v-4.4h5.9v4.4c0,0.8,0.7,1.5,1.5,1.5h1.5v6
			c-4.7,0.4-9,2.9-11.8,6.8V32.7L340,32.7z M304.7,26.8h11.8v2.9h-11.8V26.8z M313.5,32.7v23.6h-5.9V32.7H313.5z M304.7,59.2h11.8
			v2.9h-11.8V59.2z M301.7,68v-1.5c0-0.8,0.7-1.5,1.5-1.5h37.6c0.9,1.1,2,2.1,3.2,2.9H301.7z M366.5,68h-4c1.1-0.8,2.2-1.7,3.1-2.8
			c0.5,0.2,0.9,0.8,0.9,1.3V68z M353.3,68c-7.3,0-13.2-5.9-13.2-13.2c0-7.3,5.9-13.2,13.2-13.2s13.2,5.9,13.2,13.2
			C366.5,62.1,360.6,68,353.3,68z"/>
		<path class="st3" d="M351.2,18.3L335.1,6.5l-1.8,2.4l12.5,9.1h-26.4v2.9h30.9c0.7,0,1.3-0.4,1.5-1C352,19.3,351.8,18.6,351.2,18.3
			z"/>
		<path class="st3" d="M356.2,47.4h-1.5v-2.9h-2.9v2.9h-1.5c-1.6,0-2.9,1.3-2.9,2.9v2.9c0,1.6,1.3,2.9,2.9,2.9h5.9v2.9h-5.9v-1.5
			h-2.9v1.5c0,1.6,1.3,2.9,2.9,2.9h1.5v2.9h2.9v-2.9h1.5c1.6,0,2.9-1.3,2.9-2.9v-2.9c0-1.6-1.3-2.9-2.9-2.9h-5.9v-2.9h5.9v1.5h2.9
			v-1.5C359.1,48.8,357.8,47.4,356.2,47.4z"/>
	</g>
</g>
</svg>
