<svg width="543" height="109" viewBox="0 0 543 109" fill="none" xmlns="http://www.w3.org/2000/svg">
<g clip-path="url(#clip0)">
<path d="M299.414 36.353C300.764 36.1023 302.507 35.9043 304.389 35.9043C306.357 35.9043 307.818 36.155 309.085 36.912C310.349 37.5562 311.277 38.7594 311.277 40.3536C311.277 42.7324 309.506 44.2439 307.455 44.833V44.9157C309.282 45.4747 310.435 46.9586 310.435 49.0291C310.435 51.0444 309.34 52.5284 307.848 53.5085C306.246 54.5713 303.857 55.0475 300.708 55.0475C298.571 55.0475 296.858 54.8796 295.93 54.6841L299.414 36.353ZM300.428 51.8039C300.905 51.8591 301.384 51.8867 301.975 51.8867C304.167 51.8867 306.163 51.0194 306.163 48.9188C306.163 47.0438 304.589 46.4848 302.704 46.4848H301.44L300.428 51.8039ZM302.058 43.5471H303.408C305.628 43.5471 307.147 42.5945 307.147 41.0003C307.147 39.6292 306.022 39.0401 304.475 39.0401C303.771 39.0401 303.211 39.0953 302.901 39.1805L302.058 43.5471Z" fill="#FAF7F2"/>
<path d="M321.089 54.9121C321.117 54.0999 321.203 53.1775 321.286 52.1974H321.203C319.939 54.4634 318.195 55.2204 316.593 55.2204C314.121 55.2204 312.433 53.3179 312.433 50.4628C312.433 45.8455 315.498 40.9175 322.272 40.9175C323.902 40.9175 325.673 41.2258 326.826 41.5893L325.366 48.7558C325.028 50.5179 324.775 53.2051 324.831 54.9146H321.089V54.9121ZM322.27 44.0784C321.96 44.0232 321.566 43.9656 321.175 43.9656C318.561 43.9656 316.649 47.1565 316.649 49.7033C316.649 51.0468 317.183 51.9693 318.306 51.9693C319.515 51.9693 321.006 50.5981 321.624 47.2392L322.27 44.0784Z" fill="#FAF7F2"/>
<path d="M327.808 54.9121L329.551 45.6751C329.889 43.9405 330.114 42.429 330.283 41.2258H333.881L333.601 43.4918H333.656C334.951 41.6996 336.664 40.9175 338.49 40.9175C340.738 40.9175 342.005 42.2886 342.005 44.6398C342.005 45.2565 341.891 46.2917 341.78 46.9635L340.261 54.9121H336.215L337.648 47.327C337.731 46.8507 337.789 46.2917 337.789 45.7879C337.789 44.8354 337.451 44.1636 336.439 44.1636C335.117 44.1636 333.57 45.8155 333.01 48.8385L331.857 54.9121H327.808V54.9121Z" fill="#FAF7F2"/>
<path d="M350.692 41.2233L348.189 54.4359C347.768 56.7871 347.177 58.2986 346.276 59.3063C345.376 60.3139 343.943 60.7626 342.51 60.7626C341.891 60.7626 341.215 60.7075 340.569 60.5395L341.046 57.4889C341.326 57.5441 341.581 57.5717 341.947 57.5717C342.875 57.5717 343.663 57.0954 344.112 54.6339L346.642 41.2258H350.692V41.2233ZM349.034 39.5163C347.909 39.5163 347.094 38.7593 347.094 37.5561C347.094 36.185 348.161 35.26 349.428 35.26C350.608 35.26 351.451 36.0446 351.451 37.2478C351.451 38.6741 350.356 39.5138 349.062 39.5138H349.034V39.5163Z" fill="#FAF7F2"/>
<path d="M362.865 54.1276C361.263 54.9397 359.268 55.218 357.749 55.218C353.813 55.218 351.789 52.9795 351.789 49.4251C351.789 45.254 354.825 40.915 359.8 40.915C362.583 40.915 364.579 42.4541 364.579 45.0009C364.579 48.5001 361.178 49.7585 355.667 49.6181C355.667 50.0091 355.809 50.6258 356.089 51.0168C356.624 51.7162 357.549 52.0796 358.73 52.0796C360.221 52.0796 361.485 51.7437 362.58 51.2123L362.865 54.1276ZM360.784 45.0034C360.784 44.3316 360.221 43.8553 359.293 43.8553C357.408 43.8553 356.341 45.3944 356.061 46.6828C359.21 46.7104 360.784 46.2642 360.784 45.031V45.0034Z" fill="#FAF7F2"/>
<path d="M365.452 54.9121L366.998 46.768C367.392 44.6975 367.561 42.4014 367.702 41.2258H371.217C371.133 42.1508 371.048 43.0732 370.964 44.0257H371.048C372.004 42.2059 373.55 40.9175 375.433 40.9175C375.685 40.9175 375.937 40.9175 376.192 40.9451L375.405 44.8629C375.208 44.8629 374.983 44.8354 374.759 44.8354C372.173 44.8354 370.964 47.1315 370.457 49.8186L369.501 54.9121H365.452Z" fill="#FAF7F2"/>
<path d="M386.001 54.491C385.131 54.9096 383.723 55.218 382.093 55.218C378.692 55.218 376.303 53.1475 376.303 49.593C376.303 44.7226 380.042 40.915 385.27 40.915C386.451 40.915 387.462 41.1381 388.053 41.3637L387.069 44.4695C386.592 44.2739 386.029 44.1336 385.214 44.1336C382.318 44.1336 380.547 46.5675 380.547 49.1444C380.547 51.0193 381.727 51.9719 383.246 51.9719C384.427 51.9719 385.27 51.6911 385.974 51.4129L386.001 54.491Z" fill="#FAF7F2"/>
<path d="M388.166 54.9121L390.78 41.2258H394.827L392.213 54.9121H388.166ZM393.283 39.5163C392.188 39.5163 391.343 38.7593 391.343 37.5561C391.37 36.185 392.438 35.26 393.676 35.26C394.857 35.26 395.7 36.0446 395.7 37.2478C395.7 38.6741 394.605 39.5138 393.311 39.5138H393.283V39.5163Z" fill="#FAF7F2"/>
<path d="M403.375 37.501L402.671 41.2233H405.595L405.005 44.2739H402.081L401.152 48.9213C401.039 49.4527 400.928 50.1796 400.928 50.6559C400.928 51.3276 401.208 51.8039 402.081 51.8039C402.447 51.8039 402.84 51.8039 403.206 51.7487L402.729 54.9121C402.222 55.1077 401.21 55.2205 400.34 55.2205C397.923 55.2205 396.77 53.9621 396.77 52.2526C396.77 51.4956 396.853 50.7686 397.05 49.7058L398.117 44.2764H396.374L396.936 41.2259H398.708L399.212 38.6515L403.375 37.501Z" fill="#FAF7F2"/>
<path d="M419.765 46.5424C419.765 51.5532 416.336 55.2204 411.555 55.2204C408.068 55.2204 405.737 52.9544 405.737 49.5654C405.737 44.8078 409.054 40.9175 413.944 40.9175C417.628 40.9175 419.765 43.4367 419.765 46.5424ZM409.927 49.4802C409.927 51.0744 410.714 52.1397 412.12 52.1397C414.34 52.1397 415.579 48.9212 415.579 46.57C415.579 45.3116 415.044 43.9681 413.414 43.9681C411.078 43.9681 409.897 47.3545 409.927 49.4802Z" fill="#FAF7F2"/>
<path d="M289.663 38.3581C286.897 34.0843 282.071 31.2493 276.576 31.2493C271.078 31.2493 266.249 34.0893 263.484 38.3681L276.341 46.2215L289.663 38.3581ZM275.307 35.8615C275.307 35.8615 275.879 33.8988 277.6 33.9615C277.6 33.9615 281.168 34.0241 280.787 37.19C280.787 37.19 278.619 35.5432 278.238 38.0774L279.258 42.825L276.391 44.8503L273.334 42.6345L275.307 35.8615ZM292.006 44.8228L276.596 55.4008L261.145 44.8278C261.072 45.4394 261.029 46.0635 261.029 46.6977C261.029 55.2303 267.99 62.1462 276.576 62.1462C285.161 62.1462 292.122 55.2303 292.122 46.6977C292.125 46.061 292.082 45.4369 292.006 44.8228ZM277.027 60.9931C277.027 60.9931 271.676 61.0558 270.273 59.2836L271.292 53.8392L276.518 57.1956L281.551 53.6512L282.57 59.1583C282.57 59.1557 281.359 60.8653 277.027 60.9931Z" fill="#FAF7F2"/>
<path d="M263.784 62.6224V69.3226C263.784 71.8594 264.917 72.9347 266.438 72.9347C268.129 72.9347 269.211 71.8268 269.211 69.3226V62.6224H270.7V69.2224C270.7 72.6991 268.858 74.1254 266.388 74.1254C264.054 74.1254 262.298 72.7994 262.298 69.2876V62.6199H263.784V62.6224Z" fill="#FAF7F2"/>
<path d="M274.045 68.0143C274.045 67.1745 274.028 66.4852 273.977 65.8134H275.297L275.38 67.157H275.413C275.819 66.3849 276.765 65.6279 278.117 65.6279C279.25 65.6279 281.009 66.2997 281.009 69.0871V73.94H279.52V69.255C279.52 67.9441 279.031 66.8537 277.628 66.8537C276.646 66.8537 275.887 67.543 275.632 68.3652C275.564 68.5507 275.531 68.8013 275.531 69.0545V73.9425H274.043V68.0143H274.045Z" fill="#FAF7F2"/>
<path d="M288.752 62.7727C289.395 62.6374 290.41 62.5371 291.439 62.5371C292.91 62.5371 293.856 62.7903 294.568 63.3593C295.158 63.7954 295.514 64.4672 295.514 65.3571C295.514 66.4475 294.787 67.405 293.586 67.8437V67.8763C294.669 68.1445 295.935 69.0343 295.935 70.7138C295.935 71.6889 295.547 72.4258 294.971 72.9798C294.177 73.7017 292.892 74.0376 291.033 74.0376C290.019 74.0376 289.242 73.9699 288.75 73.9022V62.7727H288.752ZM290.223 67.41H291.558C293.114 67.41 294.025 66.6029 294.025 65.5125C294.025 64.1865 293.011 63.6651 291.522 63.6651C290.846 63.6651 290.458 63.7152 290.22 63.7654V67.41H290.223ZM290.223 72.8344C290.511 72.8845 290.932 72.9021 291.457 72.9021C292.978 72.9021 294.381 72.3481 294.381 70.7013C294.381 69.1572 293.046 68.518 291.439 68.518H290.223V72.8344V72.8344Z" fill="#FAF7F2"/>
<path d="M304.455 71.9948C304.455 72.6992 304.488 73.3885 304.592 73.9425H303.239L303.121 72.9173H303.07C302.613 73.5539 301.735 74.1255 300.567 74.1255C298.91 74.1255 298.064 72.9674 298.064 71.7918C298.064 69.8266 299.823 68.7512 302.984 68.7688V68.6008C302.984 67.929 302.798 66.7208 301.125 66.7208C300.363 66.7208 299.571 66.9565 298.995 67.3249L298.657 66.3498C299.334 65.9137 300.315 65.6279 301.344 65.6279C303.847 65.6279 304.455 67.3249 304.455 68.9542V71.9948V71.9948ZM303.02 69.794C301.397 69.7614 299.553 70.0446 299.553 71.6238C299.553 72.5814 300.196 73.0351 300.956 73.0351C302.021 73.0351 302.697 72.3633 302.934 71.674C302.984 71.5236 303.02 71.3556 303.02 71.2027V69.794Z" fill="#FAF7F2"/>
<path d="M307.7 68.0143C307.7 67.1745 307.682 66.4852 307.632 65.8134H308.951L309.034 67.157H309.067C309.473 66.3849 310.42 65.6279 311.772 65.6279C312.905 65.6279 314.663 66.2997 314.663 69.0871V73.94H313.175V69.255C313.175 67.9441 312.685 66.8537 311.282 66.8537C310.301 66.8537 309.542 67.543 309.287 68.3652C309.219 68.5507 309.186 68.8013 309.186 69.0545V73.9425H307.697V68.0143H307.7Z" fill="#FAF7F2"/>
<path d="M323.759 73.6393C323.37 73.8398 322.507 74.1256 321.41 74.1256C318.942 74.1256 317.335 72.4461 317.335 69.9595C317.335 67.4579 319.058 65.6431 321.73 65.6431C322.608 65.6431 323.388 65.8611 323.792 66.0617L323.454 67.2047C323.098 67.0042 322.54 66.8187 321.73 66.8187C319.853 66.8187 318.839 68.1948 318.839 69.8918C318.839 71.7718 320.055 72.9324 321.68 72.9324C322.525 72.9324 323.083 72.7143 323.507 72.5288L323.759 73.6393Z" fill="#FAF7F2"/>
<path d="M333.649 69.8115C333.649 72.8169 331.552 74.1279 329.574 74.1279C327.359 74.1279 325.654 72.5161 325.654 69.9468C325.654 67.2271 327.445 65.6304 329.711 65.6304C332.06 65.6279 333.649 67.3249 333.649 69.8115ZM327.157 69.8942C327.157 71.6739 328.189 73.0175 329.642 73.0175C331.063 73.0175 332.128 71.6914 332.128 69.8591C332.128 68.4829 331.434 66.7358 329.675 66.7358C327.919 66.7383 327.157 68.3501 327.157 69.8942Z" fill="#FAF7F2"/>
<path d="M340.799 68.468C340.799 67.4277 340.767 66.588 340.731 65.8134H342.066L342.134 67.2071H342.167C342.775 66.217 343.739 65.6279 345.073 65.6279C347.051 65.6279 348.54 67.2898 348.54 69.7589C348.54 72.6816 346.749 74.1255 344.821 74.1255C343.739 74.1255 342.793 73.6542 342.303 72.8496H342.27V77.2663H340.799V68.468ZM342.27 70.6337C342.27 70.8518 342.303 71.0548 342.338 71.2378C342.608 72.263 343.504 72.9674 344.569 72.9674C346.141 72.9674 347.054 71.6915 347.054 69.8266C347.054 68.1972 346.191 66.8035 344.619 66.8035C343.605 66.8035 342.659 67.5255 342.371 68.6334C342.321 68.8189 342.27 69.037 342.27 69.2375V70.6337Z" fill="#FAF7F2"/>
<path d="M357.01 71.9948C357.01 72.6992 357.043 73.3885 357.146 73.9425H355.794L355.675 72.9173H355.625C355.168 73.5539 354.29 74.1255 353.122 74.1255C351.464 74.1255 350.619 72.9674 350.619 71.7918C350.619 69.8266 352.377 68.7512 355.539 68.7688V68.6008C355.539 67.929 355.352 66.7208 353.679 66.7208C352.917 66.7208 352.125 66.9565 351.55 67.3249L351.212 66.3498C351.888 65.9137 352.869 65.6279 353.899 65.6279C356.402 65.6279 357.01 67.3249 357.01 68.9542V71.9948V71.9948ZM355.574 69.794C353.952 69.7614 352.107 70.0446 352.107 71.6238C352.107 72.5814 352.751 73.0351 353.51 73.0351C354.575 73.0351 355.251 72.3633 355.488 71.674C355.539 71.5236 355.572 71.3556 355.572 71.2027V69.794H355.574Z" fill="#FAF7F2"/>
<path d="M360.254 68.3501C360.254 67.3925 360.237 66.5704 360.186 65.8134H361.488L361.538 67.4101H361.607C361.978 66.3197 362.876 65.6304 363.872 65.6304C364.041 65.6304 364.16 65.6479 364.294 65.6805V67.0742C364.142 67.0416 363.988 67.0241 363.787 67.0241C362.739 67.0241 361.995 67.8137 361.791 68.9216C361.758 69.1221 361.723 69.3577 361.723 69.6109V73.9449H360.252V68.3501H360.254Z" fill="#FAF7F2"/>
<path d="M372.292 71.9948C372.292 72.6992 372.325 73.3885 372.428 73.9425H371.076L370.957 72.9173H370.907C370.45 73.5539 369.572 74.1255 368.404 74.1255C366.746 74.1255 365.901 72.9674 365.901 71.7918C365.901 69.8266 367.66 68.7512 370.821 68.7688V68.6008C370.821 67.929 370.634 66.7208 368.961 66.7208C368.199 66.7208 367.407 66.9565 366.832 67.3249L366.494 66.3498C367.17 65.9137 368.152 65.6279 369.181 65.6279C371.684 65.6279 372.292 67.3249 372.292 68.9542V71.9948V71.9948ZM370.854 69.794C369.231 69.7614 367.387 70.0446 367.387 71.6238C367.387 72.5814 368.03 73.0351 368.79 73.0351C369.855 73.0351 370.531 72.3633 370.768 71.674C370.818 71.5236 370.851 71.3556 370.851 71.2027V69.794H370.854Z" fill="#FAF7F2"/>
<path d="M381.758 63.8657V65.8134H383.887V66.9389H381.758V71.323C381.758 72.3307 382.046 72.9022 382.873 72.9022C383.279 72.9022 383.517 72.8696 383.736 72.8019L383.804 73.9098C383.517 74.0277 383.06 74.1279 382.485 74.1279C381.791 74.1279 381.233 73.8923 380.877 73.4887C380.456 73.0526 380.302 72.3307 380.302 71.3731V66.9389H379.033V65.8134H380.302V64.3194L381.758 63.8657Z" fill="#FAF7F2"/>
<path d="M393.709 69.8115C393.709 72.8169 391.613 74.1279 389.635 74.1279C387.42 74.1279 385.714 72.5161 385.714 69.9468C385.714 67.2271 387.505 65.6304 389.771 65.6304C392.12 65.6279 393.709 67.3249 393.709 69.8115ZM387.218 69.8942C387.218 71.6739 388.25 73.0175 389.703 73.0175C391.123 73.0175 392.188 71.6914 392.188 69.8591C392.188 68.4829 391.494 66.7358 389.736 66.7358C387.977 66.7383 387.218 68.3501 387.218 69.8942Z" fill="#FAF7F2"/>
<path d="M403.496 62.0183V71.8444C403.496 72.5663 403.514 73.3885 403.564 73.9449H402.23L402.162 72.5337H402.129C401.672 73.4411 400.676 74.1279 399.338 74.1279C397.36 74.1279 395.839 72.466 395.839 69.997C395.821 67.2923 397.512 65.6304 399.507 65.6304C400.759 65.6304 401.604 66.2169 401.975 66.8737H402.008V62.0208H403.496V62.0183ZM402.008 69.1221C402.008 68.9367 401.99 68.686 401.94 68.5005C401.72 67.5605 400.908 66.7885 399.793 66.7885C398.254 66.7885 397.34 68.132 397.34 69.9293C397.34 71.5762 398.153 72.9348 399.757 72.9348C400.754 72.9348 401.667 72.2805 401.937 71.1701C401.988 70.9695 402.005 70.7665 402.005 70.5309V69.1221H402.008Z" fill="#FAF7F2"/>
<path d="M414.214 69.8115C414.214 72.8169 412.117 74.1279 410.139 74.1279C407.924 74.1279 406.219 72.5161 406.219 69.9468C406.219 67.2271 408.01 65.6304 410.276 65.6304C412.624 65.6279 414.214 67.3249 414.214 69.8115ZM407.722 69.8942C407.722 71.6739 408.754 73.0175 410.207 73.0175C411.628 73.0175 412.693 71.6914 412.693 69.8591C412.693 68.4829 411.999 66.7358 410.24 66.7358C408.482 66.7383 407.722 68.3501 407.722 69.8942Z" fill="#FAF7F2"/>
<path d="M416.732 72.4309C417.171 72.7167 417.948 73.0175 418.692 73.0175C419.775 73.0175 420.282 72.481 420.282 71.8093C420.282 71.1049 419.861 70.7189 418.761 70.3153C417.29 69.7939 416.596 68.9893 416.596 68.0142C416.596 66.7032 417.661 65.6304 419.419 65.6304C420.247 65.6304 420.973 65.866 421.43 66.1342L421.059 67.2096C420.739 67.009 420.146 66.7383 419.386 66.7383C418.508 66.7383 418.016 67.2421 418.016 67.8462C418.016 68.518 418.506 68.8213 419.57 69.2224C420.991 69.7588 421.718 70.4657 421.718 71.6739C421.718 73.1027 420.602 74.1254 418.657 74.1254C417.761 74.1254 416.934 73.8898 416.359 73.5539L416.732 72.4309Z" fill="#FAF7F2"/>
</g>
<g clip-path="url(#clip1)">
<path fill-rule="evenodd" clip-rule="evenodd" d="M71.7113 76.8983V50.8921V49.5987L70.8005 48.6827L52.0703 29.961L33.3277 48.6827L32.4169 49.5987V50.8921V76.8983H38.6624V52.1795L52.0765 38.7803L65.4783 52.1795V76.8983H71.7113ZM0 29.5835V38.4028L13.7921 52.1795V76.8983H20.0375V50.8921V49.5987L19.1205 48.6827L0 29.5835ZM84.0846 49.5987V50.8921V76.8983H90.3238V52.1795L104.104 38.4028V29.5835L84.9953 48.6827L84.0846 49.5987ZM26.0352 35.7106C31.0229 35.7106 35.0626 31.6754 35.0626 26.6932C35.0626 21.7049 31.0229 17.6697 26.0352 17.6697C21.0475 17.6697 17.0077 21.7049 17.0077 26.687C17.0077 31.6692 21.0475 35.7106 26.0352 35.7106ZM78.0869 35.7106C83.0684 35.7106 87.1082 31.6754 87.1082 26.6932C87.1143 21.7049 83.0746 17.6697 78.0869 17.6697C73.1054 17.6697 69.0657 21.7049 69.0657 26.687C69.0657 31.6692 73.1054 35.7106 78.0869 35.7106ZM78.0621 44.0286L52.0703 18.0534L26.06 44.0286L0 17.9977V26.817L22.9434 49.7348V76.8983H29.1827V49.7348L52.0703 26.8727L74.9394 49.7348V76.8983H81.1787V49.7348L104.104 26.817V17.9977L78.0621 44.0286ZM0.111526 90.6007H3.23426V80.4198H0.111526V90.6007ZM15.0127 87.2524H14.9631L9.05841 80.4198H5.96046V90.6007H8.88492V83.7804H8.9221L14.8144 90.6007H17.9309V80.4198H15.0065V87.2524H15.0127ZM20.6571 90.6007H23.7799V86.386H29.7093V84.6593H23.7799V82.2951H30.6201V80.4198H20.6571V90.6007ZM43.8918 81.7319C43.2969 81.2429 42.572 80.8654 41.7108 80.5869C40.8496 80.3084 39.8706 80.1722 38.7739 80.1722C37.6897 80.1722 36.7169 80.3084 35.8495 80.5869C34.9821 80.8654 34.2509 81.2429 33.6561 81.7319C33.0613 82.2146 32.6028 82.784 32.2868 83.44C31.9708 84.0899 31.8097 84.8016 31.8097 85.5628C31.8097 86.3055 31.9708 86.9987 32.2868 87.6423C32.6028 88.286 33.0613 88.843 33.6561 89.3196C34.2509 89.7961 34.9821 90.1675 35.8495 90.4398C36.7169 90.7121 37.6897 90.8482 38.7739 90.8482C39.8706 90.8482 40.8496 90.7121 41.7108 90.4398C42.572 90.1675 43.2969 89.7961 43.8918 89.3196C44.4866 88.843 44.9451 88.286 45.2611 87.6423C45.577 86.9987 45.7381 86.3055 45.7381 85.5628C45.7381 84.8016 45.577 84.0961 45.2611 83.44C44.9451 82.7902 44.4866 82.2208 43.8918 81.7319ZM42.4047 86.8068C42.2684 87.2091 42.0454 87.5743 41.7418 87.9023C41.4382 88.2241 41.0416 88.484 40.5522 88.6821C40.0627 88.8801 39.4679 88.973 38.7677 88.973C38.0676 88.973 37.4728 88.874 36.9833 88.6821C36.4938 88.484 36.0973 88.2303 35.7937 87.9023C35.4901 87.5805 35.2671 87.2153 35.1308 86.8068C34.9944 86.4045 34.9201 85.9837 34.9201 85.5567C34.9201 85.111 34.9882 84.6778 35.1308 84.257C35.2671 83.8361 35.4901 83.4648 35.7937 83.1368C36.0973 82.8087 36.4938 82.5426 36.9833 82.3508C37.4728 82.1527 38.0676 82.0599 38.7677 82.0599C39.4679 82.0599 40.0627 82.1589 40.5522 82.3508C41.0416 82.5488 41.4382 82.8087 41.7418 83.1368C42.0454 83.4648 42.2684 83.8423 42.4047 84.257C42.541 84.6778 42.6154 85.111 42.6154 85.5567C42.6154 85.9837 42.5472 86.3984 42.4047 86.8068ZM56.8969 87.2524H56.8474L50.9427 80.4198H47.8509V90.6007H50.7754V83.7804H50.8126L56.7049 90.6007H59.8214V80.4198H56.8969V87.2524V87.2524ZM79.3199 87.5805H79.2765L75.7387 80.4198H72.1574L77.3 90.6007H81.2406L86.5134 80.4198H82.9073L79.3199 87.5805ZM66.2218 80.4198L61.1411 90.6007H64.617L68.0682 83.44H68.1115L71.5193 90.6007H74.9704L70.0137 80.4198H66.2218ZM87.7154 90.6007H90.8381V80.4198H87.7154V90.6007ZM92.4428 82.2951H96.687V90.6007H99.8097V82.2951H104.054V80.4198H92.4428V82.2951Z" fill="#FAF7F2"/>
</g>
<g clip-path="url(#clip2)">
<path d="M156.258 88.9638C156.258 90.2742 156.258 91.2987 156.328 91.8704C156.372 92.264 156.453 92.566 156.864 92.6199C157.053 92.6469 157.356 92.6739 157.551 92.6739C157.73 92.6739 157.784 92.717 157.784 92.7817C157.784 92.8788 157.686 92.9165 157.481 92.9165C156.62 92.9165 155.755 92.8788 155.398 92.8788C155.041 92.8788 154.18 92.9165 153.661 92.9165C153.472 92.9165 153.374 92.8896 153.374 92.7817C153.374 92.7116 153.428 92.6739 153.58 92.6739C153.785 92.6739 153.948 92.6469 154.072 92.6199C154.348 92.566 154.413 92.264 154.467 91.8704C154.537 91.2987 154.537 90.2742 154.537 88.9638V86.5641C154.537 84.4879 154.537 84.1104 154.51 83.6736C154.483 83.2099 154.375 82.9888 153.921 82.8971C153.812 82.8701 153.58 82.854 153.385 82.854C153.25 82.854 153.152 82.827 153.152 82.7461C153.152 82.6383 153.261 82.6113 153.466 82.6113C153.823 82.6113 154.218 82.6221 154.575 82.6221C154.932 82.6329 155.246 82.649 155.436 82.649C155.955 82.649 158.736 82.649 159.05 82.6329C159.31 82.6221 159.472 82.6221 159.613 82.5789C159.694 82.552 159.764 82.498 159.829 82.498C159.883 82.498 159.926 82.552 159.926 82.6221C159.926 82.7191 159.856 82.8809 159.818 83.2368C159.802 83.3716 159.775 84.1805 159.748 84.3423C159.737 84.4502 159.704 84.5364 159.613 84.5364C159.515 84.5364 159.488 84.4663 159.477 84.3207C159.477 84.2129 159.477 83.9918 159.396 83.8031C159.299 83.6089 159.012 83.4094 158.493 83.3932L156.382 83.3501C156.301 83.3501 156.258 83.3932 156.258 83.5388V86.9523C156.258 87.0332 156.274 87.0764 156.355 87.0764L158.108 87.0602C158.341 87.0602 158.53 87.0602 158.725 87.044C158.985 87.0278 159.18 86.9739 159.315 86.7959C159.385 86.715 159.412 86.6611 159.493 86.6611C159.548 86.6611 159.575 86.7043 159.575 86.7852C159.575 86.866 159.504 87.2112 159.466 87.6318C159.439 87.9068 159.412 88.5323 159.412 88.6294C159.412 88.7534 159.412 88.8883 159.277 88.8883C159.196 88.8883 159.169 88.7912 159.169 88.6995C159.169 88.6025 159.142 88.4407 159.088 88.2735C159.017 88.0848 158.812 87.8367 158.39 87.7828C158.049 87.7396 156.593 87.7396 156.361 87.7396C156.29 87.7396 156.263 87.7666 156.263 87.8637V88.9638H156.258Z" fill="#FAF7F2"/>
<path d="M171.278 88.0209C171.278 84.9633 169.514 83.0651 167.268 83.0651C165.694 83.0651 163.898 83.9387 163.898 87.336C163.898 90.1725 165.472 92.4266 168.102 92.4266C169.059 92.4266 171.278 91.9629 171.278 88.0209ZM162.009 87.7621C162.009 85.4271 163.557 82.4126 167.663 82.4126C171.072 82.4126 173.193 84.3917 173.193 87.5194C173.193 90.6471 171.002 93.1169 167.523 93.1169C163.595 93.1115 162.009 90.1779 162.009 87.7621Z" fill="#FAF7F2"/>
<path d="M175.022 83.9387C174.708 83.1891 174.475 83.0381 173.983 82.9033C173.777 82.8494 173.561 82.8494 173.447 82.8494C173.323 82.8494 173.285 82.8062 173.285 82.7253C173.285 82.6175 173.436 82.6013 173.642 82.6013C174.367 82.6013 175.146 82.6445 175.628 82.6445C175.969 82.6445 176.629 82.6013 177.31 82.6013C177.473 82.6013 177.624 82.6283 177.624 82.7253C177.624 82.8224 177.543 82.8494 177.419 82.8494C177.197 82.8494 176.997 82.8656 176.883 82.9464C176.786 83.0165 176.748 83.1082 176.748 83.2322C176.748 83.4102 176.872 83.7931 177.061 84.2838L179.415 90.4799H179.469C180.059 88.9807 181.839 84.5858 182.169 83.6852C182.239 83.5073 182.293 83.3024 182.293 83.1783C182.293 83.0705 182.239 82.9626 182.115 82.9195C181.953 82.8656 181.747 82.8494 181.568 82.8494C181.444 82.8494 181.336 82.8332 181.336 82.7415C181.336 82.6337 181.46 82.6067 181.72 82.6067C182.407 82.6067 182.981 82.6498 183.159 82.6498C183.392 82.6498 184.036 82.6067 184.447 82.6067C184.625 82.6067 184.734 82.6337 184.734 82.7307C184.734 82.8278 184.652 82.8548 184.517 82.8548C184.382 82.8548 184.095 82.8548 183.846 83.0165C183.668 83.1406 183.462 83.3725 183.094 84.2461C182.559 85.5295 182.191 86.2683 181.449 87.9454C180.573 89.9352 179.929 91.4236 179.626 92.1084C179.269 92.9012 179.188 93.1169 178.998 93.1169C178.82 93.1169 178.739 92.9227 178.479 92.2864L175.022 83.9387Z" fill="#FAF7F2"/>
<path d="M187.011 86.5595C187.011 84.4833 187.011 84.1058 186.984 83.669C186.957 83.2053 186.822 82.9734 186.519 82.9033C186.368 82.8601 186.189 82.8494 186.027 82.8494C185.891 82.8494 185.81 82.8224 185.81 82.7145C185.81 82.6337 185.919 82.6067 186.14 82.6067C186.66 82.6067 187.525 82.6498 187.92 82.6498C188.261 82.6498 189.073 82.6067 189.592 82.6067C189.771 82.6067 189.879 82.6337 189.879 82.7145C189.879 82.8224 189.798 82.8494 189.657 82.8494C189.522 82.8494 189.408 82.8655 189.246 82.8925C188.878 82.9626 188.764 83.1945 188.737 83.669C188.71 84.1058 188.71 84.4887 188.71 86.5595V88.9592C188.71 90.2857 188.71 91.3589 188.764 91.9467C188.808 92.3134 188.9 92.5614 189.311 92.6153C189.5 92.6423 189.803 92.6693 190.009 92.6693C190.16 92.6693 190.225 92.7124 190.225 92.7771C190.225 92.8742 190.117 92.9119 189.966 92.9119C189.062 92.9119 188.196 92.8742 187.828 92.8742C187.515 92.8742 186.649 92.9119 186.102 92.9119C185.924 92.9119 185.827 92.8742 185.827 92.7771C185.827 92.707 185.881 92.6693 186.048 92.6693C186.254 92.6693 186.416 92.6423 186.541 92.6153C186.817 92.5614 186.898 92.3295 186.936 91.9305C187.006 91.3589 187.006 90.2803 187.006 88.9538V86.5595H187.011Z" fill="#FAF7F2"/>
<path d="M192.227 92.7556C191.984 92.6585 191.935 92.5938 191.935 92.2918C191.935 91.5423 191.995 90.7226 192.011 90.5015C192.027 90.2966 192.07 90.1456 192.195 90.1456C192.33 90.1456 192.346 90.2696 192.346 90.3775C192.346 90.5554 192.406 90.8412 192.482 91.0731C192.817 92.0815 193.721 92.4536 194.667 92.4536C196.042 92.4536 196.718 91.6231 196.718 90.9005C196.718 90.2319 196.491 89.6063 195.219 88.7165L194.516 88.2258C192.833 87.0502 192.254 86.0957 192.254 84.9903C192.254 83.4911 193.661 82.4126 195.787 82.4126C196.783 82.4126 197.427 82.5474 197.822 82.6445C197.957 82.6714 198.038 82.7146 198.038 82.8063C198.038 82.9842 197.979 83.3779 197.979 84.4456C197.979 84.7476 197.935 84.8554 197.811 84.8554C197.703 84.8554 197.659 84.7746 197.659 84.6128C197.659 84.4887 197.584 84.0681 197.259 83.7122C197.032 83.4534 196.588 83.0435 195.593 83.0435C194.462 83.0435 193.775 83.6313 193.775 84.451C193.775 85.0765 194.126 85.5565 195.398 86.4139L195.825 86.6997C197.676 87.94 198.336 88.8837 198.336 90.1779C198.336 90.9706 198 91.9089 196.897 92.5507C196.134 92.9875 195.273 93.1115 194.462 93.1115C193.574 93.1115 192.887 93.0144 192.227 92.7556Z" fill="#FAF7F2"/>
<path d="M200.446 92.7556C200.202 92.6585 200.154 92.5938 200.154 92.2918C200.154 91.5423 200.213 90.7226 200.229 90.5015C200.246 90.2966 200.289 90.1456 200.413 90.1456C200.549 90.1456 200.565 90.2696 200.565 90.3775C200.565 90.5554 200.624 90.8412 200.7 91.0731C201.035 92.0815 201.939 92.4536 202.886 92.4536C204.26 92.4536 204.936 91.6231 204.936 90.9005C204.936 90.2319 204.709 89.6063 203.438 88.7165L202.734 88.2258C201.052 87.0502 200.473 86.0957 200.473 84.9903C200.473 83.4911 201.88 82.4126 204.006 82.4126C205.001 82.4126 205.645 82.5474 206.04 82.6445C206.175 82.6714 206.257 82.7146 206.257 82.8063C206.257 82.9842 206.197 83.3779 206.197 84.4456C206.197 84.7476 206.154 84.8554 206.029 84.8554C205.921 84.8554 205.878 84.7746 205.878 84.6128C205.878 84.4887 205.802 84.0681 205.483 83.7122C205.256 83.4534 204.812 83.0435 203.816 83.0435C202.686 83.0435 201.999 83.6313 201.999 84.451C201.999 85.0765 202.35 85.5565 203.622 86.4139L204.049 86.6997C205.9 87.94 206.56 88.8837 206.56 90.1779C206.56 90.9706 206.224 91.9089 205.12 92.5507C204.358 92.9875 203.497 93.1115 202.686 93.1115C201.793 93.1115 201.106 93.0144 200.446 92.7556Z" fill="#FAF7F2"/>
<path d="M208.843 92.7556C208.599 92.6585 208.551 92.5938 208.551 92.2918C208.551 91.5423 208.61 90.7226 208.627 90.5015C208.643 90.2966 208.686 90.1456 208.81 90.1456C208.951 90.1456 208.962 90.2696 208.962 90.3775C208.962 90.5554 209.021 90.8412 209.097 91.0731C209.433 92.0815 210.336 92.4536 211.283 92.4536C212.657 92.4536 213.334 91.6231 213.334 90.9005C213.334 90.2319 213.106 89.6063 211.835 88.7165L211.132 88.2258C209.449 87.0502 208.865 86.0957 208.865 84.9903C208.865 83.4911 210.271 82.4126 212.398 82.4126C213.393 82.4126 214.032 82.5474 214.432 82.6445C214.567 82.6714 214.648 82.7146 214.648 82.8063C214.648 82.9842 214.589 83.3779 214.589 84.4456C214.589 84.7476 214.546 84.8554 214.421 84.8554C214.313 84.8554 214.27 84.7746 214.27 84.6128C214.27 84.4887 214.194 84.0681 213.869 83.7122C213.642 83.4534 213.198 83.0435 212.203 83.0435C211.072 83.0435 210.38 83.6313 210.38 84.451C210.38 85.0765 210.731 85.5565 212.003 86.4139L212.43 86.6997C214.281 87.94 214.941 88.8837 214.941 90.1779C214.941 90.9706 214.605 91.9089 213.501 92.5507C212.739 92.9875 211.878 93.1115 211.067 93.1115C210.19 93.1115 209.503 93.0144 208.843 92.7556Z" fill="#FAF7F2"/>
<path d="M220.557 83.3671L218.517 83.421C217.721 83.448 217.397 83.5181 217.186 83.8147C217.051 84.0196 216.98 84.1814 216.953 84.2946C216.926 84.4025 216.883 84.4564 216.802 84.4564C216.704 84.4564 216.677 84.3863 216.677 84.2407C216.677 84.0196 216.937 82.7793 216.964 82.6714C217.007 82.4935 217.045 82.4126 217.126 82.4126C217.235 82.4126 217.375 82.5474 217.716 82.5744C218.111 82.6175 218.636 82.6445 219.085 82.6445H224.506C224.945 82.6445 225.248 82.6013 225.453 82.5744C225.659 82.5366 225.767 82.5043 225.821 82.5043C225.918 82.5043 225.929 82.5852 225.929 82.7901C225.929 83.0759 225.886 84.0196 225.886 84.3755C225.875 84.5103 225.848 84.5912 225.762 84.5912C225.653 84.5912 225.626 84.5211 225.61 84.3162L225.594 84.1652C225.567 83.8093 225.199 83.4264 223.976 83.3994L222.25 83.3617V88.9592C222.25 90.2157 222.25 91.2942 222.32 91.882C222.364 92.2649 222.445 92.5668 222.856 92.6208C223.045 92.6477 223.348 92.6747 223.554 92.6747C223.706 92.6747 223.77 92.7178 223.77 92.7826C223.77 92.8796 223.662 92.9174 223.511 92.9174C222.607 92.9174 221.747 92.8796 221.363 92.8796C221.049 92.8796 220.183 92.9174 219.637 92.9174C219.458 92.9174 219.361 92.8796 219.361 92.7826C219.361 92.7124 219.415 92.6747 219.577 92.6747C219.783 92.6747 219.945 92.6477 220.07 92.6208C220.346 92.5668 220.427 92.2649 220.465 91.8712C220.535 91.2996 220.535 90.2211 220.535 88.9646V83.3671H220.557Z" fill="#FAF7F2"/>
<path d="M229.095 86.5594C229.095 84.4833 229.095 84.1058 229.068 83.669C229.04 83.2053 228.932 82.9842 228.478 82.8925C228.37 82.8655 228.137 82.8493 227.942 82.8493C227.791 82.8493 227.709 82.8224 227.709 82.7253C227.709 82.6282 227.807 82.6013 228.012 82.6013C228.38 82.6013 228.781 82.6121 229.122 82.6121C229.479 82.6229 229.793 82.639 229.982 82.639C230.42 82.639 233.147 82.639 233.407 82.6229C233.666 82.5959 233.888 82.5689 233.997 82.542C234.067 82.5312 234.148 82.488 234.213 82.488C234.283 82.488 234.294 82.542 234.294 82.6121C234.294 82.7091 234.224 82.8709 234.186 83.4965C234.17 83.6313 234.143 84.2352 234.116 84.397C234.099 84.4671 234.072 84.548 233.98 84.548C233.883 84.548 233.856 84.4779 233.856 84.3593C233.856 84.2622 233.84 84.0303 233.775 83.8685C233.677 83.6205 233.542 83.4587 232.855 83.3778C232.622 83.3509 231.183 83.3239 230.913 83.3239C230.842 83.3239 230.815 83.367 230.815 83.4587V86.91C230.815 87.007 230.831 87.061 230.913 87.061C231.215 87.061 232.79 87.061 233.104 87.034C233.434 87.007 233.639 86.9639 233.764 86.8291C233.861 86.7212 233.915 86.6511 233.98 86.6511C234.034 86.6511 234.078 86.6781 234.078 86.759C234.078 86.8399 234.024 87.061 233.969 87.7566C233.953 88.0316 233.915 88.5763 233.915 88.6733C233.915 88.7812 233.915 88.9322 233.791 88.9322C233.694 88.9322 233.666 88.8783 233.666 88.8082C233.65 88.6733 233.65 88.4954 233.612 88.3174C233.542 88.0424 233.353 87.8375 232.844 87.7836C232.584 87.7566 231.226 87.7404 230.902 87.7404C230.831 87.7404 230.821 87.7943 230.821 87.8752V88.9538C230.821 89.4175 230.804 90.674 230.821 91.0677C230.848 92.0114 231.069 92.2163 232.465 92.2163C232.822 92.2163 233.396 92.2163 233.753 92.0545C234.11 91.8927 234.272 91.6069 234.37 91.0461C234.397 90.8951 234.424 90.8412 234.521 90.8412C234.63 90.8412 234.63 90.949 234.63 91.0892C234.63 91.402 234.521 92.3295 234.451 92.6045C234.354 92.9605 234.229 92.9605 233.71 92.9605C232.682 92.9605 231.93 92.9335 231.34 92.9173C230.75 92.8904 230.328 92.8796 229.917 92.8796C229.765 92.8796 229.462 92.8796 229.138 92.8957C228.824 92.8957 228.467 92.9227 228.191 92.9227C228.012 92.9227 227.915 92.885 227.915 92.7879C227.915 92.7178 227.969 92.68 228.131 92.68C228.337 92.68 228.499 92.6531 228.624 92.6261C228.9 92.5722 228.965 92.2702 229.019 91.8765C229.089 91.3049 229.089 90.2264 229.089 88.9699V86.5594H229.095Z" fill="#FAF7F2"/>
<path d="M174.984 32.3801C174.962 32.6282 174.908 32.8169 174.935 32.9949C175.179 34.5534 175.406 36.1118 175.709 37.6595C175.763 37.9291 176.012 38.1556 176.255 38.4414C176.309 38.5061 176.423 38.4846 176.439 38.3983C176.791 36.7427 176.277 33.1351 174.984 32.3801ZM212.787 32.4934C212.722 32.4826 212.657 32.4718 212.592 32.4556C212.409 32.7199 212.187 32.9733 212.041 33.2591C211.343 34.6504 211.24 36.1711 211.186 37.6864C211.18 37.8698 211.251 38.0531 211.31 38.2365C211.337 38.3174 211.44 38.3443 211.505 38.2904C211.678 38.134 211.857 37.9776 212.019 37.8105C212.089 37.7404 212.089 37.6056 212.116 37.5085C212.181 37.2874 212.246 37.0717 212.289 36.8452C212.506 35.6373 212.701 34.4239 212.858 33.2052C212.89 32.9733 212.814 32.7307 212.787 32.4934ZM216.602 28.6485C215.552 28.9505 214.757 33.5072 214.805 35.8476C214.805 35.9123 214.887 35.9393 214.93 35.8907C215.725 34.9093 216.98 29.6515 216.602 28.6485ZM172.901 36.0687C172.944 36.0579 172.987 36.0525 173.031 36.0417C173.031 35.8907 173.042 35.7397 173.031 35.5887C172.96 34.7798 172.917 33.971 172.809 33.1729C172.609 31.6953 172.322 30.2339 171.57 28.9127C171.505 28.7995 171.348 28.7401 171.229 28.6593C171.197 28.7887 171.126 28.9235 171.142 29.0475C171.245 29.975 171.375 30.9026 171.472 31.8355C171.624 33.3616 172.268 34.7097 172.901 36.0687ZM169.655 34.6289C169.633 34.4239 169.617 34.219 169.584 34.0141C169.444 33.0273 169.33 32.035 169.157 31.0536C168.865 29.452 168.599 27.8396 168.194 26.2649C168.021 25.5855 167.528 24.9869 167.155 24.3722C167.095 24.2751 166.89 24.2697 166.749 24.2158C166.711 24.329 166.63 24.4476 166.646 24.5555C166.825 25.9036 167.014 27.2518 167.198 28.6053C167.377 29.878 167.517 31.1506 167.75 32.4125C167.934 33.4047 168.199 34.3808 168.475 35.3515C168.594 35.7775 168.924 35.8745 169.238 35.5726C169.476 35.3515 169.692 34.6504 169.655 34.6289ZM221.163 24.8467C221.119 24.6472 221.071 24.4261 221.022 24.205C220.822 24.3344 220.611 24.453 220.432 24.604C220.33 24.6903 220.259 24.8305 220.183 24.9546C219.312 26.3674 219.096 27.9798 218.831 29.5706C218.571 31.1183 218.36 32.6713 218.171 34.2244C218.127 34.5965 218.209 35.0117 218.338 35.3676C218.398 35.5348 218.701 35.6642 218.912 35.6966C219.026 35.7128 219.231 35.5132 219.296 35.373C219.469 34.9848 219.653 34.5857 219.724 34.1705C220.005 32.5203 220.248 30.8594 220.497 29.2039C220.719 27.7641 220.936 26.3243 221.163 24.8467ZM162.924 24.6795C162.805 25.1163 162.648 25.4722 162.61 25.8389C162.459 27.5592 162.323 29.2794 162.21 31.005C162.053 33.4263 161.907 35.8476 161.777 38.2689C161.696 39.8219 161.69 41.3642 162.377 42.8364C163.649 45.565 164.828 48.3368 166.592 50.8066C167.582 52.1979 168.513 53.6108 170.109 54.4143C172.122 55.4281 174.091 56.5443 176.136 57.4934C179.621 59.1112 183.175 60.5834 186.649 62.2281C188.294 63.0046 189.836 64.0077 191.378 64.9783C192.07 65.4151 192.628 66.0569 193.277 66.5638C193.872 67.0275 193.991 67.0221 194.554 66.526C195.82 65.4151 197.08 64.2773 198.606 63.5331C201.631 62.0609 204.677 60.6319 207.739 59.2352C211.05 57.7253 214.427 56.3502 217.565 54.4844C218.452 53.9559 219.312 53.3789 219.956 52.543C222.045 49.836 223.635 46.8431 225.015 43.7315C225.302 43.079 225.583 42.4211 225.778 41.7363C226.254 40.0484 225.984 38.3282 225.908 36.6241C225.805 34.4078 225.653 32.1914 225.518 29.9804C225.442 28.7617 225.383 27.543 225.286 26.3243C225.253 25.9198 225.123 25.5154 225.02 25.1163C224.923 24.755 224.69 24.658 224.452 24.9653C224.144 25.359 223.754 25.7688 223.662 26.2272C223.365 27.6832 223.192 29.1662 222.959 30.6329C222.721 32.1213 222.467 33.6043 222.218 35.0872C221.942 36.7104 221.709 38.3497 221.368 39.9567C221.082 41.2995 220.768 42.6476 220.292 43.9311C219.583 45.84 218.187 47.2583 216.466 48.3045C214.962 49.2158 213.404 50.0517 211.819 50.8174C210.959 51.2326 209.995 51.4537 209.07 51.7395C208.697 51.8528 208.459 51.7287 208.351 51.2866C208.08 50.1865 208.421 49.2859 209.346 48.7305C210.715 47.9054 212.165 47.2044 213.583 46.4602C215.146 45.6351 216.645 44.7507 217.327 42.982C217.705 42.0059 217.981 41.0299 217.657 39.9729C217.554 39.6386 217.413 39.4768 217.04 39.6494C216.32 39.9783 215.568 40.2479 214.859 40.6038C212.998 41.5368 211.17 42.529 209.303 43.4511C206.895 44.6429 204.46 45.7645 202.053 46.9617C200.722 47.6196 199.499 48.4501 198.428 49.4908C196.61 51.2488 195.787 53.5299 195.144 55.881C194.749 57.3316 194.446 58.8092 194.099 60.276C194.061 60.4432 193.975 60.6049 193.877 60.8638C193.802 60.6912 193.769 60.6427 193.758 60.5834C193.217 58.4371 192.741 56.2693 192.119 54.1392C191.518 52.0793 190.404 50.2943 188.721 48.8976C186.941 47.4147 184.847 46.4872 182.786 45.4895C180.497 44.384 178.214 43.2624 175.936 42.1353C174.118 41.2402 172.306 40.3288 170.428 39.3905C170.271 39.768 170.109 39.9999 170.082 40.2533C169.887 41.9088 170.407 43.3541 171.516 44.5782C172.49 45.6459 173.788 46.2337 175.054 46.87C176.185 47.4416 177.321 48.0186 178.398 48.6819C179.453 49.3344 179.788 50.4183 179.415 51.4375C179.318 51.7018 179.172 51.8042 178.917 51.7449C178.376 51.6317 177.797 51.5831 177.3 51.3621C175.736 50.6556 174.167 49.9492 172.679 49.1133C171.591 48.504 170.547 47.776 169.611 46.9509C167.858 45.3978 167.074 43.3001 166.641 41.0676C166.305 39.342 166.024 37.6056 165.743 35.8691C165.256 32.8169 164.79 29.7593 164.304 26.7125C164.157 25.8821 163.779 25.1864 162.924 24.6795ZM193.861 48.9462C193.953 48.8707 194.034 48.8221 194.088 48.752C196.172 45.9641 198.953 44.0767 202.064 42.6315C203.4 42.0113 204.774 41.4613 206.159 40.9597C207.144 40.6038 207.636 39.8758 207.891 38.9591C208.383 37.1742 208.811 35.373 209.292 33.5827C209.698 32.0512 210.109 30.5197 210.915 29.1338C211.126 28.7725 211.397 28.4004 211.727 28.1524C212.36 27.6778 212.803 27.0684 213.15 26.389C213.539 25.6232 214.14 25.084 214.865 24.6526C215.19 24.4584 215.514 24.2481 215.839 24.054C216.618 23.5902 217.029 22.8568 217.402 22.0641C218.593 19.5458 221.211 17.9873 223.998 18.2677C225.816 18.4511 226.936 19.5781 227.612 21.2013C228.061 22.2852 228.196 23.4284 228.288 24.5879C228.489 27.1332 228.721 29.6785 228.927 32.2238C229.16 35.0872 229.376 37.9507 229.23 40.8249C229.17 41.9682 228.802 43.0197 228.294 44.0389C226.373 47.9054 224.236 51.6479 221.893 55.2825C220.908 56.8086 219.48 57.7415 217.879 58.4587C214.908 59.7907 211.927 61.1011 208.946 62.4222C206.067 63.6949 203.167 64.9298 200.478 66.5799C199.077 67.4427 197.773 68.4781 196.426 69.4272C195.971 69.7454 195.517 70.0689 195.041 70.3601C194.105 70.9318 193.201 70.7214 192.368 70.1336C191.443 69.4865 190.588 68.7424 189.641 68.1276C188.175 67.1785 186.725 66.1863 185.161 65.4205C181.98 63.8675 178.733 62.4546 175.509 60.9824C173.355 60.001 171.202 59.0249 169.054 58.0273C167.658 57.3802 166.554 56.3987 165.77 55.0775C164.309 52.6239 162.826 50.1865 161.425 47.7059C160.57 46.1906 159.78 44.6267 159.088 43.0305C158.741 42.2324 158.563 41.3211 158.52 40.4475C158.449 39.0238 158.509 37.5894 158.585 36.1657C158.666 34.5965 158.812 33.0326 158.942 31.4688C159.072 29.8726 159.223 28.2764 159.358 26.6802C159.45 25.5747 159.51 24.4638 159.629 23.3637C159.759 22.1504 160.116 21.0018 160.841 19.9988C161.939 18.4834 163.476 18.0466 165.267 18.2947C167.225 18.5697 168.729 19.5781 169.876 21.1528C170.109 21.4709 170.32 21.8215 170.455 22.1882C170.818 23.1696 171.494 23.8545 172.398 24.3236C173.556 24.9222 174.389 25.8012 175 26.9498C175.227 27.3812 175.628 27.7479 176.012 28.0607C176.764 28.6754 177.191 29.4897 177.467 30.3633C178.068 32.2561 178.576 34.1651 179.118 36.0687C179.437 37.1795 179.718 38.3012 180.07 39.4013C180.313 40.1563 180.838 40.6901 181.623 40.9597C184.079 41.801 186.443 42.8472 188.651 44.2169C190.588 45.4194 192.287 46.8862 193.666 48.7089C193.726 48.7844 193.785 48.8545 193.861 48.9462Z" fill="#FAF7F2"/>
<path d="M204.276 36.6726C204.293 36.5377 204.314 36.4623 204.314 36.3868C204.314 32.132 204.32 27.8773 204.304 23.6171C204.304 23.4499 204.163 23.2234 204.022 23.1264C200.76 20.9532 197.486 18.7961 194.218 16.6175C193.942 16.4342 193.769 16.445 193.51 16.6229C190.258 18.7907 187.001 20.9424 183.754 23.1156C183.592 23.2234 183.451 23.4985 183.451 23.6926C183.435 27.8557 183.446 32.0134 183.435 36.1764C183.435 36.5809 183.576 36.6833 183.965 36.678C185.529 36.6564 187.087 36.6564 188.651 36.678C189.067 36.6833 189.159 36.5377 189.159 36.1549C189.143 34.44 189.165 32.7252 189.149 31.0103C189.143 30.5628 189.295 30.4064 189.765 30.4118C192.233 30.4333 194.705 30.4226 197.172 30.4279C197.616 30.4279 198.244 30.2931 198.449 30.525C198.687 30.7892 198.574 31.3878 198.574 31.8354C198.585 33.2968 198.574 34.7582 198.579 36.2196C198.579 36.4299 198.52 36.6833 198.888 36.678C200.668 36.6672 202.448 36.6726 204.276 36.6726ZM207.095 25.0677C207.095 25.2403 207.095 25.4074 207.095 25.58C207.095 29.9157 207.095 34.2513 207.095 38.5869C207.095 39.1963 207.052 39.2448 206.446 39.2448C198.065 39.2448 189.684 39.2448 181.303 39.2448C180.697 39.2448 180.665 39.2125 180.665 38.5923C180.665 34.2081 180.643 24.8682 180.643 24.8682C180.643 24.8682 179.637 25.5315 179.204 25.8442C178.955 26.0276 178.766 26.0492 178.549 25.8011C177.77 24.9005 176.986 24.0054 176.19 23.1156C175.931 22.8298 175.969 22.641 176.288 22.4307C178.69 20.8453 192.482 11.6671 193.645 10.923C193.764 10.8475 194.029 10.8744 194.153 10.9553C196.799 12.6917 210.975 22.1018 211.521 22.4523C211.808 22.6357 211.819 22.8136 211.591 23.0671C210.802 23.9568 210.017 24.8574 209.243 25.758C209.027 26.0114 208.827 26.0438 208.545 25.8496C208.113 25.5423 207.658 25.2618 207.214 24.9706C207.182 25.003 207.139 25.0354 207.095 25.0677Z" fill="#FAF7F2"/>
</g>
<g clip-path="url(#clip3)">
<path d="M477.358 89.1283C477.32 89.6489 477.215 90.1317 477.026 90.5768C476.845 91.0219 476.581 91.4142 476.234 91.7386C475.895 92.0705 475.465 92.3271 474.959 92.5157C474.454 92.7043 473.858 92.7948 473.186 92.7948C472.424 92.7948 471.76 92.6741 471.202 92.4402C470.636 92.2063 470.176 91.8669 469.806 91.4444C469.437 91.0144 469.165 90.5014 468.977 89.8978C468.788 89.2943 468.697 88.6379 468.697 87.9137C468.697 87.1744 468.788 86.5029 468.977 85.8919C469.165 85.2808 469.452 84.7602 469.829 84.3227C470.214 83.8851 470.682 83.5456 471.247 83.2967C471.813 83.0553 472.477 82.927 473.239 82.927C474.393 82.927 475.299 83.2137 475.955 83.787C476.611 84.3604 477.019 85.1827 477.2 86.2389L474.687 86.5256C474.642 86.3219 474.589 86.1333 474.514 85.9598C474.446 85.7862 474.348 85.6354 474.227 85.5071C474.107 85.3789 473.963 85.2808 473.79 85.2053C473.616 85.1299 473.405 85.0922 473.156 85.0922C471.956 85.0922 471.353 86.005 471.353 87.8383C471.353 88.3437 471.398 88.7813 471.481 89.1359C471.572 89.4904 471.692 89.7771 471.858 89.9959C472.017 90.2147 472.213 90.3731 472.439 90.4712C472.666 90.5693 472.907 90.6145 473.179 90.6145C474.099 90.6145 474.627 90.1166 474.755 89.1132H477.358V89.1283Z" fill="#FAF7F2"/>
<path d="M486.019 86.1406C486.019 86.7366 485.906 87.2647 485.679 87.7098C485.453 88.1625 485.098 88.5246 484.623 88.8113L486.547 92.5607H483.876L482.337 89.3243H480.972V92.5607H478.565V83.1682H482.277C483.009 83.1682 483.612 83.2512 484.095 83.4172C484.578 83.5831 484.963 83.8019 485.249 84.0811C485.536 84.3602 485.74 84.677 485.853 85.0316C485.958 85.3937 486.019 85.7634 486.019 86.1406ZM480.964 87.3628H482.201C482.707 87.3628 483.069 87.2647 483.273 87.0686C483.476 86.8724 483.582 86.5857 483.582 86.2161C483.582 85.869 483.469 85.5974 483.25 85.4013C483.031 85.2051 482.654 85.1146 482.118 85.1146H480.964V87.3628Z" fill="#FAF7F2"/>
<path d="M487.513 83.1683H494.234V85.2505H489.972V86.7518H493.97V88.8264H489.972V90.4861H494.514L494.302 92.5683H487.513V83.1683V83.1683ZM491.609 82.4063H489.384L491.066 80.3694H493.774L491.609 82.4063Z" fill="#FAF7F2"/>
<path d="M495.773 92.5607V83.1682H499.47C501.032 83.1682 502.216 83.5605 503.016 84.3376C503.816 85.1146 504.223 86.2613 504.223 87.7551C504.223 89.3016 503.8 90.4861 502.956 91.3159C502.111 92.1458 500.903 92.5607 499.334 92.5607H495.773ZM498.301 90.4257H499.364C500.134 90.4257 500.7 90.1994 501.062 89.7467C501.424 89.2941 501.605 88.6604 501.605 87.8305C501.605 87.0007 501.439 86.3745 501.107 85.9445C500.775 85.5145 500.24 85.2957 499.5 85.2957H498.301V90.4257V90.4257Z" fill="#FAF7F2"/>
<path d="M505.619 83.1682H508.146V92.5607H505.619V83.1682Z" fill="#FAF7F2"/>
<path d="M512.024 85.3108H509.315V83.1682H517.259V85.3108H514.551V92.5607H512.024V85.3108Z" fill="#FAF7F2"/>
<path d="M522.352 82.927C523.091 82.927 523.74 83.0402 524.313 83.2665C524.886 83.4928 525.362 83.8172 525.754 84.2397C526.146 84.6622 526.44 85.1752 526.644 85.7787C526.848 86.3822 526.946 87.0612 526.946 87.8156C526.946 88.5776 526.84 89.2641 526.637 89.8827C526.433 90.4938 526.131 91.0219 525.739 91.4444C525.347 91.8744 524.856 92.2063 524.275 92.4402C523.694 92.6741 523.038 92.7872 522.291 92.7872C521.552 92.7872 520.903 92.6741 520.33 92.4478C519.756 92.2214 519.281 91.897 518.889 91.4746C518.496 91.0521 518.202 90.5391 517.999 89.9355C517.795 89.332 517.697 88.653 517.697 87.8986C517.697 87.1367 517.802 86.4501 518.006 85.8315C518.21 85.2204 518.512 84.6923 518.904 84.2699C519.296 83.8398 519.787 83.5079 520.367 83.274C520.948 83.0477 521.605 82.927 522.352 82.927ZM520.315 87.8609C520.315 88.7662 520.481 89.4527 520.813 89.9205C521.144 90.3882 521.65 90.6221 522.329 90.6221C523.008 90.6221 523.506 90.3882 523.838 89.9205C524.17 89.4527 524.328 88.7662 524.328 87.8609C524.328 86.9556 524.162 86.2691 523.838 85.8013C523.506 85.3336 523.008 85.0997 522.329 85.0997C521.65 85.0997 521.152 85.3336 520.813 85.8013C520.481 86.2766 520.315 86.9631 520.315 87.8609Z" fill="#FAF7F2"/>
<path d="M530.363 89.4676C530.416 89.9052 530.575 90.2296 530.846 90.4484C531.118 90.6671 531.518 90.7728 532.046 90.7728C532.491 90.7728 532.83 90.6898 533.049 90.5389C533.276 90.3805 533.381 90.1541 533.381 89.8675C533.381 89.6487 533.306 89.4676 533.155 89.3243C533.004 89.1809 532.732 89.0678 532.34 88.9923L531.088 88.7509C530.047 88.5548 529.27 88.2304 528.772 87.7777C528.274 87.3251 528.025 86.6914 528.025 85.8841C528.025 84.9109 528.357 84.1716 529.028 83.6812C529.7 83.1833 530.62 82.9419 531.797 82.9419C532.483 82.9419 533.064 83.0249 533.547 83.1758C534.03 83.3342 534.422 83.5454 534.732 83.8095C535.041 84.0735 535.267 84.3753 535.426 84.7223C535.584 85.0694 535.682 85.4315 535.727 85.8087L533.283 86.0576C533.2 85.6804 533.049 85.4013 532.83 85.2127C532.604 85.0316 532.257 84.9336 531.782 84.9336C531.352 84.9336 531.035 85.009 530.831 85.1523C530.628 85.2957 530.522 85.4918 530.522 85.7408C530.522 85.9596 530.605 86.1331 530.771 86.2689C530.937 86.3971 531.208 86.5028 531.571 86.5706L532.845 86.8196C533.947 87.0384 534.732 87.393 535.199 87.8758C535.667 88.3662 535.893 88.9772 535.893 89.7241C535.893 90.1919 535.818 90.6068 535.659 90.984C535.501 91.3612 535.26 91.6856 534.935 91.9496C534.611 92.2137 534.196 92.4249 533.698 92.5758C533.2 92.7267 532.612 92.8021 531.933 92.8021C529.33 92.7871 527.957 91.6781 527.829 89.4752H530.363V89.4676Z" fill="#FAF7F2"/>
<path d="M464.722 98.9507H468.652C469.308 98.9507 469.859 99.0186 470.289 99.1393C470.719 99.2675 471.066 99.4411 471.33 99.6674C471.587 99.8937 471.768 100.15 471.873 100.444C471.979 100.739 472.032 101.048 472.032 101.387C472.032 101.81 471.949 102.187 471.775 102.519C471.602 102.851 471.3 103.13 470.878 103.364C471.398 103.621 471.76 103.93 471.972 104.292C472.183 104.654 472.288 105.084 472.288 105.574C472.288 105.944 472.228 106.299 472.107 106.631C471.987 106.97 471.783 107.264 471.504 107.521C471.225 107.777 470.855 107.974 470.395 108.124C469.935 108.275 469.369 108.351 468.705 108.351H464.722V98.9507ZM467.106 102.557H468.471C468.909 102.557 469.21 102.481 469.369 102.338C469.527 102.195 469.603 101.983 469.603 101.697C469.603 101.395 469.512 101.184 469.324 101.048C469.135 100.912 468.811 100.844 468.335 100.844H467.106V102.557ZM467.106 106.457H468.486C469.022 106.457 469.384 106.367 469.58 106.17C469.776 105.982 469.867 105.725 469.867 105.401C469.867 105.077 469.769 104.828 469.58 104.662C469.391 104.488 469.052 104.405 468.562 104.405H467.106V106.457Z" fill="#FAF7F2"/>
<path d="M478.822 98.9507L482.081 108.343H479.463L478.92 106.54H475.751L475.223 108.343H472.681L475.947 98.9507H478.822ZM476.377 104.533H478.309L477.351 101.297L476.377 104.533Z" fill="#FAF7F2"/>
<path d="M483.152 98.9507H485.362L488.742 104.33V98.9507H491.126V108.343H488.938L485.528 102.972V108.343H483.144V98.9507H483.152Z" fill="#FAF7F2"/>
<path d="M501.19 104.918C501.152 105.439 501.047 105.922 500.858 106.367C500.677 106.812 500.413 107.204 500.066 107.528C499.727 107.86 499.297 108.117 498.791 108.305C498.286 108.494 497.69 108.585 497.018 108.585C496.256 108.585 495.592 108.464 495.034 108.23C494.468 107.996 494.008 107.657 493.638 107.234C493.269 106.804 492.997 106.291 492.809 105.688C492.627 105.084 492.529 104.428 492.529 103.704C492.529 102.964 492.62 102.293 492.809 101.682C492.997 101.071 493.284 100.55 493.661 100.112C494.046 99.6749 494.514 99.3354 495.079 99.0865C495.645 98.8451 496.309 98.7168 497.071 98.7168C498.225 98.7168 499.131 99.0035 499.787 99.5768C500.443 100.15 500.851 100.973 501.032 102.029L498.519 102.315C498.474 102.112 498.421 101.923 498.346 101.75C498.278 101.576 498.18 101.425 498.059 101.297C497.939 101.169 497.795 101.071 497.622 100.995C497.448 100.92 497.237 100.882 496.988 100.882C495.789 100.882 495.185 101.795 495.185 103.628C495.185 104.134 495.23 104.571 495.313 104.926C495.404 105.28 495.524 105.567 495.69 105.786C495.849 106.004 496.045 106.163 496.271 106.261C496.498 106.359 496.739 106.404 497.011 106.404C497.931 106.404 498.459 105.906 498.587 104.903H501.19V104.918Z" fill="#FAF7F2"/>
<path d="M507.572 98.9507L510.832 108.343H508.214L507.671 106.54H504.502L503.974 108.343H501.432L504.706 98.9507H507.572ZM505.121 104.533H507.052L506.094 101.297L505.121 104.533Z" fill="#FAF7F2"/>
<path d="M519.356 101.931C519.356 102.527 519.243 103.055 519.017 103.5C518.791 103.953 518.436 104.315 517.961 104.601L519.885 108.351H517.214L515.675 105.114H514.309V108.351H511.903V98.9583H515.615C516.346 98.9583 516.95 99.0412 517.433 99.2072C517.916 99.3732 518.3 99.592 518.587 99.8711C518.874 100.15 519.077 100.467 519.191 100.822C519.304 101.184 519.356 101.553 519.356 101.931ZM514.309 103.153H515.547C516.052 103.153 516.414 103.055 516.618 102.859C516.822 102.662 516.927 102.376 516.927 102.006C516.927 101.659 516.814 101.387 516.595 101.191C516.377 100.995 515.999 100.905 515.464 100.905H514.309V103.153Z" fill="#FAF7F2"/>
<path d="M520.858 98.9507H523.385V108.343H520.858V98.9507Z" fill="#FAF7F2"/>
<path d="M529.436 98.7168C530.175 98.7168 530.824 98.83 531.397 99.0563C531.97 99.2826 532.446 99.607 532.838 100.029C533.23 100.452 533.524 100.965 533.728 101.569C533.932 102.172 534.03 102.851 534.03 103.605C534.03 104.367 533.924 105.054 533.721 105.673C533.517 106.284 533.215 106.812 532.823 107.234C532.431 107.657 531.94 107.996 531.359 108.23C530.778 108.464 530.122 108.577 529.375 108.577C528.636 108.577 527.987 108.464 527.414 108.238C526.84 108.011 526.365 107.687 525.973 107.264C525.58 106.842 525.286 106.329 525.083 105.725C524.879 105.122 524.781 104.443 524.781 103.688C524.781 102.926 524.886 102.24 525.09 101.621C525.294 101.01 525.596 100.482 525.988 100.06C526.38 99.6297 526.871 99.2977 527.451 99.0638C528.032 98.8375 528.689 98.7168 529.436 98.7168ZM527.399 103.651C527.399 104.556 527.565 105.243 527.897 105.71C528.228 106.178 528.734 106.412 529.413 106.412C530.092 106.412 530.59 106.178 530.922 105.71C531.254 105.243 531.412 104.556 531.412 103.651C531.412 102.745 531.246 102.059 530.922 101.591C530.59 101.123 530.092 100.89 529.413 100.89C528.734 100.89 528.236 101.123 527.897 101.591C527.557 102.059 527.399 102.745 527.399 103.651Z" fill="#FAF7F2"/>
<path d="M537.447 105.258C537.5 105.695 537.659 106.02 537.93 106.238C538.202 106.457 538.602 106.563 539.13 106.563C539.575 106.563 539.914 106.48 540.133 106.329C540.359 106.171 540.465 105.944 540.465 105.657C540.465 105.439 540.39 105.258 540.239 105.114C540.088 104.971 539.816 104.858 539.424 104.782L538.172 104.541C537.131 104.345 536.354 104.02 535.856 103.568C535.358 103.115 535.109 102.481 535.109 101.674C535.109 100.701 535.441 99.9616 536.112 99.4713C536.784 98.9733 537.704 98.7319 538.881 98.7319C539.567 98.7319 540.148 98.8149 540.631 98.9658C541.114 99.1242 541.506 99.3355 541.816 99.5995C542.125 99.8636 542.351 100.165 542.51 100.512C542.668 100.859 542.766 101.222 542.811 101.599L540.367 101.848C540.284 101.47 540.133 101.191 539.914 101.003C539.688 100.822 539.341 100.724 538.866 100.724C538.436 100.724 538.119 100.799 537.915 100.942C537.711 101.086 537.606 101.282 537.606 101.531C537.606 101.75 537.689 101.923 537.855 102.059C538.021 102.195 538.292 102.293 538.655 102.361L539.929 102.61C541.031 102.828 541.816 103.183 542.283 103.666C542.751 104.156 542.977 104.767 542.977 105.514C542.977 105.982 542.902 106.397 542.743 106.774C542.585 107.151 542.344 107.476 542.019 107.74C541.695 108.004 541.28 108.215 540.782 108.366C540.284 108.517 539.696 108.592 539.017 108.592C536.414 108.577 535.041 107.468 534.913 105.265H537.447V105.258Z" fill="#FAF7F2"/>
<path d="M536.897 62.7989C540.79 55.9639 539.205 47.3183 533.14 42.3014V32.7052H534.611C535.426 32.7052 536.082 32.0488 536.082 31.2341V26.8207H537.553C538.368 26.8207 539.024 26.1568 539.024 25.3421C539.024 24.8592 538.79 24.4141 538.398 24.135L504.54 0.582052C504.034 0.235019 503.363 0.235019 502.865 0.582052L468.999 24.135C468.335 24.6027 468.169 25.5156 468.637 26.187C468.909 26.5793 469.361 26.8132 469.844 26.8132H471.315V31.2265C471.315 32.0413 471.972 32.6976 472.786 32.6976H474.257V56.2581H472.786C471.972 56.2581 471.315 56.9145 471.315 57.7292V62.4142C469.557 63.0328 468.373 64.7 468.373 66.5635V69.5057C468.373 70.3205 469.029 70.9768 469.844 70.9768H537.568C538.383 70.9768 539.039 70.3205 539.039 69.5057V66.5635C539.032 65.0244 538.217 63.5986 536.897 62.7989ZM533.147 29.7629H521.363V26.8207H533.147V29.7629ZM530.198 32.7052V40.3776C528.364 39.4346 526.365 38.8537 524.306 38.6726V32.7127L530.198 32.7052ZM503.695 3.58464L532.861 23.8709H474.529L503.695 3.58464ZM487.505 56.2657H486.034V32.7052H487.505C488.32 32.7052 488.976 32.0488 488.976 31.2341V26.8207H494.868V31.2341C494.868 32.0488 495.525 32.7052 496.339 32.7052H497.81V56.2657H496.339C495.525 56.2657 494.868 56.922 494.868 57.7368V62.1501H488.976V57.7368C488.976 56.922 488.32 56.2657 487.505 56.2657ZM497.81 59.2079H507.278C507.565 60.2263 507.957 61.2146 508.44 62.1501H497.81V59.2079ZM500.753 56.2657V32.7052H506.645V56.2657H500.753ZM508.116 29.7629H497.81V26.8207H509.587V29.7629H508.116ZM509.587 32.7052H511.058C511.873 32.7052 512.529 32.0488 512.529 31.2341V26.8207H518.421V31.2341C518.421 32.0488 519.077 32.7052 519.892 32.7052H521.363V38.6651C516.626 39.1026 512.318 41.5998 509.587 45.5001V32.7052V32.7052ZM474.25 26.8207H486.026V29.7629H474.25V26.8207ZM483.084 32.7052V56.2657H477.192V32.7052H483.084ZM474.25 59.2079H486.026V62.1501H474.25V59.2079ZM471.308 68.0421V66.571C471.308 65.7562 471.964 65.0999 472.779 65.0999H510.349C511.277 66.2164 512.356 67.2123 513.548 68.0421H471.308ZM536.09 68.0421H532.114C533.261 67.2424 534.302 66.2994 535.207 65.2281C535.743 65.462 536.09 65.9826 536.09 66.571V68.0421ZM522.842 68.0421C515.524 68.0421 509.594 62.1124 509.594 54.7945C509.594 47.4767 515.524 41.547 522.842 41.547C530.16 41.547 536.09 47.4767 536.09 54.7945C536.09 62.1124 530.16 68.0421 522.842 68.0421Z" fill="#FAF7F2"/>
<path d="M520.835 18.2657L504.638 6.48169L502.827 8.86565L515.358 17.979H488.976V20.9213H519.892C520.556 20.9514 521.16 20.5365 521.363 19.9028C521.567 19.3068 521.348 18.6429 520.835 18.2657Z" fill="#FAF7F2"/>
<path d="M525.784 47.4315H524.313V44.4893H521.371V47.4315H519.9C518.27 47.4315 516.958 48.7517 516.958 50.3737V53.316C516.958 54.9455 518.278 56.2582 519.9 56.2582H525.792V59.2004H519.9V57.7293H516.958V59.2004C516.958 60.83 518.278 62.1426 519.9 62.1426H521.371V65.0849H524.313V62.1426H525.784C527.414 62.1426 528.726 60.8224 528.726 59.2004V56.2582C528.726 54.6286 527.406 53.316 525.784 53.316H519.892V50.3737H525.784V51.8448H528.726V50.3737C528.726 48.7517 527.406 47.4315 525.784 47.4315Z" fill="#FAF7F2"/>
</g>
<defs>
<clipPath id="clip0">
<rect width="160.691" height="46.0195" fill="white" transform="translate(261.029 31.2493)"/>
</clipPath>
<clipPath id="clip1">
<rect width="104.11" height="73.1786" fill="white" transform="translate(0 17.6697)"/>
</clipPath>
<clipPath id="clip2">
<rect width="81.4772" height="82.2316" fill="white" transform="translate(153.147 10.8799)"/>
</clipPath>
<clipPath id="clip3">
<rect width="78.2784" height="108.267" fill="white" transform="translate(464.722 0.318115)"/>
</clipPath>
</defs>
</svg>
