<?xml version="1.0" encoding="utf-8"?>
<!-- Generator: Adobe Illustrator 24.0.2, SVG Export Plug-In . SVG Version: 6.00 Build 0)  -->
<svg version="1.1" id="Capa_1" xmlns="http://www.w3.org/2000/svg" xmlns:xlink="http://www.w3.org/1999/xlink" x="0px" y="0px"
	 viewBox="0 0 100 100" style="enable-background:new 0 0 100 100;" xml:space="preserve">
<style type="text/css">
	.st0{fill:#E3D5C7;}
	.st1{fill:#EE7768;}
	.st2{fill:#103E68;}
</style>
<g>
	<circle class="st0" cx="50.09" cy="50.9" r="30.46"/>
	<g>
		<path class="st1" d="M16.1,45.5c1.72-15.83,10.09-23.15,16.82-26.51c7.22-3.6,14.05-3.42,14.33-3.41l-0.23,7.4
			c-0.86-0.02-21-0.25-23.55,23.31L16.1,45.5z"/>
	</g>
	<g>
		<path class="st1" d="M83.55,54.66C81.83,70.5,73.46,77.82,66.73,81.17c-7.22,3.6-14.05,3.42-14.33,3.41l0.23-7.4
			c0.86,0.02,21,0.25,23.55-23.31L83.55,54.66z"/>
	</g>
	<g>
		<path class="st2" d="M65.06,38.86l-13.98-5.81c-0.35-0.15-0.74-0.15-1.09,0L36,38.86c-0.53,0.22-0.88,0.74-0.88,1.32v7.06
			c0,9.72,5.87,18.46,14.87,22.13c0.35,0.14,0.73,0.14,1.08,0c9-3.67,14.87-12.41,14.87-22.13v-7.06
			C65.94,39.6,65.6,39.08,65.06,38.86z M63.09,47.24c0,8.26-4.85,15.87-12.56,19.26c-7.5-3.3-12.56-10.78-12.56-19.26v-6.1
			l12.56-5.21l12.56,5.21V47.24z M48.96,52.05l6.13-6.13c0.56-0.56,1.46-0.56,2.02,0c0.56,0.56,0.56,1.46,0,2.02l-7.14,7.14
			c-0.56,0.56-1.46,0.56-2.02,0l-3.99-3.99c-0.56-0.56-0.56-1.46,0-2.02c0.56-0.56,1.46-0.56,2.02,0L48.96,52.05z"/>
	</g>
</g>
</svg>
