<?xml version="1.0" encoding="utf-8"?>
<!-- Generator: Adobe Illustrator 24.0.2, SVG Export Plug-In . SVG Version: 6.00 Build 0)  -->
<svg version="1.1" id="Capa_1" xmlns="http://www.w3.org/2000/svg" xmlns:xlink="http://www.w3.org/1999/xlink" x="0px" y="0px"
	 viewBox="0 0 100 100" style="enable-background:new 0 0 100 100;" xml:space="preserve">
<style type="text/css">
	.st0{fill:#E3D5C7;}
	.st1{fill:#EE7768;}
	.st2{fill:#103E68;}
</style>
<g>
	<circle class="st0" cx="50.36" cy="50.9" r="30.46"/>
	<g>
		<g>
			<path class="st1" d="M16.1,45.5c1.72-15.83,10.09-23.15,16.82-26.51c7.22-3.6,14.05-3.42,14.33-3.41l-0.23,7.4
				c-0.86-0.02-21-0.25-23.55,23.31L16.1,45.5z"/>
		</g>
		<g>
			<path class="st1" d="M83.55,54.66C81.83,70.5,73.46,77.82,66.73,81.17c-7.22,3.6-14.05,3.42-14.33,3.41l0.23-7.4
				c0.86,0.02,21,0.25,23.55-23.31L83.55,54.66z"/>
		</g>
		<g>
			<g>
				<rect x="32.33" y="58.9" class="st2" width="32.59" height="1.72"/>
				<path class="st2" d="M65.56,61.26H31.68v-3.01h33.88V61.26z M32.97,59.97h31.3v-0.43h-31.3V59.97z"/>
			</g>
			<g>
				<polygon class="st2" points="64.92,64.51 64.92,55.01 69.67,59.76 				"/>
				<path class="st2" d="M64.27,66.06V53.45l6.31,6.31L64.27,66.06z M65.56,56.57v6.38l3.19-3.19L65.56,56.57z"/>
			</g>
		</g>
		<g>
			<g>
				
					<rect x="23.73" y="50.65" transform="matrix(6.123234e-17 -1 1 6.123234e-17 -11.4835 91.5386)" class="st2" width="32.59" height="1.72"/>
				<path class="st2" d="M41.53,68.45h-3.01V34.57h3.01V68.45z M39.81,67.16h0.43v-31.3h-0.43V67.16z"/>
			</g>
			<g>
				<polygon class="st2" points="44.78,35.21 35.28,35.21 40.03,30.47 				"/>
				<path class="st2" d="M46.33,35.86H33.72l6.31-6.31L46.33,35.86z M36.84,34.57h6.38l-3.19-3.19L36.84,34.57z"/>
			</g>
		</g>
	</g>
</g>
</svg>
