<?xml version="1.0" encoding="utf-8"?>
<!-- Generator: Adobe Illustrator 24.0.2, SVG Export Plug-In . SVG Version: 6.00 Build 0)  -->
<svg version="1.1" id="Capa_1" xmlns="http://www.w3.org/2000/svg" xmlns:xlink="http://www.w3.org/1999/xlink" x="0px" y="0px"
	 viewBox="0 0 100 100" style="enable-background:new 0 0 100 100;" xml:space="preserve">
<style type="text/css">
	.st0{fill:#E3D5C7;}
	.st1{fill:#EE7768;}
	.st2{fill:#103E68;stroke:#103E68;stroke-width:0.5;stroke-miterlimit:10;}
</style>
<g>
	<circle class="st0" cx="49.79" cy="50.9" r="30.46"/>
	<g>
		<path class="st1" d="M16.1,45.5c1.72-15.83,10.09-23.15,16.82-26.51c7.22-3.6,14.05-3.42,14.33-3.41l-0.23,7.4
			c-0.86-0.02-21-0.25-23.55,23.31L16.1,45.5z"/>
	</g>
	<g>
		<path class="st1" d="M83.55,54.66C81.83,70.5,73.46,77.82,66.73,81.17c-7.22,3.6-14.05,3.42-14.33,3.41l0.23-7.4
			c0.86,0.02,21,0.25,23.55-23.31L83.55,54.66z"/>
	</g>
	<g>
		<g>
			<path class="st2" d="M66.07,33.43h-9.76c-0.34,0-0.61,0.27-0.61,0.61c0,0.34,0.27,0.61,0.61,0.61H59v5.29H47.17v-5.29h7.1
				c0.34,0,0.61-0.27,0.61-0.61c0-0.34-0.27-0.61-0.61-0.61H33.52c-0.34,0-0.61,0.27-0.61,0.61v6.51v6.51v6.51v6.51v6.51
				c0,0.34,0.27,0.61,0.61,0.61h32.55c0.34,0,0.61-0.27,0.61-0.61V34.04C66.68,33.7,66.41,33.43,66.07,33.43z M53.63,41.16h11.82
				v5.29h-7.92c-0.34,0-0.61,0.27-0.61,0.61s0.27,0.61,0.61,0.61H59v5.29H47.17v-5.29h8.32c0.34,0,0.61-0.27,0.61-0.61
				s-0.27-0.61-0.61-0.61h-1.86V41.16z M65.46,54.18v5.29H53.63v-5.29H65.46z M52.41,41.16v5.29H40.59v-5.29H52.41z M34.13,34.65
				h11.82v5.29H34.13V34.65z M34.13,41.16h5.24v5.29h-5.24V41.16z M34.13,47.67h11.82v5.29H34.13V47.67z M34.13,54.18h5.24v5.29
				h-5.24V54.18z M45.95,65.98H34.13v-5.29h8.82c0.34,0,0.61-0.27,0.61-0.61c0-0.34-0.27-0.61-0.61-0.61h-2.36v-5.29h11.82v5.29
				h-7.43c-0.34,0-0.61,0.27-0.61,0.61c0,0.34,0.27,0.61,0.61,0.61h0.97L45.95,65.98L45.95,65.98z M59,65.98H47.17v-5.29H59V65.98z
				 M65.46,65.98h-5.24v-5.29h5.24V65.98z M65.46,52.96h-5.24v-5.29h5.24V52.96z M65.46,39.94h-5.24v-5.29h5.24V39.94z"/>
		</g>
	</g>
</g>
<g>
	<circle class="st0" cx="49.79" cy="50.9" r="30.46"/>
	<g>
		<path class="st1" d="M16.1,45.5c1.72-15.83,10.09-23.15,16.82-26.51c7.22-3.6,14.05-3.42,14.33-3.41l-0.23,7.4
			c-0.86-0.02-21-0.25-23.55,23.31L16.1,45.5z"/>
	</g>
	<g>
		<path class="st1" d="M83.55,54.66C81.83,70.5,73.46,77.82,66.73,81.17c-7.22,3.6-14.05,3.42-14.33,3.41l0.23-7.4
			c0.86,0.02,21,0.25,23.55-23.31L83.55,54.66z"/>
	</g>
	<g>
		<g>
			<path class="st2" d="M66.07,33.43h-9.76c-0.34,0-0.61,0.27-0.61,0.61c0,0.34,0.27,0.61,0.61,0.61H59v5.29H47.17v-5.29h7.1
				c0.34,0,0.61-0.27,0.61-0.61c0-0.34-0.27-0.61-0.61-0.61H33.52c-0.34,0-0.61,0.27-0.61,0.61v6.51v6.51v6.51v6.51v6.51
				c0,0.34,0.27,0.61,0.61,0.61h32.55c0.34,0,0.61-0.27,0.61-0.61V34.04C66.68,33.7,66.41,33.43,66.07,33.43z M53.63,41.16h11.82
				v5.29h-7.92c-0.34,0-0.61,0.27-0.61,0.61s0.27,0.61,0.61,0.61H59v5.29H47.17v-5.29h8.32c0.34,0,0.61-0.27,0.61-0.61
				s-0.27-0.61-0.61-0.61h-1.86V41.16z M65.46,54.18v5.29H53.63v-5.29H65.46z M52.41,41.16v5.29H40.59v-5.29H52.41z M34.13,34.65
				h11.82v5.29H34.13V34.65z M34.13,41.16h5.24v5.29h-5.24V41.16z M34.13,47.67h11.82v5.29H34.13V47.67z M34.13,54.18h5.24v5.29
				h-5.24V54.18z M45.95,65.98H34.13v-5.29h8.82c0.34,0,0.61-0.27,0.61-0.61c0-0.34-0.27-0.61-0.61-0.61h-2.36v-5.29h11.82v5.29
				h-7.43c-0.34,0-0.61,0.27-0.61,0.61c0,0.34,0.27,0.61,0.61,0.61h0.97L45.95,65.98L45.95,65.98z M59,65.98H47.17v-5.29H59V65.98z
				 M65.46,65.98h-5.24v-5.29h5.24V65.98z M65.46,52.96h-5.24v-5.29h5.24V52.96z M65.46,39.94h-5.24v-5.29h5.24V39.94z"/>
		</g>
	</g>
</g>
</svg>
