<?xml version="1.0" encoding="utf-8"?>
<!-- Generator: Adobe Illustrator 24.0.2, SVG Export Plug-In . SVG Version: 6.00 Build 0)  -->
<svg version="1.1" id="Capa_1" xmlns="http://www.w3.org/2000/svg" xmlns:xlink="http://www.w3.org/1999/xlink" x="0px" y="0px"
	 viewBox="0 0 100 100" style="enable-background:new 0 0 100 100;" xml:space="preserve">
<style type="text/css">
	.st0{fill:#E3D5C7;}
	.st1{fill:#103E68;}
	.st2{fill:#EE7768;}
</style>
<g>
	<circle class="st0" cx="52.4" cy="50.9" r="30.46"/>
	<g>
		<g>
			<path class="st1" d="M68.71,46.91L65.4,43.9v-10c0-0.64-0.52-1.15-1.15-1.15h-7.97c-0.64,0-1.15,0.52-1.15,1.15v0.64l-4-3.64
				c-0.77-0.7-1.93-0.7-2.71,0L30.85,46.91c-0.62,0.56-0.82,1.43-0.52,2.21c0.3,0.78,1.04,1.28,1.87,1.28h2.81v16.05
				c0,0.64,0.52,1.15,1.15,1.15h9.63c0.64,0,1.15-0.52,1.15-1.15v-9.74h5.66v9.74c0,0.64,0.52,1.15,1.15,1.15h9.63
				c0.64,0,1.15-0.52,1.15-1.15V50.4h2.81c0.84,0,1.57-0.5,1.87-1.28C69.53,48.34,69.33,47.47,68.71,46.91z M63.4,48.1
				c-0.64,0-1.15,0.52-1.15,1.15V65.3h-7.33v-9.74c0-0.64-0.52-1.15-1.15-1.15H45.8c-0.64,0-1.15,0.52-1.15,1.15v9.74h-7.33V49.25
				c0-0.64-0.52-1.15-1.15-1.15h-3.2l16.81-15.32L55.5,38c0.34,0.31,0.82,0.39,1.24,0.2c0.42-0.18,0.69-0.6,0.69-1.05v-2.1h5.66
				v9.36c0,0.32,0.14,0.63,0.38,0.85l3.12,2.84H63.4L63.4,48.1z"/>
		</g>
	</g>
	<g>
		<path class="st2" d="M16.1,45.5c1.72-15.83,10.09-23.15,16.82-26.51c7.22-3.6,14.05-3.42,14.33-3.41l-0.23,7.4
			c-0.86-0.02-21-0.25-23.55,23.31L16.1,45.5z"/>
	</g>
	<g>
		<path class="st2" d="M83.55,54.66C81.83,70.5,73.46,77.82,66.73,81.17c-7.22,3.6-14.05,3.42-14.33,3.41l0.23-7.4
			c0.86,0.02,21,0.25,23.55-23.31L83.55,54.66z"/>
	</g>
</g>
</svg>
