<svg width="77" height="75" viewBox="0 0 77 75" fill="none" xmlns="http://www.w3.org/2000/svg">
<g clip-path="url(#clip0)">
<path d="M40.9401 74.5201C60.5959 74.5201 76.5301 58.5859 76.5301 38.9301C76.5301 19.2743 60.5959 3.34009 40.9401 3.34009C21.2843 3.34009 5.3501 19.2743 5.3501 38.9301C5.3501 58.5859 21.2843 74.5201 40.9401 74.5201Z" fill="#0D3E69"/>
<path d="M0 35.01C2.01 16.49 11.81 7.92004 19.67 4.00004C28.12 -0.209965 36.1 3.496e-05 36.44 0.010035L36.17 8.67004C35.17 8.65003 11.6 8.38003 8.61 35.94L0 35.01Z" fill="#FF6F61"/>
<path d="M60.62 48.9501L44.41 19.6101C43.8 18.5101 42.65 17.8301 41.4 17.8301H41.19C39.94 17.8301 38.78 18.5101 38.18 19.6101L21.97 48.9501C21.69 49.4601 21.54 50.0301 21.54 50.6101C21.54 52.5101 23.08 54.0501 24.98 54.0501H57.61C59.51 54.0501 61.05 52.5101 61.05 50.6101C61.05 50.0301 60.9 49.4501 60.62 48.9501ZM57.61 52.4001H24.98C23.99 52.4001 23.19 51.6001 23.19 50.6101C23.19 50.3101 23.27 50.0101 23.41 49.7401L39.62 20.4001C39.94 19.8301 40.54 19.4701 41.19 19.4701H41.4C42.05 19.4701 42.65 19.8301 42.97 20.4001L59.18 49.7401C59.33 50.0101 59.4 50.3101 59.4 50.6101C59.4 51.6001 58.6 52.4001 57.61 52.4001Z" fill="white"/>
<path d="M47.0603 37.5901H43.3403L46.1803 30.4901C46.2803 30.2401 46.2502 29.9501 46.1003 29.7201C45.9503 29.4901 45.6903 29.3601 45.4202 29.3601H39.6603C39.3103 29.3601 39.0003 29.5801 38.8903 29.9101L34.7703 41.4301C34.6803 41.6801 34.7203 41.9601 34.8703 42.1801C35.0203 42.4001 35.2803 42.5301 35.5403 42.5301H39.2603L36.4202 49.6301C36.2702 50.0001 36.4102 50.4301 36.7602 50.6401C36.8902 50.7201 37.0403 50.7601 37.1903 50.7601C37.4203 50.7601 37.6503 50.6601 37.8203 50.4701L47.7003 38.9501C47.9103 38.7101 47.9603 38.3601 47.8203 38.0701C47.6703 37.7701 47.3803 37.5901 47.0603 37.5901ZM39.7903 45.6201L41.2403 42.0101C41.3403 41.7601 41.3103 41.4701 41.1603 41.2401C41.0103 41.0101 40.7503 40.8801 40.4803 40.8801H36.7003L40.2303 31.0001H44.2003L41.3603 38.1001C41.2603 38.3501 41.2903 38.6401 41.4403 38.8701C41.5903 39.1001 41.8503 39.2301 42.1203 39.2301H45.2703L39.7903 45.6201Z" fill="white"/>
</g>
<defs>
<clipPath id="clip0">
<rect width="76.53" height="74.51" fill="white"/>
</clipPath>
</defs>
</svg>
