<svg width="77" height="75" viewBox="0 0 77 75" fill="none" xmlns="http://www.w3.org/2000/svg">
<g clip-path="url(#clip0)">
<path d="M40.9401 74.52C60.5959 74.52 76.5301 58.5858 76.5301 38.93C76.5301 19.2742 60.5959 3.33997 40.9401 3.33997C21.2843 3.33997 5.3501 19.2742 5.3501 38.93C5.3501 58.5858 21.2843 74.52 40.9401 74.52Z" fill="#0D3E69"/>
<path d="M0 35.01C2.01 16.49 11.81 7.92004 19.67 4.00004C28.12 -0.209965 36.1 3.496e-05 36.44 0.010035L36.17 8.67004C35.17 8.65003 11.6 8.38003 8.61 35.94L0 35.01Z" fill="#FF6F61"/>
<path d="M58.3002 19.27H23.4002C21.4702 19.27 19.9102 20.83 19.9102 22.76V57.66C19.9102 59.59 21.4702 61.15 23.4002 61.15H58.3002C60.2302 61.15 61.7902 59.59 61.7902 57.66V22.76C61.7802 20.83 60.2202 19.27 58.3002 19.27ZM60.3902 57.66C60.3902 58.82 59.4502 59.75 58.3002 59.75H23.4002C22.2402 59.75 21.3102 58.81 21.3102 57.66V22.76C21.3102 21.6 22.2502 20.67 23.4002 20.67H58.3002C59.4602 20.67 60.3902 21.61 60.3902 22.76V57.66Z" fill="white"/>
<path d="M40.8501 23.46C31.6001 23.46 24.1001 30.96 24.1001 40.21C24.1001 49.46 31.6001 56.96 40.8501 56.96C50.1001 56.96 57.6001 49.46 57.6001 40.21C57.5901 30.96 50.0901 23.47 40.8501 23.46ZM40.8501 55.57C32.3701 55.57 25.4901 48.69 25.4901 40.21C25.4901 31.73 32.3701 24.85 40.8501 24.85C49.3301 24.85 56.2001 31.73 56.2001 40.21C56.1901 48.69 49.3201 55.56 40.8501 55.57Z" fill="white"/>
<path d="M56.9001 22.0601C55.7401 22.0601 54.8101 23.0001 54.8101 24.1501C54.8101 25.3101 55.7501 26.2401 56.9001 26.2401C58.0601 26.2401 58.9901 25.3001 58.9901 24.1501C58.9901 23.0001 58.0601 22.0601 56.9001 22.0601ZM56.9001 24.8501C56.5101 24.8501 56.2001 24.5401 56.2001 24.1501C56.2001 23.7601 56.5101 23.4501 56.9001 23.4501C57.2901 23.4501 57.6001 23.7601 57.6001 24.1501C57.6001 24.5401 57.2901 24.8501 56.9001 24.8501Z" fill="white"/>
<path d="M24.7902 26.2499C25.9502 26.2499 26.8802 25.3099 26.8802 24.1599C26.8802 22.9999 25.9402 22.0699 24.7902 22.0699C23.6302 22.0699 22.7002 23.0099 22.7002 24.1599C22.7002 25.3099 23.6302 26.2499 24.7902 26.2499ZM24.7902 23.4599C25.1802 23.4599 25.4902 23.7699 25.4902 24.1599C25.4902 24.5499 25.1802 24.8599 24.7902 24.8599C24.4002 24.8599 24.0902 24.5499 24.0902 24.1599C24.0902 23.7699 24.4102 23.4599 24.7902 23.4599Z" fill="white"/>
<path d="M56.9001 54.17C55.7401 54.17 54.8101 55.11 54.8101 56.26C54.8101 57.41 55.7501 58.35 56.9001 58.35C58.0601 58.35 58.9901 57.41 58.9901 56.26C58.9901 55.11 58.0601 54.17 56.9001 54.17ZM56.9001 56.96C56.5101 56.96 56.2001 56.65 56.2001 56.26C56.2001 55.87 56.5101 55.56 56.9001 55.56C57.2901 55.56 57.6001 55.87 57.6001 56.26C57.6001 56.65 57.2901 56.96 56.9001 56.96Z" fill="white"/>
<path d="M24.7902 54.17C23.6302 54.17 22.7002 55.11 22.7002 56.26C22.7002 57.41 23.6402 58.35 24.7902 58.35C25.9502 58.35 26.8802 57.41 26.8802 56.26C26.8802 55.11 25.9502 54.17 24.7902 54.17ZM24.7902 56.96C24.4002 56.96 24.0902 56.65 24.0902 56.26C24.0902 55.87 24.4002 55.56 24.7902 55.56C25.1802 55.56 25.4902 55.87 25.4902 56.26C25.4902 56.65 25.1802 56.96 24.7902 56.96Z" fill="white"/>
<path d="M30.3801 39.51H51.3201C52.4801 39.51 53.4101 38.57 53.4101 37.42C53.4101 36.26 52.4701 35.33 51.3201 35.33H30.3801C29.2201 35.33 28.2901 36.27 28.2901 37.42C28.2801 38.57 29.2201 39.51 30.3801 39.51ZM30.3801 36.72H51.3201C51.7101 36.72 52.0201 37.03 52.0201 37.42C52.0201 37.81 51.7101 38.12 51.3201 38.12H30.3801C29.9901 38.12 29.6801 37.81 29.6801 37.42C29.6801 37.03 29.9901 36.72 30.3801 36.72Z" fill="white"/>
<path d="M32.4699 33.93H49.2199C50.3799 33.93 51.3099 32.99 51.3099 31.84C51.3099 30.69 50.3699 29.75 49.2199 29.75H32.4699C31.3099 29.75 30.3799 30.69 30.3799 31.84C30.3799 32.99 31.3099 33.93 32.4699 33.93ZM32.4699 31.14H49.2199C49.6099 31.14 49.9199 31.45 49.9199 31.84C49.9199 32.23 49.6099 32.54 49.2199 32.54H32.4699C32.0799 32.54 31.7699 32.23 31.7699 31.84C31.7699 31.45 32.0799 31.14 32.4699 31.14Z" fill="white"/>
<path d="M51.32 40.91H30.38C29.22 40.91 28.29 41.85 28.29 43C28.29 44.16 29.23 45.09 30.38 45.09H51.32C52.48 45.09 53.41 44.15 53.41 43C53.41 41.85 52.47 40.91 51.32 40.91ZM51.32 43.7H30.38C29.99 43.7 29.68 43.39 29.68 43C29.68 42.61 29.99 42.3 30.38 42.3H51.32C51.71 42.3 52.02 42.61 52.02 43C52.01 43.39 51.7 43.7 51.32 43.7Z" fill="white"/>
<path d="M49.2199 46.49H32.4699C31.3099 46.49 30.3799 47.43 30.3799 48.58C30.3799 49.73 31.3199 50.67 32.4699 50.67H49.2199C50.3799 50.67 51.3099 49.73 51.3099 48.58C51.3099 47.43 50.3799 46.49 49.2199 46.49ZM49.2199 49.28H32.4699C32.0799 49.28 31.7699 48.97 31.7699 48.58C31.7699 48.19 32.0799 47.88 32.4699 47.88H49.2199C49.6099 47.88 49.9199 48.19 49.9199 48.58C49.9199 48.97 49.6099 49.28 49.2199 49.28Z" fill="white"/>
</g>
<defs>
<clipPath id="clip0">
<rect width="76.53" height="74.51" fill="white"/>
</clipPath>
</defs>
</svg>
