<svg width="77" height="75" viewBox="0 0 77 75" fill="none" xmlns="http://www.w3.org/2000/svg">
<g clip-path="url(#clip0)">
<path d="M40.9401 74.52C60.5959 74.52 76.5301 58.5858 76.5301 38.93C76.5301 19.2742 60.5959 3.33997 40.9401 3.33997C21.2843 3.33997 5.3501 19.2742 5.3501 38.93C5.3501 58.5858 21.2843 74.52 40.9401 74.52Z" fill="#0D3E69"/>
<path d="M0 35.01C2.01 16.49 11.81 7.92004 19.67 4.00004C28.12 -0.209965 36.1 3.496e-05 36.44 0.010035L36.17 8.67004C35.17 8.65003 11.6 8.38003 8.61 35.94L0 35.01Z" fill="#FF6F61"/>
<path d="M58.3801 21.91H54.5601V21.34C54.5601 20.57 53.9401 19.95 53.1701 19.95H50.7401C49.9701 19.95 49.3501 20.57 49.3501 21.34V21.91C35.1001 22.25 23.6201 33.7199 23.2801 47.9799H22.7001C21.9301 47.9799 21.3101 48.5999 21.3101 49.3699V51.7999C21.3101 52.57 21.9301 53.1899 22.7001 53.1899H23.2701V57.0099C23.2701 57.7799 23.8901 58.4 24.6601 58.4H33.6101C34.3801 58.4 35.0001 57.7799 35.0001 57.0099V53.2H35.5701C36.3401 53.2 36.9601 52.58 36.9601 51.81V49.38C36.9601 48.61 36.3401 47.99 35.5701 47.99H34.3701C34.7001 39.86 41.2201 33.3399 49.3501 33.0099V34.2099C49.3501 34.9799 49.9701 35.5999 50.7401 35.5999H53.1701C53.9401 35.5999 54.5601 34.9799 54.5601 34.2099V33.6399H58.3801C59.1501 33.6399 59.7701 33.02 59.7701 32.25V23.2999C59.7701 22.5299 59.1501 21.91 58.3801 21.91ZM33.6901 57.02C33.6901 57.07 33.6501 57.11 33.6001 57.11H24.6501C24.6001 57.11 24.5601 57.07 24.5601 57.02V53.2H33.6901V57.02ZM35.6501 49.3699V51.7999C35.6501 51.8499 35.6101 51.8899 35.5601 51.8899H35.0001H23.2601H22.7001C22.6501 51.8899 22.6101 51.8499 22.6101 51.7999V49.3699C22.6101 49.32 22.6501 49.2799 22.7001 49.2799H23.2601H34.3401H35.5601C35.6101 49.2899 35.6501 49.32 35.6501 49.3699ZM33.0501 47.9799H24.5701C24.9101 34.45 35.8001 23.5599 49.3301 23.2199V31.7C40.4901 32.03 33.3901 39.1299 33.0501 47.9799ZM53.2501 34.2099C53.2501 34.2599 53.2101 34.2999 53.1601 34.2999H50.7301C50.6801 34.2999 50.6401 34.2599 50.6401 34.2099V32.99V21.91V21.34C50.6401 21.29 50.6801 21.25 50.7301 21.25H53.1601C53.2101 21.25 53.2501 21.29 53.2501 21.34V21.91V33.6399V34.2099ZM58.4701 32.25C58.4701 32.3 58.4301 32.34 58.3801 32.34H54.5601V23.2099H58.3801C58.4301 23.2099 58.4701 23.2499 58.4701 23.2999V32.25Z" fill="white"/>
</g>
<defs>
<clipPath id="clip0">
<rect width="76.53" height="74.51" fill="white"/>
</clipPath>
</defs>
</svg>
