<svg width="77" height="75" viewBox="0 0 77 75" fill="none" xmlns="http://www.w3.org/2000/svg">
<g clip-path="url(#clip0)">
<path d="M40.9401 74.5201C60.5959 74.5201 76.5301 58.5859 76.5301 38.9301C76.5301 19.2743 60.5959 3.34009 40.9401 3.34009C21.2843 3.34009 5.3501 19.2743 5.3501 38.9301C5.3501 58.5859 21.2843 74.5201 40.9401 74.5201Z" fill="#0D3E69"/>
<path d="M0 35.01C2.01 16.49 11.81 7.92004 19.67 4.00004C28.12 -0.209965 36.1 3.496e-05 36.44 0.010035L36.17 8.67004C35.17 8.65003 11.6 8.38003 8.61 35.94L0 35.01Z" fill="#FF6F61"/>
<path d="M41.38 59.32C35.51 59.32 31.52 58.27 29.5 56.19C28.23 54.88 28.24 53.63 28.24 53.49L27.5 29.49L33.87 25.12C33.92 24.25 34.09 22.94 34.66 22.27C34.99 21.89 35.53 21.29 41.07 21.31H41.34C46.54 21.27 47.48 21.77 47.95 22.23C48.39 22.67 48.61 23.56 48.62 24.89L54.78 29.51L54.14 53.71C54.2 54.12 54.24 55.07 53.48 56.09C51.91 58.18 47.97 59.26 41.75 59.31C41.62 59.32 41.5 59.32 41.38 59.32ZM29.54 30.52L30.25 53.49C30.25 53.56 30.51 57.43 41.73 57.32C48.87 57.27 51.11 55.83 51.81 54.98C52.23 54.47 52.17 54.08 52.16 54.04L52.13 53.78L52.75 30.51L46.59 25.89L46.61 25.37C46.63 24.72 46.58 23.96 46.49 23.66C46.26 23.59 45.19 23.31 41.35 23.33H41.13C37.52 23.35 36.42 23.58 36.13 23.67C35.99 24 35.86 24.9 35.85 25.69L35.84 26.21L29.54 30.52Z" fill="white"/>
<path d="M45.6998 44.4099C45.6998 47.2699 43.8298 49.5899 41.5198 49.5899C39.2098 49.5899 37.3398 47.2699 37.3398 44.4099C37.3398 41.5499 41.5198 35.9399 41.5198 35.9399C41.5198 35.9399 45.6998 41.5499 45.6998 44.4099Z" fill="white"/>
</g>
<defs>
<clipPath id="clip0">
<rect width="76.53" height="74.51" fill="white"/>
</clipPath>
</defs>
</svg>
