<svg width="48" height="48" viewBox="0 0 48 48" fill="none" xmlns="http://www.w3.org/2000/svg">
<g clip-path="url(#clip0)">
<path d="M25.6787 48C13.3534 48 3.35748 37.7351 3.35748 25.0781C3.35748 12.4211 13.3534 2.15625 25.6787 2.15625C38.0041 2.15625 48 12.4211 48 25.0781C48 37.7351 38.0041 48 25.6787 48Z" fill="#EF7869"/>
<path d="M34.1545 4.60461V30.5588L42.4006 41.6996" stroke="white" stroke-miterlimit="10"/>
<path d="M17.203 4.60461V30.5588L8.95697 41.6996" stroke="white" stroke-miterlimit="10"/>
<path d="M0 22.5514C1.25769 10.6244 7.40396 5.09889 12.3363 2.57198C17.6405 -0.145846 22.6493 0.000153428 22.8571 0.000153428L22.6931 5.58181C22.0588 5.57058 7.27273 5.40212 5.4026 23.1466L0 22.5514Z" fill="#0E3E67"/>
<path d="M30.3048 28.1104H21.0526L25.6787 23.3599L30.3048 28.1104Z" fill="white"/>
<path d="M25.6787 28.1105V44.5971" stroke="white" stroke-miterlimit="10"/>
</g>
<defs>
<clipPath id="clip0">
<rect width="48" height="48" fill="white"/>
</clipPath>
</defs>
</svg>
