<svg width="48" height="48" viewBox="0 0 48 48" fill="none" xmlns="http://www.w3.org/2000/svg">
<g clip-path="url(#clip0)">
<path d="M25.6756 48C38.005 48 48 37.7349 48 25.0723C48 12.4097 38.005 2.14465 25.6756 2.14465C13.3462 2.14465 3.3512 12.4097 3.3512 25.0723C3.3512 37.7349 13.3462 48 25.6756 48Z" fill="#EE7768"/>
<path d="M0 22.5518C1.25579 10.62 7.40559 5.09993 12.3427 2.57207C17.6385 -0.140049 22.6473 -0.00739097 22.8554 -2.10921e-05L22.6832 5.57898C22.0589 5.56424 7.27642 5.39473 5.4035 23.1561L0 22.5518Z" fill="#103E68"/>
<path d="M37.8029 28.8678L28.2804 19.2648C27.4624 18.4394 26.1348 18.4394 25.3168 19.2648L15.8014 28.8678C15.5431 29.1257 15.5359 29.5532 15.7943 29.8185C16.0454 30.0838 16.4616 30.0912 16.72 29.8259L17.4591 29.0815V36.7535C17.4591 38.3675 18.7436 39.6867 20.3151 39.6867H33.2821C34.8536 39.6867 36.1381 38.3675 36.1381 36.7535V29.0815L36.8772 29.8259C37.0064 29.9511 37.1715 30.0175 37.3365 30.0175C37.5087 30.0175 37.6738 29.9511 37.8029 29.8185C38.0684 29.5605 38.0613 29.1331 37.8029 28.8678ZM34.8321 36.7535C34.8321 37.6306 34.1432 38.3381 33.2893 38.3381H20.3223C19.4684 38.3381 18.7795 37.6306 18.7795 36.7535V27.7623L26.2496 20.2229C26.3286 20.1418 26.4147 20.0829 26.5152 20.046C26.7807 19.9355 27.0892 19.9797 27.3117 20.1639C27.3332 20.1787 27.3547 20.2008 27.3691 20.2155L34.8393 27.7549L34.8321 36.7535Z" fill="white"/>
<path d="M16.4258 23.1561C19.9808 23.1561 22.8626 20.1964 22.8626 16.5454C22.8626 12.8943 19.9808 9.93457 16.4258 9.93457C12.8708 9.93457 9.98895 12.8943 9.98895 16.5454C9.98895 20.1964 12.8708 23.1561 16.4258 23.1561Z" fill="white"/>
<path d="M16.7846 14.2534H16.067V19.8987H16.7846V14.2534Z" fill="#EE7768"/>
<path d="M13.4908 16.6928L14.0146 17.194L16.4186 14.5334L18.8297 17.194L19.3535 16.6928L16.4186 13.4501L13.4908 16.6928Z" fill="#EE7768"/>
</g>
<defs>
<clipPath id="clip0">
<rect width="48" height="48" fill="white"/>
</clipPath>
</defs>
</svg>
