<svg width="327" height="50" viewBox="0 0 327 50" fill="none" xmlns="http://www.w3.org/2000/svg">
<g clip-path="url(#clip0)">
<path d="M229.679 50C242.006 50 252 39.7375 252 27.0781C252 14.4187 242.006 4.15625 229.679 4.15625C217.351 4.15625 207.357 14.4187 207.357 27.0781C207.357 39.7375 217.351 50 229.679 50Z" fill="#EE7768"/>
<path d="M204 24.5514C205.258 12.6244 211.404 7.09889 216.336 4.57198C221.64 1.85415 226.649 2.00015 226.857 2.00015L226.693 7.58181C226.059 7.57058 211.284 7.40212 209.403 25.1466L204 24.5514Z" fill="#103E68"/>
<path d="M235.005 39.4656H218.709V22.743H234.994V39.4656H235.005ZM220.601 37.5339H233.124V24.6747H220.601V37.5339Z" fill="white"/>
<path d="M242.201 32.0646H225.917V15.342H242.201V32.0646ZM227.798 30.1329H240.32V17.2737H227.798V30.1329Z" fill="white"/>
</g>
<g clip-path="url(#clip1)">
<path d="M25.6787 48C38.0064 48 47.9999 37.7375 47.9999 25.0781C47.9999 12.4187 38.0064 2.15625 25.6787 2.15625C13.351 2.15625 3.35742 12.4187 3.35742 25.0781C3.35742 37.7375 13.351 48 25.6787 48Z" fill="#EE7768"/>
<path d="M0 22.5514C1.25769 10.6244 7.40396 5.09889 12.3363 2.57198C17.6405 -0.145846 22.6494 0.000153428 22.8571 0.000153428L22.6931 5.58181C22.0588 5.57058 7.28366 5.40212 5.4026 23.1466L0 22.5514Z" fill="#103E68"/>
<path d="M23.7977 24.1348H13.3315V18.6429H23.7977V24.1348ZM13.9549 23.4946H23.1634V19.2943H13.9549V23.4946Z" fill="white"/>
<path d="M29.6595 28.9864H19.1934V23.4946H29.6595V28.9864ZM19.8167 28.3463H29.0252V24.146H19.8167V28.3463V28.3463Z" fill="white"/>
<path d="M39.4916 28.9864H29.0254V23.4946H39.4916V28.9864ZM29.6597 28.3463H38.8682V24.146H29.6597V28.3463V28.3463Z" fill="white"/>
<path d="M19.8168 28.9864H9.36157V23.4946H19.8277V28.9864H19.8168ZM9.98495 28.3463H19.1934V24.146H9.98495V28.3463Z" fill="white"/>
<path d="M31.7484 34.029H21.2822V28.5372H31.7484V34.029ZM21.9165 33.3889H31.125V29.1886H21.9165V33.3889Z" fill="white"/>
<path d="M41.5912 34.029H31.125V28.5372H41.5912V34.029ZM31.7484 33.3889H40.9569V29.1886H31.7484V33.3889Z" fill="white"/>
<path d="M21.9166 34.029H11.4504V28.5372H21.9166V34.029ZM12.0848 33.3889H21.2932V29.1886H12.0848V33.3889V33.3889Z" fill="white"/>
<path d="M33.6295 24.1348H23.1633V18.6429H33.6295V24.1348ZM23.7976 23.4946H33.0061V19.2943H23.7976V23.4946V23.4946Z" fill="white"/>
</g>
<path d="M59.444 12.812C59.444 11.996 59.632 11.264 60.008 10.616C60.392 9.968 60.908 9.464 61.556 9.104C62.212 8.736 62.928 8.552 63.704 8.552C64.592 8.552 65.38 8.772 66.068 9.212C66.764 9.644 67.268 10.26 67.58 11.06H65.936C65.72 10.62 65.42 10.292 65.036 10.076C64.652 9.86 64.208 9.752 63.704 9.752C63.152 9.752 62.66 9.876 62.228 10.124C61.796 10.372 61.456 10.728 61.208 11.192C60.968 11.656 60.848 12.196 60.848 12.812C60.848 13.428 60.968 13.968 61.208 14.432C61.456 14.896 61.796 15.256 62.228 15.512C62.66 15.76 63.152 15.884 63.704 15.884C64.208 15.884 64.652 15.776 65.036 15.56C65.42 15.344 65.72 15.016 65.936 14.576H67.58C67.268 15.376 66.764 15.992 66.068 16.424C65.38 16.856 64.592 17.072 63.704 17.072C62.92 17.072 62.204 16.892 61.556 16.532C60.908 16.164 60.392 15.656 60.008 15.008C59.632 14.36 59.444 13.628 59.444 12.812ZM72.9853 17.084C72.2093 17.084 71.4933 16.904 70.8373 16.544C70.1893 16.176 69.6733 15.668 69.2893 15.02C68.9133 14.364 68.7253 13.628 68.7253 12.812C68.7253 11.996 68.9133 11.264 69.2893 10.616C69.6733 9.968 70.1893 9.464 70.8373 9.104C71.4933 8.736 72.2093 8.552 72.9853 8.552C73.7693 8.552 74.4853 8.736 75.1333 9.104C75.7893 9.464 76.3053 9.968 76.6813 10.616C77.0573 11.264 77.2453 11.996 77.2453 12.812C77.2453 13.628 77.0573 14.364 76.6813 15.02C76.3053 15.668 75.7893 16.176 75.1333 16.544C74.4853 16.904 73.7693 17.084 72.9853 17.084ZM72.9853 15.896C73.5373 15.896 74.0293 15.772 74.4613 15.524C74.8933 15.268 75.2293 14.908 75.4693 14.444C75.7173 13.972 75.8413 13.428 75.8413 12.812C75.8413 12.196 75.7173 11.656 75.4693 11.192C75.2293 10.728 74.8933 10.372 74.4613 10.124C74.0293 9.876 73.5373 9.752 72.9853 9.752C72.4333 9.752 71.9413 9.876 71.5093 10.124C71.0773 10.372 70.7373 10.728 70.4893 11.192C70.2493 11.656 70.1293 12.196 70.1293 12.812C70.1293 13.428 70.2493 13.972 70.4893 14.444C70.7373 14.908 71.0773 15.268 71.5093 15.524C71.9413 15.772 72.4333 15.896 72.9853 15.896ZM85.4434 17H84.0754L79.9594 10.772V17H78.5914V8.648H79.9594L84.0754 14.864V8.648H85.4434V17ZM89.9878 17.084C89.4278 17.084 88.9238 16.988 88.4758 16.796C88.0278 16.596 87.6758 16.316 87.4198 15.956C87.1638 15.596 87.0358 15.176 87.0358 14.696H88.4998C88.5318 15.056 88.6718 15.352 88.9198 15.584C89.1758 15.816 89.5318 15.932 89.9878 15.932C90.4598 15.932 90.8278 15.82 91.0918 15.596C91.3558 15.364 91.4878 15.068 91.4878 14.708C91.4878 14.428 91.4038 14.2 91.2358 14.024C91.0758 13.848 90.8718 13.712 90.6238 13.616C90.3838 13.52 90.0478 13.416 89.6158 13.304C89.0718 13.16 88.6278 13.016 88.2838 12.872C87.9478 12.72 87.6598 12.488 87.4198 12.176C87.1798 11.864 87.0598 11.448 87.0598 10.928C87.0598 10.448 87.1798 10.028 87.4198 9.668C87.6598 9.308 87.9958 9.032 88.4278 8.84C88.8598 8.648 89.3598 8.552 89.9278 8.552C90.7358 8.552 91.3958 8.756 91.9078 9.164C92.4278 9.564 92.7158 10.116 92.7718 10.82H91.2598C91.2358 10.516 91.0918 10.256 90.8278 10.04C90.5638 9.824 90.2158 9.716 89.7838 9.716C89.3918 9.716 89.0718 9.816 88.8238 10.016C88.5758 10.216 88.4518 10.504 88.4518 10.88C88.4518 11.136 88.5278 11.348 88.6798 11.516C88.8398 11.676 89.0398 11.804 89.2798 11.9C89.5198 11.996 89.8478 12.1 90.2638 12.212C90.8158 12.364 91.2638 12.516 91.6078 12.668C91.9598 12.82 92.2558 13.056 92.4958 13.376C92.7438 13.688 92.8678 14.108 92.8678 14.636C92.8678 15.06 92.7518 15.46 92.5198 15.836C92.2958 16.212 91.9638 16.516 91.5238 16.748C91.0918 16.972 90.5798 17.084 89.9878 17.084ZM99.87 8.66V9.776H97.65V17H96.282V9.776H94.05V8.66H99.87ZM105.587 17L103.667 13.664H102.623V17H101.255V8.66H104.135C104.775 8.66 105.315 8.772 105.755 8.996C106.203 9.22 106.535 9.52 106.751 9.896C106.975 10.272 107.087 10.692 107.087 11.156C107.087 11.7 106.927 12.196 106.607 12.644C106.295 13.084 105.811 13.384 105.155 13.544L107.219 17H105.587ZM102.623 12.572H104.135C104.647 12.572 105.031 12.444 105.287 12.188C105.551 11.932 105.683 11.588 105.683 11.156C105.683 10.724 105.555 10.388 105.299 10.148C105.043 9.9 104.655 9.776 104.135 9.776H102.623V12.572ZM110.194 8.66V13.976C110.194 14.608 110.358 15.084 110.686 15.404C111.022 15.724 111.486 15.884 112.078 15.884C112.678 15.884 113.142 15.724 113.47 15.404C113.806 15.084 113.974 14.608 113.974 13.976V8.66H115.342V13.952C115.342 14.632 115.194 15.208 114.898 15.68C114.602 16.152 114.206 16.504 113.71 16.736C113.214 16.968 112.666 17.084 112.066 17.084C111.466 17.084 110.918 16.968 110.422 16.736C109.934 16.504 109.546 16.152 109.258 15.68C108.97 15.208 108.826 14.632 108.826 13.952V8.66H110.194ZM116.667 12.812C116.667 11.996 116.855 11.264 117.231 10.616C117.615 9.968 118.131 9.464 118.779 9.104C119.435 8.736 120.151 8.552 120.927 8.552C121.815 8.552 122.603 8.772 123.291 9.212C123.987 9.644 124.491 10.26 124.803 11.06H123.159C122.943 10.62 122.643 10.292 122.259 10.076C121.875 9.86 121.431 9.752 120.927 9.752C120.375 9.752 119.883 9.876 119.451 10.124C119.019 10.372 118.679 10.728 118.431 11.192C118.191 11.656 118.071 12.196 118.071 12.812C118.071 13.428 118.191 13.968 118.431 14.432C118.679 14.896 119.019 15.256 119.451 15.512C119.883 15.76 120.375 15.884 120.927 15.884C121.431 15.884 121.875 15.776 122.259 15.56C122.643 15.344 122.943 15.016 123.159 14.576H124.803C124.491 15.376 123.987 15.992 123.291 16.424C122.603 16.856 121.815 17.072 120.927 17.072C120.143 17.072 119.427 16.892 118.779 16.532C118.131 16.164 117.615 15.656 117.231 15.008C116.855 14.36 116.667 13.628 116.667 12.812ZM125.948 12.812C125.948 11.996 126.136 11.264 126.512 10.616C126.896 9.968 127.412 9.464 128.06 9.104C128.716 8.736 129.432 8.552 130.208 8.552C131.096 8.552 131.884 8.772 132.572 9.212C133.268 9.644 133.772 10.26 134.084 11.06H132.44C132.224 10.62 131.924 10.292 131.54 10.076C131.156 9.86 130.712 9.752 130.208 9.752C129.656 9.752 129.164 9.876 128.732 10.124C128.3 10.372 127.96 10.728 127.712 11.192C127.472 11.656 127.352 12.196 127.352 12.812C127.352 13.428 127.472 13.968 127.712 14.432C127.96 14.896 128.3 15.256 128.732 15.512C129.164 15.76 129.656 15.884 130.208 15.884C130.712 15.884 131.156 15.776 131.54 15.56C131.924 15.344 132.224 15.016 132.44 14.576H134.084C133.772 15.376 133.268 15.992 132.572 16.424C131.884 16.856 131.096 17.072 130.208 17.072C129.424 17.072 128.708 16.892 128.06 16.532C127.412 16.164 126.896 15.656 126.512 15.008C126.136 14.36 125.948 13.628 125.948 12.812ZM137.053 8.66V17H135.685V8.66H137.053ZM142.653 17.084C141.877 17.084 141.161 16.904 140.505 16.544C139.857 16.176 139.341 15.668 138.957 15.02C138.581 14.364 138.393 13.628 138.393 12.812C138.393 11.996 138.581 11.264 138.957 10.616C139.341 9.968 139.857 9.464 140.505 9.104C141.161 8.736 141.877 8.552 142.653 8.552C143.437 8.552 144.153 8.736 144.801 9.104C145.457 9.464 145.973 9.968 146.349 10.616C146.725 11.264 146.913 11.996 146.913 12.812C146.913 13.628 146.725 14.364 146.349 15.02C145.973 15.668 145.457 16.176 144.801 16.544C144.153 16.904 143.437 17.084 142.653 17.084ZM142.653 15.896C143.205 15.896 143.697 15.772 144.129 15.524C144.561 15.268 144.897 14.908 145.137 14.444C145.385 13.972 145.509 13.428 145.509 12.812C145.509 12.196 145.385 11.656 145.137 11.192C144.897 10.728 144.561 10.372 144.129 10.124C143.697 9.876 143.205 9.752 142.653 9.752C142.101 9.752 141.609 9.876 141.177 10.124C140.745 10.372 140.405 10.728 140.157 11.192C139.917 11.656 139.797 12.196 139.797 12.812C139.797 13.428 139.917 13.972 140.157 14.444C140.405 14.908 140.745 15.268 141.177 15.524C141.609 15.772 142.101 15.896 142.653 15.896ZM143.889 6.872L141.237 8.18V7.172L143.889 5.708V6.872ZM155.111 17H153.743L149.627 10.772V17H148.259V8.648H149.627L153.743 14.864V8.648H155.111V17ZM62.624 26.66C63.512 26.66 64.288 26.832 64.952 27.176C65.624 27.512 66.14 28 66.5 28.64C66.868 29.272 67.052 30.012 67.052 30.86C67.052 31.708 66.868 32.444 66.5 33.068C66.14 33.692 65.624 34.172 64.952 34.508C64.288 34.836 63.512 35 62.624 35H59.9V26.66H62.624ZM62.624 33.884C63.6 33.884 64.348 33.62 64.868 33.092C65.388 32.564 65.648 31.82 65.648 30.86C65.648 29.892 65.388 29.136 64.868 28.592C64.348 28.048 63.6 27.776 62.624 27.776H61.268V33.884H62.624ZM69.7758 27.764V30.212H72.6558V31.328H69.7758V33.884H73.0158V35H68.4078V26.648H73.0158V27.764H69.7758ZM82.282 30.716C82.73 30.796 83.11 31.032 83.422 31.424C83.734 31.816 83.89 32.26 83.89 32.756C83.89 33.18 83.778 33.564 83.554 33.908C83.338 34.244 83.022 34.512 82.606 34.712C82.19 34.904 81.706 35 81.154 35H77.818V26.66H80.998C81.566 26.66 82.054 26.756 82.462 26.948C82.87 27.14 83.178 27.4 83.386 27.728C83.594 28.048 83.698 28.408 83.698 28.808C83.698 29.288 83.57 29.688 83.314 30.008C83.058 30.328 82.714 30.564 82.282 30.716ZM79.186 30.164H80.878C81.326 30.164 81.674 30.064 81.922 29.864C82.178 29.656 82.306 29.36 82.306 28.976C82.306 28.6 82.178 28.308 81.922 28.1C81.674 27.884 81.326 27.776 80.878 27.776H79.186V30.164ZM81.034 33.884C81.498 33.884 81.862 33.772 82.126 33.548C82.39 33.324 82.522 33.012 82.522 32.612C82.522 32.204 82.382 31.88 82.102 31.64C81.822 31.4 81.45 31.28 80.986 31.28H79.186V33.884H81.034ZM86.7446 33.896H89.5646V35H85.3766V26.66H86.7446V33.896ZM94.5126 35.084C93.7366 35.084 93.0206 34.904 92.3646 34.544C91.7166 34.176 91.2006 33.668 90.8166 33.02C90.4406 32.364 90.2526 31.628 90.2526 30.812C90.2526 29.996 90.4406 29.264 90.8166 28.616C91.2006 27.968 91.7166 27.464 92.3646 27.104C93.0206 26.736 93.7366 26.552 94.5126 26.552C95.2966 26.552 96.0126 26.736 96.6606 27.104C97.3166 27.464 97.8326 27.968 98.2086 28.616C98.5846 29.264 98.7726 29.996 98.7726 30.812C98.7726 31.628 98.5846 32.364 98.2086 33.02C97.8326 33.668 97.3166 34.176 96.6606 34.544C96.0126 34.904 95.2966 35.084 94.5126 35.084ZM94.5126 33.896C95.0646 33.896 95.5566 33.772 95.9886 33.524C96.4206 33.268 96.7566 32.908 96.9966 32.444C97.2446 31.972 97.3686 31.428 97.3686 30.812C97.3686 30.196 97.2446 29.656 96.9966 29.192C96.7566 28.728 96.4206 28.372 95.9886 28.124C95.5566 27.876 95.0646 27.752 94.5126 27.752C93.9606 27.752 93.4686 27.876 93.0366 28.124C92.6046 28.372 92.2646 28.728 92.0166 29.192C91.7766 29.656 91.6566 30.196 91.6566 30.812C91.6566 31.428 91.7766 31.972 92.0166 32.444C92.2646 32.908 92.6046 33.268 93.0366 33.524C93.4686 33.772 93.9606 33.896 94.5126 33.896ZM99.6628 30.812C99.6628 29.996 99.8508 29.264 100.227 28.616C100.611 27.968 101.127 27.464 101.775 27.104C102.431 26.736 103.147 26.552 103.923 26.552C104.811 26.552 105.599 26.772 106.287 27.212C106.983 27.644 107.487 28.26 107.799 29.06H106.155C105.939 28.62 105.639 28.292 105.255 28.076C104.871 27.86 104.427 27.752 103.923 27.752C103.371 27.752 102.879 27.876 102.447 28.124C102.015 28.372 101.675 28.728 101.427 29.192C101.187 29.656 101.067 30.196 101.067 30.812C101.067 31.428 101.187 31.968 101.427 32.432C101.675 32.896 102.015 33.256 102.447 33.512C102.879 33.76 103.371 33.884 103.923 33.884C104.427 33.884 104.871 33.776 105.255 33.56C105.639 33.344 105.939 33.016 106.155 32.576H107.799C107.487 33.376 106.983 33.992 106.287 34.424C105.599 34.856 104.811 35.072 103.923 35.072C103.139 35.072 102.423 34.892 101.775 34.532C101.127 34.164 100.611 33.656 100.227 33.008C99.8508 32.36 99.6628 31.628 99.6628 30.812ZM113.996 35L110.768 31.268V35H109.4V26.66H110.768V30.464L114.008 26.66H115.724L112.1 30.836L115.784 35H113.996Z" fill="#575756"/>
<path d="M266.624 8.66C267.512 8.66 268.288 8.832 268.952 9.176C269.624 9.512 270.14 10 270.5 10.64C270.868 11.272 271.052 12.012 271.052 12.86C271.052 13.708 270.868 14.444 270.5 15.068C270.14 15.692 269.624 16.172 268.952 16.508C268.288 16.836 267.512 17 266.624 17H263.9V8.66H266.624ZM266.624 15.884C267.6 15.884 268.348 15.62 268.868 15.092C269.388 14.564 269.648 13.82 269.648 12.86C269.648 11.892 269.388 11.136 268.868 10.592C268.348 10.048 267.6 9.776 266.624 9.776H265.268V15.884H266.624ZM273.776 8.66V17H272.408V8.66H273.776ZM278.32 17.084C277.76 17.084 277.256 16.988 276.808 16.796C276.36 16.596 276.008 16.316 275.752 15.956C275.496 15.596 275.368 15.176 275.368 14.696H276.832C276.864 15.056 277.004 15.352 277.252 15.584C277.508 15.816 277.864 15.932 278.32 15.932C278.792 15.932 279.16 15.82 279.424 15.596C279.688 15.364 279.82 15.068 279.82 14.708C279.82 14.428 279.736 14.2 279.568 14.024C279.408 13.848 279.204 13.712 278.956 13.616C278.716 13.52 278.38 13.416 277.948 13.304C277.404 13.16 276.96 13.016 276.616 12.872C276.28 12.72 275.992 12.488 275.752 12.176C275.512 11.864 275.392 11.448 275.392 10.928C275.392 10.448 275.512 10.028 275.752 9.668C275.992 9.308 276.328 9.032 276.76 8.84C277.192 8.648 277.692 8.552 278.26 8.552C279.068 8.552 279.728 8.756 280.24 9.164C280.76 9.564 281.048 10.116 281.104 10.82H279.592C279.568 10.516 279.424 10.256 279.16 10.04C278.896 9.824 278.548 9.716 278.116 9.716C277.724 9.716 277.404 9.816 277.156 10.016C276.908 10.216 276.784 10.504 276.784 10.88C276.784 11.136 276.86 11.348 277.012 11.516C277.172 11.676 277.372 11.804 277.612 11.9C277.852 11.996 278.18 12.1 278.596 12.212C279.148 12.364 279.596 12.516 279.94 12.668C280.292 12.82 280.588 13.056 280.828 13.376C281.076 13.688 281.2 14.108 281.2 14.636C281.2 15.06 281.084 15.46 280.852 15.836C280.628 16.212 280.296 16.516 279.856 16.748C279.424 16.972 278.912 17.084 278.32 17.084ZM284.182 9.764V12.212H287.062V13.328H284.182V15.884H287.422V17H282.814V8.648H287.422V9.764H284.182ZM295.959 17H294.591L290.475 10.772V17H289.107V8.648H290.475L294.591 14.864V8.648H295.959V17ZM290.583 7.964C290.647 7.5 290.799 7.152 291.039 6.92C291.279 6.68 291.579 6.56 291.939 6.56C292.091 6.56 292.223 6.584 292.335 6.632C292.447 6.68 292.583 6.752 292.743 6.848C292.863 6.928 292.963 6.988 293.043 7.028C293.131 7.068 293.227 7.088 293.331 7.088C293.467 7.088 293.579 7.048 293.667 6.968C293.763 6.88 293.823 6.752 293.847 6.584H294.615C294.551 7.048 294.399 7.4 294.159 7.64C293.919 7.872 293.619 7.988 293.259 7.988C293.107 7.988 292.971 7.964 292.851 7.916C292.731 7.86 292.599 7.784 292.455 7.688C292.311 7.6 292.199 7.54 292.119 7.508C292.047 7.468 291.963 7.448 291.867 7.448C291.731 7.448 291.615 7.492 291.519 7.58C291.431 7.668 291.375 7.796 291.351 7.964H290.583ZM301.559 17.084C300.783 17.084 300.067 16.904 299.411 16.544C298.763 16.176 298.247 15.668 297.863 15.02C297.487 14.364 297.299 13.628 297.299 12.812C297.299 11.996 297.487 11.264 297.863 10.616C298.247 9.968 298.763 9.464 299.411 9.104C300.067 8.736 300.783 8.552 301.559 8.552C302.343 8.552 303.059 8.736 303.707 9.104C304.363 9.464 304.879 9.968 305.255 10.616C305.631 11.264 305.819 11.996 305.819 12.812C305.819 13.628 305.631 14.364 305.255 15.02C304.879 15.668 304.363 16.176 303.707 16.544C303.059 16.904 302.343 17.084 301.559 17.084ZM301.559 15.896C302.111 15.896 302.603 15.772 303.035 15.524C303.467 15.268 303.803 14.908 304.043 14.444C304.291 13.972 304.415 13.428 304.415 12.812C304.415 12.196 304.291 11.656 304.043 11.192C303.803 10.728 303.467 10.372 303.035 10.124C302.603 9.876 302.111 9.752 301.559 9.752C301.007 9.752 300.515 9.876 300.083 10.124C299.651 10.372 299.311 10.728 299.063 11.192C298.823 11.656 298.703 12.196 298.703 12.812C298.703 13.428 298.823 13.972 299.063 14.444C299.311 14.908 299.651 15.268 300.083 15.524C300.515 15.772 301.007 15.896 301.559 15.896ZM272.684 26.66V35H271.316V29.288L268.772 35H267.824L265.268 29.288V35H263.9V26.66H265.376L268.304 33.2L271.22 26.66H272.684ZM278.286 35.084C277.51 35.084 276.794 34.904 276.138 34.544C275.49 34.176 274.974 33.668 274.59 33.02C274.214 32.364 274.026 31.628 274.026 30.812C274.026 29.996 274.214 29.264 274.59 28.616C274.974 27.968 275.49 27.464 276.138 27.104C276.794 26.736 277.51 26.552 278.286 26.552C279.07 26.552 279.786 26.736 280.434 27.104C281.09 27.464 281.606 27.968 281.982 28.616C282.358 29.264 282.546 29.996 282.546 30.812C282.546 31.628 282.358 32.364 281.982 33.02C281.606 33.668 281.09 34.176 280.434 34.544C279.786 34.904 279.07 35.084 278.286 35.084ZM278.286 33.896C278.838 33.896 279.33 33.772 279.762 33.524C280.194 33.268 280.53 32.908 280.77 32.444C281.018 31.972 281.142 31.428 281.142 30.812C281.142 30.196 281.018 29.656 280.77 29.192C280.53 28.728 280.194 28.372 279.762 28.124C279.33 27.876 278.838 27.752 278.286 27.752C277.734 27.752 277.242 27.876 276.81 28.124C276.378 28.372 276.038 28.728 275.79 29.192C275.55 29.656 275.43 30.196 275.43 30.812C275.43 31.428 275.55 31.972 275.79 32.444C276.038 32.908 276.378 33.268 276.81 33.524C277.242 33.772 277.734 33.896 278.286 33.896ZM286.616 26.66C287.504 26.66 288.28 26.832 288.944 27.176C289.616 27.512 290.132 28 290.492 28.64C290.86 29.272 291.044 30.012 291.044 30.86C291.044 31.708 290.86 32.444 290.492 33.068C290.132 33.692 289.616 34.172 288.944 34.508C288.28 34.836 287.504 35 286.616 35H283.892V26.66H286.616ZM286.616 33.884C287.592 33.884 288.34 33.62 288.86 33.092C289.38 32.564 289.64 31.82 289.64 30.86C289.64 29.892 289.38 29.136 288.86 28.592C288.34 28.048 287.592 27.776 286.616 27.776H285.26V33.884H286.616ZM293.768 27.764V30.212H296.648V31.328H293.768V33.884H297.008V35H292.4V26.648H297.008V27.764H293.768ZM303.025 35L301.105 31.664H300.061V35H298.693V26.66H301.573C302.213 26.66 302.753 26.772 303.193 26.996C303.641 27.22 303.973 27.52 304.189 27.896C304.413 28.272 304.525 28.692 304.525 29.156C304.525 29.7 304.365 30.196 304.045 30.644C303.733 31.084 303.249 31.384 302.593 31.544L304.657 35H303.025ZM300.061 30.572H301.573C302.085 30.572 302.469 30.444 302.725 30.188C302.989 29.932 303.121 29.588 303.121 29.156C303.121 28.724 302.993 28.388 302.737 28.148C302.481 27.9 302.093 27.776 301.573 27.776H300.061V30.572ZM313.127 35H311.759L307.643 28.772V35H306.275V26.648H307.643L311.759 32.864V26.648H313.127V35ZM318.727 35.084C317.951 35.084 317.235 34.904 316.579 34.544C315.931 34.176 315.415 33.668 315.031 33.02C314.655 32.364 314.467 31.628 314.467 30.812C314.467 29.996 314.655 29.264 315.031 28.616C315.415 27.968 315.931 27.464 316.579 27.104C317.235 26.736 317.951 26.552 318.727 26.552C319.511 26.552 320.227 26.736 320.875 27.104C321.531 27.464 322.047 27.968 322.423 28.616C322.799 29.264 322.987 29.996 322.987 30.812C322.987 31.628 322.799 32.364 322.423 33.02C322.047 33.668 321.531 34.176 320.875 34.544C320.227 34.904 319.511 35.084 318.727 35.084ZM318.727 33.896C319.279 33.896 319.771 33.772 320.203 33.524C320.635 33.268 320.971 32.908 321.211 32.444C321.459 31.972 321.583 31.428 321.583 30.812C321.583 30.196 321.459 29.656 321.211 29.192C320.971 28.728 320.635 28.372 320.203 28.124C319.771 27.876 319.279 27.752 318.727 27.752C318.175 27.752 317.683 27.876 317.251 28.124C316.819 28.372 316.479 28.728 316.231 29.192C315.991 29.656 315.871 30.196 315.871 30.812C315.871 31.428 315.991 31.972 316.231 32.444C316.479 32.908 316.819 33.268 317.251 33.524C317.683 33.772 318.175 33.896 318.727 33.896Z" fill="#575756"/>
<defs>
<clipPath id="clip0">
<rect width="48" height="48" fill="white" transform="translate(204 2)"/>
</clipPath>
<clipPath id="clip1">
<rect width="48" height="48" fill="white"/>
</clipPath>
</defs>
</svg>
