<?xml version="1.0" encoding="utf-8"?>
<!-- Generator: Adobe Illustrator 24.0.2, SVG Export Plug-In . SVG Version: 6.00 Build 0)  -->
<svg version="1.1" id="Capa_1" xmlns="http://www.w3.org/2000/svg" xmlns:xlink="http://www.w3.org/1999/xlink" x="0px" y="0px"
	 viewBox="0 0 100 100" style="enable-background:new 0 0 100 100;" xml:space="preserve">
<style type="text/css">
	.st0{fill:#EC7A96;}
	.st1{fill:#FFFFFF;}
	.st2{fill:#103E68;}
</style>
<circle class="st0" cx="61.62" cy="237.69" r="29.32"/>
<path class="st1" d="M52.79,248.22c-1.42-0.07-1.4-2.07,0-2.14c3.95,0.01,14.38,0,18.46,0.01c1.12,0,2.07-0.76,2.32-1.85l2.32-10.03
	c0.13-0.57,0-1.17-0.37-1.63c-0.37-0.46-0.91-0.73-1.5-0.73c-1.64,0-15.57-0.06-22.7-0.09l-1.13-4.2c-0.27-1-1.19-1.7-2.23-1.7
	h-3.62c-0.53,0-0.95,0.43-0.95,0.95c0,0.53,0.43,0.95,0.95,0.95h3.62c0.18,0,0.34,0.12,0.38,0.29l4.34,16.11
	c-0.76,0.03-1.47,0.34-2.01,0.89c-0.57,0.58-0.87,1.34-0.86,2.14c0.03,1.61,1.36,2.93,2.98,2.93h1.39
	c-0.21,0.43-0.32,0.92-0.32,1.43c0,1.84,1.5,3.34,3.34,3.34c1.84,0,3.34-1.5,3.34-3.34c0-0.51-0.12-1-0.32-1.43h6.03
	c-0.21,0.43-0.32,0.92-0.32,1.43c0,1.84,1.5,3.34,3.34,3.34c1.84,0,3.34-1.5,3.34-3.34c0-0.53-0.13-1.03-0.35-1.48
	c0.38-0.13,0.65-0.48,0.65-0.9c0-0.53-0.43-0.95-0.95-0.95H52.79z M58.63,251.56c0,0.79-0.64,1.43-1.43,1.43s-1.43-0.64-1.43-1.43
	c0-0.79,0.64-1.43,1.43-1.43h0C57.99,250.13,58.63,250.77,58.63,251.56z M69.25,252.99c-0.79,0-1.43-0.64-1.43-1.43
	c0-0.78,0.63-1.42,1.41-1.43h0.05c0.78,0.01,1.41,0.65,1.41,1.43C70.69,252.35,70.04,252.99,69.25,252.99L69.25,252.99z
	 M74.02,233.77c0.01,0.01,0,0.01,0,0.02l-0.98,4.23h-3.3l0.56-4.26l3.7,0.01C74.01,233.76,74.01,233.76,74.02,233.77L74.02,233.77z
	 M64.18,244.18v-4.26h3.38L67,244.18H64.18z M59.45,244.18l-0.57-4.26h3.39v4.26H59.45z M55.06,244.18L55.06,244.18
	c-0.24,0-0.44-0.16-0.5-0.38l-1.05-3.88h3.45l0.57,4.26H55.06z M58.63,238.01l-0.57-4.31l4.22,0.02v4.3H58.63z M64.18,238.01v-4.29
	l4.2,0.02l-0.56,4.27H64.18z M56.13,233.69l0.57,4.32h-3.71l-1.17-4.34L56.13,233.69z M71.24,244.18h-2.32l0.56-4.26h3.12l-0.9,3.89
	C71.65,244.03,71.47,244.18,71.24,244.18z"/>
<g>
	<path class="st2" d="M27.89,234.46c1.65-15.26,9.73-22.32,16.21-25.55c6.96-3.47,13.54-3.3,13.82-3.29l-0.22,7.14
		c-0.83-0.02-20.24-0.24-22.7,22.47L27.89,234.46z"/>
</g>
<circle class="st0" cx="52.03" cy="51.55" r="29.32"/>
<path class="st1" d="M43.19,62.08c-1.42-0.07-1.4-2.07,0-2.14c3.95,0.01,14.38,0,18.46,0.01c1.12,0,2.07-0.76,2.32-1.85l2.32-10.03
	c0.13-0.57,0-1.17-0.37-1.63c-0.37-0.46-0.91-0.73-1.5-0.73c-1.64,0-15.57-0.06-22.7-0.09l-1.13-4.2c-0.27-1-1.19-1.7-2.23-1.7
	h-3.62c-0.53,0-0.95,0.43-0.95,0.95c0,0.53,0.43,0.95,0.95,0.95h3.62c0.18,0,0.34,0.12,0.38,0.29l4.34,16.11
	c-0.76,0.03-1.47,0.34-2.01,0.89c-0.57,0.58-0.87,1.34-0.86,2.14c0.03,1.61,1.36,2.93,2.98,2.93h1.39
	c-0.21,0.43-0.32,0.92-0.32,1.43c0,1.84,1.5,3.34,3.34,3.34s3.34-1.5,3.34-3.34c0-0.51-0.12-1-0.32-1.43h6.03
	c-0.21,0.43-0.32,0.92-0.32,1.43c0,1.84,1.5,3.34,3.34,3.34c1.84,0,3.34-1.5,3.34-3.34c0-0.53-0.13-1.03-0.35-1.48
	c0.38-0.13,0.65-0.48,0.65-0.9c0-0.53-0.43-0.95-0.95-0.95H43.19z M49.03,65.42c0,0.79-0.64,1.43-1.43,1.43
	c-0.79,0-1.43-0.64-1.43-1.43c0-0.79,0.64-1.43,1.43-1.43h0C48.39,63.99,49.03,64.63,49.03,65.42z M59.66,66.85
	c-0.79,0-1.43-0.64-1.43-1.43c0-0.78,0.63-1.42,1.41-1.43h0.05c0.78,0.01,1.41,0.65,1.41,1.43C61.09,66.21,60.45,66.85,59.66,66.85
	L59.66,66.85z M64.42,47.63c0.01,0.01,0,0.01,0,0.02l-0.98,4.23h-3.3l0.56-4.26l3.7,0.01C64.42,47.62,64.42,47.62,64.42,47.63
	L64.42,47.63z M54.59,58.04v-4.26h3.38l-0.56,4.26H54.59z M49.85,58.04l-0.57-4.26h3.39v4.26H49.85z M45.46,58.04L45.46,58.04
	c-0.24,0-0.44-0.16-0.5-0.38l-1.05-3.88h3.45l0.57,4.26H45.46z M49.03,51.87l-0.57-4.31l4.22,0.02v4.3H49.03z M54.59,51.87v-4.29
	l4.2,0.02l-0.56,4.27H54.59z M46.53,47.55l0.57,4.32H43.4l-1.17-4.34L46.53,47.55z M61.65,58.04h-2.32l0.56-4.26h3.12l-0.9,3.89
	C62.06,57.89,61.87,58.04,61.65,58.04z"/>
<g>
	<path class="st2" d="M18.3,48.32C19.95,33.06,28.02,26,34.5,22.77c6.96-3.47,13.54-3.3,13.82-3.29l-0.22,7.14
		c-0.83-0.02-20.24-0.24-22.7,22.47L18.3,48.32z"/>
</g>
</svg>
