<?xml version="1.0" encoding="utf-8"?>
<!-- Generator: Adobe Illustrator 24.0.2, SVG Export Plug-In . SVG Version: 6.00 Build 0)  -->
<svg version="1.1" id="Capa_1" xmlns="http://www.w3.org/2000/svg" xmlns:xlink="http://www.w3.org/1999/xlink" x="0px" y="0px"
	 viewBox="0 0 100 100" style="enable-background:new 0 0 100 100;" xml:space="preserve">
<style type="text/css">
	.st0{fill:#EC7A96;}
	.st1{fill:#FFFFFF;}
	.st2{fill:#103E68;}
	.st3{fill:#B854A8;}
</style>
<circle class="st0" cx="61.62" cy="237.69" r="29.32"/>
<path class="st1" d="M52.79,248.22c-1.42-0.07-1.4-2.07,0-2.14c3.95,0.01,14.38,0,18.46,0.01c1.12,0,2.07-0.76,2.32-1.85l2.32-10.03
	c0.13-0.57,0-1.17-0.37-1.63c-0.37-0.46-0.91-0.73-1.5-0.73c-1.64,0-15.57-0.06-22.7-0.09l-1.13-4.2c-0.27-1-1.19-1.7-2.23-1.7
	h-3.62c-0.53,0-0.95,0.43-0.95,0.95c0,0.53,0.43,0.95,0.95,0.95h3.62c0.18,0,0.34,0.12,0.38,0.29l4.34,16.11
	c-0.76,0.03-1.47,0.34-2.01,0.89c-0.57,0.58-0.87,1.34-0.86,2.14c0.03,1.61,1.36,2.93,2.98,2.93h1.39
	c-0.21,0.43-0.32,0.92-0.32,1.43c0,1.84,1.5,3.34,3.34,3.34c1.84,0,3.34-1.5,3.34-3.34c0-0.51-0.12-1-0.32-1.43h6.03
	c-0.21,0.43-0.32,0.92-0.32,1.43c0,1.84,1.5,3.34,3.34,3.34c1.84,0,3.34-1.5,3.34-3.34c0-0.53-0.13-1.03-0.35-1.48
	c0.38-0.13,0.65-0.48,0.65-0.9c0-0.53-0.43-0.95-0.95-0.95H52.79z M58.63,251.56c0,0.79-0.64,1.43-1.43,1.43s-1.43-0.64-1.43-1.43
	c0-0.79,0.64-1.43,1.43-1.43h0C57.99,250.13,58.63,250.77,58.63,251.56z M69.25,252.99c-0.79,0-1.43-0.64-1.43-1.43
	c0-0.78,0.63-1.42,1.41-1.43h0.05c0.78,0.01,1.41,0.65,1.41,1.43C70.69,252.35,70.04,252.99,69.25,252.99L69.25,252.99z
	 M74.02,233.77c0.01,0.01,0,0.01,0,0.02l-0.98,4.23h-3.3l0.56-4.26l3.7,0.01C74.01,233.76,74.01,233.76,74.02,233.77L74.02,233.77z
	 M64.18,244.18v-4.26h3.38L67,244.18H64.18z M59.45,244.18l-0.57-4.26h3.39v4.26H59.45z M55.06,244.18L55.06,244.18
	c-0.24,0-0.44-0.16-0.5-0.38l-1.05-3.88h3.45l0.57,4.26H55.06z M58.63,238.01l-0.57-4.31l4.22,0.02v4.3H58.63z M64.18,238.01v-4.29
	l4.2,0.02l-0.56,4.27H64.18z M56.13,233.69l0.57,4.32h-3.71l-1.17-4.34L56.13,233.69z M71.24,244.18h-2.32l0.56-4.26h3.12l-0.9,3.89
	C71.65,244.03,71.47,244.18,71.24,244.18z"/>
<g>
	<path class="st2" d="M27.89,234.46c1.65-15.26,9.73-22.32,16.21-25.55c6.96-3.47,13.54-3.3,13.82-3.29l-0.22,7.14
		c-0.83-0.02-20.24-0.24-22.7,22.47L27.89,234.46z"/>
</g>
<circle class="st3" cx="52.03" cy="51.55" r="29.32"/>
<g>
	<path class="st2" d="M18.3,48.32C19.95,33.06,28.02,26,34.5,22.77c6.96-3.47,13.54-3.3,13.82-3.29l-0.22,7.14
		c-0.83-0.02-20.24-0.24-22.7,22.47L18.3,48.32z"/>
</g>
<g>
	<path class="st1" d="M39.94,69.7c-0.21-0.06-0.42-0.11-0.62-0.18c-1.65-0.52-2.71-1.99-2.71-3.79c0-5.3,0-10.59-0.01-15.89
		c0-0.39-0.07-0.78-0.17-1.16c-0.3-1.12-0.64-2.22-0.96-3.34c-0.63-2.23,0.5-4.29,2.73-4.94c5.59-1.63,11.18-3.24,16.77-4.86
		c1.53-0.44,3.06-0.93,4.61-1.31c2.15-0.53,4.07,0.61,4.71,2.72c0.39,1.27,0.75,2.55,1.11,3.83c0.19,0.65,0.02,0.94-0.64,1.14
		c-3.13,0.91-6.27,1.82-9.4,2.72c-4.2,1.22-8.4,2.43-12.6,3.65c-0.11,0.03-0.22,0.07-0.32,0.17c0.12,0,0.23,0,0.35,0
		c7.58,0,15.16,0,22.74,0c0.15,0,0.3,0,0.45,0.01c0.34,0.04,0.55,0.22,0.61,0.56c0.02,0.14,0.03,0.28,0.03,0.41
		c0,5.39,0,10.78,0,16.16c0,1.73-0.76,3-2.33,3.74c-0.33,0.15-0.7,0.22-1.05,0.33c-3.01,0-6.03,0-9.04,0
		c-0.07-0.05-0.13-0.09-0.2-0.14c-0.24-0.17-0.34-0.41-0.28-0.7c0.06-0.29,0.25-0.47,0.53-0.53c0.13-0.03,0.28-0.03,0.41-0.03
		c2.6,0,5.19,0,7.79,0c1.75,0,2.77-1.01,2.77-2.75c0-2.93,0-5.86,0-8.79c0-0.12-0.01-0.25-0.02-0.37c-9.09,0-18.14,0-27.22,0
		c0,0.13,0,0.23,0,0.34c0,2.98,0,5.96,0,8.93c0,1.61,1.05,2.65,2.66,2.65c1.29,0,2.57,0,3.86,0c1.39,0,2.78,0,4.17,0
		c0.49,0,0.78,0.22,0.82,0.62c0.04,0.4-0.2,0.61-0.53,0.77C45.97,69.7,42.95,69.7,39.94,69.7z M56.11,36.66
		c0.09,0.09,0.12,0.14,0.16,0.18c1.58,1.52,3.15,3.03,4.74,4.54c0.08,0.08,0.27,0.11,0.39,0.07c0.76-0.2,1.51-0.43,2.26-0.65
		c0.08-0.02,0.16-0.06,0.27-0.1c-0.37-1.23-0.69-2.45-1.1-3.64c-0.37-1.07-1.56-1.78-2.63-1.54C58.85,35.84,57.52,36.26,56.11,36.66
		z M43.86,46.54c-0.02-0.05-0.02-0.08-0.04-0.09c-1.62-1.56-3.24-3.12-4.86-4.67c-0.05-0.05-0.14-0.09-0.21-0.08
		c-1.24,0.13-2.31,1.58-2.04,2.82c0.21,0.94,0.5,1.85,0.76,2.77c0.09,0.33,0.19,0.66,0.29,1.01C39.83,47.7,41.84,47.12,43.86,46.54z
		 M65.21,49.86c-0.96,0-1.89,0.01-2.83-0.01c-0.24,0-0.37,0.07-0.49,0.28c-0.86,1.51-1.73,3.01-2.6,4.51
		c-0.05,0.09-0.09,0.18-0.15,0.29c2.04,0,4.05,0,6.07,0C65.21,53.25,65.21,51.57,65.21,49.86z M38.01,49.88c0,1.71,0,3.39,0,5.09
		c0.97,0,1.92-0.01,2.86,0.01c0.22,0,0.33-0.08,0.43-0.26c0.87-1.52,1.74-3.03,2.61-4.54c0.05-0.09,0.09-0.18,0.15-0.3
		C42.03,49.88,40.03,49.88,38.01,49.88z M50.93,38.17c-0.02,0.03-0.04,0.07-0.05,0.1c0.1,0.07,0.22,0.13,0.31,0.22
		c1.28,1.22,2.56,2.45,3.84,3.68c0.3,0.29,0.57,0.72,0.92,0.8c0.35,0.09,0.79-0.17,1.19-0.29c0.8-0.23,1.61-0.47,2.45-0.71
		c-0.07-0.08-0.1-0.13-0.14-0.17c-1.58-1.52-3.15-3.03-4.74-4.54c-0.08-0.08-0.27-0.11-0.39-0.08c-0.9,0.25-1.8,0.52-2.7,0.78
		C51.39,38.04,51.16,38.11,50.93,38.17z M54.42,43.47c-0.16-0.13-0.27-0.2-0.36-0.29c-1.41-1.35-2.84-2.69-4.23-4.08
		c-0.38-0.38-0.69-0.47-1.2-0.29c-0.97,0.33-1.96,0.59-2.98,0.88c0.06,0.08,0.09,0.12,0.13,0.16c1.58,1.52,3.15,3.04,4.74,4.54
		c0.08,0.08,0.27,0.11,0.39,0.08c0.74-0.2,1.47-0.42,2.2-0.63C53.53,43.73,53.92,43.62,54.42,43.47z M49.11,45.01
		c-0.04-0.06-0.05-0.09-0.08-0.11c-1.6-1.54-3.21-3.08-4.82-4.61c-0.07-0.07-0.25-0.09-0.36-0.06c-0.97,0.27-1.93,0.55-2.9,0.83
		c-0.17,0.05-0.33,0.11-0.59,0.19c0.15,0.12,0.25,0.18,0.33,0.26c1.25,1.2,2.51,2.41,3.76,3.61c0.33,0.31,0.61,0.79,0.99,0.88
		c0.39,0.09,0.88-0.18,1.32-0.31C47.55,45.47,48.32,45.24,49.11,45.01z M54.99,49.86c-1.26,0-2.45-0.01-3.64,0.01
		c-0.11,0-0.26,0.13-0.32,0.23c-0.89,1.53-1.77,3.06-2.66,4.59c-0.04,0.07-0.07,0.16-0.12,0.27c1.18,0,2.31-0.01,3.44,0.01
		c0.26,0,0.41-0.07,0.54-0.31c0.84-1.48,1.69-2.95,2.54-4.42C54.84,50.14,54.9,50.03,54.99,49.86z M53.7,54.93
		c0.06,0.02,0.09,0.03,0.13,0.03c1.16,0,2.32,0.01,3.48-0.01c0.12,0,0.28-0.14,0.35-0.25c0.88-1.51,1.75-3.02,2.63-4.54
		c0.05-0.08,0.09-0.17,0.15-0.3c-1.2,0-2.35,0.01-3.49-0.01c-0.24,0-0.37,0.07-0.49,0.28c-0.85,1.5-1.72,2.99-2.58,4.48
		C53.81,54.72,53.76,54.82,53.7,54.93z M42.78,54.97c1.26,0,2.45,0.01,3.64-0.01c0.11,0,0.26-0.13,0.32-0.24
		c0.89-1.53,1.77-3.06,2.66-4.59c0.04-0.07,0.07-0.15,0.12-0.26c-1.19,0-2.34,0.01-3.48-0.01c-0.24,0-0.37,0.07-0.49,0.28
		c-0.86,1.51-1.73,3.01-2.6,4.51C42.9,54.73,42.85,54.82,42.78,54.97z"/>
	<path class="st1" d="M51.42,69.7c-0.07-0.05-0.13-0.09-0.2-0.14c-0.26-0.19-0.36-0.46-0.26-0.76c0.09-0.31,0.33-0.48,0.65-0.48
		c0.32,0,0.55,0.16,0.65,0.48c0.1,0.33-0.01,0.59-0.28,0.78c-0.07,0.05-0.14,0.08-0.21,0.12C51.65,69.7,51.53,69.7,51.42,69.7z"/>
	<path class="st1" d="M48.91,62.24c0-1.11,0-2.22,0-3.34c0-0.76,0.53-1.06,1.18-0.69c1.95,1.12,3.89,2.24,5.84,3.37
		c0.65,0.38,0.65,0.99-0.01,1.37c-1.93,1.12-3.87,2.24-5.81,3.35c-0.68,0.39-1.2,0.1-1.2-0.69C48.91,64.49,48.91,63.36,48.91,62.24z
		 M50.32,64.58c1.34-0.77,2.65-1.53,4.01-2.31c-1.36-0.79-2.67-1.54-4.01-2.31C50.32,61.52,50.32,63.02,50.32,64.58z"/>
</g>
</svg>
