<?xml version="1.0" encoding="utf-8"?>
<!-- Generator: Adobe Illustrator 24.0.2, SVG Export Plug-In . SVG Version: 6.00 Build 0)  -->
<svg version="1.1" id="Capa_1" xmlns="http://www.w3.org/2000/svg" xmlns:xlink="http://www.w3.org/1999/xlink" x="0px" y="0px"
	 viewBox="0 0 100 100" style="enable-background:new 0 0 100 100;" xml:space="preserve">
<style type="text/css">
	.st0{fill:#EC7A96;}
	.st1{fill:#FFFFFF;}
	.st2{fill:#103E68;}
	.st3{fill:#83AD60;}
</style>
<circle class="st0" cx="61.62" cy="237.69" r="29.32"/>
<path class="st1" d="M52.79,248.22c-1.42-0.07-1.4-2.07,0-2.14c3.95,0.01,14.38,0,18.46,0.01c1.12,0,2.07-0.76,2.32-1.85l2.32-10.03
	c0.13-0.57,0-1.17-0.37-1.63c-0.37-0.46-0.91-0.73-1.5-0.73c-1.64,0-15.57-0.06-22.7-0.09l-1.13-4.2c-0.27-1-1.19-1.7-2.23-1.7
	h-3.62c-0.53,0-0.95,0.43-0.95,0.95c0,0.53,0.43,0.95,0.95,0.95h3.62c0.18,0,0.34,0.12,0.38,0.29l4.34,16.11
	c-0.76,0.03-1.47,0.34-2.01,0.89c-0.57,0.58-0.87,1.34-0.86,2.14c0.03,1.61,1.36,2.93,2.98,2.93h1.39
	c-0.21,0.43-0.32,0.92-0.32,1.43c0,1.84,1.5,3.34,3.34,3.34c1.84,0,3.34-1.5,3.34-3.34c0-0.51-0.12-1-0.32-1.43h6.03
	c-0.21,0.43-0.32,0.92-0.32,1.43c0,1.84,1.5,3.34,3.34,3.34c1.84,0,3.34-1.5,3.34-3.34c0-0.53-0.13-1.03-0.35-1.48
	c0.38-0.13,0.65-0.48,0.65-0.9c0-0.53-0.43-0.95-0.95-0.95H52.79z M58.63,251.56c0,0.79-0.64,1.43-1.43,1.43s-1.43-0.64-1.43-1.43
	c0-0.79,0.64-1.43,1.43-1.43h0C57.99,250.13,58.63,250.77,58.63,251.56z M69.25,252.99c-0.79,0-1.43-0.64-1.43-1.43
	c0-0.78,0.63-1.42,1.41-1.43h0.05c0.78,0.01,1.41,0.65,1.41,1.43C70.69,252.35,70.04,252.99,69.25,252.99L69.25,252.99z
	 M74.02,233.77c0.01,0.01,0,0.01,0,0.02l-0.98,4.23h-3.3l0.56-4.26l3.7,0.01C74.01,233.76,74.01,233.76,74.02,233.77L74.02,233.77z
	 M64.18,244.18v-4.26h3.38L67,244.18H64.18z M59.45,244.18l-0.57-4.26h3.39v4.26H59.45z M55.06,244.18L55.06,244.18
	c-0.24,0-0.44-0.16-0.5-0.38l-1.05-3.88h3.45l0.57,4.26H55.06z M58.63,238.01l-0.57-4.31l4.22,0.02v4.3H58.63z M64.18,238.01v-4.29
	l4.2,0.02l-0.56,4.27H64.18z M56.13,233.69l0.57,4.32h-3.71l-1.17-4.34L56.13,233.69z M71.24,244.18h-2.32l0.56-4.26h3.12l-0.9,3.89
	C71.65,244.03,71.47,244.18,71.24,244.18z"/>
<g>
	<path class="st2" d="M27.89,234.46c1.65-15.26,9.73-22.32,16.21-25.55c6.96-3.47,13.54-3.3,13.82-3.29l-0.22,7.14
		c-0.83-0.02-20.24-0.24-22.7,22.47L27.89,234.46z"/>
</g>
<g>
	<circle class="st3" cx="52.03" cy="51.55" r="29.32"/>
</g>
<g>
	<g>
		<path class="st2" d="M18.3,48.32C19.95,33.06,28.02,26,34.5,22.77c6.96-3.47,13.54-3.3,13.82-3.29l-0.22,7.14
			c-0.83-0.02-20.24-0.24-22.7,22.47L18.3,48.32z"/>
	</g>
</g>
<g id="Out_line">
	<g>
		<path class="st1" d="M69.95,62.03l-6-6c-0.64-0.65-1.52-1.01-2.43-1.01c-0.23,0-0.47,0.02-0.7,0.07
			c-1.46-1.95-2.25-4.33-2.25-6.76c0-4.55-1.81-8.92-5.03-12.14c-1.9-1.91-4.5-2.99-7.2-2.98c-5.61,0-10.18,4.57-10.18,10.18
			c0,2.47,0.9,4.86,2.53,6.72l0.89-0.78c-3.28-3.73-2.91-9.42,0.82-12.7c3.56-3.13,8.95-2.96,12.3,0.4c3,3,4.68,7.06,4.68,11.3
			c0,2.47-1.48,4.7-3.76,5.64c-0.3,0.12-0.44,0.47-0.32,0.77c0.01,0.03,0.03,0.06,0.05,0.09l0.59,0.94c0.08,0.12,0.2,0.22,0.34,0.25
			c1.36,0.37,2.64,1,3.76,1.84c-0.1,0.47-0.09,0.95,0,1.41l1.15-0.24c-0.16-0.75,0.07-1.52,0.61-2.06l0.1-0.1
			c0.86-0.86,2.24-0.88,3.13-0.06c-0.83,0.05-1.61,0.41-2.19,1l-0.1,0.1c-0.29,0.29-0.53,0.63-0.7,1.01l1.07,0.49
			c0.11-0.25,0.27-0.47,0.46-0.66l0.1-0.1c0.88-0.88,2.31-0.88,3.19,0l0.53,0.53c-0.83,0.05-1.61,0.41-2.19,1l-0.1,0.1
			c-0.11,0.11-0.2,0.22-0.29,0.34l0.93,0.72c0.06-0.08,0.12-0.15,0.19-0.22l0.1-0.1c0.86-0.86,2.24-0.88,3.13-0.06
			c-0.83,0.05-1.61,0.41-2.19,1l-0.1,0.1c-1.34,1.34-1.34,3.52,0,4.86l0.1,0.1c1.34,1.34,3.52,1.34,4.86,0l0.1-0.1
			C71.29,65.55,71.29,63.37,69.95,62.03L69.95,62.03z M59.1,56.03l-0.1,0.1c-0.18,0.18-0.34,0.38-0.48,0.6
			c-1.12-0.8-2.36-1.4-3.68-1.79l-0.11-0.18c1.35-0.71,2.44-1.83,3.11-3.2c0.38,1.43,1.02,2.78,1.87,3.99
			C59.48,55.69,59.28,55.85,59.1,56.03L59.1,56.03z M69.12,66.05l-0.1,0.1c-0.88,0.88-2.31,0.88-3.19,0l-0.1-0.1
			c-0.88-0.88-0.88-2.31,0-3.19c0,0,0,0,0,0l0.1-0.1c0.88-0.88,2.31-0.88,3.19,0l0.1,0.1h0C70,63.74,70,65.17,69.12,66.05
			L69.12,66.05z"/>
	</g>
	<g>
		<path class="st1" d="M46.16,56.85c1.2-0.75,2.67-0.95,4.03-0.54l1.52,0.46c0.25,0.77,0.38,1.58,0.38,2.39h1.18
			c0-4.88-3.96-8.84-8.84-8.84s-8.84,3.96-8.84,8.84S39.56,68,44.44,68c1.81,0,3.57-0.55,5.05-1.59l-0.67-0.97
			c-0.73,0.51-1.55,0.89-2.42,1.12l-0.83-0.95c-1.11-1.27-1.72-2.89-1.72-4.58c0-0.82,0.21-1.64,0.6-2.36
			c0.97,0.36,1.9,0.82,2.78,1.37l2.2,1.37l0.62-1l-2.2-1.37c-0.86-0.53-1.76-0.99-2.7-1.36C45.45,57.36,45.79,57.08,46.16,56.85z
			 M51.08,55.35l-0.55-0.16c-1.68-0.51-3.5-0.26-5,0.67c-0.6,0.38-1.13,0.85-1.57,1.41c-0.51-0.16-1.03-0.29-1.56-0.4
			c1.24-1.99,2.97-3.63,5.03-4.76C48.97,52.76,50.25,53.9,51.08,55.35z M45.93,51.64c-1.96,1.28-3.59,3-4.77,5.02
			c-0.52-0.07-1.05-0.11-1.57-0.13c0.37-1.25,0.6-2.53,0.71-3.82C41.97,51.63,43.98,51.25,45.93,51.64z M36.77,59.15
			c0-0.44,0.04-0.87,0.11-1.31c0.35-0.05,0.7-0.09,1.05-0.11c-0.31,0.8-0.68,1.57-1.11,2.32C36.79,59.75,36.77,59.45,36.77,59.15z
			 M38.99,53.76c-0.14,0.94-0.35,1.86-0.63,2.77c-0.39,0.02-0.77,0.04-1.16,0.09C37.58,55.55,38.19,54.57,38.99,53.76z M37.2,61.69
			c0.82-1.25,1.49-2.59,2-3.99c0.45,0.01,0.91,0.03,1.36,0.08c-1.03,2.15-1.53,4.5-1.46,6.88C38.25,63.83,37.6,62.81,37.2,61.69z
			 M44.68,66.39l0.35,0.4c-0.2,0.02-0.4,0.02-0.6,0.02c-1.45,0-2.86-0.41-4.08-1.18c-0.27-2.65,0.23-5.32,1.45-7.69
			c0.51,0.09,1.02,0.21,1.51,0.35c-0.43,0.85-0.65,1.78-0.65,2.73C42.67,63.01,43.38,64.91,44.68,66.39z"/>
	</g>
	<g>
		<path class="st1" d="M58.58,60.33c-0.72,0-1.43,0.19-2.06,0.55c-1.97-1.14-4.5-0.47-5.64,1.51c-1.14,1.97-0.47,4.5,1.51,5.64
			c1.28,0.74,2.85,0.74,4.13,0c1.97,1.14,4.5,0.46,5.64-1.51c1.14-1.97,0.46-4.5-1.51-5.64C60.02,60.52,59.3,60.33,58.58,60.33z
			 M61.52,64.2l-0.16-0.16c-0.88-0.88-2.31-0.88-3.19,0c0,0,0,0,0,0c-0.42,0.42-1.1,0.42-1.52,0c0,0,0,0,0,0l-0.76-0.76
			c0.65-1.49,2.39-2.17,3.88-1.53C60.75,62.19,61.42,63.13,61.52,64.2L61.52,64.2z M54.45,61.51c0.36,0,0.72,0.07,1.06,0.19
			c-0.5,0.55-0.84,1.23-0.98,1.96c-0.18,0.1-0.35,0.23-0.49,0.37c-0.42,0.42-1.1,0.42-1.52,0c0,0,0,0,0,0l-0.76-0.76
			C52.22,62.21,53.28,61.51,54.45,61.51z M51.52,64.72l0.16,0.16c0.76,0.76,1.94,0.88,2.84,0.29c0.13,0.76,0.48,1.47,0.99,2.05
			c-1.52,0.58-3.23-0.18-3.81-1.7C51.6,65.26,51.54,64.99,51.52,64.72z M58.58,67.41c-1.53,0-2.8-1.17-2.94-2.69l0.16,0.16
			c0.88,0.88,2.31,0.88,3.19,0c0,0,0,0,0,0c0.42-0.42,1.1-0.42,1.52,0c0,0,0,0,0,0l0.76,0.76C60.81,66.71,59.75,67.41,58.58,67.41z"
			/>
	</g>
	<g>
		
			<rect x="48.26" y="33.58" transform="matrix(0.5943 -0.8043 0.8043 0.5943 -13.8962 56.0211)" class="st1" width="0.63" height="16.4"/>
	</g>
	<g>
		
			<rect x="49.97" y="33.33" transform="matrix(0.5943 -0.8043 0.8043 0.5943 -11.258 56.4142)" class="st1" width="0.63" height="12.07"/>
	</g>
	<g>
		
			<rect x="37.66" y="41.47" transform="matrix(0.594 -0.8045 0.8045 0.594 -15.8747 52.1133)" class="st1" width="12.07" height="0.63"/>
	</g>
	<g>
		
			<rect x="41.24" y="42.06" transform="matrix(0.5946 -0.804 0.804 0.5946 -14.9079 55.1908)" class="st1" width="12.07" height="0.63"/>
	</g>
	<g>
		
			<rect x="43.48" y="43.9" transform="matrix(0.5946 -0.804 0.804 0.5946 -15.4802 57.7341)" class="st1" width="12.07" height="0.63"/>
	</g>
	<g>
		
			<rect x="46.88" y="45.73" transform="matrix(0.5946 -0.804 0.804 0.5946 -15.8682 60.6279)" class="st1" width="10.61" height="0.63"/>
	</g>
	<g>
		
			<rect x="49.26" y="48.36" transform="matrix(0.5943 -0.8043 0.8043 0.5943 -17.3394 62.9817)" class="st1" width="9" height="0.63"/>
	</g>
	<g>
		
			<rect x="37.29" y="39.05" transform="matrix(0.5946 -0.804 0.804 0.5946 -14.7097 49.5564)" class="st1" width="9" height="0.63"/>
	</g>
	<g>
		
			<rect x="47.81" y="36.86" transform="matrix(0.5943 -0.8043 0.8043 0.5943 -16.714 56.987)" class="st1" width="0.63" height="16.4"/>
	</g>
	<g>
		
			<rect x="46.43" y="39.03" transform="matrix(0.5942 -0.8043 0.8043 0.5942 -19.0198 56.7626)" class="st1" width="0.63" height="16.4"/>
	</g>
</g>
</svg>
