<svg width="102" height="73" viewBox="0 0 102 73" fill="none" xmlns="http://www.w3.org/2000/svg">
<path d="M-22.0559 16.2901C-18.0296 13.9762 -13.4893 12.8009 -7.79869 12.103C-7.79869 12.0786 -7.79869 12.0663 -7.79869 12.0418C-2.69548 11.4542 3.03188 11.2093 9.70155 10.9155C12.1736 10.8053 14.7925 10.7074 17.5828 10.5605C26.9203 10.1075 37.861 9.75242 48.7038 10.2299H48.7161C68.7495 11.2216 85.0994 15.6412 90.3617 29.0104C94.18 38.7067 91.2061 47.1665 86.4334 52.9084C85.0382 54.5856 83.4963 56.018 81.9298 57.1933C74.9542 62.3721 63.8911 65.0532 53.7703 57.0464C43.6863 49.0764 42.0831 39.1352 39.4764 19.8772C36.1967 19.8772 32.8557 19.9262 29.4903 20.0241C32.354 41.2899 34.2264 54.2183 47.6146 64.8206C59.5711 74.2843 75.358 74.4067 87.8285 65.1512C98.3898 57.3158 106.112 41.9755 99.5769 25.3865C91.9771 6.06734 69.4104 0.986568 46.8069 0.154057H46.8192C40.3208 -0.152014 33.4554 0.0561143 26.443 0.276485V0.288728C23.2 0.411156 20.0671 0.570313 17.081 0.717226C14.303 0.851897 11.6841 0.962083 9.21203 1.07227C8.62461 1.09675 8.03719 1.12124 7.46201 1.14573V1.09675C3.80286 1.25591 0.510862 1.41507 -2.48743 1.61095L-2.47519 1.67217C-12.3879 2.34552 -19.9754 3.6555 -27 7.69563L-22.0559 16.2901Z" fill="#E3D6C7"/>
</svg>
