<svg width="386" height="106" viewBox="0 0 386 106" fill="none" xmlns="http://www.w3.org/2000/svg">
<g clip-path="url(#clip0)">
<path d="M0 39.2274L15.8413 1.04541H23.3685L39.2098 39.2274H30.1876L27.6042 32.8245H11.6056L9.02218 39.2274H0ZM14.0185 26.0819H25.1782L19.6311 12.2177L14.0185 26.0819Z" fill="#103E68"/>
<path d="M42.7898 39.2274V11.6167H50.9858V15.0664C52.0349 12.6621 54.8412 11.0156 58.1852 11.0156C61.9226 11.0156 64.4535 12.4922 65.7124 15.3931C67.2467 12.4922 70.276 11.0156 74.8395 11.0156C81.0554 11.0156 84.5699 15.2886 84.5699 22.4624V29.414C84.5699 31.557 85.0026 32.3149 86.3795 32.3149H86.8779L87.2057 32.2627V39.1621C86.432 39.4365 85.278 39.541 83.6912 39.541C78.7999 39.541 76.3738 36.9145 76.3738 31.6485V23.4293C76.3738 20.2018 74.9444 18.2286 72.3611 18.2286C69.7252 18.2286 67.85 20.4762 67.85 23.7037V39.2143H59.6671V23.4555C59.6671 20.2279 58.1852 18.2548 55.5494 18.2548C52.9135 18.2548 50.9858 20.5023 50.9858 23.7299V39.2405H42.7898V39.2274Z" fill="#103E68"/>
<path d="M93.4347 15.2885C96.0706 12.4922 99.3752 11.1201 103.27 11.1201C107.453 11.1201 110.692 12.8188 111.518 15.2232V11.6167H119.714V29.5316C119.714 31.7269 120.265 32.6024 121.747 32.6024C122.127 32.6024 122.626 32.5501 123.124 32.4978V39.2927C122.245 39.5671 121.039 39.7239 119.439 39.7239C117.629 39.7239 116.082 39.3972 114.928 38.7439C113.669 37.9207 112.843 36.9406 112.449 35.7907C110.64 38.4825 107.611 39.7893 103.27 39.7893C99.3621 39.7893 96.0706 38.4172 93.4347 35.6731C90.8513 32.8768 89.5269 29.4793 89.5269 25.4285C89.5269 21.43 90.8513 18.0326 93.4347 15.2885ZM109.879 30.3548C111.309 28.9828 112.017 27.3363 112.017 25.4285C112.017 23.5077 111.309 21.8612 109.879 20.5545C108.502 19.1825 106.798 18.5291 104.765 18.5291C102.785 18.5291 101.132 19.1825 99.7555 20.5545C98.3786 21.8743 97.7229 23.5077 97.7229 25.4285C97.7229 27.3494 98.3786 28.9959 99.7555 30.3548C101.132 31.6746 102.785 32.328 104.765 32.328C106.798 32.328 108.502 31.6746 109.879 30.3548Z" fill="#103E68"/>
<path d="M155.908 39.2274L144.027 11.6167H152.328L159.593 29.1527L166.792 11.6167H175.093L163.225 39.2274H155.908Z" fill="#103E68"/>
<path d="M182.031 0C184.614 0 186.699 2.02539 186.699 4.65187C186.699 7.22608 184.614 9.25148 182.031 9.25148C179.447 9.25148 177.362 7.22608 177.362 4.65187C177.362 2.02539 179.447 0 182.031 0Z" fill="#103E68"/>
<path d="M184.076 34.3926C185.545 33.6478 187.001 33.0075 188.43 32.4064C188.299 32.4195 188.181 32.4325 188.023 32.4325C186.647 32.4325 186.148 31.557 186.148 29.5316V11.6167H177.952V31.949C177.952 34.1443 178.411 35.843 179.264 37.1105C180.837 36.1436 182.437 35.2289 184.076 34.3926Z" fill="#103E68"/>
<path d="M226.302 0C228.885 0 230.97 2.02539 230.97 4.66494C230.97 7.23915 228.885 9.26455 226.302 9.26455C223.719 9.26455 221.634 7.23915 221.634 4.66494C221.634 2.02539 223.719 0 226.302 0ZM222.237 11.6166H230.433V29.5316C230.433 31.557 230.931 32.4324 232.308 32.4324C232.806 32.4324 233.134 32.3802 233.305 32.3279V39.2796C232.597 39.554 231.325 39.7239 229.515 39.7239C224.676 39.7239 222.263 37.1497 222.263 31.949V11.6166H222.237Z" fill="#103E68"/>
<path d="M237.029 39.2274V11.6167H245.225V15.3931C246.484 12.5967 249.461 11.0156 253.251 11.0156C253.801 11.0156 254.51 11.0679 255.401 11.1855V18.8559C254.575 18.686 253.644 18.5815 252.647 18.5815C247.979 18.5815 245.225 21.2079 245.225 25.7553V39.2274H237.029Z" fill="#103E68"/>
<path d="M277.563 25.3632C277.563 21.038 278.993 17.5229 281.799 14.8965C284.605 12.2177 288.238 10.8979 292.578 10.8979C296.814 10.8979 300.224 12.27 302.859 14.9487C305.495 17.6406 306.82 20.9204 306.82 24.9189C306.82 25.8467 306.767 26.7222 306.715 27.5454H285.746C285.917 30.8383 288.775 32.9682 293.116 32.9682C295.699 32.9682 297.955 32.0927 299.883 30.2895L304.669 34.8368C301.43 38.182 297.404 39.8807 292.736 39.8807C288.172 39.8807 284.54 38.5609 281.733 35.9867C278.927 33.3602 277.55 29.9105 277.55 25.5723V25.3632H277.563ZM298.558 22.2402C298.558 19.6659 295.857 17.6406 292.565 17.6406C288.985 17.6406 286.074 19.6659 285.864 22.2402H298.558Z" fill="#103E68"/>
<path d="M310.885 39.2274V11.6167H319.081V15.0664C320.235 12.6621 323.317 11.0156 327.054 11.0156C333.703 11.0156 337.558 15.2886 337.558 22.4624V29.414C337.558 31.557 338.004 32.3149 339.368 32.3149H339.919L340.246 32.2627V39.1621C339.591 39.4365 338.371 39.541 336.666 39.541C331.775 39.541 329.349 36.9145 329.349 31.6485V23.4293C329.349 20.2018 327.644 18.2286 324.405 18.2286C321.323 18.2286 319.068 20.4762 319.068 23.7037V39.2143H310.885V39.2274Z" fill="#103E68"/>
<path d="M205.727 28.7867C207.851 28.852 209.766 29.1656 211.589 29.7014L219.365 11.6035H211.064L203.996 28.7867C204.586 28.7867 205.163 28.7736 205.727 28.7867Z" fill="#103E68"/>
<path d="M203.72 28.7999L196.6 11.6167H188.299L196.154 29.8975C198.868 29.2442 201.36 28.8914 203.72 28.7999Z" fill="#103E68"/>
<path d="M323.776 74.6913C324.025 74.5475 324.274 74.4169 324.51 74.2601C326.333 73.0579 328.09 71.7643 329.769 70.3792C331.172 69.2162 332.47 67.9617 333.663 66.5766C334.372 65.7403 335.04 64.891 335.617 63.9632C335.919 63.4797 336.181 62.9832 336.352 62.4474C336.404 62.2906 336.444 62.1338 336.47 61.977C336.548 61.5589 336.26 61.2322 335.867 61.2975C335.749 61.3106 335.631 61.3367 335.512 61.3629C334.752 61.5458 334.07 61.8856 333.414 62.2776C332.195 62.9963 331.093 63.8848 330.018 64.7995C327.264 67.1777 325.323 70.0917 324.012 73.4499C323.881 73.7896 323.789 74.1425 323.697 74.4822C323.645 74.5345 323.723 74.6129 323.776 74.6913ZM230.105 66.0147C230.131 65.479 230.066 64.9694 229.921 64.4467C229.567 63.1269 228.676 62.6173 227.6 62.4605C227.443 62.4344 227.272 62.4474 227.115 62.4344C226.171 62.3952 225.266 62.565 224.361 62.8264C222.578 63.336 221.017 64.2376 219.562 65.3483C218.106 66.459 216.834 67.7527 215.693 69.177C214.067 71.2024 212.729 73.3976 211.812 75.8412C211.444 76.8212 211.169 77.8404 211.025 78.8727C210.933 79.513 210.959 80.1533 211.116 80.7936C211.366 81.839 212.1 82.427 213.188 82.5054C213.713 82.5446 214.238 82.4923 214.749 82.3486C215.575 82.1264 216.336 81.7606 217.07 81.3424C218.014 80.7936 218.893 80.1402 219.732 79.4477C221.332 78.1279 222.774 76.6644 224.151 75.1356C225.778 73.3454 227.299 71.4506 228.794 69.5559C229.095 69.177 229.344 68.7588 229.607 68.3538C229.712 68.1839 229.803 67.9879 229.843 67.8049C229.987 67.2039 230.131 66.6158 230.105 66.0147ZM381.109 30.6684C381.095 30.5507 381.096 30.4723 381.082 30.3939C381.069 30.3155 381.043 30.2371 381.017 30.1587C380.925 29.8582 380.584 29.623 380.269 29.6491C379.745 29.7014 379.246 29.8713 378.774 30.1065C378.014 30.4854 377.306 30.9558 376.624 31.4654C375.076 32.6415 373.621 33.909 372.257 35.2941C370.985 36.5877 369.778 37.9467 368.624 39.3449C364.494 44.3888 360.953 49.8116 357.95 55.5872C356.363 58.6319 354.973 61.7549 353.845 64.9825C353.649 65.5574 353.465 66.1324 353.268 66.7073C353.229 66.851 353.255 67.0601 353.321 67.0471C353.426 67.0079 353.557 66.9686 353.636 66.8902C353.819 66.7334 353.976 66.5505 354.147 66.3806C360.481 59.8732 366.474 53.0522 372.06 45.8915C374.093 43.2911 376.06 40.6255 377.83 37.8291C378.525 36.7445 379.181 35.6338 379.771 34.4839C380.164 33.726 380.518 32.9682 380.768 32.158C380.951 31.6615 381.082 31.1518 381.109 30.6684ZM372.139 75.6974C371.706 76.2201 371.575 76.3769 371.182 76.7951C368.978 79.0557 366.697 81.2117 364.166 83.1195C362.999 83.995 361.792 84.8052 360.507 85.4977C359.76 85.9028 358.986 86.2426 358.186 86.53C356.403 87.1442 354.606 87.118 352.822 86.5562C351.013 85.9943 349.623 84.8575 348.665 83.2371C348.062 82.2179 347.656 81.1203 347.407 79.9834C347.302 79.513 347.197 79.0426 347.092 78.5461C346.961 78.5853 346.83 78.5853 346.738 78.6506C346.489 78.8466 346.253 79.0818 346.016 79.3039C344.469 80.7283 342.856 82.0742 341.138 83.2894C339.683 84.3217 338.188 85.2756 336.575 86.0466C335.263 86.6738 333.913 87.2095 332.47 87.4839C330.883 87.7714 329.27 87.9282 327.644 87.7191C326.805 87.6146 325.966 87.4839 325.153 87.2226C322.556 86.4255 320.602 84.8182 319.265 82.4792C318.832 81.7083 318.452 80.8981 318.189 80.0488C318.137 79.892 318.058 79.7613 317.848 79.6829C317.625 79.8658 317.376 80.0618 317.127 80.284C316.065 81.2117 314.963 82.1003 313.823 82.9366C312.537 83.8513 311.2 84.6876 309.784 85.3671C308.092 86.1772 306.335 86.713 304.472 86.9613C302.938 87.1573 301.404 87.2095 299.87 87.1442C298.244 87.0789 296.657 86.7391 295.136 86.1772C294.152 85.7983 293.221 85.3017 292.369 84.6876C290.834 83.5638 289.693 82.1134 288.959 80.3624C288.815 80.0226 288.697 79.6829 288.566 79.3432C288.513 79.1994 288.277 79.1471 288.159 79.2517C287.976 79.4085 287.805 79.5784 287.621 79.7352C286.612 80.6107 285.615 81.4992 284.592 82.3486C283.346 83.3809 282.022 84.3086 280.619 85.1057C279.386 85.8113 278.114 86.4255 276.724 86.7522C272.147 87.8237 268.226 85.0273 267.243 81.1333C267.059 80.4146 267.046 79.696 266.981 78.9773C266.967 78.925 266.889 78.8727 266.823 78.8335C266.797 78.8205 266.745 78.8466 266.718 78.8727C266.627 78.9511 266.535 79.0295 266.456 79.1079C266.154 79.4346 265.866 79.7744 265.564 80.101C264.686 81.0549 263.768 81.9566 262.771 82.7929C261.591 83.7729 260.332 84.6614 258.929 85.3017C258.076 85.6937 257.185 85.942 256.241 86.0074C254.405 86.1119 253.028 85.3671 252.123 83.786C251.69 83.0411 251.428 82.244 251.27 81.4077C251.152 80.7675 251.074 80.1272 250.982 79.5C250.969 79.3954 250.785 79.3432 250.693 79.4216C250.471 79.6045 250.261 79.7744 250.051 79.9573C248.595 81.2379 247.087 82.4531 245.487 83.5638C243.992 84.5961 242.432 85.5369 240.78 86.2948C239.639 86.8175 238.458 87.2487 237.226 87.497C235.587 87.8367 233.934 87.8629 232.295 87.4317C228.623 86.4386 226.945 83.4854 226.722 80.8589C226.695 80.5453 226.656 80.2186 226.604 79.905C226.591 79.8528 226.499 79.8005 226.433 79.7613C226.407 79.7482 226.341 79.7744 226.315 79.8005C226.053 80.0488 225.791 80.3101 225.541 80.5715C224.361 81.839 223.142 83.0803 221.817 84.2172C221.057 84.8705 220.257 85.4847 219.444 86.0988C218.762 86.6084 218.014 87.0135 217.241 87.3663C215.247 88.281 213.175 88.3725 211.064 87.8629C210.317 87.6799 209.635 87.3141 209.018 86.8436C208.231 86.2556 207.589 85.5239 207.091 84.6876C206.409 83.5246 205.989 82.2702 205.832 80.9373C205.583 78.8597 205.832 76.8343 206.461 74.8481C206.907 73.4238 207.51 72.0517 208.258 70.7581C210.802 66.3284 214.251 62.7611 218.683 60.1868C220.545 59.1153 222.512 58.266 224.61 57.7825C225.24 57.6388 225.882 57.495 226.525 57.4558C229.331 57.286 231.574 58.3444 233.226 60.605C233.462 60.9317 233.659 61.2714 233.895 61.6373C234.026 61.5719 234.144 61.5458 234.223 61.4674C234.524 61.1407 235.39 60.1084 235.757 59.5988L240.583 62.2645C240.452 62.565 240.242 63.0485 240.15 63.2315C240.019 63.4797 239.875 63.728 239.704 63.9502C239.337 64.4336 238.944 64.891 238.55 65.3614C237.449 66.655 236.347 67.9356 235.232 69.2292C234.839 69.6866 234.498 70.1831 234.21 70.732C233.436 72.1955 232.715 73.6851 232.177 75.2532C231.823 76.2855 231.548 77.3308 231.456 78.4285C231.416 78.9511 231.443 79.4738 231.534 79.9965C231.731 81.1856 232.584 81.9958 233.816 82.1656C234.708 82.2832 235.6 82.2179 236.465 82.035C237.737 81.7606 238.944 81.3163 240.137 80.7936C242.091 79.9181 243.966 78.8858 245.736 77.6706C247.743 76.2985 249.605 74.7566 251.402 73.1102C251.638 72.888 251.861 72.679 251.979 72.3523C253.434 68.0401 255.913 64.3291 258.903 60.9447C259.729 60.0039 260.62 59.1153 261.473 58.2006C261.827 57.8217 262.26 57.6649 262.771 57.6649C263.387 57.6649 263.978 57.7956 264.528 58.083C264.778 58.2137 265.014 58.3705 265.223 58.5665C265.84 59.1415 265.984 59.9255 265.577 60.6573C265.381 61.0101 265.132 61.3367 264.896 61.6504C264.082 62.7088 263.256 63.7541 262.456 64.8126C261.263 66.3937 260.148 68.014 259.139 69.7258C258.601 70.6274 258.116 71.5552 257.683 72.5091C256.909 74.2078 256.437 75.998 256.188 77.8404C256.096 78.4807 256.096 79.121 256.293 79.7613C256.345 79.9181 256.398 80.0749 256.477 80.2056C256.66 80.5061 256.922 80.6891 257.277 80.6629C257.513 80.6499 257.762 80.6107 257.985 80.5453C258.535 80.3755 259.021 80.088 259.493 79.7874C260.384 79.2125 261.184 78.5461 261.958 77.8274C263.06 76.8212 264.096 75.7366 265.079 74.6129C267.938 71.3592 270.482 67.8703 272.829 64.2507C273.905 62.5912 274.914 60.8925 275.95 59.2068C276.081 58.9977 276.186 58.7887 276.304 58.5796C276.58 58.083 277.026 57.8217 277.563 57.7433C278.429 57.6126 279.255 57.7302 280.029 58.1745C280.238 58.2921 280.435 58.4489 280.593 58.6319C280.986 59.0892 281.143 59.625 280.894 60.1999C280.75 60.5266 280.553 60.8402 280.37 61.1538C279.347 62.8395 278.298 64.5251 277.301 66.2238C276.16 68.1708 275.098 70.1701 274.141 72.2085C273.498 73.6067 272.882 75.0049 272.515 76.4945C272.383 77.0434 272.265 77.5922 272.187 78.1541C272.082 78.8858 272.121 79.6045 272.344 80.3101C272.659 81.3424 273.367 81.9304 274.416 82.1264C275.308 82.2963 276.186 82.231 277.052 81.9958C277.839 81.7736 278.586 81.4861 279.281 81.0549C279.937 80.6499 280.579 80.2317 281.183 79.7613C281.956 79.1733 282.717 78.5722 283.438 77.9188C284.881 76.6252 286.297 75.2924 287.726 73.9857C288.002 73.7374 288.212 73.4499 288.277 73.071C288.33 72.7574 288.421 72.4437 288.5 72.1301C288.815 71.0456 289.234 70.0002 289.772 68.994C290.27 68.0663 290.821 67.1777 291.464 66.3414C293.601 63.5189 296.172 61.1407 299.148 59.2068C300.958 58.0438 302.899 57.1553 304.997 56.6065C306.662 56.1753 308.341 56.0315 310.046 56.2275C311.226 56.3713 312.328 56.7371 313.311 57.4297C314.308 58.1353 314.95 59.0761 315.213 60.2783C315.357 60.9186 315.357 61.5589 315.213 62.1992C315.055 62.9179 314.793 63.5843 314.439 64.2246C313.455 65.9755 312.118 67.4129 310.57 68.6935C310.177 69.0332 310.124 69.0855 309.862 69.3077C308.839 68.2231 308.367 67.6743 307.069 66.1324C307.672 65.4659 307.58 65.5966 308.026 65.0609C308.236 64.8126 308.472 64.5904 308.695 64.3552C309.167 63.8456 309.521 63.2576 309.652 62.565C309.705 62.2906 309.731 62.0032 309.679 61.7288C309.456 60.5135 308.446 60.1346 307.541 60.1999C307.095 60.226 306.662 60.3306 306.256 60.5397C305.758 60.7879 305.233 61.0231 304.748 61.3106C301.627 63.1792 298.952 65.5443 296.722 68.4191C295.424 70.0917 294.454 71.9472 293.89 73.9857C293.628 74.9265 293.47 75.8673 293.509 76.8473C293.536 77.5007 293.654 78.1279 293.864 78.7421C294.375 80.1925 295.359 81.2117 296.749 81.852C297.837 82.3486 298.991 82.5446 300.171 82.5707C301.194 82.5968 302.191 82.44 303.174 82.244C305.089 81.852 306.899 81.1464 308.643 80.284C310.164 79.5261 311.619 78.6506 313.009 77.6836C314.57 76.5991 316.052 75.423 317.494 74.1686C317.848 73.8681 318.084 73.5283 318.202 73.084C319.016 70.0133 320.602 67.3607 322.687 65.0086C324.733 62.6957 327.067 60.7095 329.677 59.05C331.185 58.0961 332.772 57.299 334.503 56.8286C335.486 56.5673 336.483 56.3974 337.506 56.4627C338.161 56.5019 338.791 56.6457 339.381 56.9331C340.653 57.5342 341.374 58.5535 341.571 59.9255C341.702 60.801 341.637 61.6896 341.427 62.565C341.204 63.4667 340.876 64.3422 340.456 65.1654C339.46 67.1254 338.227 68.9026 336.627 70.4314C334.634 72.3261 332.549 74.1033 330.398 75.8281C328.943 76.9911 327.474 78.1279 325.94 79.1863C325.244 79.6698 324.523 80.1141 323.802 80.5715C323.553 80.7283 323.527 80.9373 323.671 81.1987C324.366 82.4662 325.481 83.1195 326.884 83.3155C327.972 83.4723 329.074 83.4201 330.149 83.1849C330.896 83.015 331.644 82.8321 332.378 82.5968C335.552 81.5515 338.502 80.101 341.125 78.0103C343.053 76.4684 344.876 74.8089 346.646 73.0971C346.921 72.8358 347.092 72.5483 347.131 72.1563C347.42 68.8895 348.206 65.7273 349.216 62.6042C350.554 58.4489 352.337 54.4765 354.488 50.674C358.422 43.6962 363.274 37.4371 369.044 31.8836C370.264 30.7076 371.549 29.5838 372.886 28.5515C374.355 27.4147 375.916 26.3954 377.607 25.6245C378.486 25.2194 379.404 24.8927 380.348 24.6706C381.266 24.4615 382.184 24.4354 383.115 24.5268C383.6 24.566 384.059 24.749 384.479 24.9842C385.069 25.3109 385.489 25.7813 385.738 26.4085C385.816 26.5914 385.908 26.7613 386 26.9442V31.0604C385.934 31.1518 385.816 31.2433 385.803 31.3478C385.725 32.0796 385.449 32.746 385.174 33.4255C384.61 34.8106 383.928 36.1304 383.181 37.424C381.777 39.8806 380.178 42.2066 378.486 44.4802C375.916 47.9561 373.162 51.2882 370.316 54.5419C365.884 59.625 361.255 64.5251 356.494 69.3077C355.235 70.5621 353.976 71.8165 352.718 73.071C352.521 73.267 352.311 73.463 352.114 73.6721C351.944 73.855 351.826 74.051 351.813 74.3123C351.682 75.998 351.642 77.6967 352.023 79.3693C352.127 79.8397 352.298 80.297 352.495 80.7413C352.927 81.7083 353.727 82.2179 354.763 82.3486C355.327 82.427 355.891 82.4008 356.455 82.2571C357.163 82.0872 357.845 81.8259 358.501 81.5123C359.484 81.0288 360.402 80.4539 361.294 79.8266C363.025 78.6245 364.638 77.2786 366.198 75.8673C367.274 74.8873 368.336 73.8942 369.411 72.9142C369.621 72.7182 369.818 72.5221 370.041 72.3523L372.139 75.6974Z" fill="#EE7768"/>
<path d="M172.549 105.791C165.494 104.798 160.249 101.165 156.852 94.9323C155.62 92.6848 154.872 90.2674 154.387 87.7585C153.902 85.2496 153.77 82.7146 153.928 80.1796C154.085 77.6446 154.544 75.1488 155.252 72.6922C156.367 68.8374 158.019 65.2178 160.065 61.7681C161.848 58.7757 163.894 55.9794 166.176 53.3529C171.736 46.9239 178.28 41.7363 185.873 37.8946C189.348 36.1305 192.941 34.7193 196.731 33.7784C199.642 33.0598 202.593 32.6155 205.609 32.7069C207.471 32.7723 209.307 33.0467 211.09 33.6478C211.825 33.8961 212.52 34.1966 213.202 34.5625C216.073 36.1436 217.804 38.5479 218.486 41.7232C218.84 43.3566 218.853 44.99 218.552 46.6495C218.395 47.4858 218.237 48.309 217.975 49.1192C217.818 49.5765 217.621 50.0208 217.424 50.452C217.345 50.635 217.175 50.7656 216.952 50.7918C216.913 50.7918 216.873 50.8048 216.834 50.8048C215.339 50.8832 213.844 50.9616 212.349 51.04C212.192 51.0531 212.021 51.04 211.864 51.04C211.759 51.04 211.628 50.8832 211.667 50.7918C211.759 50.5304 211.851 50.256 211.969 50.0077C212.428 48.9754 212.795 47.9039 213.018 46.7932C213.28 45.5127 213.372 44.2321 213.162 42.9515C212.821 40.8739 211.746 39.2927 209.871 38.2735C208.9 37.7508 207.851 37.4503 206.763 37.3066C204.901 37.0713 203.052 37.1497 201.203 37.4111C197.688 37.9076 194.383 39.0575 191.197 40.5995C187.761 42.259 184.588 44.3236 181.598 46.6887C175.015 51.9155 169.533 58.1224 165.219 65.3223C163.448 68.2755 161.967 71.3462 160.878 74.613C160.275 76.4163 159.842 78.2587 159.58 80.1273C159.554 80.2841 159.54 80.4409 159.527 80.6108C159.265 84.2826 159.724 87.8499 160.983 91.3127C161.468 92.6456 162.111 93.9 162.924 95.063C164.576 97.4542 166.766 99.1921 169.481 100.224C172.051 101.204 174.713 101.557 177.454 101.244C179.88 100.969 182.214 100.342 184.456 99.3882C188.902 97.5196 192.862 94.9062 196.167 91.3781C196.337 91.2082 196.705 90.8031 196.98 90.5418L200.888 92.1359C200.77 92.3842 200.612 92.6325 200.442 92.8546C200.167 93.2074 199.878 93.5472 199.59 93.8739C196.678 97.219 193.347 100.068 189.453 102.237C186.869 103.687 184.129 104.759 181.23 105.399C180.076 105.66 178.922 105.778 177.755 105.948C177.742 105.948 175.526 106.144 172.549 105.791Z" fill="#EE7768"/>
</g>
<defs>
<clipPath id="clip0">
<rect width="386" height="106" fill="white"/>
</clipPath>
</defs>
</svg>
