<?xml version="1.0" encoding="utf-8"?>
<!-- Generator: Adobe Illustrator 24.0.2, SVG Export Plug-In . SVG Version: 6.00 Build 0)  -->
<svg version="1.1" id="Capa_1" xmlns="http://www.w3.org/2000/svg" xmlns:xlink="http://www.w3.org/1999/xlink" x="0px" y="0px"
	 viewBox="0 0 304.33 89.12" style="enable-background:new 0 0 304.33 89.12;" xml:space="preserve">
<style type="text/css">
	.st0{fill:#FDF7F0;}
	.st1{clip-path:url(#SVGID_2_);fill:none;stroke:#FDF7F0;stroke-width:8;stroke-miterlimit:10;}
	.st2{clip-path:url(#SVGID_2_);fill:#FDF7F0;}
	.st3{clip-path:url(#SVGID_2_);fill:#103E68;}
	.st4{clip-path:url(#SVGID_2_);fill:#EE7768;}
</style>
<path class="st0" d="M5.98,34.02L18.06,4.8h5.74l12.08,29.23H29l-1.97-4.91h-12.2l-1.97,4.91H5.98z M16.67,23.96h8.51l-4.24-10.61
	L16.67,23.96z"/>
<g>
	<defs>
		<rect id="SVGID_1_" y="0" width="304.33" height="89.12"/>
	</defs>
	<clipPath id="SVGID_2_">
		<use xlink:href="#SVGID_1_"  style="overflow:visible;"/>
	</clipPath>
	<path class="st1" d="M5.98,34.02L18.06,4.8h5.74l12.08,29.23H29l-1.97-4.91h-12.2l-1.97,4.91H5.98z M16.67,23.96h8.51l-4.24-10.61
		L16.67,23.96z"/>
	<path class="st2" d="M38.61,34.02V12.89h6.25v2.64c0.8-1.84,2.94-3.1,5.49-3.1c2.85,0,4.78,1.13,5.74,3.36
		c1.17-2.22,3.48-3.36,6.96-3.36c4.74,0,7.42,3.27,7.42,8.76v5.33c0,1.63,0.33,2.22,1.38,2.22h0.38l0.25-0.04v5.28
		c-0.59,0.21-1.47,0.29-2.68,0.29c-3.73,0-5.58-2.01-5.58-6.04v-6.29c0-2.47-1.09-3.98-3.06-3.98c-2.01,0-3.44,1.72-3.44,4.19v11.87
		h-6.25V21.95c0-2.47-1.13-3.98-3.15-3.98c-2.01,0-3.48,1.72-3.48,4.19v11.87H38.61z"/>
	<path class="st1" d="M38.61,34.02V12.89h6.25v2.64c0.8-1.84,2.94-3.1,5.49-3.1c2.85,0,4.78,1.13,5.74,3.36
		c1.17-2.22,3.48-3.36,6.96-3.36c4.74,0,7.42,3.27,7.42,8.76v5.33c0,1.63,0.33,2.22,1.38,2.22h0.38l0.25-0.04v5.28
		c-0.59,0.21-1.47,0.29-2.68,0.29c-3.73,0-5.58-2.01-5.58-6.04v-6.29c0-2.47-1.09-3.98-3.06-3.98c-2.01,0-3.44,1.72-3.44,4.19v11.87
		h-6.25V21.95c0-2.47-1.13-3.98-3.15-3.98c-2.01,0-3.48,1.72-3.48,4.19v11.87H38.61z"/>
	<path class="st2" d="M77.23,15.7c2.01-2.14,4.53-3.19,7.5-3.19c3.19,0,5.66,1.3,6.29,3.15v-2.77h6.25V26.6
		c0,1.68,0.42,2.35,1.55,2.35c0.29,0,0.67-0.04,1.05-0.08v5.2c-0.67,0.21-1.59,0.33-2.81,0.33c-1.38,0-2.56-0.25-3.44-0.76
		c-0.96-0.63-1.59-1.38-1.89-2.26c-1.38,2.06-3.69,3.06-7,3.06c-2.98,0-5.49-1.05-7.5-3.15c-1.97-2.14-2.98-4.74-2.98-7.84
		C74.25,20.4,75.26,17.8,77.23,15.7 M89.77,27.23c1.09-1.05,1.63-2.31,1.63-3.77c0-1.47-0.54-2.72-1.63-3.73
		c-1.05-1.05-2.35-1.55-3.9-1.55c-1.51,0-2.77,0.5-3.82,1.55c-1.05,1.01-1.55,2.26-1.55,3.73c0,1.47,0.5,2.72,1.55,3.77
		c1.05,1.01,2.31,1.51,3.82,1.51C87.42,28.74,88.72,28.24,89.77,27.23"/>
	<path class="st1" d="M77.23,15.7c2.01-2.14,4.53-3.19,7.5-3.19c3.19,0,5.66,1.3,6.29,3.15v-2.77h6.25V26.6
		c0,1.68,0.42,2.35,1.55,2.35c0.29,0,0.67-0.04,1.05-0.08v5.2c-0.67,0.21-1.59,0.33-2.81,0.33c-1.38,0-2.56-0.25-3.44-0.76
		c-0.96-0.63-1.59-1.38-1.89-2.26c-1.38,2.06-3.69,3.06-7,3.06c-2.98,0-5.49-1.05-7.5-3.15c-1.97-2.14-2.98-4.74-2.98-7.84
		C74.25,20.4,75.26,17.8,77.23,15.7z M89.77,27.23c1.09-1.05,1.63-2.31,1.63-3.77c0-1.47-0.54-2.72-1.63-3.73
		c-1.05-1.05-2.35-1.55-3.9-1.55c-1.51,0-2.77,0.5-3.82,1.55c-1.05,1.01-1.55,2.26-1.55,3.73c0,1.47,0.5,2.72,1.55,3.77
		c1.05,1.01,2.31,1.51,3.82,1.51C87.42,28.74,88.72,28.24,89.77,27.23z"/>
	<polygon class="st2" points="124.87,34.02 115.81,12.89 122.15,12.89 127.68,26.31 133.17,12.89 139.51,12.89 130.45,34.02 	"/>
	<polygon class="st1" points="124.87,34.02 115.81,12.89 122.15,12.89 127.68,26.31 133.17,12.89 139.51,12.89 130.45,34.02 	"/>
	<path class="st2" d="M144.79,4c1.97,0,3.56,1.55,3.56,3.56c0,1.97-1.59,3.52-3.56,3.52c-1.97,0-3.56-1.55-3.56-3.52
		C141.23,5.55,142.82,4,144.79,4"/>
	<path class="st1" d="M144.79,4c1.97,0,3.56,1.55,3.56,3.56c0,1.97-1.59,3.52-3.56,3.52c-1.97,0-3.56-1.55-3.56-3.52
		C141.23,5.55,142.82,4,144.79,4z"/>
	<path class="st2" d="M146.35,30.32c1.12-0.57,2.23-1.06,3.33-1.52c-0.1,0.01-0.19,0.02-0.32,0.02c-1.05,0-1.43-0.67-1.43-2.22
		V12.89h-6.25v15.56c0,1.68,0.35,2.98,1,3.95C143.88,31.66,145.1,30.96,146.35,30.32"/>
	<path class="st1" d="M146.35,30.32c1.12-0.57,2.23-1.06,3.33-1.52c-0.1,0.01-0.19,0.02-0.32,0.02c-1.05,0-1.43-0.67-1.43-2.22
		V12.89h-6.25v15.56c0,1.68,0.35,2.98,1,3.95C143.88,31.66,145.1,30.96,146.35,30.32z"/>
	<path class="st2" d="M178.55,4c1.97,0,3.56,1.55,3.56,3.57c0,1.97-1.59,3.52-3.56,3.52c-1.97,0-3.56-1.55-3.56-3.52
		C174.99,5.55,176.58,4,178.55,4 M175.45,12.89h6.25V26.6c0,1.55,0.38,2.22,1.43,2.22c0.38,0,0.63-0.04,0.76-0.08v5.33
		c-0.54,0.21-1.51,0.33-2.89,0.33c-3.69,0-5.53-1.97-5.53-5.95V12.89z"/>
	<path class="st1" d="M178.55,4c1.97,0,3.56,1.55,3.56,3.57c0,1.97-1.59,3.52-3.56,3.52c-1.97,0-3.56-1.55-3.56-3.52
		C174.99,5.55,176.58,4,178.55,4z M175.45,12.89h6.25V26.6c0,1.55,0.38,2.22,1.43,2.22c0.38,0,0.63-0.04,0.76-0.08v5.33
		c-0.54,0.21-1.51,0.33-2.89,0.33c-3.69,0-5.53-1.97-5.53-5.95V12.89z"/>
	<path class="st2" d="M186.73,34.02V12.89h6.25v2.89c0.96-2.14,3.23-3.36,6.12-3.36c0.42,0,0.96,0.04,1.63,0.13v5.87
		c-0.63-0.13-1.34-0.21-2.1-0.21c-3.56,0-5.66,2.01-5.66,5.49v10.31H186.73z"/>
	<path class="st1" d="M186.73,34.02V12.89h6.25v2.89c0.96-2.14,3.23-3.36,6.12-3.36c0.42,0,0.96,0.04,1.63,0.13v5.87
		c-0.63-0.13-1.34-0.21-2.1-0.21c-3.56,0-5.66,2.01-5.66,5.49v10.31H186.73z"/>
	<path class="st2" d="M217.64,23.41c0-3.31,1.09-6,3.23-8.01c2.14-2.05,4.91-3.06,8.22-3.06c3.23,0,5.83,1.05,7.84,3.1
		c2.01,2.06,3.02,4.57,3.02,7.63c0,0.71-0.04,1.38-0.08,2.01h-15.98c0.13,2.52,2.31,4.15,5.62,4.15c1.97,0,3.69-0.67,5.16-2.06
		l3.65,3.48c-2.47,2.56-5.54,3.86-9.1,3.86c-3.48,0-6.25-1.01-8.39-2.98c-2.14-2.01-3.19-4.65-3.19-7.97V23.41z M233.65,21.02
		c0-1.97-2.06-3.52-4.57-3.52c-2.72,0-4.95,1.55-5.11,3.52H233.65z"/>
	<path class="st1" d="M217.64,23.41c0-3.31,1.09-6,3.23-8.01c2.14-2.05,4.91-3.06,8.22-3.06c3.23,0,5.83,1.05,7.84,3.1
		c2.01,2.06,3.02,4.57,3.02,7.63c0,0.71-0.04,1.38-0.08,2.01h-15.98c0.13,2.52,2.31,4.15,5.62,4.15c1.97,0,3.69-0.67,5.16-2.06
		l3.65,3.48c-2.47,2.56-5.54,3.86-9.1,3.86c-3.48,0-6.25-1.01-8.39-2.98c-2.14-2.01-3.19-4.65-3.19-7.97V23.41z M233.65,21.02
		c0-1.97-2.06-3.52-4.57-3.52c-2.72,0-4.95,1.55-5.11,3.52H233.65z"/>
	<path class="st2" d="M243.05,34.02V12.89h6.25v2.64c0.88-1.84,3.23-3.1,6.08-3.1c5.07,0,8.01,3.27,8.01,8.76v5.33
		c0,1.63,0.34,2.22,1.38,2.22h0.42l0.25-0.04v5.28c-0.5,0.21-1.43,0.29-2.73,0.29c-3.73,0-5.58-2.01-5.58-6.04v-6.29
		c0-2.47-1.3-3.98-3.77-3.98c-2.35,0-4.07,1.72-4.07,4.19v11.87H243.05z"/>
	<path class="st1" d="M243.05,34.02V12.89h6.25v2.64c0.88-1.84,3.23-3.1,6.08-3.1c5.07,0,8.01,3.27,8.01,8.76v5.33
		c0,1.63,0.34,2.22,1.38,2.22h0.42l0.25-0.04v5.28c-0.5,0.21-1.43,0.29-2.73,0.29c-3.73,0-5.58-2.01-5.58-6.04v-6.29
		c0-2.47-1.3-3.98-3.77-3.98c-2.35,0-4.07,1.72-4.07,4.19v11.87H243.05z"/>
	<path class="st2" d="M162.86,26.03c1.62,0.05,3.08,0.29,4.47,0.7l5.93-13.85h-6.33l-5.39,13.15
		C161.99,26.03,162.43,26.02,162.86,26.03"/>
	<path class="st1" d="M162.86,26.03c1.62,0.05,3.08,0.29,4.47,0.7l5.93-13.85h-6.33l-5.39,13.15
		C161.99,26.03,162.43,26.02,162.86,26.03z"/>
	<path class="st2" d="M161.33,26.04l-5.43-13.15h-6.33l5.99,13.98C157.63,26.38,159.53,26.11,161.33,26.04"/>
	<path class="st1" d="M161.33,26.04l-5.43-13.15h-6.33l5.99,13.98C157.63,26.38,159.53,26.11,161.33,26.04z"/>
	<path class="st2" d="M252.88,61.16c0.19-0.11,0.38-0.21,0.56-0.33c1.39-0.92,2.73-1.91,4.01-2.97c1.07-0.89,2.06-1.85,2.97-2.91
		c0.54-0.63,1.05-1.29,1.49-2c0.23-0.37,0.43-0.75,0.56-1.16c0.04-0.12,0.07-0.24,0.09-0.36c0.06-0.31-0.16-0.56-0.46-0.52
		c-0.09,0.01-0.18,0.03-0.27,0.05c-0.58,0.14-1.1,0.4-1.6,0.7c-0.93,0.55-1.77,1.23-2.59,1.93c-2.1,1.82-3.58,4.05-4.58,6.62
		c-0.1,0.26-0.17,0.53-0.24,0.79C252.79,61.04,252.84,61.1,252.88,61.16 M181.45,54.52c0.02-0.41-0.03-0.8-0.14-1.2
		c-0.27-1.01-0.95-1.4-1.77-1.52c-0.12-0.02-0.25-0.01-0.37-0.02c-0.72-0.03-1.41,0.1-2.1,0.3c-1.36,0.39-2.55,1.08-3.66,1.93
		c-1.11,0.85-2.08,1.84-2.95,2.93c-1.24,1.55-2.26,3.24-2.96,5.1c-0.29,0.75-0.49,1.53-0.6,2.32c-0.07,0.49-0.05,0.98,0.07,1.47
		c0.19,0.8,0.75,1.25,1.58,1.31c0.4,0.03,0.79-0.01,1.19-0.12c0.63-0.17,1.21-0.45,1.77-0.77c0.72-0.42,1.39-0.92,2.03-1.45
		c1.21-1.01,2.32-2.13,3.37-3.3c1.24-1.37,2.4-2.82,3.54-4.27c0.23-0.29,0.42-0.61,0.61-0.92c0.08-0.13,0.15-0.28,0.18-0.42
		C181.37,55.43,181.47,54.98,181.45,54.52 M296.6,27.47c-0.01-0.09-0.01-0.15-0.02-0.22c-0.01-0.06-0.03-0.12-0.05-0.18
		c-0.07-0.23-0.33-0.41-0.57-0.39c-0.4,0.04-0.78,0.17-1.14,0.35c-0.58,0.29-1.12,0.65-1.64,1.04c-1.18,0.9-2.29,1.87-3.33,2.93
		c-0.97,0.99-1.89,2.02-2.77,3.1c-3.15,3.85-5.85,8.01-8.14,12.43c-1.21,2.33-2.27,4.72-3.13,7.2c-0.15,0.44-0.29,0.88-0.43,1.32
		c-0.04,0.11-0.01,0.27,0.03,0.26c0.08-0.03,0.18-0.06,0.24-0.11c0.14-0.12,0.26-0.26,0.39-0.4c4.83-4.98,9.4-10.2,13.66-15.67
		c1.55-2,3.05-4.03,4.4-6.17c0.53-0.83,1.03-1.68,1.48-2.56c0.3-0.58,0.57-1.16,0.76-1.78C296.48,28.23,296.58,27.84,296.6,27.47
		 M289.77,61.93c-0.33,0.4-0.43,0.52-0.73,0.83c-1.68,1.73-3.42,3.38-5.35,4.84c-0.89,0.67-1.8,1.29-2.79,1.82
		c-0.57,0.31-1.16,0.57-1.77,0.79c-1.36,0.47-2.73,0.45-4.09,0.02c-1.38-0.43-2.44-1.3-3.17-2.54c-0.46-0.78-0.77-1.62-0.96-2.49
		c-0.08-0.36-0.16-0.72-0.24-1.1c-0.1,0.03-0.2,0.03-0.27,0.08c-0.19,0.15-0.37,0.33-0.55,0.5c-1.18,1.09-2.41,2.12-3.72,3.05
		c-1.11,0.79-2.25,1.52-3.48,2.11c-1,0.49-2.03,0.89-3.13,1.1c-1.22,0.22-2.44,0.34-3.68,0.18c-0.64-0.08-1.28-0.18-1.9-0.38
		c-1.98-0.62-3.47-1.84-4.49-3.63c-0.34-0.59-0.62-1.21-0.82-1.86c-0.04-0.12-0.1-0.22-0.26-0.28c-0.17,0.14-0.36,0.3-0.55,0.46
		c-0.81,0.71-1.65,1.39-2.52,2.03c-0.98,0.7-2,1.34-3.08,1.86c-1.29,0.62-2.63,1.03-4.06,1.22c-1.17,0.15-2.33,0.19-3.51,0.14
		c-1.24-0.05-2.45-0.3-3.61-0.74c-0.75-0.29-1.46-0.67-2.11-1.15c-1.17-0.86-2.04-1.97-2.6-3.31c-0.11-0.26-0.2-0.52-0.3-0.78
		c-0.04-0.11-0.22-0.15-0.31-0.07c-0.14,0.12-0.27,0.25-0.41,0.37c-0.77,0.67-1.53,1.35-2.31,2c-0.95,0.79-1.96,1.5-3.03,2.11
		c-0.94,0.54-1.91,1.01-2.97,1.26c-3.49,0.82-6.48-1.33-7.23-4.3c-0.14-0.55-0.15-1.1-0.2-1.65c-0.01-0.04-0.07-0.08-0.12-0.11
		c-0.02-0.01-0.06,0.01-0.08,0.02c-0.07,0.06-0.14,0.12-0.2,0.18c-0.23,0.25-0.45,0.51-0.68,0.76c-0.67,0.73-1.37,1.42-2.13,2.06
		c-0.9,0.76-1.86,1.43-2.93,1.92c-0.65,0.29-1.32,0.49-2.05,0.54c-1.4,0.08-2.45-0.49-3.14-1.7c-0.33-0.57-0.53-1.18-0.65-1.82
		c-0.09-0.49-0.15-0.98-0.22-1.46c-0.01-0.08-0.15-0.12-0.22-0.06c-0.17,0.14-0.33,0.27-0.49,0.41c-1.11,0.98-2.26,1.91-3.48,2.76
		c-1.14,0.8-2.32,1.51-3.59,2.09c-0.87,0.4-1.77,0.72-2.71,0.92c-1.25,0.26-2.51,0.28-3.76-0.05c-2.8-0.75-4.08-3.02-4.25-5.03
		c-0.02-0.25-0.05-0.49-0.09-0.73c-0.01-0.04-0.08-0.08-0.12-0.11c-0.02-0.01-0.07,0.01-0.09,0.03c-0.2,0.19-0.4,0.39-0.59,0.59
		c-0.9,0.97-1.83,1.92-2.84,2.79c-0.58,0.5-1.19,0.97-1.81,1.44c-0.52,0.39-1.09,0.7-1.68,0.97c-1.52,0.7-3.1,0.77-4.71,0.38
		c-0.57-0.14-1.09-0.42-1.56-0.78c-0.6-0.45-1.09-1.01-1.47-1.65c-0.52-0.89-0.84-1.85-0.96-2.87c-0.19-1.59,0-3.14,0.48-4.66
		c0.35-1.09,0.8-2.14,1.37-3.13c1.94-3.39,4.57-6.12,7.95-8.09c1.42-0.82,2.92-1.47,4.52-1.85c0.48-0.11,0.97-0.22,1.46-0.25
		c2.14-0.13,3.85,0.68,5.12,2.41c0.18,0.25,0.33,0.51,0.51,0.79c0.1-0.05,0.19-0.07,0.25-0.13c0.23-0.25,0.89-1.04,1.17-1.43
		l3.68,2.04c-0.1,0.23-0.26,0.6-0.34,0.74c-0.1,0.19-0.21,0.38-0.34,0.55c-0.28,0.37-0.58,0.73-0.88,1.08
		c-0.84,0.99-1.68,1.97-2.53,2.96c-0.3,0.35-0.56,0.73-0.78,1.15c-0.59,1.12-1.14,2.26-1.55,3.46c-0.27,0.79-0.48,1.59-0.55,2.43
		c-0.03,0.4-0.01,0.8,0.06,1.2c0.15,0.91,0.8,1.53,1.74,1.66c0.68,0.09,1.36,0.04,2.02-0.1c0.97-0.21,1.89-0.55,2.8-0.95
		c1.49-0.67,2.93-1.46,4.28-2.38c1.53-1.05,2.95-2.23,4.31-3.49c0.18-0.17,0.35-0.33,0.44-0.58c1.11-3.3,3-6.14,5.28-8.73
		c0.63-0.72,1.31-1.4,1.96-2.1c0.27-0.29,0.6-0.41,0.99-0.41c0.47,0,0.92,0.1,1.34,0.32c0.19,0.1,0.37,0.22,0.53,0.37
		c0.47,0.44,0.58,1.04,0.27,1.6c-0.15,0.27-0.33,0.52-0.52,0.76c-0.62,0.81-1.25,1.61-1.86,2.42c-0.91,1.21-1.76,2.45-2.53,3.76
		c-0.41,0.69-0.78,1.4-1.11,2.13c-0.59,1.3-0.95,2.67-1.14,4.08c-0.07,0.49-0.07,0.99,0.08,1.47c0.04,0.12,0.08,0.24,0.14,0.34
		c0.14,0.22,0.34,0.37,0.61,0.35c0.18-0.01,0.37-0.04,0.54-0.09c0.42-0.13,0.79-0.34,1.15-0.58c0.68-0.44,1.29-0.95,1.88-1.5
		c0.84-0.77,1.63-1.6,2.38-2.46c2.18-2.49,4.12-5.16,5.91-7.93c0.82-1.27,1.59-2.57,2.38-3.86c0.1-0.16,0.18-0.32,0.27-0.48
		c0.21-0.38,0.55-0.58,0.96-0.64c0.66-0.1,1.29-0.01,1.88,0.33c0.16,0.09,0.31,0.21,0.43,0.35c0.3,0.35,0.42,0.76,0.23,1.2
		c-0.11,0.25-0.26,0.49-0.4,0.73c-0.78,1.29-1.58,2.58-2.34,3.88c-0.87,1.49-1.68,3.01-2.41,4.58c-0.49,1.06-0.96,2.14-1.24,3.28
		c-0.1,0.42-0.19,0.84-0.25,1.27c-0.08,0.56-0.05,1.11,0.12,1.65c0.24,0.79,0.78,1.24,1.57,1.39c0.68,0.13,1.35,0.08,2.01-0.1
		c0.6-0.17,1.17-0.4,1.7-0.72c0.5-0.31,0.99-0.63,1.45-0.99c0.59-0.45,1.17-0.91,1.72-1.4c1.1-0.99,2.18-2.01,3.27-3.01
		c0.21-0.19,0.37-0.41,0.42-0.7c0.04-0.24,0.11-0.48,0.17-0.72c0.24-0.83,0.56-1.63,0.97-2.4c0.38-0.71,0.8-1.39,1.29-2.03
		c1.63-2.16,3.59-3.98,5.86-5.46c1.38-0.89,2.86-1.57,4.46-1.99c1.27-0.33,2.55-0.44,3.85-0.28c0.9,0.11,1.74,0.39,2.49,0.92
		c0.76,0.54,1.25,1.26,1.45,2.18c0.11,0.49,0.11,0.98,0,1.47c-0.12,0.55-0.32,1.06-0.59,1.55c-0.75,1.34-1.77,2.44-2.95,3.41
		c-0.3,0.26-0.34,0.3-0.54,0.47c-0.78-0.83-1.14-1.25-2.13-2.43c0.46-0.51,0.39-0.41,0.73-0.82c0.16-0.19,0.34-0.36,0.51-0.54
		c0.36-0.39,0.63-0.84,0.74-1.37c0.04-0.21,0.06-0.44,0.02-0.64c-0.17-0.93-0.94-1.22-1.63-1.17c-0.34,0.03-0.67,0.1-0.98,0.26
		c-0.38,0.19-0.78,0.37-1.15,0.59c-2.38,1.43-4.42,3.24-6.12,5.44c-0.99,1.28-1.73,2.7-2.16,4.27c-0.2,0.72-0.32,1.44-0.29,2.19
		c0.02,0.5,0.11,0.98,0.27,1.45c0.39,1.11,1.14,1.89,2.2,2.38c0.83,0.38,1.71,0.53,2.61,0.55c0.78,0.02,1.54-0.1,2.29-0.25
		c1.46-0.3,2.83-0.84,4.17-1.5c1.16-0.58,2.27-1.25,3.33-1.99c1.19-0.83,2.33-1.73,3.42-2.69c0.27-0.23,0.45-0.49,0.54-0.83
		c0.62-2.35,1.83-4.38,3.42-6.18c1.56-1.76,3.34-3.29,5.33-4.56c1.15-0.73,2.36-1.34,3.68-1.7c0.75-0.2,1.51-0.33,2.28-0.28
		c0.5,0.03,0.98,0.15,1.43,0.36c0.97,0.46,1.52,1.24,1.67,2.29c0.1,0.67,0.05,1.35-0.11,2.02c-0.17,0.69-0.42,1.35-0.74,1.99
		c-0.76,1.5-1.7,2.86-2.92,4.03c-1.52,1.45-3.11,2.81-4.75,4.13c-1.11,0.89-2.23,1.76-3.4,2.57c-0.53,0.37-1.08,0.71-1.62,1.07
		c-0.19,0.12-0.21,0.28-0.11,0.48c0.53,0.97,1.38,1.47,2.45,1.62c0.83,0.11,1.66,0.08,2.49-0.1c0.57-0.13,1.14-0.26,1.7-0.45
		c2.42-0.8,4.67-1.91,6.67-3.51c1.47-1.18,2.86-2.45,4.21-3.76c0.21-0.2,0.34-0.42,0.37-0.72c0.22-2.5,0.82-4.92,1.59-7.31
		c1.02-3.18,2.38-6.22,4.02-9.13c3-5.33,6.7-10.13,11.1-14.38c0.93-0.9,1.91-1.76,2.93-2.55c1.12-0.87,2.31-1.65,3.6-2.24
		c0.67-0.31,1.37-0.56,2.09-0.73c0.7-0.16,1.4-0.18,2.11-0.11c0.37,0.03,0.72,0.17,1.04,0.35c0.45,0.25,0.77,0.61,0.96,1.09
		c0.06,0.14,0.13,0.27,0.2,0.41v3.15c-0.05,0.07-0.14,0.14-0.15,0.22c-0.06,0.56-0.27,1.07-0.48,1.59
		c-0.43,1.06-0.95,2.07-1.52,3.06c-1.07,1.88-2.29,3.66-3.58,5.4c-1.96,2.66-4.06,5.21-6.23,7.7c-3.38,3.89-6.91,7.64-10.54,11.3
		c-0.96,0.96-1.92,1.92-2.88,2.88c-0.15,0.15-0.31,0.3-0.46,0.46c-0.13,0.13-0.22,0.29-0.23,0.49c-0.1,1.29-0.13,2.59,0.16,3.87
		c0.08,0.36,0.21,0.71,0.36,1.05c0.33,0.74,0.94,1.12,1.73,1.23c0.43,0.06,0.86,0.04,1.29-0.07c0.54-0.13,1.06-0.33,1.56-0.57
		c0.75-0.37,1.45-0.81,2.13-1.29c1.32-0.92,2.55-1.95,3.74-3.03c0.82-0.74,1.63-1.51,2.45-2.26c0.16-0.15,0.31-0.3,0.48-0.43
		L289.77,61.93z"/>
	<path class="st1" d="M252.88,61.16c0.19-0.11,0.38-0.21,0.56-0.33c1.39-0.92,2.73-1.91,4.01-2.97c1.07-0.89,2.06-1.85,2.97-2.91
		c0.54-0.63,1.05-1.29,1.49-2c0.23-0.37,0.43-0.75,0.56-1.16c0.04-0.12,0.07-0.24,0.09-0.36c0.06-0.31-0.16-0.56-0.46-0.52
		c-0.09,0.01-0.18,0.03-0.27,0.05c-0.58,0.14-1.1,0.4-1.6,0.7c-0.93,0.55-1.77,1.23-2.59,1.93c-2.1,1.82-3.58,4.05-4.58,6.62
		c-0.1,0.26-0.17,0.53-0.24,0.79C252.79,61.04,252.84,61.1,252.88,61.16 M181.45,54.52c0.02-0.41-0.03-0.8-0.14-1.2
		c-0.27-1.01-0.95-1.4-1.77-1.52c-0.12-0.02-0.25-0.01-0.37-0.02c-0.72-0.03-1.41,0.1-2.1,0.3c-1.36,0.39-2.55,1.08-3.66,1.93
		c-1.11,0.85-2.08,1.84-2.95,2.93c-1.24,1.55-2.26,3.24-2.96,5.1c-0.29,0.75-0.49,1.53-0.6,2.32c-0.07,0.49-0.05,0.98,0.07,1.47
		c0.19,0.8,0.75,1.25,1.58,1.31c0.4,0.03,0.79-0.01,1.19-0.12c0.63-0.17,1.21-0.45,1.77-0.77c0.72-0.42,1.39-0.92,2.03-1.45
		c1.21-1.01,2.32-2.13,3.37-3.3c1.24-1.37,2.4-2.82,3.54-4.27c0.23-0.29,0.42-0.61,0.61-0.92c0.08-0.13,0.15-0.28,0.18-0.42
		C181.37,55.43,181.47,54.98,181.45,54.52 M296.6,27.47c-0.01-0.09-0.01-0.15-0.02-0.22c-0.01-0.06-0.03-0.12-0.05-0.18
		c-0.07-0.23-0.33-0.41-0.57-0.39c-0.4,0.04-0.78,0.17-1.14,0.35c-0.58,0.29-1.12,0.65-1.64,1.04c-1.18,0.9-2.29,1.87-3.33,2.93
		c-0.97,0.99-1.89,2.02-2.77,3.1c-3.15,3.85-5.85,8.01-8.14,12.43c-1.21,2.33-2.27,4.72-3.13,7.2c-0.15,0.44-0.29,0.88-0.43,1.32
		c-0.04,0.11-0.01,0.27,0.03,0.26c0.08-0.03,0.18-0.06,0.24-0.11c0.14-0.12,0.26-0.26,0.39-0.4c4.83-4.98,9.4-10.2,13.66-15.67
		c1.55-2,3.05-4.03,4.4-6.17c0.53-0.83,1.03-1.68,1.48-2.56c0.3-0.58,0.57-1.16,0.76-1.78C296.48,28.23,296.58,27.84,296.6,27.47
		 M289.77,61.93c-0.33,0.4-0.43,0.52-0.73,0.83c-1.68,1.73-3.42,3.38-5.35,4.84c-0.89,0.67-1.8,1.29-2.79,1.82
		c-0.57,0.31-1.16,0.57-1.77,0.79c-1.36,0.47-2.73,0.45-4.09,0.02c-1.38-0.43-2.44-1.3-3.17-2.54c-0.46-0.78-0.77-1.62-0.96-2.49
		c-0.08-0.36-0.16-0.72-0.24-1.1c-0.1,0.03-0.2,0.03-0.27,0.08c-0.19,0.15-0.37,0.33-0.55,0.5c-1.18,1.09-2.41,2.12-3.72,3.05
		c-1.11,0.79-2.25,1.52-3.48,2.11c-1,0.49-2.03,0.89-3.13,1.1c-1.22,0.22-2.44,0.34-3.68,0.18c-0.64-0.08-1.28-0.18-1.9-0.38
		c-1.98-0.62-3.47-1.84-4.49-3.63c-0.34-0.59-0.62-1.21-0.82-1.86c-0.04-0.12-0.1-0.22-0.26-0.28c-0.17,0.14-0.36,0.3-0.55,0.46
		c-0.81,0.71-1.65,1.39-2.52,2.03c-0.98,0.7-2,1.34-3.08,1.86c-1.29,0.62-2.63,1.03-4.06,1.22c-1.17,0.15-2.33,0.19-3.51,0.14
		c-1.24-0.05-2.45-0.3-3.61-0.74c-0.75-0.29-1.46-0.67-2.11-1.15c-1.17-0.86-2.04-1.97-2.6-3.31c-0.11-0.26-0.2-0.52-0.3-0.78
		c-0.04-0.11-0.22-0.15-0.31-0.07c-0.14,0.12-0.27,0.25-0.41,0.37c-0.77,0.67-1.53,1.35-2.31,2c-0.95,0.79-1.96,1.5-3.03,2.11
		c-0.94,0.54-1.91,1.01-2.97,1.26c-3.49,0.82-6.48-1.33-7.23-4.3c-0.14-0.55-0.15-1.1-0.2-1.65c-0.01-0.04-0.07-0.08-0.12-0.11
		c-0.02-0.01-0.06,0.01-0.08,0.02c-0.07,0.06-0.14,0.12-0.2,0.18c-0.23,0.25-0.45,0.51-0.68,0.76c-0.67,0.73-1.37,1.42-2.13,2.06
		c-0.9,0.76-1.86,1.43-2.93,1.92c-0.65,0.29-1.32,0.49-2.05,0.54c-1.4,0.08-2.45-0.49-3.14-1.7c-0.33-0.57-0.53-1.18-0.65-1.82
		c-0.09-0.49-0.15-0.98-0.22-1.46c-0.01-0.08-0.15-0.12-0.22-0.06c-0.17,0.14-0.33,0.27-0.49,0.41c-1.11,0.98-2.26,1.91-3.48,2.76
		c-1.14,0.8-2.32,1.51-3.59,2.09c-0.87,0.4-1.77,0.72-2.71,0.92c-1.25,0.26-2.51,0.28-3.76-0.05c-2.8-0.75-4.08-3.02-4.25-5.03
		c-0.02-0.25-0.05-0.49-0.09-0.73c-0.01-0.04-0.08-0.08-0.12-0.11c-0.02-0.01-0.07,0.01-0.09,0.03c-0.2,0.19-0.4,0.39-0.59,0.59
		c-0.9,0.97-1.83,1.92-2.84,2.79c-0.58,0.5-1.19,0.97-1.81,1.44c-0.52,0.39-1.09,0.7-1.68,0.97c-1.52,0.7-3.1,0.77-4.71,0.38
		c-0.57-0.14-1.09-0.42-1.56-0.78c-0.6-0.45-1.09-1.01-1.47-1.65c-0.52-0.89-0.84-1.85-0.96-2.87c-0.19-1.59,0-3.14,0.48-4.66
		c0.35-1.09,0.8-2.14,1.37-3.13c1.94-3.39,4.57-6.12,7.95-8.09c1.42-0.82,2.92-1.47,4.52-1.85c0.48-0.11,0.97-0.22,1.46-0.25
		c2.14-0.13,3.85,0.68,5.12,2.41c0.18,0.25,0.33,0.51,0.51,0.79c0.1-0.05,0.19-0.07,0.25-0.13c0.23-0.25,0.89-1.04,1.17-1.43
		l3.68,2.04c-0.1,0.23-0.26,0.6-0.34,0.74c-0.1,0.19-0.21,0.38-0.34,0.55c-0.28,0.37-0.58,0.73-0.88,1.08
		c-0.84,0.99-1.68,1.97-2.53,2.96c-0.3,0.35-0.56,0.73-0.78,1.15c-0.59,1.12-1.14,2.26-1.55,3.46c-0.27,0.79-0.48,1.59-0.55,2.43
		c-0.03,0.4-0.01,0.8,0.06,1.2c0.15,0.91,0.8,1.53,1.74,1.66c0.68,0.09,1.36,0.04,2.02-0.1c0.97-0.21,1.89-0.55,2.8-0.95
		c1.49-0.67,2.93-1.46,4.28-2.38c1.53-1.05,2.95-2.23,4.31-3.49c0.18-0.17,0.35-0.33,0.44-0.58c1.11-3.3,3-6.14,5.28-8.73
		c0.63-0.72,1.31-1.4,1.96-2.1c0.27-0.29,0.6-0.41,0.99-0.41c0.47,0,0.92,0.1,1.34,0.32c0.19,0.1,0.37,0.22,0.53,0.37
		c0.47,0.44,0.58,1.04,0.27,1.6c-0.15,0.27-0.33,0.52-0.52,0.76c-0.62,0.81-1.25,1.61-1.86,2.42c-0.91,1.21-1.76,2.45-2.53,3.76
		c-0.41,0.69-0.78,1.4-1.11,2.13c-0.59,1.3-0.95,2.67-1.14,4.08c-0.07,0.49-0.07,0.99,0.08,1.47c0.04,0.12,0.08,0.24,0.14,0.34
		c0.14,0.22,0.34,0.37,0.61,0.35c0.18-0.01,0.37-0.04,0.54-0.09c0.42-0.13,0.79-0.34,1.15-0.58c0.68-0.44,1.29-0.95,1.88-1.5
		c0.84-0.77,1.63-1.6,2.38-2.46c2.18-2.49,4.12-5.16,5.91-7.93c0.82-1.27,1.59-2.57,2.38-3.86c0.1-0.16,0.18-0.32,0.27-0.48
		c0.21-0.38,0.55-0.58,0.96-0.64c0.66-0.1,1.29-0.01,1.88,0.33c0.16,0.09,0.31,0.21,0.43,0.35c0.3,0.35,0.42,0.76,0.23,1.2
		c-0.11,0.25-0.26,0.49-0.4,0.73c-0.78,1.29-1.58,2.58-2.34,3.88c-0.87,1.49-1.68,3.01-2.41,4.58c-0.49,1.06-0.96,2.14-1.24,3.28
		c-0.1,0.42-0.19,0.84-0.25,1.27c-0.08,0.56-0.05,1.11,0.12,1.65c0.24,0.79,0.78,1.24,1.57,1.39c0.68,0.13,1.35,0.08,2.01-0.1
		c0.6-0.17,1.17-0.4,1.7-0.72c0.5-0.31,0.99-0.63,1.45-0.99c0.59-0.45,1.17-0.91,1.72-1.4c1.1-0.99,2.18-2.01,3.27-3.01
		c0.21-0.19,0.37-0.41,0.42-0.7c0.04-0.24,0.11-0.48,0.17-0.72c0.24-0.83,0.56-1.63,0.97-2.4c0.38-0.71,0.8-1.39,1.29-2.03
		c1.63-2.16,3.59-3.98,5.86-5.46c1.38-0.89,2.86-1.57,4.46-1.99c1.27-0.33,2.55-0.44,3.85-0.28c0.9,0.11,1.74,0.39,2.49,0.92
		c0.76,0.54,1.25,1.26,1.45,2.18c0.11,0.49,0.11,0.98,0,1.47c-0.12,0.55-0.32,1.06-0.59,1.55c-0.75,1.34-1.77,2.44-2.95,3.41
		c-0.3,0.26-0.34,0.3-0.54,0.47c-0.78-0.83-1.14-1.25-2.13-2.43c0.46-0.51,0.39-0.41,0.73-0.82c0.16-0.19,0.34-0.36,0.51-0.54
		c0.36-0.39,0.63-0.84,0.74-1.37c0.04-0.21,0.06-0.44,0.02-0.64c-0.17-0.93-0.94-1.22-1.63-1.17c-0.34,0.03-0.67,0.1-0.98,0.26
		c-0.38,0.19-0.78,0.37-1.15,0.59c-2.38,1.43-4.42,3.24-6.12,5.44c-0.99,1.28-1.73,2.7-2.16,4.27c-0.2,0.72-0.32,1.44-0.29,2.19
		c0.02,0.5,0.11,0.98,0.27,1.45c0.39,1.11,1.14,1.89,2.2,2.38c0.83,0.38,1.71,0.53,2.61,0.55c0.78,0.02,1.54-0.1,2.29-0.25
		c1.46-0.3,2.83-0.84,4.17-1.5c1.16-0.58,2.27-1.25,3.33-1.99c1.19-0.83,2.33-1.73,3.42-2.69c0.27-0.23,0.45-0.49,0.54-0.83
		c0.62-2.35,1.83-4.38,3.42-6.18c1.56-1.76,3.34-3.29,5.33-4.56c1.15-0.73,2.36-1.34,3.68-1.7c0.75-0.2,1.51-0.33,2.28-0.28
		c0.5,0.03,0.98,0.15,1.43,0.36c0.97,0.46,1.52,1.24,1.67,2.29c0.1,0.67,0.05,1.35-0.11,2.02c-0.17,0.69-0.42,1.35-0.74,1.99
		c-0.76,1.5-1.7,2.86-2.92,4.03c-1.52,1.45-3.11,2.81-4.75,4.13c-1.11,0.89-2.23,1.76-3.4,2.57c-0.53,0.37-1.08,0.71-1.62,1.07
		c-0.19,0.12-0.21,0.28-0.11,0.48c0.53,0.97,1.38,1.47,2.45,1.62c0.83,0.11,1.66,0.08,2.49-0.1c0.57-0.13,1.14-0.26,1.7-0.45
		c2.42-0.8,4.67-1.91,6.67-3.51c1.47-1.18,2.86-2.45,4.21-3.76c0.21-0.2,0.34-0.42,0.37-0.72c0.22-2.5,0.82-4.92,1.59-7.31
		c1.02-3.18,2.38-6.22,4.02-9.13c3-5.33,6.7-10.13,11.1-14.38c0.93-0.9,1.91-1.76,2.93-2.55c1.12-0.87,2.31-1.65,3.6-2.24
		c0.67-0.31,1.37-0.56,2.09-0.73c0.7-0.16,1.4-0.18,2.11-0.11c0.37,0.03,0.72,0.17,1.04,0.35c0.45,0.25,0.77,0.61,0.96,1.09
		c0.06,0.14,0.13,0.27,0.2,0.41v3.15c-0.05,0.07-0.14,0.14-0.15,0.22c-0.06,0.56-0.27,1.07-0.48,1.59
		c-0.43,1.06-0.95,2.07-1.52,3.06c-1.07,1.88-2.29,3.66-3.58,5.4c-1.96,2.66-4.06,5.21-6.23,7.7c-3.38,3.89-6.91,7.64-10.54,11.3
		c-0.96,0.96-1.92,1.92-2.88,2.88c-0.15,0.15-0.31,0.3-0.46,0.46c-0.13,0.13-0.22,0.29-0.23,0.49c-0.1,1.29-0.13,2.59,0.16,3.87
		c0.08,0.36,0.21,0.71,0.36,1.05c0.33,0.74,0.94,1.12,1.73,1.23c0.43,0.06,0.86,0.04,1.29-0.07c0.54-0.13,1.06-0.33,1.56-0.57
		c0.75-0.37,1.45-0.81,2.13-1.29c1.32-0.92,2.55-1.95,3.74-3.03c0.82-0.74,1.63-1.51,2.45-2.26c0.16-0.15,0.31-0.3,0.48-0.43
		L289.77,61.93z"/>
	<path class="st2" d="M137.56,84.96c-5.38-0.76-9.38-3.54-11.97-8.31c-0.93-1.72-1.51-3.57-1.88-5.49c-0.37-1.92-0.47-3.86-0.35-5.8
		c0.12-1.94,0.47-3.85,1.01-5.73c0.85-2.95,2.11-5.72,3.67-8.36c1.36-2.29,2.92-4.42,4.66-6.44c4.24-4.92,9.23-8.89,15.02-11.83
		c2.64-1.35,5.39-2.43,8.28-3.15c2.22-0.55,4.47-0.89,6.77-0.82c1.42,0.05,2.82,0.26,4.18,0.72c0.56,0.19,1.09,0.42,1.61,0.7
		c2.19,1.21,3.51,3.05,4.03,5.48c0.27,1.25,0.28,2.5,0.05,3.76c-0.12,0.64-0.24,1.28-0.44,1.89c-0.12,0.35-0.27,0.69-0.42,1.02
		c-0.06,0.14-0.19,0.24-0.36,0.26c-0.03,0-0.06,0.01-0.09,0.01c-1.14,0.06-2.28,0.12-3.42,0.18c-0.12,0.01-0.25,0-0.37,0
		c-0.08,0-0.18-0.12-0.15-0.19c0.07-0.2,0.14-0.41,0.23-0.6c0.35-0.79,0.63-1.61,0.8-2.46c0.2-0.98,0.27-1.95,0.11-2.94
		c-0.26-1.59-1.08-2.8-2.51-3.58c-0.74-0.4-1.54-0.63-2.37-0.74c-1.42-0.18-2.83-0.12-4.24,0.08c-2.68,0.38-5.2,1.26-7.63,2.44
		c-2.62,1.27-5.04,2.85-7.32,4.66c-5.02,4-9.2,8.74-12.49,14.26c-1.35,2.26-2.48,4.61-3.31,7.11c-0.46,1.38-0.79,2.79-0.99,4.22
		c-0.02,0.12-0.03,0.24-0.04,0.37c-0.2,2.81,0.15,5.54,1.11,8.19c0.37,1.02,0.86,1.98,1.48,2.87c1.26,1.83,2.93,3.16,5,3.95
		c1.96,0.75,3.98,1.02,6.08,0.78c1.85-0.21,3.63-0.7,5.34-1.42c3.39-1.43,6.41-3.43,8.93-6.13c0.13-0.14,0.41-0.45,0.61-0.64
		l2.98,1.22c-0.09,0.19-0.21,0.38-0.34,0.55c-0.21,0.27-0.43,0.53-0.65,0.78c-2.22,2.56-4.76,4.74-7.73,6.4
		c-1.97,1.11-4.06,1.93-6.27,2.42c-0.88,0.2-1.76,0.29-2.65,0.42C141.52,85.08,139.83,85.23,137.56,84.96"/>
	<path class="st1" d="M137.56,84.96c-5.38-0.76-9.38-3.54-11.97-8.31c-0.93-1.72-1.51-3.57-1.88-5.49c-0.37-1.92-0.47-3.86-0.35-5.8
		c0.12-1.94,0.47-3.85,1.01-5.73c0.85-2.95,2.11-5.72,3.67-8.36c1.36-2.29,2.92-4.42,4.66-6.44c4.24-4.92,9.23-8.89,15.02-11.83
		c2.64-1.35,5.39-2.43,8.28-3.15c2.22-0.55,4.47-0.89,6.77-0.82c1.42,0.05,2.82,0.26,4.18,0.72c0.56,0.19,1.09,0.42,1.61,0.7
		c2.19,1.21,3.51,3.05,4.03,5.48c0.27,1.25,0.28,2.5,0.05,3.76c-0.12,0.64-0.24,1.28-0.44,1.89c-0.12,0.35-0.27,0.69-0.42,1.02
		c-0.06,0.14-0.19,0.24-0.36,0.26c-0.03,0-0.06,0.01-0.09,0.01c-1.14,0.06-2.28,0.12-3.42,0.18c-0.12,0.01-0.25,0-0.37,0
		c-0.08,0-0.18-0.12-0.15-0.19c0.07-0.2,0.14-0.41,0.23-0.6c0.35-0.79,0.63-1.61,0.8-2.46c0.2-0.98,0.27-1.95,0.11-2.94
		c-0.26-1.59-1.08-2.8-2.51-3.58c-0.74-0.4-1.54-0.63-2.37-0.74c-1.42-0.18-2.83-0.12-4.24,0.08c-2.68,0.38-5.2,1.26-7.63,2.44
		c-2.62,1.27-5.04,2.85-7.32,4.66c-5.02,4-9.2,8.74-12.49,14.26c-1.35,2.26-2.48,4.61-3.31,7.11c-0.46,1.38-0.79,2.79-0.99,4.22
		c-0.02,0.12-0.03,0.24-0.04,0.37c-0.2,2.81,0.15,5.54,1.11,8.19c0.37,1.02,0.86,1.98,1.48,2.87c1.26,1.83,2.93,3.16,5,3.95
		c1.96,0.75,3.98,1.02,6.08,0.78c1.85-0.21,3.63-0.7,5.34-1.42c3.39-1.43,6.41-3.43,8.93-6.13c0.13-0.14,0.41-0.45,0.61-0.64
		l2.98,1.22c-0.09,0.19-0.21,0.38-0.34,0.55c-0.21,0.27-0.43,0.53-0.65,0.78c-2.22,2.56-4.76,4.74-7.73,6.4
		c-1.97,1.11-4.06,1.93-6.27,2.42c-0.88,0.2-1.76,0.29-2.65,0.42C141.52,85.08,139.83,85.23,137.56,84.96"/>
	<path class="st3" d="M5.98,34.02L18.06,4.8h5.74l12.08,29.23H29l-1.97-4.91h-12.2l-1.97,4.91H5.98z M16.67,23.96h8.51l-4.24-10.61
		L16.67,23.96z"/>
	<path class="st3" d="M38.61,34.02V12.89h6.25v2.64c0.8-1.84,2.94-3.1,5.49-3.1c2.85,0,4.78,1.13,5.74,3.36
		c1.17-2.22,3.48-3.36,6.96-3.36c4.74,0,7.42,3.27,7.42,8.76v5.33c0,1.63,0.33,2.22,1.38,2.22h0.38l0.25-0.04v5.28
		c-0.59,0.21-1.47,0.29-2.68,0.29c-3.73,0-5.58-2.01-5.58-6.04v-6.29c0-2.47-1.09-3.98-3.06-3.98c-2.01,0-3.44,1.72-3.44,4.19v11.87
		h-6.25V21.95c0-2.47-1.13-3.98-3.15-3.98c-2.01,0-3.48,1.72-3.48,4.19v11.87H38.61z"/>
	<path class="st3" d="M77.23,15.7c2.01-2.14,4.53-3.19,7.5-3.19c3.19,0,5.66,1.3,6.29,3.15v-2.77h6.25V26.6
		c0,1.68,0.42,2.35,1.55,2.35c0.29,0,0.67-0.04,1.05-0.08v5.2c-0.67,0.21-1.59,0.33-2.81,0.33c-1.38,0-2.56-0.25-3.44-0.76
		c-0.96-0.63-1.59-1.38-1.89-2.26c-1.38,2.06-3.69,3.06-7,3.06c-2.98,0-5.49-1.05-7.5-3.15c-1.97-2.14-2.98-4.74-2.98-7.84
		C74.25,20.4,75.26,17.8,77.23,15.7 M89.77,27.23c1.09-1.05,1.63-2.31,1.63-3.77c0-1.47-0.54-2.72-1.63-3.73
		c-1.05-1.05-2.35-1.55-3.9-1.55c-1.51,0-2.77,0.5-3.82,1.55c-1.05,1.01-1.55,2.26-1.55,3.73c0,1.47,0.5,2.72,1.55,3.77
		c1.05,1.01,2.31,1.51,3.82,1.51C87.42,28.74,88.72,28.24,89.77,27.23"/>
	<polygon class="st3" points="124.87,34.02 115.81,12.89 122.15,12.89 127.68,26.31 133.17,12.89 139.51,12.89 130.45,34.02 	"/>
	<path class="st3" d="M144.79,4c1.97,0,3.56,1.55,3.56,3.56c0,1.97-1.59,3.52-3.56,3.52c-1.97,0-3.56-1.55-3.56-3.52
		C141.23,5.55,142.82,4,144.79,4"/>
	<path class="st3" d="M146.35,30.32c1.12-0.57,2.23-1.06,3.33-1.52c-0.1,0.01-0.19,0.02-0.32,0.02c-1.05,0-1.43-0.67-1.43-2.22
		V12.89h-6.25v15.56c0,1.68,0.35,2.98,1,3.95C143.88,31.66,145.1,30.96,146.35,30.32"/>
	<path class="st3" d="M178.55,4c1.97,0,3.56,1.55,3.56,3.57c0,1.97-1.59,3.52-3.56,3.52c-1.97,0-3.56-1.55-3.56-3.52
		C174.99,5.55,176.58,4,178.55,4 M175.45,12.89h6.25V26.6c0,1.55,0.38,2.22,1.43,2.22c0.38,0,0.63-0.04,0.76-0.08v5.33
		c-0.54,0.21-1.51,0.33-2.89,0.33c-3.69,0-5.53-1.97-5.53-5.95V12.89z"/>
	<path class="st3" d="M186.73,34.02V12.89h6.25v2.89c0.96-2.14,3.23-3.36,6.12-3.36c0.42,0,0.96,0.04,1.63,0.13v5.87
		c-0.63-0.13-1.34-0.21-2.1-0.21c-3.56,0-5.66,2.01-5.66,5.49v10.31H186.73z"/>
	<path class="st3" d="M217.64,23.41c0-3.31,1.09-6,3.23-8.01c2.14-2.05,4.91-3.06,8.22-3.06c3.23,0,5.83,1.05,7.84,3.1
		c2.01,2.06,3.02,4.57,3.02,7.63c0,0.71-0.04,1.38-0.08,2.01h-15.98c0.13,2.52,2.31,4.15,5.62,4.15c1.97,0,3.69-0.67,5.16-2.06
		l3.65,3.48c-2.47,2.56-5.54,3.86-9.1,3.86c-3.48,0-6.25-1.01-8.39-2.98c-2.14-2.01-3.19-4.65-3.19-7.97V23.41z M233.65,21.02
		c0-1.97-2.06-3.52-4.57-3.52c-2.72,0-4.95,1.55-5.11,3.52H233.65z"/>
	<path class="st3" d="M243.05,34.02V12.89h6.25v2.64c0.88-1.84,3.23-3.1,6.08-3.1c5.07,0,8.01,3.27,8.01,8.76v5.33
		c0,1.63,0.34,2.22,1.38,2.22h0.42l0.25-0.04v5.28c-0.5,0.21-1.43,0.29-2.73,0.29c-3.73,0-5.58-2.01-5.58-6.04v-6.29
		c0-2.47-1.3-3.98-3.77-3.98c-2.35,0-4.07,1.72-4.07,4.19v11.87H243.05z"/>
	<path class="st3" d="M162.86,26.03c1.62,0.05,3.08,0.29,4.47,0.7l5.93-13.85h-6.33l-5.39,13.15
		C161.99,26.03,162.43,26.02,162.86,26.03"/>
	<path class="st3" d="M161.33,26.04l-5.43-13.15h-6.33l5.99,13.98C157.63,26.38,159.53,26.11,161.33,26.04"/>
	<path class="st4" d="M252.88,61.16c0.19-0.11,0.38-0.21,0.56-0.33c1.39-0.92,2.73-1.91,4.01-2.97c1.07-0.89,2.06-1.85,2.97-2.91
		c0.54-0.63,1.05-1.29,1.49-2c0.23-0.37,0.43-0.75,0.56-1.16c0.04-0.12,0.07-0.24,0.09-0.36c0.06-0.31-0.16-0.56-0.46-0.52
		c-0.09,0.01-0.18,0.03-0.27,0.05c-0.58,0.14-1.1,0.4-1.6,0.7c-0.93,0.55-1.77,1.23-2.59,1.93c-2.1,1.82-3.58,4.05-4.58,6.62
		c-0.1,0.26-0.17,0.53-0.24,0.79C252.79,61.04,252.84,61.1,252.88,61.16 M181.45,54.52c0.02-0.41-0.03-0.8-0.14-1.2
		c-0.27-1.01-0.95-1.4-1.77-1.52c-0.12-0.02-0.25-0.01-0.37-0.02c-0.72-0.03-1.41,0.1-2.1,0.3c-1.36,0.39-2.55,1.08-3.66,1.93
		c-1.11,0.85-2.08,1.84-2.95,2.93c-1.24,1.55-2.26,3.24-2.96,5.1c-0.29,0.75-0.49,1.53-0.6,2.32c-0.07,0.49-0.05,0.98,0.07,1.47
		c0.19,0.8,0.75,1.25,1.58,1.31c0.4,0.03,0.79-0.01,1.19-0.12c0.63-0.17,1.21-0.45,1.77-0.77c0.72-0.42,1.39-0.92,2.03-1.45
		c1.21-1.01,2.32-2.13,3.37-3.3c1.24-1.37,2.4-2.82,3.54-4.27c0.23-0.29,0.42-0.61,0.61-0.92c0.08-0.13,0.15-0.28,0.18-0.42
		C181.37,55.43,181.47,54.98,181.45,54.52 M296.6,27.47c-0.01-0.09-0.01-0.15-0.02-0.22c-0.01-0.06-0.03-0.12-0.05-0.18
		c-0.07-0.23-0.33-0.41-0.57-0.39c-0.4,0.04-0.78,0.17-1.14,0.35c-0.58,0.29-1.12,0.65-1.64,1.04c-1.18,0.9-2.29,1.87-3.33,2.93
		c-0.97,0.99-1.89,2.02-2.77,3.1c-3.15,3.85-5.85,8.01-8.14,12.43c-1.21,2.33-2.27,4.72-3.13,7.2c-0.15,0.44-0.29,0.88-0.43,1.32
		c-0.04,0.11-0.01,0.27,0.03,0.26c0.08-0.03,0.18-0.06,0.24-0.11c0.14-0.12,0.26-0.26,0.39-0.4c4.83-4.98,9.4-10.2,13.66-15.67
		c1.55-2,3.05-4.03,4.4-6.17c0.53-0.83,1.03-1.68,1.48-2.56c0.3-0.58,0.57-1.16,0.76-1.78C296.48,28.23,296.58,27.84,296.6,27.47
		 M289.77,61.93c-0.33,0.4-0.43,0.52-0.73,0.83c-1.68,1.73-3.42,3.38-5.35,4.84c-0.89,0.67-1.8,1.29-2.79,1.82
		c-0.57,0.31-1.16,0.57-1.77,0.79c-1.36,0.47-2.73,0.45-4.09,0.02c-1.38-0.43-2.44-1.3-3.17-2.54c-0.46-0.78-0.77-1.62-0.96-2.49
		c-0.08-0.36-0.16-0.72-0.24-1.1c-0.1,0.03-0.2,0.03-0.27,0.08c-0.19,0.15-0.37,0.33-0.55,0.5c-1.18,1.09-2.41,2.12-3.72,3.05
		c-1.11,0.79-2.25,1.52-3.48,2.11c-1,0.49-2.03,0.89-3.13,1.1c-1.22,0.22-2.44,0.34-3.68,0.18c-0.64-0.08-1.28-0.18-1.9-0.38
		c-1.98-0.62-3.47-1.84-4.49-3.63c-0.34-0.59-0.62-1.21-0.82-1.86c-0.04-0.12-0.1-0.22-0.26-0.28c-0.17,0.14-0.36,0.3-0.55,0.46
		c-0.81,0.71-1.65,1.39-2.52,2.03c-0.98,0.7-2,1.34-3.08,1.86c-1.29,0.62-2.63,1.03-4.06,1.22c-1.17,0.15-2.33,0.19-3.51,0.14
		c-1.24-0.05-2.45-0.3-3.61-0.74c-0.75-0.29-1.46-0.67-2.11-1.15c-1.17-0.86-2.04-1.97-2.6-3.31c-0.11-0.26-0.2-0.52-0.3-0.78
		c-0.04-0.11-0.22-0.15-0.31-0.07c-0.14,0.12-0.27,0.25-0.41,0.37c-0.77,0.67-1.53,1.35-2.31,2c-0.95,0.79-1.96,1.5-3.03,2.11
		c-0.94,0.54-1.91,1.01-2.97,1.26c-3.49,0.82-6.48-1.33-7.23-4.3c-0.14-0.55-0.15-1.1-0.2-1.65c-0.01-0.04-0.07-0.08-0.12-0.11
		c-0.02-0.01-0.06,0.01-0.08,0.02c-0.07,0.06-0.14,0.12-0.2,0.18c-0.23,0.25-0.45,0.51-0.68,0.76c-0.67,0.73-1.37,1.42-2.13,2.06
		c-0.9,0.76-1.86,1.43-2.93,1.92c-0.65,0.29-1.32,0.49-2.05,0.54c-1.4,0.08-2.45-0.49-3.14-1.7c-0.33-0.57-0.53-1.18-0.65-1.82
		c-0.09-0.49-0.15-0.98-0.22-1.46c-0.01-0.08-0.15-0.12-0.22-0.06c-0.17,0.14-0.33,0.27-0.49,0.41c-1.11,0.98-2.26,1.91-3.48,2.76
		c-1.14,0.8-2.32,1.51-3.59,2.09c-0.87,0.4-1.77,0.72-2.71,0.92c-1.25,0.26-2.51,0.28-3.76-0.05c-2.8-0.75-4.08-3.02-4.25-5.03
		c-0.02-0.25-0.05-0.49-0.09-0.73c-0.01-0.04-0.08-0.08-0.12-0.11c-0.02-0.01-0.07,0.01-0.09,0.03c-0.2,0.19-0.4,0.39-0.59,0.59
		c-0.9,0.97-1.83,1.92-2.84,2.79c-0.58,0.5-1.19,0.97-1.81,1.44c-0.52,0.39-1.09,0.7-1.68,0.97c-1.52,0.7-3.1,0.77-4.71,0.38
		c-0.57-0.14-1.09-0.42-1.56-0.78c-0.6-0.45-1.09-1.01-1.47-1.65c-0.52-0.89-0.84-1.85-0.96-2.87c-0.19-1.59,0-3.14,0.48-4.66
		c0.35-1.09,0.8-2.14,1.37-3.13c1.94-3.39,4.57-6.12,7.95-8.09c1.42-0.82,2.92-1.47,4.52-1.85c0.48-0.11,0.97-0.22,1.46-0.25
		c2.14-0.13,3.85,0.68,5.12,2.41c0.18,0.25,0.33,0.51,0.51,0.79c0.1-0.05,0.19-0.07,0.25-0.13c0.23-0.25,0.89-1.04,1.17-1.43
		l3.68,2.04c-0.1,0.23-0.26,0.6-0.34,0.74c-0.1,0.19-0.21,0.38-0.34,0.55c-0.28,0.37-0.58,0.73-0.88,1.08
		c-0.84,0.99-1.68,1.97-2.53,2.96c-0.3,0.35-0.56,0.73-0.78,1.15c-0.59,1.12-1.14,2.26-1.55,3.46c-0.27,0.79-0.48,1.59-0.55,2.43
		c-0.03,0.4-0.01,0.8,0.06,1.2c0.15,0.91,0.8,1.53,1.74,1.66c0.68,0.09,1.36,0.04,2.02-0.1c0.97-0.21,1.89-0.55,2.8-0.95
		c1.49-0.67,2.93-1.46,4.28-2.38c1.53-1.05,2.95-2.23,4.31-3.49c0.18-0.17,0.35-0.33,0.44-0.58c1.11-3.3,3-6.14,5.28-8.73
		c0.63-0.72,1.31-1.4,1.96-2.1c0.27-0.29,0.6-0.41,0.99-0.41c0.47,0,0.92,0.1,1.34,0.32c0.19,0.1,0.37,0.22,0.53,0.37
		c0.47,0.44,0.58,1.04,0.27,1.6c-0.15,0.27-0.33,0.52-0.52,0.76c-0.62,0.81-1.25,1.61-1.86,2.42c-0.91,1.21-1.76,2.45-2.53,3.76
		c-0.41,0.69-0.78,1.4-1.11,2.13c-0.59,1.3-0.95,2.67-1.14,4.08c-0.07,0.49-0.07,0.99,0.08,1.47c0.04,0.12,0.08,0.24,0.14,0.34
		c0.14,0.22,0.34,0.37,0.61,0.35c0.18-0.01,0.37-0.04,0.54-0.09c0.42-0.13,0.79-0.34,1.15-0.58c0.68-0.44,1.29-0.95,1.88-1.5
		c0.84-0.77,1.63-1.6,2.38-2.46c2.18-2.49,4.12-5.16,5.91-7.93c0.82-1.27,1.59-2.57,2.38-3.86c0.1-0.16,0.18-0.32,0.27-0.48
		c0.21-0.38,0.55-0.58,0.96-0.64c0.66-0.1,1.29-0.01,1.88,0.33c0.16,0.09,0.31,0.21,0.43,0.35c0.3,0.35,0.42,0.76,0.23,1.2
		c-0.11,0.25-0.26,0.49-0.4,0.73c-0.78,1.29-1.58,2.58-2.34,3.88c-0.87,1.49-1.68,3.01-2.41,4.58c-0.49,1.06-0.96,2.14-1.24,3.28
		c-0.1,0.42-0.19,0.84-0.25,1.27c-0.08,0.56-0.05,1.11,0.12,1.65c0.24,0.79,0.78,1.24,1.57,1.39c0.68,0.13,1.35,0.08,2.01-0.1
		c0.6-0.17,1.17-0.4,1.7-0.72c0.5-0.31,0.99-0.63,1.45-0.99c0.59-0.45,1.17-0.91,1.72-1.4c1.1-0.99,2.18-2.01,3.27-3.01
		c0.21-0.19,0.37-0.41,0.42-0.7c0.04-0.24,0.11-0.48,0.17-0.72c0.24-0.83,0.56-1.63,0.97-2.4c0.38-0.71,0.8-1.39,1.29-2.03
		c1.63-2.16,3.59-3.98,5.86-5.46c1.38-0.89,2.86-1.57,4.46-1.99c1.27-0.33,2.55-0.44,3.85-0.28c0.9,0.11,1.74,0.39,2.49,0.92
		c0.76,0.54,1.25,1.26,1.45,2.18c0.11,0.49,0.11,0.98,0,1.47c-0.12,0.55-0.32,1.06-0.59,1.55c-0.75,1.34-1.77,2.44-2.95,3.41
		c-0.3,0.26-0.34,0.3-0.54,0.47c-0.78-0.83-1.14-1.25-2.13-2.43c0.46-0.51,0.39-0.41,0.73-0.82c0.16-0.19,0.34-0.36,0.51-0.54
		c0.36-0.39,0.63-0.84,0.74-1.37c0.04-0.21,0.06-0.44,0.02-0.64c-0.17-0.93-0.94-1.22-1.63-1.17c-0.34,0.03-0.67,0.1-0.98,0.26
		c-0.38,0.19-0.78,0.37-1.15,0.59c-2.38,1.43-4.42,3.24-6.12,5.44c-0.99,1.28-1.73,2.7-2.16,4.27c-0.2,0.72-0.32,1.44-0.29,2.19
		c0.02,0.5,0.11,0.98,0.27,1.45c0.39,1.11,1.14,1.89,2.2,2.38c0.83,0.38,1.71,0.53,2.61,0.55c0.78,0.02,1.54-0.1,2.29-0.25
		c1.46-0.3,2.83-0.84,4.17-1.5c1.16-0.58,2.27-1.25,3.33-1.99c1.19-0.83,2.33-1.73,3.42-2.69c0.27-0.23,0.45-0.49,0.54-0.83
		c0.62-2.35,1.83-4.38,3.42-6.18c1.56-1.76,3.34-3.29,5.33-4.56c1.15-0.73,2.36-1.34,3.68-1.7c0.75-0.2,1.51-0.33,2.28-0.28
		c0.5,0.03,0.98,0.15,1.43,0.36c0.97,0.46,1.52,1.24,1.67,2.29c0.1,0.67,0.05,1.35-0.11,2.02c-0.17,0.69-0.42,1.35-0.74,1.99
		c-0.76,1.5-1.7,2.86-2.92,4.03c-1.52,1.45-3.11,2.81-4.75,4.13c-1.11,0.89-2.23,1.76-3.4,2.57c-0.53,0.37-1.08,0.71-1.62,1.07
		c-0.19,0.12-0.21,0.28-0.11,0.48c0.53,0.97,1.38,1.47,2.45,1.62c0.83,0.11,1.66,0.08,2.49-0.1c0.57-0.13,1.14-0.26,1.7-0.45
		c2.42-0.8,4.67-1.91,6.67-3.51c1.47-1.18,2.86-2.45,4.21-3.76c0.21-0.2,0.34-0.42,0.37-0.72c0.22-2.5,0.82-4.92,1.59-7.31
		c1.02-3.18,2.38-6.22,4.02-9.13c3-5.33,6.7-10.13,11.1-14.38c0.93-0.9,1.91-1.76,2.93-2.55c1.12-0.87,2.31-1.65,3.6-2.24
		c0.67-0.31,1.37-0.56,2.09-0.73c0.7-0.16,1.4-0.18,2.11-0.11c0.37,0.03,0.72,0.17,1.04,0.35c0.45,0.25,0.77,0.61,0.96,1.09
		c0.06,0.14,0.13,0.27,0.2,0.41v3.15c-0.05,0.07-0.14,0.14-0.15,0.22c-0.06,0.56-0.27,1.07-0.48,1.59
		c-0.43,1.06-0.95,2.07-1.52,3.06c-1.07,1.88-2.29,3.66-3.58,5.4c-1.96,2.66-4.06,5.21-6.23,7.7c-3.38,3.89-6.91,7.64-10.54,11.3
		c-0.96,0.96-1.92,1.92-2.88,2.88c-0.15,0.15-0.31,0.3-0.46,0.46c-0.13,0.13-0.22,0.29-0.23,0.49c-0.1,1.29-0.13,2.59,0.16,3.87
		c0.08,0.36,0.21,0.71,0.36,1.05c0.33,0.74,0.94,1.12,1.73,1.23c0.43,0.06,0.86,0.04,1.29-0.07c0.54-0.13,1.06-0.33,1.56-0.57
		c0.75-0.37,1.45-0.81,2.13-1.29c1.32-0.92,2.55-1.95,3.74-3.03c0.82-0.74,1.63-1.51,2.45-2.26c0.16-0.15,0.31-0.3,0.48-0.43
		L289.77,61.93z"/>
	<path class="st4" d="M137.56,84.96c-5.38-0.76-9.38-3.54-11.97-8.31c-0.93-1.72-1.51-3.57-1.88-5.49c-0.37-1.92-0.47-3.86-0.35-5.8
		c0.12-1.94,0.47-3.85,1.01-5.73c0.85-2.95,2.11-5.72,3.67-8.36c1.36-2.29,2.92-4.42,4.66-6.44c4.24-4.92,9.23-8.89,15.02-11.83
		c2.64-1.35,5.39-2.43,8.28-3.15c2.22-0.55,4.47-0.89,6.77-0.82c1.42,0.05,2.82,0.26,4.18,0.72c0.56,0.19,1.09,0.42,1.61,0.7
		c2.19,1.21,3.51,3.05,4.03,5.48c0.27,1.25,0.28,2.5,0.05,3.76c-0.12,0.64-0.24,1.28-0.44,1.89c-0.12,0.35-0.27,0.69-0.42,1.02
		c-0.06,0.14-0.19,0.24-0.36,0.26c-0.03,0-0.06,0.01-0.09,0.01c-1.14,0.06-2.28,0.12-3.42,0.18c-0.12,0.01-0.25,0-0.37,0
		c-0.08,0-0.18-0.12-0.15-0.19c0.07-0.2,0.14-0.41,0.23-0.6c0.35-0.79,0.63-1.61,0.8-2.46c0.2-0.98,0.27-1.95,0.11-2.94
		c-0.26-1.59-1.08-2.8-2.51-3.58c-0.74-0.4-1.54-0.63-2.37-0.74c-1.42-0.18-2.83-0.12-4.24,0.08c-2.68,0.38-5.2,1.26-7.63,2.44
		c-2.62,1.27-5.04,2.85-7.32,4.66c-5.02,4-9.2,8.74-12.49,14.26c-1.35,2.26-2.48,4.61-3.31,7.11c-0.46,1.38-0.79,2.79-0.99,4.22
		c-0.02,0.12-0.03,0.24-0.04,0.37c-0.2,2.81,0.15,5.54,1.11,8.19c0.37,1.02,0.86,1.98,1.48,2.87c1.26,1.83,2.93,3.16,5,3.95
		c1.96,0.75,3.98,1.02,6.08,0.78c1.85-0.21,3.63-0.7,5.34-1.42c3.39-1.43,6.41-3.43,8.93-6.13c0.13-0.14,0.41-0.45,0.61-0.64
		l2.98,1.22c-0.09,0.19-0.21,0.38-0.34,0.55c-0.21,0.27-0.43,0.53-0.65,0.78c-2.22,2.56-4.76,4.74-7.73,6.4
		c-1.97,1.11-4.06,1.93-6.27,2.42c-0.88,0.2-1.76,0.29-2.65,0.42C141.52,85.08,139.83,85.23,137.56,84.96"/>
</g>
</svg>
