<?xml version="1.0" encoding="utf-8"?>
<!-- Generator: Adobe Illustrator 24.0.2, SVG Export Plug-In . SVG Version: 6.00 Build 0)  -->
<svg version="1.1" id="Capa_1" xmlns="http://www.w3.org/2000/svg" xmlns:xlink="http://www.w3.org/1999/xlink" x="0px" y="0px"
	 viewBox="0 0 775.06 286.03" style="enable-background:new 0 0 775.06 286.03;" xml:space="preserve">
<style type="text/css">
	.st0{fill:#EE7768;}
	.st1{fill:#103E68;}
	.st2{fill:#E3D6C7;}
	.st3{fill:#103E68;stroke:#103E68;stroke-width:0.5;stroke-miterlimit:10;}
	.st4{fill:#63ACD4;}
	.st5{fill:#FFFFFF;}
	.st6{fill:#FFFFFF;stroke:#FFFFFF;stroke-miterlimit:10;}
	.st7{fill:#009D73;}
	.st8{fill:#F0454E;}
	.st9{fill:#FFB340;}
	.st10{fill:#007BD0;}
	.st11{fill:#EC7A96;}
	.st12{fill:#83AD60;}
	.st13{fill:#B854A8;}
	.st14{clip-path:url(#SVGID_2_);}
	.st15{clip-path:url(#SVGID_2_);fill-rule:evenodd;clip-rule:evenodd;fill:#EE7768;}
	.st16{fill:#EF7869;}
	.st17{fill:#257FAA;}
	.st18{opacity:0.4;}
	.st19{fill:none;}
	.st20{clip-path:url(#SVGID_2_);fill:#103E68;}
	.st21{clip-path:url(#SVGID_2_);fill:none;stroke:#103E68;stroke-miterlimit:10;}
	.st22{clip-path:url(#SVGID_2_);fill:#EE7768;}
	.st23{clip-path:url(#SVGID_2_);fill:#FFFFFF;stroke:#103E68;stroke-width:2;stroke-miterlimit:10;}
	.st24{clip-path:url(#SVGID_2_);fill:none;stroke:#EF7869;stroke-width:0.25;stroke-miterlimit:10;}
	.st25{clip-path:url(#SVGID_6_);}
	.st26{clip-path:url(#SVGID_6_);fill:none;stroke:#103E68;stroke-width:6;stroke-miterlimit:10;}
	.st27{fill:#266834;}
	.st28{clip-path:url(#SVGID_6_);fill:none;stroke:#C0BFBD;stroke-width:9;stroke-miterlimit:10;}
	.st29{clip-path:url(#SVGID_2_);fill:#FFFFFF;stroke:#EF7869;stroke-width:2;stroke-miterlimit:10;}
	.st30{clip-path:url(#SVGID_2_);fill:#FFFFFF;stroke:#103E68;stroke-miterlimit:10;}
	.st31{clip-path:url(#SVGID_2_);fill:none;stroke:#EF7869;stroke-width:6;stroke-miterlimit:10;}
	.st32{clip-path:url(#SVGID_2_);fill:#007BD0;}
	.st33{fill:#E1D7C6;}
</style>
<rect x="-844.88" y="-45.64" class="st0" width="792" height="379.17"/>
<rect x="-635.24" y="-256.94" class="st1" width="456" height="174.19"/>
<g>
	<g>
		<circle class="st2" cx="-1611.26" cy="-211.33" r="30.46"/>
		<g>
			<g>
				<path class="st0" d="M-1645.69-216.73c1.72-15.83,10.09-23.15,16.82-26.51c7.22-3.6,14.05-3.42,14.33-3.41l-0.23,7.4
					c-0.86-0.02-21-0.25-23.55,23.31L-1645.69-216.73z"/>
			</g>
			<g>
				<path class="st0" d="M-1578.24-207.56c-1.72,15.83-10.09,23.15-16.82,26.51c-7.22,3.6-14.05,3.42-14.33,3.41l0.23-7.4
					c0.86,0.02,21,0.25,23.55-23.31L-1578.24-207.56z"/>
			</g>
			<path class="st1" d="M-1611.96-229.18c-6.98,0-12.67,5.72-12.67,12.76c0,10,11.47,20.32,11.96,20.75c0.2,0.18,0.45,0.27,0.7,0.27
				s0.5-0.09,0.7-0.27c0.49-0.43,11.96-10.76,11.96-20.75C-1599.3-223.46-1604.98-229.18-1611.96-229.18L-1611.96-229.18z
				 M-1611.96-209.48c-3.88,0-7.04-3.16-7.04-7.04c0-3.88,3.16-7.04,7.04-7.04c3.88,0,7.04,3.16,7.04,7.04
				C-1604.93-212.63-1608.08-209.48-1611.96-209.48z"/>
		</g>
	</g>
	
		<text transform="matrix(1 0 0 1 -1643.0256 -137.1852)" style="fill:#0F3E67; font-family:'HurmeGeometricSans4-Bold'; font-size:18.6115px;">Caucel</text>
</g>
<g>
	<g>
		<circle class="st2" cx="-1474.28" cy="-211.33" r="30.46"/>
		<g>
			<g>
				<path class="st0" d="M-1508.54-216.73c1.72-15.83,10.09-23.15,16.82-26.51c7.22-3.6,14.05-3.42,14.33-3.41l-0.23,7.4
					c-0.86-0.02-21-0.25-23.55,23.31L-1508.54-216.73z"/>
			</g>
			<g>
				<path class="st0" d="M-1441.09-207.56c-1.72,15.83-10.09,23.15-16.82,26.51c-7.22,3.6-14.05,3.42-14.33,3.41l0.23-7.4
					c0.86,0.02,21,0.25,23.55-23.31L-1441.09-207.56z"/>
			</g>
			<g>
				<g>
					<rect x="-1492.31" y="-203.33" class="st1" width="32.59" height="1.72"/>
					<path class="st1" d="M-1459.07-200.96h-33.88v-3.01h33.88V-200.96z M-1491.66-202.25h31.3v-0.43h-31.3V-202.25z"/>
				</g>
				<g>
					<polygon class="st1" points="-1459.72,-197.72 -1459.72,-207.22 -1454.97,-202.47 					"/>
					<path class="st1" d="M-1460.36-196.16v-12.61l6.31,6.31L-1460.36-196.16z M-1459.07-205.66v6.38l3.19-3.19L-1459.07-205.66z"/>
				</g>
			</g>
			<g>
				<g>
					
						<rect x="-1500.9" y="-211.58" transform="matrix(6.123234e-17 -1 1 6.123234e-17 -1273.8887 -1695.3219)" class="st1" width="32.59" height="1.72"/>
					<path class="st1" d="M-1483.1-193.78h-3.01v-33.88h3.01V-193.78z M-1484.82-195.07h0.43v-31.3h-0.43V-195.07z"/>
				</g>
				<g>
					<polygon class="st1" points="-1479.86,-227.01 -1489.35,-227.01 -1484.61,-231.76 					"/>
					<path class="st1" d="M-1478.3-226.37h-12.61l6.31-6.31L-1478.3-226.37z M-1487.79-227.66h6.38l-3.19-3.19L-1487.79-227.66z"/>
				</g>
			</g>
		</g>
	</g>
	<g>
		<text transform="matrix(1 0 0 1 -1487.1414 -137.1852)"><tspan x="0" y="0" style="fill:#0F3E67; font-family:'HurmeGeometricSans4-Bold'; font-size:18.6115px;">6</tspan><tspan x="10.22" y="0" style="fill:#0F3E67; font-family:'HurmeGeometricSans4-Bold'; font-size:18.6115px;">.</tspan><tspan x="13.88" y="0" style="fill:#0F3E67; font-family:'HurmeGeometricSans4-Bold'; font-size:18.6115px;">8</tspan></text>
		<text transform="matrix(1 0 0 1 -1512.4487 -121.9572)"><tspan x="0" y="0" style="fill:#0F3E67; font-family:'HurmeGeometricSans4-Regular'; font-size:16.9195px;">h</tspan><tspan x="9.17" y="0" style="fill:#0F3E67; font-family:'HurmeGeometricSans4-Regular'; font-size:16.9195px;">ec</tspan><tspan x="27.24" y="0" style="fill:#0F3E67; font-family:'HurmeGeometricSans4-Regular'; font-size:16.9195px;">t</tspan><tspan x="32.3" y="0" style="fill:#0F3E67; font-family:'HurmeGeometricSans4-Regular'; font-size:16.9195px;">á</tspan><tspan x="42.94" y="0" style="fill:#0F3E67; font-family:'HurmeGeometricSans4-Regular'; font-size:16.9195px;">r</tspan><tspan x="48.3" y="0" style="fill:#0F3E67; font-family:'HurmeGeometricSans4-Regular'; font-size:16.9195px;">eas</tspan></text>
	</g>
</g>
<g>
	<g>
		<circle class="st2" cx="-1335.08" cy="-211.33" r="30.46"/>
		<g>
			<g>
				<path class="st1" d="M-1318.77-215.32l-3.31-3.02v-10c0-0.64-0.52-1.15-1.15-1.15h-7.97c-0.64,0-1.15,0.52-1.15,1.15v0.64
					l-4-3.64c-0.77-0.7-1.93-0.7-2.71,0l-17.58,16.02c-0.62,0.56-0.82,1.43-0.52,2.21c0.3,0.78,1.04,1.28,1.87,1.28h2.81v16.05
					c0,0.64,0.52,1.15,1.15,1.15h9.63c0.64,0,1.15-0.52,1.15-1.15v-9.74h5.66v9.74c0,0.64,0.52,1.15,1.15,1.15h9.63
					c0.64,0,1.15-0.52,1.15-1.15v-16.05h2.81c0.84,0,1.57-0.5,1.87-1.28C-1317.95-213.89-1318.15-214.75-1318.77-215.32z
					 M-1324.09-214.13c-0.64,0-1.15,0.52-1.15,1.15v16.05h-7.33v-9.74c0-0.64-0.52-1.15-1.15-1.15h-7.97
					c-0.64,0-1.15,0.52-1.15,1.15v9.74h-7.33v-16.05c0-0.64-0.52-1.15-1.15-1.15h-3.2l16.81-15.32l5.73,5.22
					c0.34,0.31,0.82,0.39,1.24,0.2c0.42-0.18,0.69-0.6,0.69-1.05v-2.1h5.66v9.36c0,0.32,0.14,0.63,0.38,0.85l3.12,2.84H-1324.09
					L-1324.09-214.13z"/>
			</g>
		</g>
		<g>
			<path class="st0" d="M-1371.39-216.73c1.72-15.83,10.09-23.15,16.82-26.51c7.22-3.6,14.05-3.42,14.33-3.41l-0.23,7.4
				c-0.86-0.02-21-0.25-23.56,23.31L-1371.39-216.73z"/>
		</g>
		<g>
			<path class="st0" d="M-1303.93-207.56c-1.72,15.83-10.09,23.15-16.82,26.51c-7.22,3.6-14.05,3.42-14.33,3.41l0.23-7.4
				c0.86,0.02,21,0.25,23.56-23.31L-1303.93-207.56z"/>
		</g>
	</g>
	<g>
		<text transform="matrix(1 0 0 1 -1352.074 -137.1852)"><tspan x="0" y="0" style="fill:#0F3E67; font-family:'HurmeGeometricSans4-Bold'; font-size:18.6115px;">4</tspan><tspan x="11.35" y="0" style="fill:#0F3E67; font-family:'HurmeGeometricSans4-Bold'; font-size:18.6115px;">4</tspan><tspan x="22.15" y="0" style="fill:#0F3E67; font-family:'HurmeGeometricSans4-Bold'; font-size:18.6115px;">1</tspan></text>
		<text transform="matrix(1 0 0 1 -1372.9275 -121.9572)"><tspan x="0" y="0" style="fill:#0F3E67; font-family:'HurmeGeometricSans4-Regular'; font-size:16.9195px;">v</tspan><tspan x="8.66" y="0" style="fill:#0F3E67; font-family:'HurmeGeometricSans4-Regular'; font-size:16.9195px;">i</tspan><tspan x="11.76" y="0" style="fill:#0F3E67; font-family:'HurmeGeometricSans4-Regular'; font-size:16.9195px;">v</tspan><tspan x="20.42" y="0" style="fill:#0F3E67; font-family:'HurmeGeometricSans4-Regular'; font-size:16.9195px;">i</tspan><tspan x="23.94" y="0" style="fill:#0F3E67; font-family:'HurmeGeometricSans4-Regular'; font-size:16.9195px;">e</tspan><tspan x="33.26" y="0" style="fill:#0F3E67; font-family:'HurmeGeometricSans4-Regular'; font-size:16.9195px;">n</tspan><tspan x="42.48" y="0" style="fill:#0F3E67; font-family:'HurmeGeometricSans4-Regular'; font-size:16.9195px;">d</tspan><tspan x="52.89" y="0" style="fill:#0F3E67; font-family:'HurmeGeometricSans4-Regular'; font-size:16.9195px;">as</tspan></text>
	</g>
</g>
<g>
	<g>
		<circle class="st2" cx="-1063.38" cy="-211.33" r="30.46"/>
		<g>
			<path class="st0" d="M-1097.08-216.73c1.72-15.83,10.09-23.15,16.82-26.51c7.22-3.6,14.05-3.42,14.33-3.41l-0.23,7.4
				c-0.86-0.02-21-0.25-23.55,23.31L-1097.08-216.73z"/>
		</g>
		<g>
			<path class="st0" d="M-1029.63-207.56c-1.72,15.83-10.09,23.15-16.82,26.51c-7.22,3.6-14.05,3.42-14.33,3.41l0.23-7.4
				c0.86,0.02,21,0.25,23.55-23.31L-1029.63-207.56z"/>
		</g>
		<g>
			<g>
				<path class="st3" d="M-1047.11-228.8h-9.76c-0.34,0-0.61,0.27-0.61,0.61s0.27,0.61,0.61,0.61h2.69v5.29H-1066v-5.29h7.1
					c0.34,0,0.61-0.27,0.61-0.61s-0.27-0.61-0.61-0.61h-20.76c-0.34,0-0.61,0.27-0.61,0.61v6.51v6.51v6.51v6.51v6.51
					c0,0.34,0.27,0.61,0.61,0.61h32.55c0.34,0,0.61-0.27,0.61-0.61v-32.55C-1046.5-228.52-1046.77-228.8-1047.11-228.8z
					 M-1059.54-221.07h11.82v5.29h-7.92c-0.34,0-0.61,0.27-0.61,0.61c0,0.34,0.27,0.61,0.61,0.61h1.46v5.29H-1066v-5.29h8.32
					c0.34,0,0.61-0.27,0.61-0.61c0-0.34-0.27-0.61-0.61-0.61h-1.86V-221.07z M-1047.72-208.04v5.29h-11.82v-5.29H-1047.72z
					 M-1060.77-221.07v5.29h-11.82v-5.29H-1060.77z M-1079.05-227.58h11.82v5.29h-11.82V-227.58z M-1079.05-221.07h5.24v5.29h-5.24
					V-221.07z M-1079.05-214.56h11.82v5.29h-11.82V-214.56z M-1079.05-208.04h5.24v5.29h-5.24V-208.04z M-1067.22-196.25h-11.82
					v-5.29h8.82c0.34,0,0.61-0.27,0.61-0.61c0-0.34-0.27-0.61-0.61-0.61h-2.36v-5.29h11.82v5.29h-7.43c-0.34,0-0.61,0.27-0.61,0.61
					c0,0.34,0.27,0.61,0.61,0.61h0.97V-196.25L-1067.22-196.25z M-1054.18-196.25H-1066v-5.29h11.82V-196.25z M-1047.72-196.25
					h-5.24v-5.29h5.24V-196.25z M-1047.72-209.27h-5.24v-5.29h5.24V-209.27z M-1047.72-222.29h-5.24v-5.29h5.24V-222.29z"/>
			</g>
		</g>
	</g>
	<g>
		<text transform="matrix(1 0 0 1 -1090.9653 -137.1852)"><tspan x="0" y="0" style="fill:#0F3E67; font-family:'HurmeGeometricSans4-Bold'; font-size:18.6115px;">Ba</tspan><tspan x="23.88" y="0" style="fill:#0F3E67; font-family:'HurmeGeometricSans4-Bold'; font-size:18.6115px;">r</tspan><tspan x="31.04" y="0" style="fill:#0F3E67; font-family:'HurmeGeometricSans4-Bold'; font-size:18.6115px;">d</tspan><tspan x="43.03" y="0" style="fill:#0F3E67; font-family:'HurmeGeometricSans4-Bold'; font-size:18.6115px;">a</tspan></text>
		<text transform="matrix(1 0 0 1 -1101.856 -121.9572)"><tspan x="0" y="0" style="fill:#0F3E67; font-family:'HurmeGeometricSans4-Regular'; font-size:16.9195px;">P</tspan><tspan x="9.2" y="0" style="fill:#0F3E67; font-family:'HurmeGeometricSans4-Regular'; font-size:16.9195px;">eri</tspan><tspan x="28.22" y="0" style="fill:#0F3E67; font-family:'HurmeGeometricSans4-Regular'; font-size:16.9195px;">m</tspan><tspan x="42.06" y="0" style="fill:#0F3E67; font-family:'HurmeGeometricSans4-Regular'; font-size:16.9195px;">et</tspan><tspan x="56.6" y="0" style="fill:#0F3E67; font-family:'HurmeGeometricSans4-Regular'; font-size:16.9195px;">r</tspan><tspan x="61.96" y="0" style="fill:#0F3E67; font-family:'HurmeGeometricSans4-Regular'; font-size:16.9195px;">al</tspan></text>
	</g>
</g>
<g>
	<g>
		<circle class="st2" cx="-926.23" cy="-211.33" r="30.46"/>
		<g>
			<path class="st0" d="M-959.93-216.73c1.72-15.83,10.09-23.15,16.82-26.51c7.22-3.6,14.05-3.42,14.33-3.41l-0.23,7.4
				c-0.86-0.02-21-0.25-23.55,23.31L-959.93-216.73z"/>
		</g>
		<g>
			<path class="st0" d="M-892.48-207.56c-1.72,15.83-10.09,23.15-16.82,26.51c-7.22,3.6-14.05,3.42-14.33,3.41l0.23-7.4
				c0.86,0.02,21,0.25,23.55-23.31L-892.48-207.56z"/>
		</g>
		<g>
			<g>
				<path class="st3" d="M-909.96-228.8h-9.76c-0.34,0-0.61,0.27-0.61,0.61s0.27,0.61,0.61,0.61h2.69v5.29h-11.82v-5.29h7.1
					c0.34,0,0.61-0.27,0.61-0.61s-0.27-0.61-0.61-0.61h-20.76c-0.34,0-0.61,0.27-0.61,0.61v6.51v6.51v6.51v6.51v6.51
					c0,0.34,0.27,0.61,0.61,0.61h32.55c0.34,0,0.61-0.27,0.61-0.61v-32.55C-909.35-228.52-909.62-228.8-909.96-228.8z
					 M-922.39-221.07h11.82v5.29h-7.92c-0.34,0-0.61,0.27-0.61,0.61c0,0.34,0.27,0.61,0.61,0.61h1.46v5.29h-11.82v-5.29h8.32
					c0.34,0,0.61-0.27,0.61-0.61c0-0.34-0.27-0.61-0.61-0.61h-1.86V-221.07z M-910.57-208.04v5.29h-11.82v-5.29H-910.57z
					 M-923.61-221.07v5.29h-11.82v-5.29H-923.61z M-941.9-227.58h11.82v5.29h-11.82V-227.58z M-941.9-221.07h5.24v5.29h-5.24
					V-221.07z M-941.9-214.56h11.82v5.29h-11.82V-214.56z M-941.9-208.04h5.24v5.29h-5.24V-208.04z M-930.07-196.25h-11.82v-5.29
					h8.82c0.34,0,0.61-0.27,0.61-0.61c0-0.34-0.27-0.61-0.61-0.61h-2.36v-5.29h11.82v5.29h-7.43c-0.34,0-0.61,0.27-0.61,0.61
					c0,0.34,0.27,0.61,0.61,0.61h0.97V-196.25L-930.07-196.25z M-917.03-196.25h-11.82v-5.29h11.82V-196.25z M-910.57-196.25h-5.24
					v-5.29h5.24V-196.25z M-910.57-209.27h-5.24v-5.29h5.24V-209.27z M-910.57-222.29h-5.24v-5.29h5.24V-222.29z"/>
			</g>
		</g>
	</g>
	<g>
		<text transform="matrix(1 0 0 1 -970.0984 -153.6039)"><tspan x="0" y="0" style="fill:#0F3E67; font-family:'HurmeGeometricSans4-Bold'; font-size:18.6115px;">Todos los</tspan><tspan x="4.84" y="15" style="fill:#0F3E67; font-family:'HurmeGeometricSans4-Bold'; font-size:18.6115px;">servicios</tspan></text>
		
			<text transform="matrix(1 0 0 1 -973.7217 -121.9571)" style="fill:#0F3E67; font-family:'HurmeGeometricSans4-Regular'; font-size:16.9195px;">a tu alcance</text>
	</g>
</g>
<g>
	<g>
		<text transform="matrix(1 0 0 1 -1232.1934 -137.1852)"><tspan x="0" y="0" style="fill:#0F3E67; font-family:'HurmeGeometricSans4-Bold'; font-size:18.6115px;">C</tspan><tspan x="12.77" y="0" style="fill:#0F3E67; font-family:'HurmeGeometricSans4-Bold'; font-size:18.6115px;">aseta</tspan></text>
		<text transform="matrix(1 0 0 1 -1248.8965 -121.9572)"><tspan x="0" y="0" style="fill:#0F3E67; font-family:'HurmeGeometricSans4-Regular'; font-size:16.9195px;">d</tspan><tspan x="10.47" y="0" style="fill:#0F3E67; font-family:'HurmeGeometricSans4-Regular'; font-size:16.9195px;">e</tspan><tspan x="19.8" y="0" style="fill:#0F3E67; font-family:'HurmeGeometricSans4-Regular'; font-size:16.9195px;"> </tspan><tspan x="26.61" y="0" style="fill:#0F3E67; font-family:'HurmeGeometricSans4-Regular'; font-size:16.9195px;">vigilancia</tspan></text>
	</g>
	<g>
		<circle class="st2" cx="-1200.24" cy="-211.33" r="30.46"/>
		<g>
			<path class="st0" d="M-1234.23-216.73c1.72-15.83,10.09-23.15,16.82-26.51c7.22-3.6,14.05-3.42,14.33-3.41l-0.23,7.4
				c-0.86-0.02-21-0.25-23.56,23.31L-1234.23-216.73z"/>
		</g>
		<g>
			<path class="st0" d="M-1166.78-207.56c-1.72,15.83-10.09,23.15-16.82,26.51c-7.22,3.6-14.05,3.42-14.33,3.41l0.23-7.4
				c0.86,0.02,21,0.25,23.56-23.31L-1166.78-207.56z"/>
		</g>
		<g>
			<path class="st1" d="M-1185.27-223.37l-13.98-5.81c-0.35-0.15-0.74-0.15-1.09,0l-13.98,5.81c-0.53,0.22-0.88,0.74-0.88,1.32v7.06
				c0,9.72,5.87,18.46,14.87,22.13c0.35,0.14,0.73,0.14,1.08,0c9-3.67,14.87-12.41,14.87-22.13v-7.06
				C-1184.39-222.62-1184.73-223.14-1185.27-223.37z M-1187.24-214.99c0,8.26-4.85,15.87-12.56,19.26
				c-7.5-3.3-12.56-10.78-12.56-19.26v-6.1l12.56-5.21l12.56,5.21V-214.99z M-1201.37-210.18l6.13-6.13c0.56-0.56,1.46-0.56,2.02,0
				s0.56,1.46,0,2.02l-7.14,7.14c-0.56,0.56-1.46,0.56-2.02,0l-3.99-3.99c-0.56-0.56-0.56-1.46,0-2.02s1.46-0.56,2.02,0
				L-1201.37-210.18z"/>
		</g>
	</g>
</g>
<circle class="st4" cx="-1427.25" cy="140.65" r="29.32"/>
<g>
	<path class="st1" d="M-1460.98,137.43c1.65-15.26,9.73-22.32,16.21-25.55c6.96-3.47,13.54-3.3,13.82-3.29l-0.22,7.14
		c-0.83-0.02-20.24-0.24-22.7,22.47L-1460.98,137.43z"/>
</g>
<g>
	<path class="st5" d="M-1411.55,139.53l-13.84-13.6c-1.19-1.17-3.12-1.17-4.3,0l-13.84,13.6c-0.38,0.37-0.38,0.97-0.01,1.35
		c0.37,0.38,0.97,0.38,1.35,0.01l1.08-1.06v10.86c0,2.29,1.86,4.15,4.15,4.15h18.85c2.29,0,4.15-1.86,4.15-4.15v-10.86l1.08,1.06
		c0.19,0.18,0.43,0.27,0.67,0.27c0.25,0,0.49-0.1,0.68-0.29C-1411.17,140.51-1411.18,139.9-1411.55,139.53z M-1415.88,150.7
		c0,1.24-1.01,2.24-2.24,2.24h-18.85c-1.24,0-2.24-1.01-2.24-2.24v-12.73l10.85-10.67c0.11-0.11,0.24-0.19,0.38-0.25
		c0.38-0.15,0.83-0.09,1.16,0.17c0.03,0.02,0.06,0.05,0.09,0.08l10.85,10.67L-1415.88,150.7L-1415.88,150.7z"/>
	<path class="st6" d="M-1428.5,140.22v-3.07h1.9v3.07c0,0.53,0.43,0.95,0.95,0.95h3.07v1.9h-3.07c-0.53,0-0.95,0.43-0.95,0.95v3.07
		h-1.9v-3.07c0-0.53-0.43-0.95-0.95-0.95h-3.07v-1.9h3.07C-1428.93,141.18-1428.5,140.75-1428.5,140.22L-1428.5,140.22z"/>
</g>
<circle class="st7" cx="-1425.5" cy="-37.33" r="29.32"/>
<g>
	<path class="st1" d="M-1459.23-40.56c1.65-15.26,9.73-22.32,16.21-25.55c6.96-3.47,13.54-3.3,13.82-3.29l-0.22,7.14
		c-0.83-0.02-20.24-0.24-22.7,22.47L-1459.23-40.56z"/>
</g>
<circle class="st8" cx="-1423.76" cy="53.03" r="29.32"/>
<g>
	<path class="st1" d="M-1457.49,49.8c1.65-15.26,9.73-22.32,16.21-25.55c6.96-3.47,13.54-3.3,13.82-3.29l-0.22,7.14
		c-0.83-0.02-20.24-0.24-22.7,22.47L-1457.49,49.8z"/>
</g>
<g>
	<g>
		<g>
			<path class="st5" d="M-1422.03,43.07h-11.25c-0.35,0-0.64,0.29-0.64,0.64v7.44c0,0.35,0.29,0.64,0.64,0.64h11.25
				c0.35,0,0.64-0.29,0.64-0.64v-7.44C-1421.39,43.36-1421.68,43.07-1422.03,43.07z M-1422.66,50.51h-9.98v-6.17h9.98V50.51z"/>
		</g>
	</g>
	<g>
		<g>
			<path class="st5" d="M-1408.57,65.89h-10.66V55.72h1.04c0.94,0,1.7,0.77,1.7,1.71c0,0.01,0,0.01,0,0.01v1.76
				c0,1.86,1.51,3.37,3.37,3.37c1.86,0,3.37-1.51,3.37-3.37V49.15c0-1.04-0.39-2.05-1.1-2.82l-4.97-5.66l-0.95,0.84l3.85,4.39
				c-1.39,0.24-2.33,1.55-2.1,2.94c0.2,1.23,1.27,2.14,2.52,2.14c0.53-0.01,1.04-0.17,1.47-0.47v8.7c0,1.16-0.94,2.1-2.1,2.1
				c-1.16,0-2.1-0.94-2.1-2.1v-1.76c0.01-1.65-1.32-2.99-2.96-2.99h-0.01h-1.04V42.61c0-1.45-1.17-2.65-2.62-2.65h-11.81
				c-1.45,0-2.61,1.21-2.61,2.65v23.29h-1.37c-0.35,0-0.64,0.29-0.64,0.64s0.29,0.64,0.64,0.64h29.07c0.35,0,0.64-0.29,0.64-0.64
				S-1408.22,65.89-1408.57,65.89z M-1412.5,49.7c-0.71,0-1.28-0.58-1.28-1.28c0-0.71,0.58-1.28,1.28-1.28
				c0.71,0,1.28,0.58,1.28,1.28S-1411.8,49.7-1412.5,49.7z M-1420.5,65.89h-14.5V42.61c0-0.75,0.58-1.38,1.34-1.38h11.81
				c0.75,0,1.35,0.64,1.35,1.38V65.89L-1420.5,65.89z"/>
		</g>
	</g>
</g>
<circle class="st9" cx="-1595.02" cy="49.55" r="29.32"/>
<g>
	<path class="st1" d="M-1628.75,46.32c1.65-15.26,9.73-22.32,16.21-25.55c6.96-3.47,13.54-3.3,13.82-3.29l-0.22,7.14
		c-0.83-0.02-20.24-0.24-22.7,22.47L-1628.75,46.32z"/>
</g>
<g>
	<path class="st5" d="M-1577.94,48.62c-0.02-0.3-0.28-0.54-0.58-0.54h-8.39l-0.38-7.63c-0.02-0.31-0.27-0.56-0.58-0.56h-4.09v-2.92
		c0-2.91-2.35-5.26-5.26-5.26c-0.6,0-1.19,0.1-1.76,0.3c-2.74-0.97-5.75,0.46-6.72,3.2c-0.2,0.56-0.3,1.16-0.3,1.76v2.92h-4.09
		c-0.31,0-0.57,0.24-0.58,0.56l-1.17,23.4c-0.02,0.32,0.23,0.6,0.55,0.61c0.01,0,0.02,0,0.03,0h33.92c0.32,0,0.58-0.26,0.58-0.58
		c0-0.01,0-0.03,0-0.04L-1577.94,48.62z M-1579.69,61.42l1.25,1.87h-2.49L-1579.69,61.42z M-1578.11,61.68l-1.02-1.53l-1.09-10.91
		h1.15L-1578.11,61.68z M-1581.39,49.25l1.1,10.96l-1.28,1.93l-0.99-12.89H-1581.39z M-1588.08,48.08h-1.1l-0.41-7.02h1.16
		L-1588.08,48.08z M-1590.77,41.06l0.41,7.02h-1.24l-0.35-7.02H-1590.77z M-1597.24,32.87c2.26,0,4.09,1.83,4.09,4.09v2.92h-2.34
		v-2.92c0-1.59-0.72-3.09-1.95-4.09C-1597.37,32.87-1597.3,32.87-1597.24,32.87z M-1598.99,33.27c1.43,0.68,2.34,2.12,2.34,3.7v2.92
		h-4.68v-2.92C-1601.33,35.38-1600.42,33.95-1598.99,33.27z M-1604.84,36.96c0-2.26,1.83-4.09,4.09-4.09c0.07,0,0.13,0,0.2,0.01
		c-1.24,1-1.95,2.5-1.95,4.09v2.92h-2.34V36.96z M-1597.78,63.29h-12.88l1.11-22.23h3.54v3.78l-1.49,1
		c-0.16,0.11-0.26,0.29-0.26,0.49V51c0,0.32,0.26,0.58,0.58,0.58h3.51c0.32,0,0.58-0.26,0.58-0.58v-4.68c0-0.2-0.1-0.38-0.26-0.49
		l-1.49-1v-3.78h8.19v1.75c0,0.32,0.26,0.58,0.58,0.58s0.58-0.26,0.58-0.58v-1.75h2.37l0.35,7.02h-3.3c-0.31,0-0.56,0.24-0.58,0.54
		L-1597.78,63.29z M-1605.43,45.86l1.17,0.78v3.78h-2.34v-3.78L-1605.43,45.86z M-1595.53,49.25h11.78l1.08,14.04h-13.94
		L-1595.53,49.25z"/>
	<path class="st5" d="M-1586.71,51.59c-0.32,0-0.58,0.26-0.58,0.58v4.68c0,0.97-0.79,1.75-1.75,1.75h-1.17
		c-0.97,0-1.75-0.79-1.75-1.75v-4.68c0-0.32-0.26-0.58-0.58-0.58s-0.58,0.26-0.58,0.58v4.68c0,1.61,1.31,2.92,2.92,2.92h1.17
		c1.61,0,2.92-1.31,2.92-2.92v-4.68C-1586.12,51.85-1586.39,51.59-1586.71,51.59z"/>
</g>
<circle class="st10" cx="-1589.74" cy="140.5" r="29.32"/>
<g>
	<path class="st1" d="M-1623.47,137.27c1.65-15.26,9.73-22.32,16.21-25.55c6.96-3.47,13.54-3.3,13.82-3.29l-0.22,7.14
		c-0.83-0.02-20.24-0.24-22.7,22.47L-1623.47,137.27z"/>
</g>
<g>
	<path class="st5" d="M-1602,151.48l0.35,0.23c0.14,0.09,3.41,2.21,11.85,2.21c8.44,0,11.71-2.12,11.85-2.21l0.35-0.23v-13.11
		l4.67-1.56v7.35c-1.2,0.34-2.08,1.44-2.08,2.75v3.89h5.71v-3.89c0-1.3-0.88-2.41-2.08-2.75v-7.87l2.72-0.91l-8.18-2.73l-0.49,1.48
		l3.74,1.25l-16.22,5.41l-16.22-5.41l16.22-5.41l11,3.67l0.49-1.48l-11.49-3.83l-21.14,7.05l8.95,2.98V151.48z M-1570.86,146.91
		v2.34h-2.59v-2.34c0-0.72,0.58-1.3,1.3-1.3S-1570.86,146.19-1570.86,146.91z M-1600.44,138.89l10.64,3.55l10.64-3.55v6.1h-1.92
		v1.56h1.92v1.56h-3.37v1.56h3.37v0.94c-1,0.49-4.23,1.76-10.64,1.76c-6.41,0-9.64-1.27-10.64-1.76V138.89z"/>
	<path class="st5" d="M-1585.65,148.1h1.56v1.56h-1.56V148.1z"/>
</g>
<circle class="st11" cx="-1595.26" cy="-40.78" r="29.32"/>
<path class="st5" d="M-1604.09-30.25c-1.42-0.07-1.4-2.07,0-2.14c3.95,0.01,14.38,0,18.46,0.01c1.12,0,2.07-0.76,2.32-1.85
	l2.32-10.03c0.13-0.57,0-1.17-0.37-1.63c-0.37-0.46-0.91-0.73-1.5-0.73c-1.64,0-15.57-0.06-22.7-0.09l-1.13-4.2
	c-0.27-1-1.19-1.7-2.23-1.7h-3.62c-0.53,0-0.95,0.43-0.95,0.95c0,0.53,0.43,0.95,0.95,0.95h3.62c0.18,0,0.34,0.12,0.38,0.29
	l4.34,16.11c-0.76,0.03-1.47,0.34-2.01,0.89c-0.57,0.58-0.87,1.34-0.86,2.14c0.03,1.61,1.36,2.93,2.98,2.93h1.39
	c-0.21,0.43-0.32,0.92-0.32,1.43c0,1.84,1.5,3.34,3.34,3.34c1.84,0,3.34-1.5,3.34-3.34c0-0.51-0.12-1-0.32-1.43h6.03
	c-0.21,0.43-0.32,0.92-0.32,1.43c0,1.84,1.5,3.34,3.34,3.34c1.84,0,3.34-1.5,3.34-3.34c0-0.53-0.13-1.03-0.35-1.48
	c0.38-0.13,0.65-0.48,0.65-0.9c0-0.53-0.43-0.95-0.95-0.95L-1604.09-30.25z M-1598.26-26.91c0,0.79-0.64,1.43-1.43,1.43
	s-1.43-0.64-1.43-1.43c0-0.79,0.64-1.43,1.43-1.43h0C-1598.9-28.34-1598.26-27.7-1598.26-26.91z M-1587.63-25.48
	c-0.79,0-1.43-0.64-1.43-1.43c0-0.78,0.63-1.42,1.41-1.43h0.05c0.78,0.01,1.41,0.65,1.41,1.43
	C-1586.2-26.12-1586.84-25.48-1587.63-25.48L-1587.63-25.48z M-1582.87-44.7c0.01,0.01,0,0.01,0,0.02l-0.98,4.23h-3.3l0.56-4.26
	l3.7,0.01C-1582.87-44.71-1582.87-44.71-1582.87-44.7L-1582.87-44.7z M-1592.7-34.29v-4.26h3.38l-0.56,4.26H-1592.7z
	 M-1597.43-34.29l-0.57-4.26h3.39v4.26H-1597.43z M-1601.83-34.29L-1601.83-34.29c-0.24,0-0.44-0.16-0.5-0.38l-1.05-3.88h3.45
	l0.57,4.26H-1601.83z M-1598.26-40.46l-0.57-4.31l4.22,0.02v4.3H-1598.26z M-1592.7-40.46v-4.29l4.2,0.02l-0.56,4.27H-1592.7z
	 M-1600.76-44.78l0.57,4.32h-3.71l-1.17-4.34L-1600.76-44.78z M-1585.64-34.29h-2.32l0.56-4.26h3.12l-0.9,3.89
	C-1585.23-34.44-1585.42-34.29-1585.64-34.29z"/>
<g>
	<path class="st1" d="M-1628.99-44.01c1.65-15.26,9.73-22.32,16.21-25.55c6.96-3.47,13.54-3.3,13.82-3.29l-0.22,7.14
		c-0.83-0.02-20.24-0.24-22.7,22.47L-1628.99-44.01z"/>
</g>
<g>
	<circle class="st12" cx="-1423.3" cy="229.46" r="29.32"/>
</g>
<g>
	<g>
		<path class="st1" d="M-1457.03,226.23c1.65-15.26,9.73-22.32,16.21-25.55c6.96-3.47,13.54-3.3,13.82-3.29l-0.22,7.14
			c-0.83-0.02-20.24-0.24-22.7,22.47L-1457.03,226.23z"/>
	</g>
</g>
<g id="Out_line">
	<g>
		<path class="st5" d="M-1405.37,239.94l-6-6c-0.64-0.65-1.52-1.01-2.43-1.01c-0.23,0-0.47,0.02-0.7,0.07
			c-1.46-1.95-2.25-4.33-2.25-6.76c0-4.55-1.81-8.92-5.03-12.14c-1.9-1.91-4.5-2.99-7.2-2.98c-5.61,0-10.18,4.57-10.18,10.18
			c0,2.47,0.9,4.86,2.53,6.72l0.89-0.78c-3.28-3.73-2.91-9.42,0.82-12.7c3.56-3.13,8.95-2.96,12.3,0.4c3,3,4.68,7.06,4.68,11.3
			c0,2.47-1.48,4.7-3.76,5.64c-0.3,0.12-0.44,0.47-0.32,0.77c0.01,0.03,0.03,0.06,0.05,0.09l0.59,0.94c0.08,0.12,0.2,0.22,0.34,0.25
			c1.36,0.37,2.64,1,3.76,1.84c-0.1,0.47-0.09,0.95,0,1.41l1.15-0.24c-0.16-0.75,0.07-1.52,0.61-2.06l0.1-0.1
			c0.86-0.86,2.24-0.88,3.13-0.06c-0.83,0.05-1.61,0.41-2.19,1l-0.1,0.1c-0.29,0.29-0.53,0.63-0.7,1.01l1.07,0.49
			c0.11-0.25,0.27-0.47,0.46-0.66l0.1-0.1c0.88-0.88,2.31-0.88,3.19,0l0.53,0.53c-0.83,0.05-1.61,0.41-2.19,1l-0.1,0.1
			c-0.11,0.11-0.2,0.22-0.29,0.34l0.93,0.72c0.06-0.08,0.12-0.15,0.19-0.22l0.1-0.1c0.86-0.86,2.24-0.88,3.13-0.06
			c-0.83,0.05-1.61,0.41-2.19,1l-0.1,0.1c-1.34,1.34-1.34,3.52,0,4.86l0.1,0.1c1.34,1.34,3.52,1.34,4.86,0l0.1-0.1
			C-1404.03,243.45-1404.03,241.28-1405.37,239.94L-1405.37,239.94z M-1416.22,233.94l-0.1,0.1c-0.18,0.18-0.34,0.38-0.48,0.6
			c-1.12-0.8-2.36-1.4-3.68-1.79l-0.11-0.18c1.35-0.71,2.44-1.83,3.11-3.2c0.38,1.43,1.02,2.78,1.87,3.99
			C-1415.84,233.6-1416.04,233.76-1416.22,233.94L-1416.22,233.94z M-1406.2,243.96l-0.1,0.1c-0.88,0.88-2.31,0.88-3.19,0l-0.1-0.1
			c-0.88-0.88-0.88-2.31,0-3.19c0,0,0,0,0,0l0.1-0.1c0.88-0.88,2.31-0.88,3.19,0l0.1,0.1h0
			C-1405.32,241.65-1405.32,243.08-1406.2,243.96L-1406.2,243.96z"/>
	</g>
	<g>
		<path class="st5" d="M-1429.16,234.76c1.2-0.75,2.67-0.95,4.03-0.54l1.52,0.46c0.25,0.77,0.38,1.58,0.38,2.39h1.18
			c0-4.88-3.96-8.84-8.84-8.84c-4.88,0-8.84,3.96-8.84,8.84c0,4.88,3.96,8.84,8.84,8.84c1.81,0,3.57-0.55,5.05-1.59l-0.67-0.97
			c-0.73,0.51-1.55,0.89-2.42,1.12l-0.83-0.95c-1.11-1.27-1.72-2.89-1.72-4.58c0-0.82,0.21-1.64,0.6-2.36
			c0.97,0.36,1.9,0.82,2.78,1.37l2.2,1.37l0.62-1l-2.2-1.37c-0.86-0.53-1.76-0.99-2.7-1.36
			C-1429.87,235.27-1429.53,234.99-1429.16,234.76z M-1424.24,233.25l-0.55-0.16c-1.68-0.51-3.5-0.26-5,0.67
			c-0.6,0.38-1.13,0.85-1.57,1.41c-0.51-0.16-1.03-0.29-1.56-0.4c1.24-1.99,2.97-3.63,5.03-4.76
			C-1426.35,230.67-1425.07,231.81-1424.24,233.25z M-1429.4,229.55c-1.96,1.28-3.59,3-4.77,5.02c-0.52-0.07-1.05-0.11-1.57-0.13
			c0.37-1.25,0.6-2.53,0.71-3.82C-1433.36,229.54-1431.34,229.16-1429.4,229.55z M-1438.55,237.06c0-0.44,0.04-0.87,0.11-1.31
			c0.35-0.05,0.7-0.09,1.05-0.11c-0.31,0.8-0.68,1.57-1.11,2.32C-1438.53,237.66-1438.55,237.36-1438.55,237.06z M-1436.33,231.67
			c-0.14,0.94-0.35,1.86-0.63,2.77c-0.39,0.02-0.77,0.04-1.16,0.09C-1437.74,233.46-1437.13,232.48-1436.33,231.67z M-1438.12,239.6
			c0.82-1.25,1.49-2.59,2-3.99c0.45,0.01,0.91,0.03,1.36,0.08c-1.03,2.15-1.53,4.5-1.46,6.88
			C-1437.07,241.74-1437.72,240.72-1438.12,239.6z M-1430.65,244.3l0.35,0.4c-0.2,0.02-0.4,0.02-0.6,0.02
			c-1.45,0-2.86-0.41-4.08-1.18c-0.27-2.65,0.23-5.32,1.45-7.69c0.51,0.09,1.02,0.21,1.51,0.35c-0.43,0.85-0.65,1.78-0.65,2.73
			C-1432.66,240.91-1431.94,242.82-1430.65,244.3z"/>
	</g>
	<g>
		<path class="st5" d="M-1416.74,238.24c-0.72,0-1.43,0.19-2.06,0.55c-1.97-1.14-4.5-0.47-5.64,1.51c-1.14,1.97-0.47,4.5,1.51,5.64
			c1.28,0.74,2.85,0.74,4.13,0c1.97,1.14,4.5,0.46,5.64-1.51s0.46-4.5-1.51-5.64C-1415.31,238.43-1416.02,238.24-1416.74,238.24z
			 M-1413.81,242.11l-0.16-0.16c-0.88-0.88-2.31-0.88-3.19,0c0,0,0,0,0,0c-0.42,0.42-1.1,0.42-1.52,0c0,0,0,0,0,0l-0.76-0.76
			c0.65-1.49,2.39-2.17,3.88-1.53C-1414.57,240.1-1413.9,241.03-1413.81,242.11L-1413.81,242.11z M-1420.87,239.42
			c0.36,0,0.72,0.07,1.06,0.19c-0.5,0.55-0.84,1.23-0.98,1.96c-0.18,0.1-0.35,0.23-0.49,0.37c-0.42,0.42-1.1,0.42-1.52,0
			c0,0,0,0,0,0l-0.76-0.76C-1423.1,240.12-1422.04,239.42-1420.87,239.42z M-1423.8,242.62l0.16,0.16c0.76,0.76,1.94,0.88,2.84,0.29
			c0.13,0.76,0.48,1.47,0.99,2.05c-1.52,0.58-3.23-0.18-3.81-1.7C-1423.72,243.16-1423.78,242.9-1423.8,242.62z M-1416.74,245.31
			c-1.53,0-2.8-1.17-2.94-2.69l0.16,0.16c0.88,0.88,2.31,0.88,3.19,0c0,0,0,0,0,0c0.42-0.42,1.1-0.42,1.52,0c0,0,0,0,0,0l0.76,0.76
			C-1414.51,244.62-1415.57,245.31-1416.74,245.31z"/>
	</g>
	<g>
		
			<rect x="-1427.06" y="211.49" transform="matrix(0.5943 -0.8043 0.8043 0.5943 -755.5943 -1058.364)" class="st5" width="0.63" height="16.4"/>
	</g>
	<g>
		
			<rect x="-1425.35" y="211.24" transform="matrix(0.5943 -0.8043 0.8043 0.5943 -752.9545 -1057.9701)" class="st5" width="0.63" height="12.07"/>
	</g>
	<g>
		
			<rect x="-1437.67" y="219.38" transform="matrix(0.594 -0.8045 0.8045 0.594 -758.0322 -1062.5326)" class="st5" width="12.07" height="0.63"/>
	</g>
	<g>
		
			<rect x="-1434.08" y="219.97" transform="matrix(0.5946 -0.804 0.804 0.5946 -756.0504 -1058.8788)" class="st5" width="12.07" height="0.63"/>
	</g>
	<g>
		
			<rect x="-1431.84" y="221.81" transform="matrix(0.5946 -0.804 0.804 0.5946 -756.6227 -1056.3354)" class="st5" width="12.07" height="0.63"/>
	</g>
	<g>
		
			<rect x="-1428.44" y="223.64" transform="matrix(0.5946 -0.804 0.804 0.5946 -757.0107 -1053.4417)" class="st5" width="10.61" height="0.63"/>
	</g>
	<g>
		
			<rect x="-1426.07" y="226.27" transform="matrix(0.5943 -0.8043 0.8043 0.5943 -758.9892 -1051.3761)" class="st5" width="9" height="0.63"/>
	</g>
	<g>
		
			<rect x="-1438.03" y="216.96" transform="matrix(0.5946 -0.804 0.804 0.5946 -755.8522 -1064.5132)" class="st5" width="9" height="0.63"/>
	</g>
	<g>
		
			<rect x="-1427.51" y="214.77" transform="matrix(0.5943 -0.8043 0.8043 0.5943 -758.4121 -1057.3981)" class="st5" width="0.63" height="16.4"/>
	</g>
	<g>
		
			<rect x="-1428.89" y="216.94" transform="matrix(0.5942 -0.8043 0.8043 0.5942 -760.7373 -1057.6335)" class="st5" width="0.63" height="16.4"/>
	</g>
</g>
<circle class="st13" cx="-1589.74" cy="224.6" r="29.32"/>
<g>
	<path class="st1" d="M-1623.47,221.37c1.65-15.26,9.73-22.32,16.21-25.55c6.96-3.47,13.54-3.3,13.82-3.29l-0.22,7.14
		c-0.83-0.02-20.24-0.24-22.7,22.47L-1623.47,221.37z"/>
</g>
<g>
	<path class="st5" d="M-1601.82,242.75c-0.21-0.06-0.42-0.11-0.62-0.18c-1.65-0.52-2.71-1.99-2.71-3.79c0-5.3,0-10.59-0.01-15.89
		c0-0.39-0.07-0.78-0.17-1.16c-0.3-1.12-0.64-2.22-0.96-3.34c-0.63-2.23,0.5-4.29,2.73-4.94c5.59-1.63,11.18-3.24,16.77-4.86
		c1.53-0.44,3.06-0.93,4.61-1.31c2.15-0.53,4.07,0.61,4.71,2.72c0.39,1.27,0.75,2.55,1.11,3.83c0.19,0.65,0.02,0.94-0.64,1.14
		c-3.13,0.91-6.27,1.82-9.4,2.72c-4.2,1.22-8.4,2.43-12.6,3.65c-0.11,0.03-0.22,0.07-0.32,0.17c0.12,0,0.23,0,0.35,0
		c7.58,0,15.16,0,22.74,0c0.15,0,0.3,0,0.45,0.01c0.34,0.04,0.55,0.22,0.61,0.56c0.02,0.14,0.03,0.28,0.03,0.41
		c0,5.39,0,10.78,0,16.16c0,1.73-0.76,3-2.33,3.74c-0.33,0.15-0.7,0.22-1.05,0.33c-3.01,0-6.03,0-9.04,0
		c-0.07-0.05-0.13-0.09-0.2-0.14c-0.24-0.17-0.34-0.41-0.28-0.7c0.06-0.29,0.25-0.47,0.53-0.53c0.13-0.03,0.28-0.03,0.41-0.03
		c2.6,0,5.19,0,7.79,0c1.75,0,2.77-1.01,2.77-2.75c0-2.93,0-5.86,0-8.79c0-0.12-0.01-0.25-0.02-0.37c-9.09,0-18.14,0-27.22,0
		c0,0.13,0,0.23,0,0.34c0,2.98,0,5.96,0,8.93c0,1.61,1.05,2.65,2.66,2.65c1.29,0,2.57,0,3.86,0c1.39,0,2.78,0,4.17,0
		c0.49,0,0.78,0.22,0.82,0.62c0.04,0.4-0.2,0.61-0.53,0.77C-1595.8,242.75-1598.81,242.75-1601.82,242.75z M-1585.66,209.71
		c0.09,0.09,0.12,0.14,0.16,0.18c1.58,1.52,3.15,3.03,4.74,4.54c0.08,0.08,0.27,0.11,0.39,0.07c0.76-0.2,1.51-0.43,2.26-0.65
		c0.08-0.02,0.16-0.06,0.27-0.1c-0.37-1.23-0.69-2.45-1.1-3.64c-0.37-1.07-1.56-1.78-2.63-1.54
		C-1582.91,208.89-1584.25,209.32-1585.66,209.71z M-1597.9,219.59c-0.02-0.05-0.02-0.08-0.04-0.09c-1.62-1.56-3.24-3.12-4.86-4.67
		c-0.05-0.05-0.14-0.09-0.21-0.08c-1.24,0.13-2.31,1.58-2.04,2.82c0.21,0.94,0.5,1.85,0.76,2.77c0.09,0.33,0.19,0.66,0.29,1.01
		C-1601.94,220.76-1599.92,220.17-1597.9,219.59z M-1576.56,222.92c-0.96,0-1.89,0.01-2.83-0.01c-0.24,0-0.37,0.07-0.49,0.28
		c-0.86,1.51-1.73,3.01-2.6,4.51c-0.05,0.09-0.09,0.18-0.15,0.29c2.04,0,4.05,0,6.07,0
		C-1576.56,226.3-1576.56,224.63-1576.56,222.92z M-1603.75,222.93c0,1.71,0,3.39,0,5.09c0.97,0,1.92-0.01,2.86,0.01
		c0.22,0,0.33-0.08,0.43-0.26c0.87-1.52,1.74-3.03,2.61-4.54c0.05-0.09,0.09-0.18,0.15-0.3
		C-1599.74,222.93-1601.73,222.93-1603.75,222.93z M-1590.84,211.23c-0.02,0.03-0.04,0.07-0.05,0.1c0.1,0.07,0.22,0.13,0.31,0.22
		c1.28,1.22,2.56,2.45,3.84,3.68c0.3,0.29,0.57,0.72,0.92,0.8c0.35,0.09,0.79-0.17,1.19-0.29c0.8-0.23,1.61-0.47,2.45-0.71
		c-0.07-0.08-0.1-0.13-0.14-0.17c-1.58-1.52-3.15-3.03-4.74-4.54c-0.08-0.08-0.27-0.11-0.39-0.08c-0.9,0.25-1.8,0.52-2.7,0.78
		C-1590.38,211.1-1590.61,211.16-1590.84,211.23z M-1587.34,216.53c-0.16-0.13-0.27-0.2-0.35-0.29c-1.41-1.35-2.84-2.69-4.23-4.08
		c-0.38-0.38-0.69-0.47-1.2-0.29c-0.97,0.33-1.96,0.59-2.98,0.88c0.06,0.08,0.09,0.12,0.13,0.16c1.58,1.52,3.15,3.04,4.74,4.54
		c0.08,0.08,0.27,0.11,0.39,0.08c0.74-0.2,1.47-0.42,2.2-0.63C-1588.24,216.79-1587.84,216.67-1587.34,216.53z M-1592.66,218.06
		c-0.04-0.06-0.05-0.09-0.08-0.11c-1.6-1.54-3.21-3.08-4.82-4.61c-0.07-0.07-0.25-0.09-0.36-0.06c-0.97,0.27-1.93,0.55-2.9,0.83
		c-0.17,0.05-0.33,0.11-0.59,0.19c0.15,0.12,0.25,0.18,0.33,0.26c1.25,1.2,2.51,2.41,3.76,3.61c0.33,0.31,0.61,0.79,0.99,0.88
		c0.39,0.09,0.88-0.18,1.32-0.31C-1594.22,218.53-1593.44,218.3-1592.66,218.06z M-1586.77,222.92c-1.26,0-2.45-0.01-3.64,0.01
		c-0.11,0-0.26,0.13-0.32,0.23c-0.89,1.53-1.78,3.06-2.66,4.59c-0.04,0.07-0.07,0.16-0.12,0.27c1.18,0,2.31-0.01,3.44,0.01
		c0.26,0,0.41-0.07,0.54-0.31c0.84-1.48,1.69-2.95,2.54-4.42C-1586.92,223.19-1586.87,223.08-1586.77,222.92z M-1588.06,227.98
		c0.06,0.02,0.09,0.03,0.13,0.03c1.16,0,2.32,0.01,3.48-0.01c0.12,0,0.28-0.14,0.35-0.25c0.88-1.51,1.75-3.02,2.63-4.54
		c0.05-0.08,0.09-0.17,0.15-0.3c-1.2,0-2.35,0.01-3.49-0.01c-0.24,0-0.37,0.07-0.49,0.28c-0.85,1.5-1.72,2.99-2.58,4.48
		C-1587.96,227.77-1588.01,227.87-1588.06,227.98z M-1598.99,228.02c1.26,0,2.45,0.01,3.64-0.01c0.11,0,0.26-0.13,0.32-0.24
		c0.89-1.53,1.77-3.06,2.66-4.59c0.04-0.07,0.07-0.15,0.12-0.26c-1.19,0-2.34,0.01-3.48-0.01c-0.24,0-0.37,0.07-0.49,0.28
		c-0.86,1.51-1.73,3.01-2.6,4.51C-1598.87,227.79-1598.91,227.88-1598.99,228.02z"/>
	<path class="st5" d="M-1590.35,242.75c-0.07-0.05-0.13-0.09-0.2-0.14c-0.26-0.19-0.36-0.46-0.26-0.76
		c0.09-0.31,0.33-0.48,0.65-0.48c0.32,0,0.55,0.16,0.65,0.48c0.1,0.33-0.01,0.59-0.28,0.78c-0.07,0.05-0.14,0.08-0.21,0.12
		C-1590.12,242.75-1590.23,242.75-1590.35,242.75z"/>
	<path class="st5" d="M-1592.85,235.29c0-1.11,0-2.22,0-3.34c0-0.76,0.53-1.06,1.18-0.69c1.95,1.12,3.89,2.24,5.84,3.37
		c0.65,0.38,0.65,0.99-0.01,1.37c-1.93,1.12-3.87,2.24-5.81,3.35c-0.68,0.39-1.2,0.1-1.2-0.69
		C-1592.85,237.54-1592.85,236.42-1592.85,235.29z M-1591.45,237.63c1.34-0.77,2.65-1.53,4.01-2.31c-1.36-0.79-2.67-1.54-4.01-2.31
		C-1591.45,234.57-1591.45,236.07-1591.45,237.63z"/>
</g>
<g>
	<g>
		<path class="st5" d="M-1431.64-30.32c1.01,2.79,2.75,4.48,5.17,5.05v-11.47c-2.22-1.01-3.92-2.1-5.01-3.19
			c-1.09-1.13-1.61-2.7-1.61-4.68c0-1.82,0.61-3.35,1.86-4.6s2.83-1.98,4.76-2.18v-3.88h2.58v3.96c2.71,0.4,4.68,1.82,5.98,4.28
			l-2.66,1.37c-0.77-1.41-1.86-2.3-3.31-2.66v9.45c2.83,1.25,4.84,2.5,6.06,3.76c1.21,1.21,1.82,2.95,1.82,5.17
			c0,4.32-2.87,7.39-7.87,7.71v3.88h-2.58v-3.96c-3.92-0.53-6.62-2.75-8.12-6.62L-1431.64-30.32z M-1426.47-48.48
			c-2.1,0.28-3.47,1.66-3.47,3.88c0,2.22,1.09,3.39,3.47,4.56V-48.48z M-1423.89-25.15c1.98-0.16,3.35-0.97,3.96-2.06
			c0.61-1.09,0.77-1.9,0.77-2.75c0-2.75-1.37-4.04-4.72-5.61V-25.15z"/>
	</g>
</g>
<g>
	<defs>
		<rect id="SVGID_1_" x="-1335.08" y="-90.88" width="415.38" height="408.71"/>
	</defs>
	<clipPath id="SVGID_2_">
		<use xlink:href="#SVGID_1_"  style="overflow:visible;"/>
	</clipPath>
	<g class="st14">
		<g>
			<path class="st1" d="M-1244.06,208.08c13.65,0.99,27.79,2.73,41.26-0.61c11.9-2.95,23.53-10.88,30.06-21.37
				c7.56-12.15,5.46-27.33,4.81-40.9c-0.82-16.95-1.65-33.9-2.47-50.85c-0.83-17.13-3.87-36.63,6.25-51.72
				c1.07-1.6-1.51-3.09-2.57-1.5c-9.61,14.33-7.69,31.97-6.89,48.33c1,20.54,1.99,41.08,2.99,61.61c0.45,9.32,1.36,19.22-2,28.14
				c-3.31,8.78-10.86,15.7-18.75,20.44c-15.78,9.47-35.22,6.73-52.67,5.46C-1245.97,204.96-1245.97,207.94-1244.06,208.08
				L-1244.06,208.08z"/>
		</g>
	</g>
	<polygon class="st15" points="-1247.53,-14.16 -1247.36,-37.37 -1235.53,-75.07 -1201.3,-71.21 -1208.19,-7.78 -1238.73,-11.26 
		-1240.21,-11.36 	"/>
	<g class="st14">
		<g>
			<path class="st16" d="M-1235.2,50.47c6.62-1.66,12.85-4.61,19.32-6.73c8.51-2.79,17.08-4.2,26.03-3.35
				c18.74,1.78,37.74,2.78,56.04,7.46c19.13,4.9,37.3,12.94,56.56,17.56c19,4.56,38.27,6.2,57.73,4.07
				c22.36-2.45,44.04-8.73,65.56-15.02c1.83-0.54,1.05-3.41-0.79-2.87c-19.51,5.7-39.13,11.42-59.3,14.22
				c-20.69,2.88-41.17,1.74-61.48-3.05c-19.31-4.56-37.49-12.54-56.62-17.56c-17.36-4.55-35.31-5.65-53.1-7.34
				c-9.91-0.94-18.9-0.73-28.52,2.09c-7.51,2.21-14.62,5.73-22.22,7.63C-1237.85,48.06-1237.06,50.93-1235.2,50.47L-1235.2,50.47z"
				/>
		</g>
	</g>
	<g class="st14">
		<g>
			<path class="st1" d="M-1101.95,55.65c-2.68,17.51-6.09,34.9-8.96,52.38c-0.81,4.91-3.46,11.99,1.71,15.31
				c2.95,1.9,6.99,2.22,10.34,2.89c4.87,0.98,9.76,1.87,14.65,2.72c20.14,3.51,40.46,6.34,60.23,11.67
				c11.19,3.01,22.16,6.99,33.07,10.88c36.13,12.86,71.71,27.27,108.63,37.83c9.1,2.6,18.34,5.12,27.73,6.37
				c4.12,0.55,10.84,1.75,14.2-1.57c1.36-1.35-0.74-3.45-2.1-2.1c-2.63,2.6-9.39,1.09-12.51,0.64c-7.77-1.12-15.44-3.12-23-5.21
				c-19.89-5.5-39.42-12.27-58.84-19.21c-16.15-5.77-32.2-11.84-48.29-17.78c-22.53-8.31-45.25-15.14-68.93-19.38
				c-10.4-1.86-20.83-3.49-31.23-5.32c-5.19-0.92-10.38-1.88-15.55-2.96c-1.75-0.36-5.54-0.65-6.9-2.03
				c-2.37-2.41-1.29-6.06-0.83-8.96c2.95-18.49,6.62-36.86,9.45-55.37C-1098.79,54.56-1101.66,53.76-1101.95,55.65L-1101.95,55.65z"
				/>
		</g>
	</g>
	<g class="st14">
		<g>
			<path class="st1" d="M-1098.11,54.03c-2.3-29.28,1.72-59.2,12.37-86.61c0.69-1.79-2.18-2.56-2.87-0.79
				c-10.73,27.62-14.8,57.9-12.48,87.4C-1100.93,55.93-1097.96,55.94-1098.11,54.03L-1098.11,54.03z"/>
		</g>
	</g>
	<g class="st14">
		<text transform="matrix(1 0 0 1 -1146.1658 211.5055)"><tspan x="0" y="0" class="st1" style="font-family:'HurmeGeometricSans4-SemiBold'; font-size:13.4266px;">CIUDAD</tspan><tspan x="0" y="12.08" class="st1" style="font-family:'HurmeGeometricSans4-SemiBold'; font-size:13.4266px;">CAUCEL</tspan></text>
	</g>
	<g class="st14">
		
			<text transform="matrix(1 0 0 1 -861.3152 -24.1083)" class="st17" style="font-family:'HurmeGeometricSans4-Regular'; font-size:8.9814px;">PROGRESO</text>
	</g>
	<g class="st14">
		<line class="st17" x1="-838.46" y1="-42.27" x2="-840.37" y2="-57.26"/>
		<path class="st17" d="M-840.8-62.27c1.22,2.58,3.19,5.73,5.15,7.63l-4.6-1.23l-4.32,2C-842.96-56.07-841.56-59.52-840.8-62.27"/>
	</g>
	<g class="st14">
		<text transform="matrix(1 0 0 1 -1001.8974 -37.6425)"><tspan x="0" y="0" class="st17" style="font-family:'HurmeGeometricSans4-Regular'; font-size:8.9814px;">PUEBLO MÁGICO</tspan><tspan x="25.47" y="10.78" class="st17" style="font-family:'HurmeGeometricSans4-Regular'; font-size:8.9814px;">SISAL</tspan></text>
	</g>
	<g class="st14">
		<line class="st17" x1="-963.89" y1="-49.35" x2="-970.54" y2="-61.1"/>
		<path class="st17" d="M-972.75-66.03c2.15,2.19,5.27,4.7,7.93,5.93l-5.1,0.38l-3.68,3.56C-972.74-58.98-972.54-62.98-972.75-66.03
			"/>
	</g>
	<g class="st14">
		<g>
			
				<text transform="matrix(1 0 0 1 -1327.6177 164.8586)" class="st17" style="font-family:'HurmeGeometricSans4-Regular'; font-size:8.9814px;">CELESTÚN</text>
		</g>
		<g>
			<line class="st17" x1="-1304.3" y1="149.42" x2="-1318.67" y2="145.97"/>
			<path class="st17" d="M-1323.61,144.57c2.91-0.23,6.64-0.98,9.16-2.17l-2.84,3.95l0.35,4.85
				C-1318.46,148.87-1321.25,146.29-1323.61,144.57"/>
		</g>
	</g>
	<g class="st14">
		<path id="SVGID_x5F_4_x5F_" class="st19" d="M-1223.39,263.37c0,0,21.66,4.68,81.17,20.61c12.08,3.23,98.15,24.71,98.15,24.71"/>
		<text>		<textPath  xlink:href="#SVGID_x5F_4_x5F_" startOffset="8.594%">
<tspan  class="st1" style="font-family:'HurmeGeometricSans4-Bold'; font-size:8.3394px;">MÉRIDA - TETIZ</tspan>		</textPath>
</text>
	</g>
	<g class="st14">
		<g class="st18">
			<g>
				<defs>
					<path id="SVGID_3_" d="M-1311.6,54.43"/>
				</defs>
				<clipPath id="SVGID_6_">
					<use xlink:href="#SVGID_3_"  style="overflow:visible;"/>
				</clipPath>
			</g>
		</g>
		
			<text transform="matrix(1 0 0 1 -1300.8027 14.603)" class="st0" style="font-family:'HurmeGeometricSans4-Bold'; font-size:15.1585px;">N</text>
		<rect x="-1305.98" y="4.03" class="st19" width="22.27" height="21.3"/>
		
			<text transform="matrix(1 0 0 1 -1299.0435 63.1196)" class="st0" style="font-family:'HurmeGeometricSans4-Bold'; font-size:15.1585px;">S</text>
		<rect x="-1304.22" y="42.72" class="st19" width="18.75" height="31.13"/>
		<g>
			<path class="st0" d="M-1297.06,18.79c0.61,0,1.22,0,1.84,0c0.32,0.04,0.64,0.07,0.96,0.12c3.64,0.54,6.64,2.22,8.93,5.1
				c2.45,3.07,3.41,6.6,2.89,10.48c-0.5,3.68-2.25,6.7-5.18,9c-3.07,2.4-6.57,3.33-10.42,2.82c-2.72-0.36-5.12-1.47-7.17-3.28
				c-2.52-2.22-4.06-5-4.58-8.32c-0.06-0.39-0.11-0.78-0.16-1.17c0-0.61,0-1.22,0-1.84c0.04-0.33,0.08-0.66,0.13-0.98
				c0.4-2.72,1.48-5.13,3.3-7.19c2.22-2.52,4.99-4.05,8.32-4.57C-1297.84,18.88-1297.45,18.84-1297.06,18.79z M-1284.63,32.62
				c0.01-6.35-5.15-11.51-11.5-11.52c-6.35-0.01-11.51,5.15-11.52,11.5c-0.01,6.35,5.15,11.51,11.5,11.52
				C-1289.81,44.13-1284.64,38.97-1284.63,32.62z"/>
			<path class="st0" d="M-1288.64,25.76c-0.02,0.06-0.06,0.19-0.12,0.31c-1.5,3-3,5.99-4.51,8.98c-0.09,0.17-0.25,0.34-0.42,0.42
				c-3,1.51-6,3.02-9.01,4.52c-0.32,0.16-0.57,0.14-0.77-0.06c-0.2-0.2-0.23-0.44-0.06-0.77c1.51-3.01,3.01-6.03,4.53-9.03
				c0.08-0.15,0.21-0.3,0.36-0.38c3.03-1.53,6.07-3.05,9.11-4.56C-1289.09,24.98-1288.64,25.24-1288.64,25.76z M-1297.28,32.6
				c0,0.64,0.5,1.15,1.13,1.15c0.63,0,1.14-0.5,1.15-1.11c0.01-0.64-0.49-1.16-1.12-1.17C-1296.76,31.46-1297.28,31.96-1297.28,32.6
				z"/>
		</g>
	</g>
	<g class="st14">
		
			<text transform="matrix(0.6257 -0.7801 0.7801 0.6257 -925.4265 24.1493)" class="st5" style="font-family:'HurmeGeometricSans4-Bold'; font-size:7px;">ARCO VIAL NTE</text>
	</g>
	<g class="st14">
		
			<text transform="matrix(0.8599 0.5104 -0.5104 0.8599 -1096.9257 -47.2987)" class="st1" style="font-family:'HurmeGeometricSans4-Bold'; font-size:8.3394px;">MÉRIDA - UCÙ</text>
	</g>
	<circle class="st20" cx="-1223.39" cy="-44.91" r="2.73"/>
	<g class="st14">
	</g>
	<g class="st14">
		<text transform="matrix(1 0 0 1 -862.7889 46.6259)"><tspan x="0" y="0" class="st1" style="font-family:'HurmeGeometricSans4-SemiBold'; font-size:9.3986px;">GRAN</tspan><tspan x="-9.35" y="9.4" class="st1" style="font-family:'HurmeGeometricSans4-SemiBold'; font-size:9.3986px;">SANTA FÉ</tspan></text>
	</g>
	<g class="st14">
		
			<text transform="matrix(0.1779 -0.984 0.984 0.1779 -863.0062 295.3611)" class="st27" style="font-family:'HurmeGeometricSans4-SemiBold'; font-size:9px;">PASEO VERDE</text>
	</g>
	<polyline class="st21" points="-1291.94,-48.63 -1268.94,-57.06 -1225.91,-45.91 	"/>
	<path class="st22" d="M-1280.43-7.24h-21.87c-6.6,0-12-5.4-12-12v-21.87c0-6.6,5.4-12,12-12h21.87c6.6,0,12,5.4,12,12v21.87
		C-1268.43-12.64-1273.83-7.24-1280.43-7.24z"/>
	<g class="st14">
		<path class="st5" d="M-1301.82-30.55c1.01-0.37,1.79-1.04,2.7-1.99l0,0c0.28-0.29,0.57-0.61,0.9-0.97l0,0
			c0.05-0.06,0.1-0.11,0.16-0.17c0.22-0.24,0.45-0.5,0.71-0.77c0.27-0.29,0.55-0.6,0.84-0.92l0,0c0.63-0.71,1.24-1.41,1.77-2.11
			c1.82-2.37,3.2-5.09,1.88-7.5c-1.14-2.08-3.36-2.59-5.06-2.18c-2.01,0.49-3.34,2.11-3.39,4.14c-0.06,2.27,1.11,3.56,3.03,5.66
			c0.3-0.34,0.59-0.67,0.87-1.01c-1.75-1.9-2.62-2.91-2.58-4.62c0.04-1.71,1.26-2.62,2.38-2.89c0.25-0.06,0.53-0.1,0.82-0.1
			c0.99,0,2.11,0.42,2.77,1.63c0.91,1.66-0.01,3.69-1.59,5.81c-0.87,1.15-1.84,2.24-2.68,3.16c-0.25,0.27-0.48,0.53-0.71,0.77
			c-0.6,0.66-1.11,1.22-1.6,1.69c0,0,0,0,0,0c-0.57,0.54-1.08,0.91-1.68,1.13c-1.08,0.4-2.57,0.38-3.2-1
			c-0.36-0.79-0.25-1.6,0.3-2.24c0.45-0.53,1.11-0.82,1.8-0.82c0.23,0,0.46,0.03,0.7,0.1c0.56,0.16,1.22,0.69,1.79,1.25
			c0.27-0.29,0.57-0.61,0.89-0.97c-0.74-0.72-1.54-1.33-2.33-1.55c-1.43-0.4-2.91,0.04-3.85,1.13c-0.88,1.03-1.06,2.39-0.5,3.64
			C-1305.86-30.46-1303.91-29.78-1301.82-30.55"/>
		<path class="st5" d="M-1285.24-29.64l1.69-1.91c-0.28-0.3-0.58-0.62-0.9-0.97l-2.54,2.88l2.55,2.88c0.32-0.35,0.62-0.67,0.9-0.97
			L-1285.24-29.64z"/>
		<path class="st5" d="M-1287.02-37.45c0.52,0.69,1.13,1.37,1.75,2.07l0,0c0.29,0.32,0.57,0.63,0.84,0.92
			c0.25,0.27,0.48,0.53,0.71,0.77c0.05,0.06,0.11,0.12,0.16,0.17l0,0c0.33,0.36,0.62,0.68,0.9,0.97l0.01-0.01
			c0.91,0.95,1.69,1.62,2.7,1.99c2.09,0.78,4.04,0.09,4.85-1.69c0.57-1.25,0.38-2.61-0.5-3.64c-0.94-1.1-2.41-1.53-3.85-1.13
			c-0.79,0.22-1.6,0.83-2.34,1.55c0,0,0.01,0.01,0.01,0.01c0.32,0.35,0.61,0.67,0.88,0.96c0.57-0.56,1.23-1.1,1.8-1.25
			c0.93-0.26,1.89,0.02,2.49,0.72c0.55,0.64,0.65,1.45,0.3,2.24c-0.63,1.38-2.11,1.41-3.2,1c-0.58-0.22-1.08-0.58-1.64-1.1
			c0,0,0,0-0.01,0.01c-0.49-0.47-1.01-1.03-1.6-1.69c-0.22-0.24-0.46-0.5-0.71-0.77c-0.84-0.92-1.81-2-2.68-3.15l0,0
			c-1.6-2.13-2.54-4.18-1.62-5.85c0.67-1.21,1.78-1.63,2.77-1.63c0.29,0,0.57,0.04,0.82,0.1c1.12,0.27,2.34,1.17,2.38,2.89
			c0.04,1.71-0.83,2.72-2.58,4.62c0.28,0.33,0.57,0.67,0.86,1.01c1.93-2.1,3.09-3.39,3.03-5.66c-0.05-2.03-1.38-3.65-3.39-4.14
			c-1.7-0.41-3.92,0.1-5.06,2.18C-1290.25-42.57-1288.85-39.83-1287.02-37.45L-1287.02-37.45z"/>
		<path class="st5" d="M-1286.12-24.92l-3.92-4.72l3.91-4.71c-0.29-0.32-0.59-0.66-0.88-1l-3.89,4.68l-3.89-4.68
			c-0.3,0.35-0.59,0.68-0.88,1l3.91,4.71l-3.91,4.71c0.29,0.32,0.59,0.65,0.88,1l3.89-4.68l3.89,4.69
			C-1286.71-24.27-1286.41-24.6-1286.12-24.92 M-1290.9-29.64L-1290.9-29.64L-1290.9-29.64L-1290.9-29.64L-1290.9-29.64z"/>
		<path class="st5" d="M-1279.97-28.73c-1,0.37-1.77,1.02-2.66,1.95c-0.31,0.32-0.64,0.68-1.01,1.09c-0.22,0.25-0.46,0.51-0.71,0.78
			c-0.94,1.03-1.89,2.05-2.66,3.07c-1.84,2.38-3.24,5.12-1.91,7.54c0.9,1.65,2.49,2.31,3.95,2.31c0.38,0,0.76-0.05,1.11-0.13
			c2.01-0.49,3.34-2.11,3.38-4.14c0.06-2.27-1.1-3.56-3.03-5.65c-0.3,0.34-0.59,0.67-0.86,1.01c1.74,1.9,2.62,2.91,2.57,4.61
			c-0.04,1.71-1.26,2.62-2.38,2.89c-1.12,0.27-2.74,0.03-3.59-1.53c-0.92-1.67,0.02-3.72,1.62-5.85l0,0
			c0.79-1.04,1.66-2.02,2.44-2.88c0.08-0.09,0.16-0.18,0.24-0.27c0.25-0.27,0.49-0.53,0.71-0.78c0.02-0.02,0.04-0.04,0.05-0.06
			c0,0,0,0,0,0c0.32-0.35,0.61-0.68,0.89-0.98c-0.02-0.02,0,0,0,0c0.84-0.89,1.49-1.46,2.29-1.75c1.08-0.4,2.57-0.38,3.2,1
			c0.36,0.79,0.25,1.6-0.3,2.24c-0.6,0.7-1.56,0.98-2.49,0.72c-0.56-0.16-1.22-0.69-1.79-1.25c-0.27,0.29-0.56,0.61-0.88,0.96
			c0,0-0.01,0.01-0.01,0.01c0.74,0.72,1.54,1.33,2.33,1.55c1.43,0.4,2.91-0.04,3.85-1.13c0.88-1.03,1.06-2.39,0.5-3.64
			C-1275.93-28.83-1277.88-29.51-1279.97-28.73"/>
		<path class="st5" d="M-1297.34-32.52c-0.32,0.35-0.62,0.68-0.9,0.97l1.69,1.91l-1.69,1.91c0.28,0.29,0.58,0.62,0.9,0.97l2.55-2.88
			L-1297.34-32.52z"/>
		<path class="st5" d="M-1294.75-21.79c-0.53-0.7-1.14-1.4-1.77-2.11l0,0c-0.29-0.32-0.57-0.63-0.84-0.92
			c-0.25-0.27-0.48-0.53-0.71-0.77c-0.05-0.06-0.1-0.12-0.16-0.17l0,0c-0.33-0.36-0.62-0.68-0.9-0.97l0,0
			c-0.91-0.95-1.69-1.62-2.7-1.99c-2.09-0.78-4.04-0.09-4.85,1.7c-0.57,1.25-0.38,2.61,0.5,3.64c0.94,1.1,2.41,1.53,3.85,1.13
			c0.79-0.22,1.6-0.83,2.33-1.55c-0.33-0.36-0.62-0.68-0.89-0.97c-0.57,0.56-1.23,1.1-1.79,1.25c-0.93,0.26-1.89-0.02-2.49-0.72
			c-0.55-0.64-0.65-1.45-0.3-2.24c0.41-0.91,1.19-1.23,1.99-1.23c0.42,0,0.83,0.09,1.21,0.23c0.59,0.22,1.11,0.59,1.68,1.13
			c0,0,0,0,0,0c0.49,0.47,1.01,1.03,1.6,1.69c0.22,0.24,0.46,0.5,0.71,0.77c0.84,0.92,1.81,2.01,2.68,3.16
			c1.58,2.12,2.5,4.15,1.59,5.81c-0.86,1.57-2.47,1.81-3.59,1.53c-1.12-0.27-2.34-1.17-2.38-2.89c-0.04-1.71,0.83-2.72,2.58-4.62
			c-0.28-0.34-0.57-0.67-0.86-1.01c-1.93,2.1-3.09,3.39-3.03,5.66c0.05,2.03,1.38,3.65,3.39,4.14c0.35,0.09,0.73,0.13,1.11,0.13
			c1.46,0,3.05-0.66,3.95-2.31C-1291.55-16.7-1292.92-19.42-1294.75-21.79"/>
	</g>
	<g class="st14">
		<g>
			<path class="st1" d="M-1032.74,70.8c4.13,23.39,8.26,46.78,12.4,70.18c0.33,1.88,3.2,1.09,2.87-0.79
				c-4.13-23.39-8.26-46.78-12.4-70.18C-1030.2,68.13-1033.07,68.93-1032.74,70.8L-1032.74,70.8z"/>
		</g>
	</g>
	<g class="st14">
		<g>
			<path class="st1" d="M-886.12,95.64c-7.54,8.59-18.84,14.53-28.43,20.55c-9.36,5.88-20.09,9.47-30.64,12.54
				c-20.65,6.02-42.05,9.93-63.38,12.58c-1.88,0.23-1.9,3.21,0,2.98c22.04-2.74,44.16-6.73,65.46-13.07
				c10.34-3.08,20.88-6.7,30.07-12.46c9.8-6.15,21.32-12.23,29.03-21.02C-882.75,96.31-884.85,94.2-886.12,95.64L-886.12,95.64z"/>
		</g>
	</g>
	<circle class="st23" cx="-1109.5" cy="119.95" r="7.12"/>
	<circle class="st23" cx="-1029.36" cy="70.41" r="7.12"/>
	<circle class="st23" cx="-1099.33" cy="57.79" r="7.12"/>
	<g class="st14">
		<g>
			<path class="st1" d="M-1117.14,118.05c-17.56,0.39-35.12,0.4-52.68,0.03c-1.92-0.04-1.92,2.94,0,2.98
				c17.56,0.36,35.12,0.35,52.68-0.03C-1115.23,120.99-1115.22,118.01-1117.14,118.05L-1117.14,118.05z"/>
		</g>
	</g>
	<g class="st14">
		
			<text transform="matrix(1 0 0 1 -961.4656 81.8781)" class="st5" style="font-family:'HurmeGeometricSans4-Regular'; font-size:9px;">Chedraui</text>
	</g>
	<path class="st24" d="M-1247.36-14.36"/>
	<g class="st14">
		<defs>
			<rect id="SVGID_5_" x="-1342.97" y="-90.88" width="592.94" height="408.71"/>
		</defs>
		<clipPath id="SVGID_7_">
			<use xlink:href="#SVGID_5_"  style="overflow:visible;"/>
		</clipPath>
		<g style="clip-path:url(#SVGID_7_);">
			<g>
				<path class="st1" d="M-1224.82-114.48c-3.35,21.09-13.51,40.95-19.87,61.22c-4.17,13.31-3.96,27.36-3.51,41.19
					c0.52,15.93,4.54,30.81,8.03,46.25c1.76,7.8,3.18,15.74,3.02,23.77c-0.15,8.17-2.36,15.75-5.41,23.26
					c-2.78,6.85-6.02,13.59-7.72,20.82c-1.74,7.4-1.87,15.05-1.64,22.61c0.65,21.82,1.92,43.63,2.7,65.45
					c0.87,24.51,1.94,49.15,1,73.67c-0.07,1.92,2.9,1.91,2.98,0c1.64-42.73-1.38-85.79-3.26-128.47c-0.67-15.25-0.92-29.4,4.85-43.8
					c2.75-6.86,6.03-13.58,7.83-20.78c1.77-7.09,1.98-14.45,1.23-21.69c-1.57-15.08-6.85-29.44-9.17-44.39
					c-1.35-8.69-1.62-17.48-1.59-26.26c0.03-8.24-0.17-16.74,1.79-24.8c5.55-22.82,17.89-43.93,21.6-67.24
					C-1221.66-115.56-1224.52-116.37-1224.82-114.48L-1224.82-114.48z"/>
			</g>
		</g>
		<g style="clip-path:url(#SVGID_7_);">
			<g>
				<path class="st1" d="M-1087.49,304.74c13.68-33.52,28.98-66.47,44.58-99.12c8.14-17.03,16.41-34.04,25.51-50.59
					c10.81-19.67,24.76-37.3,37.25-55.91c34.12-50.84,74.12-97.39,111.4-145.88c9.23-12,18.3-24.12,27.09-36.45
					c4.31-6.05,8.54-12.15,12.68-18.31c1.93-2.88,3.65-6.12,5.83-8.81c0,0-1.1,0.28,0.2-0.45c5.1-2.85,12.05-4.08,17.58-5.95
					c7.13-2.41,14.25-4.83,21.38-7.24c0.93-0.31,4.75-0.95,5.3-1.8c0.34-0.52-1.87-0.54-1.76-0.28c0.13,0.29,1.2,0.64,1.46,0.8
					c5.03,3.09,10.45,5.69,15.64,8.5c15.37,8.29,30.74,16.67,46.51,24.16c2.46,1.17,4.93,2.29,7.45,3.31
					c3.55,1.43,5.1-4.32,1.58-5.74c-14.95-6.03-29.2-14.38-43.4-21.96c-6.83-3.65-13.65-7.33-20.46-11.04
					c-2.45-1.33-5.63-3.97-8.53-3.51c-5.04,0.8-10.38,3.52-15.2,5.15c-7.5,2.54-15.01,5.08-22.51,7.62
					c-2.25,0.76-4.56,1.44-6.78,2.3c-3.06,1.19-4.23,4.11-6.01,6.81c-8.36,12.69-17.14,25.1-26.16,37.32
					c-37.01,50.19-77.96,97.36-114.27,148.07c-9.05,12.64-17.52,25.68-26.51,38.37c-6.55,9.25-13.44,18.32-19.27,28.05
					c-8.97,14.98-16.69,30.73-24.35,46.4c-17.12,35.03-33.41,70.55-48.58,106.47c-1.14,2.7-2.27,5.41-3.38,8.13
					C-1094.68,306.7-1088.93,308.24-1087.49,304.74L-1087.49,304.74z"/>
			</g>
		</g>
		<path style="clip-path:url(#SVGID_7_);fill:none;stroke:#103E68;stroke-width:6;stroke-miterlimit:10;" d="M-922.26,300.15
			l-71.62,13.6l-100.48-12.8l-152.37-37.19c0,0-104.64-5.73-215.38-36.51c-114.3-31.77-114.18-12.07-249.63-21.44
			c-94.25-6.52-111.85,35.49-111.85,35.49"/>
		<polyline style="clip-path:url(#SVGID_7_);fill:none;stroke:#103E68;stroke-width:6;stroke-miterlimit:10;" points="
			-2054.94,-633.87 -1061.17,-14.14 -1033.23,-5.87 -635.96,265.58 		"/>
		<g style="clip-path:url(#SVGID_7_);">
			<g>
				<path class="st27" d="M-845.43,208.44c-15.07,104.82-42.42,207.24-66.67,310.16c-6.81,28.89-13.36,57.85-19.34,86.92
					c-0.77,3.74,4.97,5.34,5.74,1.58c21.34-103.66,50.06-205.65,70.81-309.44c5.82-29.08,10.98-58.29,15.2-87.64
					C-839.15,206.28-844.89,204.66-845.43,208.44L-845.43,208.44z"/>
			</g>
		</g>
		<path style="clip-path:url(#SVGID_7_);fill:none;stroke:#C0BFBD;stroke-width:9;stroke-miterlimit:10;" d="M-807.92,130.82
			l39.47-64.84l104.31-272.05l18.32-18.32l112.77-8.46h54.97c0,0,95.85,63.43,174.79,77.53c78.94,14.1,143.78,60.61,143.78,60.61
			l49.34,50.75l31.01,118.4l-43.7,356.63c0,0-19.73,46.52-56.38,63.43c-36.65,16.92-207.21,170.56-207.21,170.56l-150.83,104.31
			c0,0-166.33,119.82-234,77.53c-67.66-42.29-225.53-370.72-225.53-370.72s-26.79-18.32,9.86-63.43
			c36.65-45.11,70.48-100.08,70.48-118.41c0-18.32,40.87-52.15,40.87-52.15L-807.92,130.82z"/>
	</g>
	<g class="st14">
		<g>
			<path class="st16" d="M-1248.15-11.99c0.41,9.42,1.48,18.56,3.55,27.77c2.49,11.08,5.68,22,7.04,33.3c0.23,1.88,3.21,1.9,2.98,0
				c-1.24-10.29-3.89-20.27-6.28-30.34c-2.41-10.19-3.85-20.27-4.31-30.73C-1245.25-13.89-1248.23-13.91-1248.15-11.99
				L-1248.15-11.99z"/>
		</g>
	</g>
	<circle class="st29" cx="-1235.61" cy="50.67" r="7.12"/>
	<circle class="st29" cx="-1247.36" cy="-14.36" r="7.12"/>
	<circle class="st30" cx="-1250.01" cy="109.46" r="4.94"/>
	<circle class="st23" cx="-1247.36" cy="262.84" r="7.12"/>
	<circle class="st23" cx="-1247.36" cy="206.8" r="7.12"/>
	<circle class="st23" cx="-1089.81" cy="303.15" r="7.12"/>
	<circle class="st23" cx="-1014" cy="142.73" r="7.12"/>
	<line class="st31" x1="-950.63" y1="50.6" x2="-818.98" y2="140.53"/>
	<circle class="st23" cx="-948.63" cy="50.6" r="10.13"/>
	<g class="st14">
		
			<text transform="matrix(0.5122 -0.8588 0.8588 0.5122 -851.4133 211.5059)" class="st1" style="font-family:'HurmeGeometricSans4-Bold'; font-size:10px;">PERIFÈRICO DE MÉRIDA</text>
	</g>
	<g class="st14">
		
			<text transform="matrix(1 0 0 1 -963.175 86.0613)" class="st1" style="font-family:'HurmeGeometricSans4-Regular'; font-size:9.8167px;">Chedraui</text>
	</g>
	<g class="st14">
		
			<text transform="matrix(0.8243 0.5661 -0.5661 0.8243 -877.928 119.8128)" class="st1" style="font-family:'HurmeGeometricSans4-Regular'; font-size:9.8167px;">Walmart</text>
	</g>
	<g class="st14">
		<text transform="matrix(1 0 0 1 -1067.0063 149.8513)"><tspan x="0" y="0" class="st1" style="font-family:'HurmeGeometricSans4-Regular'; font-size:9.8167px;">Bodega</tspan><tspan x="0.38" y="8.73" class="st1" style="font-family:'HurmeGeometricSans4-Regular'; font-size:9.8167px;">Aurrera</tspan></text>
	</g>
	<g class="st14">
		
			<text transform="matrix(1 0 0 1 -1017.3177 297.0327)" class="st1" style="font-family:'HurmeGeometricSans4-Regular'; font-size:9.8167px;">Animaya</text>
	</g>
	<circle class="st32" cx="-1091.36" cy="70.68" r="2.88"/>
	<g class="st14">
		<text transform="matrix(1 0 0 1 -1086.1449 81.013)"><tspan x="0" y="0" class="st1" style="font-family:'HurmeGeometricSans4-Regular'; font-size:9px;">Unidad </tspan><tspan x="-11.72" y="8.73" class="st1" style="font-family:'HurmeGeometricSans4-Regular'; font-size:9px;">Deportiva de </tspan><tspan x="-13.86" y="17.45" class="st1" style="font-family:'HurmeGeometricSans4-Regular'; font-size:9px;">Ciudad Caucel</tspan></text>
	</g>
	<circle class="st32" cx="-1108.04" cy="45.83" r="2.88"/>
	<g class="st14">
		<text transform="matrix(1 0 0 1 -1168.9834 30.158)"><tspan x="0" y="0" class="st1" style="font-family:'HurmeGeometricSans4-Regular'; font-size:9px;">Centro Acuático</tspan><tspan x="11.62" y="8.73" class="st1" style="font-family:'HurmeGeometricSans4-Regular'; font-size:9px;">de Mérida</tspan></text>
	</g>
</g>
<path class="st33" d="M-769.46-215.78l-26.03-31.36c-1.62,1.9-3.25,3.73-4.84,5.49l21.49,25.87l-21.49,25.87
	c1.59,1.76,3.21,3.59,4.84,5.49l21.34-25.69L-769.46-215.78 M-769.46-215.78 M-774.15-215.76l-0.02-0.01l0.02-0.01l0.02,0.01
	L-774.15-215.76z"/>
<path class="st33" d="M-809.51-231.57c-1.76,1.93-3.39,3.7-4.95,5.32l9.26,10.47l-9.26,10.47c1.56,1.62,3.19,3.39,4.95,5.32
	l13.97-15.79L-809.51-231.57z"/>
<path class="st1" d="M-697.46-196.3c-2,0-3.62-1.62-3.62-3.62c0-2,1.62-3.61,3.62-3.61c2,0,3.62,1.62,3.62,3.61
	C-693.84-197.92-695.46-196.3-697.46-196.3"/>
<path class="st2" d="M-678.28-220.67c-1.03-1.2-2.35-2.1-4.09-2.97c0-0.01,0.01-0.01,0.01-0.02c-1.57-0.77-3.38-1.5-5.48-2.36
	c-0.78-0.32-1.61-0.65-2.49-1.01c-2.94-1.22-6.41-2.58-9.94-3.66l0,0c-6.53-1.97-12.28-2.42-15.49,1.26
	c-2.33,2.67-2.34,5.72-1.47,8.1c0.25,0.7,0.58,1.33,0.96,1.89c1.65,2.46,4.88,4.58,9.04,3.17c4.14-1.4,5.79-4.4,8.82-10.28
	c1.05,0.37,2.11,0.77,3.18,1.19c-3.35,6.49-5.42,10.41-10.92,12.28c-4.91,1.67-9.99-0.1-12.93-4.49c-2.49-3.72-3.22-9.51,0.78-14.09
	c4.64-5.32,12.46-4.37,19.8-2.05l0,0c2.12,0.65,4.3,1.5,6.51,2.37l0,0c1.02,0.41,2.01,0.82,2.95,1.21c0.88,0.36,1.7,0.7,2.48,1.01
	c0.19,0.08,0.37,0.15,0.55,0.22l0.01-0.02c1.16,0.47,2.19,0.89,3.13,1.3l-0.01,0.02c3.1,1.35,5.38,2.64,7.17,4.73L-678.28-220.67z"
	/>
<g>
	<path class="st0" d="M-844.88-82.75v-8.67h7.96c10.62,0,19.26-8.64,19.26-19.26s-8.64-19.26-19.26-19.26h-7.96v-8.67h7.96
		c15.4,0,27.93,12.53,27.93,27.93s-12.53,27.93-27.93,27.93H-844.88z"/>
</g>
<g>
	<path class="st1" d="M-749.05-128.62h8.67v7.96c0,10.62,8.64,19.26,19.26,19.26c10.62,0,19.26-8.64,19.26-19.26v-7.96h8.67v7.96
		c0,15.4-12.53,27.93-27.93,27.93c-15.4,0-27.93-12.53-27.93-27.93V-128.62z"/>
</g>
<g>
	<g>
		<g>
			<path class="st5" d="M-294.12-159.66c-0.36,0-0.63,0.13-0.81,0.37c-0.18,0.25-0.26,0.61-0.26,1.1c0,0.48,0.09,0.85,0.26,1.09
				s0.45,0.37,0.81,0.37c0.36,0,0.63-0.12,0.8-0.37c0.17-0.25,0.26-0.62,0.26-1.09c0-0.48-0.09-0.85-0.26-1.1
				C-293.49-159.53-293.76-159.66-294.12-159.66z"/>
			<polygon class="st5" points="-311.85,-157.72 -310.82,-157.72 -311.34,-159.44 			"/>
			<path class="st5" d="M-306.08-187.93c0.11-0.11,0.16-0.26,0.16-0.45c0-0.18-0.06-0.33-0.17-0.43c-0.12-0.1-0.32-0.15-0.6-0.15
				h-0.62v1.2h0.66C-306.38-187.77-306.19-187.83-306.08-187.93z"/>
			<path class="st5" d="M-294.74-187.86c0.11-0.1,0.17-0.26,0.17-0.47c0-0.21-0.06-0.36-0.17-0.46c-0.11-0.1-0.31-0.15-0.59-0.15
				h-0.57v1.24h0.57C-295.05-187.7-294.85-187.76-294.74-187.86z"/>
			<path class="st5" d="M-305.58-159.65h-0.62v1.2h0.66c0.27,0,0.46-0.05,0.57-0.16c0.11-0.11,0.17-0.26,0.17-0.45
				c0-0.19-0.06-0.33-0.18-0.43C-305.09-159.6-305.29-159.65-305.58-159.65z"/>
			<path class="st5" d="M-300.02-159.65h-0.62v1.2h0.66c0.27,0,0.46-0.05,0.57-0.16c0.11-0.11,0.17-0.26,0.17-0.45
				c0-0.19-0.06-0.33-0.18-0.43C-299.54-159.6-299.74-159.65-300.02-159.65z"/>
			<polygon class="st5" points="-323.05,-171.41 -320.74,-171.41 -321.88,-175.2 			"/>
			<path class="st5" d="M-277.99-159.66c-0.36,0-0.63,0.13-0.8,0.37c-0.18,0.25-0.27,0.61-0.27,1.1c0,0.48,0.09,0.85,0.27,1.09
				c0.18,0.25,0.44,0.37,0.8,0.37c0.36,0,0.63-0.12,0.8-0.37c0.18-0.25,0.26-0.62,0.26-1.09c0-0.48-0.09-0.85-0.26-1.1
				C-277.36-159.53-277.63-159.66-277.99-159.66z"/>
			<polygon class="st5" points="-282.61,-171.41 -280.29,-171.41 -281.44,-175.2 			"/>
			<path class="st5" d="M-328.13-159.55h-0.64v2.73h0.57c0.41,0,0.71-0.12,0.9-0.36c0.19-0.24,0.29-0.58,0.29-1.02
				c0-0.44-0.09-0.77-0.27-1.01C-327.45-159.44-327.73-159.55-328.13-159.55z"/>
			<path class="st5" d="M-289.55-186.04c0.36,0,0.63-0.13,0.8-0.37c0.17-0.25,0.26-0.61,0.26-1.09s-0.09-0.85-0.26-1.1
				c-0.18-0.25-0.44-0.37-0.8-0.37s-0.63,0.12-0.81,0.37c-0.18,0.25-0.27,0.61-0.27,1.1s0.09,0.85,0.27,1.09
				C-290.18-186.16-289.91-186.04-289.55-186.04z"/>
			<path class="st5" d="M-245.08-190.52c-0.01-0.07-0.03-0.14-0.04-0.21c-0.03-0.15-0.07-0.29-0.11-0.43
				c-0.02-0.08-0.05-0.16-0.08-0.23c-0.05-0.12-0.1-0.25-0.16-0.37c-0.04-0.08-0.08-0.15-0.11-0.22c-0.07-0.12-0.14-0.23-0.22-0.34
				c-0.05-0.06-0.09-0.13-0.14-0.19c-0.09-0.12-0.2-0.23-0.3-0.34c-0.04-0.04-0.08-0.09-0.12-0.13c-0.15-0.14-0.31-0.28-0.48-0.4
				c-0.04-0.03-0.09-0.05-0.13-0.08c-0.11-0.07-0.22-0.15-0.34-0.21l-0.05-0.02c-0.23-0.12-0.47-0.22-0.72-0.29l-0.03-0.01
				l-49.86-19.94c-0.21-0.1-0.42-0.2-0.65-0.28c-0.7-0.26-1.46-0.41-2.26-0.41c-0.11,0-0.21,0.02-0.31,0.03
				c-0.1-0.01-0.2-0.03-0.31-0.03c-0.8,0-1.56,0.14-2.26,0.41c-0.22,0.08-0.44,0.18-0.65,0.28l-25.98,10.39v-7.62
				c0-1.89-1.53-3.42-3.42-3.42h-9.81c-1.89,0-3.42,1.53-3.42,3.42v14.28l-7.23,2.89l-0.03,0.01c-0.25,0.07-0.49,0.18-0.72,0.29
				l-0.06,0.02c-0.12,0.06-0.23,0.14-0.34,0.21c-0.04,0.03-0.09,0.05-0.13,0.08c-0.17,0.12-0.33,0.25-0.48,0.4
				c-0.04,0.04-0.08,0.09-0.12,0.13c-0.1,0.11-0.21,0.22-0.3,0.34c-0.05,0.06-0.09,0.13-0.14,0.19c-0.07,0.11-0.15,0.22-0.21,0.34
				c-0.04,0.07-0.08,0.14-0.12,0.22c-0.06,0.12-0.11,0.24-0.16,0.37c-0.03,0.07-0.06,0.15-0.08,0.23c-0.04,0.14-0.08,0.28-0.11,0.43
				c-0.02,0.07-0.03,0.14-0.04,0.21c-0.03,0.22-0.05,0.44-0.05,0.66v44.12c0,2.37,1.92,4.29,4.29,4.29h103.76
				c2.37,0,4.29-1.92,4.29-4.29v-44.12C-245.02-190.09-245.04-190.31-245.08-190.52z M-291.85-188.59c0.11-0.33,0.27-0.6,0.48-0.83
				c0.21-0.23,0.47-0.4,0.78-0.53c0.31-0.12,0.66-0.19,1.06-0.19c0.39,0,0.74,0.06,1.04,0.18c0.3,0.12,0.56,0.29,0.77,0.52
				c0.21,0.22,0.37,0.5,0.47,0.82c0.11,0.32,0.16,0.68,0.16,1.08c0,0.41-0.06,0.77-0.17,1.1c-0.11,0.33-0.27,0.6-0.48,0.83
				c-0.21,0.23-0.47,0.4-0.78,0.53c-0.31,0.12-0.66,0.18-1.06,0.18c-0.39,0-0.74-0.06-1.04-0.18c-0.3-0.12-0.56-0.29-0.77-0.52
				c-0.21-0.22-0.37-0.5-0.47-0.82c-0.11-0.32-0.16-0.68-0.16-1.08C-292.02-187.89-291.96-188.26-291.85-188.59z M-308.59-190.01
				h1.97c0.39,0,0.71,0.04,0.97,0.13c0.26,0.09,0.46,0.21,0.61,0.35c0.15,0.15,0.26,0.32,0.32,0.51c0.06,0.19,0.09,0.39,0.09,0.59
				c0,0.32-0.06,0.6-0.18,0.84c-0.12,0.24-0.31,0.43-0.56,0.58l1.02,1.99h-1.42l-0.82-1.72h-0.73v1.72h-1.28V-190.01z
				 M-314.66-188.6c0.11-0.33,0.27-0.61,0.47-0.83c0.2-0.23,0.46-0.4,0.76-0.52c0.3-0.12,0.65-0.18,1.03-0.18
				c0.34,0,0.63,0.05,0.87,0.13c0.25,0.09,0.46,0.21,0.63,0.36c0.17,0.15,0.31,0.32,0.4,0.52c0.1,0.2,0.16,0.4,0.2,0.62l-1.34,0.13
				c-0.05-0.21-0.14-0.37-0.26-0.47c-0.12-0.1-0.29-0.15-0.52-0.15c-0.35,0-0.61,0.12-0.77,0.37c-0.17,0.25-0.25,0.62-0.25,1.11
				c0,0.5,0.09,0.87,0.27,1.12c0.18,0.25,0.48,0.37,0.91,0.37c0.3,0,0.56-0.06,0.79-0.18v-0.58h-0.8v-1.08h2.04v2.28
				c-0.25,0.2-0.56,0.37-0.92,0.5c-0.37,0.13-0.78,0.2-1.22,0.2c-0.41,0-0.77-0.06-1.08-0.18c-0.3-0.13-0.56-0.3-0.76-0.53
				c-0.2-0.23-0.35-0.5-0.46-0.82c-0.1-0.32-0.15-0.68-0.15-1.07C-314.82-187.89-314.76-188.27-314.66-188.6z M-334.54-167.18
				c-1.37,0-2.59-0.34-3.64-1.23c-1.8-1.51-1.93-3.65-1.93-4.41c0-0.65,0.08-2.14,1.11-3.59c1.48-2.08,3.53-2.24,4.47-2.24
				c2.45,0,3.91,1.28,4.5,1.96c0.32,0.37,0.47,0.62,0.7,1.04l-2.85,1.41c-0.05-0.11-0.11-0.21-0.15-0.32
				c-0.18-0.37-0.71-1.48-2.08-1.46c-0.62,0-1.02,0.23-1.23,0.38c-1.07,0.79-1.02,2.34-1.02,2.62c0,1.47,0.47,2.26,0.99,2.68
				c0.53,0.41,1.02,0.42,1.28,0.42c1.17,0,1.72-0.79,1.93-1.15c0.08-0.15,0.14-0.29,0.24-0.61l2.91,1.4
				c-0.38,0.7-0.58,0.97-0.84,1.28C-330.79-168.28-332.15-167.18-334.54-167.18z M-326.29-156.35c-0.45,0.44-1.09,0.66-1.93,0.66
				h-1.89v-5h1.97c0.83,0,1.46,0.21,1.89,0.62c0.43,0.42,0.64,1.02,0.64,1.82C-325.61-157.42-325.84-156.79-326.29-156.35z
				 M-320.46-155.69h-3.61v-5h3.58v1.1h-2.27v0.8h2.13v1.11h-2.13v0.88h2.42L-320.46-155.69z M-320.04-169.02h-3.74l-0.47,1.5h-3.65
				l4.11-10.74h3.86l4.02,10.74h-3.65L-320.04-169.02z M-314.98-156.53c-0.08,0.2-0.21,0.37-0.39,0.52
				c-0.17,0.14-0.39,0.25-0.66,0.33c-0.26,0.08-0.58,0.12-0.94,0.12c-1.39-0.01-2.11-0.6-2.18-1.77h1.34
				c0.03,0.23,0.11,0.4,0.26,0.52c0.14,0.12,0.36,0.17,0.64,0.17c0.24,0,0.42-0.04,0.54-0.13c0.12-0.08,0.18-0.2,0.18-0.36
				c0-0.12-0.04-0.21-0.12-0.29c-0.08-0.08-0.22-0.14-0.43-0.18l-0.67-0.12c-0.56-0.1-0.97-0.28-1.23-0.52
				c-0.27-0.24-0.4-0.58-0.4-1.01c0-0.52,0.18-0.91,0.54-1.17c0.36-0.26,0.85-0.39,1.47-0.39c0.36,0,0.67,0.04,0.93,0.13
				c0.26,0.08,0.47,0.19,0.63,0.34c0.16,0.14,0.29,0.3,0.37,0.49c0.08,0.18,0.14,0.38,0.16,0.58l-1.3,0.13
				c-0.04-0.2-0.12-0.35-0.24-0.45c-0.12-0.1-0.31-0.15-0.56-0.15c-0.23,0-0.4,0.04-0.51,0.12c-0.11,0.08-0.17,0.18-0.17,0.31
				c0,0.12,0.05,0.21,0.13,0.28c0.09,0.07,0.23,0.12,0.43,0.16l0.68,0.13c0.59,0.12,1.01,0.3,1.25,0.56
				c0.25,0.26,0.37,0.59,0.37,0.98C-314.85-156.95-314.89-156.73-314.98-156.53z M-314.83-169.57l2.6-1.66
				c0.23,0.37,0.37,0.53,0.52,0.66c0.61,0.53,1.73,0.76,2.48,0.76c0.96,0,1.63-0.29,1.63-0.82c0-0.12-0.06-0.21-0.08-0.26
				c-0.08-0.15-0.2-0.29-0.52-0.4c-0.38-0.14-1.07-0.23-2.02-0.42c-1.48-0.29-2.27-0.65-2.78-1.11c-0.33-0.29-0.94-1-0.93-2.17
				c0-0.29,0.02-0.95,0.4-1.63c1.09-2.01,3.94-1.98,4.35-1.98c0.55,0,2.48,0.03,4.02,1.16c0.34,0.24,0.53,0.46,0.82,0.75l-2.15,1.78
				c-0.14-0.18-0.21-0.27-0.3-0.35c-0.62-0.58-1.7-0.75-2.51-0.75c-0.08,0-0.49,0-0.81,0.14c-0.06,0.03-0.43,0.2-0.43,0.56
				c0,0.2,0.12,0.38,0.27,0.49c0.27,0.17,0.91,0.29,1.2,0.34c0.38,0.06,1.39,0.2,2.45,0.55c0.67,0.22,2.33,0.81,2.33,2.95
				c0,1.6-0.94,2.47-1.42,2.81c-1.39,1.02-3.2,0.99-3.65,0.99c-1.57,0-3.06-0.26-4.34-1.22
				C-314.17-168.78-314.46-169.1-314.83-169.57z M-310.21-155.69l-0.29-0.96h-1.69l-0.28,0.96h-1.35l1.74-5h1.53l1.74,5H-310.21z
				 M-304.65-155.69l-0.82-1.72h-0.73v1.72h-1.28v-5h1.97c0.39,0,0.71,0.04,0.97,0.13c0.26,0.09,0.46,0.21,0.61,0.35
				c0.15,0.15,0.26,0.32,0.32,0.51c0.06,0.19,0.09,0.39,0.09,0.59c0,0.32-0.06,0.6-0.18,0.84c-0.12,0.24-0.31,0.44-0.56,0.58l1.02,2
				H-304.65z M-302.98-186.08c-0.09-0.28-0.14-0.61-0.14-1v-2.93h1.34v2.98c0,0.34,0.06,0.58,0.17,0.75
				c0.12,0.16,0.32,0.24,0.6,0.24c0.28,0,0.48-0.08,0.59-0.24c0.12-0.16,0.18-0.41,0.18-0.75v-2.98h1.34v2.93
				c0,0.39-0.05,0.72-0.15,1c-0.1,0.28-0.24,0.51-0.42,0.68c-0.18,0.18-0.4,0.31-0.67,0.39c-0.26,0.08-0.56,0.13-0.89,0.13
				c-0.33,0-0.63-0.04-0.89-0.13c-0.26-0.08-0.48-0.21-0.66-0.39C-302.75-185.58-302.88-185.8-302.98-186.08z M-301.95-178.26h3.41
				v10.74h-3.41V-178.26z M-299.09-155.69l-0.82-1.72h-0.73v1.72h-1.28v-5h1.97c0.39,0,0.71,0.04,0.97,0.13
				c0.26,0.09,0.46,0.21,0.62,0.35c0.15,0.15,0.26,0.32,0.32,0.51c0.06,0.19,0.09,0.39,0.09,0.59c0,0.32-0.06,0.6-0.18,0.84
				c-0.12,0.24-0.31,0.44-0.56,0.58l1.02,2H-299.09z M-297.2-190.01h1.87c0.39,0,0.72,0.04,0.98,0.13c0.26,0.09,0.47,0.21,0.62,0.36
				c0.15,0.15,0.26,0.33,0.32,0.53c0.06,0.2,0.09,0.42,0.09,0.64c0,0.23-0.03,0.45-0.09,0.66c-0.06,0.21-0.17,0.39-0.33,0.55
				c-0.15,0.16-0.36,0.28-0.61,0.37c-0.25,0.09-0.57,0.13-0.95,0.13h-0.58v1.62h-1.3V-190.01z M-291.83-157.11
				c-0.11,0.33-0.27,0.6-0.48,0.83c-0.21,0.23-0.47,0.41-0.78,0.53c-0.31,0.13-0.66,0.19-1.06,0.19c-0.39,0-0.74-0.06-1.04-0.18
				c-0.3-0.12-0.56-0.29-0.77-0.52c-0.21-0.22-0.37-0.5-0.47-0.82c-0.11-0.32-0.16-0.68-0.16-1.09c0-0.4,0.06-0.77,0.17-1.1
				c0.11-0.33,0.27-0.6,0.48-0.83c0.21-0.23,0.47-0.41,0.78-0.53c0.31-0.12,0.66-0.18,1.06-0.18c0.39,0,0.74,0.06,1.04,0.18
				c0.3,0.12,0.56,0.29,0.77,0.52c0.21,0.23,0.36,0.5,0.47,0.82c0.11,0.32,0.16,0.68,0.16,1.09
				C-291.66-157.8-291.72-157.44-291.83-157.11z M-290.52-167.52h-3.39v-8.09h-2.74v-2.65h8.85v2.65h-2.72V-167.52z M-286.68-155.69
				h-3.44v-5h1.34v3.86h2.21L-286.68-155.69z M-281.76-155.69h-3.44v-5h1.34v3.86h2.21L-281.76-155.69z M-275.69-157.11
				c-0.11,0.33-0.27,0.6-0.48,0.83c-0.21,0.23-0.47,0.41-0.78,0.53c-0.31,0.13-0.66,0.19-1.06,0.19c-0.39,0-0.74-0.06-1.04-0.18
				c-0.3-0.12-0.56-0.29-0.77-0.52c-0.21-0.22-0.36-0.5-0.47-0.82c-0.11-0.32-0.16-0.68-0.16-1.09c0-0.4,0.05-0.77,0.16-1.1
				c0.11-0.33,0.27-0.6,0.48-0.83c0.21-0.23,0.47-0.41,0.78-0.53c0.31-0.12,0.66-0.18,1.05-0.18c0.39,0,0.74,0.06,1.04,0.18
				c0.3,0.12,0.56,0.29,0.77,0.52c0.21,0.23,0.37,0.5,0.47,0.82c0.11,0.32,0.16,0.68,0.16,1.09
				C-275.53-157.8-275.58-157.44-275.69-157.11z M-279.12-167.52l-0.47-1.5h-3.74l-0.47,1.5h-3.65l4.11-10.74h3.86l4.02,10.74
				H-279.12z M-270.09-156.53c-0.08,0.2-0.21,0.37-0.39,0.52c-0.17,0.14-0.39,0.25-0.66,0.33c-0.27,0.08-0.58,0.12-0.94,0.12
				c-1.39-0.01-2.12-0.6-2.18-1.77h1.34c0.03,0.23,0.12,0.4,0.26,0.52c0.14,0.12,0.36,0.17,0.64,0.17c0.24,0,0.42-0.04,0.53-0.13
				c0.12-0.08,0.18-0.2,0.18-0.36c0-0.12-0.04-0.21-0.12-0.29c-0.08-0.08-0.22-0.14-0.43-0.18l-0.67-0.12
				c-0.56-0.1-0.97-0.28-1.23-0.52c-0.26-0.24-0.4-0.58-0.4-1.01c0-0.52,0.18-0.91,0.53-1.17c0.36-0.26,0.85-0.39,1.47-0.39
				c0.36,0,0.67,0.04,0.93,0.13c0.26,0.08,0.47,0.19,0.63,0.34s0.29,0.3,0.37,0.49c0.08,0.18,0.14,0.38,0.16,0.58l-1.3,0.13
				c-0.04-0.2-0.12-0.35-0.24-0.45c-0.12-0.1-0.31-0.15-0.56-0.15c-0.23,0-0.4,0.04-0.51,0.12c-0.11,0.08-0.17,0.18-0.17,0.31
				c0,0.12,0.04,0.21,0.13,0.28c0.09,0.07,0.23,0.12,0.42,0.16l0.68,0.13c0.59,0.12,1.01,0.3,1.25,0.56
				c0.25,0.26,0.37,0.59,0.37,0.98C-269.96-156.95-270-156.73-270.09-156.53z M-264.93-168.19c-1.39,1.02-3.2,0.99-3.65,0.99
				c-1.57,0-3.06-0.26-4.33-1.22c-0.49-0.37-0.78-0.68-1.14-1.16l2.6-1.66c0.23,0.37,0.36,0.53,0.52,0.66
				c0.61,0.53,1.73,0.76,2.48,0.76c0.96,0,1.63-0.29,1.63-0.82c0-0.12-0.06-0.21-0.08-0.26c-0.08-0.15-0.2-0.29-0.52-0.4
				c-0.38-0.14-1.07-0.23-2.02-0.42c-1.48-0.29-2.27-0.65-2.79-1.11c-0.33-0.29-0.94-1-0.93-2.17c0-0.29,0.02-0.95,0.4-1.63
				c1.09-2.01,3.94-1.98,4.35-1.98c0.55,0,2.48,0.03,4.02,1.16c0.34,0.24,0.53,0.46,0.82,0.75l-2.15,1.78
				c-0.14-0.18-0.21-0.27-0.3-0.35c-0.62-0.58-1.7-0.75-2.51-0.75c-0.08,0-0.49,0-0.81,0.14c-0.06,0.03-0.43,0.2-0.43,0.56
				c0,0.2,0.12,0.38,0.28,0.49c0.27,0.17,0.91,0.29,1.2,0.34c0.38,0.06,1.39,0.2,2.45,0.55c0.67,0.22,2.33,0.81,2.33,2.95
				C-263.52-169.41-264.46-168.54-264.93-168.19z"/>
		</g>
		<g>
			<path class="st5" d="M-240.03-144.44h0.76c0.34,0,0.57-0.08,0.73-0.2c0.11-0.08,0.19-0.23,0.19-0.43c0-0.12-0.04-0.19-0.11-0.31
				c-0.04-0.08-0.15-0.15-0.27-0.19c-0.12-0.04-0.31-0.04-0.61-0.04h-0.69V-144.44z M-240.64-142.3v-3.84h1.3
				c0.46,0,0.76,0.04,0.95,0.12c0.23,0.08,0.38,0.19,0.5,0.35c0.12,0.19,0.19,0.39,0.19,0.58c0,0.27-0.11,0.54-0.3,0.74
				c-0.19,0.2-0.46,0.31-0.8,0.35c0.15,0.08,0.27,0.12,0.34,0.2c0.15,0.15,0.34,0.43,0.53,0.78l0.46,0.73h-0.73l-0.34-0.58
				c-0.27-0.46-0.46-0.78-0.65-0.89c-0.11-0.12-0.27-0.16-0.49-0.16h-0.35v1.63H-240.64z M-239.08-147.27
				c-0.5,0-0.99,0.16-1.45,0.39c-0.49,0.27-0.84,0.66-1.1,1.13c-0.27,0.47-0.42,0.97-0.42,1.47c0,0.54,0.15,1.01,0.42,1.51
				c0.23,0.46,0.61,0.81,1.07,1.09c0.46,0.27,0.95,0.39,1.49,0.39c0.5,0,0.99-0.12,1.45-0.39c0.46-0.27,0.84-0.62,1.07-1.09
				c0.27-0.51,0.38-0.97,0.38-1.51c0-0.5-0.11-1.01-0.38-1.47c-0.26-0.47-0.61-0.85-1.1-1.13
				C-238.13-147.11-238.62-147.27-239.08-147.27 M-239.08-147.85c0.57,0,1.14,0.15,1.72,0.47c0.57,0.31,0.99,0.74,1.29,1.32
				c0.34,0.58,0.5,1.17,0.5,1.79c0,0.62-0.15,1.24-0.46,1.78c-0.34,0.58-0.76,1.01-1.33,1.36c-0.54,0.31-1.11,0.46-1.72,0.46
				c-0.61,0-1.22-0.15-1.75-0.46c-0.57-0.35-0.99-0.78-1.33-1.36c-0.31-0.54-0.46-1.16-0.46-1.78c0-0.62,0.15-1.2,0.5-1.79
				c0.3-0.58,0.73-1.01,1.3-1.32C-240.26-147.7-239.69-147.85-239.08-147.85"/>
		</g>
	</g>
	<path class="st5" d="M-391.35-162.27h8.45l0.27-1.47h-7.05v-4.46h6.35v-1.49h-6.35v-4.06h6.71v-1.47h-8.38V-162.27z
		 M-404.44-163.72v-10.08h2.87c0.75,0,1.4,0.11,1.94,0.34c0.54,0.22,0.99,0.55,1.33,0.98c0.34,0.43,0.6,0.95,0.76,1.57
		c0.16,0.62,0.24,1.32,0.24,2.11c0,1.59-0.37,2.83-1.11,3.73c-0.74,0.9-1.91,1.35-3.52,1.35H-404.44z M-406.1-162.27h4.12
		c0.99,0,1.89-0.14,2.68-0.42c0.8-0.28,1.47-0.69,2.03-1.23c0.56-0.54,0.98-1.23,1.28-2.05c0.3-0.82,0.44-1.78,0.44-2.87
		c0-1.08-0.14-2.01-0.42-2.81c-0.28-0.8-0.67-1.46-1.19-1.99c-0.51-0.53-1.14-0.93-1.89-1.19c-0.74-0.26-1.59-0.39-2.53-0.39h-4.53
		V-162.27z M-423.99-163.77c-0.53-0.25-0.96-0.61-1.31-1.08c-0.35-0.47-0.61-1.03-0.79-1.69c-0.18-0.66-0.26-1.39-0.26-2.2
		c0-0.8,0.09-1.53,0.26-2.19c0.18-0.66,0.44-1.22,0.8-1.7c0.36-0.47,0.8-0.83,1.32-1.09c0.53-0.25,1.14-0.38,1.84-0.38
		c0.69,0,1.29,0.13,1.81,0.38c0.52,0.25,0.96,0.62,1.31,1.09c0.36,0.47,0.63,1.04,0.81,1.7c0.18,0.66,0.27,1.39,0.27,2.19
		c0,0.81-0.09,1.54-0.27,2.2c-0.18,0.66-0.45,1.22-0.8,1.69c-0.35,0.47-0.79,0.83-1.31,1.08c-0.53,0.25-1.13,0.38-1.82,0.38
		C-422.85-163.39-423.47-163.52-423.99-163.77 M-419.7-162.39c0.73-0.3,1.36-0.74,1.88-1.32c0.52-0.58,0.92-1.3,1.21-2.15
		c0.28-0.85,0.43-1.82,0.43-2.91c0-1.09-0.15-2.05-0.44-2.89c-0.29-0.84-0.7-1.55-1.21-2.12c-0.52-0.57-1.15-1.01-1.88-1.31
		s-1.54-0.44-2.42-0.44c-0.87,0-1.67,0.15-2.4,0.45c-0.73,0.3-1.36,0.74-1.89,1.32c-0.53,0.58-0.94,1.29-1.23,2.14
		c-0.3,0.85-0.44,1.81-0.44,2.9c0,1.09,0.15,2.06,0.44,2.9s0.7,1.56,1.22,2.13c0.53,0.57,1.15,1.01,1.89,1.31s1.54,0.44,2.42,0.44
		C-421.24-161.94-420.43-162.09-419.7-162.39 M-438.76-162.27h8.12l0.25-1.49h-6.71v-11.46h-1.67V-162.27z M-450.77-162.27h8.12
		l0.25-1.49h-6.71v-11.46h-1.67V-162.27z M-462.8-163.77c-0.53-0.25-0.96-0.61-1.31-1.08c-0.35-0.47-0.61-1.03-0.79-1.69
		c-0.18-0.66-0.26-1.39-0.26-2.2c0-0.8,0.09-1.53,0.26-2.19c0.18-0.66,0.44-1.22,0.8-1.7c0.36-0.47,0.8-0.83,1.32-1.09
		c0.53-0.25,1.14-0.38,1.84-0.38c0.69,0,1.29,0.13,1.81,0.38c0.52,0.25,0.96,0.62,1.31,1.09c0.36,0.47,0.63,1.04,0.81,1.7
		c0.18,0.66,0.27,1.39,0.27,2.19c0,0.81-0.09,1.54-0.27,2.2c-0.18,0.66-0.45,1.22-0.8,1.69c-0.35,0.47-0.79,0.83-1.31,1.08
		c-0.53,0.25-1.13,0.38-1.82,0.38C-461.65-163.39-462.27-163.52-462.8-163.77 M-458.5-162.39c0.73-0.3,1.36-0.74,1.88-1.32
		c0.52-0.58,0.92-1.3,1.21-2.15c0.28-0.85,0.43-1.82,0.43-2.91c0-1.09-0.15-2.05-0.44-2.89s-0.7-1.55-1.21-2.12
		c-0.52-0.57-1.15-1.01-1.88-1.31c-0.73-0.3-1.54-0.44-2.42-0.44c-0.87,0-1.67,0.15-2.4,0.45c-0.73,0.3-1.36,0.74-1.89,1.32
		c-0.53,0.58-0.94,1.29-1.23,2.14c-0.3,0.85-0.44,1.81-0.44,2.9c0,1.09,0.15,2.06,0.44,2.9c0.29,0.85,0.7,1.56,1.22,2.13
		c0.53,0.57,1.15,1.01,1.89,1.31s1.54,0.44,2.42,0.44C-460.05-161.94-459.23-162.09-458.5-162.39 M-477.9-169.05v-4.75h2.53
		c0.61,0,1.12,0.05,1.52,0.15c0.4,0.1,0.71,0.26,0.95,0.46c0.24,0.2,0.4,0.44,0.5,0.72c0.1,0.28,0.15,0.6,0.15,0.96
		c0,0.37-0.04,0.72-0.13,1.02c-0.08,0.31-0.24,0.56-0.45,0.77c-0.22,0.21-0.51,0.38-0.89,0.49c-0.37,0.11-0.85,0.17-1.43,0.17
		H-477.9z M-479.56-162.27h1.67v-5.37h2.55c0.14,0,0.31,0,0.49-0.01s0.35-0.02,0.51-0.05l2.44,5.42h1.86l-2.72-5.82
		c0.79-0.33,1.35-0.78,1.69-1.36c0.34-0.58,0.52-1.28,0.52-2.1c0-0.45-0.07-0.89-0.2-1.32c-0.13-0.44-0.38-0.83-0.73-1.17
		c-0.36-0.34-0.84-0.63-1.46-0.84s-1.41-0.33-2.38-0.33h-4.24V-162.27z M-491.17-169.05v-4.75h2.53c0.61,0,1.12,0.05,1.52,0.15
		c0.4,0.1,0.72,0.26,0.95,0.46c0.24,0.2,0.4,0.44,0.5,0.72c0.1,0.28,0.15,0.6,0.15,0.96c0,0.37-0.04,0.72-0.13,1.02
		c-0.08,0.31-0.24,0.56-0.45,0.77c-0.22,0.21-0.51,0.38-0.89,0.49c-0.37,0.11-0.85,0.17-1.43,0.17H-491.17z M-492.84-162.27h1.67
		v-5.37h2.55c0.14,0,0.31,0,0.49-0.01s0.35-0.02,0.51-0.05l2.44,5.42h1.86l-2.72-5.82c0.79-0.33,1.35-0.78,1.69-1.36
		c0.34-0.58,0.52-1.28,0.52-2.1c0-0.45-0.07-0.89-0.2-1.32c-0.13-0.44-0.38-0.83-0.73-1.17c-0.36-0.34-0.84-0.63-1.46-0.84
		c-0.62-0.22-1.41-0.33-2.38-0.33h-4.24V-162.27z M-504.5-167.33l2.25-6l2.28,6H-504.5z M-508.11-162.27h1.74l1.36-3.61h5.55
		l1.36,3.61h1.81l-5.02-12.95h-1.76L-508.11-162.27z M-521.07-165.95c0.06,0.7,0.23,1.31,0.51,1.81c0.28,0.51,0.65,0.92,1.11,1.25
		c0.46,0.33,1,0.57,1.62,0.72s1.31,0.23,2.08,0.23c0.8,0,1.49-0.1,2.09-0.29c0.59-0.19,1.09-0.46,1.48-0.8
		c0.39-0.34,0.69-0.73,0.89-1.19c0.2-0.45,0.3-0.94,0.3-1.46c0-1.14-0.31-2-0.95-2.58c-0.63-0.59-1.62-1.01-2.96-1.26l-1.82-0.33
		c-0.45-0.08-0.83-0.18-1.13-0.3c-0.31-0.11-0.55-0.26-0.74-0.44c-0.19-0.18-0.32-0.38-0.4-0.62c-0.08-0.24-0.12-0.51-0.12-0.83
		c0-0.29,0.05-0.57,0.15-0.83c0.1-0.26,0.28-0.48,0.52-0.67c0.24-0.19,0.57-0.34,0.96-0.44c0.4-0.11,0.9-0.16,1.49-0.16
		c0.52,0,0.96,0.05,1.33,0.15c0.36,0.1,0.67,0.24,0.92,0.43c0.25,0.19,0.45,0.42,0.6,0.71c0.15,0.28,0.28,0.61,0.37,0.97l1.56-0.31
		c-0.1-0.42-0.24-0.84-0.43-1.24c-0.19-0.4-0.46-0.76-0.83-1.08c-0.36-0.31-0.83-0.57-1.41-0.75c-0.57-0.19-1.29-0.28-2.15-0.28
		c-0.68,0-1.31,0.07-1.89,0.22c-0.58,0.15-1.08,0.37-1.51,0.67c-0.42,0.31-0.76,0.68-1.01,1.13c-0.25,0.45-0.37,0.97-0.37,1.56
		c0,0.6,0.09,1.12,0.26,1.54c0.18,0.42,0.44,0.78,0.78,1.06c0.34,0.28,0.76,0.52,1.26,0.7c0.5,0.18,1.06,0.33,1.7,0.44l1.63,0.29
		c0.48,0.08,0.88,0.2,1.19,0.34s0.55,0.31,0.73,0.51c0.18,0.19,0.29,0.41,0.35,0.65c0.06,0.24,0.09,0.48,0.09,0.73
		c0,0.31-0.05,0.61-0.15,0.9c-0.1,0.28-0.26,0.53-0.49,0.75c-0.23,0.21-0.53,0.38-0.92,0.51c-0.38,0.13-0.86,0.19-1.42,0.19
		c-1.14,0-1.99-0.2-2.57-0.61c-0.57-0.41-0.93-1.07-1.08-1.98H-521.07z M-532.75-162.27h8.45l0.27-1.47h-7.05v-4.46h6.35v-1.49
		h-6.35v-4.06h6.71v-1.47h-8.38V-162.27z M-545.84-163.72v-10.08h2.87c0.75,0,1.4,0.11,1.94,0.34s0.99,0.55,1.33,0.98
		c0.34,0.43,0.6,0.95,0.76,1.57c0.16,0.62,0.24,1.32,0.24,2.11c0,1.59-0.37,2.83-1.11,3.73c-0.74,0.9-1.91,1.35-3.52,1.35H-545.84z
		 M-547.51-162.27h4.12c0.99,0,1.89-0.14,2.68-0.42c0.8-0.28,1.47-0.69,2.03-1.23c0.56-0.54,0.98-1.23,1.28-2.05
		s0.44-1.78,0.44-2.87c0-1.08-0.14-2.01-0.42-2.81c-0.28-0.8-0.67-1.46-1.19-1.99c-0.51-0.53-1.14-0.93-1.89-1.19
		c-0.74-0.26-1.59-0.39-2.53-0.39h-4.53V-162.27z M-567.89-162.27h1.61v-10.23l6.64,10.23h1.6v-12.95h-1.61v10.28l-6.58-10.28h-1.65
		V-162.27z M-582.22-167.47c0,1.95,0.43,3.35,1.28,4.23c0.85,0.87,2.06,1.31,3.62,1.31c0.76,0,1.45-0.1,2.06-0.31
		c0.61-0.21,1.12-0.53,1.54-0.98c0.42-0.45,0.74-1.01,0.96-1.7c0.22-0.68,0.34-1.51,0.34-2.48v-7.82h-1.67v7.82
		c0,1.33-0.24,2.33-0.73,3c-0.48,0.67-1.31,1.01-2.48,1.01c-1.16,0-1.99-0.33-2.49-1s-0.75-1.67-0.75-3.01v-7.82h-1.67V-167.47z"/>
</g>
<g>
	<path class="st5" d="M574.2,60.29c5.66,0,10.23,4.45,10.23,10.23c0,5.66-4.58,10.11-10.23,10.11c-5.66,0-10.24-4.46-10.24-10.11
		C563.96,64.74,568.54,60.29,574.2,60.29"/>
	<g>
		<g>
			<path class="st5" d="M43.4,130.18c5.22-1.94,9.25-5.36,13.96-10.29l0.02,0.03c1.43-1.49,2.96-3.16,4.65-5.02l-0.03-0.03
				c0.27-0.29,0.54-0.59,0.81-0.89c1.14-1.26,2.35-2.59,3.65-4c1.38-1.51,2.84-3.1,4.33-4.75l0.01,0.01
				c3.26-3.66,6.42-7.27,9.17-10.9c9.41-12.25,16.53-26.3,9.72-38.73c-5.88-10.74-17.37-13.39-26.14-11.26
				C53.17,46.86,46.3,55.25,46.04,65.71c-0.29,11.72,5.71,18.39,15.67,29.24c1.53-1.73,3.03-3.46,4.47-5.2
				c-9.02-9.83-13.56-15.05-13.34-23.87c0.22-8.86,6.49-13.52,12.29-14.93c1.31-0.32,2.74-0.5,4.24-0.5
				c5.12,0,10.89,2.15,14.33,8.42c4.71,8.59-0.05,19.09-8.23,30.01c-4.51,5.94-9.5,11.57-13.85,16.31c-1.3,1.41-2.5,2.74-3.65,4
				c-3.08,3.4-5.73,6.31-8.28,8.75c-0.01,0-0.01-0.01-0.01-0.01c-2.94,2.79-5.6,4.72-8.66,5.86c-5.6,2.07-13.27,1.96-16.52-5.19
				c-1.84-4.06-1.28-8.28,1.54-11.57c2.34-2.74,5.71-4.22,9.29-4.22c1.18,0,2.39,0.16,3.59,0.5c2.9,0.8,6.3,3.57,9.27,6.47
				c1.42-1.5,2.93-3.16,4.61-5.01c-3.81-3.71-7.97-6.88-12.06-8.01c-7.41-2.06-15.02,0.19-19.87,5.86
				c-4.54,5.31-5.5,12.34-2.56,18.81C22.51,130.67,32.59,134.18,43.4,130.18"/>
			<path class="st5" d="M129.07,134.88l8.71-9.85c-1.46-1.53-3-3.2-4.65-5.01l-13.15,14.86l13.17,14.9
				c1.65-1.82,3.19-3.49,4.65-5.02L129.07,134.88z"/>
			<path class="st5" d="M119.88,94.53c2.7,3.56,5.82,7.1,9.02,10.69l0-0.01c1.49,1.66,2.95,3.24,4.34,4.75
				c1.29,1.41,2.5,2.74,3.64,4c0.27,0.3,0.54,0.6,0.81,0.89l-0.03,0.03c1.69,1.86,3.22,3.53,4.64,5.03l0.03-0.03
				c4.71,4.93,8.74,8.35,13.96,10.29c10.8,4.01,20.88,0.49,25.08-8.76c2.94-6.47,1.98-13.5-2.57-18.81
				c-4.85-5.67-12.46-7.91-19.87-5.86c-4.1,1.14-8.26,4.31-12.06,8.01c0.01,0.02,0.03,0.04,0.05,0.05c1.66,1.83,3.16,3.47,4.56,4.96
				c2.97-2.9,6.38-5.66,9.28-6.47c4.83-1.34,9.77,0.08,12.88,3.73c2.82,3.29,3.38,7.51,1.54,11.57c-3.24,7.15-10.93,7.26-16.52,5.19
				c-2.99-1.11-5.6-2.99-8.47-5.69c-0.01,0.01-0.02,0.02-0.03,0.03c-2.55-2.44-5.2-5.35-8.28-8.75c-1.14-1.26-2.35-2.6-3.65-4
				c-4.35-4.73-9.35-10.35-13.85-16.29l-0.01-0.01c-8.28-11-13.12-21.58-8.39-30.22c3.44-6.27,9.21-8.42,14.33-8.42
				c1.49,0,2.93,0.18,4.24,0.5c5.79,1.41,12.07,6.07,12.29,14.93c0.22,8.82-4.31,14.03-13.33,23.86c1.44,1.73,2.93,3.47,4.46,5.2
				c9.96-10.85,15.96-17.51,15.67-29.24c-0.26-10.47-7.13-18.85-17.49-21.37c-8.78-2.13-20.26,0.53-26.14,11.26
				C103.16,68.1,110.4,82.24,119.88,94.53L119.88,94.53z"/>
			<path class="st5" d="M124.51,159.27l-20.25-24.38l20.22-24.35c-1.5-1.66-3.02-3.39-4.55-5.18l-20.09,24.19l-20.09-24.18
				c-1.53,1.79-3.06,3.51-4.55,5.17l20.23,24.35L75.2,159.24c1.5,1.66,3.03,3.38,4.55,5.17l20.09-24.18l20.11,24.22
				C121.49,162.66,123.01,160.93,124.51,159.27 M99.84,134.9l-0.02-0.01l0.02-0.01l0.01,0.01L99.84,134.9z"/>
			<path class="st5" d="M156.29,139.59c-5.14,1.91-9.13,5.27-13.76,10.09c-1.59,1.67-3.29,3.53-5.23,5.66
				c-1.15,1.27-2.37,2.62-3.68,4.04c-4.88,5.31-9.74,10.57-13.74,15.85c-9.49,12.3-16.72,26.44-9.88,38.93
				c4.66,8.51,12.84,11.94,20.4,11.94c1.98,0,3.92-0.23,5.74-0.68c10.36-2.51,17.23-10.9,17.49-21.37
				c0.29-11.71-5.7-18.37-15.64-29.2c-1.53,1.74-3.03,3.47-4.46,5.21c9,9.81,13.51,15.02,13.3,23.83
				c-0.22,8.86-6.5,13.52-12.29,14.93c-5.79,1.41-14.13,0.18-18.57-7.92c-4.74-8.64,0.11-19.22,8.39-30.22l0-0.01
				c4.07-5.37,8.57-10.45,12.62-14.87c0.42-0.46,0.84-0.93,1.26-1.4c1.3-1.42,2.52-2.76,3.67-4.03c0.09-0.1,0.18-0.2,0.27-0.3
				c0,0,0.01,0.01,0.01,0.01c1.65-1.82,3.16-3.5,4.62-5.04c-0.09-0.09,0.01,0.01,0,0c4.33-4.57,7.71-7.53,11.83-9.06
				c5.59-2.07,13.27-1.96,16.51,5.19c1.84,4.06,1.28,8.28-1.54,11.57c-3.11,3.64-8.05,5.06-12.88,3.73
				c-2.89-0.8-6.29-3.55-9.25-6.44c-1.41,1.49-2.9,3.13-4.56,4.97c-0.01,0.02-0.03,0.03-0.05,0.05c3.8,3.7,7.95,6.85,12.03,7.99
				c7.41,2.06,15.02-0.19,19.87-5.86c4.54-5.31,5.5-12.34,2.56-18.81C177.17,139.1,167.09,135.58,156.29,139.59"/>
			<path class="st5" d="M66.56,120.02c-1.65,1.82-3.19,3.49-4.66,5.01l8.72,9.86l-8.72,9.86c1.47,1.52,3.01,3.19,4.66,5.01
				l13.15-14.87L66.56,120.02z"/>
			<path class="st5" d="M79.96,175.44c-2.75-3.63-5.91-7.23-9.17-10.9l-0.01,0.01c-1.49-1.66-2.95-3.24-4.33-4.75
				c-1.3-1.41-2.51-2.74-3.65-4c-0.27-0.3-0.54-0.6-0.81-0.89l0.02-0.03c-1.69-1.86-3.22-3.53-4.65-5.02l-0.02,0.02
				c-4.71-4.93-8.74-8.35-13.96-10.29c-10.81-4.01-20.88-0.49-25.08,8.76c-2.94,6.47-1.98,13.5,2.56,18.81
				c4.85,5.67,12.47,7.91,19.87,5.86c4.1-1.14,8.26-4.31,12.06-8.01c-1.68-1.85-3.19-3.51-4.61-5.01c-2.96,2.89-6.37,5.66-9.27,6.47
				c-4.83,1.34-9.77-0.09-12.88-3.73c-2.82-3.29-3.38-7.52-1.54-11.57c2.13-4.69,6.17-6.35,10.28-6.35c2.15,0,4.31,0.45,6.24,1.17
				c3.06,1.14,5.72,3.06,8.66,5.86c0,0,0.01-0.01,0.01-0.01c2.55,2.44,5.19,5.35,8.28,8.75c1.15,1.26,2.35,2.59,3.65,4
				c4.35,4.73,9.34,10.37,13.85,16.31c8.18,10.93,12.94,21.43,8.23,30.01c-4.43,8.1-12.77,9.33-18.56,7.92
				c-5.8-1.41-12.07-6.07-12.29-14.92c-0.22-8.82,4.31-14.04,13.33-23.87c-1.44-1.73-2.94-3.46-4.47-5.2
				c-9.96,10.85-15.97,17.51-15.67,29.24c0.26,10.47,7.12,18.85,17.49,21.37c1.82,0.44,3.76,0.68,5.74,0.68
				c7.56,0,15.74-3.43,20.4-11.94C96.48,201.74,89.37,187.69,79.96,175.44"/>
		</g>
	</g>
	<g>
		<g>
			<path class="st5" d="M222.91,86.03V61.26h4.27v2.59c0.6-1.74,2.77-2.98,5.72-2.98c2.52,0,4.66,0.89,6.36,2.7
				c1.74,1.78,2.59,3.98,2.59,6.65c0,2.66-0.85,4.87-2.59,6.68c-1.71,1.78-3.84,2.67-6.36,2.67c-2.95,0-5.12-1.24-5.72-2.98v9.45
				H222.91z M236.1,74.12c1.03-1.03,1.53-2.35,1.53-3.91c0-1.57-0.5-2.88-1.53-3.91c-1-1.03-2.24-1.57-3.77-1.57
				c-1.53,0-2.84,0.53-3.91,1.57c-1.03,1.03-1.57,2.35-1.57,3.91c0,1.56,0.53,2.88,1.57,3.91c1.07,1.03,2.38,1.56,3.91,1.56
				C233.86,75.68,235.11,75.15,236.1,74.12"/>
			<path class="st5" d="M249.06,79.17V61.26h4.23v2.67c0.85-1.88,2.81-3.02,5.33-3.02c0.5,0,0.92,0.03,1.28,0.11v4.12
				c-0.53-0.11-1.14-0.18-1.78-0.18c-2.95,0-4.83,1.85-4.83,4.8v9.42H249.06z"/>
			<path class="st5" d="M266.75,56.63c0-1.42,1.14-2.52,2.56-2.52c1.38,0,2.52,1.1,2.52,2.52c0,1.42-1.14,2.52-2.52,2.52
				C267.89,59.16,266.75,58.06,266.75,56.63 M267.18,61.25h4.26v17.91h-4.26V61.25z"/>
			<polygon class="st5" points="285.51,79.17 277.84,61.26 282.24,61.26 287.33,73.41 292.38,61.26 296.78,61.26 289.1,79.17 			"/>
			<path class="st5" d="M316.07,63.85v-2.59h4.27v17.91h-4.27v-2.59c-0.61,1.74-2.77,2.98-5.72,2.98c-2.52,0-4.66-0.89-6.4-2.67
				c-1.71-1.81-2.56-4.02-2.56-6.68c0-2.67,0.85-4.87,2.56-6.65c1.74-1.81,3.87-2.7,6.4-2.7C313.3,60.86,315.47,62.11,316.07,63.85
				 M314.79,74.12c1.07-1.03,1.6-2.35,1.6-3.91c0-1.57-0.53-2.88-1.6-3.91c-1.03-1.03-2.34-1.57-3.87-1.57
				c-1.53,0-2.77,0.53-3.8,1.57c-1,1.03-1.49,2.35-1.49,3.91c0,1.56,0.49,2.88,1.49,3.91c1.03,1.03,2.27,1.56,3.8,1.56
				C312.45,75.68,313.76,75.15,314.79,74.12"/>
			<path class="st5" d="M342.18,63.85V54.4h4.27v24.77h-4.27v-2.59c-0.6,1.74-2.77,2.98-5.72,2.98c-2.52,0-4.66-0.89-6.4-2.67
				c-1.71-1.81-2.56-4.02-2.56-6.68c0-2.67,0.85-4.87,2.56-6.65c1.74-1.81,3.87-2.7,6.4-2.7C339.41,60.86,341.58,62.11,342.18,63.85
				 M340.9,74.12c1.07-1.03,1.6-2.35,1.6-3.91c0-1.57-0.53-2.88-1.6-3.91c-1.03-1.03-2.34-1.57-3.87-1.57
				c-1.53,0-2.77,0.53-3.8,1.57c-1,1.03-1.49,2.35-1.49,3.91c0,1.56,0.49,2.88,1.49,3.91c1.03,1.03,2.27,1.56,3.8,1.56
				C338.56,75.68,339.87,75.15,340.9,74.12"/>
			<path class="st5" d="M368.33,63.85v-2.59h4.27v17.91h-4.27v-2.59c-0.61,1.74-2.77,2.98-5.72,2.98c-2.52,0-4.66-0.89-6.4-2.67
				c-1.71-1.81-2.56-4.02-2.56-6.68c0-2.67,0.85-4.87,2.56-6.65c1.74-1.81,3.87-2.7,6.4-2.7C365.55,60.86,367.72,62.11,368.33,63.85
				 M367.05,74.12c1.07-1.03,1.6-2.35,1.6-3.91c0-1.57-0.53-2.88-1.6-3.91c-1.03-1.03-2.34-1.57-3.87-1.57
				c-1.53,0-2.77,0.53-3.8,1.57c-1,1.03-1.49,2.35-1.49,3.91c0,1.56,0.49,2.88,1.49,3.91c1.03,1.03,2.27,1.56,3.8,1.56
				C364.7,75.68,366.02,75.15,367.05,74.12"/>
			<path class="st5" d="M399.27,79.17V54.4h4.23v9.35c0.82-1.71,2.77-2.84,5.22-2.84c4.12,0,6.54,2.73,6.54,7.18v11.09h-4.23V68.69
				c0-2.46-1.32-3.98-3.59-3.98c-2.31,0-3.94,1.71-3.94,4.16v10.31H399.27z"/>
			<path class="st5" d="M437.1,63.85v-2.59h4.27v17.91h-4.27v-2.59c-0.6,1.74-2.77,2.98-5.72,2.98c-2.52,0-4.66-0.89-6.4-2.67
				c-1.71-1.81-2.56-4.02-2.56-6.68c0-2.67,0.85-4.87,2.56-6.65c1.74-1.81,3.87-2.7,6.4-2.7C434.33,60.86,436.5,62.11,437.1,63.85
				 M435.83,74.12c1.07-1.03,1.6-2.35,1.6-3.91c0-1.57-0.53-2.88-1.6-3.91c-1.03-1.03-2.34-1.57-3.87-1.57
				c-1.53,0-2.77,0.53-3.8,1.57c-1,1.03-1.49,2.35-1.49,3.91c0,1.56,0.49,2.88,1.49,3.91c1.03,1.03,2.27,1.56,3.8,1.56
				C433.48,75.68,434.8,75.15,435.83,74.12"/>
			<path class="st5" d="M449.32,79.17V54.4h4.26v9.45c0.6-1.74,2.77-2.98,5.72-2.98c2.52,0,4.66,0.89,6.36,2.7
				c1.74,1.78,2.59,3.98,2.59,6.65c0,2.66-0.85,4.87-2.59,6.68c-1.71,1.78-3.84,2.67-6.36,2.67c-2.95,0-5.12-1.24-5.72-2.98v2.59
				H449.32z M462.51,74.12c1.03-1.03,1.53-2.35,1.53-3.91c0-1.57-0.5-2.88-1.53-3.91c-1-1.03-2.24-1.57-3.77-1.57
				c-1.53,0-2.84,0.53-3.91,1.57c-1.03,1.03-1.57,2.35-1.57,3.91c0,1.56,0.53,2.88,1.57,3.91c1.07,1.03,2.38,1.56,3.91,1.56
				C460.27,75.68,461.51,75.15,462.51,74.12"/>
			<path class="st5" d="M475.04,56.63c0-1.42,1.13-2.52,2.56-2.52c1.39,0,2.52,1.1,2.52,2.52c0,1.42-1.14,2.52-2.52,2.52
				C476.18,59.16,475.04,58.06,475.04,56.63 M475.47,61.25h4.26v17.91h-4.26V61.25z"/>
			<polygon class="st5" points="488.97,79.17 488.97,65.13 486.66,65.13 486.66,61.26 488.97,61.26 488.97,54.4 493.23,54.4 
				493.23,61.26 497.11,61.26 497.11,65.13 493.23,65.13 493.23,79.17 			"/>
			<path class="st5" d="M517.07,63.85v-2.59h4.27v17.91h-4.27v-2.59c-0.6,1.74-2.77,2.98-5.72,2.98c-2.52,0-4.66-0.89-6.4-2.67
				c-1.71-1.81-2.56-4.02-2.56-6.68c0-2.67,0.85-4.87,2.56-6.65c1.74-1.81,3.87-2.7,6.4-2.7C514.3,60.86,516.47,62.11,517.07,63.85
				 M515.8,74.12c1.07-1.03,1.6-2.35,1.6-3.91c0-1.57-0.53-2.88-1.6-3.91c-1.03-1.03-2.34-1.57-3.87-1.57
				c-1.53,0-2.77,0.53-3.8,1.57c-1,1.03-1.49,2.35-1.49,3.91c0,1.56,0.49,2.88,1.49,3.91c1.03,1.03,2.27,1.56,3.8,1.56
				C513.45,75.68,514.77,75.15,515.8,74.12"/>
			<path class="st5" d="M545.43,63.78l-2.63,2.74c-1.25-1.32-2.77-1.96-4.55-1.96c-1.57,0-2.88,0.53-3.95,1.6
				c-1.03,1.07-1.56,2.42-1.56,4.02c0,1.6,0.53,2.95,1.56,4.02c1.07,1.07,2.38,1.6,3.95,1.6c1.78,0,3.3-0.64,4.55-1.96l2.63,2.74
				c-1.92,2.06-4.3,3.09-7.18,3.09c-2.74,0-5.05-0.88-6.93-2.7c-1.88-1.81-2.81-4.09-2.81-6.79c0-2.7,0.92-4.94,2.81-6.76
				c1.88-1.81,4.19-2.73,6.93-2.73C541.12,60.69,543.5,61.72,545.43,63.78"/>
			<path class="st5" d="M551.85,56.63c0-1.42,1.13-2.52,2.56-2.52c1.39,0,2.52,1.1,2.52,2.52c0,1.42-1.14,2.52-2.52,2.52
				C552.98,59.16,551.85,58.06,551.85,56.63 M552.27,61.25h4.26v17.91h-4.26V61.25z"/>
			<path class="st5" d="M590.57,79.17V61.26h4.23v2.56c0.85-1.74,2.88-2.91,5.43-2.91c4.27,0,6.79,2.73,6.79,7.18v11.09h-4.26V68.69
				c0-2.46-1.42-3.98-3.8-3.98c-2.42,0-4.16,1.71-4.16,4.16v10.31H590.57z"/>
			<path class="st5" d="M628.77,63.85v-2.59h4.27v17.91h-4.27v-2.59c-0.6,1.74-2.77,2.98-5.72,2.98c-2.52,0-4.66-0.89-6.4-2.67
				c-1.71-1.81-2.56-4.02-2.56-6.68c0-2.67,0.85-4.87,2.56-6.65c1.74-1.81,3.87-2.7,6.4-2.7C625.99,60.86,628.16,62.11,628.77,63.85
				 M627.49,74.12c1.07-1.03,1.6-2.35,1.6-3.91c0-1.57-0.53-2.88-1.6-3.91c-1.03-1.03-2.34-1.57-3.87-1.57
				c-1.53,0-2.77,0.53-3.8,1.57c-1,1.03-1.49,2.35-1.49,3.91c0,1.56,0.49,2.88,1.49,3.91c1.03,1.03,2.27,1.56,3.8,1.56
				C625.14,75.68,626.46,75.15,627.49,74.12"/>
			<rect x="640.98" y="54.4" class="st5" width="4.26" height="24.77"/>
		</g>
	</g>
	<g>
		<g>
			<path class="st5" d="M564.82,94.42h18.89v41.45c0,4.69,1.14,6.72,4.31,6.72c1.14,0,1.9-0.13,2.28-0.25v16.1
				c-1.65,0.63-4.56,1.01-8.74,1.01c-11.16,0-16.74-5.96-16.74-18V94.42z"/>
			<path class="st5" d="M602.58,111.53V94.42v-7.46h18.38v7.46h14.2v17.11h-14.2v22.82c0,6.08,2.41,8.49,8.11,8.49
				c1.02,0,2.66-0.13,4.82-0.51v16.73c-2.54,0.63-5.58,0.89-9.25,0.89c-14.71,0-22.05-7.61-22.05-22.82V111.53z"/>
			<path class="st5" d="M691.3,94.42v8.36c-1.9-5.58-9.38-9.51-19.01-9.51c-9,0-16.6,3.17-22.69,9.63c-5.96,6.34-9,14.2-9,23.45
				c0,9.38,3.04,17.24,9,23.7c6.08,6.34,13.69,9.51,22.69,9.51c5.71,0,10.17-1.91,13.68-4.46l-4.89-13.57
				c-1.66,0.51-3.44,0.79-5.36,0.79c-4.56,0-8.36-1.52-11.53-4.56c-3.17-3.17-4.69-6.97-4.69-11.41c0-4.44,1.52-8.24,4.69-11.28
				c3.17-3.17,6.97-4.69,11.53-4.69c4.69,0,8.62,1.52,11.79,4.69c3.29,3.04,4.94,6.84,4.94,11.28v33.07h16.75
				c0.12,0,0.24,0.01,0.36,0.01c0.22,0,0.42-0.01,0.63-0.01v-23.57v-12.3V94.42H691.3z"/>
			<path class="st5" d="M457.62,94.42v8.36c-1.9-5.58-9.38-9.51-19.01-9.51c-9,0-16.6,3.17-22.69,9.63c-5.96,6.34-9,14.2-9,23.45
				c0,9.38,3.04,17.24,9,23.7c6.08,6.34,13.69,9.51,22.69,9.51c5.71,0,10.17-1.91,13.68-4.46l-4.89-13.57
				c-1.66,0.51-3.44,0.79-5.36,0.79c-4.56,0-8.36-1.52-11.53-4.56c-3.17-3.17-4.69-6.97-4.69-11.41c0-4.44,1.52-8.24,4.69-11.28
				c3.17-3.17,6.97-4.69,11.53-4.69c4.69,0,8.62,1.52,11.79,4.69c3.29,3.04,4.94,6.84,4.94,11.28v33.07h16.75
				c0.12,0,0.23,0.01,0.36,0.01c0.22,0,0.42-0.01,0.63-0.01v-23.57v-12.3V94.42H457.62z"/>
			<path class="st5" d="M263.54,94.42v8.36c-1.9-5.58-9.38-9.51-19.01-9.51c-9,0-16.6,3.17-22.69,9.63c-5.96,6.34-9,14.2-9,23.45
				c0,9.38,3.04,17.24,9,23.7c6.08,6.34,13.69,9.51,22.69,9.51c5.71,0,10.17-1.91,13.68-4.46l-4.89-13.57
				c-1.66,0.51-3.44,0.79-5.36,0.79c-4.56,0-8.36-1.52-11.53-4.56c-3.17-3.17-4.69-6.97-4.69-11.41c0-4.44,1.52-8.24,4.69-11.28
				c3.17-3.17,6.97-4.69,11.53-4.69c4.69,0,8.62,1.52,11.79,4.69c3.29,3.04,4.94,6.84,4.94,11.28v33.07h16.76
				c0.12,0,0.23,0.01,0.36,0.01c0.22,0,0.42-0.01,0.63-0.01v-23.57v-12.3V94.42H263.54z"/>
			<path class="st5" d="M404,143.11c-4.33,0-6.9,0.32-8.38-2.36c-0.63-1.06-0.87-2.72-0.87-5.15v-16.09
				c0-16.6-8.11-26.48-22.43-26.48c-10.52,0-17.49,3.42-21.03,10.14c-2.91-6.72-8.74-10.14-17.36-10.14c-7.73,0-14.19,3.8-16.6,9.38
				v-7.98h-18.88v63.86h18.88v-35.86c0-7.48,4.43-12.67,10.52-12.67c6.08,0,9.5,4.56,9.5,12.04v36.49h18.88v-35.86
				c0-7.48,4.31-12.67,10.39-12.67c5.95,0,9.25,4.56,9.25,12.04v19.01c0,12.16,5.57,18.25,16.85,18.25
				C398.64,159.05,406.8,155.66,404,143.11"/>
			<path class="st5" d="M509.54,146.27c6.37-2.67,16.54-5.61,27.68-3.74l20.72-48.36h-18.2l-17.3,38.51l-17.3-38.51h-18.21l21,48.99
				C508.39,144.25,508.93,145.28,509.54,146.27z"/>
		</g>
	</g>
	<g>
		<g>
			<path class="st5" d="M741.24,204.13c-0.54,0.66-0.7,0.86-1.2,1.37c-2.76,2.84-5.63,5.56-8.79,7.96c-1.46,1.1-2.97,2.13-4.58,2.99
				c-0.94,0.5-1.91,0.94-2.91,1.29c-2.24,0.78-4.49,0.74-6.72,0.04c-2.27-0.71-4.01-2.13-5.22-4.18c-0.75-1.28-1.26-2.65-1.59-4.1
				c-0.13-0.59-0.26-1.19-0.39-1.81c-0.16,0.05-0.33,0.05-0.44,0.13c-0.31,0.25-0.6,0.54-0.9,0.82c-1.94,1.79-3.96,3.48-6.11,5.02
				c-1.82,1.3-3.7,2.49-5.72,3.46c-1.65,0.8-3.34,1.47-5.15,1.8c-2,0.37-4.01,0.56-6.05,0.3c-1.06-0.13-2.1-0.3-3.13-0.62
				c-3.26-1.01-5.7-3.02-7.38-5.97c-0.55-0.97-1.02-1.98-1.35-3.05c-0.06-0.19-0.16-0.37-0.43-0.47c-0.28,0.23-0.6,0.48-0.9,0.75
				c-1.33,1.17-2.71,2.29-4.15,3.33c-1.61,1.16-3.28,2.2-5.07,3.07c-2.11,1.02-4.32,1.7-6.66,2c-1.92,0.24-3.84,0.31-5.77,0.23
				c-2.04-0.08-4.02-0.5-5.93-1.22c-1.24-0.47-2.4-1.09-3.46-1.88c-1.92-1.42-3.35-3.23-4.27-5.43c-0.18-0.42-0.33-0.85-0.5-1.27
				c-0.07-0.18-0.36-0.24-0.51-0.11c-0.23,0.2-0.45,0.41-0.68,0.61c-1.26,1.1-2.51,2.22-3.8,3.28c-1.56,1.29-3.23,2.46-4.99,3.47
				c-1.54,0.89-3.13,1.66-4.88,2.07c-5.73,1.34-10.65-2.18-11.88-7.07c-0.23-0.9-0.25-1.8-0.34-2.71c-0.01-0.07-0.12-0.13-0.2-0.18
				c-0.03-0.02-0.1,0.01-0.13,0.04c-0.12,0.1-0.23,0.19-0.33,0.3c-0.38,0.41-0.74,0.84-1.12,1.25c-1.1,1.2-2.25,2.34-3.5,3.38
				c-1.48,1.24-3.05,2.35-4.82,3.15c-1.07,0.49-2.18,0.81-3.36,0.88c-2.3,0.13-4.02-0.81-5.17-2.8c-0.54-0.93-0.88-1.94-1.06-2.99
				c-0.14-0.8-0.24-1.6-0.36-2.4c-0.02-0.14-0.25-0.2-0.37-0.1c-0.27,0.22-0.55,0.45-0.81,0.68c-1.83,1.61-3.72,3.14-5.72,4.54
				c-1.87,1.31-3.82,2.49-5.9,3.44c-1.43,0.65-2.91,1.19-4.45,1.51c-2.06,0.42-4.12,0.47-6.17-0.09c-4.6-1.24-6.7-4.97-6.99-8.27
				c-0.04-0.4-0.08-0.81-0.14-1.21c-0.01-0.07-0.13-0.13-0.21-0.18c-0.03-0.02-0.11,0.01-0.14,0.04c-0.32,0.32-0.65,0.64-0.96,0.97
				c-1.49,1.6-3.01,3.16-4.67,4.58c-0.96,0.82-1.96,1.6-2.98,2.36c-0.85,0.64-1.79,1.15-2.76,1.6c-2.5,1.14-5.09,1.26-7.73,0.63
				c-0.94-0.23-1.8-0.69-2.57-1.28c-0.98-0.74-1.78-1.65-2.41-2.71c-0.86-1.46-1.38-3.04-1.58-4.72c-0.31-2.61,0.01-5.16,0.79-7.66
				c0.57-1.8,1.32-3.51,2.25-5.14c3.19-5.58,7.5-10.05,13.07-13.29c2.33-1.36,4.8-2.41,7.43-3.03c0.79-0.18,1.59-0.36,2.39-0.41
				c3.51-0.22,6.32,1.13,8.41,3.96c0.3,0.4,0.55,0.84,0.83,1.29c0.16-0.08,0.32-0.12,0.41-0.22c0.38-0.41,1.46-1.71,1.93-2.35
				l6.05,3.35c-0.17,0.37-0.42,0.98-0.55,1.21c-0.17,0.31-0.34,0.62-0.56,0.9c-0.46,0.6-0.95,1.19-1.44,1.77
				c-1.38,1.62-2.76,3.24-4.15,4.86c-0.5,0.58-0.92,1.21-1.28,1.88c-0.97,1.84-1.87,3.71-2.54,5.68c-0.45,1.3-0.79,2.62-0.9,3.99
				c-0.05,0.66-0.02,1.32,0.09,1.97c0.25,1.5,1.32,2.52,2.86,2.72c1.12,0.15,2.23,0.07,3.32-0.17c1.59-0.34,3.11-0.9,4.6-1.57
				c2.46-1.1,4.81-2.39,7.03-3.92c2.51-1.73,4.85-3.67,7.09-5.73c0.3-0.27,0.58-0.55,0.72-0.96c1.83-5.42,4.93-10.09,8.67-14.35
				c1.04-1.18,2.15-2.29,3.22-3.45c0.45-0.48,0.98-0.67,1.63-0.67c0.78,0,1.51,0.17,2.19,0.53c0.31,0.16,0.61,0.37,0.87,0.61
				c0.78,0.72,0.95,1.71,0.44,2.63c-0.24,0.44-0.55,0.85-0.86,1.25c-1.01,1.33-2.05,2.64-3.06,3.98c-1.49,1.99-2.9,4.03-4.16,6.18
				c-0.67,1.14-1.28,2.3-1.82,3.51c-0.96,2.14-1.56,4.39-1.87,6.71c-0.11,0.81-0.12,1.62,0.13,2.41c0.06,0.19,0.13,0.39,0.23,0.56
				c0.22,0.37,0.55,0.6,1,0.58c0.3-0.02,0.61-0.06,0.89-0.15c0.68-0.21,1.3-0.57,1.9-0.95c1.11-0.72,2.12-1.57,3.09-2.46
				c1.38-1.27,2.68-2.63,3.91-4.04c3.58-4.09,6.77-8.48,9.72-13.04c1.35-2.08,2.61-4.23,3.91-6.34c0.16-0.26,0.3-0.53,0.45-0.8
				c0.34-0.63,0.91-0.95,1.59-1.06c1.08-0.16,2.13-0.02,3.08,0.55c0.26,0.15,0.51,0.34,0.71,0.56c0.5,0.58,0.7,1.24,0.37,1.97
				c-0.18,0.41-0.42,0.81-0.66,1.19c-1.28,2.13-2.59,4.24-3.84,6.38c-1.43,2.45-2.77,4.96-3.96,7.54c-0.81,1.75-1.58,3.51-2.04,5.4
				c-0.17,0.69-0.32,1.38-0.42,2.08c-0.13,0.91-0.09,1.82,0.19,2.71c0.4,1.29,1.29,2.04,2.59,2.29c1.11,0.21,2.22,0.13,3.31-0.17
				c0.98-0.27,1.92-0.65,2.79-1.19c0.81-0.51,1.62-1.04,2.39-1.63c0.97-0.74,1.92-1.5,2.82-2.31c1.81-1.63,3.58-3.3,5.37-4.95
				c0.34-0.32,0.6-0.67,0.68-1.15c0.07-0.4,0.17-0.79,0.28-1.18c0.39-1.37,0.92-2.68,1.59-3.94c0.62-1.17,1.32-2.28,2.11-3.34
				c2.69-3.55,5.9-6.55,9.64-8.97c2.27-1.47,4.7-2.58,7.33-3.27c2.08-0.54,4.19-0.72,6.33-0.47c1.48,0.18,2.86,0.64,4.09,1.51
				c1.26,0.89,2.06,2.07,2.39,3.58c0.18,0.81,0.18,1.6,0,2.41c-0.2,0.9-0.53,1.74-0.98,2.55c-1.23,2.2-2.92,4.01-4.84,5.61
				c-0.5,0.43-0.57,0.49-0.88,0.77c-1.28-1.36-1.87-2.05-3.5-3.99c0.76-0.84,0.63-0.68,1.2-1.35c0.26-0.31,0.56-0.58,0.84-0.88
				c0.59-0.65,1.04-1.38,1.21-2.25c0.07-0.34,0.09-0.71,0.03-1.05c-0.28-1.52-1.54-2.01-2.68-1.93c-0.55,0.04-1.1,0.17-1.61,0.43
				c-0.63,0.32-1.28,0.61-1.89,0.97c-3.91,2.35-7.27,5.33-10.06,8.94c-1.62,2.11-2.85,4.43-3.56,7.01c-0.33,1.18-0.52,2.37-0.48,3.6
				c0.03,0.82,0.18,1.61,0.45,2.38c0.63,1.82,1.87,3.11,3.61,3.91c1.36,0.62,2.8,0.87,4.28,0.91c1.27,0.03,2.53-0.16,3.77-0.41
				c2.4-0.49,4.66-1.37,6.85-2.46c1.91-0.95,3.73-2.05,5.48-3.26c1.96-1.36,3.82-2.85,5.62-4.42c0.44-0.38,0.75-0.8,0.9-1.37
				c1.02-3.85,3-7.19,5.62-10.15c2.57-2.9,5.49-5.4,8.76-7.49c1.89-1.2,3.88-2.2,6.05-2.79c1.23-0.34,2.47-0.54,3.76-0.46
				c0.82,0.05,1.6,0.24,2.35,0.59c1.6,0.75,2.49,2.04,2.74,3.76c0.16,1.11,0.09,2.22-0.19,3.32c-0.28,1.14-0.69,2.23-1.22,3.27
				c-1.25,2.46-2.79,4.71-4.79,6.62c-2.5,2.38-5.12,4.62-7.8,6.79c-1.81,1.47-3.66,2.9-5.58,4.22c-0.88,0.6-1.78,1.17-2.67,1.75
				c-0.3,0.2-0.35,0.45-0.17,0.78c0.87,1.59,2.26,2.42,4.02,2.67c1.37,0.19,2.74,0.14,4.08-0.16c0.94-0.21,1.88-0.43,2.79-0.73
				c3.98-1.31,7.68-3.14,10.97-5.78c2.42-1.94,4.7-4.02,6.92-6.18c0.34-0.33,0.56-0.68,0.61-1.18c0.37-4.11,1.35-8.09,2.61-12.01
				c1.68-5.23,3.91-10.22,6.6-15.01c4.93-8.77,11-16.66,18.24-23.64c1.53-1.48,3.13-2.89,4.82-4.19c1.85-1.44,3.8-2.71,5.93-3.69
				c1.11-0.51,2.25-0.92,3.44-1.19c1.15-0.27,2.31-0.29,3.48-0.18c0.62,0.06,1.18,0.28,1.72,0.58c0.73,0.41,1.26,1,1.58,1.78
				c0.09,0.23,0.21,0.45,0.32,0.68c0,1.72,0,3.45,0,5.17c-0.08,0.12-0.23,0.23-0.24,0.36c-0.1,0.92-0.45,1.76-0.79,2.61
				c-0.7,1.74-1.57,3.41-2.5,5.04c-1.76,3.09-3.77,6.01-5.88,8.87c-3.22,4.37-6.67,8.56-10.23,12.65
				c-5.56,6.39-11.36,12.56-17.33,18.57c-1.57,1.58-3.16,3.15-4.74,4.73c-0.25,0.25-0.51,0.49-0.76,0.75
				c-0.21,0.22-0.36,0.48-0.38,0.81c-0.15,2.13-0.21,4.26,0.27,6.36c0.13,0.59,0.34,1.17,0.59,1.72c0.55,1.21,1.54,1.85,2.84,2.02
				c0.71,0.09,1.41,0.07,2.11-0.11c0.89-0.22,1.74-0.54,2.56-0.94c1.23-0.6,2.39-1.34,3.51-2.13c2.16-1.52,4.19-3.21,6.15-4.97
				c1.36-1.22,2.68-2.48,4.02-3.72c0.26-0.24,0.51-0.5,0.79-0.71L741.24,204.13z M752.47,147.5c-0.01-0.15-0.01-0.25-0.03-0.35
				c-0.02-0.1-0.05-0.2-0.08-0.29c-0.11-0.38-0.54-0.68-0.93-0.64c-0.66,0.07-1.28,0.28-1.88,0.58c-0.95,0.48-1.84,1.06-2.69,1.7
				c-1.94,1.48-3.76,3.08-5.47,4.81c-1.6,1.63-3.11,3.33-4.56,5.1c-5.18,6.34-9.62,13.16-13.38,20.42
				c-1.98,3.82-3.74,7.75-5.14,11.83c-0.25,0.72-0.48,1.44-0.71,2.16c-0.06,0.18-0.01,0.45,0.06,0.42c0.14-0.05,0.29-0.1,0.39-0.19
				c0.23-0.2,0.43-0.43,0.64-0.65c7.95-8.19,15.45-16.76,22.46-25.76c2.55-3.28,5-6.63,7.23-10.14c0.87-1.37,1.7-2.76,2.44-4.2
				c0.49-0.95,0.93-1.91,1.26-2.93C752.27,148.74,752.44,148.11,752.47,147.5z M563.22,191.96c0.02-0.68-0.05-1.32-0.23-1.97
				c-0.44-1.66-1.56-2.31-2.91-2.5c-0.2-0.03-0.4-0.02-0.61-0.03c-1.18-0.05-2.32,0.17-3.45,0.49c-2.23,0.63-4.19,1.77-6.01,3.17
				c-1.82,1.4-3.41,3.02-4.84,4.82c-2.03,2.55-3.71,5.32-4.87,8.38c-0.47,1.24-0.8,2.51-0.99,3.82c-0.11,0.81-0.08,1.61,0.11,2.41
				c0.31,1.32,1.23,2.05,2.6,2.15c0.66,0.05,1.31-0.02,1.96-0.19c1.04-0.28,1.99-0.74,2.92-1.27c1.19-0.69,2.28-1.51,3.34-2.39
				c1.99-1.66,3.8-3.5,5.54-5.42c2.05-2.26,3.94-4.64,5.83-7.02c0.38-0.47,0.69-1,1.01-1.52c0.13-0.21,0.24-0.45,0.29-0.7
				C563.07,193.46,563.25,192.71,563.22,191.96z M680.61,202.87c0.31-0.18,0.62-0.35,0.91-0.55c2.28-1.51,4.48-3.13,6.59-4.89
				c1.76-1.46,3.39-3.05,4.87-4.79c0.89-1.04,1.73-2.12,2.45-3.29c0.37-0.61,0.71-1.23,0.92-1.91c0.06-0.19,0.11-0.39,0.15-0.59
				c0.1-0.52-0.27-0.93-0.77-0.85c-0.15,0.02-0.3,0.05-0.45,0.09c-0.95,0.23-1.81,0.65-2.64,1.15c-1.53,0.91-2.91,2.02-4.26,3.18
				c-3.45,2.98-5.89,6.66-7.53,10.89c-0.16,0.42-0.28,0.86-0.4,1.3C680.46,202.67,680.55,202.76,680.61,202.87z"/>
			<path class="st5" d="M491.07,241.99c-8.85-1.25-15.41-5.81-19.68-13.65c-1.54-2.83-2.48-5.87-3.09-9.03
				c-0.6-3.16-0.77-6.34-0.58-9.54c0.19-3.2,0.78-6.33,1.66-9.41c1.39-4.85,3.46-9.41,6.04-13.74c2.23-3.76,4.8-7.27,7.65-10.59
				c6.96-8.09,15.16-14.61,24.68-19.45c4.35-2.21,8.86-4,13.61-5.17c3.65-0.9,7.35-1.47,11.13-1.35c2.34,0.07,4.64,0.42,6.87,1.17
				c0.91,0.31,1.8,0.69,2.64,1.16c3.59,1.98,5.77,5.01,6.63,9c0.45,2.06,0.46,4.12,0.08,6.19c-0.2,1.05-0.39,2.09-0.72,3.1
				c-0.19,0.58-0.44,1.13-0.69,1.68c-0.11,0.23-0.31,0.4-0.59,0.42c-0.05,0-0.1,0.01-0.15,0.01c-1.87,0.1-3.75,0.2-5.62,0.3
				c-0.2,0.01-0.41,0-0.61,0c-0.13,0-0.29-0.2-0.25-0.31c0.12-0.33,0.23-0.67,0.37-0.99c0.58-1.3,1.03-2.64,1.32-4.04
				c0.33-1.6,0.44-3.21,0.17-4.83c-0.43-2.61-1.78-4.6-4.12-5.88c-1.22-0.66-2.53-1.05-3.89-1.22c-2.33-0.3-4.66-0.2-6.97,0.13
				c-4.41,0.62-8.55,2.07-12.54,4.01c-4.3,2.09-8.29,4.68-12.03,7.66c-8.25,6.58-15.12,14.37-20.53,23.44
				c-2.22,3.71-4.08,7.58-5.44,11.69c-0.75,2.27-1.3,4.58-1.63,6.94c-0.03,0.2-0.05,0.4-0.07,0.6c-0.33,4.61,0.25,9.11,1.83,13.46
				c0.61,1.67,1.42,3.25,2.43,4.72c2.08,3,4.81,5.19,8.22,6.5c3.23,1.24,6.55,1.68,10,1.28c3.05-0.35,5.97-1.14,8.78-2.33
				c5.58-2.35,10.53-5.63,14.68-10.08c0.21-0.22,0.68-0.73,1.01-1.06l4.9,2c-0.15,0.32-0.34,0.62-0.56,0.9
				c-0.34,0.44-0.7,0.86-1.07,1.29c-3.65,4.21-7.83,7.79-12.7,10.52c-3.25,1.82-6.67,3.17-10.31,3.98c-1.44,0.32-2.9,0.48-4.35,0.7
				C497.59,242.18,494.81,242.44,491.07,241.99z"/>
			<path class="st5" d="M496.2,242.37"/>
		</g>
	</g>
</g>
</svg>
