<svg width="48" height="66" viewBox="0 0 48 66" fill="none" xmlns="http://www.w3.org/2000/svg">
<g clip-path="url(#clip0)">
<path d="M0 32.89L27.31 65.79C29.01 63.8 30.72 61.88 32.39 60.03L9.84 32.89L32.38 5.76C30.71 3.91 29.01 1.99 27.31 0L4.92 26.95L0 32.89ZM4.92 32.88L4.94 32.89L4.92 32.91L4.9 32.89L4.92 32.88Z" fill="#E3D6C7"/>
<path d="M42.0199 49.46C43.8599 47.44 45.5699 45.57 47.2099 43.88L37.4899 32.9L47.2099 21.92C45.5699 20.22 43.8599 18.36 42.0199 16.34L27.3599 32.9L42.0199 49.46Z" fill="#E3D6C7"/>
</g>
<defs>
<clipPath id="clip0">
<rect width="47.21" height="65.79" fill="white"/>
</clipPath>
</defs>
</svg>
