<svg width="111" height="72" viewBox="0 0 111 72" fill="none" xmlns="http://www.w3.org/2000/svg">
<g clip-path="url(#clip0)">
<path d="M-13.0559 16.2942C-9.0296 13.9803 -4.48933 12.805 1.20131 12.1072C1.20131 12.0827 1.20131 12.0705 1.20131 12.046C6.30452 11.4583 12.0319 11.2135 18.7015 10.9196C21.1736 10.8095 23.7925 10.7115 26.5828 10.5646C35.9203 10.1116 46.861 9.75657 57.7038 10.234H57.7161C77.7495 11.2257 94.0994 15.6454 99.3617 29.0145C103.18 38.7108 100.206 47.1706 95.4334 52.9125C94.0382 54.5898 92.4963 56.0222 90.9298 57.1975C83.9542 62.3762 72.8911 65.0574 62.7703 57.0506C52.6863 49.0805 51.0831 39.1393 48.4764 19.8814C45.1967 19.8814 41.8557 19.9304 38.4903 20.0283C41.354 41.2941 43.2264 54.2225 56.6146 64.8248C68.5711 74.2885 84.358 74.4109 96.8285 65.1553C107.39 57.3199 115.112 41.9797 108.577 25.3907C100.977 6.07149 78.4104 0.990719 55.8069 0.158207H55.8192C49.3208 -0.147863 42.4554 0.0602647 35.443 0.280635V0.292878C32.2 0.415306 29.0671 0.574463 26.081 0.721377C23.303 0.856048 20.6841 0.966233 18.212 1.07642C17.6246 1.1009 17.0372 1.12539 16.462 1.14988V1.1009C12.8029 1.26006 9.51086 1.41922 6.51257 1.6151L6.52481 1.67632C-3.38791 2.34967 -10.9754 3.65965 -18 7.69978L-13.0559 16.2942Z" fill="#E3D6C7"/>
<path d="M23.5354 65.438C28.5897 62.4507 30.2541 55.9253 27.2558 50.869C24.2697 45.825 17.7469 44.1477 12.7049 47.1472C7.65062 50.1344 5.98626 56.6599 8.98455 61.7039C11.9706 66.7724 18.4934 68.4374 23.5354 65.438Z" fill="#113D67"/>
</g>
<defs>
<clipPath id="clip0">
<rect width="129" height="72" fill="white" transform="translate(-18)"/>
</clipPath>
</defs>
</svg>
