<?xml version="1.0" encoding="utf-8"?>
<!-- Generator: Adobe Illustrator 24.0.2, SVG Export Plug-In . SVG Version: 6.00 Build 0)  -->
<svg version="1.1" id="Capa_1" xmlns="http://www.w3.org/2000/svg" xmlns:xlink="http://www.w3.org/1999/xlink" x="0px" y="0px"
	 viewBox="0 0 341 311" style="enable-background:new 0 0 341 311;" xml:space="preserve">
<style type="text/css">
	.st0{clip-path:url(#SVGID_2_);}
	.st1{fill:#E3D6C7;}
	.st2{fill:#113D67;}
</style>
<g>
	<g>
		<defs>
			<rect id="SVGID_1_" x="232" y="214" width="129" height="72"/>
		</defs>
		<clipPath id="SVGID_2_">
			<use xlink:href="#SVGID_1_"  style="overflow:visible;"/>
		</clipPath>
		<g class="st0">
			<path class="st1" d="M361,221.7c-7-4-14.6-5.4-24.5-6v-0.1c-3-0.2-6.3-0.4-9.9-0.5l0,0c-0.6,0-1.2,0-1.8-0.1
				c-2.5-0.1-5.1-0.2-7.9-0.4c-3-0.1-6.1-0.3-9.4-0.4l0,0c-7-0.2-13.9-0.4-20.4-0.1l0,0c-22.6,0.8-45.2,5.9-52.8,25.2
				c-6.5,16.6,1.2,31.9,11.7,39.8c12.5,9.3,28.3,9.1,40.2-0.3c13.4-10.6,15.3-23.5,18.1-44.8c-3.4-0.1-6.7-0.1-10-0.1
				c-2.6,19.3-4.2,29.2-14.3,37.2c-10.1,8-21.2,5.3-28.2,0.1c-1.6-1.2-3.1-2.6-4.5-4.3c-4.8-5.7-7.7-14.2-3.9-23.9
				c5.3-13.4,21.6-17.8,41.6-18.8l0,0c10.8-0.5,21.8-0.1,31.1,0.3c2.8,0.1,5.4,0.2,7.9,0.4c6.7,0.3,12.4,0.5,17.5,1.1c0,0,0,0,0,0.1
				c5.7,0.7,10.2,1.9,14.3,4.2L361,221.7z"/>
			<path class="st2" d="M334,275.7c3-5,1.3-11.6-3.7-14.6s-11.6-1.3-14.6,3.7c-3,5.1-1.3,11.6,3.7,14.6
				C324.5,282.4,331,280.8,334,275.7z"/>
		</g>
	</g>
</g>
</svg>
