<?xml version="1.0" encoding="utf-8"?>
<!-- Generator: Adobe Illustrator 24.0.2, SVG Export Plug-In . SVG Version: 6.00 Build 0)  -->
<svg version="1.1" id="Capa_1" xmlns="http://www.w3.org/2000/svg" xmlns:xlink="http://www.w3.org/1999/xlink" x="0px" y="0px"
	 viewBox="0 0 341 358" style="enable-background:new 0 0 341 358;" xml:space="preserve">
<style type="text/css">
	.st0{clip-path:url(#SVGID_2_);fill:#E3D6C7;}
</style>
<g>
	<g>
		<g>
			<g>
				<defs>
					<rect id="SVGID_1_" x="-30.6" y="261" width="129" height="72"/>
				</defs>
				<clipPath id="SVGID_2_">
					<use xlink:href="#SVGID_1_"  style="overflow:visible;"/>
				</clipPath>
				<path class="st0" d="M-25.4,277.3c4.1-2.3,8.6-3.5,14.3-4.2c0-0.1,0-0.1,0-0.1c5.1-0.6,10.8-0.8,17.5-1.1
					c2.5-0.2,5.1-0.3,7.9-0.4c9.3-0.4,20.3-0.8,31.1-0.3l0,0c20,1,36.3,5.4,41.6,18.8c3.8,9.7,0.9,18.2-3.9,23.9
					c-1.4,1.7-2.9,3.1-4.5,4.3c-7,5.2-18.1,7.9-28.2-0.1s-11.7-17.9-14.3-37.2c-3.3,0-6.6,0-10,0.1c2.8,21.3,4.7,34.2,18.1,44.8
					c11.9,9.4,27.7,9.6,40.2,0.3c10.5-7.9,18.2-23.2,11.7-39.8c-7.6-19.3-30.2-24.4-52.8-25.2l0,0c-6.5-0.3-13.4-0.1-20.4,0.1l0,0
					c-3.3,0.1-6.4,0.3-9.4,0.4c-2.8,0.2-5.4,0.3-7.9,0.4c-0.6,0.1-1.2,0.1-1.8,0.1l0,0c-3.6,0.1-6.9,0.3-9.9,0.5v0.1
					c-9.9,0.6-17.5,2-24.5,6L-25.4,277.3z"/>
			</g>
		</g>
	</g>
</g>
</svg>
