<?xml version="1.0" encoding="utf-8"?>
<!-- Generator: Adobe Illustrator 24.0.2, SVG Export Plug-In . SVG Version: 6.00 Build 0)  -->
<svg version="1.1" id="Capa_1" xmlns="http://www.w3.org/2000/svg" xmlns:xlink="http://www.w3.org/1999/xlink" x="0px" y="0px"
	 viewBox="0 0 425 148" style="enable-background:new 0 0 425 148;" xml:space="preserve">
<style type="text/css">
	.st0{fill:#FFFFFF;}
</style>
<g>
	<g>
		<g>
			<path class="st0" d="M340.35,89.71c-0.4,0-0.7,0.14-0.9,0.42c-0.2,0.28-0.3,0.69-0.3,1.23c0,0.54,0.1,0.95,0.3,1.23
				c0.2,0.28,0.5,0.42,0.9,0.42c0.4,0,0.7-0.14,0.9-0.42c0.19-0.28,0.29-0.69,0.29-1.23c0-0.54-0.1-0.95-0.29-1.23
				C341.05,89.85,340.75,89.71,340.35,89.71z"/>
			<polygon class="st0" points="320.46,91.88 321.61,91.88 321.04,89.95 			"/>
			<path class="st0" d="M326.93,58c0.12-0.12,0.18-0.29,0.18-0.51c0-0.21-0.06-0.37-0.19-0.49c-0.13-0.12-0.36-0.17-0.68-0.17h-0.69
				v1.34h0.74C326.6,58.17,326.81,58.11,326.93,58z"/>
			<path class="st0" d="M339.65,58.07c0.12-0.12,0.19-0.29,0.19-0.53c0-0.24-0.06-0.41-0.19-0.52c-0.13-0.11-0.35-0.17-0.66-0.17
				h-0.64v1.39h0.64C339.31,58.25,339.53,58.19,339.65,58.07z"/>
			<path class="st0" d="M327.5,89.71h-0.69v1.34h0.74c0.31,0,0.52-0.06,0.64-0.18c0.12-0.12,0.19-0.29,0.19-0.51
				c0-0.21-0.07-0.37-0.2-0.49C328.04,89.77,327.81,89.71,327.5,89.71z"/>
			<path class="st0" d="M333.73,89.71h-0.69v1.34h0.74c0.31,0,0.52-0.06,0.64-0.18c0.12-0.12,0.19-0.29,0.19-0.51
				c0-0.21-0.07-0.37-0.2-0.49C334.27,89.77,334.05,89.71,333.73,89.71z"/>
			<polygon class="st0" points="307.9,76.52 310.49,76.52 309.22,72.27 			"/>
			<path class="st0" d="M358.44,89.71c-0.4,0-0.7,0.14-0.9,0.42c-0.2,0.28-0.3,0.69-0.3,1.23c0,0.54,0.1,0.95,0.3,1.23
				c0.2,0.28,0.5,0.42,0.9,0.42c0.4,0,0.7-0.14,0.9-0.42c0.2-0.28,0.3-0.69,0.3-1.23c0-0.54-0.1-0.95-0.3-1.23
				C359.15,89.85,358.85,89.71,358.44,89.71z"/>
			<polygon class="st0" points="353.26,76.52 355.86,76.52 354.58,72.27 			"/>
			<path class="st0" d="M302.21,89.82h-0.71v3.06h0.64c0.46,0,0.8-0.14,1.01-0.4c0.21-0.27,0.32-0.65,0.32-1.14
				c0-0.49-0.1-0.87-0.3-1.13C302.97,89.95,302.65,89.82,302.21,89.82z"/>
			<path class="st0" d="M345.47,60.12c0.4,0,0.7-0.14,0.9-0.42c0.2-0.28,0.29-0.69,0.29-1.23c0-0.54-0.1-0.95-0.29-1.23
				c-0.2-0.28-0.5-0.42-0.9-0.42s-0.7,0.14-0.9,0.42c-0.2,0.28-0.3,0.69-0.3,1.23c0,0.54,0.1,0.95,0.3,1.23
				C344.77,59.98,345.07,60.12,345.47,60.12z"/>
			<path class="st0" d="M395.36,55.09c-0.01-0.08-0.03-0.16-0.05-0.23c-0.04-0.16-0.07-0.32-0.12-0.48
				c-0.03-0.09-0.06-0.17-0.09-0.26c-0.05-0.14-0.11-0.28-0.18-0.41c-0.04-0.08-0.08-0.17-0.13-0.25c-0.08-0.13-0.16-0.25-0.24-0.38
				c-0.05-0.07-0.1-0.15-0.15-0.22c-0.11-0.13-0.22-0.26-0.33-0.38c-0.05-0.05-0.09-0.1-0.14-0.14c-0.17-0.16-0.35-0.31-0.54-0.45
				c-0.05-0.03-0.1-0.06-0.15-0.09c-0.12-0.08-0.25-0.16-0.38-0.23l-0.06-0.02c-0.26-0.13-0.52-0.25-0.8-0.33l-0.03-0.01
				l-55.92-22.37c-0.24-0.12-0.48-0.22-0.73-0.31c-0.79-0.29-1.64-0.46-2.54-0.46c-0.12,0-0.23,0.03-0.35,0.03
				c-0.12-0.01-0.23-0.03-0.35-0.03c-0.89,0-1.75,0.16-2.54,0.46c-0.25,0.09-0.49,0.2-0.72,0.31L299.67,40.5v-8.55
				c0-2.12-1.72-3.84-3.84-3.84h-11.01c-2.12,0-3.84,1.72-3.84,3.84v16.02l-8.1,3.24l-0.03,0.01c-0.28,0.08-0.55,0.2-0.8,0.33
				l-0.06,0.02c-0.13,0.07-0.25,0.15-0.38,0.23c-0.05,0.03-0.1,0.06-0.15,0.09c-0.19,0.14-0.37,0.28-0.54,0.45
				c-0.05,0.04-0.09,0.1-0.13,0.14c-0.12,0.12-0.23,0.25-0.34,0.38c-0.06,0.07-0.1,0.14-0.15,0.22c-0.08,0.12-0.17,0.25-0.24,0.38
				c-0.05,0.08-0.09,0.16-0.13,0.25c-0.07,0.13-0.12,0.27-0.18,0.41c-0.03,0.08-0.06,0.17-0.09,0.26c-0.05,0.16-0.08,0.31-0.12,0.48
				c-0.02,0.08-0.04,0.15-0.05,0.23c-0.04,0.24-0.06,0.49-0.06,0.74v49.49c0,2.65,2.15,4.81,4.81,4.81h116.38
				c2.65,0,4.81-2.15,4.81-4.81V55.83C395.42,55.58,395.39,55.33,395.36,55.09z M342.89,57.26c0.12-0.37,0.3-0.68,0.54-0.93
				c0.24-0.26,0.53-0.45,0.87-0.59c0.35-0.14,0.74-0.21,1.19-0.21c0.44,0,0.83,0.07,1.17,0.2c0.34,0.14,0.62,0.33,0.86,0.58
				c0.23,0.25,0.41,0.56,0.53,0.92c0.12,0.36,0.18,0.77,0.18,1.22c0,0.46-0.06,0.87-0.19,1.23c-0.12,0.37-0.3,0.68-0.54,0.93
				c-0.23,0.26-0.53,0.45-0.87,0.59c-0.35,0.14-0.74,0.21-1.19,0.21c-0.44,0-0.83-0.07-1.17-0.2c-0.34-0.14-0.63-0.33-0.86-0.58
				c-0.23-0.25-0.41-0.56-0.53-0.92c-0.12-0.36-0.18-0.77-0.18-1.22C342.71,58.04,342.77,57.63,342.89,57.26z M324.12,55.67h2.21
				c0.44,0,0.8,0.05,1.08,0.15c0.29,0.1,0.52,0.23,0.69,0.4c0.17,0.16,0.29,0.36,0.36,0.57c0.07,0.21,0.11,0.43,0.11,0.66
				c0,0.36-0.07,0.67-0.2,0.94c-0.14,0.27-0.35,0.49-0.63,0.66l1.15,2.24h-1.59l-0.92-1.93h-0.82v1.93h-1.44V55.67z M317.32,57.25
				c0.12-0.37,0.3-0.68,0.53-0.93c0.23-0.25,0.51-0.45,0.85-0.59c0.34-0.14,0.72-0.2,1.16-0.2c0.38,0,0.7,0.05,0.98,0.15
				c0.28,0.1,0.51,0.23,0.71,0.4c0.19,0.17,0.34,0.36,0.45,0.58c0.11,0.22,0.18,0.45,0.22,0.69l-1.51,0.15
				c-0.06-0.24-0.16-0.42-0.29-0.53c-0.14-0.11-0.33-0.17-0.58-0.17c-0.39,0-0.68,0.14-0.87,0.42c-0.19,0.28-0.28,0.69-0.28,1.25
				c0,0.56,0.1,0.98,0.3,1.26c0.2,0.28,0.54,0.42,1.02,0.42c0.34,0,0.63-0.07,0.88-0.2v-0.65H320v-1.22h2.28v2.55
				c-0.28,0.22-0.62,0.41-1.04,0.57c-0.41,0.15-0.87,0.23-1.37,0.23c-0.46,0-0.87-0.07-1.21-0.21c-0.34-0.14-0.63-0.34-0.86-0.59
				c-0.23-0.25-0.4-0.56-0.51-0.92c-0.11-0.36-0.17-0.76-0.17-1.2C317.13,58.04,317.19,57.62,317.32,57.25z M295.01,81.27
				c-1.54,0-2.9-0.38-4.08-1.38c-2.01-1.69-2.17-4.1-2.17-4.95c0-0.73,0.08-2.41,1.25-4.03c1.66-2.34,3.96-2.51,5.02-2.51
				c2.75,0,4.39,1.43,5.05,2.2c0.36,0.41,0.53,0.7,0.78,1.16l-3.19,1.59c-0.05-0.12-0.12-0.24-0.17-0.36
				c-0.21-0.41-0.8-1.66-2.34-1.64c-0.7,0-1.14,0.26-1.38,0.43c-1.19,0.89-1.14,2.62-1.14,2.93c0,1.65,0.53,2.54,1.11,3
				c0.6,0.46,1.14,0.48,1.43,0.48c1.31,0,1.93-0.89,2.17-1.29c0.08-0.17,0.15-0.33,0.27-0.68l3.26,1.57
				c-0.43,0.78-0.65,1.09-0.94,1.43C299.23,80.04,297.69,81.27,295.01,81.27z M304.27,93.42c-0.51,0.49-1.23,0.74-2.16,0.74h-2.12
				v-5.61h2.21c0.93,0,1.64,0.23,2.12,0.7c0.48,0.47,0.72,1.15,0.72,2.04C305.03,92.21,304.77,92.92,304.27,93.42z M310.8,94.16
				h-4.05v-5.61h4.01v1.24h-2.54v0.9h2.39v1.24h-2.39v0.99h2.71L310.8,94.16z M311.28,79.2h-4.2l-0.53,1.69h-4.09l4.61-12.05h4.33
				l4.51,12.05h-4.1L311.28,79.2z M316.96,93.21c-0.09,0.23-0.24,0.42-0.43,0.58c-0.19,0.16-0.44,0.28-0.74,0.37
				c-0.3,0.09-0.65,0.13-1.05,0.13c-1.55-0.01-2.37-0.67-2.45-1.98h1.5c0.03,0.26,0.13,0.45,0.29,0.58c0.16,0.13,0.4,0.19,0.71,0.19
				c0.27,0,0.47-0.05,0.6-0.14c0.13-0.09,0.2-0.23,0.2-0.4c0-0.13-0.05-0.24-0.13-0.33c-0.09-0.08-0.25-0.15-0.49-0.2l-0.75-0.14
				c-0.62-0.12-1.08-0.31-1.38-0.58c-0.3-0.27-0.45-0.65-0.45-1.13c0-0.58,0.2-1.02,0.6-1.31c0.4-0.3,0.95-0.44,1.65-0.44
				c0.41,0,0.76,0.05,1.04,0.14c0.29,0.09,0.52,0.22,0.71,0.38c0.18,0.16,0.32,0.34,0.42,0.54c0.09,0.21,0.15,0.42,0.18,0.65
				l-1.46,0.15c-0.05-0.23-0.14-0.39-0.27-0.5c-0.13-0.11-0.34-0.17-0.62-0.17c-0.26,0-0.45,0.04-0.57,0.13
				c-0.12,0.09-0.19,0.2-0.19,0.35c0,0.13,0.05,0.23,0.15,0.31c0.1,0.08,0.26,0.14,0.48,0.18l0.76,0.15
				c0.66,0.13,1.13,0.34,1.4,0.63c0.28,0.29,0.42,0.66,0.42,1.1C317.1,92.74,317.05,92.99,316.96,93.21z M317.12,78.59l2.92-1.86
				c0.26,0.41,0.41,0.6,0.58,0.74c0.68,0.6,1.95,0.85,2.78,0.85c1.07,0,1.83-0.33,1.83-0.92c0-0.14-0.07-0.24-0.08-0.29
				c-0.09-0.17-0.22-0.33-0.58-0.44c-0.43-0.15-1.19-0.26-2.27-0.48c-1.66-0.33-2.54-0.73-3.12-1.25c-0.37-0.32-1.06-1.13-1.04-2.44
				c0-0.33,0.02-1.06,0.44-1.83c1.23-2.25,4.42-2.22,4.88-2.22c0.61,0,2.78,0.03,4.5,1.3c0.38,0.27,0.6,0.51,0.92,0.84l-2.41,2
				c-0.15-0.21-0.24-0.31-0.34-0.39c-0.7-0.65-1.91-0.84-2.81-0.84c-0.09,0-0.55,0-0.9,0.15c-0.07,0.04-0.48,0.23-0.48,0.63
				c0,0.22,0.14,0.43,0.31,0.55c0.31,0.19,1.02,0.33,1.35,0.38c0.43,0.07,1.55,0.22,2.75,0.61c0.75,0.24,2.61,0.91,2.61,3.31
				c0,1.79-1.06,2.77-1.59,3.16c-1.55,1.15-3.58,1.11-4.1,1.11c-1.76,0-3.43-0.29-4.86-1.37C317.86,79.47,317.53,79.12,317.12,78.59
				z M322.3,94.16l-0.32-1.08h-1.89l-0.31,1.08h-1.52l1.95-5.61h1.71l1.95,5.61H322.3z M328.54,94.16l-0.92-1.93h-0.82v1.93h-1.44
				v-5.61h2.21c0.44,0,0.8,0.05,1.08,0.15c0.29,0.1,0.52,0.23,0.69,0.4c0.17,0.16,0.29,0.35,0.36,0.57
				c0.07,0.21,0.11,0.43,0.11,0.66c0,0.36-0.07,0.67-0.2,0.94c-0.14,0.27-0.35,0.49-0.63,0.66l1.15,2.24H328.54z M330.41,60.07
				c-0.1-0.31-0.16-0.68-0.16-1.12v-3.28h1.51v3.34c0,0.38,0.07,0.66,0.2,0.84c0.13,0.18,0.35,0.27,0.67,0.27
				c0.31,0,0.54-0.09,0.67-0.27c0.13-0.18,0.2-0.46,0.2-0.84v-3.34H335v3.28c0,0.44-0.05,0.81-0.16,1.12
				c-0.11,0.31-0.27,0.57-0.47,0.77c-0.2,0.2-0.45,0.34-0.75,0.44c-0.3,0.1-0.63,0.14-1,0.14c-0.37,0-0.7-0.05-1-0.14
				c-0.29-0.09-0.54-0.24-0.74-0.44C330.67,60.63,330.52,60.38,330.41,60.07z M331.57,68.84h3.82v12.05h-3.82V68.84z M334.77,94.16
				l-0.92-1.93h-0.82v1.93h-1.44v-5.61h2.21c0.44,0,0.8,0.05,1.08,0.15c0.29,0.1,0.52,0.23,0.69,0.4c0.17,0.16,0.29,0.35,0.36,0.57
				c0.07,0.21,0.11,0.43,0.11,0.66c0,0.36-0.07,0.67-0.2,0.94c-0.14,0.27-0.35,0.49-0.63,0.66l1.15,2.24H334.77z M336.89,55.67h2.09
				c0.44,0,0.81,0.05,1.09,0.15c0.29,0.1,0.52,0.23,0.69,0.4c0.17,0.17,0.29,0.37,0.36,0.59c0.07,0.22,0.1,0.47,0.1,0.72
				c0,0.26-0.04,0.51-0.1,0.74c-0.07,0.23-0.19,0.44-0.37,0.61c-0.17,0.18-0.4,0.31-0.69,0.41c-0.29,0.1-0.64,0.15-1.07,0.15h-0.65
				v1.82h-1.46V55.67z M342.92,92.56c-0.12,0.36-0.3,0.68-0.54,0.93c-0.24,0.26-0.53,0.45-0.87,0.59c-0.34,0.14-0.74,0.21-1.18,0.21
				c-0.44,0-0.83-0.07-1.17-0.2c-0.34-0.14-0.63-0.33-0.86-0.58c-0.23-0.25-0.41-0.56-0.53-0.92c-0.12-0.36-0.18-0.77-0.18-1.22
				c0-0.45,0.06-0.87,0.19-1.23c0.12-0.37,0.3-0.68,0.54-0.93c0.23-0.25,0.53-0.45,0.87-0.59c0.35-0.14,0.74-0.21,1.19-0.21
				c0.44,0,0.83,0.07,1.17,0.2c0.34,0.14,0.62,0.33,0.86,0.58c0.23,0.25,0.41,0.56,0.53,0.92c0.12,0.36,0.18,0.77,0.18,1.22
				C343.1,91.79,343.04,92.2,342.92,92.56z M344.38,80.89h-3.8v-9.08h-3.07v-2.97h9.93v2.97h-3.05V80.89z M348.7,94.16h-3.86v-5.61
				h1.51v4.33h2.48L348.7,94.16z M354.21,94.16h-3.86v-5.61h1.51v4.33h2.48L354.21,94.16z M361.02,92.56
				c-0.12,0.36-0.3,0.68-0.54,0.93c-0.24,0.26-0.53,0.45-0.87,0.59c-0.35,0.14-0.74,0.21-1.18,0.21c-0.44,0-0.83-0.07-1.17-0.2
				c-0.34-0.14-0.63-0.33-0.86-0.58c-0.23-0.25-0.41-0.56-0.53-0.92c-0.12-0.36-0.18-0.77-0.18-1.22c0-0.45,0.06-0.87,0.18-1.23
				c0.12-0.37,0.3-0.68,0.54-0.93c0.24-0.25,0.53-0.45,0.87-0.59c0.34-0.14,0.74-0.21,1.18-0.21c0.44,0,0.83,0.07,1.17,0.2
				c0.34,0.14,0.63,0.33,0.86,0.58c0.23,0.25,0.41,0.56,0.53,0.92c0.12,0.36,0.18,0.77,0.18,1.22
				C361.2,91.79,361.14,92.2,361.02,92.56z M357.17,80.89l-0.53-1.69h-4.2l-0.53,1.69h-4.09l4.61-12.05h4.33l4.51,12.05H357.17z
				 M367.3,93.21c-0.09,0.23-0.24,0.42-0.43,0.58c-0.19,0.16-0.44,0.28-0.74,0.37c-0.3,0.09-0.65,0.13-1.05,0.13
				c-1.55-0.01-2.37-0.67-2.45-1.98h1.5c0.03,0.26,0.13,0.45,0.29,0.58c0.16,0.13,0.4,0.19,0.72,0.19c0.26,0,0.47-0.05,0.6-0.14
				c0.13-0.09,0.2-0.23,0.2-0.4c0-0.13-0.04-0.24-0.13-0.33c-0.09-0.08-0.25-0.15-0.49-0.2l-0.75-0.14
				c-0.62-0.12-1.08-0.31-1.38-0.58c-0.3-0.27-0.45-0.65-0.45-1.13c0-0.58,0.2-1.02,0.6-1.31c0.4-0.3,0.95-0.44,1.65-0.44
				c0.41,0,0.76,0.05,1.04,0.14c0.29,0.09,0.53,0.22,0.71,0.38c0.18,0.16,0.32,0.34,0.42,0.54c0.09,0.21,0.16,0.42,0.18,0.65
				l-1.46,0.15c-0.05-0.23-0.14-0.39-0.27-0.5c-0.13-0.11-0.34-0.17-0.63-0.17c-0.25,0-0.45,0.04-0.57,0.13
				c-0.12,0.09-0.19,0.2-0.19,0.35c0,0.13,0.05,0.23,0.15,0.31c0.1,0.08,0.26,0.14,0.48,0.18l0.76,0.15
				c0.66,0.13,1.13,0.34,1.41,0.63c0.28,0.29,0.42,0.66,0.42,1.1C367.44,92.74,367.4,92.99,367.3,93.21z M373.08,80.14
				c-1.55,1.15-3.58,1.11-4.1,1.11c-1.76,0-3.43-0.29-4.86-1.37c-0.55-0.41-0.87-0.77-1.28-1.3l2.92-1.86
				c0.25,0.41,0.41,0.6,0.58,0.74c0.68,0.6,1.95,0.85,2.78,0.85c1.08,0,1.83-0.33,1.83-0.92c0-0.14-0.07-0.24-0.08-0.29
				c-0.09-0.17-0.23-0.33-0.58-0.44c-0.43-0.15-1.2-0.26-2.27-0.48c-1.66-0.33-2.54-0.73-3.12-1.25c-0.37-0.32-1.06-1.13-1.04-2.44
				c0-0.33,0.02-1.06,0.45-1.83c1.23-2.25,4.42-2.22,4.88-2.22c0.62,0,2.78,0.03,4.51,1.3c0.38,0.27,0.6,0.51,0.92,0.84l-2.41,2
				c-0.15-0.21-0.24-0.31-0.34-0.39c-0.7-0.65-1.91-0.84-2.82-0.84c-0.08,0-0.54,0-0.9,0.15c-0.07,0.04-0.48,0.23-0.48,0.63
				c0,0.22,0.14,0.43,0.31,0.55c0.31,0.19,1.02,0.33,1.35,0.38c0.43,0.07,1.56,0.22,2.75,0.61c0.75,0.24,2.61,0.91,2.61,3.31
				C374.67,78.77,373.61,79.75,373.08,80.14z"/>
		</g>
		<g>
			<path class="st0" d="M401.01,106.78h0.85c0.38,0,0.64-0.09,0.81-0.22c0.13-0.08,0.21-0.26,0.21-0.48c0-0.13-0.05-0.22-0.13-0.35
				c-0.04-0.09-0.17-0.17-0.3-0.22c-0.13-0.04-0.34-0.04-0.68-0.04h-0.77V106.78z M400.33,109.17v-4.31h1.45
				c0.51,0,0.85,0.04,1.07,0.13c0.26,0.09,0.43,0.22,0.56,0.39c0.13,0.22,0.21,0.43,0.21,0.65c0,0.3-0.13,0.61-0.34,0.83
				c-0.21,0.22-0.51,0.35-0.9,0.39c0.17,0.09,0.3,0.13,0.39,0.22c0.17,0.17,0.39,0.48,0.6,0.87l0.51,0.82h-0.81l-0.38-0.65
				c-0.3-0.52-0.52-0.87-0.73-1c-0.13-0.13-0.3-0.18-0.55-0.18h-0.39v1.83H400.33z M402.08,103.6c-0.56,0-1.11,0.18-1.62,0.43
				c-0.55,0.31-0.94,0.74-1.24,1.26c-0.3,0.52-0.47,1.09-0.47,1.65c0,0.61,0.17,1.13,0.47,1.7c0.26,0.52,0.68,0.91,1.2,1.22
				c0.51,0.3,1.07,0.43,1.67,0.43c0.56,0,1.11-0.13,1.62-0.43c0.51-0.31,0.94-0.7,1.2-1.22c0.3-0.57,0.43-1.09,0.43-1.7
				c0-0.56-0.13-1.13-0.43-1.65c-0.3-0.52-0.68-0.96-1.24-1.26C403.15,103.78,402.59,103.6,402.08,103.6 M402.08,102.95
				c0.64,0,1.28,0.17,1.92,0.52c0.64,0.35,1.11,0.83,1.45,1.48c0.39,0.66,0.56,1.31,0.56,2c0,0.7-0.17,1.4-0.51,2
				c-0.38,0.65-0.85,1.13-1.49,1.53c-0.6,0.35-1.24,0.52-1.92,0.52c-0.68,0-1.37-0.17-1.97-0.52c-0.64-0.39-1.11-0.87-1.49-1.53
				c-0.34-0.6-0.51-1.3-0.51-2c0-0.69,0.17-1.35,0.56-2c0.34-0.65,0.81-1.13,1.45-1.48C400.76,103.12,401.4,102.95,402.08,102.95"/>
		</g>
	</g>
	<path class="st0" d="M231.3,86.78h9.48l0.31-1.65h-7.91v-5h7.12v-1.67h-7.12v-4.56h7.53v-1.65h-9.4V86.78z M216.62,85.15V73.84
		h3.21c0.84,0,1.57,0.13,2.18,0.38c0.61,0.25,1.11,0.62,1.49,1.1c0.39,0.48,0.67,1.07,0.85,1.76c0.18,0.69,0.27,1.48,0.27,2.36
		c0,1.78-0.42,3.18-1.24,4.19c-0.83,1.01-2.15,1.52-3.95,1.52H216.62z M214.75,86.78h4.62c1.11,0,2.12-0.16,3.01-0.47
		c0.89-0.31,1.65-0.77,2.28-1.38c0.62-0.61,1.1-1.38,1.43-2.3c0.33-0.92,0.5-1.99,0.5-3.21c0-1.21-0.16-2.26-0.47-3.15
		c-0.32-0.89-0.76-1.64-1.33-2.24c-0.58-0.6-1.28-1.04-2.12-1.33c-0.83-0.29-1.78-0.44-2.84-0.44h-5.08V86.78z M194.68,85.09
		c-0.59-0.28-1.08-0.69-1.47-1.21s-0.69-1.15-0.88-1.89c-0.2-0.74-0.29-1.56-0.29-2.47c0-0.89,0.1-1.71,0.29-2.45
		c0.2-0.74,0.49-1.37,0.89-1.9c0.4-0.53,0.89-0.94,1.48-1.22c0.59-0.28,1.28-0.43,2.06-0.43c0.77,0,1.45,0.14,2.03,0.43
		c0.58,0.28,1.07,0.69,1.47,1.22c0.4,0.53,0.7,1.16,0.91,1.9c0.2,0.74,0.31,1.56,0.31,2.45c0,0.91-0.1,1.73-0.31,2.47
		c-0.2,0.74-0.5,1.37-0.89,1.89s-0.88,0.93-1.47,1.21c-0.59,0.28-1.27,0.43-2.04,0.43C195.97,85.52,195.27,85.38,194.68,85.09
		 M199.51,86.64c0.82-0.34,1.52-0.83,2.11-1.48c0.58-0.65,1.03-1.45,1.35-2.41c0.32-0.96,0.48-2.04,0.48-3.26s-0.16-2.3-0.49-3.24
		c-0.33-0.94-0.78-1.74-1.36-2.38c-0.58-0.64-1.28-1.13-2.11-1.46c-0.82-0.33-1.73-0.5-2.72-0.5c-0.98,0-1.87,0.17-2.69,0.51
		c-0.82,0.34-1.53,0.83-2.12,1.48c-0.59,0.65-1.05,1.45-1.38,2.4c-0.33,0.95-0.5,2.03-0.5,3.25s0.16,2.31,0.49,3.25
		c0.33,0.95,0.78,1.75,1.37,2.39c0.59,0.64,1.29,1.13,2.12,1.46s1.73,0.5,2.72,0.5C197.77,87.15,198.68,86.98,199.51,86.64
		 M178.12,86.78h9.11l0.28-1.67h-7.53V72.26h-1.87V86.78z M164.65,86.78h9.11l0.28-1.67h-7.53V72.26h-1.87V86.78z M151.16,85.09
		c-0.59-0.28-1.08-0.69-1.47-1.21s-0.69-1.15-0.88-1.89c-0.2-0.74-0.29-1.56-0.29-2.47c0-0.89,0.1-1.71,0.29-2.45
		c0.2-0.74,0.49-1.37,0.89-1.9c0.4-0.53,0.89-0.94,1.48-1.22c0.59-0.28,1.28-0.43,2.06-0.43c0.77,0,1.45,0.14,2.03,0.43
		c0.58,0.28,1.07,0.69,1.47,1.22c0.4,0.53,0.7,1.16,0.91,1.9c0.2,0.74,0.31,1.56,0.31,2.45c0,0.91-0.1,1.73-0.31,2.47
		c-0.2,0.74-0.5,1.37-0.89,1.89c-0.39,0.52-0.88,0.93-1.47,1.21c-0.59,0.28-1.27,0.43-2.04,0.43
		C152.44,85.52,151.75,85.38,151.16,85.09 M155.98,86.64c0.82-0.34,1.52-0.83,2.11-1.48c0.58-0.65,1.03-1.45,1.35-2.41
		c0.32-0.96,0.48-2.04,0.48-3.26s-0.16-2.3-0.49-3.24c-0.33-0.94-0.78-1.74-1.36-2.38c-0.58-0.64-1.28-1.13-2.1-1.46
		c-0.82-0.33-1.73-0.5-2.72-0.5c-0.98,0-1.87,0.17-2.69,0.51c-0.82,0.34-1.53,0.83-2.12,1.48c-0.59,0.65-1.05,1.45-1.38,2.4
		c-0.33,0.95-0.5,2.03-0.5,3.25s0.16,2.31,0.49,3.25c0.33,0.95,0.78,1.75,1.37,2.39c0.59,0.64,1.29,1.13,2.12,1.46
		c0.82,0.33,1.73,0.5,2.72,0.5C154.25,87.15,155.16,86.98,155.98,86.64 M134.23,79.17v-5.33h2.84c0.69,0,1.26,0.06,1.7,0.17
		c0.45,0.12,0.8,0.29,1.06,0.51c0.26,0.22,0.45,0.49,0.56,0.81c0.11,0.31,0.16,0.67,0.16,1.08c0,0.42-0.05,0.8-0.14,1.14
		c-0.09,0.34-0.26,0.63-0.51,0.87c-0.24,0.24-0.57,0.42-0.99,0.55c-0.42,0.13-0.95,0.19-1.6,0.19H134.23z M132.36,86.78h1.87v-6.02
		h2.86c0.16,0,0.34,0,0.55-0.01c0.2-0.01,0.39-0.02,0.57-0.05l2.74,6.08h2.09l-3.05-6.53c0.88-0.37,1.51-0.87,1.9-1.53
		c0.39-0.65,0.58-1.44,0.58-2.36c0-0.5-0.07-1-0.22-1.48c-0.15-0.49-0.42-0.93-0.82-1.31c-0.4-0.39-0.95-0.7-1.64-0.95
		c-0.69-0.24-1.58-0.37-2.66-0.37h-4.76V86.78z M119.34,79.17v-5.33h2.84c0.69,0,1.26,0.06,1.7,0.17c0.45,0.12,0.8,0.29,1.06,0.51
		c0.26,0.22,0.45,0.49,0.56,0.81c0.11,0.31,0.16,0.67,0.16,1.08c0,0.42-0.05,0.8-0.14,1.14c-0.09,0.34-0.26,0.63-0.51,0.87
		c-0.24,0.24-0.57,0.42-0.99,0.55c-0.42,0.13-0.95,0.19-1.6,0.19H119.34z M117.47,86.78h1.87v-6.02h2.86c0.16,0,0.34,0,0.55-0.01
		c0.2-0.01,0.39-0.02,0.57-0.05l2.74,6.08h2.09l-3.05-6.53c0.88-0.37,1.51-0.87,1.9-1.53c0.39-0.65,0.58-1.44,0.58-2.36
		c0-0.5-0.07-1-0.22-1.48c-0.15-0.49-0.42-0.93-0.82-1.31c-0.4-0.39-0.95-0.7-1.64-0.95c-0.69-0.24-1.58-0.37-2.66-0.37h-4.76V86.78
		z M104.39,81.11l2.52-6.73l2.56,6.73H104.39z M100.34,86.78h1.95l1.53-4.05h6.22l1.53,4.05h2.03l-5.63-14.52H106L100.34,86.78z
		 M85.8,82.65c0.07,0.79,0.26,1.46,0.57,2.03c0.31,0.57,0.73,1.04,1.24,1.4c0.52,0.37,1.12,0.63,1.82,0.8
		c0.7,0.17,1.47,0.25,2.33,0.25c0.89,0,1.67-0.11,2.34-0.33c0.66-0.22,1.22-0.52,1.66-0.89c0.44-0.38,0.77-0.82,1-1.33
		c0.22-0.51,0.34-1.05,0.34-1.64c0-1.27-0.35-2.24-1.06-2.9c-0.7-0.66-1.81-1.13-3.32-1.41l-2.04-0.37
		c-0.51-0.09-0.93-0.21-1.26-0.34c-0.34-0.13-0.62-0.29-0.83-0.49c-0.21-0.2-0.36-0.43-0.45-0.69C88.04,76.5,88,76.19,88,75.84
		c0-0.33,0.06-0.63,0.17-0.93c0.12-0.29,0.31-0.54,0.58-0.75c0.27-0.21,0.63-0.38,1.08-0.5c0.45-0.12,1.01-0.18,1.67-0.18
		c0.58,0,1.08,0.05,1.49,0.16s0.75,0.27,1.03,0.48s0.5,0.47,0.67,0.79c0.17,0.32,0.31,0.68,0.42,1.09l1.75-0.35
		c-0.11-0.47-0.27-0.94-0.48-1.39c-0.21-0.45-0.52-0.86-0.93-1.21c-0.41-0.35-0.93-0.63-1.58-0.84s-1.45-0.32-2.41-0.32
		c-0.76,0-1.46,0.08-2.12,0.24c-0.65,0.16-1.21,0.41-1.69,0.75c-0.47,0.34-0.85,0.76-1.13,1.26s-0.42,1.08-0.42,1.75
		c0,0.68,0.1,1.25,0.29,1.73c0.2,0.47,0.49,0.87,0.87,1.19c0.39,0.32,0.86,0.58,1.41,0.78c0.56,0.21,1.19,0.37,1.91,0.49l1.83,0.33
		c0.54,0.09,0.99,0.22,1.33,0.39c0.35,0.16,0.62,0.35,0.81,0.57c0.2,0.22,0.33,0.46,0.4,0.73c0.07,0.26,0.1,0.54,0.1,0.82
		c0,0.35-0.05,0.69-0.16,1.01c-0.11,0.32-0.29,0.6-0.55,0.84c-0.26,0.24-0.6,0.43-1.03,0.57s-0.96,0.21-1.6,0.21
		c-1.27,0-2.23-0.23-2.88-0.68c-0.64-0.46-1.05-1.2-1.21-2.22H85.8z M72.7,86.78h9.48l0.31-1.65h-7.91v-5h7.12v-1.67h-7.12v-4.56
		h7.53v-1.65h-9.4V86.78z M58.02,85.15V73.84h3.21c0.84,0,1.57,0.13,2.18,0.38c0.61,0.25,1.11,0.62,1.49,1.1
		c0.39,0.48,0.67,1.07,0.85,1.76c0.18,0.69,0.27,1.48,0.27,2.36c0,1.78-0.41,3.18-1.24,4.19c-0.83,1.01-2.14,1.52-3.95,1.52H58.02z
		 M56.15,86.78h4.62c1.11,0,2.12-0.16,3.01-0.47c0.89-0.31,1.65-0.77,2.28-1.38c0.62-0.61,1.1-1.38,1.43-2.3
		c0.33-0.92,0.5-1.99,0.5-3.21c0-1.21-0.16-2.26-0.47-3.15c-0.31-0.89-0.76-1.64-1.33-2.24c-0.58-0.6-1.28-1.04-2.12-1.33
		c-0.83-0.29-1.78-0.44-2.84-0.44h-5.08V86.78z M33.29,86.78h1.81V75.31l7.44,11.47h1.79V72.26h-1.81v11.53l-7.38-11.53h-1.85V86.78
		z M17.22,80.94c0,2.18,0.48,3.76,1.43,4.74c0.96,0.98,2.31,1.46,4.06,1.46c0.85,0,1.62-0.12,2.31-0.35c0.68-0.23,1.26-0.6,1.73-1.1
		c0.47-0.5,0.83-1.14,1.08-1.9c0.25-0.77,0.38-1.69,0.38-2.78v-8.77h-1.87v8.77c0,1.49-0.27,2.61-0.81,3.37
		c-0.54,0.75-1.47,1.13-2.79,1.13c-1.3,0-2.23-0.37-2.8-1.12c-0.56-0.75-0.84-1.87-0.84-3.38v-8.77h-1.87V80.94z"/>
</g>
</svg>
