<svg width="122" height="95" viewBox="0 0 122 95" fill="none" xmlns="http://www.w3.org/2000/svg">
<g clip-path="url(#clip0)">
<path d="M112.475 46.092C112.453 46.0244 112.453 45.9568 112.43 45.8892C112.408 45.7541 112.363 45.5964 112.318 45.4612C112.296 45.3936 112.273 45.3035 112.228 45.2359C112.183 45.1233 112.138 44.9881 112.071 44.8755C112.026 44.8079 112.004 44.7178 111.959 44.6502C111.891 44.5376 111.824 44.4249 111.734 44.3123C111.689 44.2447 111.644 44.1771 111.599 44.1321C111.509 44.0194 111.397 43.9068 111.307 43.7942C111.262 43.7491 111.24 43.704 111.195 43.659C111.038 43.5238 110.88 43.3887 110.701 43.276C110.656 43.2535 110.611 43.231 110.566 43.1859C110.454 43.1183 110.341 43.0507 110.229 42.9832L110.184 42.9606C109.959 42.848 109.712 42.7579 109.465 42.6678H109.443L59.5062 23.1136C59.304 23.0009 59.0794 22.9108 58.8547 22.8432C58.1584 22.5954 57.3946 22.4377 56.5859 22.4377C56.4736 22.4377 56.3837 22.4603 56.2714 22.4603C56.1591 22.4603 56.0692 22.4377 55.9569 22.4377C55.1707 22.4377 54.3845 22.5729 53.6881 22.8432C53.4634 22.9108 53.2613 23.0235 53.0366 23.1136L27.0238 33.3412V25.862C27.0238 24.0147 25.4962 22.5053 23.5868 22.5053H13.7477C11.8608 22.5053 10.3108 24.0147 10.3108 25.862V39.8743L3.07752 42.7128H3.05505C2.80795 42.8029 2.58332 42.893 2.33622 43.0057L2.29129 43.0282C2.17897 43.0958 2.06665 43.1634 1.95434 43.231C1.90941 43.2535 1.86448 43.276 1.81955 43.3211C1.63985 43.4337 1.4826 43.5689 1.32535 43.704C1.28043 43.7491 1.25796 43.7942 1.21304 43.8392C1.10072 43.9518 1.01086 44.0645 0.921009 44.1771C0.876082 44.2447 0.831154 44.3123 0.786227 44.3574C0.718836 44.47 0.628982 44.5601 0.584054 44.6953C0.539127 44.7629 0.4942 44.8304 0.471736 44.9206C0.404345 45.0332 0.359418 45.1458 0.314491 45.281C0.292027 45.3486 0.2471 45.4162 0.224636 45.5063C0.179709 45.6414 0.157245 45.7766 0.112318 45.9343C0.0898545 46.0019 0.0898545 46.0695 0.0673909 46.1371C0.0224636 46.3173 0 46.52 0 46.7453V90.0213C0 92.3417 1.93187 94.234 4.29055 94.234H108.23C110.611 94.234 112.52 92.3417 112.52 90.0213V46.7453C112.543 46.52 112.52 46.3173 112.475 46.092Z" fill="white"/>
<path d="M118.495 87.9489C119.057 87.9489 119.641 88.1065 120.225 88.3994C120.809 88.7148 121.213 89.1203 121.528 89.6835C121.865 90.2467 122.022 90.8324 122.022 91.4407C122.022 92.0489 121.865 92.6572 121.573 93.1978C121.236 93.761 120.809 94.1891 120.247 94.527C119.708 94.8198 119.146 94.9775 118.518 94.9775C117.911 94.9775 117.304 94.8198 116.765 94.527C116.181 94.1891 115.777 93.761 115.44 93.1978C115.126 92.6797 114.968 92.0489 114.968 91.4407C114.968 90.8324 115.126 90.2692 115.462 89.6835C115.777 89.1203 116.181 88.6923 116.765 88.3994C117.304 88.1065 117.889 87.9489 118.495 87.9489ZM118.495 88.5346C118.001 88.5346 117.507 88.6923 117.035 88.9176C116.541 89.1879 116.204 89.5709 115.934 90.0214C115.665 90.472 115.507 90.9676 115.507 91.4632C115.507 92.0039 115.665 92.4544 115.934 92.95C116.159 93.4006 116.541 93.7385 117.012 94.0088C117.462 94.2792 117.956 94.3918 118.495 94.3918C118.989 94.3918 119.483 94.2792 119.955 94.0088C120.404 93.7385 120.809 93.4006 121.011 92.95C121.281 92.4544 121.393 92.0039 121.393 91.4632C121.393 90.9676 121.281 90.472 121.011 90.0214C120.741 89.5709 120.404 89.1879 119.91 88.9176C119.439 88.6697 118.944 88.5346 118.495 88.5346ZM116.923 93.4006V89.6384H118.225C118.675 89.6384 118.989 89.6835 119.169 89.7511C119.394 89.8187 119.551 89.9313 119.663 90.089C119.775 90.2692 119.865 90.472 119.865 90.6522C119.865 90.9225 119.753 91.1929 119.551 91.3731C119.371 91.5533 119.102 91.6659 118.742 91.711C118.899 91.7786 119.012 91.8236 119.079 91.8912C119.236 92.0489 119.416 92.3193 119.618 92.6572L120.09 93.3781H119.371L119.034 92.8149C118.765 92.3643 118.562 92.0489 118.383 91.9363C118.27 91.8236 118.113 91.7786 117.889 91.7786H117.552V93.3781H116.923V93.4006ZM117.529 91.3055H118.293C118.63 91.3055 118.877 91.2379 119.012 91.1253C119.124 91.0577 119.191 90.9 119.191 90.6972C119.191 90.5846 119.146 90.517 119.079 90.3819C119.034 90.3143 118.922 90.2242 118.81 90.2016C118.697 90.1566 118.495 90.1566 118.203 90.1566H117.507V91.3055H117.529Z" fill="white"/>
<path d="M27.2698 67.2008C26.6183 67.9217 25.248 69.003 22.8669 69.003C21.4966 69.003 20.2836 68.6651 19.2278 67.7865C17.4307 66.2997 17.2959 64.2046 17.2959 63.4611C17.2959 62.8078 17.3633 61.3661 18.3966 59.9468C19.8792 57.8968 21.9234 57.7616 22.8669 57.7616C25.3154 57.7616 26.7756 59.0232 27.3821 59.6765C27.6966 60.0369 27.8538 60.2847 28.0784 60.6902L25.2256 62.0644C25.1806 61.9518 25.1132 61.8617 25.0683 61.749C24.8886 61.3886 24.3495 60.3072 22.9792 60.3072C22.3502 60.3072 21.9683 60.5325 21.7437 60.6902C20.6654 61.4562 20.7328 62.9881 20.7328 63.2584C20.7328 64.7002 21.2046 65.4887 21.7212 65.8942C22.2604 66.2997 22.7321 66.2997 23.0017 66.2997C24.1698 66.2997 24.7314 65.5337 24.9335 65.1733C25.0009 65.0156 25.0683 64.8804 25.1806 64.5875L28.1009 65.9617C27.719 66.6376 27.5169 66.9079 27.2698 67.2008Z" fill="#EC222A"/>
<path d="M35.5383 61.1178L34.3702 64.8349H36.684L35.5383 61.1178ZM37.8521 68.6646L37.3803 67.2003H33.6289L33.1572 68.6646H29.4956L33.6065 58.1216H37.4702L41.4912 68.6646H37.8521Z" fill="#EC222A"/>
<path d="M51.757 68.0115C50.3642 69.0028 48.5447 68.9802 48.0954 68.9802C46.5229 68.9802 45.0403 68.7324 43.7599 67.7863C43.2657 67.4258 42.9737 67.1104 42.6143 66.6599L45.22 65.0379C45.4447 65.3983 45.5795 65.556 45.7367 65.6912C46.3432 66.2093 47.4664 66.4346 48.2302 66.4346C49.1961 66.4346 49.87 66.1417 49.87 65.6236C49.87 65.5109 49.8026 65.4208 49.8026 65.3758C49.7352 65.2181 49.6005 65.0829 49.286 64.9928C48.9041 64.8576 48.2077 64.7675 47.2642 64.5873C45.7816 64.2944 44.9954 63.9565 44.4787 63.506C44.1418 63.2131 43.5353 62.5147 43.5577 61.3658C43.5577 61.073 43.5802 60.4422 43.9621 59.7663C45.0628 57.7839 47.9157 57.8289 48.32 57.8289C48.8591 57.8289 50.8135 57.8515 52.341 58.9553C52.678 59.2031 52.8801 59.4059 53.1722 59.6762L51.0157 61.4109C50.8809 61.2306 50.8135 61.1405 50.7012 61.073C50.0722 60.5098 48.9939 60.3521 48.1852 60.3521C48.1179 60.3521 47.691 60.3521 47.3765 60.4872C47.3092 60.5098 46.9497 60.69 46.9497 61.0504C46.9497 61.2532 47.0621 61.4334 47.2193 61.5235C47.4889 61.6812 48.1403 61.8164 48.4323 61.8614C48.8142 61.929 49.8251 62.0642 50.8809 62.4021C51.5548 62.6048 53.2171 63.1906 53.2171 65.2857C53.1722 66.8176 52.2287 67.6736 51.757 68.0115Z" fill="#EC222A"/>
<path d="M58.9233 58.1216H55.5088V68.6646H58.9233V58.1216Z" fill="#EC222A"/>
<path d="M66.9646 60.7348V68.6646H63.5501V60.7348H60.8096V58.1216H69.6827V60.7348H66.9646Z" fill="#EC222A"/>
<path d="M76.0618 61.1178L74.8937 64.8349H77.2074L76.0618 61.1178ZM78.3755 68.6646L77.9038 67.2003H74.1524L73.6806 68.6646H70.019L74.1299 58.1216H77.9936L82.0146 68.6646H78.3755Z" fill="#EC222A"/>
<path d="M92.5958 68.0115C91.2031 69.0028 89.3835 68.9802 88.9342 68.9802C87.3618 68.9802 85.8792 68.7324 84.5988 67.7863C84.1046 67.4258 83.8125 67.1104 83.4531 66.6599L86.0589 65.0379C86.2835 65.3983 86.4183 65.556 86.5756 65.6912C87.1821 66.2093 88.3053 66.4346 89.069 66.4346C90.035 66.4346 90.7089 66.1417 90.7089 65.6236C90.7089 65.5109 90.6415 65.4208 90.6415 65.3758C90.5741 65.2181 90.4393 65.0829 90.1248 64.9928C89.7429 64.8576 89.069 64.7675 88.1031 64.5873C86.6205 64.2944 85.8343 63.9565 85.3176 63.506C84.9806 63.2131 84.3741 62.5147 84.3966 61.3658C84.3966 61.073 84.4191 60.4422 84.8009 59.7663C85.9017 57.7839 88.7545 57.8289 89.1589 57.8289C89.698 57.8289 91.6523 57.8515 93.1799 58.9553C93.5168 59.2031 93.719 59.4059 94.011 59.6762L91.8545 61.4109C91.7197 61.2306 91.6299 61.1405 91.54 61.073C90.911 60.5098 89.8328 60.3521 89.0241 60.3521C88.9567 60.3521 88.5299 60.3521 88.2154 60.4872C88.148 60.5098 87.7886 60.69 87.7886 61.0504C87.7886 61.2532 87.9009 61.4334 88.0582 61.5235C88.3277 61.6812 88.9792 61.8164 89.2712 61.8614C89.6531 61.929 90.664 62.0642 91.7197 62.4021C92.3937 62.6048 94.056 63.1906 94.056 65.2857C94.011 66.8176 93.0676 67.6736 92.5958 68.0115Z" fill="#EC222A"/>
<path d="M47.2193 48.7051V50.9354C46.9722 51.1381 46.6577 51.2958 46.2983 51.431C45.9164 51.5662 45.5121 51.6337 45.0853 51.6337C44.6809 51.6337 44.3215 51.5662 44.007 51.4535C43.6925 51.3183 43.4454 51.1607 43.2432 50.9354C43.0411 50.7101 42.8838 50.4398 42.794 50.1244C42.6816 49.809 42.6367 49.4711 42.6367 49.0881C42.6367 48.6826 42.6816 48.3221 42.794 47.9842C42.9063 47.6688 43.0635 47.3985 43.2657 47.1732C43.4679 46.9479 43.715 46.7902 44.0295 46.6551C44.3215 46.5424 44.6809 46.4749 45.0628 46.4749C45.3997 46.4749 45.6918 46.5199 45.9389 46.61C46.186 46.7001 46.3881 46.8128 46.5679 46.9705C46.7476 47.1056 46.8823 47.2859 46.9722 47.4661C47.0621 47.6688 47.1294 47.8716 47.1744 48.0743L45.8266 48.2095C45.7816 48.0067 45.6918 47.8491 45.557 47.7589C45.4447 47.6688 45.265 47.6012 45.0403 47.6012C44.6809 47.6012 44.4338 47.7139 44.2766 47.9617C44.1193 48.2095 44.0295 48.5699 44.0295 49.0656C44.0295 49.5612 44.1193 49.9216 44.299 50.1694C44.4787 50.4172 44.7932 50.5299 45.1976 50.5299C45.4896 50.5299 45.7592 50.4623 45.9838 50.3496V49.7865H45.1976V48.7276H47.2193V48.7051Z" fill="#EC222A"/>
<path d="M50.7898 48.7953C51.0593 48.7953 51.2615 48.7503 51.3514 48.6376C51.4637 48.525 51.5086 48.3898 51.5086 48.1871C51.5086 48.0068 51.4412 47.8717 51.3289 47.759C51.2166 47.6464 51.0144 47.6013 50.7224 47.6013H50.1159V48.7728H50.7898V48.7953ZM52.6543 48.9755C52.5195 49.2233 52.3398 49.4036 52.0927 49.5613L53.126 51.5212H51.7108L50.8796 49.8316H50.1608V51.5212H48.8804V46.6101H50.8572C51.2391 46.6101 51.576 46.6552 51.8231 46.7453C52.0702 46.8354 52.2724 46.948 52.4296 47.0832C52.5869 47.2184 52.6992 47.3986 52.7441 47.5788C52.8115 47.759 52.834 47.9618 52.834 48.1645C52.834 48.4799 52.7666 48.7503 52.6543 48.9755Z" fill="#EC222A"/>
<path d="M55.5519 51.4987C55.2823 51.4085 55.0577 51.2959 54.878 51.1157C54.6983 50.9355 54.5635 50.7102 54.4736 50.4398C54.3838 50.1695 54.3389 49.8316 54.3389 49.4711V46.6101H55.6867V49.5387C55.6867 49.8766 55.7316 50.1019 55.8664 50.2821C55.9787 50.4398 56.1809 50.53 56.4729 50.53C56.7649 50.53 56.9446 50.4624 57.057 50.2821C57.1693 50.1245 57.2367 49.8766 57.2367 49.5387V46.6101H58.5845V49.4711C58.5845 49.8541 58.5396 50.1695 58.4272 50.4398C58.3149 50.7102 58.1801 50.9355 58.0004 51.1157C57.8207 51.2959 57.5961 51.4085 57.3265 51.4987C57.057 51.5888 56.7649 51.6338 56.428 51.6338C56.1135 51.6338 55.8215 51.5888 55.5519 51.4987Z" fill="#EC222A"/>
<path d="M62.135 48.8629C62.427 48.8629 62.6067 48.8178 62.719 48.7052C62.8314 48.6151 62.8763 48.4574 62.8763 48.2546C62.8763 48.0519 62.8089 47.8942 62.6966 47.8041C62.5843 47.714 62.3821 47.6464 62.1125 47.6464H61.5509V48.8629H62.135ZM62.135 46.6101C62.5169 46.6101 62.8538 46.6552 63.1009 46.7453C63.3705 46.8354 63.5727 46.948 63.7074 47.1057C63.8422 47.2634 63.977 47.4211 64.0219 47.6239C64.0669 47.8266 64.1118 48.0294 64.1118 48.2546C64.1118 48.4799 64.0893 48.7052 64.0219 48.9079C63.9545 49.1107 63.8422 49.2909 63.685 49.4486C63.5277 49.6063 63.3256 49.719 63.0785 49.8091C62.8314 49.8992 62.4944 49.9442 62.135 49.9442H61.5509V51.5437H60.248V46.6326H62.135V46.6101Z" fill="#EC222A"/>
<path d="M67.1223 50.1246C67.302 50.3724 67.5715 50.485 67.931 50.485C68.2904 50.485 68.5599 50.3724 68.7397 50.1246C68.9194 49.8768 69.0092 49.5163 69.0092 49.0433C69.0092 48.5702 68.9194 48.2097 68.7397 47.9619C68.5599 47.7141 68.2904 47.6015 67.931 47.6015C67.5715 47.6015 67.302 47.7141 67.1223 47.9619C66.9426 48.2097 66.8527 48.5702 66.8527 49.0433C66.8527 49.5389 66.9426 49.8768 67.1223 50.1246ZM68.9867 46.6553C69.2788 46.7679 69.5483 46.9482 69.7505 47.1734C69.9527 47.3987 70.1099 47.6691 70.2222 47.9844C70.3346 48.2998 70.3795 48.6603 70.3795 49.0433C70.3795 49.4488 70.3346 49.8092 70.2222 50.1246C70.1099 50.44 69.9527 50.7103 69.7505 50.9356C69.5483 51.1609 69.2788 51.3411 68.9643 51.4537C68.6498 51.5664 68.2904 51.634 67.9085 51.634C67.5266 51.634 67.1672 51.5664 66.8527 51.4537C66.5382 51.3411 66.2911 51.1609 66.0889 50.9581C65.8868 50.7328 65.7295 50.4625 65.6172 50.1471C65.5049 49.8317 65.46 49.4713 65.46 49.0883C65.46 48.6828 65.5049 48.3224 65.6172 48.007C65.7295 47.6916 65.8868 47.4212 66.0889 47.196C66.2911 46.9707 66.5607 46.7905 66.8752 46.6778C67.1897 46.5652 67.5266 46.4976 67.931 46.4976C68.3353 46.4751 68.6723 46.5427 68.9867 46.6553Z" fill="#EC222A"/>
<path d="M29.2258 79.1632C29.6302 79.1632 29.9447 79.0505 30.1244 78.8027C30.3265 78.5774 30.4164 78.2395 30.4164 77.8115C30.4164 77.3835 30.3265 77.0455 30.1468 76.8203C29.9671 76.595 29.6751 76.4823 29.2932 76.4823H28.6642V79.1632H29.2258ZM27.2939 75.356H29.2707C30.1019 75.356 30.7309 75.5587 31.1577 75.9642C31.5845 76.3697 31.7867 76.9554 31.7867 77.7439C31.7867 78.5549 31.562 79.1632 31.1128 79.5912C30.6635 80.0192 30.012 80.2445 29.1809 80.2445H27.2939V75.356Z" fill="#EC222A"/>
<path d="M36.9301 75.356V76.4373H34.6613V77.2258H36.7953V78.3071H34.6613V79.1857H37.0649L36.9526 80.267H33.3359V75.356H36.9301Z" fill="#EC222A"/>
<path d="M39.8718 79.1631C40.0066 79.2757 40.2312 79.3433 40.5008 79.3433C40.7479 79.3433 40.9276 79.2982 41.0399 79.2081C41.1522 79.118 41.2196 79.0054 41.2196 78.8477C41.2196 78.7351 41.1747 78.6449 41.1073 78.5548C41.0399 78.4872 40.8826 78.4197 40.6805 78.3746L40.0066 78.262C39.445 78.1493 39.0406 77.9916 38.7711 77.7438C38.5015 77.496 38.3667 77.1806 38.3667 76.7526C38.3667 76.2345 38.5464 75.8515 38.9058 75.6037C39.2653 75.3559 39.7595 75.2207 40.3884 75.2207C40.7479 75.2207 41.0623 75.2658 41.3319 75.3333C41.579 75.4235 41.8036 75.5361 41.9609 75.6713C42.1181 75.8064 42.2529 75.9641 42.3203 76.1443C42.4102 76.3246 42.4551 76.5273 42.4776 76.7075L41.1747 76.8427C41.1297 76.64 41.0623 76.5048 40.9276 76.4147C40.8152 76.3246 40.6131 76.257 40.366 76.257C40.1413 76.257 39.9616 76.302 39.8493 76.3696C39.737 76.4372 39.6921 76.5499 39.6921 76.685C39.6921 76.7977 39.737 76.8878 39.8268 76.9554C39.9167 77.0229 40.0515 77.068 40.2537 77.113L40.9276 77.2482C41.5116 77.3609 41.9384 77.5411 42.1855 77.8114C42.4326 78.0592 42.5674 78.3971 42.5674 78.7801C42.5674 79.0279 42.5225 79.2307 42.4326 79.4334C42.3428 79.6362 42.208 79.7939 42.0507 79.929C41.871 80.0642 41.6689 80.1768 41.3993 80.2444C41.1297 80.312 40.8152 80.3571 40.4558 80.3571C39.0631 80.3571 38.3442 79.7713 38.2769 78.6224H39.6247C39.6471 78.8702 39.737 79.0504 39.8718 79.1631Z" fill="#EC222A"/>
<path d="M46.6122 78.2846L46.0955 76.595L45.5789 78.2846H46.6122ZM48.6339 80.267H47.2412L46.9491 79.3209H45.2644L44.9723 80.267H43.6245L45.3542 75.356H46.8817L48.6339 80.267Z" fill="#EC222A"/>
<path d="M51.9133 77.5634C52.1829 77.5634 52.3851 77.5183 52.4749 77.4057C52.5872 77.293 52.6322 77.1579 52.6322 76.9551C52.6322 76.7749 52.5648 76.6397 52.4524 76.5271C52.3401 76.4145 52.138 76.3694 51.8459 76.3694H51.2394V77.5408H51.9133V77.5634ZM53.7553 77.7436C53.6206 77.9689 53.4408 78.1716 53.1937 78.3293L54.2271 80.2893H52.8119L52.0032 78.5997H51.2843V80.2893H50.0039V75.3782H51.9807C52.3626 75.3782 52.6995 75.4232 52.9466 75.5133C53.1937 75.6035 53.3959 75.7161 53.5532 75.8513C53.7104 75.9864 53.8227 76.1667 53.8677 76.3469C53.935 76.5271 53.9575 76.7299 53.9575 76.9326C53.935 77.2255 53.8901 77.4958 53.7553 77.7436Z" fill="#EC222A"/>
<path d="M57.4851 77.5634C57.7547 77.5634 57.9568 77.5183 58.0467 77.4057C58.159 77.293 58.2039 77.1579 58.2039 76.9551C58.2039 76.7749 58.1365 76.6397 58.0242 76.5271C57.9119 76.4145 57.7097 76.3694 57.4177 76.3694H56.8112V77.5408H57.4851V77.5634ZM59.3271 77.7436C59.1923 77.9689 59.0126 78.1716 58.7655 78.3293L59.7989 80.2893H58.3836L57.5525 78.5997H56.8112V80.2893H55.5308V75.3782H57.5076C57.8894 75.3782 58.2264 75.4232 58.4735 75.5133C58.7206 75.6035 58.9452 75.7161 59.08 75.8513C59.2373 75.9864 59.3271 76.1667 59.3945 76.3469C59.4619 76.5271 59.4844 76.7299 59.4844 76.9326C59.5068 77.2255 59.4619 77.4958 59.3271 77.7436Z" fill="#EC222A"/>
<path d="M62.5383 78.8924C62.718 79.1402 62.9876 79.2529 63.347 79.2529C63.7064 79.2529 63.976 79.1402 64.1557 78.8924C64.3354 78.6446 64.4252 78.2842 64.4252 77.8111C64.4252 77.338 64.3354 76.9776 64.1557 76.7298C63.976 76.482 63.7064 76.3693 63.347 76.3693C62.9876 76.3693 62.718 76.482 62.5383 76.7298C62.3586 76.9776 62.2687 77.338 62.2687 77.8111C62.2687 78.2842 62.3586 78.6446 62.5383 78.8924ZM64.4028 75.4231C64.6948 75.5358 64.9644 75.716 65.1665 75.9413C65.3687 76.1666 65.5259 76.4369 65.6383 76.7523C65.7506 77.0677 65.7955 77.4281 65.7955 77.8111C65.7955 78.2166 65.7506 78.577 65.6383 78.8924C65.5259 79.2078 65.3687 79.4782 65.1665 79.7034C64.9644 79.9287 64.6948 80.1089 64.3803 80.2216C64.0658 80.3342 63.7064 80.4018 63.3245 80.4018C62.9426 80.4018 62.5832 80.3342 62.2687 80.2216C61.9542 80.1089 61.7071 79.9287 61.505 79.7034C61.3028 79.4782 61.1455 79.2078 61.0332 78.8924C60.9209 78.577 60.876 78.2166 60.876 77.8336C60.876 77.4281 60.9434 77.0677 61.0332 76.7523C61.1455 76.4369 61.3028 76.1666 61.505 75.9413C61.7071 75.716 61.9767 75.5358 62.2687 75.4231C62.5832 75.3105 62.9426 75.2429 63.3245 75.2429C63.7513 75.2429 64.1107 75.288 64.4028 75.4231Z" fill="#EC222A"/>
<path d="M68.7165 75.356V79.1406H70.9179L70.8056 80.267H67.3687V75.356H68.7165Z" fill="#EC222A"/>
<path d="M73.6354 75.356V79.1406H75.8593L75.7245 80.267H72.2876V75.356H73.6354Z" fill="#EC222A"/>
<path d="M78.7136 78.8924C78.8933 79.1402 79.1629 79.2529 79.5223 79.2529C79.8817 79.2529 80.1512 79.1402 80.331 78.8924C80.5107 78.6446 80.6005 78.2842 80.6005 77.8111C80.6005 77.338 80.5107 76.9776 80.331 76.7298C80.1512 76.482 79.8817 76.3693 79.5223 76.3693C79.1629 76.3693 78.8933 76.482 78.7136 76.7298C78.5339 76.9776 78.444 77.338 78.444 77.8111C78.444 78.2842 78.5339 78.6446 78.7136 78.8924ZM80.5781 75.4231C80.8701 75.5358 81.1396 75.716 81.3418 75.9413C81.544 76.1666 81.7012 76.4369 81.8136 76.7523C81.9259 77.0677 81.9708 77.4281 81.9708 77.8111C81.9708 78.2166 81.9259 78.577 81.8136 78.8924C81.7012 79.2078 81.544 79.4782 81.3418 79.7034C81.1396 79.9287 80.8701 80.1089 80.5556 80.2216C80.2411 80.3342 79.9042 80.4018 79.4998 80.4018C79.1179 80.4018 78.7585 80.3342 78.444 80.2216C78.152 80.1089 77.8824 79.9287 77.6803 79.7034C77.4781 79.4782 77.3208 79.2078 77.2085 78.8924C77.0962 78.577 77.0513 78.2166 77.0513 77.8336C77.0513 77.4281 77.0962 77.0677 77.2085 76.7523C77.3208 76.4369 77.4781 76.1666 77.6803 75.9413C77.8824 75.716 78.152 75.5358 78.4665 75.4231C78.781 75.3105 79.1179 75.2429 79.5223 75.2429C79.9266 75.2429 80.2636 75.288 80.5781 75.4231Z" fill="#EC222A"/>
<path d="M84.8459 79.1631C84.9807 79.2757 85.2053 79.3433 85.4749 79.3433C85.722 79.3433 85.9017 79.2982 86.014 79.2081C86.1263 79.118 86.1937 79.0054 86.1937 78.8477C86.1937 78.7351 86.1488 78.6449 86.0814 78.5548C85.9915 78.4872 85.8568 78.4197 85.6546 78.3746L84.9807 78.262C84.4191 78.1493 84.0147 77.9916 83.7452 77.7438C83.4756 77.496 83.3408 77.1806 83.3408 76.7526C83.3408 76.2345 83.5205 75.8515 83.88 75.6037C84.2394 75.3559 84.7336 75.2207 85.3626 75.2207C85.722 75.2207 86.0365 75.2658 86.2836 75.3333C86.5531 75.4235 86.7553 75.5361 86.9125 75.6713C87.0698 75.8064 87.2046 75.9641 87.272 76.1443C87.3618 76.3246 87.4067 76.5273 87.4292 76.7075L86.1263 76.8427C86.0814 76.64 86.014 76.5048 85.8792 76.4147C85.7669 76.3246 85.5647 76.257 85.3176 76.257C85.093 76.257 84.9133 76.302 84.801 76.3696C84.6886 76.4372 84.6437 76.5499 84.6437 76.685C84.6437 76.7977 84.6887 76.8878 84.7785 76.9554C84.8684 77.0229 85.0031 77.068 85.2053 77.113L85.8792 77.2482C86.4633 77.3609 86.8901 77.5411 87.1372 77.8114C87.3843 78.0592 87.5191 78.3971 87.5191 78.7801C87.5191 79.0279 87.4741 79.2307 87.3843 79.4334C87.2944 79.6362 87.1596 79.7939 87.0024 79.929C86.8227 80.0642 86.6205 80.1768 86.351 80.2444C86.0814 80.312 85.7669 80.3571 85.4075 80.3571C84.0147 80.3571 83.2959 79.7713 83.2285 78.6224H84.5763C84.6213 78.8702 84.7111 79.0504 84.8459 79.1631Z" fill="#EC222A"/>
<path d="M11.2321 0.202515V4.95589C11.2321 5.69931 11.3669 6.26251 11.6364 6.62296C11.906 6.9834 12.3553 7.16363 13.0067 7.16363C13.6357 7.16363 14.085 6.9834 14.3545 6.62296C14.6016 6.23998 14.7364 5.69931 14.7364 4.95589V0.202515H16.0842V4.95589C16.0842 5.56415 16.0168 6.08229 15.8596 6.51032C15.7024 6.93835 15.5002 7.27626 15.2306 7.5466C14.9386 7.81693 14.6241 8.01968 14.2422 8.13232C13.8828 8.26749 13.456 8.31255 12.9843 8.31255C11.9734 8.31255 11.2096 8.04221 10.693 7.50154C10.1538 6.96087 9.90674 6.10482 9.90674 4.91084V0.202515H11.2321Z" fill="white"/>
<path d="M17.6338 0.202515H18.8693L22.5084 5.92459V0.202515H23.8113V8.1098H22.5758L18.9367 2.41025V8.1098H17.6338V0.202515Z" fill="white"/>
<path d="M27.9443 0.202515H30.6849C31.2914 0.202515 31.7632 0.270098 32.1675 0.405265C32.5494 0.540433 32.8639 0.720656 33.0885 0.945934C33.3131 1.17121 33.4704 1.41902 33.5602 1.71188C33.6501 2.00474 33.695 2.29761 33.695 2.63552C33.695 2.97344 33.6501 3.28883 33.5602 3.60422C33.4704 3.91961 33.3131 4.18995 33.0885 4.41523C32.8639 4.6405 32.5494 4.84326 32.1675 4.97842C31.7856 5.11359 31.2914 5.18117 30.7298 5.18117H29.2922V8.1098H27.9668V0.202515H27.9443ZM30.6849 4.05478C31.0219 4.05478 31.2914 4.03225 31.5161 3.96467C31.7407 3.89708 31.8979 3.80697 32.0327 3.67181C32.1675 3.55917 32.2349 3.40147 32.3023 3.24378C32.3472 3.06355 32.3697 2.88333 32.3697 2.65805C32.3697 2.43277 32.3472 2.25255 32.3023 2.07233C32.2574 1.91463 32.1675 1.77947 32.0327 1.66683C31.8979 1.55419 31.7407 1.46407 31.5161 1.41902C31.2914 1.37396 31.0219 1.32891 30.6849 1.32891H29.2922V4.05478H30.6849Z" fill="white"/>
<path d="M37.6497 0.202515C38.2563 0.202515 38.728 0.270098 39.1323 0.405265C39.5142 0.540433 39.8287 0.720656 40.0533 0.945934C40.278 1.17121 40.4352 1.41902 40.5251 1.68935C40.6149 1.98222 40.6599 2.25255 40.6599 2.52288C40.6599 3.04103 40.57 3.46905 40.3678 3.8295C40.1657 4.18995 39.8287 4.46028 39.3794 4.68556L41.0193 8.15485H39.5591L38.1439 5.00095C38.0765 5.00095 38.0092 5.02348 37.9418 5.02348C37.8744 5.02348 37.7845 5.02348 37.7171 5.02348H36.3019V8.1098H34.9766V0.202515H37.6497ZM37.7621 3.85203C38.0541 3.85203 38.3236 3.8295 38.5034 3.76192C38.7055 3.69433 38.8628 3.60422 38.9751 3.49158C39.0874 3.37894 39.1773 3.24378 39.2222 3.08608C39.2671 2.92839 39.2896 2.74816 39.2896 2.54541C39.2896 2.36519 39.2671 2.18497 39.1997 2.0498C39.1323 1.91463 39.0425 1.75694 38.9302 1.66683C38.7954 1.55419 38.6381 1.4866 38.4135 1.41902C38.1889 1.35144 37.9418 1.32891 37.6273 1.32891H36.2795V3.87456H37.7621V3.85203Z" fill="white"/>
<path d="M45.3554 8.31278C44.7938 8.31278 44.2772 8.22267 43.8279 8.01992C43.3786 7.81717 42.9743 7.56936 42.6598 7.20892C42.3453 6.84847 42.0982 6.42044 41.9185 5.9023C41.7388 5.38416 41.6489 4.79844 41.6489 4.14513C41.6489 3.49182 41.7388 2.90609 41.9185 2.38795C42.0982 1.86981 42.3453 1.44178 42.6598 1.08134C42.9743 0.720892 43.3786 0.450557 43.8279 0.247807C44.2996 0.0901115 44.8163 0 45.3554 0C45.917 0 46.4337 0.0901114 46.883 0.292862C47.3322 0.473085 47.7366 0.765947 48.0511 1.10387C48.3656 1.46431 48.6127 1.89234 48.7924 2.41048C48.9721 2.92862 49.0619 3.51435 49.0619 4.16765C49.0619 4.82096 48.9721 5.40669 48.8148 5.92483C48.6351 6.44297 48.4105 6.871 48.0735 7.23144C47.759 7.59189 47.3772 7.86222 46.9279 8.04245C46.4786 8.22267 45.9395 8.31278 45.3554 8.31278ZM45.3554 7.16386C46.1192 7.16386 46.6808 6.89353 47.0851 6.35286C47.4895 5.81219 47.6692 5.0913 47.6692 4.14513C47.6692 3.67204 47.6243 3.26654 47.5119 2.88357C47.4221 2.52312 47.2648 2.20773 47.0851 1.9374C46.9054 1.68959 46.6583 1.48684 46.3663 1.32914C46.0743 1.17145 45.7373 1.12639 45.3554 1.12639C44.9735 1.12639 44.6366 1.19398 44.3446 1.32914C44.0525 1.46431 43.8054 1.66706 43.6257 1.9374C43.4236 2.20773 43.2888 2.50059 43.1989 2.88357C43.1091 3.26654 43.0641 3.67204 43.0641 4.14513C43.0641 5.06877 43.2663 5.81219 43.6482 6.35286C44.0076 6.89353 44.5917 7.16386 45.3554 7.16386Z" fill="white"/>
<path d="M51.7347 4.82073L48.9941 0.202515H50.4767L52.3862 3.64928L54.3405 0.202515H55.7557L53.0601 4.82073V8.1098H51.7347V4.82073Z" fill="white"/>
<path d="M56.7207 0.202515H61.9772V1.35144H58.0685V3.46905H61.775V4.61798H58.0685V6.96087H62.2018L62.0446 8.1098H56.7432V0.202515H56.7207Z" fill="white"/>
<path d="M69.9745 5.45174C69.9295 5.85724 69.8397 6.24022 69.6824 6.60066C69.5252 6.93858 69.3006 7.25397 69.031 7.50178C68.7614 7.74959 68.4245 7.95234 68.0426 8.11003C67.6607 8.2452 67.189 8.33531 66.6723 8.33531C66.1107 8.33531 65.5941 8.2452 65.1448 8.04245C64.6955 7.8397 64.3136 7.56936 64.0216 7.20892C63.7071 6.84847 63.4825 6.42044 63.3252 5.9023C63.168 5.38416 63.0781 4.82096 63.0781 4.16765C63.0781 3.51435 63.168 2.92862 63.3477 2.41048C63.5274 1.89234 63.7745 1.46431 64.089 1.10387C64.4035 0.74342 64.7854 0.473085 65.2346 0.270334C65.6614 0.0901115 66.1556 0 66.6723 0C67.1665 0 67.5933 0.0675836 67.9527 0.180223C68.3122 0.31539 68.6266 0.473085 68.8737 0.720892C69.1208 0.968698 69.323 1.23903 69.4803 1.55442C69.6375 1.86981 69.7498 2.23026 69.8172 2.63576L68.5143 2.83851C68.4469 2.56818 68.3795 2.3429 68.2897 2.11762C68.1998 1.91487 68.0875 1.73465 67.9303 1.59948C67.7955 1.46431 67.6158 1.35167 67.4136 1.26156C67.2114 1.17145 66.9643 1.14892 66.6723 1.14892C66.3129 1.14892 65.9984 1.2165 65.7288 1.35167C65.4593 1.48684 65.2346 1.68959 65.0325 1.95992C64.8528 2.23026 64.6955 2.54565 64.6057 2.90609C64.5158 3.26654 64.4709 3.69457 64.4709 4.16765C64.4709 4.64074 64.5158 5.04624 64.6281 5.42922C64.718 5.78966 64.8752 6.10505 65.0549 6.37539C65.2346 6.64572 65.4817 6.84847 65.7513 6.98364C66.0209 7.1188 66.3354 7.18639 66.6723 7.18639C66.9868 7.18639 67.2339 7.14133 67.4585 7.07375C67.6832 6.98364 67.8629 6.871 67.9977 6.73583C68.1549 6.57814 68.2672 6.39791 68.3571 6.19516C68.4469 5.99241 68.4919 5.74461 68.5368 5.47427H69.9745V5.45174Z" fill="white"/>
<path d="M73.0965 1.35144H70.603V0.202515H76.9378V1.35144H74.4443V8.1098H73.0965V1.35144Z" fill="white"/>
<path d="M81.0483 8.31278C80.4867 8.31278 79.97 8.22267 79.5208 8.01992C79.0715 7.81717 78.6672 7.56936 78.3527 7.20892C78.0382 6.84847 77.7911 6.42044 77.6114 5.9023C77.4316 5.38416 77.3418 4.79844 77.3418 4.14513C77.3418 3.49182 77.4316 2.90609 77.6114 2.38795C77.7911 1.86981 78.0382 1.44178 78.3527 1.08134C78.6672 0.720892 79.0715 0.450557 79.5208 0.247807C79.9925 0.0901115 80.4867 0 81.0483 0C81.6099 0 82.1265 0.0901114 82.5758 0.292862C83.0251 0.473085 83.4294 0.765947 83.7439 1.10387C84.0584 1.46431 84.3055 1.89234 84.4852 2.41048C84.6649 2.92862 84.7548 3.51435 84.7548 4.16765C84.7548 4.82096 84.6649 5.40669 84.5077 5.92483C84.328 6.44297 84.1034 6.871 83.7664 7.23144C83.4519 7.59189 83.07 7.86222 82.6208 8.04245C82.1715 8.22267 81.6324 8.31278 81.0483 8.31278ZM81.0483 7.16386C81.8121 7.16386 82.3737 6.89353 82.778 6.35286C83.1823 5.81219 83.3621 5.0913 83.3621 4.14513C83.3621 3.67204 83.3171 3.26654 83.2048 2.88357C83.115 2.52312 82.9577 2.20773 82.778 1.9374C82.5983 1.68959 82.3512 1.48684 82.0592 1.32914C81.7671 1.17145 81.4302 1.12639 81.0483 1.12639C80.6664 1.12639 80.3295 1.19398 80.0374 1.32914C79.7454 1.46431 79.4983 1.66706 79.3186 1.9374C79.1164 2.20773 78.9816 2.50059 78.8918 2.88357C78.8019 3.26654 78.757 3.67204 78.757 4.14513C78.757 5.06877 78.9592 5.81219 79.3411 6.35286C79.7005 6.89353 80.2845 7.16386 81.0483 7.16386Z" fill="white"/>
<path d="M91.4711 0.202515C92.0551 0.202515 92.5718 0.292626 93.0435 0.450321C93.5152 0.608016 93.8971 0.855823 94.2341 1.17121C94.571 1.4866 94.7957 1.91463 94.9754 2.38772C95.1551 2.88333 95.2449 3.44653 95.2449 4.12236C95.2449 4.77567 95.1551 5.3614 94.9754 5.85701C94.7957 6.35262 94.5036 6.75812 94.1667 7.09604C93.8297 7.43396 93.4029 7.68177 92.9087 7.86199C92.4145 8.04221 91.8305 8.1098 91.2015 8.1098H88.6182V0.202515H91.4711ZM91.2464 6.96087C91.7181 6.96087 92.1 6.89329 92.437 6.75812C92.7739 6.62296 93.0435 6.44273 93.2457 6.19493C93.4478 5.94712 93.6051 5.65426 93.695 5.29381C93.7848 4.95589 93.8297 4.55039 93.8297 4.12236C93.8297 3.24378 93.65 2.56794 93.2681 2.07233C92.8863 1.57671 92.3247 1.35144 91.4711 1.35144H89.9435V6.96087H91.2464Z" fill="white"/>
<path d="M96.6382 0.202515H101.895V1.35144H97.986V3.46905H101.693V4.61798H97.986V6.96087H102.119L101.962 8.1098H96.6606V0.202515H96.6382Z" fill="white"/>
<path d="M104.523 2.3429V3.87479H103.175V2.3429H104.523ZM104.523 6.57813V8.11003H103.175V6.57813H104.523Z" fill="white"/>
</g>
<defs>
<clipPath id="clip0">
<rect width="122" height="95" fill="white"/>
</clipPath>
</defs>
</svg>
