<?xml version="1.0" encoding="utf-8"?>
<!-- Generator: Adobe Illustrator 24.0.2, SVG Export Plug-In . SVG Version: 6.00 Build 0)  -->
<svg version="1.1" id="Capa_1" xmlns="http://www.w3.org/2000/svg" xmlns:xlink="http://www.w3.org/1999/xlink" x="0px" y="0px"
	 viewBox="0 0 500 500" style="enable-background:new 0 0 500 500;" xml:space="preserve">
<style type="text/css">
	.st0{clip-path:url(#SVGID_2_);}
	.st1{fill:#103E68;}
	.st2{clip-path:url(#SVGID_2_);fill-rule:evenodd;clip-rule:evenodd;fill:#EE7768;}
	.st3{fill:#EE7968;}
	.st4{font-family:'HurmeGeometricSans4-SemiBold';}
	.st5{font-size:16.1866px;}
	.st6{fill:#247EA9;}
	.st7{font-family:'HurmeGeometricSans4-Regular';}
	.st8{font-size:10.8277px;}
	.st9{fill:none;}
	.st10{opacity:0.4;}
	.st11{fill:#EE7768;}
	.st12{font-family:'HurmeGeometricSans4-Bold';}
	.st13{font-size:18.2745px;}
	.st14{fill:#FFFFFF;}
	.st15{font-size:8.4389px;}
	.st16{font-size:10.0537px;}
	.st17{clip-path:url(#SVGID_2_);fill:#103E68;}
	.st18{clip-path:url(#SVGID_2_);fill:none;stroke:#103E68;stroke-miterlimit:10;}
	.st19{clip-path:url(#SVGID_2_);fill:#EE7768;}
	.st20{clip-path:url(#SVGID_2_);fill:#FFFFFF;stroke:#103E68;stroke-width:2;stroke-miterlimit:10;}
	.st21{font-size:10.8501px;}
	.st22{clip-path:url(#SVGID_2_);fill:none;stroke:#EE7968;stroke-width:0.25;stroke-miterlimit:10;}
	.st23{clip-path:url(#SVGID_7_);}
	.st24{clip-path:url(#SVGID_7_);fill:none;stroke:#103E68;stroke-width:6;stroke-miterlimit:10;}
	.st25{fill:#256834;}
	.st26{clip-path:url(#SVGID_7_);fill:none;stroke:#BFBEBD;stroke-width:9;stroke-miterlimit:10;}
	.st27{clip-path:url(#SVGID_2_);fill:#FFFFFF;stroke:#EE7968;stroke-width:2;stroke-miterlimit:10;}
	.st28{clip-path:url(#SVGID_2_);fill:#FFFFFF;stroke:#103E68;stroke-miterlimit:10;}
	.st29{clip-path:url(#SVGID_2_);fill:none;stroke:#EE7968;stroke-width:6;stroke-miterlimit:10;}
	.st30{font-size:11.8346px;}
	.st31{clip-path:url(#SVGID_2_);fill:#007BD0;}
</style>
<g>
	<defs>
		<rect id="SVGID_1_" x="-0.76" y="3.72" width="500.76" height="492.72"/>
	</defs>
	<clipPath id="SVGID_2_">
		<use xlink:href="#SVGID_1_"  style="overflow:visible;"/>
	</clipPath>
	<g class="st0">
		<g>
			<path class="st1" d="M108.97,363.83c16.44,1.19,33.44,3.28,49.66-0.72c14.31-3.53,28.28-13.1,36.1-25.72
				c9.4-15.17,6.42-34.45,5.6-51.35c-0.98-20.16-1.96-40.32-2.94-60.48c-0.98-20.28-4.4-43.24,7.65-61.05
				c1.08-1.59-1.5-3.08-2.57-1.5c-8.76,12.95-9.52,28.44-8.95,43.59c0.72,19.22,1.84,38.42,2.78,57.63
				c0.47,9.58,0.93,19.17,1.4,28.75c0.43,8.9,1.21,17.95,0,26.83c-2.46,18.02-17.06,32.43-33.76,38.57
				c-17.47,6.43-36.86,3.78-54.97,2.47C107.06,360.72,107.07,363.69,108.97,363.83L108.97,363.83z"/>
		</g>
	</g>
	<polygon class="st2" points="104.8,96.22 105,68.23 119.26,22.78 160.53,27.44 152.21,103.91 115.4,99.72 113.62,99.59 	"/>
	<g class="st0">
		<g>
			<path class="st3" d="M119.57,173.84c7.98-1.98,15.49-5.56,23.29-8.11c10.58-3.46,21.09-5.04,32.21-3.97
				c22.62,2.18,45.51,3.38,67.59,9.11c22.97,5.96,44.8,15.58,67.95,21.1c22.93,5.46,46.15,7.34,69.61,4.72
				c26.74-2.99,52.66-10.51,78.4-18.03c1.83-0.54,1.05-3.41-0.79-2.87c-23.19,6.78-46.51,13.58-70.48,17.01
				c-24.92,3.57-49.61,2.39-74.13-3.27c-23.25-5.37-45.1-14.86-68.06-21.07c-21.09-5.71-42.93-7.1-64.59-9.14
				c-11.82-1.11-22.58-1.11-34.09,2.17c-9.39,2.68-18.24,7.12-27.72,9.47C116.92,171.43,117.71,174.3,119.57,173.84L119.57,173.84z"
				/>
		</g>
	</g>
	<g class="st0">
		<g>
			<path class="st1" d="M280.6,180.46c-3.22,21.07-7.33,41.99-10.79,63.02c-1.14,6.93-4.4,15.72,3.85,19.18
				c4.58,1.92,9.97,2.43,14.82,3.36c6.11,1.17,12.23,2.25,18.37,3.3c23.85,4.06,47.87,7.58,71.18,14.2
				c12.45,3.53,24.72,7.98,36.91,12.35c43.35,15.56,86.14,32.76,130.48,45.42c10.85,3.1,21.88,6.09,33.09,7.6
				c4.85,0.65,13.01,2.16,16.97-1.8c1.36-1.36-0.75-3.46-2.1-2.1c-3.12,3.12-10.94,1.46-14.68,0.95
				c-9.35-1.27-18.56-3.67-27.65-6.16c-23.95-6.57-47.48-14.72-70.87-23.07c-19.51-6.96-38.88-14.27-58.31-21.46
				c-27.1-10.02-54.45-18.35-82.95-23.48c-12.55-2.26-25.16-4.23-37.72-6.43c-6.43-1.13-12.85-2.32-19.24-3.64
				c-2.64-0.55-5.73-0.89-8.13-2.21c-3.83-2.1-2.45-7.12-1.89-10.66c3.58-22.57,8.07-44.99,11.52-67.58
				C283.75,179.37,280.89,178.57,280.6,180.46L280.6,180.46z"/>
		</g>
	</g>
	<g class="st0">
		<g>
			<path class="st1" d="M284.63,178.42c-2.81-35.29,2.06-71.47,14.93-104.5c0.7-1.79-2.18-2.56-2.87-0.79
				c-12.95,33.24-17.86,69.77-15.03,105.29C281.8,180.32,284.78,180.34,284.63,178.42L284.63,178.42z"/>
		</g>
	</g>
	<g class="st0">
		<text transform="matrix(1 0 0 1 226.9932 368.2725)"><tspan x="0" y="0" class="st1 st4 st5">CIUDAD</tspan><tspan x="0" y="14.57" class="st1 st4 st5">CAUCEL</tspan></text>
	</g>
	<g class="st0">
		<text transform="matrix(1 0 0 1 570.3975 84.2256)" class="st6 st7 st8">PROGRESO</text>
	</g>
	<g class="st0">
		<line class="st6" x1="597.95" y1="62.33" x2="595.65" y2="44.25"/>
		<path class="st6" d="M595.13,38.22c1.47,3.11,3.85,6.91,6.21,9.19l-5.54-1.48l-5.2,2.41C592.53,45.69,594.22,41.54,595.13,38.22"
			/>
	</g>
	<g class="st0">
		<text transform="matrix(1 0 0 1 400.918 67.9092)"><tspan x="0" y="0" class="st6 st7 st8">PUEBLO MÁGICO</tspan><tspan x="30.71" y="12.99" class="st6 st7 st8">SISAL</tspan></text>
	</g>
	<g class="st0">
		<line class="st6" x1="446.74" y1="53.8" x2="438.73" y2="39.62"/>
		<path class="st6" d="M436.06,33.68c2.59,2.64,6.35,5.66,9.56,7.14l-6.15,0.46l-4.43,4.29C436.06,42.19,436.31,37.37,436.06,33.68"
			/>
	</g>
	<g class="st0">
		<g>
			<text transform="matrix(1 0 0 1 8.2407 312.0371)" class="st6 st7 st8">CELESTÚN</text>
		</g>
		<g>
			<line class="st6" x1="36.36" y1="293.42" x2="19.03" y2="289.26"/>
			<path class="st6" d="M13.07,287.58c3.5-0.28,8-1.18,11.04-2.62l-3.42,4.77l0.42,5.85C19.28,292.77,15.91,289.65,13.07,287.58"/>
		</g>
	</g>
	<g class="st0">
		<path id="SVGID_x5F_3_x5F_" class="st9" d="M133.89,430.8c0,0,26.12,5.65,97.85,24.85c14.56,3.9,118.32,29.79,118.32,29.79"/>
		<text>		<textPath  xlink:href="#SVGID_x5F_3_x5F_" startOffset="8.594%">
<tspan  class="st1 st12 st16">MÉRIDA - TETIZ</tspan>		</textPath>
</text>
	</g>
	<g class="st0">
		<g class="st10">
			<g>
				<defs>
					<path id="SVGID_4_" d="M27.55,178.91"/>
				</defs>
				<clipPath id="SVGID_5_">
					<use xlink:href="#SVGID_4_"  style="overflow:visible;"/>
				</clipPath>
			</g>
		</g>
		<text transform="matrix(1 0 0 1 40.5679 130.8945)" class="st11 st12 st13">N</text>
		<rect x="34.33" y="118.14" class="st9" width="26.84" height="25.68"/>
		<text transform="matrix(1 0 0 1 42.689 189.3838)" class="st11 st12 st13">S</text>
		<rect x="36.45" y="164.79" class="st9" width="22.6" height="37.52"/>
		<g>
			<path class="st11" d="M45.08,135.94c0.74,0,1.48,0,2.21,0c0.38,0.05,0.77,0.09,1.15,0.15c4.38,0.66,8,2.68,10.76,6.15
				c2.95,3.7,4.11,7.95,3.48,12.63c-0.6,4.44-2.71,8.08-6.24,10.84c-3.7,2.9-7.92,4.01-12.57,3.4c-3.27-0.43-6.17-1.77-8.65-3.95
				c-3.04-2.68-4.89-6.02-5.52-10.03c-0.07-0.47-0.13-0.94-0.19-1.41c0-0.74,0-1.48,0-2.21c0.05-0.4,0.09-0.79,0.15-1.19
				c0.48-3.28,1.78-6.18,3.97-8.67c2.68-3.03,6.02-4.88,10.03-5.51C44.14,136.06,44.61,136,45.08,135.94z M60.06,152.62
				c0.01-7.65-6.2-13.88-13.86-13.89c-7.65-0.01-13.88,6.2-13.89,13.86c-0.01,7.65,6.21,13.88,13.86,13.89
				C53.83,166.49,60.05,160.27,60.06,152.62z"/>
			<path class="st11" d="M55.23,144.35c-0.03,0.07-0.07,0.23-0.15,0.37c-1.81,3.61-3.61,7.23-5.43,10.83
				c-0.1,0.21-0.3,0.41-0.51,0.51c-3.62,1.83-7.24,3.64-10.86,5.45c-0.39,0.19-0.68,0.17-0.93-0.07c-0.24-0.24-0.27-0.53-0.07-0.93
				c1.82-3.63,3.63-7.26,5.46-10.89c0.09-0.18,0.26-0.36,0.44-0.45c3.66-1.84,7.32-3.67,10.98-5.5
				C54.69,143.4,55.23,143.72,55.23,144.35z M44.81,152.59c0,0.77,0.6,1.39,1.37,1.39c0.75,0,1.37-0.6,1.38-1.34
				c0.01-0.77-0.59-1.4-1.35-1.41C45.44,151.22,44.82,151.82,44.81,152.59z"/>
		</g>
	</g>
	<g class="st0">
		<text transform="matrix(0.6257 -0.7801 0.7801 0.6257 493.108 142.4029)" class="st14 st12 st15">ARCO VIAL NTE</text>
	</g>
	<g class="st0">
		<text transform="matrix(0.8599 0.5104 -0.5104 0.8599 286.354 56.2672)" class="st1 st12 st16">MÉRIDA - UCÙ</text>
	</g>
	<circle class="st17" cx="133.89" cy="59.14" r="3.29"/>
	<g class="st0">
	</g>
	<g class="st0">
		<text transform="matrix(1 0 0 1 568.6211 169.4995)"><tspan x="0" y="0" class="st1 st4" style="font-size:11.3306px;">GRAN</tspan><tspan x="-11.27" y="11.33" class="st1 st4" style="font-size:11.3306px;">SANTA FÉ</tspan></text>
	</g>
	<g class="st0">
		<text transform="matrix(0.1779 -0.9841 0.9841 0.1779 568.3585 469.3665)" class="st25 st4 st21">PASEO VERDE</text>
	</g>
	<polyline class="st18" points="51.26,54.66 78.99,44.5 130.86,57.95 	"/>
	<path class="st19" d="M67.6,104.56H36.3c-6.6,0-12-5.4-12-12v-31.3c0-6.6,5.4-12,12-12h31.3c6.6,0,12,5.4,12,12v31.3
		C79.6,99.16,74.2,104.56,67.6,104.56z"/>
	<g class="st0">
		<path class="st14" d="M39.34,76.45c1.22-0.45,2.16-1.25,3.26-2.4l0,0.01c0.33-0.35,0.69-0.74,1.08-1.17l-0.01-0.01
			c0.06-0.07,0.13-0.14,0.19-0.21c0.27-0.29,0.55-0.6,0.85-0.93c0.32-0.35,0.66-0.72,1.01-1.11l0,0c0.76-0.85,1.5-1.7,2.14-2.54
			c2.19-2.86,3.86-6.14,2.27-9.04c-1.37-2.51-4.05-3.13-6.1-2.63c-2.42,0.59-4.02,2.54-4.08,4.99c-0.07,2.74,1.33,4.29,3.66,6.82
			c0.36-0.4,0.71-0.81,1.04-1.21c-2.11-2.29-3.16-3.51-3.11-5.57c0.05-2.07,1.52-3.15,2.87-3.48c0.31-0.07,0.64-0.12,0.99-0.12
			c1.19,0,2.54,0.5,3.34,1.97c1.1,2-0.01,4.45-1.92,7c-1.05,1.39-2.22,2.7-3.23,3.81c-0.3,0.33-0.58,0.64-0.85,0.93
			c-0.72,0.79-1.34,1.47-1.93,2.04c0,0,0,0,0,0c-0.69,0.65-1.31,1.1-2.02,1.37c-1.31,0.48-3.1,0.46-3.85-1.21
			c-0.43-0.95-0.3-1.93,0.36-2.7c0.55-0.64,1.33-0.99,2.17-0.99c0.28,0,0.56,0.04,0.84,0.12c0.68,0.19,1.47,0.83,2.16,1.51
			c0.33-0.35,0.68-0.74,1.08-1.17c-0.89-0.87-1.86-1.61-2.81-1.87c-1.73-0.48-3.51,0.04-4.64,1.37c-1.06,1.24-1.28,2.88-0.6,4.39
			C34.47,76.57,36.82,77.39,39.34,76.45"/>
		<path class="st14" d="M59.33,77.55l2.03-2.3c-0.34-0.36-0.7-0.75-1.09-1.17l-3.07,3.47l3.07,3.48c0.39-0.42,0.74-0.81,1.09-1.17
			L59.33,77.55z"/>
		<path class="st14" d="M57.19,68.14c0.63,0.83,1.36,1.66,2.1,2.5l0,0c0.35,0.39,0.69,0.76,1.01,1.11c0.3,0.33,0.58,0.64,0.85,0.93
			c0.06,0.07,0.13,0.14,0.19,0.21l-0.01,0.01c0.39,0.43,0.75,0.82,1.08,1.17l0.01-0.01c1.1,1.15,2.04,1.95,3.26,2.4
			c2.52,0.94,4.87,0.11,5.85-2.04c0.68-1.51,0.46-3.15-0.6-4.39c-1.13-1.32-2.91-1.85-4.64-1.37c-0.96,0.27-1.93,1.01-2.82,1.87
			c0,0,0.01,0.01,0.01,0.01c0.39,0.43,0.74,0.81,1.06,1.16c0.69-0.68,1.49-1.32,2.17-1.51c1.13-0.31,2.28,0.02,3.01,0.87
			c0.66,0.77,0.79,1.75,0.36,2.7c-0.76,1.67-2.55,1.69-3.85,1.21c-0.7-0.26-1.31-0.7-1.98-1.33c0,0,0,0-0.01,0.01
			c-0.6-0.57-1.21-1.25-1.93-2.04c-0.27-0.29-0.55-0.61-0.85-0.93c-1.02-1.1-2.18-2.41-3.23-3.8l0,0c-1.93-2.57-3.06-5.04-1.96-7.05
			c0.8-1.46,2.15-1.96,3.34-1.96c0.35,0,0.68,0.04,0.99,0.12c1.35,0.33,2.82,1.42,2.87,3.48c0.05,2.06-1.01,3.27-3.11,5.57
			c0.33,0.4,0.68,0.81,1.04,1.21c2.32-2.53,3.72-4.09,3.66-6.82c-0.06-2.44-1.66-4.4-4.08-4.99c-2.05-0.5-4.73,0.12-6.1,2.63
			C53.29,61.97,54.97,65.27,57.19,68.14L57.19,68.14z"/>
		<path class="st14" d="M58.27,83.24l-4.73-5.69l4.72-5.68c-0.35-0.39-0.71-0.79-1.06-1.21l-4.69,5.64l-4.69-5.64
			c-0.36,0.42-0.71,0.82-1.06,1.21l4.72,5.68l-4.72,5.68c0.35,0.39,0.71,0.79,1.06,1.21l4.69-5.64l4.69,5.65
			C57.56,84.03,57.92,83.63,58.27,83.24 M52.51,77.56L52.51,77.56L52.51,77.56L52.51,77.56L52.51,77.56z"/>
		<path class="st14" d="M65.68,78.65c-1.2,0.45-2.13,1.23-3.21,2.35c-0.37,0.39-0.77,0.82-1.22,1.32c-0.27,0.3-0.55,0.61-0.86,0.94
			c-1.14,1.24-2.27,2.47-3.21,3.7c-2.21,2.87-3.9,6.17-2.31,9.08c1.09,1.99,3,2.79,4.76,2.79c0.46,0,0.91-0.05,1.34-0.16
			c2.42-0.59,4.02-2.54,4.08-4.99c0.07-2.73-1.33-4.29-3.65-6.81c-0.36,0.4-0.71,0.81-1.04,1.21c2.1,2.29,3.15,3.5,3.1,5.56
			c-0.05,2.07-1.52,3.15-2.87,3.48c-1.35,0.33-3.3,0.04-4.33-1.85c-1.11-2.02,0.03-4.48,1.96-7.05l0,0c0.95-1.25,2-2.44,2.94-3.47
			c0.1-0.11,0.19-0.22,0.29-0.33c0.3-0.33,0.59-0.64,0.86-0.94c0.02-0.02,0.04-0.05,0.06-0.07c0,0,0,0,0,0
			c0.39-0.42,0.74-0.82,1.08-1.18c-0.02-0.02,0,0,0,0c1.01-1.07,1.8-1.76,2.76-2.11c1.31-0.48,3.1-0.46,3.85,1.21
			c0.43,0.95,0.3,1.93-0.36,2.7c-0.73,0.85-1.88,1.18-3.01,0.87c-0.67-0.19-1.47-0.83-2.16-1.5c-0.33,0.35-0.68,0.73-1.06,1.16
			c0,0-0.01,0.01-0.01,0.01c0.89,0.86,1.85,1.6,2.81,1.86c1.73,0.48,3.5-0.04,4.64-1.37c1.06-1.24,1.28-2.88,0.6-4.39
			C70.55,78.54,68.2,77.72,65.68,78.65"/>
		<path class="st14" d="M44.74,74.08c-0.39,0.42-0.74,0.81-1.09,1.17l2.04,2.3l-2.04,2.3c0.34,0.36,0.7,0.75,1.09,1.17l3.07-3.47
			L44.74,74.08z"/>
		<path class="st14" d="M47.87,87.02c-0.64-0.85-1.38-1.69-2.14-2.54l0,0c-0.35-0.39-0.69-0.76-1.01-1.11
			c-0.3-0.33-0.58-0.64-0.85-0.93c-0.06-0.07-0.13-0.14-0.19-0.21l0.01-0.01c-0.39-0.43-0.75-0.82-1.08-1.17l0,0.01
			c-1.1-1.15-2.04-1.95-3.26-2.4c-2.52-0.94-4.87-0.11-5.85,2.04c-0.68,1.51-0.46,3.15,0.6,4.39c1.13,1.32,2.91,1.85,4.64,1.37
			c0.96-0.27,1.93-1.01,2.81-1.87c-0.39-0.43-0.75-0.82-1.08-1.17c-0.69,0.68-1.49,1.32-2.16,1.51c-1.13,0.31-2.28-0.02-3.01-0.87
			c-0.66-0.77-0.79-1.75-0.36-2.7c0.5-1.1,1.44-1.48,2.4-1.48c0.5,0,1.01,0.11,1.46,0.27c0.71,0.26,1.33,0.71,2.02,1.37c0,0,0,0,0,0
			c0.6,0.57,1.21,1.25,1.93,2.04c0.27,0.29,0.55,0.61,0.85,0.93c1.02,1.1,2.18,2.42,3.23,3.81c1.91,2.55,3.02,5,1.92,7
			c-1.03,1.89-2.98,2.18-4.33,1.85c-1.35-0.33-2.82-1.42-2.87-3.48c-0.05-2.06,1.01-3.28,3.11-5.57c-0.34-0.4-0.68-0.81-1.04-1.21
			c-2.32,2.53-3.73,4.09-3.66,6.82c0.06,2.44,1.66,4.4,4.08,4.99c0.43,0.1,0.88,0.16,1.34,0.16c1.76,0,3.67-0.8,4.76-2.79
			C51.73,93.15,50.07,89.87,47.87,87.02"/>
	</g>
	<g class="st0">
		<g>
			<path class="st1" d="M364.03,198.56c4.98,28.2,9.96,56.4,14.95,84.6c0.33,1.88,3.2,1.09,2.87-0.79
				c-4.98-28.2-9.96-56.4-14.95-84.6C366.57,195.89,363.7,196.69,364.03,198.56L364.03,198.56z"/>
		</g>
	</g>
	<g class="st0">
		<g>
			<path class="st1" d="M540.71,228.81c-7.32,8.41-17.86,14.23-27.15,20.18c-8.34,5.34-16.55,10.1-25.84,13.68
				c-21.02,8.09-43.37,12.89-65.5,16.82c-9.74,1.73-19.53,3.25-29.35,4.47c-1.88,0.23-1.9,3.21,0,2.98
				c19.91-2.47,39.74-5.94,59.26-10.56c20.94-4.96,41.66-11.12,59.86-22.85c10.45-6.73,22.57-13.13,30.82-22.62
				C544.07,229.48,541.97,227.36,540.71,228.81L540.71,228.81z"/>
		</g>
	</g>
	<circle class="st20" cx="271.19" cy="257.89" r="8.58"/>
	<circle class="st20" cx="367.81" cy="198.17" r="8.58"/>
	<circle class="st20" cx="283.46" cy="182.96" r="8.58"/>
	<g class="st0">
		<g>
			<path class="st1" d="M261.98,255.92c-21.17,0.47-42.34,0.48-63.51,0.04c-1.92-0.04-1.92,2.94,0,2.98
				c21.17,0.44,42.34,0.43,63.51-0.04C263.9,258.85,263.9,255.87,261.98,255.92L261.98,255.92z"/>
		</g>
	</g>
	<g class="st0">
		<text transform="matrix(1 0 0 1 449.6592 211.999)" class="st14 st7 st21">Chedraui</text>
	</g>
	<path class="st22" d="M105,95.98"/>
	<g class="st0">
		<defs>
			<rect id="SVGID_6_" x="-10.26" y="3.72" width="714.83" height="492.72"/>
		</defs>
		<clipPath id="SVGID_7_">
			<use xlink:href="#SVGID_6_"  style="overflow:visible;"/>
		</clipPath>
		<g class="st23">
			<g>
				<path class="st1" d="M132.46-24.64c-1.9,12.11-6.34,23.88-10.42,35.39c-4.51,12.74-9.43,25.36-13.48,38.26
					c-5.05,16.06-4.82,33.03-4.27,49.73c0.63,19.36,5.59,37.43,9.79,56.2c2.09,9.35,3.76,18.89,3.53,28.5
					c-0.23,9.77-2.86,18.8-6.52,27.78c-3.37,8.27-7.27,16.41-9.32,25.14c-2.13,9.05-2.25,18.41-1.95,27.65
					c0.84,26.19,2.31,52.36,3.24,78.55c1.05,29.5,2.34,59.17,1.2,88.68c-0.07,1.92,2.9,1.91,2.98,0
					c0.98-25.46,0.03-51.03-0.79-76.48c-0.85-26.2-1.99-52.39-3.15-78.59c-0.36-8.15-0.87-16.32-0.53-24.48
					c0.43-10,2.77-19.24,6.51-28.48c3.34-8.28,7.28-16.39,9.41-25.1c2.11-8.64,2.29-17.59,1.32-26.4
					c-2.02-18.28-8.43-35.71-11.14-53.87c-1.58-10.54-1.81-21.23-1.74-31.87c0.07-9.88-0.1-19.98,2.38-29.61
					c6.98-27.1,21.46-52.44,25.83-80.23C135.62-25.73,132.76-26.53,132.46-24.64L132.46-24.64z"/>
			</g>
		</g>
		<g class="st23">
			<g>
				<path class="st1" d="M297.13,480.51c16.49-40.4,34.92-80.12,53.72-119.48c9.86-20.64,19.89-41.25,30.91-61.3
					c12.9-23.46,29.55-44.45,44.43-66.65c41.08-61.31,89.28-117.43,134.23-175.85c11.09-14.42,22.01-28.98,32.58-43.79
					c5.35-7.51,10.62-15.08,15.76-22.73c2.12-3.15,5.44-6.76,6.81-10.29c0.67-1.72-0.99-0.26,0.79-1.22
					c2.3-1.25,5.34-1.81,7.81-2.65c4.32-1.46,8.63-2.92,12.95-4.39c8.61-2.92,17.23-5.84,25.84-8.75c1.59-0.54,5.5-1.07,6.71-2.27
					c0.92-0.91-1.51-0.1-1.6-0.37c0.09,0.28,1.29,0.69,1.54,0.84c6.06,3.73,12.59,6.87,18.86,10.24
					c18.57,10.02,37.15,20.14,56.2,29.21c2.97,1.41,5.96,2.79,9.01,4.01c3.55,1.43,5.1-4.33,1.58-5.74
					c-18.19-7.32-35.51-17.48-52.77-26.7c-8.2-4.38-16.38-8.8-24.55-13.25c-2.71-1.48-6.54-4.67-9.77-4.02
					c-6.3,1.27-12.67,4.29-18.75,6.35c-9.07,3.07-18.14,6.14-27.21,9.22c-2.52,0.85-5.13,1.58-7.6,2.57c-4,1.61-5.75,6.31-8.07,9.8
					c-10.07,15.18-20.62,30.04-31.45,44.69c-44.76,60.52-94.2,117.46-137.91,178.77c-10.79,15.13-20.92,30.72-31.67,45.87
					c-7.65,10.77-15.64,21.37-22.42,32.73c-10.75,18.02-20.03,36.95-29.24,55.78c-20.65,42.27-40.3,85.12-58.6,128.46
					c-1.31,3.11-2.61,6.22-3.89,9.35C289.95,482.47,295.7,484.01,297.13,480.51L297.13,480.51z"/>
			</g>
		</g>
		<path class="st24" d="M496.93,475.13l-86.34,16.4L289.44,476.1l-183.69-44.84c0,0-126.15-6.91-259.65-44.02
			c-137.8-38.3-137.65-14.55-300.94-25.85c-113.62-7.86-134.84,42.79-134.84,42.79"/>
		<polyline class="st24" points="-868.59,-650.88 329.46,96.25 363.14,106.21 842.08,433.46 		"/>
		<g class="st23">
			<g>
				<path class="st25" d="M590.13,364.74c-18.1,125.99-50.95,249.11-80.11,372.83c-8.3,35.2-16.29,70.47-23.58,105.88
					c-0.77,3.74,4.97,5.34,5.74,1.58c25.65-124.6,60.14-247.2,85.15-371.95c7.1-35.42,13.4-71,18.54-106.76
					C596.41,362.58,590.68,360.96,590.13,364.74L590.13,364.74z"/>
			</g>
		</g>
		<path class="st26" d="M634.77,271l47.58-78.17l125.75-327.98l22.09-22.09l135.95-10.2h66.27c0,0,115.55,76.47,210.72,93.46
			c95.16,16.99,173.33,73.07,173.33,73.07l59.48,61.18l37.38,142.74l-52.68,429.94c0,0-23.79,56.08-67.97,76.47
			c-44.19,20.4-249.8,205.62-249.8,205.62l-181.83,125.75c0,0-200.53,144.45-282.1,93.46c-81.56-50.98-271.89-446.93-271.89-446.93
			s-32.29-22.09,11.89-76.47c44.18-54.38,84.97-120.65,84.97-142.75c0-22.09,49.28-62.88,49.28-62.88L634.77,271z"/>
	</g>
	<g class="st0">
		<g>
			<path class="st3" d="M104.35,98.84c0.5,11.49,1.83,22.64,4.37,33.86c2.99,13.22,6.79,26.27,8.39,39.76c0.22,1.88,3.2,1.9,2.98,0
				c-1.48-12.49-4.74-24.59-7.63-36.8c-2.89-12.21-4.59-24.29-5.14-36.82C107.25,96.93,104.27,96.92,104.35,98.84L104.35,98.84z"/>
		</g>
	</g>
	<circle class="st27" cx="119.16" cy="174.38" r="8.58"/>
	<circle class="st27" cx="105" cy="95.98" r="8.58"/>
	<circle class="st28" cx="101.8" cy="245.25" r="5.96"/>
	<circle class="st20" cx="105" cy="430.16" r="8.58"/>
	<circle class="st20" cx="105" cy="362.6" r="8.58"/>
	<circle class="st20" cx="294.94" cy="478.75" r="8.58"/>
	<circle class="st20" cx="386.32" cy="285.36" r="8.58"/>
	<line class="st29" x1="462.72" y1="174.29" x2="621.43" y2="282.7"/>
	<circle class="st20" cx="465.13" cy="174.29" r="12.21"/>
	<g class="st0">
		<text transform="matrix(0.5122 -0.8588 0.8588 0.5122 582.3352 368.2731)" class="st1 st12" style="font-size:12.0557px;">PERIFÈRICO DE MÉRIDA</text>
	</g>
	<g class="st0">
		<text transform="matrix(1 0 0 1 447.5996 217.0415)" class="st1 st7 st30">Chedraui</text>
	</g>
	<g class="st0">
		<text transform="matrix(0.8243 0.5661 -0.5661 0.8243 550.3691 257.7312)" class="st1 st7 st30">Walmart</text>
	</g>
	<g class="st0">
		<text transform="matrix(1 0 0 1 322.4238 293.9443)"><tspan x="0" y="0" class="st1 st7 st30">Bodega</tspan><tspan x="0.46" y="10.52" class="st1 st7 st30">Aurrera</tspan></text>
	</g>
	<g class="st0">
		<text transform="matrix(1 0 0 1 382.3271 471.3809)" class="st1 st7 st30">Animaya</text>
	</g>
	<circle class="st31" cx="293.06" cy="198.5" r="3.47"/>
	<g class="st0">
		<text transform="matrix(1 0 0 1 299.3516 210.9556)"><tspan x="0" y="0" class="st1 st7 st21">Unidad </tspan><tspan x="-14.13" y="10.52" class="st1 st7 st21">Deportiva de </tspan><tspan x="-16.7" y="21.04" class="st1 st7 st21">Ciudad Caucel</tspan></text>
	</g>
	<circle class="st31" cx="272.96" cy="168.54" r="3.47"/>
	<g class="st0">
		<text transform="matrix(1 0 0 1 199.4839 149.6465)"><tspan x="0" y="0" class="st1 st7 st21">Centro Acuático</tspan><tspan x="14.01" y="10.52" class="st1 st7 st21">de Mérida</tspan></text>
	</g>
</g>
</svg>
