<?xml version="1.0" encoding="utf-8"?>
<!-- Generator: Adobe Illustrator 24.0.2, SVG Export Plug-In . SVG Version: 6.00 Build 0)  -->
<svg version="1.1" id="Capa_1" xmlns="http://www.w3.org/2000/svg" xmlns:xlink="http://www.w3.org/1999/xlink" x="0px" y="0px"
	 viewBox="0 0 500 500" style="enable-background:new 0 0 500 500;" xml:space="preserve">
<style type="text/css">
	.st0{fill:#FFFFFF;}
	.st1{clip-path:url(#SVGID_2_);}
	.st2{fill:#103E68;}
	.st3{clip-path:url(#SVGID_2_);fill-rule:evenodd;clip-rule:evenodd;fill:#EE7768;}
	.st4{fill:#EE7968;}
	.st5{font-family:'HurmeGeometricSans4-SemiBold';}
	.st6{font-size:13.4068px;}
	.st7{fill:#247EA9;}
	.st8{font-family:'HurmeGeometricSans4-Regular';}
	.st9{font-size:8.9682px;}
	.st10{fill:none;}
	.st11{opacity:0.4;}
	.st12{fill:#EE7768;}
	.st13{font-family:'HurmeGeometricSans4-Bold';}
	.st14{font-size:15.1361px;}
	.st15{font-size:6.9896px;}
	.st16{font-size:8.3271px;}
	.st17{clip-path:url(#SVGID_2_);fill:#103E68;}
	.st18{font-size:9.3847px;}
	.st19{clip-path:url(#SVGID_2_);fill:none;stroke:#103E68;stroke-miterlimit:10;}
	.st20{clip-path:url(#SVGID_2_);fill:#EE7768;}
	.st21{clip-path:url(#SVGID_2_);fill:#FFFFFF;stroke:#103E68;stroke-width:2;stroke-miterlimit:10;}
	.st22{font-size:8.9867px;}
	.st23{clip-path:url(#SVGID_2_);fill:none;stroke:#EE7968;stroke-width:0.25;stroke-miterlimit:10;}
	.st24{clip-path:url(#SVGID_7_);}
	.st25{clip-path:url(#SVGID_7_);fill:none;stroke:#103E68;stroke-width:6;stroke-miterlimit:10;}
	.st26{fill:#256834;}
	.st27{clip-path:url(#SVGID_7_);fill:none;stroke:#BFBEBD;stroke-width:9;stroke-miterlimit:10;}
	.st28{clip-path:url(#SVGID_2_);fill:#FFFFFF;stroke:#EE7968;stroke-width:2;stroke-miterlimit:10;}
	.st29{clip-path:url(#SVGID_2_);fill:#FFFFFF;stroke:#103E68;stroke-miterlimit:10;}
	.st30{clip-path:url(#SVGID_2_);fill:none;stroke:#EE7968;stroke-width:6;stroke-miterlimit:10;}
	.st31{font-size:9.8021px;}
	.st32{clip-path:url(#SVGID_2_);fill:#007BD0;}
</style>
<path class="st0" d="M454,483.5H47c-15.7,0-28.5-12.8-28.5-28.5V48c0-15.7,12.8-28.5,28.5-28.5h407c15.7,0,28.5,12.8,28.5,28.5v407
	C482.5,470.7,469.7,483.5,454,483.5z"/>
<g>
	<defs>
		<rect id="SVGID_1_" x="37.2" y="46" width="414.8" height="408.1"/>
	</defs>
	<clipPath id="SVGID_2_">
		<use xlink:href="#SVGID_1_"  style="overflow:visible;"/>
	</clipPath>
	<g class="st1">
		<g>
			<path class="st2" d="M128.1,344.6c13.6,1,27.8,2.7,41.2-0.6c11.9-2.9,23.5-10.9,30-21.3c7.5-12.1,5.5-27.3,4.8-40.8
				c-0.8-16.9-1.6-33.9-2.5-50.8c-0.8-17.1-3.9-36.6,6.2-51.6c1.1-1.6-1.5-3.1-2.6-1.5c-9.6,14.3-7.7,31.9-6.9,48.3
				c1,20.5,2,41,3,61.5c0.5,9.3,1.4,19.2-2,28.1c-3.3,8.8-10.8,15.7-18.7,20.4c-15.8,9.5-35.2,6.7-52.6,5.5
				C126.2,341.4,126.2,344.4,128.1,344.6L128.1,344.6z"/>
		</g>
	</g>
	<polygon class="st3" points="124.7,122.6 124.8,99.5 136.7,61.8 170.8,65.7 163.9,129 133.5,125.5 132,125.4 	"/>
	<g class="st1">
		<g>
			<path class="st4" d="M137,187.2c6.6-1.7,12.8-4.6,19.3-6.7c8.5-2.8,17.1-4.2,26-3.3c18.7,1.8,37.7,2.8,56,7.5
				c19.1,4.9,37.2,12.9,56.5,17.5c19,4.6,38.2,6.2,57.6,4.1c22.3-2.5,44-8.7,65.5-15c1.8-0.5,1.1-3.4-0.8-2.9
				c-19.5,5.7-39.1,11.4-59.2,14.2c-20.7,2.9-41.1,1.7-61.4-3c-19.3-4.6-37.4-12.5-56.5-17.5c-17.3-4.5-35.3-5.6-53-7.3
				c-9.9-0.9-18.9-0.7-28.5,2.1c-7.5,2.2-14.6,5.7-22.2,7.6C134.3,184.8,135.1,187.6,137,187.2L137,187.2z"/>
		</g>
	</g>
	<g class="st1">
		<g>
			<path class="st2" d="M270,192.3c-2.7,17.7-6.2,35.2-9,52.9c-0.9,5.4-3.3,12.3,2.8,15.3c3.1,1.5,6.9,1.9,10.2,2.5
				c5.2,1,10.4,2,15.5,2.9c19.8,3.4,39.8,6.3,59.2,11.6c10.9,3,21.6,6.9,32.3,10.7c36.1,12.9,71.8,27.3,108.7,37.8
				c8.9,2.5,18,5,27.2,6.2c4.1,0.5,10.8,1.8,14.2-1.6c1.4-1.3-0.7-3.5-2.1-2.1c-2.6,2.5-9.1,1.1-12.2,0.7
				c-7.7-1.1-15.3-3.1-22.8-5.1c-19.8-5.5-39.3-12.2-58.7-19.1c-38.2-13.6-75.6-29.7-115.7-36.9c-10.4-1.9-20.8-3.5-31.2-5.3
				c-5.5-1-11-2-16.4-3.1c-2-0.4-4.1-0.7-6-1.4c-4.2-1.5-3.3-5.7-2.7-9.1c3-18.7,6.7-37.2,9.5-55.9
				C273.2,191.3,270.3,190.5,270,192.3L270,192.3z"/>
		</g>
	</g>
	<g class="st1">
		<g>
			<path class="st2" d="M273.9,190.7c-2.3-29.2,1.7-59.1,12.4-86.5c0.7-1.8-2.2-2.6-2.9-0.8c-10.7,27.6-14.8,57.8-12.5,87.3
				C271,192.6,274,192.6,273.9,190.7L273.9,190.7z"/>
		</g>
	</g>
	<g class="st1">
		<text transform="matrix(1 0 0 1 225.8789 347.9746)"><tspan x="0" y="0" class="st2 st5 st6">CIUDAD</tspan><tspan x="0" y="12.1" class="st2 st5 st6">CAUCEL</tspan></text>
	</g>
	<g class="st1">
		<text transform="matrix(1 0 0 1 510.3076 112.71)" class="st7 st8 st9">PROGRESO</text>
	</g>
	<g class="st1">
		<line class="st7" x1="533.1" y1="94.6" x2="531.2" y2="79.6"/>
		<path class="st7" d="M530.8,74.6c1.2,2.6,3.2,5.7,5.1,7.6l-4.6-1.2l-4.3,2C528.6,80.8,530,77.4,530.8,74.6"/>
	</g>
	<g class="st1">
		<text transform="matrix(1 0 0 1 369.9336 99.1958)"><tspan x="0" y="0" class="st7 st8 st9">PUEBLO MÁGICO</tspan><tspan x="25.4" y="10.8" class="st7 st8 st9">SISAL</tspan></text>
	</g>
	<g class="st1">
		<line class="st7" x1="407.9" y1="87.5" x2="401.2" y2="75.8"/>
		<path class="st7" d="M399,70.8c2.1,2.2,5.3,4.7,7.9,5.9l-5.1,0.4l-3.7,3.6C399,77.9,399.2,73.9,399,70.8"/>
	</g>
	<g class="st1">
		<g>
			<text transform="matrix(1 0 0 1 44.6953 301.3975)" class="st7 st8 st9">CELESTÚN</text>
		</g>
		<g>
			<line class="st7" x1="68" y1="286" x2="53.6" y2="282.5"/>
			<path class="st7" d="M48.7,281.1c2.9-0.2,6.6-1,9.1-2.2l-2.8,3.9l0.4,4.8C53.8,285.4,51,282.9,48.7,281.1"/>
		</g>
	</g>
	<g class="st1">
		<path id="SVGID_x5F_3_x5F_" class="st10" d="M148.8,399.8c0,0,21.6,4.7,81,20.6c12.1,3.2,98,24.7,98,24.7"/>
		<text>		<textPath  xlink:href="#SVGID_x5F_3_x5F_" startOffset="8.594%">
<tspan  class="st2 st13 st16">MÉRIDA - TETIZ</tspan>		</textPath>
</text>
	</g>
	<g class="st1">
		<g class="st11">
			<g>
				<defs>
					<path id="SVGID_4_" d="M60.7,191.1"/>
				</defs>
				<clipPath id="SVGID_5_">
					<use xlink:href="#SVGID_4_"  style="overflow:visible;"/>
				</clipPath>
			</g>
		</g>
		<text transform="matrix(1 0 0 1 71.4697 151.3643)" class="st12 st13 st14">N</text>
		<rect x="66.3" y="140.8" class="st10" width="22.2" height="21.3"/>
		<text transform="matrix(1 0 0 1 73.2266 199.8086)" class="st12 st13 st14">S</text>
		<rect x="68.1" y="179.4" class="st10" width="18.7" height="31.1"/>
		<g>
			<path class="st12" d="M75.2,155.5c0.6,0,1.2,0,1.8,0c0.3,0,0.6,0.1,1,0.1c3.6,0.5,6.6,2.2,8.9,5.1c2.4,3.1,3.4,6.6,2.9,10.5
				c-0.5,3.7-2.2,6.7-5.2,9c-3.1,2.4-6.6,3.3-10.4,2.8c-2.7-0.4-5.1-1.5-7.2-3.3c-2.5-2.2-4.1-5-4.6-8.3c-0.1-0.4-0.1-0.8-0.2-1.2
				c0-0.6,0-1.2,0-1.8c0-0.3,0.1-0.7,0.1-1c0.4-2.7,1.5-5.1,3.3-7.2c2.2-2.5,5-4,8.3-4.6C74.4,155.6,74.8,155.6,75.2,155.5z
				 M87.6,169.4c0-6.3-5.1-11.5-11.5-11.5c-6.3,0-11.5,5.1-11.5,11.5c0,6.3,5.1,11.5,11.5,11.5C82.5,180.8,87.6,175.7,87.6,169.4z"
				/>
			<path class="st12" d="M83.6,162.5c0,0.1-0.1,0.2-0.1,0.3c-1.5,3-3,6-4.5,9c-0.1,0.2-0.3,0.3-0.4,0.4c-3,1.5-6,3-9,4.5
				c-0.3,0.2-0.6,0.1-0.8-0.1c-0.2-0.2-0.2-0.4-0.1-0.8c1.5-3,3-6,4.5-9c0.1-0.1,0.2-0.3,0.4-0.4c3-1.5,6.1-3,9.1-4.6
				C83.2,161.7,83.6,162,83.6,162.5z M75,169.3c0,0.6,0.5,1.1,1.1,1.2c0.6,0,1.1-0.5,1.1-1.1c0-0.6-0.5-1.2-1.1-1.2
				C75.5,168.2,75,168.7,75,169.3z"/>
		</g>
	</g>
	<g class="st1">
		<text transform="matrix(0.6257 -0.7801 0.7801 0.6257 446.2715 160.8764)" class="st0 st13 st15">ARCO VIAL NTE</text>
	</g>
	<g class="st1">
		<text transform="matrix(0.8599 0.5104 -0.5104 0.8599 275.0724 89.5797)" class="st2 st13 st16">MÉRIDA - UCÙ</text>
	</g>
	<circle class="st17" cx="148.8" cy="91.9" r="2.7"/>
	<g class="st1">
	</g>
	<g class="st1">
		<text transform="matrix(1 0 0 1 508.8359 183.3389)"><tspan x="0" y="0" class="st2 st5 st18">GRAN</tspan><tspan x="-9.3" y="9.4" class="st2 st5 st18">SANTA FÉ</tspan></text>
	</g>
	<g class="st1">
		<text transform="matrix(0.1779 -0.9841 0.9841 0.1779 508.6158 431.7044)" class="st26 st5 st22">PASEO VERDE</text>
	</g>
	<polyline class="st19" points="80.3,88.2 103.3,79.8 146.3,90.9 	"/>
	<path class="st20" d="M91.8,129.6H70c-6.6,0-12-5.4-12-12V95.7c0-6.6,5.4-12,12-12h21.8c6.6,0,12,5.4,12,12v21.8
		C103.8,124.2,98.4,129.6,91.8,129.6z"/>
	<g class="st1">
		<path class="st0" d="M70.5,106.3c1-0.4,1.8-1,2.7-2l0,0c0.3-0.3,0.6-0.6,0.9-1l0,0c0.1-0.1,0.1-0.1,0.2-0.2
			c0.2-0.2,0.5-0.5,0.7-0.8c0.3-0.3,0.5-0.6,0.8-0.9l0,0c0.6-0.7,1.2-1.4,1.8-2.1c1.8-2.4,3.2-5.1,1.9-7.5c-1.1-2.1-3.4-2.6-5.1-2.2
			c-2,0.5-3.3,2.1-3.4,4.1c-0.1,2.3,1.1,3.6,3,5.7c0.3-0.3,0.6-0.7,0.9-1c-1.7-1.9-2.6-2.9-2.6-4.6c0-1.7,1.3-2.6,2.4-2.9
			c0.3-0.1,0.5-0.1,0.8-0.1c1,0,2.1,0.4,2.8,1.6c0.9,1.7,0,3.7-1.6,5.8c-0.9,1.1-1.8,2.2-2.7,3.2c-0.3,0.3-0.5,0.5-0.7,0.8
			c-0.6,0.7-1.1,1.2-1.6,1.7c0,0,0,0,0,0c-0.6,0.5-1.1,0.9-1.7,1.1c-1.1,0.4-2.6,0.4-3.2-1c-0.4-0.8-0.2-1.6,0.3-2.2
			c0.5-0.5,1.1-0.8,1.8-0.8c0.2,0,0.5,0,0.7,0.1c0.6,0.2,1.2,0.7,1.8,1.2c0.3-0.3,0.6-0.6,0.9-1c-0.7-0.7-1.5-1.3-2.3-1.5
			c-1.4-0.4-2.9,0-3.8,1.1c-0.9,1-1.1,2.4-0.5,3.6C66.4,106.4,68.4,107,70.5,106.3"/>
		<path class="st0" d="M87,107.2l1.7-1.9c-0.3-0.3-0.6-0.6-0.9-1l-2.5,2.9l2.5,2.9c0.3-0.4,0.6-0.7,0.9-1L87,107.2z"/>
		<path class="st0" d="M85.2,99.4c0.5,0.7,1.1,1.4,1.7,2.1l0,0c0.3,0.3,0.6,0.6,0.8,0.9c0.3,0.3,0.5,0.5,0.7,0.8
			c0.1,0.1,0.1,0.1,0.2,0.2l0,0c0.3,0.4,0.6,0.7,0.9,1l0,0c0.9,1,1.7,1.6,2.7,2c2.1,0.8,4,0.1,4.8-1.7c0.6-1.3,0.4-2.6-0.5-3.6
			c-0.9-1.1-2.4-1.5-3.8-1.1c-0.8,0.2-1.6,0.8-2.3,1.5c0,0,0,0,0,0c0.3,0.4,0.6,0.7,0.9,1c0.6-0.6,1.2-1.1,1.8-1.3
			c0.9-0.3,1.9,0,2.5,0.7c0.5,0.6,0.7,1.5,0.3,2.2c-0.6,1.4-2.1,1.4-3.2,1c-0.6-0.2-1.1-0.6-1.6-1.1c0,0,0,0,0,0
			c-0.5-0.5-1-1-1.6-1.7c-0.2-0.2-0.5-0.5-0.7-0.8c-0.8-0.9-1.8-2-2.7-3.1l0,0c-1.6-2.1-2.5-4.2-1.6-5.8c0.7-1.2,1.8-1.6,2.8-1.6
			c0.3,0,0.6,0,0.8,0.1c1.1,0.3,2.3,1.2,2.4,2.9c0,1.7-0.8,2.7-2.6,4.6c0.3,0.3,0.6,0.7,0.9,1c1.9-2.1,3.1-3.4,3-5.7
			c-0.1-2-1.4-3.6-3.4-4.1c-1.7-0.4-3.9,0.1-5.1,2.2C82,94.3,83.4,97,85.2,99.4L85.2,99.4z"/>
		<path class="st0" d="M86.1,111.9l-3.9-4.7l3.9-4.7c-0.3-0.3-0.6-0.7-0.9-1l-3.9,4.7l-3.9-4.7c-0.3,0.3-0.6,0.7-0.9,1l3.9,4.7
			l-3.9,4.7c0.3,0.3,0.6,0.7,0.9,1l3.9-4.7l3.9,4.7C85.5,112.6,85.8,112.2,86.1,111.9 M81.4,107.2L81.4,107.2L81.4,107.2L81.4,107.2
			L81.4,107.2z"/>
		<path class="st0" d="M92.3,108.1c-1,0.4-1.8,1-2.7,1.9c-0.3,0.3-0.6,0.7-1,1.1c-0.2,0.2-0.5,0.5-0.7,0.8c-0.9,1-1.9,2-2.7,3.1
			c-1.8,2.4-3.2,5.1-1.9,7.5c0.9,1.6,2.5,2.3,3.9,2.3c0.4,0,0.8,0,1.1-0.1c2-0.5,3.3-2.1,3.4-4.1c0.1-2.3-1.1-3.6-3-5.6
			c-0.3,0.3-0.6,0.7-0.9,1c1.7,1.9,2.6,2.9,2.6,4.6c0,1.7-1.3,2.6-2.4,2.9c-1.1,0.3-2.7,0-3.6-1.5c-0.9-1.7,0-3.7,1.6-5.8l0,0
			c0.8-1,1.7-2,2.4-2.9c0.1-0.1,0.2-0.2,0.2-0.3c0.3-0.3,0.5-0.5,0.7-0.8c0,0,0,0,0.1-0.1c0,0,0,0,0,0c0.3-0.4,0.6-0.7,0.9-1
			c0,0,0,0,0,0c0.8-0.9,1.5-1.5,2.3-1.8c1.1-0.4,2.6-0.4,3.2,1c0.4,0.8,0.2,1.6-0.3,2.2c-0.6,0.7-1.6,1-2.5,0.7
			c-0.6-0.2-1.2-0.7-1.8-1.2c-0.3,0.3-0.6,0.6-0.9,1c0,0,0,0,0,0c0.7,0.7,1.5,1.3,2.3,1.5c1.4,0.4,2.9,0,3.8-1.1
			c0.9-1,1.1-2.4,0.5-3.6C96.3,108,94.4,107.3,92.3,108.1"/>
		<path class="st0" d="M74.9,104.3c-0.3,0.4-0.6,0.7-0.9,1l1.7,1.9l-1.7,1.9c0.3,0.3,0.6,0.6,0.9,1l2.5-2.9L74.9,104.3z"/>
		<path class="st0" d="M77.5,115c-0.5-0.7-1.1-1.4-1.8-2.1l0,0c-0.3-0.3-0.6-0.6-0.8-0.9c-0.3-0.3-0.5-0.5-0.7-0.8
			c-0.1-0.1-0.1-0.1-0.2-0.2l0,0c-0.3-0.4-0.6-0.7-0.9-1l0,0c-0.9-1-1.7-1.6-2.7-2c-2.1-0.8-4-0.1-4.8,1.7c-0.6,1.3-0.4,2.6,0.5,3.6
			c0.9,1.1,2.4,1.5,3.8,1.1c0.8-0.2,1.6-0.8,2.3-1.5c-0.3-0.4-0.6-0.7-0.9-1c-0.6,0.6-1.2,1.1-1.8,1.3c-0.9,0.3-1.9,0-2.5-0.7
			c-0.5-0.6-0.7-1.5-0.3-2.2c0.4-0.9,1.2-1.2,2-1.2c0.4,0,0.8,0.1,1.2,0.2c0.6,0.2,1.1,0.6,1.7,1.1c0,0,0,0,0,0c0.5,0.5,1,1,1.6,1.7
			c0.2,0.2,0.5,0.5,0.7,0.8c0.8,0.9,1.8,2,2.7,3.2c1.6,2.1,2.5,4.1,1.6,5.8c-0.9,1.6-2.5,1.8-3.6,1.5c-1.1-0.3-2.3-1.2-2.4-2.9
			c0-1.7,0.8-2.7,2.6-4.6c-0.3-0.3-0.6-0.7-0.9-1c-1.9,2.1-3.1,3.4-3,5.7c0,2,1.4,3.6,3.4,4.1c0.4,0.1,0.7,0.1,1.1,0.1
			c1.5,0,3-0.7,3.9-2.3C80.7,120.1,79.3,117.4,77.5,115"/>
	</g>
	<g class="st1">
		<g>
			<path class="st2" d="M339.1,207.5c4.1,23.4,8.3,46.7,12.4,70.1c0.3,1.9,3.2,1.1,2.9-0.8c-4.1-23.4-8.3-46.7-12.4-70.1
				C341.7,204.8,338.8,205.6,339.1,207.5L339.1,207.5z"/>
		</g>
	</g>
	<g class="st1">
		<g>
			<path class="st2" d="M485.5,232.3c-7.5,8.6-18.8,14.5-28.4,20.5c-9.3,5.9-20.1,9.5-30.6,12.5c-20.6,6-42,9.9-63.3,12.6
				c-1.9,0.2-1.9,3.2,0,3c22-2.7,44.1-6.7,65.4-13c10.3-3.1,20.8-6.7,30-12.4c9.8-6.1,21.3-12.2,29-21
				C488.9,233,486.8,230.8,485.5,232.3L485.5,232.3z"/>
		</g>
	</g>
	<circle class="st21" cx="262.5" cy="256.6" r="7.1"/>
	<circle class="st21" cx="342.5" cy="207.1" r="7.1"/>
	<circle class="st21" cx="272.6" cy="194.5" r="7.1"/>
	<g class="st1">
		<g>
			<path class="st2" d="M254.9,254.7c-17.5,0.4-35.1,0.4-52.6,0c-1.9,0-1.9,2.9,0,3c17.5,0.4,35.1,0.4,52.6,0
				C256.8,257.6,256.8,254.6,254.9,254.7L254.9,254.7z"/>
		</g>
	</g>
	<g class="st1">
		<text transform="matrix(1 0 0 1 410.3047 218.5396)" class="st0 st8 st22">Chedraui</text>
	</g>
	<path class="st23" d="M124.8,122.4"/>
	<g class="st1">
		<defs>
			<rect id="SVGID_6_" x="29.4" y="46" width="592.1" height="408.1"/>
		</defs>
		<clipPath id="SVGID_7_">
			<use xlink:href="#SVGID_6_"  style="overflow:visible;"/>
		</clipPath>
		<g class="st24">
			<g>
				<path class="st2" d="M147.3,22.5c-3.3,21.1-13.5,40.9-19.8,61.1c-4.2,13.3-4,27.3-3.5,41.1c0.5,15.9,4.5,30.8,8,46.2
					c1.8,7.8,3.2,15.7,3,23.7c-0.2,8.2-2.4,15.7-5.4,23.2c-2.8,6.8-6,13.6-7.7,20.8c-1.7,7.4-1.9,15-1.6,22.6
					c0.7,21.8,1.9,43.6,2.7,65.4c0.9,24.5,1.9,49.1,1,73.6c-0.1,1.9,2.9,1.9,3,0c1.6-42.7-1.4-85.7-3.3-128.3
					c-0.7-15.2-0.9-29.4,4.8-43.7c2.7-6.9,6-13.6,7.8-20.7c1.8-7.1,2-14.4,1.2-21.7c-1.6-15.1-6.8-29.4-9.2-44.3
					c-1.3-8.7-1.6-17.5-1.6-26.2c0-8.2-0.2-16.7,1.8-24.8c5.5-22.8,17.9-43.9,21.6-67.1C150.5,21.4,147.6,20.6,147.3,22.5
					L147.3,22.5z"/>
			</g>
		</g>
		<g class="st24">
			<g>
				<path class="st2" d="M284.5,441.1c13.7-33.5,28.9-66.4,44.5-99c8.1-17,16.4-34,25.5-50.5c10.7-19.4,24.4-36.7,36.7-55.1
					c34-50.8,73.9-97.3,111.2-145.7c9.2-12,18.3-24.1,27.1-36.4c4.3-6,8.5-12.1,12.7-18.3c1.9-2.8,4.5-5.7,5.8-8.8
					c0.7-1.7-0.9-0.3,0.5-1.1c1.8-1.1,4.4-1.5,6.4-2.2c3.5-1.2,6.9-2.3,10.4-3.5c7.2-2.4,14.4-4.9,21.6-7.3c1.4-0.5,4.7-0.9,5.8-1.9
					c1-1-1.6,0.4-1.7-0.4c0,0.1,1.2,0.6,1.3,0.7c4.9,3.3,10.6,5.8,15.8,8.6c15.4,8.3,30.7,16.7,46.5,24.1c2.5,1.2,5,2.3,7.5,3.3
					c3.6,1.4,5.1-4.3,1.6-5.7c-15.1-6.1-29.5-14.5-43.8-22.2c-6.8-3.6-13.6-7.3-20.4-11c-2.4-1.3-5.4-3.8-8.2-3.2
					c-5.3,1.1-10.8,3.6-15.9,5.4c-7.4,2.5-14.9,5-22.3,7.6c-2.1,0.7-4.2,1.3-6.2,2.1c-3.2,1.3-4.5,4.7-6.4,7.5
					c-8.4,12.7-17.2,25.1-26.2,37.3c-37,50.1-77.9,97.2-114.1,147.8c-9,12.7-17.5,25.7-26.5,38.4c-6.4,9.1-13.2,18-18.9,27.6
					c-9,15-16.7,30.8-24.4,46.6c-17,34.9-33.3,70.3-48.4,106.1c-1.1,2.6-2.2,5.2-3.2,7.8C277.3,443,283,444.6,284.5,441.1
					L284.5,441.1z"/>
			</g>
		</g>
		<path class="st25" d="M449.5,436.5l-71.5,13.6l-100.3-12.8l-152.1-37.1c0,0-104.5-5.7-215.1-36.5c-114.1-31.7-114-12.1-249.3-21.4
			c-94.1-6.5-111.7,35.4-111.7,35.4"/>
		<polyline class="st25" points="-681.5,-496.1 310.7,122.7 338.6,130.9 735.3,402 		"/>
		<g class="st24">
			<g>
				<path class="st26" d="M526.2,344.9c-15.1,104.7-42.4,206.9-66.6,309.7c-6.8,28.8-13.3,57.8-19.3,86.8c-0.8,3.7,5,5.3,5.7,1.6
					c21.3-103.5,50-205.3,70.7-309c5.8-29,11-58.2,15.2-87.5C532.4,342.8,526.7,341.1,526.2,344.9L526.2,344.9z"/>
			</g>
		</g>
		<path class="st27" d="M563.6,267.4l39.4-64.7L707.2-69l18.3-18.3l112.6-8.4H893c0,0,95.7,63.3,174.5,77.4
			c78.8,14.1,143.6,60.5,143.6,60.5l49.3,50.7l31,118.2l-43.6,356.1c0,0-19.7,46.4-56.3,63.3c-36.6,16.9-206.9,170.3-206.9,170.3
			L833.9,905c0,0-166.1,119.6-233.7,77.4C532.7,940.2,375,612.2,375,612.2s-26.7-18.3,9.8-63.3c36.6-45,70.4-99.9,70.4-118.2
			c0-18.3,40.8-52.1,40.8-52.1L563.6,267.4z"/>
	</g>
	<g class="st1">
		<g>
			<path class="st4" d="M124,124.8c0.4,9.4,1.5,18.5,3.5,27.7c2.5,11.1,5.7,22,7,33.3c0.2,1.9,3.2,1.9,3,0
				c-1.2-10.3-3.9-20.2-6.3-30.3c-2.4-10.2-3.8-20.2-4.3-30.7C126.9,122.9,124,122.9,124,124.8L124,124.8z"/>
		</g>
	</g>
	<circle class="st28" cx="136.6" cy="187.4" r="7.1"/>
	<circle class="st28" cx="124.8" cy="122.4" r="7.1"/>
	<circle class="st29" cx="122.2" cy="246.1" r="4.9"/>
	<circle class="st21" cx="124.8" cy="399.2" r="7.1"/>
	<circle class="st21" cx="124.8" cy="343.3" r="7.1"/>
	<circle class="st21" cx="282.2" cy="439.5" r="7.1"/>
	<circle class="st21" cx="357.8" cy="279.3" r="7.1"/>
	<line class="st30" x1="421.1" y1="187.3" x2="552.6" y2="277.1"/>
	<circle class="st21" cx="423.1" cy="187.3" r="10.1"/>
	<g class="st1">
		<text transform="matrix(0.5122 -0.8588 0.8588 0.5122 520.2173 347.997)" class="st2 st13" style="font-size:9.9853px;">PERIFÈRICO DE MÉRIDA</text>
	</g>
	<g class="st1">
		<text transform="matrix(1 0 0 1 408.5986 222.7163)" class="st2 st8 st31">Chedraui</text>
	</g>
	<g class="st1">
		<text transform="matrix(0.8243 0.5661 -0.5661 0.8243 493.6993 256.3985)" class="st2 st8 st31">Walmart</text>
	</g>
	<g class="st1">
		<text transform="matrix(1 0 0 1 304.9209 286.4121)"><tspan x="0" y="0" class="st2 st8 st31">Bodega</tspan><tspan x="0.4" y="8.7" class="st2 st8 st31">Aurrera</tspan></text>
	</g>
	<g class="st1">
		<text transform="matrix(1 0 0 1 354.5361 433.375)" class="st2 st8 st31">Animaya</text>
	</g>
	<circle class="st32" cx="280.6" cy="207.4" r="2.9"/>
	<g class="st1">
		<text transform="matrix(1 0 0 1 285.8105 217.6753)"><tspan x="0" y="0" class="st2 st8 st22">Unidad </tspan><tspan x="-11.7" y="8.7" class="st2 st8 st22">Deportiva de </tspan><tspan x="-13.8" y="17.4" class="st2 st8 st22">Ciudad Caucel</tspan></text>
	</g>
	<circle class="st32" cx="264" cy="182.5" r="2.9"/>
	<g class="st1">
		<text transform="matrix(1 0 0 1 203.0938 166.8955)"><tspan x="0" y="0" class="st2 st8 st22">Centro Acuático</tspan><tspan x="11.6" y="8.7" class="st2 st8 st22">de Mérida</tspan></text>
	</g>
</g>
</svg>
