<?xml version="1.0" encoding="utf-8"?>
<!-- Generator: Adobe Illustrator 24.0.2, SVG Export Plug-In . SVG Version: 6.00 Build 0)  -->
<svg version="1.1" id="Capa_1" xmlns="http://www.w3.org/2000/svg" xmlns:xlink="http://www.w3.org/1999/xlink" x="0px" y="0px"
	 viewBox="0 0 132 100" style="enable-background:new 0 0 132 100;" xml:space="preserve">
<style type="text/css">
	.st0{fill:#F0796F;}
</style>
<path class="st0" d="M87.79,74.39c-0.84,0.92-1.63,1.76-2.38,2.53l4.45,4.97l-4.45,4.97c0.75,0.77,1.53,1.61,2.38,2.53l6.71-7.5
	L87.79,74.39z"/>
<path class="st0" d="M14.38,98c0.84-0.92,1.63-1.76,2.38-2.53l-4.45-4.97l4.45-4.97c-0.75-0.77-1.53-1.61-2.38-2.53l-6.71,7.5
	L14.38,98z"/>
<path class="st0" d="M68.78,25.49L68.78,25.49h-0.01H68.78L68.78,25.49z M68.77,23.48L55.2,34.62c0.82,0.69,1.62,1.39,2.38,2.07
	l11.2-9.19l11.2,9.19c0.76-0.68,1.56-1.38,2.38-2.07l-11.12-9.13L68.77,23.48z"/>
<path class="st0" d="M61.93,40.62c0.84,0.75,1.6,1.45,2.3,2.12l4.53-3.96l4.53,3.96c0.7-0.67,1.47-1.37,2.3-2.12l-6.84-5.98
	L61.93,40.62z"/>
<path class="st0" d="M0.73,51.31c0.84,0.75,1.6,1.45,2.3,2.12l4.53-3.96l4.53,3.96c0.7-0.67,1.47-1.37,2.3-2.12l-6.84-5.98
	L0.73,51.31z"/>
<path class="st0" d="M52.29,0.6h3.75c0,6.5,5.35,11.79,11.93,11.79c6.58,0,11.93-5.29,11.93-11.79h3.75c0,8.54-7.04,15.5-15.68,15.5
	C59.33,16.1,52.29,9.14,52.29,0.6"/>
<path class="st0" d="M67.15,76.02H63.4l0.01-10.78c0.01-0.13,0.28-3.13,2.32-6.29c1.87-2.9,5.64-6.52,12.95-7.28l0.39,3.69
	c-10.56,1.1-11.81,9.23-11.92,10.13V76.02z"/>
<rect x="95.16" y="27.88" class="st0" width="3.75" height="17.32"/>
<rect x="111.06" y="1.42" class="st0" width="20.94" height="2.89"/>
<path class="st0" d="M116.18,61.52h3.25c6.35,0,11.51,4.99,11.51,11.12c0,6.13-5.16,11.12-11.51,11.12h-14.47v-3.71h14.47
	c4.28,0,7.75-3.32,7.75-7.41c0-4.09-3.48-7.41-7.75-7.41h-3.25V61.52z"/>
<path class="st0" d="M97.52,8.35c-1.98,0-3.58-1.58-3.58-3.54c0-1.95,1.6-3.54,3.58-3.54s3.58,1.58,3.58,3.54
	C101.1,6.76,99.49,8.35,97.52,8.35"/>
<path class="st0" d="M87.27,22.16l5.9-0.04c0,0,9.23-0.12,17.1-0.02c6.9-0.14,10.99,2.36,10.99,2.36s7.66,5.38,1.58,13.62
	c-5.15,5.74-11.29,2.46-11.29,2.46s-0.83,1.23-2.41,3.15c9.82,5.62,16.63-3.01,16.63-3.01s5.13-4.27,2.65-13.22
	c-3.55-9.69-15.2-9.26-15.2-9.26l-25.96,0V22.16z"/>
<polygon class="st0" points="89.95,64.35 103.49,50.98 105.95,53.41 92.42,66.78 "/>
<polygon class="st0" points="89.95,53.41 92.42,50.98 105.95,64.35 103.49,66.78 "/>
<rect x="38.07" y="29.76" class="st0" width="3.75" height="17.32"/>
<rect x="18.99" y="1.42" class="st0" width="20.94" height="3.65"/>
<path class="st0" d="M18.96,56.76h3.25c6.35,0,11.51,4.99,11.51,11.12c0,6.13-5.16,11.12-11.51,11.12H0.73v-3.71h21.48
	c4.28,0,7.75-3.32,7.75-7.41c0-4.09-3.48-7.41-7.75-7.41h-3.25V56.76z"/>
<path class="st0" d="M52.27,64.95c0,1.96-1.6,3.54-3.58,3.54c-1.98,0-3.58-1.58-3.58-3.54c0-1.96,1.6-3.54,3.58-3.54
	C50.66,61.41,52.27,63,52.27,64.95"/>
<path class="st0" d="M52.27,72.03c0,1.96-1.6,3.54-3.58,3.54c-1.98,0-3.58-1.58-3.58-3.54c0-1.96,1.6-3.54,3.58-3.54
	C50.66,68.49,52.27,70.08,52.27,72.03"/>
<path class="st0" d="M4.96,7.68c-1.98,0-3.58-1.58-3.58-3.54c0-1.95,1.6-3.54,3.58-3.54s3.58,1.58,3.58,3.54
	C8.54,6.1,6.94,7.68,4.96,7.68"/>
<path class="st0" d="M48.71,18.55l-5.9-0.04c0,0-9.23-0.12-17.1-0.02c-6.9-0.14-10.99,2.36-10.99,2.36s-7.66,5.38-1.58,13.62
	c5.15,5.74,11.29,2.46,11.29,2.46s0.83,1.23,2.41,3.15c-9.82,5.62-16.63-3.01-16.63-3.01s-5.13-4.27-2.65-13.22
	c3.55-9.69,15.2-9.26,15.2-9.26l25.96,0V18.55z"/>
</svg>
