<svg width="684" height="104" viewBox="0 0 684 104" fill="none" xmlns="http://www.w3.org/2000/svg">
<path d="M62.7048 70.962C57.7959 71.7181 54.7863 68.3736 56.2473 63.575C49.0009 71.0492 46.4003 71.7181 43.3323 71.2528C39.7675 70.6711 37.3423 65.1163 42.5726 57.7293C47.7736 50.4295 54.8155 48.2192 57.4161 48.2192C59.7244 48.2192 61.7698 49.7606 62.2373 52.1454C63.1139 51.0984 63.7859 50.3132 64.0781 50.226C64.8378 49.8479 66.8832 51.5638 66.8832 52.0582C66.8832 52.349 64.3703 54.8501 62.1496 57.2349C55.9843 66.6286 58.8771 70.0895 67.7306 65.6689C70.3311 64.4184 73.1362 62.4989 76.2042 59.8233C77.373 58.8635 77.1685 61.7427 76.701 62.2081C76.2335 62.6734 68.7825 70.0022 62.7048 70.962ZM59.3153 56.1007H59.2277C59.2277 56.1007 60.9516 51.302 57.007 51.302C48.3288 51.302 39.1539 66.5705 44.1796 67.821C48.9132 69.0716 57.6791 58.0201 58.3511 57.4676L59.3153 56.1007Z" fill="#FF6F61" stroke="#FF6F61" stroke-width="0.25" stroke-miterlimit="10"/>
<path d="M107.528 51.3893C106.651 49.8479 102.122 52.349 98.6451 55.4318C95.168 58.5145 88.5059 67.7047 87.2787 68.5772C86.6067 69.0716 84.9704 68.5772 85.4379 67.5302C86.0223 66.4832 89.4994 61.481 92.6843 55.7226C95.9569 49.9642 92.5967 50.4295 90.8435 51.8837C80.6167 60.2304 76.7597 66.6577 75.2111 68.4899C73.7501 70.3221 72.406 67.4429 73.3702 65.9016C81.2887 52.7561 85.321 47.9575 85.9054 47.3758C86.1976 47.085 87.3664 48.5391 87.2495 49.2953C87.1618 50.4586 85.1165 52.9306 83.6847 54.9664C84.649 54.0067 88.7105 49.9642 91.311 48.4519C93.8239 46.9977 98.8204 46.9105 96.8043 54.123C101.246 49.7897 107.499 46.1543 110.099 48.6555C111.56 49.906 111.151 54.4139 106.739 59.5033C102.005 64.9709 104.431 67.5593 106.447 67.7629C108.58 67.8501 111.735 66.2215 118.982 59.8814C120.151 58.9217 119.946 61.8009 119.479 62.2662C119.011 62.7315 111.56 70.3221 106.359 70.5257C102.97 70.613 97.3887 66.9776 103.466 59.0962C104.927 57.1476 108.609 53.2215 107.528 51.3893Z" fill="#FF6F61" stroke="#FF6F61" stroke-width="0.25" stroke-miterlimit="10"/>
<path d="M141.393 70.962C136.484 71.7181 133.475 68.3736 134.936 63.575C127.689 71.0492 125.089 71.7181 122.021 71.2528C118.456 70.6711 116.031 65.1163 121.261 57.7293C126.462 50.4295 133.504 48.2192 136.105 48.2192C138.413 48.2192 140.458 49.7606 140.926 52.1454C141.802 51.0984 142.474 50.3132 142.767 50.226C143.526 49.8479 145.572 51.5638 145.572 52.0582C145.572 52.349 143.059 54.8501 140.838 57.2349C134.673 66.6286 137.566 70.0895 146.419 65.6689C149.02 64.4184 151.825 62.4989 154.893 59.8233C156.061 58.8635 155.857 61.7427 155.389 62.2081C154.922 62.6734 147.471 70.0022 141.393 70.962ZM138.004 56.1007H137.916C137.916 56.1007 139.64 51.302 135.695 51.302C127.017 51.302 117.842 66.5705 122.868 67.821C127.602 69.0716 136.368 58.0201 137.04 57.4676L138.004 56.1007Z" fill="#FF6F61" stroke="#FF6F61" stroke-width="0.25" stroke-miterlimit="10"/>
<path d="M178.21 63.7786C178.21 66.745 179.262 67.6175 180.898 67.7048C183.031 67.792 186.303 66.1634 193.433 59.8233C194.602 58.8636 194.397 61.7428 194.017 62.2081C193.521 62.7025 185.544 70.6712 180.898 70.4676C173.272 70.1768 175.317 60.2014 176.749 55.5772C181.57 40.3088 194.689 28.0358 199.978 24.6622C204.332 21.8703 207.225 21.9866 208.072 23.1209C212.513 29.1701 186.859 52.9598 178.56 60.3759C178.297 61.5683 178.21 62.7025 178.21 63.7786ZM205.033 25.8546C204.449 25.273 202.725 25.7674 199.715 28.1522C193.258 33.0381 182.943 46.2998 179.378 57.1477C188.144 49.3826 207.926 28.6466 205.033 25.8546Z" fill="#FF6F61" stroke="#FF6F61" stroke-width="0.25" stroke-miterlimit="10"/>
<path d="M215.815 70.962C210.906 71.7181 207.896 68.3736 209.357 63.575C202.111 71.0492 199.51 71.7181 196.442 71.2528C192.878 70.6711 190.452 65.1163 195.683 57.7293C200.884 50.4295 207.926 48.2192 210.526 48.2192C212.835 48.2192 214.88 49.7606 215.347 52.1454C216.224 51.0984 216.896 50.3132 217.188 50.226C217.948 49.8479 219.993 51.5638 219.993 52.0582C219.993 52.349 217.48 54.8501 215.26 57.2349C209.094 66.6286 211.987 70.0895 220.841 65.6689C223.441 64.4184 226.246 62.4989 229.314 59.8233C230.483 58.8635 230.279 61.7427 229.811 62.2081C229.344 62.6734 221.893 70.0022 215.815 70.962ZM212.455 56.1007H212.367C212.367 56.1007 214.091 51.302 210.146 51.302C201.468 51.302 192.293 66.5705 197.319 67.821C202.053 69.0716 210.818 58.0201 211.49 57.4676L212.455 56.1007Z" fill="#FF6F61" stroke="#FF6F61" stroke-width="0.25" stroke-miterlimit="10"/>
<path d="M253.333 71.5436C252.165 71.5436 248.22 70.0895 249.097 63.4877C250.061 56.6823 257.863 49.4698 258.359 49.0044C258.944 48.5391 261.34 49.3825 260.668 50.255C259.908 51.2147 254.502 58.5145 252.661 62.8188C250.821 67.123 252.954 69.7405 255.467 67.4139C267.037 57.3221 270.69 48.0156 271.859 47.3467C273.115 46.5906 273.787 48.8009 273.495 49.3534C270.894 54.821 266.249 61.2483 262.304 65.2908C255.846 71.7472 254.59 71.5436 253.333 71.5436Z" fill="#FF6F61" stroke="#FF6F61" stroke-width="0.25" stroke-miterlimit="10"/>
<path d="M276.767 67.6174C279.075 67.821 282.464 66.1633 289.682 59.8523C290.734 58.8926 290.558 61.7718 290.178 62.2371C289.682 62.7315 279.572 73.1722 273.699 69.0425C270.601 66.9194 271.858 61.7427 275.919 56.0716C279.192 51.2729 281.033 48.8881 281.705 48.3937C282.464 47.8121 284.101 49.7315 283.253 50.9821C282.581 52.0291 277.176 59.038 275.832 62.2953C274.341 65.5816 274.721 67.4139 276.767 67.6174ZM287.929 41.2103C286.38 40.4541 284.539 41.2103 283.779 42.7517C283.107 44.0895 283.195 46.0089 284.656 46.5033C287.636 47.5503 290.558 42.3736 287.929 41.2103Z" fill="#FF6F61" stroke="#FF6F61" stroke-width="0.25" stroke-miterlimit="10"/>
<path d="M307.71 60.405C306.834 64.7383 307.623 67.5012 309.931 67.7048C312.064 67.792 315.337 66.1634 322.466 59.8233C323.635 58.8636 323.43 61.7428 323.051 62.2081C322.554 62.7025 314.577 70.6712 309.931 70.4676C307.038 70.3804 304.73 67.792 304.613 63.0806C301.428 65.8725 299.032 67.6757 298.068 68.2573C289.77 73.1432 284.948 65.0873 293.539 55.1992C300.668 47.056 306.454 48.1902 308.499 49.4408C310.632 45.5146 313.7 41.0068 317.937 36.0918C337.719 13.2327 349.377 17.8569 325.184 43.4788C318.989 50.0515 312.736 55.9844 307.71 60.405ZM295.555 57.5258C289.273 67.1231 292.37 70.0023 299.5 64.4475C301.34 63.1097 303.064 61.5683 304.818 60.1141C305.11 57.9039 305.782 55.5191 306.951 52.8144C305.49 48.2193 298.535 53.1052 295.555 57.5258ZM326.995 37.2842C343.183 20.009 333.949 21.5504 319.953 38.0403C314.46 44.6712 310.778 51.1857 308.85 56.3625C318.025 47.8412 325.271 39.0873 326.995 37.2842Z" fill="#FF6F61" stroke="#FF6F61" stroke-width="0.25" stroke-miterlimit="10"/>
<path d="M344.819 70.962C339.91 71.7181 336.901 68.3736 338.362 63.575C331.115 71.0492 328.515 71.7181 325.447 71.2528C321.882 70.6711 319.457 65.1163 324.687 57.7293C329.888 50.4295 336.93 48.2192 339.53 48.2192C341.839 48.2192 343.884 49.7606 344.352 52.1454C345.228 51.0984 345.9 50.3132 346.192 50.226C346.952 49.8479 348.997 51.5638 348.997 52.0582C348.997 52.349 346.485 54.8501 344.264 57.2349C338.099 66.6286 340.991 70.0895 349.845 65.6689C352.445 64.4184 355.25 62.4989 358.319 59.8233C359.487 58.8635 359.283 61.7427 358.815 62.2081C358.348 62.6734 350.897 70.0022 344.819 70.962ZM341.459 56.1007H341.371C341.371 56.1007 343.095 51.302 339.15 51.302C330.472 51.302 321.297 66.5705 326.323 67.821C331.057 69.0716 339.823 58.0201 340.495 57.4676L341.459 56.1007Z" fill="#FF6F61" stroke="#FF6F61" stroke-width="0.25" stroke-miterlimit="10"/>
<path d="M401.155 59.8233C402.323 58.8635 402.119 61.7427 401.651 62.2081C401.272 62.7025 393.733 70.0895 387.655 70.9329C382.746 71.6018 379.561 69.8859 378.305 66.3378C376.756 62.4989 378.889 57.1186 383.418 52.9888C394.113 43.3043 401.359 47.434 393.558 56.4497C391.834 58.3691 383.915 64.5056 381.11 65.7562C381.782 68.7226 385.172 69.8859 392.769 66.1342C395.252 64.9128 398.145 62.528 401.155 59.8233ZM389.847 56.2752C396.596 49.7606 393.324 48.1029 386.574 54.0649C384.061 56.3624 382.045 59.6197 381.285 62.4116C383.214 61.3647 387.246 58.7763 389.847 56.2752Z" fill="#FF6F61" stroke="#FF6F61" stroke-width="0.25" stroke-miterlimit="10"/>
<path d="M420.703 48.2192C423.391 49.8479 421.287 54.9374 417.226 60.0269C413.661 64.4474 413.661 67.5011 416.261 67.7047C418.394 67.792 421.55 66.1633 428.797 59.8233C429.965 58.8635 429.761 61.7427 429.293 62.2081C428.913 62.7025 420.907 70.6712 416.261 70.4676C414.041 70.3803 411.528 69.7114 411.528 66.047C411.44 61.83 415.765 57.1186 417.313 54.5302C420.001 50.3132 416.933 49.6443 411.995 53.9486C409.599 56.0716 406.005 59.4161 403.317 62.5861C401.389 66.047 399.752 68.7226 399.46 69.0134C398.204 70.1767 397.035 67.7629 397.911 65.8434C400.132 62.3826 403.697 56.6242 408.898 46.6488C409.278 45.9799 411.703 46.736 411.703 47.4049C411.703 47.6085 409.979 50.7785 407.846 54.6175C410.768 51.302 417.722 46.387 420.703 48.2192Z" fill="#FF6F61" stroke="#FF6F61" stroke-width="0.25" stroke-miterlimit="10"/>
<path d="M458.688 69.2461C464.093 67.6174 470.755 62.7024 474.028 59.8523C475.08 58.8926 474.992 61.7718 474.525 62.2371C470.375 66.3669 464.59 70.7002 458.805 71.6599C458.512 77.4183 455.532 85.0089 449.454 93.2684C439.315 106.792 424.764 108.624 432.186 89.6331C436.043 79.7449 464.21 35.6846 477.885 24.255C488.579 15.4139 492.728 20.9978 484.635 32.0201C481.07 37.0224 464.853 55.3445 454.655 62.4407C457.168 63.8658 458.425 66.4541 458.688 69.2461ZM436.802 87.481C435.546 90.1566 432.069 98.2416 434.202 100.045C436.335 101.877 440.572 98.7942 443.756 95.2461C452.639 85.1543 455.415 77.1857 455.707 71.9217C452.61 71.8344 449.834 70.6711 448.373 67.7919C442.88 76.4295 438.643 83.7293 436.802 87.481ZM454.275 65.4944C452.259 62.6152 449.074 66.2505 452.552 69.0425C453.311 69.7114 454.48 69.915 455.736 69.915C455.532 67.9083 454.948 66.3669 454.275 65.4944ZM481.274 32.1074C491.881 18.5839 482.531 21.4631 473.181 32.8635C466.811 40.745 460.061 50.0514 454.188 58.8635C461.113 53.8904 471.427 44.4676 481.274 32.1074Z" fill="#FF6F61" stroke="#FF6F61" stroke-width="0.25" stroke-miterlimit="10"/>
<path d="M496.411 70.962C491.502 71.7181 488.492 68.3736 489.953 63.575C482.707 71.0492 480.106 71.7181 477.038 71.2528C473.473 70.6711 471.048 65.1163 476.278 57.7293C481.479 50.4295 488.521 48.2192 491.122 48.2192C493.43 48.2192 495.476 49.7606 495.943 52.1454C496.82 51.0984 497.492 50.3132 497.784 50.226C498.544 49.8479 500.589 51.5638 500.589 52.0582C500.589 52.349 498.076 54.8501 495.855 57.2349C489.69 66.6286 492.583 70.0895 501.436 65.6689C504.037 64.4184 506.842 62.4989 509.91 59.8233C511.079 58.8635 510.874 61.7427 510.407 62.2081C509.939 62.6734 502.488 70.0022 496.411 70.962ZM493.021 56.1007H492.933C492.933 56.1007 494.657 51.302 490.713 51.302C482.035 51.302 472.86 66.5705 477.885 67.821C482.619 69.0716 491.385 58.0201 492.057 57.4676L493.021 56.1007Z" fill="#FF6F61" stroke="#FF6F61" stroke-width="0.25" stroke-miterlimit="10"/>
<path d="M541.233 51.3893C540.357 49.8479 535.828 52.349 532.35 55.4318C528.873 58.5145 522.211 67.7047 520.984 68.5772C520.312 69.0716 518.676 68.5772 519.143 67.5302C519.728 66.4832 523.205 61.481 526.39 55.7226C529.662 49.9642 526.302 50.4295 524.549 51.8837C514.322 60.2304 510.465 66.6577 508.916 68.4899C507.485 70.3221 506.111 67.4429 507.076 65.9016C514.994 52.7561 519.026 47.9575 519.611 47.3758C519.903 47.085 521.072 48.5391 520.955 49.2953C520.867 50.4586 518.822 52.9306 517.39 54.9664C518.354 54.0067 522.416 49.9642 525.016 48.4519C527.529 46.9977 532.526 46.9105 530.51 54.123C534.951 49.7897 541.204 46.1543 543.804 48.6555C545.265 49.906 544.856 54.4139 540.444 59.5033C535.711 64.9709 538.136 67.5593 540.152 67.7629C542.285 67.8501 545.441 66.2215 552.687 59.8814C553.856 58.9217 553.651 61.8009 553.184 62.2662C552.716 62.7315 545.265 70.3221 540.064 70.5257C536.675 70.613 531.094 66.9776 537.172 59.0962C538.633 57.1476 542.314 53.2215 541.233 51.3893Z" fill="#FF6F61" stroke="#FF6F61" stroke-width="0.25" stroke-miterlimit="10"/>
<path d="M556.749 67.6174C559.057 67.821 562.447 66.1633 569.664 59.8523C570.716 58.8926 570.54 61.7718 570.161 62.2371C569.664 62.7315 559.554 73.1722 553.681 69.0425C550.584 66.9194 551.84 61.7427 555.901 56.0716C559.174 51.2729 561.015 48.8881 561.687 48.3937C562.447 47.8121 564.083 49.7315 563.236 50.9821C562.564 52.0291 557.158 59.038 555.814 62.2953C554.353 65.5816 554.733 67.4139 556.749 67.6174ZM567.94 41.2103C566.391 40.4541 564.55 41.2103 563.791 42.7517C563.119 44.0895 563.206 46.0089 564.667 46.5033C567.648 47.5503 570.54 42.3736 567.94 41.2103Z" fill="#FF6F61" stroke="#FF6F61" stroke-width="0.25" stroke-miterlimit="10"/>
<path d="M572.878 63.7786C572.878 66.745 573.93 67.6175 575.566 67.7048C577.699 67.792 580.971 66.1634 588.101 59.8233C589.27 58.8636 589.065 61.7428 588.685 62.2081C588.189 62.7025 580.212 70.6712 575.566 70.4676C567.939 70.1768 569.985 60.2014 571.417 55.5772C576.238 40.3088 589.357 28.0358 594.646 24.6622C599 21.8703 601.893 21.9866 602.74 23.1209C607.181 29.1701 581.527 52.9598 573.228 60.3759C572.965 61.5683 572.878 62.7025 572.878 63.7786ZM599.672 25.8546C599.088 25.273 597.364 25.7674 594.354 28.1522C587.896 33.0381 577.582 46.2998 574.017 57.1477C582.812 49.3826 602.565 28.6466 599.672 25.8546Z" fill="#FF6F61" stroke="#FF6F61" stroke-width="0.25" stroke-miterlimit="10"/>
<path d="M592.163 67.6174C594.472 67.821 597.861 66.1633 605.078 59.8523C606.13 58.8926 605.955 61.7718 605.575 62.2371C605.078 62.7315 594.968 73.1722 589.095 69.0425C585.998 66.9194 587.254 61.7427 591.316 56.0716C594.588 51.2729 596.429 48.8881 597.101 48.3937C597.861 47.8121 599.497 49.7315 598.65 50.9821C597.978 52.0291 592.572 59.038 591.228 62.2953C589.738 65.5816 590.118 67.4139 592.163 67.6174ZM603.325 41.2103C601.776 40.4541 599.936 41.2103 599.176 42.7517C598.504 44.0895 598.591 46.0089 600.052 46.5033C603.062 47.5503 605.955 42.3736 603.325 41.2103Z" fill="#FF6F61" stroke="#FF6F61" stroke-width="0.25" stroke-miterlimit="10"/>
<path d="M627.431 70.962C622.522 71.7181 619.512 68.3736 620.973 63.575C613.727 71.0492 611.126 71.7181 608.058 71.2528C604.493 70.6711 602.068 65.1163 607.298 57.7293C612.499 50.4295 619.541 48.2192 622.142 48.2192C624.45 48.2192 626.496 49.7606 626.963 52.1454C627.84 51.0984 628.512 50.3132 628.804 50.226C629.564 49.8479 631.609 51.5638 631.609 52.0582C631.609 52.349 629.096 54.8501 626.875 57.2349C620.71 66.6286 623.603 70.0895 632.456 65.6689C635.057 64.4184 637.862 62.4989 640.93 59.8233C642.099 58.8635 641.894 61.7427 641.427 62.2081C640.959 62.6734 633.508 70.0022 627.431 70.962ZM624.07 56.1007H623.983C623.983 56.1007 625.707 51.302 621.762 51.302C613.084 51.302 603.909 66.5705 608.935 67.821C613.668 69.0716 622.434 58.0201 623.106 57.4676L624.07 56.1007Z" fill="#FF6F61" stroke="#FF6F61" stroke-width="0.25" stroke-miterlimit="10"/>
<path d="M0 34.8412V0.407196H12.506C15.2526 0.407196 17.5317 1.22151 19.3725 2.90831C21.2426 4.53695 22.2068 6.65999 22.2068 9.1902C22.2068 12.5056 20.5705 15.0649 17.7947 16.1119C22.2068 16.8971 24.7197 20.2707 24.7197 24.6622C24.7197 27.5705 23.7263 30.0425 21.6809 31.9911C19.694 33.9106 17.2103 34.8703 14.1715 34.8703H0V34.8412ZM6.19454 14.2797H11.6586C14.2884 14.2797 16.1292 12.5638 16.1292 10.0336C16.1292 7.70697 14.2884 5.99109 11.717 5.99109H6.19454V14.2797ZM6.19454 29.2573H13.1488C16.2753 29.2573 18.5544 27.1343 18.5544 24.3132C18.5544 21.5504 16.2753 19.4564 13.0903 19.4564H6.19454V29.2573Z" fill="#0D3E69"/>
<path d="M28.2263 3.51902C28.2263 1.54139 29.8042 0 31.7911 0C33.7196 0 35.3267 1.54139 35.3267 3.51902C35.3267 5.49664 33.7488 7.03803 31.7911 7.03803C29.8042 7.00895 28.2263 5.49664 28.2263 3.51902ZM28.8107 9.94631H34.7715V27.4541C34.7715 29.3736 35.1806 30.0716 36.4954 30.0716C36.9337 30.0716 37.2844 30.0134 37.5473 29.9843V34.9866C36.963 35.2192 35.9695 35.3937 34.567 35.3937C30.7392 35.3937 28.8107 33.2707 28.8107 29.0537V9.94631Z" fill="#0D3E69"/>
<path d="M39.4463 22.3937C39.4463 18.4384 40.7027 15.2684 43.1279 12.8546C45.6116 10.4407 48.7381 9.24829 52.5659 9.24829C56.1891 9.24829 59.1695 10.4407 61.4486 12.8546C63.7862 15.2684 64.9257 18.2349 64.9257 21.812C64.9257 22.5391 64.8673 23.2371 64.8381 23.8769H45.3779C45.5824 27.8322 48.5043 30.3915 52.9165 30.3915C55.4878 30.3915 57.7377 29.4608 59.6662 27.5123L63.231 30.9731C60.3967 33.9396 56.9196 35.4228 52.712 35.4228C48.7965 35.4228 45.5532 34.2304 43.1279 31.9038C40.7027 29.5772 39.4463 26.4653 39.4463 22.5682V22.3937ZM58.8481 19.7181C58.8481 18.2349 58.2052 16.9552 56.9488 15.9082C55.7216 14.8322 54.2606 14.2796 52.5366 14.2796C50.6958 14.2796 49.0595 14.8322 47.7154 15.8501C46.3713 16.868 45.6408 18.1767 45.4655 19.7181H58.8481Z" fill="#0D3E69"/>
<path d="M68.4033 34.8412V9.94631H74.3057V13.4944C75.5037 11.0805 78.2795 9.4519 81.8151 9.4519C87.7175 9.4519 91.1654 13.2617 91.1654 19.4273V27.2796C91.1654 29.1991 91.516 29.8971 92.8601 29.8971C93.1523 29.8971 93.4445 29.8389 93.7075 29.8098V34.8121C93.0062 35.0157 92.1588 35.1029 91.1361 35.1029C87.2207 35.1029 85.263 32.9217 85.263 28.5884V20.2707C85.263 16.868 83.3345 14.745 80.0035 14.745C76.6725 14.745 74.3349 17.1298 74.3349 20.5324V34.8703H68.4033V34.8412Z" fill="#0D3E69"/>
<path d="M105.366 34.8411L94.6423 9.91718H100.808L107.908 26.8143L114.95 9.91718H121.115L110.392 34.8411H105.366Z" fill="#0D3E69"/>
<path d="M122.488 22.3937C122.488 18.4384 123.744 15.2684 126.17 12.8546C128.653 10.4407 131.78 9.24829 135.608 9.24829C139.231 9.24829 142.211 10.4407 144.49 12.8546C146.828 15.2684 147.967 18.2349 147.967 21.812C147.967 22.5391 147.909 23.2371 147.88 23.8769H128.42C128.624 27.8322 131.546 30.3915 135.958 30.3915C138.53 30.3915 140.779 29.4608 142.708 27.5123L146.273 30.9731C143.438 33.9396 139.961 35.4228 135.754 35.4228C131.838 35.4228 128.595 34.2304 126.17 31.9038C123.744 29.5772 122.488 26.4653 122.488 22.5682V22.3937ZM141.919 19.7181C141.919 18.2349 141.276 16.9552 140.02 15.9082C138.793 14.8322 137.332 14.2796 135.608 14.2796C133.767 14.2796 132.13 14.8322 130.786 15.8501C129.442 16.868 128.712 18.1767 128.566 19.7181H141.919Z" fill="#0D3E69"/>
<path d="M151.445 34.8412V9.94631H157.347V13.4944C158.545 11.0805 161.321 9.4519 164.857 9.4519C170.759 9.4519 174.207 13.2617 174.207 19.4273V27.2796C174.207 29.1991 174.557 29.8971 175.902 29.8971C176.194 29.8971 176.486 29.8389 176.749 29.8098V34.8121C176.048 35.0157 175.2 35.1029 174.178 35.1029C170.262 35.1029 168.304 32.9217 168.304 28.5884V20.2707C168.304 16.868 166.376 14.745 163.045 14.745C159.714 14.745 157.376 17.1298 157.376 20.5324V34.8703H151.445V34.8412Z" fill="#0D3E69"/>
<path d="M179.379 3.51902C179.379 1.54139 180.957 0 182.944 0C184.872 0 186.479 1.54139 186.479 3.51902C186.479 5.49664 184.901 7.03803 182.944 7.03803C180.957 7.00895 179.379 5.49664 179.379 3.51902ZM179.963 9.94631H185.924V27.4541C185.924 29.3736 186.333 30.0716 187.648 30.0716C188.086 30.0716 188.437 30.0134 188.7 29.9843V34.9866C188.116 35.2192 187.122 35.3937 185.72 35.3937C181.892 35.3937 179.963 33.2707 179.963 29.0537V9.94631Z" fill="#0D3E69"/>
<path d="M211.112 13.5526V0.407196H217.072V27.3378C217.072 29.4609 217.569 30.2461 218.913 30.2461C219.264 30.2461 219.702 30.188 220.17 30.1589V34.9575C219.527 35.1902 218.533 35.3647 217.248 35.3647C215.816 35.3647 214.676 35.132 213.771 34.5795C212.689 33.8233 211.988 32.8345 211.725 31.5549C210.001 34.1723 207.108 35.4519 203.135 35.4519C199.599 35.4519 196.619 34.2305 194.193 31.7003C191.797 29.1701 190.629 26.1164 190.629 22.3938C190.629 18.6712 191.827 15.6175 194.193 13.1455C196.619 10.6153 199.599 9.39377 203.135 9.39377C207.138 9.39377 210.177 11.1678 211.112 13.5526ZM209.329 27.8323C210.819 26.4072 211.55 24.575 211.55 22.3938C211.55 20.2126 210.819 18.3804 209.329 16.9553C207.897 15.5302 206.057 14.7741 203.924 14.7741C201.791 14.7741 200.037 15.5012 198.606 16.9553C197.203 18.3804 196.531 20.2126 196.531 22.3938C196.531 24.575 197.232 26.4072 198.606 27.8323C200.037 29.2573 201.791 30.0135 203.924 30.0135C206.057 30.0135 207.868 29.2573 209.329 27.8323Z" fill="#0D3E69"/>
<path d="M222.127 22.3937C222.127 18.6711 223.471 15.5301 226.101 12.9999C228.731 10.4697 231.974 9.19009 235.772 9.19009C239.6 9.19009 242.814 10.4697 245.444 12.9999C248.074 15.5301 249.418 18.7002 249.418 22.3937C249.418 26.0872 248.074 29.2572 245.444 31.7874C242.814 34.3176 239.571 35.5972 235.772 35.5972C231.945 35.5972 228.731 34.3176 226.101 31.7874C223.471 29.2572 222.127 26.0872 222.127 22.3937ZM241.295 27.9776C242.785 26.4362 243.516 24.604 243.516 22.3937C243.516 20.1543 242.785 18.3512 241.295 16.8679C239.805 15.3266 237.964 14.5995 235.772 14.5995C233.523 14.5995 231.711 15.3556 230.221 16.8679C228.789 18.3512 228.029 20.1834 228.029 22.3937C228.029 24.604 228.76 26.4362 230.221 27.9776C231.711 29.4608 233.552 30.1879 235.772 30.1879C237.993 30.2169 239.805 29.4608 241.295 27.9776Z" fill="#0D3E69"/>
<path d="M292.283 13.5525V9.94628H298.244V27.3378C298.244 29.4608 298.74 30.2461 300.085 30.2461C300.435 30.2461 300.874 30.1879 301.341 30.1588V34.9575C300.698 35.1901 299.705 35.3646 298.419 35.3646C296.987 35.3646 295.848 35.132 294.942 34.5794C293.861 33.8232 293.16 32.8344 292.897 31.5548C291.143 34.1722 288.28 35.4519 284.306 35.4519C280.77 35.4519 277.79 34.2304 275.365 31.7002C272.969 29.17 271.8 26.1163 271.8 22.3937C271.8 18.6711 272.998 15.6174 275.365 13.1454C277.79 10.6152 280.77 9.39371 284.306 9.39371C288.309 9.39371 291.319 11.1678 292.283 13.5525ZM290.471 27.8322C291.962 26.4071 292.721 24.5749 292.721 22.3937C292.721 20.2125 291.991 18.3803 290.471 16.9552C289.04 15.5302 287.199 14.774 285.066 14.774C282.933 14.774 281.18 15.5011 279.748 16.9552C278.345 18.3803 277.673 20.2125 277.673 22.3937C277.673 24.5749 278.374 26.4071 279.748 27.8322C281.18 29.2572 282.933 30.0134 285.066 30.0134C287.199 30.0134 289.04 29.2572 290.471 27.8322Z" fill="#0D3E69"/>
<path d="M325.593 15.3267H322.467V9.94635H325.593V0.407196H331.554V9.94635H337.076V15.3267H331.554V26.4363C331.554 29.141 332.489 30.1298 334.68 30.1298C335.411 30.1298 336.112 30.0716 336.755 29.9262V35.2193C335.907 35.4229 334.856 35.5101 333.687 35.5101C328.281 35.5101 325.593 32.6891 325.593 27.047V15.3267Z" fill="#0D3E69"/>
<path d="M339.911 9.94629H345.872V24.5168C345.872 27.9194 347.712 30.0425 350.927 30.0425C354.112 30.0425 356.391 27.6577 356.391 24.255V9.94629H362.351V27.3087C362.351 29.4317 362.848 30.1879 364.192 30.1879C364.543 30.1879 364.981 30.1297 365.449 30.1006V34.8993C364.806 35.132 363.812 35.3065 362.527 35.3065C360.978 35.3065 359.78 34.9575 358.845 34.3176C357.91 33.5615 357.297 32.7472 357.063 31.7002C355.631 34.1141 353.089 35.3646 349.466 35.3646C343.505 35.3646 339.94 31.5548 339.94 25.3892V9.94629H339.911Z" fill="#0D3E69"/>
<path d="M388.24 34.8412V9.94631H394.142V13.4944C395.34 11.0805 398.116 9.4519 401.652 9.4519C407.554 9.4519 411.002 13.2617 411.002 19.4273V27.2796C411.002 29.1991 411.353 29.8971 412.697 29.8971C412.989 29.8971 413.281 29.8389 413.544 29.8098V34.8121C412.843 35.0157 411.995 35.1029 410.973 35.1029C407.057 35.1029 405.1 32.9217 405.1 28.5884V20.2707C405.1 16.868 403.171 14.745 399.84 14.745C396.509 14.745 394.172 17.1298 394.172 20.5324V34.8703H388.24V34.8412Z" fill="#0D3E69"/>
<path d="M416.466 9.94629H422.426V24.5168C422.426 27.9194 424.267 30.0425 427.481 30.0425C430.666 30.0425 432.945 27.6577 432.945 24.255V9.94629H438.906V27.3087C438.906 29.4317 439.403 30.1879 440.747 30.1879C441.098 30.1879 441.536 30.1297 441.974 30.1006V34.8993C441.331 35.132 440.338 35.3065 439.052 35.3065C437.504 35.3065 436.306 34.9575 435.371 34.3176C434.436 33.5615 433.822 32.7472 433.588 31.7002C432.156 34.1141 429.614 35.3646 425.991 35.3646C420.03 35.3646 416.466 31.5548 416.466 25.3892V9.94629Z" fill="#0D3E69"/>
<path d="M443.961 22.3937C443.961 18.4384 445.189 15.2684 447.643 12.8546C450.127 10.4407 453.253 9.24829 457.081 9.24829C460.704 9.24829 463.685 10.4407 465.964 12.8546C468.301 15.2684 469.441 18.2349 469.441 21.812C469.441 22.5391 469.382 23.2371 469.353 23.8769H449.893C450.098 27.8322 453.02 30.3915 457.432 30.3915C460.003 30.3915 462.253 29.4608 464.181 27.5123L467.746 30.9731C464.912 33.9396 461.435 35.4228 457.227 35.4228C453.312 35.4228 450.068 34.2304 447.643 31.9038C445.218 29.5772 443.961 26.4653 443.961 22.5682V22.3937ZM463.392 19.7181C463.392 18.2349 462.75 16.9552 461.493 15.9082C460.266 14.8322 458.805 14.2796 457.081 14.2796C455.24 14.2796 453.604 14.8322 452.26 15.8501C450.916 16.868 450.185 18.1767 450.01 19.7181H463.392Z" fill="#0D3E69"/>
<path d="M481.392 34.8411L470.668 9.91718H476.834L483.934 26.8143L490.976 9.91718H497.141L486.418 34.8411H481.392Z" fill="#0D3E69"/>
<path d="M498.514 22.3937C498.514 18.6711 499.858 15.5301 502.488 12.9999C505.118 10.4697 508.361 9.19009 512.16 9.19009C515.987 9.19009 519.202 10.4697 521.831 12.9999C524.461 15.5301 525.805 18.7002 525.805 22.3937C525.805 26.0872 524.461 29.2572 521.831 31.7874C519.202 34.3176 515.958 35.5972 512.16 35.5972C508.332 35.5972 505.118 34.3176 502.488 31.7874C499.858 29.2572 498.514 26.0872 498.514 22.3937ZM517.682 27.9776C519.172 26.4362 519.903 24.604 519.903 22.3937C519.903 20.1543 519.172 18.3512 517.682 16.8679C516.192 15.3266 514.351 14.5995 512.16 14.5995C509.91 14.5995 508.098 15.3556 506.608 16.8679C505.176 18.3512 504.417 20.1834 504.417 22.3937C504.417 24.604 505.147 26.4362 506.608 27.9776C508.098 29.4608 509.939 30.1879 512.16 30.1879C514.351 30.2169 516.192 29.4608 517.682 27.9776Z" fill="#0D3E69"/>
<path d="M549.24 34.8412V0.407196H555.142V13.4072C556.282 11.0224 559.028 9.45194 562.447 9.45194C568.203 9.45194 571.593 13.2618 571.593 19.4273V27.2797C571.593 29.1991 571.943 29.8971 573.287 29.8971C573.58 29.8971 573.872 29.839 574.135 29.8099V34.8121C573.55 35.0157 572.703 35.1029 571.564 35.1029C567.648 35.1029 565.69 32.9217 565.69 28.5884V20.2707C565.69 16.868 563.85 14.745 560.665 14.745C557.45 14.745 555.142 17.1298 555.142 20.5325V34.8703H549.24V34.8412Z" fill="#0D3E69"/>
<path d="M576.238 22.3937C576.238 18.6711 577.582 15.5301 580.212 12.9999C582.842 10.4697 586.085 9.19009 589.884 9.19009C593.712 9.19009 596.926 10.4697 599.555 12.9999C602.185 15.5301 603.529 18.7002 603.529 22.3937C603.529 26.0872 602.185 29.2572 599.555 31.7874C596.926 34.3176 593.682 35.5972 589.884 35.5972C586.056 35.5972 582.842 34.3176 580.212 31.7874C577.582 29.2572 576.238 26.0872 576.238 22.3937ZM595.436 27.9776C596.926 26.4362 597.656 24.604 597.656 22.3937C597.656 20.1543 596.926 18.3512 595.436 16.8679C593.945 15.3266 592.104 14.5995 589.913 14.5995C587.663 14.5995 585.852 15.3556 584.361 16.8679C582.93 18.3512 582.17 20.1834 582.17 22.3937C582.17 24.604 582.9 26.4362 584.361 27.9776C585.852 29.4608 587.692 30.1879 589.913 30.1879C592.104 30.2169 593.945 29.4608 595.436 27.9776Z" fill="#0D3E69"/>
<path d="M626.671 9.94628H632.632V30.7114C632.632 36.7024 631.785 40.3378 628.424 42.9843C626.028 44.8165 623.106 45.7472 619.571 45.7472C614.896 45.7472 610.864 44.5548 607.445 42.1409L610.338 37.7494C613.084 39.5816 615.948 40.4541 618.928 40.4541C621.266 40.4541 623.106 39.9597 624.451 38.9709C626.028 37.8367 626.847 35.7136 626.847 32.6308V31.4094C625.649 33.5324 622.668 35.0738 618.694 35.0738C615.159 35.0738 612.178 33.8232 609.753 31.4094C607.357 28.9955 606.188 25.9127 606.188 22.3065C606.188 18.7002 607.386 15.6465 609.812 13.1745C612.237 10.6443 615.188 9.42279 618.694 9.42279C622.814 9.42279 625.853 11.1387 626.7 13.5816V9.94628H626.671ZM624.889 27.6868C626.379 26.2617 627.11 24.4295 627.11 22.3065C627.11 20.1834 626.379 18.4094 624.889 16.9552C623.457 15.5302 621.616 14.774 619.483 14.774C617.35 14.774 615.597 15.5011 614.165 16.9552C612.763 18.3803 612.091 20.1543 612.091 22.3065C612.091 24.4295 612.792 26.2617 614.165 27.6868C615.597 29.1118 617.35 29.8098 619.483 29.8098C621.616 29.8098 623.428 29.1118 624.889 27.6868Z" fill="#0D3E69"/>
<path d="M656.709 13.5525V9.94628H662.67V27.3378C662.67 29.4608 663.167 30.2461 664.511 30.2461C664.862 30.2461 665.3 30.1879 665.767 30.1588V34.9575C665.125 35.1901 664.131 35.3646 662.845 35.3646C661.414 35.3646 660.274 35.132 659.368 34.5794C658.287 33.8232 657.586 32.8344 657.323 31.5548C655.599 34.1722 652.706 35.4519 648.732 35.4519C645.197 35.4519 642.217 34.2304 639.791 31.7002C637.395 29.17 636.227 26.1163 636.227 22.3937C636.227 18.6711 637.425 15.6174 639.791 13.1454C642.217 10.6152 645.197 9.39371 648.732 9.39371C652.736 9.39371 655.774 11.1678 656.709 13.5525ZM654.927 27.8322C656.417 26.4071 657.148 24.5749 657.148 22.3937C657.148 20.2125 656.417 18.3803 654.927 16.9552C653.495 15.5302 651.654 14.774 649.521 14.774C647.388 14.774 645.635 15.5011 644.203 16.9552C642.801 18.3803 642.129 20.2125 642.129 22.3937C642.129 24.5749 642.83 26.4071 644.203 27.8322C645.635 29.2572 647.388 30.0134 649.521 30.0134C651.654 30.0134 653.495 29.2572 654.927 27.8322Z" fill="#0D3E69"/>
<path d="M668.835 34.8412V9.94631H674.737V13.6689C675.935 11.0515 678.653 9.4519 682.188 9.4519C682.89 9.4519 683.474 9.51007 683.971 9.59732V15.3266C683.24 15.1812 682.393 15.0649 681.487 15.0649C677.367 15.0649 674.737 17.6242 674.737 21.7248V34.8121H668.835V34.8412Z" fill="#0D3E69"/>
</svg>
