<svg width="506" height="53" viewBox="0 0 506 53" fill="none" xmlns="http://www.w3.org/2000/svg">
<path d="M85.5645 34.9755C82.8357 34.6417 83.3583 30.8104 85.4629 27.7918C88.0465 24.062 91.8349 23.3364 93.1703 23.8153C93.8379 24.062 94.3169 24.5845 94.5637 25.2085C95.2894 24.2507 95.8555 23.5396 96.1893 23.1913C96.6683 22.7124 97.2924 23.5686 97.1473 23.8588C97.1908 23.7573 94.375 27.3999 91.2108 31.9569C91.4575 32.1455 91.6462 32.4793 91.6897 32.9147C92.7493 32.5809 94.3169 31.5215 97.0602 29.1269C97.5827 28.648 97.5392 30.0848 97.307 30.317C97.1183 30.5056 93.9976 33.6694 91.6462 34.3369C91.0656 38.4585 87.2337 47.8482 83.6486 50.4314C82.2551 51.4328 79.715 48.8931 83.126 42.7688C84.7952 39.7937 86.7112 36.6444 88.6271 33.7129C87.6256 34.5401 86.566 35.1206 85.5645 34.9755ZM89.7738 34.1047C86.7983 38.5166 83.9824 43.3057 83.2131 46.2228C82.4003 49.2849 82.6906 51.2006 84.9404 47.4273C87.6691 42.8268 90.0205 37.1234 90.4995 34.395C90.2092 34.3515 89.9625 34.2499 89.7738 34.1047ZM92.3139 25.0053C90.4995 24.7151 87.045 27.2983 85.6516 30.317C84.5049 32.8567 85.3613 34.3369 87.6111 32.7115C88.8013 31.7972 90.1076 30.7959 91.1092 29.9832C92.1107 28.5464 93.0251 27.2113 93.7944 26.1518C93.7073 25.6729 93.3735 25.1505 92.3139 25.0053Z" fill="#EF7869"/>
<path d="M85.5645 34.9755C82.8357 34.6417 83.3583 30.8104 85.4629 27.7918C88.0465 24.062 91.8349 23.3364 93.1703 23.8153C93.8379 24.062 94.3169 24.5845 94.5637 25.2085C95.2894 24.2507 95.8555 23.5396 96.1893 23.1913C96.6683 22.7124 97.2924 23.5686 97.1473 23.8588C97.1908 23.7573 94.375 27.3999 91.2108 31.9569C91.4575 32.1455 91.6462 32.4793 91.6897 32.9147C92.7493 32.5809 94.3169 31.5215 97.0602 29.1269C97.5827 28.648 97.5392 30.0848 97.307 30.317C97.1183 30.5056 93.9976 33.6694 91.6462 34.3369C91.0656 38.4585 87.2337 47.8482 83.6486 50.4314C82.2551 51.4328 79.715 48.8931 83.126 42.7688C84.7952 39.7937 86.7112 36.6444 88.6271 33.7129C87.6256 34.5401 86.566 35.1206 85.5645 34.9755ZM89.7738 34.1047C86.7983 38.5166 83.9824 43.3057 83.2131 46.2228C82.4003 49.2849 82.6906 51.2006 84.9404 47.4273C87.6691 42.8268 90.0205 37.1234 90.4995 34.395C90.2092 34.3515 89.9625 34.2499 89.7738 34.1047ZM92.3139 25.0053C90.4995 24.7151 87.045 27.2983 85.6516 30.317C84.5049 32.8567 85.3613 34.3369 87.6111 32.7115C88.8013 31.7972 90.1076 30.7959 91.1092 29.9832C92.1107 28.5464 93.0251 27.2113 93.7944 26.1518C93.7073 25.6729 93.3735 25.1505 92.3139 25.0053Z" stroke="#EF7869" stroke-width="0.25" stroke-miterlimit="10"/>
<path d="M103.563 30.1282C99.9633 34.6271 96.5233 35.5414 96.8135 31.4198C97.1038 27.2547 101.415 23.6991 101.603 23.4669C101.85 23.2202 103.229 23.5685 102.663 24.3232C102.14 24.9907 99.5568 27.6756 98.7876 29.8815C97.9747 32.0439 98.3521 33.2774 100.558 31.6085C102.721 29.9831 105.595 26.3404 107.366 23.612C107.613 23.1767 109.18 23.4669 108.614 24.2361C108.033 25.0053 105.972 27.9223 105.116 29.8379C103.635 33.1468 105.784 33.2919 107.076 32.755C108.135 32.3777 109.616 31.1296 111.865 29.1123C112.446 28.6334 112.344 30.0701 112.112 30.3023C111.923 30.5491 108.033 34.4239 105.639 34.4239C103.374 34.4384 102.271 32.0439 103.563 30.1282Z" fill="#EF7869"/>
<path d="M103.563 30.1282C99.9633 34.6271 96.5233 35.5414 96.8135 31.4198C97.1038 27.2547 101.415 23.6991 101.603 23.4669C101.85 23.2202 103.229 23.5685 102.663 24.3232C102.14 24.9907 99.5568 27.6756 98.7876 29.8815C97.9747 32.0439 98.3521 33.2774 100.558 31.6085C102.721 29.9831 105.595 26.3404 107.366 23.612C107.613 23.1767 109.18 23.4669 108.614 24.2361C108.033 25.0053 105.972 27.9223 105.116 29.8379C103.635 33.1468 105.784 33.2919 107.076 32.755C108.135 32.3777 109.616 31.1296 111.865 29.1123C112.446 28.6334 112.344 30.0701 112.112 30.3023C111.923 30.5491 108.033 34.4239 105.639 34.4239C103.374 34.4384 102.271 32.0439 103.563 30.1282Z" stroke="#EF7869" stroke-width="0.25" stroke-miterlimit="10"/>
<path d="M123.115 29.1268C123.695 28.6479 123.594 30.0846 123.347 30.3168C123.158 30.5635 119.413 34.2497 116.394 34.6706C113.956 35.0044 112.374 34.1481 111.749 32.3776C110.98 30.4619 112.04 27.7771 114.29 25.7163C119.602 20.8836 123.202 22.9444 119.326 27.4433C118.47 28.4011 114.536 31.4633 113.143 32.0873C113.477 33.5676 115.16 34.1481 118.934 32.276C120.197 31.6665 121.62 30.4765 123.115 29.1268ZM117.512 27.3562C120.865 24.1054 119.239 23.2782 115.886 26.2533C114.638 27.3998 113.636 29.0252 113.244 30.4184C114.202 29.8959 116.22 28.6043 117.512 27.3562Z" fill="#EF7869"/>
<path d="M123.115 29.1268C123.695 28.6479 123.594 30.0846 123.347 30.3168C123.158 30.5635 119.413 34.2497 116.394 34.6706C113.956 35.0044 112.374 34.1481 111.749 32.3776C110.98 30.4619 112.04 27.7771 114.29 25.7163C119.602 20.8836 123.202 22.9444 119.326 27.4433C118.47 28.4011 114.536 31.4633 113.143 32.0874C113.477 33.5676 115.16 34.1481 118.934 32.276C120.197 31.6665 121.62 30.4765 123.115 29.1268ZM117.512 27.3562C120.865 24.1054 119.239 23.2782 115.886 26.2533C114.638 27.3998 113.636 29.0252 113.244 30.4184C114.202 29.8959 116.22 28.6043 117.512 27.3562Z" stroke="#EF7869" stroke-width="0.25" stroke-miterlimit="10"/>
<path d="M144.669 19.5921C141.36 23.2347 137.151 27.2547 134.988 29.2139C134.843 29.8815 134.741 30.5056 134.741 31.0861C134.741 32.5663 135.264 33.0017 136.134 33.0453C137.194 33.0888 138.762 32.5228 142.361 29.3591C142.942 28.8801 142.84 30.0847 142.608 30.3169C142.419 30.5636 138.442 34.5255 136.134 34.4385C131.054 34.2933 133.551 26.5436 135.989 22.7123C136.57 21.8415 137.281 20.8402 138.196 19.7372C135.554 19.9259 133.74 20.0275 133.74 20.0275C132.825 20.129 133.696 18.881 134.175 18.8229C134.364 18.7794 136.468 18.6778 139.212 18.4891C146.164 10.3476 151.665 11.0587 145.961 18.0537C149.749 17.8651 153.044 17.72 153.436 17.807C153.77 17.9086 153.77 19.0987 153.436 19.0987C151.622 19.0551 148.312 19.1422 144.901 19.3309L144.669 19.5921ZM143.131 19.447C142.071 19.4905 141.07 19.5485 140.112 19.6356C138.776 21.2175 136.715 24.1345 135.612 27.1096C139.066 23.8152 141.461 21.3191 143.131 19.447ZM144.277 18.2134C146.817 15.2383 146.861 14.4256 146.425 14.3821C145.801 14.3385 143.45 16.0655 141.2 18.3585L144.277 18.2134Z" fill="#EF7869"/>
<path d="M144.669 19.5921C141.36 23.2347 137.151 27.2547 134.988 29.2139C134.843 29.8815 134.741 30.5056 134.741 31.0861C134.741 32.5663 135.264 33.0017 136.134 33.0453C137.194 33.0888 138.762 32.5228 142.361 29.3591C142.942 28.8801 142.84 30.0847 142.608 30.3169C142.419 30.5636 138.442 34.5255 136.134 34.4385C131.054 34.2933 133.551 26.5436 135.989 22.7123C136.57 21.8415 137.281 20.8402 138.196 19.7372C135.554 19.9259 133.74 20.0275 133.74 20.0275C132.825 20.129 133.696 18.881 134.175 18.8229C134.364 18.7794 136.468 18.6778 139.212 18.4891C146.164 10.3476 151.665 11.0587 145.961 18.0537C149.749 17.8651 153.044 17.72 153.436 17.807C153.77 17.9086 153.77 19.0987 153.436 19.0987C151.622 19.0551 148.312 19.1422 144.901 19.3309L144.669 19.5921ZM143.131 19.447C142.071 19.4905 141.07 19.5485 140.112 19.6356C138.776 21.2175 136.715 24.1345 135.612 27.1096C139.066 23.8152 141.461 21.3191 143.131 19.447ZM144.277 18.2134C146.817 15.2383 146.861 14.4256 146.425 14.3821C145.801 14.3385 143.45 16.0655 141.2 18.3585L144.277 18.2134Z" stroke="#EF7869" stroke-width="0.25" stroke-miterlimit="10"/>
<path d="M153.479 34.685C151.041 35.0624 149.546 33.3934 150.272 30.9988C146.686 34.7286 145.38 35.0624 143.856 34.8302C142.085 34.5399 140.881 31.768 143.479 28.0818C146.062 24.4391 149.56 23.3362 150.852 23.3362C151.999 23.3362 153.015 24.1053 153.247 25.2954C153.683 24.7729 154.016 24.3811 154.162 24.3376C154.539 24.1489 155.555 25.0051 155.555 25.2518C155.555 25.397 154.307 26.6451 153.204 27.8351C150.141 32.5372 151.578 34.2497 155.976 32.0437C157.268 31.4197 158.661 30.4619 160.185 29.1267C160.766 28.6478 160.664 30.0845 160.432 30.3167C160.185 30.5635 156.498 34.2061 153.479 34.685ZM151.796 27.2546H151.752C151.752 27.2546 152.609 24.86 150.649 24.86C146.338 24.86 141.781 32.4791 144.277 33.1032C146.628 33.7272 150.983 28.2124 151.317 27.9367L151.796 27.2546Z" fill="#EF7869"/>
<path d="M153.479 34.685C151.041 35.0624 149.546 33.3934 150.272 30.9988C146.686 34.7286 145.38 35.0624 143.856 34.8302C142.085 34.5399 140.881 31.768 143.479 28.0818C146.062 24.4391 149.56 23.3362 150.852 23.3362C151.999 23.3362 153.015 24.1053 153.247 25.2954C153.683 24.7729 154.016 24.3811 154.162 24.3376C154.539 24.1489 155.555 25.0051 155.555 25.2518C155.555 25.397 154.307 26.6451 153.204 27.8351C150.141 32.5372 151.578 34.2497 155.976 32.0437C157.268 31.4197 158.661 30.4619 160.185 29.1267C160.766 28.6478 160.664 30.0845 160.432 30.3167C160.185 30.5635 156.498 34.2061 153.479 34.685ZM151.796 27.2546H151.752C151.752 27.2546 152.609 24.86 150.649 24.86C146.338 24.86 141.781 32.4791 144.277 33.1032C146.628 33.7272 150.983 28.2124 151.317 27.9367L151.796 27.2546Z" stroke="#EF7869" stroke-width="0.25" stroke-miterlimit="10"/>
<path d="M169.91 23.3363C171.245 24.149 170.2 26.6887 168.183 29.2284C166.412 31.4343 166.412 32.9581 167.704 33.0597C168.763 33.1032 170.345 32.2905 173.931 29.1268C174.511 28.6479 174.41 30.0846 174.177 30.3168C173.989 30.549 170.012 34.54 167.704 34.4384C166.601 34.3949 165.352 34.0611 165.352 32.2325C165.309 30.1282 167.457 27.7771 168.226 26.4855C169.562 24.3812 168.038 24.0474 165.585 26.1952C164.394 27.2547 162.609 28.9236 161.274 30.5055C160.316 32.2325 159.503 33.5676 159.358 33.7128C158.734 34.2933 158.153 33.0887 158.588 32.1309C159.692 30.4039 161.462 27.5304 164.046 22.5526C164.235 22.2188 165.439 22.5961 165.439 22.9299C165.439 23.0315 164.569 24.6134 163.523 26.529C164.975 24.8601 168.429 22.422 169.91 23.3363Z" fill="#EF7869"/>
<path d="M169.91 23.3363C171.245 24.149 170.2 26.6887 168.183 29.2284C166.412 31.4343 166.412 32.9581 167.704 33.0597C168.763 33.1032 170.345 32.2905 173.931 29.1268C174.511 28.6479 174.41 30.0846 174.177 30.3168C173.989 30.549 170.012 34.54 167.704 34.4384C166.601 34.3949 165.352 34.0611 165.352 32.2325C165.309 30.1282 167.457 27.7771 168.226 26.4855C169.562 24.3812 168.038 24.0474 165.585 26.1952C164.394 27.2547 162.609 28.9236 161.274 30.5055C160.316 32.2325 159.503 33.5676 159.358 33.7128C158.734 34.2933 158.153 33.0887 158.588 32.1309C159.692 30.4039 161.462 27.5304 164.046 22.5526C164.235 22.2188 165.439 22.5961 165.439 22.9299C165.439 23.0315 164.569 24.6134 163.523 26.529C164.975 24.8601 168.429 22.422 169.91 23.3363Z" stroke="#EF7869" stroke-width="0.25" stroke-miterlimit="10"/>
<path d="M185.47 19.5921C182.16 23.2347 177.951 27.2547 175.788 29.2139C175.643 29.8815 175.542 30.5056 175.542 31.0861C175.542 32.5663 176.064 33.0017 176.935 33.0453C177.995 33.0888 179.577 32.5228 183.162 29.3591C183.743 28.8801 183.641 30.0847 183.394 30.3169C183.206 30.5636 179.228 34.5255 176.921 34.4385C171.84 34.2933 174.337 26.5436 176.775 22.7123C177.356 21.8415 178.067 20.8402 178.982 19.7372C176.34 19.9259 174.526 20.0275 174.526 20.0275C173.611 20.129 174.482 18.881 174.961 18.8229C175.15 18.7794 177.254 18.6778 179.983 18.4891C186.936 10.3476 192.437 11.0587 186.733 18.0537C190.521 17.8651 193.816 17.72 194.208 17.807C194.542 17.9086 194.542 19.0987 194.208 19.0987C192.393 19.0551 189.084 19.1422 185.673 19.3309L185.47 19.5921ZM183.946 19.447C182.886 19.4905 181.885 19.5485 180.927 19.6356C179.591 21.2175 177.53 24.1345 176.427 27.1096C179.867 23.8152 182.262 21.3191 183.946 19.447ZM185.092 18.2134C187.633 15.2383 187.676 14.4256 187.241 14.3821C186.617 14.3385 184.265 16.0655 182.015 18.3585L185.092 18.2134Z" fill="#EF7869"/>
<path d="M185.47 19.5921C182.16 23.2347 177.951 27.2547 175.788 29.2139C175.643 29.8815 175.542 30.5056 175.542 31.0861C175.542 32.5663 176.064 33.0017 176.935 33.0453C177.995 33.0888 179.577 32.5228 183.162 29.3591C183.743 28.8801 183.641 30.0847 183.394 30.3169C183.206 30.5636 179.228 34.5255 176.921 34.4385C171.84 34.2933 174.337 26.5436 176.775 22.7123C177.356 21.8415 178.067 20.8402 178.982 19.7372C176.34 19.9259 174.526 20.0275 174.526 20.0275C173.611 20.129 174.482 18.881 174.961 18.8229C175.15 18.7794 177.254 18.6778 179.983 18.4891C186.936 10.3476 192.437 11.0587 186.733 18.0537C190.521 17.8651 193.816 17.72 194.208 17.807C194.542 17.9086 194.542 19.0987 194.208 19.0987C192.393 19.0551 189.084 19.1422 185.673 19.3309L185.47 19.5921ZM183.946 19.447C182.886 19.4905 181.885 19.5485 180.927 19.6356C179.591 21.2175 177.53 24.1345 176.427 27.1096C179.867 23.8152 182.262 21.3191 183.946 19.447ZM185.092 18.2134C187.633 15.2383 187.676 14.4256 187.241 14.3821C186.617 14.3385 184.265 16.0655 182.015 18.3585L185.092 18.2134Z" stroke="#EF7869" stroke-width="0.25" stroke-miterlimit="10"/>
<path d="M189.883 23.0026C194.382 21.7109 196.211 26.1083 189.984 32.4793C184.817 37.7909 180.55 33.3355 184.338 27.8353C185.252 26.5436 186.443 25.4842 187.212 24.9182C187.212 24.8747 187.212 24.7731 187.255 24.7296C187.386 24.1926 188.823 23.2783 189.883 23.0026ZM188.533 25.3971C182.828 30.1863 184.265 33.4952 185.993 33.3936C186.994 33.292 188.242 32.6244 189.926 30.6217C194.818 24.686 192.031 22.5236 188.533 25.0198C188.634 25.1504 188.634 25.2955 188.533 25.3971Z" fill="#EF7869"/>
<path d="M189.883 23.0026C194.382 21.7109 196.211 26.1083 189.984 32.4793C184.817 37.7909 180.55 33.3355 184.338 27.8353C185.252 26.5436 186.443 25.4842 187.212 24.9182C187.212 24.8747 187.212 24.7731 187.255 24.7296C187.386 24.1926 188.823 23.2783 189.883 23.0026ZM188.533 25.3971C182.828 30.1863 184.265 33.4952 185.993 33.3936C186.994 33.292 188.242 32.6244 189.926 30.6217C194.818 24.686 192.031 22.5236 188.533 25.0198C188.634 25.1504 188.634 25.2955 188.533 25.3971Z" stroke="#EF7869" stroke-width="0.25" stroke-miterlimit="10"/>
<path d="M215.893 29.1268C216.473 28.6479 216.372 30.0846 216.125 30.3168C215.936 30.5635 212.192 34.2497 209.173 34.6706C206.734 35.0044 205.152 34.1481 204.528 32.3776C203.759 30.4619 204.818 27.7771 207.068 25.7163C212.38 20.8836 215.98 22.9444 212.105 27.4433C211.248 28.4011 207.315 31.4633 205.921 32.0873C206.255 33.5676 207.939 34.1481 211.713 32.276C212.961 31.6665 214.398 30.4765 215.893 29.1268ZM210.29 27.3562C213.643 24.1054 212.017 23.2782 208.664 26.2533C207.416 27.3998 206.415 29.0252 206.023 30.4184C206.981 29.8959 208.984 28.6043 210.29 27.3562Z" fill="#EF7869"/>
<path d="M215.893 29.1268C216.473 28.6479 216.372 30.0846 216.125 30.3168C215.936 30.5635 212.192 34.2497 209.173 34.6706C206.734 35.0044 205.152 34.1481 204.528 32.3776C203.759 30.4619 204.818 27.7771 207.068 25.7163C212.38 20.8836 215.98 22.9444 212.105 27.4433C211.248 28.4011 207.315 31.4633 205.921 32.0874C206.255 33.5676 207.939 34.1481 211.713 32.276C212.961 31.6665 214.398 30.4765 215.893 29.1268ZM210.29 27.3562C213.643 24.1054 212.017 23.2782 208.664 26.2533C207.416 27.3998 206.415 29.0252 206.023 30.4184C206.981 29.8959 208.984 28.6043 210.29 27.3562Z" stroke="#EF7869" stroke-width="0.25" stroke-miterlimit="10"/>
<path d="M220.48 25.1504C220.19 24.4829 220.102 23.8153 220.233 23.0896C220.567 21.3191 222.584 19.8388 223.688 20.0275C224.791 20.2161 224.834 21.1304 224.065 22.5672C223.63 23.3364 222.817 24.3377 221.859 25.3971C222.628 26.4566 223.775 27.5595 223.818 29.3736C223.862 30.5636 223.673 31.7246 223.194 32.6825C224.254 32.16 225.691 31.1006 227.882 29.1414C228.463 28.6625 228.361 30.0992 228.115 30.3314C227.926 30.5636 224.471 34.0612 221.844 34.453C221.22 34.9319 220.509 35.2657 219.638 35.4108C217.011 35.7446 215.327 33.1614 215.429 30.5201C215.472 28.0239 216.822 27.7337 217.258 28.2706C218.186 27.4579 219.391 26.2969 220.48 25.1504ZM217.127 30.0847C216.212 31.4344 217.272 34.0176 219.086 34.1628C219.377 34.2063 219.609 34.1628 219.856 34.1192C217.664 33.1033 217.229 29.9396 217.127 30.0847ZM222.396 30.2734C222.396 28.6915 221.626 27.4434 221.002 26.2534C219.899 27.3563 218.695 28.4593 217.795 29.272C218.506 30.6072 219.957 32.7695 221.525 33.0017C222.062 32.3342 222.396 31.3328 222.396 30.2734ZM223.02 21.7545C222.918 21.232 221.728 21.3772 221.249 23.2348C221.104 23.6121 221.148 24.0039 221.293 24.3377C222.352 23.1912 223.122 22.1318 223.02 21.7545Z" fill="#EF7869"/>
<path d="M220.48 25.1504C220.19 24.4829 220.102 23.8153 220.233 23.0896C220.567 21.3191 222.584 19.8388 223.688 20.0275C224.791 20.2161 224.834 21.1304 224.065 22.5672C223.63 23.3364 222.817 24.3377 221.859 25.3971C222.628 26.4566 223.775 27.5595 223.818 29.3736C223.862 30.5636 223.673 31.7246 223.194 32.6825C224.254 32.16 225.691 31.1006 227.882 29.1414C228.463 28.6625 228.361 30.0992 228.115 30.3314C227.926 30.5636 224.471 34.0612 221.844 34.453C221.22 34.9319 220.509 35.2657 219.638 35.4108C217.011 35.7446 215.327 33.1614 215.429 30.5201C215.472 28.0239 216.822 27.7337 217.258 28.2706C218.186 27.4579 219.391 26.2969 220.48 25.1504ZM217.127 30.0847C216.212 31.4344 217.272 34.0176 219.086 34.1628C219.377 34.2063 219.609 34.1628 219.856 34.1192C217.664 33.1033 217.229 29.9396 217.127 30.0847ZM222.396 30.2734C222.396 28.6915 221.626 27.4434 221.002 26.2534C219.899 27.3563 218.695 28.4593 217.795 29.272C218.506 30.6072 219.957 32.7695 221.525 33.0017C222.062 32.3342 222.396 31.3328 222.396 30.2734ZM223.02 21.7545C222.918 21.232 221.728 21.3772 221.249 23.2348C221.104 23.6121 221.148 24.0039 221.293 24.3377C222.352 23.1912 223.122 22.1318 223.02 21.7545Z" stroke="#EF7869" stroke-width="0.25" stroke-miterlimit="10"/>
<path d="M239.45 19.5921C236.141 23.2347 231.932 27.2547 229.769 29.2139C229.624 29.8815 229.522 30.5056 229.522 31.0861C229.522 32.5663 230.045 33.0017 230.916 33.0453C231.975 33.0888 233.557 32.5228 237.142 29.3591C237.723 28.8801 237.621 30.0847 237.375 30.3169C237.186 30.5636 233.209 34.5255 230.901 34.4385C225.821 34.2933 228.317 26.5436 230.756 22.7123C231.337 21.8415 232.048 20.8402 232.962 19.7372C230.321 19.9259 228.506 20.0275 228.506 20.0275C227.592 20.129 228.463 18.881 228.942 18.8229C229.13 18.7794 231.235 18.6778 233.964 18.4891C240.916 10.3476 246.417 11.0587 240.713 18.0537C244.501 17.8651 247.796 17.72 248.188 17.807C248.522 17.9086 248.522 19.0987 248.188 19.0987C246.374 19.0551 243.064 19.1422 239.654 19.3309L239.45 19.5921ZM237.926 19.447C236.867 19.4905 235.865 19.5485 234.907 19.6356C233.572 21.2175 231.511 24.1345 230.408 27.1096C233.848 23.8152 236.243 21.3191 237.926 19.447ZM239.073 18.2134C241.613 15.2383 241.657 14.4256 241.221 14.3821C240.597 14.3385 238.246 16.0655 235.996 18.3585L239.073 18.2134Z" fill="#EF7869"/>
<path d="M239.45 19.5921C236.141 23.2347 231.932 27.2547 229.769 29.2139C229.624 29.8815 229.522 30.5056 229.522 31.0861C229.522 32.5663 230.045 33.0017 230.916 33.0453C231.975 33.0888 233.557 32.5228 237.142 29.3591C237.723 28.8801 237.621 30.0847 237.375 30.3169C237.186 30.5636 233.209 34.5255 230.901 34.4385C225.821 34.2933 228.317 26.5436 230.756 22.7123C231.337 21.8415 232.048 20.8402 232.962 19.7372C230.321 19.9259 228.506 20.0275 228.506 20.0275C227.592 20.129 228.463 18.881 228.942 18.8229C229.13 18.7794 231.235 18.6778 233.964 18.4891C240.916 10.3476 246.417 11.0587 240.713 18.0537C244.501 17.8651 247.796 17.72 248.188 17.807C248.522 17.9086 248.522 19.0987 248.188 19.0987C246.374 19.0551 243.064 19.1422 239.654 19.3309L239.45 19.5921ZM237.926 19.447C236.867 19.4905 235.865 19.5485 234.907 19.6356C233.572 21.2175 231.511 24.1345 230.408 27.1096C233.848 23.8152 236.243 21.3191 237.926 19.447ZM239.073 18.2134C241.613 15.2383 241.657 14.4256 241.221 14.3821C240.597 14.3385 238.246 16.0655 235.996 18.3585L239.073 18.2134Z" stroke="#EF7869" stroke-width="0.25" stroke-miterlimit="10"/>
<path d="M248.261 34.685C245.823 35.0624 244.328 33.3934 245.053 30.9988C241.468 34.7286 240.162 35.0624 238.638 34.8302C236.867 34.5399 235.662 31.768 238.26 28.0818C240.844 24.4391 244.342 23.3362 245.634 23.3362C246.781 23.3362 247.797 24.1053 248.029 25.2954C248.464 24.7729 248.798 24.3811 248.943 24.3376C249.321 24.1489 250.337 25.0051 250.337 25.2518C250.337 25.397 249.088 26.6451 247.985 27.8351C244.923 32.5372 246.36 34.2497 250.758 32.0437C252.049 31.4197 253.443 30.4619 254.967 29.1267C255.548 28.6478 255.446 30.0845 255.214 30.3167C254.981 30.5635 251.28 34.2061 248.261 34.685ZM246.592 27.2546H246.548C246.548 27.2546 247.405 24.86 245.445 24.86C241.134 24.86 236.577 32.4791 239.073 33.1032C241.425 33.7272 245.779 28.2124 246.113 27.9367L246.592 27.2546Z" fill="#EF7869"/>
<path d="M248.261 34.685C245.823 35.0624 244.328 33.3934 245.053 30.9988C241.468 34.7286 240.162 35.0624 238.638 34.8302C236.867 34.5399 235.662 31.768 238.26 28.0818C240.844 24.4391 244.342 23.3362 245.634 23.3362C246.781 23.3362 247.797 24.1053 248.029 25.2954C248.464 24.7729 248.798 24.3811 248.943 24.3376C249.321 24.1489 250.337 25.0051 250.337 25.2518C250.337 25.397 249.088 26.6451 247.985 27.8351C244.923 32.5372 246.36 34.2497 250.758 32.0437C252.049 31.4197 253.443 30.4619 254.967 29.1267C255.548 28.6478 255.446 30.0845 255.214 30.3167C254.981 30.5635 251.28 34.2061 248.261 34.685ZM246.592 27.2546H246.548C246.548 27.2546 247.405 24.86 245.445 24.86C241.134 24.86 236.577 32.4791 239.073 33.1032C241.425 33.7272 245.779 28.2124 246.113 27.9367L246.592 27.2546Z" stroke="#EF7869" stroke-width="0.25" stroke-miterlimit="10"/>
<path d="M257.696 33.0598C258.9 33.0598 260.758 32.1019 262.921 29.8525C262.253 29.0398 261.774 26.4565 263.255 24.7295C265.606 21.8996 268.001 23.583 266.463 26.7903C264.59 30.7668 260.671 34.3079 257.841 34.5546C256.593 34.6562 254.386 32.8276 254.865 30.0557C256.259 21.8125 265.026 12.5244 270.106 10.3185C272.312 9.3607 274.272 9.31717 271.978 13.0904C270.585 15.485 264.837 22.3785 256.36 29.7074C255.838 31.7101 256.172 33.0017 257.696 33.0598ZM269.815 14.2369C272.457 10.841 271.731 10.0283 268.19 12.9889C263.502 16.9218 258.9 23.2928 256.984 27.7917C263.255 21.7109 268.916 15.3834 269.815 14.2369ZM264.068 25.876C263.342 27.2692 263.734 28.1255 264.256 28.3142C266.753 25.1939 265.127 23.7137 264.068 25.876Z" fill="#EF7869"/>
<path d="M257.696 33.0598C258.9 33.0598 260.758 32.1019 262.921 29.8525C262.253 29.0398 261.774 26.4565 263.255 24.7295C265.606 21.8996 268.001 23.583 266.463 26.7903C264.59 30.7668 260.671 34.3079 257.841 34.5546C256.593 34.6562 254.386 32.8276 254.865 30.0557C256.259 21.8125 265.026 12.5244 270.106 10.3185C272.312 9.3607 274.272 9.31717 271.978 13.0904C270.585 15.485 264.837 22.3785 256.36 29.7074C255.838 31.7101 256.172 33.0017 257.696 33.0598ZM269.815 14.2369C272.457 10.841 271.731 10.0283 268.19 12.9889C263.502 16.9218 258.9 23.2928 256.984 27.7917C263.255 21.7109 268.916 15.3834 269.815 14.2369ZM264.068 25.876C263.342 27.2692 263.734 28.1255 264.256 28.3142C266.753 25.1939 265.127 23.7137 264.068 25.876Z" stroke="#EF7869" stroke-width="0.25" stroke-miterlimit="10"/>
<path d="M278.437 34.685C275.999 35.0624 274.504 33.3934 275.23 30.9988C271.644 34.7286 270.338 35.0624 268.814 34.8302C267.043 34.5399 265.839 31.768 268.437 28.0818C271.02 24.4391 274.518 23.3362 275.81 23.3362C276.957 23.3362 277.973 24.1053 278.205 25.2954C278.641 24.7729 278.974 24.3811 279.12 24.3376C279.497 24.1489 280.513 25.0051 280.513 25.2518C280.513 25.397 279.265 26.6451 278.162 27.8351C275.099 32.5372 276.536 34.2497 280.934 32.0437C282.226 31.4197 283.619 30.4619 285.143 29.1267C285.724 28.6478 285.622 30.0845 285.39 30.3167C285.158 30.5635 281.456 34.2061 278.437 34.685ZM276.768 27.2546H276.725C276.725 27.2546 277.581 24.86 275.622 24.86C271.311 24.86 266.753 32.4791 269.25 33.1032C271.601 33.7272 275.955 28.2124 276.289 27.9367L276.768 27.2546Z" fill="#EF7869"/>
<path d="M278.437 34.685C275.999 35.0624 274.504 33.3934 275.23 30.9988C271.644 34.7286 270.338 35.0624 268.814 34.8302C267.043 34.5399 265.839 31.768 268.437 28.0818C271.02 24.4391 274.518 23.3362 275.81 23.3362C276.957 23.3362 277.973 24.1053 278.205 25.2954C278.641 24.7729 278.974 24.3811 279.12 24.3376C279.497 24.1489 280.513 25.0051 280.513 25.2518C280.513 25.397 279.265 26.6451 278.162 27.8351C275.099 32.5372 276.536 34.2497 280.934 32.0437C282.226 31.4197 283.619 30.4619 285.143 29.1267C285.724 28.6478 285.622 30.0845 285.39 30.3167C285.158 30.5635 281.456 34.2061 278.437 34.685ZM276.768 27.2546H276.725C276.725 27.2546 277.581 24.86 275.622 24.86C271.311 24.86 266.753 32.4791 269.25 33.1032C271.601 33.7272 275.955 28.2124 276.289 27.9367L276.768 27.2546Z" stroke="#EF7869" stroke-width="0.25" stroke-miterlimit="10"/>
<path d="M289.744 25.1504C289.454 24.4829 289.367 23.8153 289.498 23.0896C289.832 21.3191 291.849 19.8388 292.952 20.0275C294.055 20.2161 294.099 21.1304 293.33 22.5672C292.894 23.3364 292.081 24.3377 291.123 25.3971C291.893 26.4566 293.039 27.5595 293.083 29.3736C293.126 30.5636 292.938 31.7246 292.459 32.6825C293.518 32.16 294.955 31.1006 297.147 29.1414C297.728 28.6625 297.626 30.0992 297.379 30.3314C297.191 30.5636 293.736 34.0612 291.109 34.453C290.485 34.9319 289.773 35.2657 288.903 35.4108C286.275 35.7446 284.592 33.1614 284.693 30.5201C284.737 28.0239 286.087 27.7337 286.522 28.2706C287.451 27.4579 288.641 26.2969 289.744 25.1504ZM286.392 30.0847C285.477 31.4344 286.537 34.0176 288.351 34.1628C288.641 34.2063 288.874 34.1628 289.12 34.1192C286.914 33.1033 286.493 29.9396 286.392 30.0847ZM291.66 30.2734C291.66 28.6915 290.891 27.4434 290.267 26.2534C289.164 27.3563 287.959 28.4593 287.059 29.272C287.77 30.6072 289.222 32.7695 290.79 33.0017C291.327 32.3342 291.66 31.3328 291.66 30.2734ZM292.285 21.7545C292.183 21.232 290.993 21.3772 290.514 23.2348C290.369 23.6121 290.412 24.0039 290.557 24.3377C291.617 23.1912 292.386 22.1318 292.285 21.7545Z" fill="#EF7869"/>
<path d="M289.744 25.1504C289.454 24.4829 289.367 23.8153 289.498 23.0896C289.832 21.3191 291.849 19.8388 292.952 20.0275C294.055 20.2161 294.099 21.1304 293.33 22.5672C292.894 23.3364 292.081 24.3377 291.123 25.3971C291.893 26.4566 293.039 27.5595 293.083 29.3736C293.126 30.5636 292.938 31.7246 292.459 32.6825C293.518 32.16 294.955 31.1006 297.147 29.1414C297.728 28.6625 297.626 30.0992 297.379 30.3314C297.191 30.5636 293.736 34.0612 291.109 34.453C290.485 34.9319 289.773 35.2657 288.903 35.4108C286.275 35.7446 284.592 33.1614 284.693 30.5201C284.737 28.0239 286.087 27.7337 286.522 28.2706C287.451 27.4579 288.641 26.2969 289.744 25.1504ZM286.392 30.0847C285.477 31.4344 286.537 34.0176 288.351 34.1628C288.641 34.2063 288.874 34.1628 289.12 34.1192C286.914 33.1033 286.493 29.9396 286.392 30.0847ZM291.66 30.2734C291.66 28.6915 290.891 27.4434 290.267 26.2534C289.164 27.3563 287.959 28.4593 287.059 29.272C287.77 30.6072 289.222 32.7695 290.79 33.0017C291.327 32.3342 291.66 31.3328 291.66 30.2734ZM292.285 21.7545C292.183 21.232 290.993 21.3772 290.514 23.2348C290.369 23.6121 290.412 24.0039 290.557 24.3377C291.617 23.1912 292.386 22.1318 292.285 21.7545Z" stroke="#EF7869" stroke-width="0.25" stroke-miterlimit="10"/>
<path d="M318.44 29.1268C319.021 28.6479 318.919 30.0846 318.672 30.3168C318.484 30.5635 314.739 34.2497 311.72 34.6706C309.281 35.0044 307.699 34.1481 307.075 32.3776C306.306 30.4619 307.365 27.7771 309.615 25.7163C314.928 20.8836 318.527 22.9444 314.652 27.4433C313.795 28.4011 309.862 31.4633 308.469 32.0873C308.802 33.5676 310.486 34.1481 314.26 32.276C315.523 31.6665 316.96 30.4765 318.44 29.1268ZM312.838 27.3562C316.19 24.1054 314.565 23.2782 311.212 26.2533C309.964 27.3998 308.962 29.0252 308.57 30.4184C309.528 29.8959 311.546 28.6043 312.838 27.3562Z" fill="#EF7869"/>
<path d="M318.44 29.1268C319.021 28.6479 318.919 30.0846 318.672 30.3168C318.484 30.5635 314.739 34.2497 311.72 34.6706C309.281 35.0044 307.699 34.1481 307.075 32.3776C306.306 30.4619 307.365 27.7771 309.615 25.7163C314.928 20.8836 318.527 22.9444 314.652 27.4433C313.795 28.4011 309.862 31.4633 308.469 32.0874C308.802 33.5676 310.486 34.1481 314.26 32.276C315.523 31.6665 316.96 30.4765 318.44 29.1268ZM312.838 27.3562C316.19 24.1054 314.565 23.2782 311.212 26.2533C309.964 27.3998 308.962 29.0252 308.57 30.4184C309.528 29.8959 311.546 28.6043 312.838 27.3562Z" stroke="#EF7869" stroke-width="0.25" stroke-miterlimit="10"/>
<path d="M323.041 25.1504C322.751 24.4829 322.664 23.8153 322.795 23.0896C323.128 21.3191 325.146 19.8388 326.249 20.0275C327.352 20.2161 327.396 21.1304 326.626 22.5672C326.191 23.3364 325.378 24.3377 324.42 25.3971C325.19 26.4566 326.336 27.5595 326.38 29.3736C326.423 30.5636 326.235 31.7246 325.756 32.6825C326.815 32.16 328.252 31.1006 330.444 29.1414C331.024 28.6625 330.923 30.0992 330.676 30.3314C330.487 30.5636 327.033 34.0612 324.406 34.453C323.782 34.9319 323.07 35.2657 322.199 35.4108C319.572 35.7446 317.889 33.1614 317.99 30.5201C318.034 28.0239 319.384 27.7337 319.819 28.2706C320.733 27.4579 321.938 26.2969 323.041 25.1504ZM319.688 30.0847C318.774 31.4344 319.834 34.0176 321.648 34.1628C321.938 34.2063 322.17 34.1628 322.417 34.1192C320.211 33.1033 319.776 29.9396 319.688 30.0847ZM324.957 30.2734C324.957 28.6915 324.188 27.4434 323.564 26.2534C322.461 27.3563 321.256 28.4593 320.356 29.272C321.067 30.6072 322.519 32.7695 324.086 33.0017C324.623 32.3342 324.957 31.3328 324.957 30.2734ZM325.581 21.7545C325.48 21.232 324.29 21.3772 323.811 23.2348C323.665 23.6121 323.709 24.0039 323.854 24.3377C324.899 23.1912 325.669 22.1318 325.581 21.7545Z" fill="#EF7869"/>
<path d="M323.041 25.1504C322.751 24.4829 322.664 23.8153 322.795 23.0896C323.128 21.3191 325.146 19.8388 326.249 20.0275C327.352 20.2161 327.396 21.1304 326.626 22.5672C326.191 23.3364 325.378 24.3377 324.42 25.3971C325.19 26.4566 326.336 27.5595 326.38 29.3736C326.423 30.5636 326.235 31.7246 325.756 32.6825C326.815 32.16 328.252 31.1006 330.444 29.1414C331.024 28.6625 330.923 30.0992 330.676 30.3314C330.487 30.5636 327.033 34.0612 324.406 34.453C323.782 34.9319 323.07 35.2657 322.199 35.4108C319.572 35.7446 317.889 33.1614 317.99 30.5201C318.034 28.0239 319.384 27.7337 319.819 28.2706C320.733 27.4579 321.938 26.2969 323.041 25.1504ZM319.688 30.0847C318.774 31.4344 319.834 34.0176 321.648 34.1628C321.938 34.2063 322.17 34.1628 322.417 34.1192C320.211 33.1033 319.776 29.9396 319.688 30.0847ZM324.957 30.2734C324.957 28.6915 324.188 27.4434 323.564 26.2534C322.461 27.3563 321.256 28.4593 320.356 29.272C321.067 30.6072 322.519 32.7695 324.086 33.0017C324.623 32.3342 324.957 31.3328 324.957 30.2734ZM325.581 21.7545C325.48 21.232 324.29 21.3772 323.811 23.2348C323.665 23.6121 323.709 24.0039 323.854 24.3377C324.899 23.1912 325.669 22.1318 325.581 21.7545Z" stroke="#EF7869" stroke-width="0.25" stroke-miterlimit="10"/>
<path d="M333.854 21.5078C334.043 21.174 335.669 21.0288 335.437 21.7545C334.958 23.1912 334.479 24.5844 334 25.9196C335.393 24.628 336.728 23.9023 337.832 23.9023C340.328 23.9459 340.996 27.6321 337.875 31.7101C334.624 35.9768 332.418 35.2947 331.314 34.2934C328.774 43.8717 325.189 53.45 322.504 52.7824C316.654 51.3457 328.44 31.0425 331.793 28.169C332.751 24.1491 333.666 21.798 333.854 21.5078ZM322.649 48.6753C321.546 57.3394 326.583 44.6989 327.062 43.3637C328.266 39.9097 329.602 35.8897 330.458 33.0162C330.458 32.8276 330.56 32.5809 330.647 32.3487C328.397 35.614 326.292 39.2421 325.088 41.6367C323.796 44.3651 322.838 46.8468 322.649 48.6753ZM331.793 32.4793C332.505 34.8303 335.291 33.2049 336.961 30.6652C339.022 27.4579 338.877 25.5423 337.483 25.5858C336.293 25.5858 334.566 27.2547 332.693 29.6058C332.272 30.8103 331.939 31.8117 331.793 32.4793Z" fill="#EF7869"/>
<path d="M333.854 21.5078C334.043 21.174 335.669 21.0288 335.437 21.7545C334.958 23.1912 334.479 24.5844 334 25.9196C335.393 24.628 336.728 23.9023 337.832 23.9023C340.328 23.9459 340.996 27.6321 337.875 31.7101C334.624 35.9768 332.418 35.2947 331.314 34.2934C328.774 43.8717 325.189 53.45 322.504 52.7824C316.654 51.3457 328.44 31.0425 331.793 28.169C332.751 24.1491 333.666 21.798 333.854 21.5078ZM322.649 48.6753C321.546 57.3394 326.583 44.6989 327.062 43.3637C328.266 39.9097 329.602 35.8897 330.458 33.0162C330.458 32.8276 330.56 32.5809 330.647 32.3487C328.397 35.614 326.292 39.2421 325.088 41.6367C323.796 44.3651 322.838 46.8468 322.649 48.6753ZM331.793 32.4793C332.505 34.8303 335.291 33.2049 336.961 30.6652C339.022 27.4579 338.877 25.5423 337.483 25.5858C336.293 25.5858 334.566 27.2547 332.693 29.6058C332.272 30.8103 331.939 31.8117 331.793 32.4793Z" stroke="#EF7869" stroke-width="0.25" stroke-miterlimit="10"/>
<path d="M352.68 29.1268C353.261 28.6479 353.159 30.0846 352.913 30.3168C352.724 30.5635 348.979 34.2497 345.96 34.6706C343.522 35.0044 341.94 34.1481 341.315 32.3776C340.546 30.4619 341.606 27.7771 343.855 25.7163C349.168 20.8836 352.768 22.9444 348.892 27.4433C348.036 28.4011 344.102 31.4633 342.709 32.0873C343.043 33.5676 344.726 34.1481 348.5 32.276C349.763 31.6665 351.2 30.4765 352.68 29.1268ZM347.078 27.3562C350.431 24.1054 348.805 23.2782 345.452 26.2533C344.204 27.3998 343.202 29.0252 342.81 30.4184C343.768 29.8959 345.786 28.6043 347.078 27.3562Z" fill="#EF7869"/>
<path d="M352.68 29.1268C353.261 28.6479 353.159 30.0846 352.913 30.3168C352.724 30.5635 348.979 34.2497 345.96 34.6706C343.522 35.0044 341.94 34.1481 341.315 32.3776C340.546 30.4619 341.606 27.7771 343.855 25.7163C349.168 20.8836 352.768 22.9444 348.892 27.4433C348.036 28.4011 344.102 31.4633 342.709 32.0874C343.043 33.5676 344.726 34.1481 348.5 32.276C349.763 31.6665 351.2 30.4765 352.68 29.1268ZM347.078 27.3562C350.431 24.1054 348.805 23.2782 345.452 26.2533C344.204 27.3998 343.202 29.0252 342.81 30.4184C343.768 29.8959 345.786 28.6043 347.078 27.3562Z" stroke="#EF7869" stroke-width="0.25" stroke-miterlimit="10"/>
<path d="M359.009 27.2546C360.01 26.1081 360.446 25.339 360.214 25.1068C359.923 24.8746 358.733 25.4841 357.63 25.5421C356.382 27.2111 354.712 29.0397 353.029 30.6651C352.695 30.9553 352.405 29.7073 352.593 29.5621C354.074 28.314 355.511 26.6451 356.527 25.3535C355.903 25.0197 355.467 24.3956 355.714 23.2927C356.425 20.2741 360.126 20.5643 359.256 22.7702C359.009 23.3362 358.675 23.9167 358.298 24.5408C358.878 24.3956 359.502 24.1634 359.88 24.0183C361.941 23.2491 363.276 24.207 361.273 26.558C360.214 27.8496 356.628 32.7839 359.212 33.0742C360.214 33.1758 361.854 32.305 365.439 29.1413C365.961 28.6623 365.874 30.0991 365.686 30.3313C365.439 30.578 361.476 34.5399 359.169 34.4529C356.324 34.3513 355.743 31.086 359.009 27.2546ZM357.906 23.2346C358.385 22.1317 356.904 22.4219 356.701 23.612C356.599 24.1344 356.745 24.4247 357.078 24.5698C357.47 23.9603 357.804 23.4814 357.906 23.2346Z" fill="#EF7869"/>
<path d="M359.009 27.2546C360.01 26.1081 360.446 25.339 360.214 25.1068C359.923 24.8746 358.733 25.4841 357.63 25.5421C356.382 27.2111 354.712 29.0397 353.029 30.6651C352.695 30.9553 352.405 29.7073 352.593 29.5621C354.074 28.314 355.511 26.6451 356.527 25.3535C355.903 25.0197 355.467 24.3956 355.714 23.2927C356.425 20.2741 360.126 20.5643 359.256 22.7702C359.009 23.3362 358.675 23.9167 358.298 24.5408C358.878 24.3956 359.502 24.1634 359.88 24.0183C361.941 23.2491 363.276 24.207 361.273 26.558C360.214 27.8496 356.628 32.7839 359.212 33.0742C360.214 33.1758 361.854 32.305 365.439 29.1413C365.961 28.6623 365.874 30.0991 365.686 30.3313C365.439 30.578 361.476 34.5399 359.169 34.4529C356.324 34.3513 355.743 31.086 359.009 27.2546ZM357.906 23.2346C358.385 22.1317 356.904 22.4219 356.701 23.612C356.599 24.1344 356.745 24.4247 357.078 24.5698C357.47 23.9603 357.804 23.4814 357.906 23.2346Z" stroke="#EF7869" stroke-width="0.25" stroke-miterlimit="10"/>
<path d="M376.484 34.685C374.046 35.0624 372.551 33.3934 373.277 30.9988C369.691 34.7286 368.385 35.0624 366.861 34.8302C365.09 34.5399 363.885 31.768 366.484 28.0818C369.067 24.4391 372.565 23.3362 373.857 23.3362C375.004 23.3362 376.005 24.1053 376.252 25.2954C376.688 24.7729 377.021 24.3811 377.167 24.3376C377.544 24.1489 378.56 25.0051 378.56 25.2518C378.56 25.397 377.312 26.6451 376.209 27.8351C373.146 32.5372 374.583 34.2497 378.981 32.0437C380.273 31.4197 381.666 30.4619 383.19 29.1267C383.771 28.6478 383.669 30.0845 383.437 30.3167C383.19 30.5635 379.503 34.2061 376.484 34.685ZM374.815 27.2546H374.772C374.772 27.2546 375.628 24.86 373.668 24.86C369.358 24.86 364.8 32.4791 367.296 33.1032C369.648 33.7272 374.002 28.2124 374.336 27.9367L374.815 27.2546Z" fill="#EF7869"/>
<path d="M376.484 34.685C374.046 35.0624 372.551 33.3934 373.277 30.9988C369.691 34.7286 368.385 35.0624 366.861 34.8302C365.09 34.5399 363.885 31.768 366.484 28.0818C369.067 24.4391 372.565 23.3362 373.857 23.3362C375.004 23.3362 376.005 24.1053 376.252 25.2954C376.688 24.7729 377.021 24.3811 377.167 24.3376C377.544 24.1489 378.56 25.0051 378.56 25.2518C378.56 25.397 377.312 26.6451 376.209 27.8351C373.146 32.5372 374.583 34.2497 378.981 32.0437C380.273 31.4197 381.666 30.4619 383.19 29.1267C383.771 28.6478 383.669 30.0845 383.437 30.3167C383.19 30.5635 379.503 34.2061 376.484 34.685ZM374.815 27.2546H374.772C374.772 27.2546 375.628 24.86 373.668 24.86C369.358 24.86 364.8 32.4791 367.296 33.1032C369.648 33.7272 374.002 28.2124 374.336 27.9367L374.815 27.2546Z" stroke="#EF7869" stroke-width="0.25" stroke-miterlimit="10"/>
<path d="M392.915 23.3363C394.251 24.149 393.206 26.6887 391.188 29.2284C389.417 31.4343 389.417 32.9581 390.709 33.0597C391.769 33.1032 393.351 32.2905 396.936 29.1268C397.517 28.6479 397.415 30.0846 397.183 30.3168C396.994 30.549 393.017 34.54 390.709 34.4384C389.606 34.3949 388.358 34.0611 388.358 32.2325C388.314 30.1282 390.462 27.7771 391.232 26.4855C392.567 24.3812 391.043 24.0474 388.59 26.1952C387.4 27.2547 385.614 28.9236 384.279 30.5055C383.321 32.2325 382.508 33.5676 382.363 33.7128C381.739 34.2933 381.158 33.0887 381.594 32.1309C382.697 30.4039 384.468 27.5304 387.051 22.5526C387.24 22.2188 388.445 22.5961 388.445 22.9299C388.445 23.0315 387.574 24.6134 386.529 26.529C387.98 24.8601 391.435 22.422 392.915 23.3363Z" fill="#EF7869"/>
<path d="M392.915 23.3363C394.251 24.149 393.206 26.6887 391.188 29.2284C389.417 31.4343 389.417 32.9581 390.709 33.0597C391.769 33.1032 393.351 32.2905 396.936 29.1268C397.517 28.6479 397.415 30.0846 397.183 30.3168C396.994 30.549 393.017 34.54 390.709 34.4384C389.606 34.3949 388.358 34.0611 388.358 32.2325C388.314 30.1282 390.462 27.7771 391.232 26.4855C392.567 24.3812 391.043 24.0474 388.59 26.1952C387.4 27.2547 385.614 28.9236 384.279 30.5055C383.321 32.2325 382.508 33.5676 382.363 33.7128C381.739 34.2933 381.158 33.0887 381.594 32.1309C382.697 30.4039 384.468 27.5304 387.051 22.5526C387.24 22.2188 388.445 22.5961 388.445 22.9299C388.445 23.0315 387.574 24.6134 386.529 26.529C387.98 24.8601 391.435 22.422 392.915 23.3363Z" stroke="#EF7869" stroke-width="0.25" stroke-miterlimit="10"/>
<path d="M405.906 29.4171C405.471 31.5795 405.862 32.9582 407.009 33.0598C408.069 33.1033 409.694 32.2906 413.236 29.1269C413.817 28.648 413.715 30.0847 413.526 30.3169C413.294 30.5491 409.317 34.5256 407.009 34.4385C405.572 34.395 404.425 33.1033 404.367 30.7523C402.785 32.1455 401.595 33.0453 401.116 33.3355C396.994 35.7737 394.599 31.7537 398.866 26.8194C402.408 22.7414 405.282 23.3219 406.298 23.9459C407.357 21.9867 408.881 19.7372 410.986 17.2846C420.813 5.89223 426.604 8.18522 414.586 20.9708C411.509 24.2361 408.388 27.2112 405.906 29.4171ZM399.868 27.9804C396.747 32.7696 398.286 34.2063 401.827 31.4344C402.742 30.7668 403.598 29.9977 404.469 29.272C404.614 28.1691 404.948 26.979 405.529 25.6294C404.803 23.3364 401.348 25.7745 399.868 27.9804ZM415.486 17.8651C423.527 9.24464 418.94 10.0138 411.988 18.257C409.259 21.5658 407.43 24.8167 406.472 27.3999C411.03 23.1477 414.615 18.7794 415.486 17.8651Z" fill="#EF7869"/>
<path d="M405.906 29.4171C405.471 31.5795 405.862 32.9582 407.009 33.0598C408.069 33.1033 409.694 32.2906 413.236 29.1269C413.817 28.648 413.715 30.0847 413.526 30.3169C413.294 30.5491 409.317 34.5256 407.009 34.4385C405.572 34.395 404.425 33.1033 404.367 30.7523C402.785 32.1455 401.595 33.0453 401.116 33.3355C396.994 35.7737 394.599 31.7537 398.866 26.8194C402.408 22.7414 405.282 23.3219 406.298 23.9459C407.357 21.9867 408.881 19.7372 410.986 17.2846C420.813 5.89223 426.604 8.18522 414.586 20.9708C411.509 24.2361 408.388 27.2112 405.906 29.4171ZM399.868 27.9804C396.747 32.7696 398.286 34.2063 401.827 31.4344C402.742 30.7668 403.598 29.9976 404.469 29.272C404.614 28.1691 404.948 26.979 405.529 25.6294C404.803 23.3364 401.348 25.7745 399.868 27.9804ZM415.486 17.8651C423.527 9.24464 418.94 10.0138 411.988 18.257C409.259 21.5658 407.43 24.8167 406.472 27.3999C411.03 23.1477 414.615 18.7794 415.486 17.8651Z" stroke="#EF7869" stroke-width="0.25" stroke-miterlimit="10"/>
<path d="M419.928 23.0026C424.427 21.7109 426.256 26.1083 420.029 32.4793C414.862 37.7909 410.595 33.3355 414.383 27.8353C415.297 26.5436 416.488 25.4842 417.257 24.9182C417.257 24.8747 417.257 24.7731 417.3 24.7296C417.446 24.1926 418.883 23.2783 419.928 23.0026ZM418.592 25.3971C412.888 30.1863 414.325 33.4952 416.052 33.3936C417.054 33.292 418.302 32.6244 419.986 30.6217C424.877 24.686 422.09 22.5236 418.592 25.0198C418.694 25.1504 418.694 25.2955 418.592 25.3971Z" fill="#EF7869"/>
<path d="M419.928 23.0026C424.427 21.7109 426.256 26.1083 420.029 32.4793C414.862 37.7909 410.595 33.3355 414.383 27.8353C415.297 26.5436 416.488 25.4842 417.257 24.9182C417.257 24.8747 417.257 24.7731 417.3 24.7296C417.446 24.1926 418.883 23.2783 419.928 23.0026ZM418.592 25.3971C412.888 30.1863 414.325 33.4952 416.052 33.3936C417.054 33.292 418.302 32.6244 419.986 30.6217C424.877 24.686 422.09 22.5236 418.592 25.0198C418.694 25.1504 418.694 25.2955 418.592 25.3971Z" stroke="#EF7869" stroke-width="0.25" stroke-miterlimit="10"/>
<path d="M7.11225 17.4877L0 0.290283H3.25131L8.38955 12.9453L13.5133 0.290283H16.7791L9.66685 17.4877H7.11225Z" fill="#103E68"/>
<path d="M18.1143 1.84307C18.1143 0.856217 18.8981 0.101562 19.8851 0.101562C20.843 0.101562 21.6414 0.856217 21.6414 1.84307C21.6414 2.82993 20.8576 3.5991 19.8851 3.5991C18.8981 3.5991 18.1143 2.84444 18.1143 1.84307ZM18.4046 5.05036H21.3656V13.7869C21.3656 14.7448 21.5688 15.0931 22.2365 15.0931C22.4542 15.0931 22.6284 15.064 22.759 15.0495V17.5457C22.4687 17.6618 21.9752 17.7344 21.2785 17.7344C19.377 17.7344 18.4191 16.6749 18.4191 14.5706V5.05036H18.4046Z" fill="#103E68"/>
<path d="M28.4202 17.4878L23.0933 5.05054H26.1559L29.683 13.4969L33.181 5.05054H36.2437L30.9167 17.4878H28.4202Z" fill="#103E68"/>
<path d="M37.187 1.84307C37.187 0.856217 37.9708 0.101562 38.9578 0.101562C39.9158 0.101562 40.7141 0.856217 40.7141 1.84307C40.7141 2.82993 39.9303 3.5991 38.9578 3.5991C37.9708 3.5991 37.187 2.84444 37.187 1.84307ZM37.4773 5.05036H40.4383V13.7869C40.4383 14.7448 40.6415 15.0931 41.3092 15.0931C41.5269 15.0931 41.7011 15.064 41.8317 15.0495V17.5457C41.5414 17.6618 41.0479 17.7344 40.3512 17.7344C38.4498 17.7344 37.4918 16.6749 37.4918 14.5706V5.05036H37.4773Z" fill="#103E68"/>
<path d="M43.2979 17.4877V5.05043H46.2298V6.90804C46.8249 5.6019 48.1748 4.80371 49.9311 4.80371C50.2795 4.80371 50.5698 4.83274 50.8165 4.87627V7.73526C50.4391 7.66269 50.0327 7.60464 49.5828 7.60464C47.5362 7.60464 46.2298 8.89626 46.2298 10.928V17.4587H43.2979V17.4877Z" fill="#103E68"/>
<path d="M61.9346 11.2762C61.9346 9.30253 62.5587 7.72066 63.7634 6.51611C64.9972 5.31157 66.5503 4.71655 68.4517 4.71655C70.2515 4.71655 71.7321 5.31157 72.8642 6.51611C74.0254 7.72066 74.5915 9.20095 74.5915 10.986C74.5915 11.3488 74.5624 11.6971 74.5479 12.0164H64.8811C64.9827 13.9901 66.4342 15.2672 68.6259 15.2672C69.9032 15.2672 71.0208 14.8028 71.9788 13.8305L73.7496 15.5575C72.3417 17.0377 70.6144 17.7779 68.5243 17.7779C66.5793 17.7779 64.9682 17.1829 63.7634 16.0219C62.5587 14.8609 61.9346 13.308 61.9346 11.3633V11.2762ZM71.5869 9.94109C71.5869 9.20095 71.2676 8.56239 70.6434 8.03994C70.0193 7.48846 69.3081 7.22723 68.4517 7.22723C67.5373 7.22723 66.7245 7.48846 66.0568 8.01091C65.3891 8.53337 65.0262 9.17192 64.9536 9.94109H71.5869Z" fill="#103E68"/>
<path d="M76.3188 17.4877V5.05043H79.2508V6.82096C79.8459 5.61642 81.2248 4.80371 82.9811 4.80371C85.9131 4.80371 87.6259 6.70486 87.6259 9.78153V13.6999C87.6259 14.6578 87.8 15.0061 88.4677 15.0061C88.6129 15.0061 88.758 14.977 88.8887 14.9625V17.4587C88.5403 17.5603 88.1194 17.6038 87.6114 17.6038C85.6664 17.6038 84.6939 16.5154 84.6939 14.353V10.2169C84.6939 8.51894 83.7359 7.45952 82.0812 7.45952C80.4265 7.45952 79.2653 8.64955 79.2653 10.3475V17.5022H76.3188V17.4877Z" fill="#103E68"/>
<path d="M99.5425 17.4877L106.713 0.290283H109.325L116.51 17.4877H113.259L111.851 14.0627H104.202L102.794 17.4877H99.5425ZM105.16 11.523H110.879L108.019 4.51345L105.16 11.523Z" fill="#103E68"/>
<path d="M118.15 17.4877V5.05043H121.082V6.82096C121.605 5.61642 122.839 4.80371 124.406 4.80371C126.104 4.80371 127.295 5.51483 127.904 6.9806C128.616 5.52934 129.951 4.80371 131.896 4.80371C134.581 4.80371 136.134 6.70486 136.134 9.78153V13.6999C136.134 14.6578 136.308 15.0061 136.976 15.0061C137.121 15.0061 137.266 14.977 137.397 14.9625V17.4587C137.107 17.5603 136.686 17.6038 136.12 17.6038C134.175 17.6038 133.202 16.5154 133.202 14.353V10.2169C133.202 8.51894 132.418 7.45952 131.025 7.45952C129.646 7.45952 128.63 8.66406 128.63 10.3475V17.5022H125.698V10.2169C125.698 8.51894 124.885 7.45952 123.477 7.45952C122.098 7.45952 121.053 8.66406 121.053 10.3475V17.5022H118.15V17.4877Z" fill="#103E68"/>
<path d="M148.661 6.84996V5.0504H151.622V13.7289C151.622 14.7884 151.868 15.1802 152.536 15.1802C152.71 15.1802 152.928 15.1512 153.16 15.1221V17.5167C152.841 17.6328 152.347 17.7199 151.709 17.7199C150.998 17.7199 150.431 17.6038 149.982 17.3281C149.444 16.9507 149.096 16.4573 148.965 15.8187C148.095 17.1249 146.672 17.7634 144.698 17.7634C142.942 17.7634 141.461 17.1394 140.257 15.8913C139.066 14.6287 138.486 13.1049 138.486 11.2618C138.486 9.40418 139.081 7.88035 140.257 6.64678C141.461 5.38419 142.942 4.77466 144.698 4.77466C146.687 4.78917 148.196 5.67444 148.661 6.84996ZM147.775 13.9902C148.516 13.279 148.878 12.3647 148.878 11.2763C148.878 10.1879 148.501 9.27356 147.775 8.56245C147.064 7.85133 146.15 7.474 145.09 7.474C144.03 7.474 143.174 7.83682 142.448 8.56245C141.752 9.27356 141.418 10.1879 141.418 11.2763C141.418 12.3647 141.766 13.279 142.448 13.9902C143.16 14.7013 144.03 15.0786 145.09 15.0786C146.15 15.0641 147.064 14.7013 147.775 13.9902Z" fill="#103E68"/>
<path d="M158.879 17.4878L153.552 5.05054H156.614L160.141 13.4969L163.64 5.05054H166.702L161.375 17.4878H158.879Z" fill="#103E68"/>
<path d="M167.646 1.84307C167.646 0.856217 168.43 0.101562 169.417 0.101562C170.375 0.101562 171.173 0.856217 171.173 1.84307C171.173 2.82993 170.389 3.5991 169.417 3.5991C168.43 3.5991 167.646 2.84444 167.646 1.84307ZM167.936 5.05036H170.897V13.7869C170.897 14.7448 171.101 15.0931 171.768 15.0931C171.986 15.0931 172.16 15.064 172.291 15.0495V17.5457C172 17.6618 171.507 17.7344 170.81 17.7344C168.909 17.7344 167.951 16.6749 167.951 14.5706V5.05036H167.936Z" fill="#103E68"/>
<path d="M174.497 7.74976H172.944V5.05041H174.497V0.290283H177.458V5.05041H180.201V7.73524H177.458V13.2791C177.458 14.6287 177.922 15.1222 179.011 15.1222C179.388 15.1222 179.722 15.0931 180.042 15.0206V17.6619C179.621 17.7634 179.098 17.807 178.518 17.807C175.832 17.807 174.497 16.3993 174.497 13.5838V7.74976Z" fill="#103E68"/>
<path d="M191.406 6.84996V5.0504H194.367V13.7289C194.367 14.7884 194.614 15.1802 195.282 15.1802C195.456 15.1802 195.674 15.1512 195.906 15.1221V17.5167C195.587 17.6328 195.093 17.7199 194.454 17.7199C193.743 17.7199 193.177 17.6038 192.727 17.3281C192.19 16.9507 191.842 16.4573 191.711 15.8187C190.84 17.1249 189.418 17.7634 187.444 17.7634C185.687 17.7634 184.207 17.1394 183.002 15.8913C181.812 14.6287 181.231 13.1049 181.231 11.2618C181.231 9.40418 181.827 7.88035 183.002 6.64678C184.207 5.38419 185.687 4.77466 187.444 4.77466C189.432 4.78917 190.927 5.67444 191.406 6.84996ZM190.506 13.9902C191.247 13.279 191.61 12.3647 191.61 11.2763C191.61 10.1879 191.232 9.27356 190.506 8.56245C189.795 7.85133 188.881 7.474 187.821 7.474C186.762 7.474 185.905 7.83682 185.179 8.56245C184.483 9.27356 184.149 10.1879 184.149 11.2763C184.149 12.3647 184.497 13.279 185.179 13.9902C185.891 14.7013 186.762 15.0786 187.821 15.0786C188.881 15.0641 189.795 14.7013 190.506 13.9902Z" fill="#103E68"/>
<path d="M222.831 3.09123L220.726 4.89079C219.493 3.48307 217.911 2.80097 216.009 2.80097C214.282 2.80097 212.83 3.39599 211.669 4.557C210.508 5.71801 209.942 7.16926 209.942 8.92529C209.942 10.6813 210.508 12.1326 211.669 13.2936C212.83 14.4546 214.282 15.0206 216.009 15.0206C217.954 15.0206 219.565 14.3095 220.77 12.8727L222.846 14.6723C221.162 16.646 218.694 17.807 216.009 17.807C213.469 17.807 211.292 16.9653 209.521 15.2818C207.765 13.5838 206.879 11.465 206.879 8.92529C206.879 6.38558 207.765 4.26675 209.521 2.55426C211.292 0.856286 213.469 0.0145555 216.009 0.0145555C218.767 4.288e-05 221.031 1.03044 222.831 3.09123Z" fill="#103E68"/>
<path d="M234.182 6.84996V5.0504H237.143V13.7289C237.143 14.7884 237.389 15.1802 238.057 15.1802C238.231 15.1802 238.449 15.1512 238.681 15.1221V17.5167C238.362 17.6328 237.868 17.7199 237.23 17.7199C236.519 17.7199 235.953 17.6038 235.503 17.3281C234.965 16.9507 234.617 16.4573 234.487 15.8187C233.616 17.1249 232.193 17.7634 230.219 17.7634C228.463 17.7634 226.982 17.1394 225.778 15.8913C224.587 14.6287 224.007 13.1049 224.007 11.2618C224.007 9.40418 224.602 7.88035 225.778 6.64678C226.982 5.38419 228.463 4.77466 230.219 4.77466C232.208 4.78917 233.717 5.67444 234.182 6.84996ZM233.296 13.9902C234.037 13.279 234.399 12.3647 234.399 11.2763C234.399 10.1879 234.022 9.27356 233.296 8.56245C232.585 7.85133 231.671 7.474 230.611 7.474C229.551 7.474 228.695 7.83682 227.969 8.56245C227.273 9.27356 226.939 10.1879 226.939 11.2763C226.939 12.3647 227.287 13.279 227.969 13.9902C228.681 14.7013 229.551 15.0786 230.611 15.0786C231.671 15.0641 232.585 14.7013 233.296 13.9902Z" fill="#103E68"/>
<path d="M240.06 5.05054H243.021V12.3359C243.021 14.0338 243.936 15.0933 245.532 15.0933C247.114 15.0933 248.246 13.9032 248.246 12.2052V5.05054H251.207V13.7146C251.207 14.774 251.454 15.1368 252.122 15.1368C252.296 15.1368 252.514 15.1223 252.746 15.0933V17.5169C252.427 17.633 251.933 17.72 251.294 17.72C250.525 17.72 249.945 17.5459 249.466 17.2266C249.001 16.8493 248.696 16.4429 248.58 15.9205C247.869 17.125 246.606 17.7491 244.806 17.7491C241.845 17.7491 240.075 15.8479 240.075 12.7712V5.05054H240.06Z" fill="#103E68"/>
<path d="M265.475 6.80656L263.647 8.70771C262.776 7.79341 261.716 7.34352 260.482 7.34352C259.394 7.34352 258.479 7.72085 257.739 8.46099C257.028 9.20113 256.65 10.1445 256.65 11.2474C256.65 12.3504 257.028 13.2937 257.739 14.0338C258.479 14.774 259.394 15.1368 260.482 15.1368C261.716 15.1368 262.776 14.7014 263.647 13.7871L265.475 15.6883C264.14 17.125 262.485 17.8361 260.497 17.8361C258.595 17.8361 256.999 17.2266 255.678 15.964C254.372 14.7014 253.733 13.1195 253.733 11.2474C253.733 9.37529 254.372 7.82244 255.678 6.55984C256.984 5.29725 258.595 4.65869 260.497 4.65869C262.485 4.65869 264.14 5.38432 265.475 6.80656Z" fill="#103E68"/>
<path d="M266.492 11.2762C266.492 9.30253 267.101 7.72066 268.321 6.51611C269.554 5.31157 271.107 4.71655 273.009 4.71655C274.809 4.71655 276.289 5.31157 277.421 6.51611C278.582 7.72066 279.149 9.20095 279.149 10.986C279.149 11.3488 279.12 11.6971 279.105 12.0164H269.438C269.54 13.9901 270.991 15.2672 273.183 15.2672C274.46 15.2672 275.578 14.8028 276.536 13.8305L278.307 15.5575C276.899 17.0377 275.172 17.7779 273.081 17.7779C271.136 17.7779 269.525 17.1829 268.321 16.0219C267.116 14.8609 266.492 13.308 266.492 11.3633V11.2762ZM276.129 9.94109C276.129 9.20095 275.81 8.56239 275.186 8.03994C274.562 7.48846 273.851 7.22723 272.994 7.22723C272.08 7.22723 271.267 7.48846 270.599 8.01091C269.932 8.53337 269.569 9.17192 269.496 9.94109H276.129Z" fill="#103E68"/>
<path d="M280.818 0.290283H283.779V13.4097C283.779 14.6142 284.171 15.1367 285.259 15.1367C285.608 15.1367 285.898 15.1222 286.145 15.0351V17.6764C285.796 17.778 285.332 17.8215 284.737 17.8215C282.124 17.8215 280.818 16.4863 280.818 13.8015V0.290283Z" fill="#103E68"/>
<path d="M297.031 11.2762C297.031 9.30253 297.64 7.72066 298.86 6.51611C300.093 5.31157 301.646 4.71655 303.548 4.71655C305.348 4.71655 306.828 5.31157 307.96 6.51611C309.122 7.72066 309.688 9.20095 309.688 10.986C309.688 11.3488 309.659 11.6971 309.644 12.0164H299.977C300.079 13.9901 301.53 15.2672 303.722 15.2672C304.999 15.2672 306.117 14.8028 307.075 13.8305L308.846 15.5575C307.438 17.0377 305.711 17.7779 303.62 17.7779C301.675 17.7779 300.064 17.1829 298.86 16.0219C297.655 14.8609 297.031 13.308 297.031 11.3633V11.2762ZM306.683 9.94109C306.683 9.20095 306.364 8.56239 305.74 8.03994C305.115 7.48846 304.404 7.22723 303.548 7.22723C302.633 7.22723 301.821 7.48846 301.153 8.01091C300.485 8.53337 300.122 9.17192 300.05 9.94109H306.683Z" fill="#103E68"/>
<path d="M312.358 13.6856C312.924 14.5708 314.129 15.2384 315.639 15.2384C317.192 15.2384 317.859 14.6434 317.859 13.8887C317.859 13.4679 317.569 13.1196 317.148 12.9019C316.872 12.7277 316.364 12.5536 315.987 12.4375C315.61 12.3214 314.884 12.0892 314.463 11.915C312.46 11.2039 311.4 10.188 311.4 8.41748C311.4 7.25647 311.821 6.37121 312.663 5.70363C313.534 5.03605 314.565 4.68774 315.798 4.68774C317.555 4.68774 318.875 5.31179 319.819 6.51633L318.164 8.27235C317.627 7.57575 316.814 7.24196 315.74 7.24196C314.826 7.24196 314.231 7.67734 314.231 8.34492C314.231 8.76578 314.448 8.98347 314.797 9.21567C315 9.34629 315.494 9.53495 315.813 9.66556C316.19 9.76715 316.872 10.0139 317.366 10.1735C319.659 10.9862 320.69 12.1037 320.69 13.8742C320.69 16.1672 318.963 17.8216 315.581 17.8216C313.084 17.8216 311.241 16.8638 310.442 15.311L312.358 13.6856Z" fill="#103E68"/>
<path d="M332.026 0.290283H334.987V13.4097C334.987 14.6142 335.379 15.1367 336.467 15.1367C336.816 15.1367 337.106 15.1222 337.353 15.0351V17.6764C337.004 17.778 336.54 17.8215 335.945 17.8215C333.332 17.8215 332.026 16.4863 332.026 13.8015V0.290283Z" fill="#103E68"/>
<path d="M348.631 6.84996V5.0504H351.592V13.7289C351.592 14.7884 351.839 15.1802 352.506 15.1802C352.681 15.1802 352.898 15.1512 353.13 15.1221V17.5167C352.811 17.6328 352.318 17.7199 351.679 17.7199C350.968 17.7199 350.402 17.6038 349.952 17.3281C349.415 16.9507 349.066 16.4573 348.936 15.8187C348.079 17.1249 346.642 17.7634 344.668 17.7634C342.912 17.7634 341.432 17.1394 340.227 15.8913C339.051 14.6287 338.456 13.1049 338.456 11.2618C338.456 9.40418 339.051 7.88035 340.227 6.64678C341.432 5.38419 342.912 4.77466 344.668 4.77466C346.657 4.78917 348.166 5.67444 348.631 6.84996ZM347.746 13.9902C348.486 13.279 348.849 12.3647 348.849 11.2763C348.849 10.1879 348.471 9.27356 347.746 8.56245C347.034 7.85133 346.12 7.474 345.06 7.474C344.001 7.474 343.13 7.83682 342.419 8.56245C341.722 9.27356 341.388 10.1879 341.388 11.2763C341.388 12.3647 341.736 13.279 342.419 13.9902C343.13 14.7013 344.001 15.0786 345.06 15.0786C346.12 15.0641 347.034 14.7013 347.746 13.9902Z" fill="#103E68"/>
<path d="M363.9 11.2765C363.9 9.43336 364.568 7.85149 365.874 6.58889C367.181 5.3263 368.792 4.68774 370.693 4.68774C372.595 4.68774 374.191 5.3263 375.512 6.58889C376.819 7.85149 377.486 9.43336 377.486 11.2765C377.486 13.1341 376.819 14.7014 375.512 15.964C374.206 17.2266 372.595 17.8652 370.693 17.8652C368.792 17.8652 367.195 17.2266 365.874 15.964C364.568 14.7014 363.9 13.1196 363.9 11.2765ZM373.422 14.0629C374.162 13.2937 374.525 12.3794 374.525 11.2765C374.525 10.159 374.148 9.25921 373.422 8.51907C372.682 7.7499 371.767 7.38709 370.679 7.38709C369.576 7.38709 368.661 7.76441 367.921 8.51907C367.21 9.25921 366.832 10.1735 366.832 11.2765C366.832 12.3939 367.195 13.3082 367.921 14.0629C368.661 14.803 369.576 15.1658 370.679 15.1658C371.782 15.1658 372.682 14.803 373.422 14.0629Z" fill="#103E68"/>
<path d="M382.261 22.2478H379.3V5.0504H382.261V6.84996C382.682 5.64541 384.192 4.77466 386.238 4.77466C387.995 4.77466 389.475 5.3987 390.651 6.64678C391.856 7.88035 392.451 9.40418 392.451 11.2618C392.451 13.1194 391.856 14.6432 390.651 15.9058C389.461 17.1394 387.98 17.7634 386.238 17.7634C384.192 17.7634 382.682 16.8927 382.261 15.6881V22.2478ZM383.132 8.56245C382.421 9.27356 382.044 10.1879 382.044 11.2763C382.044 12.3647 382.421 13.279 383.132 13.9902C383.872 14.7013 384.787 15.0786 385.846 15.0786C386.906 15.0786 387.777 14.7158 388.459 13.9902C389.17 13.279 389.519 12.3647 389.519 11.2763C389.519 10.1879 389.17 9.27356 388.459 8.56245C387.762 7.85133 386.906 7.474 385.846 7.474C384.772 7.474 383.872 7.83682 383.132 8.56245Z" fill="#103E68"/>
<path d="M393.714 11.2765C393.714 9.43336 394.382 7.85149 395.688 6.58889C396.994 5.3263 398.605 4.68774 400.507 4.68774C402.408 4.68774 404.005 5.3263 405.326 6.58889C406.632 7.85149 407.3 9.43336 407.3 11.2765C407.3 13.1341 406.632 14.7014 405.326 15.964C404.019 17.2266 402.408 17.8652 400.507 17.8652C398.605 17.8652 397.009 17.2266 395.688 15.964C394.382 14.7014 393.714 13.1196 393.714 11.2765ZM403.236 14.0629C403.976 13.2937 404.339 12.3794 404.339 11.2765C404.339 10.159 403.961 9.25921 403.236 8.51907C402.495 7.7499 401.581 7.38709 400.492 7.38709C399.389 7.38709 398.475 7.76441 397.734 8.51907C397.023 9.25921 396.646 10.1735 396.646 11.2765C396.646 12.3939 397.009 13.3082 397.734 14.0629C398.475 14.803 399.389 15.1658 400.492 15.1658C401.581 15.1658 402.495 14.803 403.236 14.0629Z" fill="#103E68"/>
<path d="M409.114 17.4877V5.05043H412.046V6.90804C412.641 5.6019 413.991 4.80371 415.747 4.80371C416.095 4.80371 416.386 4.83274 416.632 4.87627V7.73526C416.255 7.66269 415.849 7.60464 415.399 7.60464C413.352 7.60464 412.046 8.89626 412.046 10.928V17.4587H409.114V17.4877Z" fill="#103E68"/>
<path d="M419.23 7.74976H417.677V5.05041H419.23V0.290283H422.191V5.05041H424.935V7.73524H422.191V13.2791C422.191 14.6287 422.656 15.1222 423.744 15.1222C424.122 15.1222 424.456 15.0931 424.775 15.0206V17.6619C424.354 17.7634 423.832 17.807 423.251 17.807C420.566 17.807 419.23 16.3993 419.23 13.5838V7.74976Z" fill="#103E68"/>
<path d="M426.329 5.05054H429.29V12.3359C429.29 14.0338 430.204 15.0933 431.801 15.0933C433.383 15.0933 434.515 13.9032 434.515 12.2052V5.05054H437.476V13.7146C437.476 14.774 437.723 15.1368 438.39 15.1368C438.565 15.1368 438.782 15.1223 439.014 15.0933V17.5169C438.695 17.633 438.202 17.72 437.563 17.72C436.794 17.72 436.213 17.5459 435.734 17.2266C435.27 16.8493 434.965 16.4429 434.849 15.9205C434.138 17.125 432.875 17.7491 431.075 17.7491C428.114 17.7491 426.343 15.8479 426.343 12.7712V5.05054H426.329Z" fill="#103E68"/>
<path d="M440.553 17.4877V5.05043H443.485V6.82096C444.08 5.61642 445.459 4.80371 447.215 4.80371C450.147 4.80371 451.86 6.70486 451.86 9.78153V13.6999C451.86 14.6578 452.034 15.0061 452.702 15.0061C452.847 15.0061 452.992 14.977 453.123 14.9625V17.4587C452.774 17.5603 452.353 17.6038 451.845 17.6038C449.9 17.6038 448.928 16.5154 448.928 14.353V10.2169C448.928 8.51894 447.97 7.45952 446.315 7.45952C444.66 7.45952 443.499 8.64955 443.499 10.3475V17.5022H440.553V17.4877Z" fill="#103E68"/>
<path d="M454.415 1.84307C454.415 0.856217 455.198 0.101562 456.185 0.101562C457.143 0.101562 457.942 0.856217 457.942 1.84307C457.942 2.82993 457.158 3.5991 456.185 3.5991C455.198 3.5991 454.415 2.84444 454.415 1.84307ZM454.705 5.05036H457.666V13.7869C457.666 14.7448 457.869 15.0931 458.537 15.0931C458.754 15.0931 458.929 15.064 459.059 15.0495V17.5457C458.769 17.6618 458.275 17.7344 457.579 17.7344C455.677 17.7344 454.719 16.6749 454.719 14.5706V5.05036H454.705Z" fill="#103E68"/>
<path d="M470.178 6.84998V0.290283H473.139V13.7289C473.139 14.7884 473.385 15.1802 474.053 15.1802C474.227 15.1802 474.445 15.1512 474.663 15.1222V17.5167C474.343 17.6328 473.85 17.7199 473.211 17.7199C472.5 17.7199 471.934 17.6038 471.484 17.3281C470.947 16.9507 470.599 16.4573 470.468 15.8188C469.612 17.1249 468.175 17.7634 466.201 17.7634C464.444 17.7634 462.964 17.1394 461.759 15.8913C460.583 14.6287 459.988 13.1049 459.988 11.2618C459.988 9.40419 460.583 7.88037 461.759 6.6468C462.964 5.3842 464.444 4.77468 466.201 4.77468C468.204 4.78919 469.713 5.67446 470.178 6.84998ZM469.292 13.9902C470.033 13.2791 470.395 12.3648 470.395 11.2763C470.395 10.1879 470.018 9.27358 469.292 8.56246C468.581 7.85135 467.667 7.47402 466.607 7.47402C465.547 7.47402 464.677 7.83683 463.965 8.56246C463.269 9.27358 462.935 10.1879 462.935 11.2763C462.935 12.3648 463.283 13.2791 463.965 13.9902C464.677 14.7013 465.547 15.0786 466.607 15.0786C467.667 15.0641 468.581 14.7013 469.292 13.9902Z" fill="#103E68"/>
<path d="M485.853 6.84996V5.0504H488.814V13.7289C488.814 14.7884 489.061 15.1802 489.729 15.1802C489.903 15.1802 490.121 15.1512 490.339 15.1221V17.5167C490.019 17.6328 489.526 17.7199 488.887 17.7199C488.176 17.7199 487.61 17.6038 487.16 17.3281C486.623 16.9507 486.274 16.4573 486.144 15.8187C485.287 17.1249 483.85 17.7634 481.876 17.7634C480.12 17.7634 478.64 17.1394 477.435 15.8913C476.245 14.6287 475.664 13.1049 475.664 11.2618C475.664 9.40418 476.259 7.88035 477.435 6.64678C478.64 5.38419 480.12 4.77466 481.876 4.77466C483.879 4.78917 485.374 5.67444 485.853 6.84996ZM484.954 13.9902C485.694 13.279 486.057 12.3647 486.057 11.2763C486.057 10.1879 485.679 9.27356 484.954 8.56245C484.242 7.85133 483.328 7.474 482.268 7.474C481.209 7.474 480.338 7.83682 479.627 8.56245C478.944 9.27356 478.596 10.1879 478.596 11.2763C478.596 12.3647 478.944 13.279 479.627 13.9902C480.338 14.7013 481.209 15.0786 482.268 15.0786C483.328 15.0641 484.242 14.7013 484.954 13.9902Z" fill="#103E68"/>
<path d="M501.515 6.84998V0.290283H504.476V13.7289C504.476 14.7884 504.723 15.1802 505.39 15.1802C505.565 15.1802 505.782 15.1512 506 15.1222V17.5167C505.681 17.6328 505.187 17.7199 504.549 17.7199C503.837 17.7199 503.271 17.6038 502.821 17.3281C502.284 16.9507 501.936 16.4573 501.805 15.8188C500.949 17.1249 499.512 17.7634 497.538 17.7634C495.782 17.7634 494.301 17.1394 493.096 15.8913C491.906 14.6287 491.326 13.1049 491.326 11.2618C491.326 9.40419 491.921 7.88037 493.096 6.6468C494.301 5.3842 495.782 4.77468 497.538 4.77468C499.541 4.78919 501.051 5.67446 501.515 6.84998ZM500.63 13.9902C501.37 13.2791 501.733 12.3648 501.733 11.2763C501.733 10.1879 501.355 9.27358 500.63 8.56246C499.918 7.85135 499.004 7.47402 497.944 7.47402C496.885 7.47402 496.014 7.83683 495.303 8.56246C494.621 9.27358 494.272 10.1879 494.272 11.2763C494.272 12.3648 494.621 13.2791 495.303 13.9902C496.014 14.7013 496.885 15.0786 497.944 15.0786C499.004 15.0641 499.918 14.7013 500.63 13.9902Z" fill="#103E68"/>
</svg>
