<svg width="46" height="45" viewBox="0 0 46 45" fill="none" xmlns="http://www.w3.org/2000/svg">
<g clip-path="url(#clip0)">
<path d="M24.2267 44.1493C35.8574 44.1493 45.2859 34.7208 45.2859 23.0901C45.2859 11.4594 35.8574 2.03088 24.2267 2.03088C12.596 2.03088 3.16748 11.4594 3.16748 23.0901C3.16748 34.7208 12.596 44.1493 24.2267 44.1493Z" fill="#F0454E"/>
<path d="M0 20.77C1.18512 9.80941 6.98861 4.74572 11.6429 2.41858C16.6419 -0.0737631 21.3681 0.0483401 21.562 0.0555227L21.404 5.18386C20.815 5.16949 6.86651 5.01148 5.0996 21.323L0 20.77Z" fill="#103E68"/>
<path d="M25.4697 15.9363H17.3894C17.138 15.9363 16.9297 16.1446 16.9297 16.396V21.7398C16.9297 21.9912 17.138 22.1995 17.3894 22.1995H25.4697C25.7211 22.1995 25.9294 21.9912 25.9294 21.7398V16.396C25.9294 16.1446 25.7211 15.9363 25.4697 15.9363ZM25.01 21.2801H17.8419V16.8485H25.01V21.2801Z" fill="white"/>
<path d="M35.13 32.3268H27.4806V25.0222H28.2276C28.9027 25.0222 29.4486 25.5752 29.4486 26.2504C29.4486 26.2576 29.4486 26.2576 29.4486 26.2576V27.5217C29.4486 28.8577 30.5332 29.9422 31.8691 29.9422C33.2051 29.9422 34.2896 28.8577 34.2896 27.5217V20.3032C34.2896 19.5563 34.0095 18.8308 33.4996 18.2778L29.9298 14.2125L29.2475 14.8158L32.0128 17.9689C31.0144 18.1413 30.3392 19.0822 30.5044 20.0806C30.6481 20.964 31.4166 21.6177 32.3144 21.6177C32.6951 21.6105 33.0614 21.4956 33.3775 21.2801V27.5289C33.3775 28.3621 32.7023 29.0372 31.8691 29.0372C31.0359 29.0372 30.3608 28.3621 30.3608 27.5289V26.2648C30.368 25.0796 29.4127 24.1172 28.2348 24.1172H28.2276H27.4806V15.5987C27.4806 14.5572 26.6402 13.6953 25.5988 13.6953H17.1162C16.0747 13.6953 15.2415 14.5644 15.2415 15.5987V32.3268H14.2575C14.0061 32.3268 13.7979 32.5351 13.7979 32.7865C13.7979 33.0379 14.0061 33.2462 14.2575 33.2462H35.1372C35.3886 33.2462 35.5969 33.0379 35.5969 32.7865C35.5969 32.5351 35.3886 32.3268 35.13 32.3268ZM32.3073 20.6983C31.7973 20.6983 31.3879 20.2817 31.3879 19.7789C31.3879 19.2761 31.8045 18.8596 32.3073 18.8596C32.8172 18.8596 33.2266 19.2761 33.2266 19.7789C33.2338 20.2817 32.8172 20.6983 32.3073 20.6983ZM26.5684 32.3268H16.1537V15.5987C16.1537 15.06 16.5703 14.6075 17.1162 14.6075H25.5988C26.1375 14.6075 26.5684 15.0672 26.5684 15.5987V32.3268Z" fill="white"/>
</g>
<defs>
<clipPath id="clip0">
<rect width="45.2859" height="44.0936" fill="white" transform="translate(0 0.0556641)"/>
</clipPath>
</defs>
</svg>
