<svg width="46" height="45" viewBox="0 0 46 45" fill="none" xmlns="http://www.w3.org/2000/svg">
<g clip-path="url(#clip0)">
<path d="M24.2267 44.6928C35.8574 44.6928 45.2859 35.2642 45.2859 23.6335C45.2859 12.0029 35.8574 2.57434 24.2267 2.57434C12.596 2.57434 3.16748 12.0029 3.16748 23.6335C3.16748 35.2642 12.596 44.6928 24.2267 44.6928Z" fill="#FFB340"/>
<path d="M0 21.3134C1.18512 10.3529 6.98861 5.28918 11.6429 2.96204C16.6419 0.469694 21.3681 0.591797 21.562 0.59898L21.404 5.72731C20.815 5.71295 6.86651 5.55493 5.0996 21.8665L0 21.3134Z" fill="#103E68"/>
<path d="M36.5015 22.9655C36.4871 22.7501 36.3004 22.5777 36.0849 22.5777H30.0587L29.7858 17.0974C29.7714 16.8747 29.5919 16.6952 29.3692 16.6952H26.4316V14.5979C26.4316 12.5078 24.7437 10.8199 22.6535 10.8199C22.2226 10.8199 21.7988 10.8917 21.3894 11.0353C19.4214 10.3386 17.2594 11.3657 16.5627 13.3338C16.4191 13.736 16.3473 14.1669 16.3473 14.5979V16.6952H13.4096C13.1869 16.6952 13.0002 16.8676 12.993 17.0974L12.1527 33.9045C12.1383 34.1344 12.3179 34.3355 12.5477 34.3427C12.5549 34.3427 12.5621 34.3427 12.5692 34.3427H36.9181C37.1479 34.3427 37.3346 34.1559 37.3346 33.9261C37.3346 33.9189 37.3346 33.9045 37.3346 33.8974L36.5015 22.9655ZM35.2373 32.1592L36.1352 33.5023H34.3467L35.2373 32.1592ZM36.3794 32.3531L35.6467 31.2542L34.8639 23.418H35.6898L36.3794 32.3531ZM34.0163 23.418L34.8064 31.2901L33.887 32.6763L33.176 23.418H34.0163ZM29.2112 22.5777H28.4211L28.1266 17.5355H28.9598L29.2112 22.5777ZM27.2791 17.5355L27.5736 22.5777H26.6829L26.4316 17.5355H27.2791ZM22.6392 11.6602C24.2624 11.6602 25.5768 12.9746 25.5768 14.5979V16.6952H23.8961V14.5979C23.8961 13.4559 23.379 12.3785 22.4955 11.6602C22.5386 11.6602 22.5889 11.6602 22.6392 11.6602ZM21.375 11.9403C22.4021 12.4288 23.0558 13.463 23.0558 14.5979V16.6952H19.6943V14.5979C19.6943 13.463 20.3479 12.4288 21.375 11.9403ZM17.1733 14.5979C17.1733 12.9746 18.4877 11.6602 20.1109 11.6602C20.1612 11.6602 20.2043 11.6602 20.2546 11.6674C19.3639 12.3857 18.854 13.463 18.854 14.6051V16.7024H17.1733V14.5979ZM22.2441 33.5023H12.993L13.7903 17.5355H16.3329V20.2505L15.2627 20.9688C15.1478 21.0478 15.076 21.1771 15.076 21.3207V24.6822C15.076 24.912 15.2627 25.0988 15.4925 25.0988H18.0136C18.2435 25.0988 18.4302 24.912 18.4302 24.6822V21.3207C18.4302 21.1771 18.3584 21.0478 18.2435 20.9688L17.1733 20.2505V17.5355H23.0558V18.7925C23.0558 19.0223 23.2425 19.2091 23.4723 19.2091C23.7022 19.2091 23.8889 19.0223 23.8889 18.7925V17.5355H25.5912L25.8426 22.5777H23.4723C23.2497 22.5777 23.0701 22.7501 23.0558 22.9655L22.2441 33.5023ZM16.7567 20.9832L17.597 21.5434V24.2584H15.9163V21.5434L16.7567 20.9832ZM23.8674 23.418H32.3284L33.1041 33.5023H23.0917L23.8674 23.418Z" fill="white"/>
<path d="M30.1953 25.0988C29.9655 25.0988 29.7787 25.2855 29.7787 25.5153V28.8768C29.7787 29.5735 29.2113 30.1337 28.5218 30.1337H27.6814C26.9847 30.1337 26.4245 29.5663 26.4245 28.8768V25.5225C26.4245 25.2927 26.2377 25.1059 26.0079 25.1059C25.7781 25.1059 25.5913 25.2927 25.5913 25.5225V28.884C25.5913 30.0403 26.5322 30.9813 27.6886 30.9813H28.529C29.6854 30.9813 30.6263 30.0403 30.6263 28.884V25.5225C30.6191 25.2855 30.4323 25.0988 30.1953 25.0988Z" fill="white"/>
</g>
<defs>
<clipPath id="clip0">
<rect width="45.2859" height="44.0936" fill="white" transform="translate(0 0.599121)"/>
</clipPath>
</defs>
</svg>
