<svg width="46" height="45" viewBox="0 0 46 45" fill="none" xmlns="http://www.w3.org/2000/svg">
<g clip-path="url(#clip0)">
<path d="M24.2267 44.6849C35.8574 44.6849 45.2859 35.2564 45.2859 23.6257C45.2859 11.9951 35.8574 2.56653 24.2267 2.56653C12.596 2.56653 3.16748 11.9951 3.16748 23.6257C3.16748 35.2564 12.596 44.6849 24.2267 44.6849Z" fill="#64ACD4"/>
<path d="M0 21.3056C1.18512 10.3451 6.98861 5.28137 11.6429 2.95422C16.6419 0.461881 21.3681 0.583985 21.562 0.591167L21.404 5.7195C20.815 5.70514 6.86651 5.54712 5.0996 21.8587L0 21.3056Z" fill="#103E68"/>
<path d="M35.4962 22.8213L25.5555 13.053C24.7008 12.2126 23.3146 12.2126 22.467 13.053L12.5264 22.8213C12.2535 23.087 12.2535 23.518 12.5192 23.7909C12.785 24.0638 13.2159 24.0638 13.4889 23.7981L14.2646 23.0367V30.837C14.2646 32.4818 15.6005 33.8177 17.2453 33.8177H30.7844C32.4292 33.8177 33.7652 32.4818 33.7652 30.837V23.0367L34.5409 23.7981C34.6774 23.9274 34.8497 23.992 35.0221 23.992C35.2017 23.992 35.3741 23.9202 35.5105 23.7837C35.7691 23.518 35.7691 23.087 35.4962 22.8213ZM32.3933 30.837C32.3933 31.7276 31.6679 32.4459 30.7844 32.4459H17.2382C16.3475 32.4459 15.6293 31.7204 15.6293 30.837V21.6936L23.4223 14.0298C23.5013 13.9508 23.5947 13.8934 23.6953 13.8503C23.9682 13.7425 24.2914 13.7856 24.5284 13.9724C24.55 13.9867 24.5715 14.0083 24.5931 14.0298L32.3933 21.6936V30.837Z" fill="white"/>
<path d="M23.322 23.3169V21.1118H24.6866V23.3169C24.6866 23.6975 24.9955 23.9992 25.369 23.9992H27.574V25.3639H25.369C24.9883 25.3639 24.6866 25.6727 24.6866 26.0462V28.2513H23.322V26.0462C23.322 25.6655 23.0131 25.3639 22.6396 25.3639H20.4346V23.9992H22.6396C23.0203 23.9992 23.322 23.6975 23.322 23.3169Z" fill="white" stroke="white" stroke-miterlimit="10"/>
</g>
<defs>
<clipPath id="clip0">
<rect width="45.2859" height="44.0936" fill="white" transform="translate(0 0.591309)"/>
</clipPath>
</defs>
</svg>
