<svg width="46" height="45" viewBox="0 0 46 45" fill="none" xmlns="http://www.w3.org/2000/svg">
<g clip-path="url(#clip0)">
<path d="M24.2267 44.538C35.8574 44.538 45.2859 35.1094 45.2859 23.4788C45.2859 11.8481 35.8574 2.41956 24.2267 2.41956C12.596 2.41956 3.16748 11.8481 3.16748 23.4788C3.16748 35.1094 12.596 44.538 24.2267 44.538Z" fill="#B854A8"/>
<path d="M0 21.1586C1.18512 10.1981 6.98861 5.13439 11.6429 2.80725C16.6419 0.314909 21.3681 0.437012 21.562 0.444195L21.404 5.57253C20.815 5.55816 6.86651 5.40015 5.0996 21.7117L0 21.1586Z" fill="#103E68"/>
<path d="M15.5429 36.5151C15.3921 36.472 15.2413 36.436 15.0976 36.3858C13.9125 36.0123 13.1512 34.9564 13.1512 33.6636C13.1512 29.8568 13.1512 26.0573 13.144 22.2505C13.144 21.9704 13.0937 21.6903 13.0219 21.4174C12.8064 20.6129 12.5622 19.8228 12.3324 19.0184C11.8799 17.4167 12.6915 15.9371 14.2932 15.4702C18.3082 14.2995 22.3233 13.1431 26.3383 11.9795C27.4372 11.6635 28.5362 11.3115 29.6495 11.0386C31.1937 10.6579 32.5728 11.4767 33.0324 12.9922C33.3126 13.9044 33.5711 14.8238 33.8297 15.7432C33.9662 16.21 33.8441 16.4183 33.37 16.562C31.1219 17.2156 28.8666 17.8692 26.6184 18.5156C23.6018 19.3919 20.5851 20.261 17.5684 21.1372C17.4894 21.1588 17.4104 21.1875 17.3386 21.2593C17.4248 21.2593 17.5038 21.2593 17.59 21.2593C23.0343 21.2593 28.4787 21.2593 33.9231 21.2593C34.0308 21.2593 34.1385 21.2593 34.2463 21.2665C34.4905 21.2953 34.6413 21.4245 34.6844 21.6687C34.6988 21.7693 34.706 21.8699 34.706 21.9632C34.706 25.8346 34.706 29.706 34.706 33.5702C34.706 34.8128 34.1601 35.725 33.0324 36.2565C32.7954 36.3642 32.5297 36.4145 32.2783 36.4935C30.1163 36.4935 27.9472 36.4935 25.7853 36.4935C25.735 36.4576 25.6919 36.4289 25.6416 36.393C25.4692 36.2708 25.3974 36.0985 25.4405 35.8902C25.4836 35.6819 25.6201 35.5526 25.8212 35.5095C25.9145 35.488 26.0223 35.488 26.1156 35.488C27.9831 35.488 29.8434 35.488 31.7108 35.488C32.9678 35.488 33.7004 34.7625 33.7004 33.5128C33.7004 31.4083 33.7004 29.3038 33.7004 27.1993C33.7004 27.1131 33.6932 27.0197 33.686 26.9335C27.1571 26.9335 20.6569 26.9335 14.1352 26.9335C14.1352 27.0269 14.1352 27.0987 14.1352 27.1778C14.1352 29.3181 14.1352 31.4585 14.1352 33.5918C14.1352 34.7481 14.8893 35.4951 16.0457 35.4951C16.9723 35.4951 17.8916 35.4951 18.8182 35.4951C19.8166 35.4951 20.8149 35.4951 21.8133 35.4951C22.1653 35.4951 22.3735 35.6531 22.4023 35.9405C22.431 36.2278 22.2586 36.3786 22.0216 36.4935C19.874 36.5151 17.7121 36.5151 15.5429 36.5151ZM27.1571 12.7839C27.2218 12.8486 27.2433 12.8845 27.272 12.9132C28.4069 14.005 29.5345 15.0895 30.6766 16.1741C30.734 16.2316 30.8705 16.2531 30.9567 16.2244C31.5026 16.0807 32.0412 15.9155 32.5799 15.7575C32.6374 15.7432 32.6949 15.7144 32.7739 15.6857C32.5081 14.8022 32.2783 13.926 31.9838 13.0712C31.718 12.3027 30.8633 11.7928 30.0948 11.9651C29.1251 12.195 28.1699 12.5038 27.1571 12.7839ZM18.3657 19.8803C18.3513 19.8444 18.3513 19.8228 18.337 19.8156C17.1734 18.6952 16.0098 17.5747 14.8462 16.4614C14.8103 16.4255 14.7457 16.3968 14.6954 16.4039C13.8048 16.4973 13.0362 17.5388 13.2302 18.4294C13.381 19.1046 13.5893 19.7582 13.776 20.419C13.8407 20.656 13.9125 20.893 13.9843 21.1444C15.4639 20.7206 16.9148 20.2969 18.3657 19.8803ZM33.6932 22.2721C33.0037 22.2721 32.3357 22.2793 31.6606 22.2649C31.4882 22.2649 31.3948 22.3152 31.3086 22.466C30.6909 23.5506 30.066 24.628 29.4412 25.7053C29.4053 25.77 29.3765 25.8346 29.3334 25.9136C30.7987 25.9136 32.2424 25.9136 33.6932 25.9136C33.6932 24.6998 33.6932 23.5003 33.6932 22.2721ZM14.1639 22.2793C14.1639 23.5075 14.1639 24.7141 14.1639 25.9352C14.8606 25.9352 15.5429 25.928 16.2181 25.9424C16.3761 25.9424 16.4551 25.8849 16.527 25.7556C17.1518 24.6639 17.7767 23.5793 18.4016 22.4947C18.4375 22.4301 18.4662 22.3655 18.5093 22.2793C17.0441 22.2793 15.6076 22.2793 14.1639 22.2793ZM23.4366 13.8757C23.4222 13.8972 23.4078 13.926 23.4006 13.9475C23.4725 13.9978 23.5587 14.0409 23.6233 14.1055C24.5427 14.9818 25.462 15.8653 26.3814 16.7487C26.5969 16.957 26.7908 17.2658 27.0422 17.3233C27.2936 17.388 27.6096 17.2012 27.8969 17.115C28.4715 16.9498 29.0533 16.7774 29.6566 16.6051C29.6064 16.5476 29.5848 16.5117 29.5561 16.483C28.4212 15.3912 27.2936 14.3066 26.1516 13.2221C26.0941 13.1646 25.9576 13.1431 25.8714 13.1646C25.225 13.3442 24.5786 13.5381 23.9322 13.7249C23.767 13.7823 23.6018 13.8254 23.4366 13.8757ZM25.9433 17.6824C25.8283 17.5891 25.7493 17.5388 25.6847 17.4741C24.672 16.5045 23.6449 15.542 22.6465 14.5437C22.3735 14.2707 22.1509 14.2061 21.7846 14.3354C21.0879 14.5724 20.3768 14.7591 19.6442 14.9674C19.6873 15.0249 19.7088 15.0536 19.7376 15.0824C20.8724 16.1741 22.0001 17.2658 23.1421 18.3432C23.1995 18.4007 23.336 18.4222 23.4222 18.4007C23.9537 18.257 24.478 18.099 25.0024 17.9482C25.304 17.8692 25.5913 17.783 25.9433 17.6824ZM22.1293 18.7814C22.1006 18.7383 22.0934 18.7167 22.0719 18.7024C20.9227 17.5962 19.7663 16.4901 18.6099 15.3912C18.5596 15.3409 18.4303 15.3266 18.3513 15.3481C17.6546 15.542 16.9651 15.7432 16.2684 15.9443C16.1463 15.9802 16.0314 16.0233 15.8446 16.0807C15.9524 16.1669 16.0242 16.21 16.0816 16.2675C16.9795 17.1294 17.8845 17.9985 18.7823 18.8604C19.0193 19.083 19.2204 19.4278 19.4933 19.4924C19.7735 19.5571 20.1254 19.3631 20.4414 19.2698C21.0089 19.1189 21.5691 18.9537 22.1293 18.7814ZM26.3527 22.2721C25.4477 22.2721 24.5929 22.2649 23.7382 22.2793C23.6592 22.2793 23.5515 22.3726 23.5084 22.4445C22.8691 23.5434 22.2371 24.6423 21.5978 25.7412C21.5691 25.7915 21.5476 25.8562 21.5116 25.9352C22.3592 25.9352 23.1708 25.928 23.9824 25.9424C24.1692 25.9424 24.2769 25.8921 24.3703 25.7197C24.9736 24.6567 25.5841 23.6008 26.1947 22.545C26.2521 22.466 26.288 22.387 26.3527 22.2721ZM25.4333 25.9064C25.4764 25.9208 25.498 25.928 25.5267 25.928C26.3599 25.928 27.193 25.9352 28.0262 25.9208C28.1124 25.9208 28.2273 25.8203 28.2776 25.7412C28.9097 24.6567 29.5345 23.5721 30.1666 22.4804C30.2025 22.4229 30.2312 22.3583 30.2743 22.2649C29.4124 22.2649 28.5864 22.2721 27.7676 22.2577C27.5953 22.2577 27.5019 22.308 27.4157 22.4588C26.8052 23.5362 26.1803 24.6064 25.5626 25.6766C25.5051 25.7556 25.4692 25.8274 25.4333 25.9064ZM17.5828 25.9352C18.4878 25.9352 19.3425 25.9424 20.1972 25.928C20.2762 25.928 20.384 25.8346 20.4271 25.7556C21.0663 24.6567 21.6984 23.5578 22.3376 22.4588C22.3664 22.4085 22.3879 22.3511 22.4238 22.2721C21.5691 22.2721 20.7431 22.2793 19.9243 22.2649C19.7519 22.2649 19.6585 22.3152 19.5724 22.466C18.9547 23.5506 18.3298 24.628 17.7049 25.7053C17.669 25.77 17.6403 25.8346 17.5828 25.9352Z" fill="white"/>
<path d="M23.7885 36.5151C23.7382 36.4791 23.6951 36.4504 23.6448 36.4145C23.4581 36.278 23.3862 36.0841 23.4581 35.8686C23.5227 35.646 23.6951 35.5239 23.9249 35.5239C24.1548 35.5239 24.32 35.6388 24.3918 35.8686C24.4636 36.1057 24.3846 36.2924 24.1907 36.4289C24.1404 36.4648 24.0901 36.4863 24.0399 36.5151C23.9537 36.5151 23.8747 36.5151 23.7885 36.5151Z" fill="white"/>
<path d="M21.9927 31.1569C21.9927 30.3596 21.9927 29.5624 21.9927 28.7579C21.9927 28.2121 22.3733 27.9966 22.8402 28.2623C24.2408 29.0668 25.6342 29.8712 27.0348 30.6829C27.5017 30.9558 27.5017 31.3939 27.0276 31.6669C25.6414 32.4713 24.248 33.2757 22.8546 34.073C22.3662 34.3531 21.9927 34.1448 21.9927 33.5774C21.9927 32.773 21.9927 31.9685 21.9927 31.1569ZM22.9982 32.8376C23.9607 32.2846 24.9016 31.7387 25.8784 31.1784C24.9016 30.611 23.9607 30.0723 22.9982 29.5193C22.9982 30.6398 22.9982 31.7171 22.9982 32.8376Z" fill="white"/>
</g>
<defs>
<clipPath id="clip0">
<rect width="45.2859" height="44.0936" fill="white" transform="translate(0 0.444336)"/>
</clipPath>
</defs>
</svg>
