<svg width="46" height="45" viewBox="0 0 46 45" fill="none" xmlns="http://www.w3.org/2000/svg">
<g clip-path="url(#clip0)">
<path d="M24.2267 44.558C35.8574 44.558 45.2859 35.1295 45.2859 23.4988C45.2859 11.8681 35.8574 2.43958 24.2267 2.43958C12.596 2.43958 3.16748 11.8681 3.16748 23.4988C3.16748 35.1295 12.596 44.558 24.2267 44.558Z" fill="#009D73"/>
<path d="M0 21.1787C1.18512 10.2181 6.98861 5.15441 11.6429 2.82727C16.6419 0.334928 21.3681 0.457032 21.562 0.464214L21.404 5.59255C20.815 5.57818 6.86651 5.42017 5.0996 21.7317L0 21.1787Z" fill="#103E68"/>
<path d="M19.8164 28.5337C20.5418 30.5377 21.7916 31.7515 23.5298 32.1609V23.9297C21.9352 23.2043 20.7142 22.4214 19.9313 21.6385C19.1484 20.8269 18.7749 19.6992 18.7749 18.2771C18.7749 16.9698 19.2131 15.8709 20.1109 14.9731C21.0087 14.0753 22.1435 13.551 23.5298 13.4073V10.6205H25.3829V13.4648C27.3293 13.7521 28.7443 14.772 29.678 16.5389L27.7675 17.5229C27.2144 16.5102 26.4315 15.8709 25.39 15.6123V22.3998C27.4227 23.2977 28.8664 24.1955 29.7427 25.1005C30.6118 25.9696 31.0499 27.2193 31.0499 28.8139C31.0499 31.9167 28.9885 34.1218 25.3972 34.3516V37.1384H23.5441V34.2941C20.7286 33.9135 18.7893 32.3189 17.7119 29.5393L19.8164 28.5337ZM23.5298 15.4902C22.0214 15.6914 21.0374 16.6825 21.0374 18.2771C21.0374 19.8716 21.8203 20.712 23.5298 21.5523V15.4902ZM25.3829 32.2471C26.805 32.1322 27.789 31.5504 28.2272 30.7675C28.6653 29.9846 28.7802 29.4028 28.7802 28.7923C28.7802 26.8171 27.7962 25.8906 25.39 24.7629V32.2471H25.3829Z" fill="white"/>
</g>
<defs>
<clipPath id="clip0">
<rect width="45.2859" height="44.0936" fill="white" transform="translate(0 0.464355)"/>
</clipPath>
</defs>
</svg>
