<svg width="46" height="45" viewBox="0 0 46 45" fill="none" xmlns="http://www.w3.org/2000/svg">
<g clip-path="url(#clip0)">
<path d="M24.2267 44.6373C35.8574 44.6373 45.2859 35.2088 45.2859 23.5781C45.2859 11.9474 35.8574 2.51892 24.2267 2.51892C12.596 2.51892 3.16748 11.9474 3.16748 23.5781C3.16748 35.2088 12.596 44.6373 24.2267 44.6373Z" fill="#007BD0"/>
<path d="M0 21.258C1.18512 10.2974 6.98861 5.23376 11.6429 2.90662C16.6419 0.414274 21.3681 0.536377 21.562 0.54356L21.404 5.67189C20.815 5.65753 6.86651 5.49951 5.0996 21.8111L0 21.258Z" fill="#103E68"/>
<path d="M15.421 31.4646L15.6724 31.6298C15.773 31.6944 18.1217 33.2171 24.1837 33.2171C30.2458 33.2171 32.5945 31.6944 32.6951 31.6298L32.9464 31.4646V22.0482L36.3007 20.9278V26.2069C35.4388 26.4511 34.8067 27.2412 34.8067 28.1821V30.9761H38.9079V28.1821C38.9079 27.2484 38.2759 26.4511 37.414 26.2069V20.5543L39.3676 19.9007L33.4923 17.9398L33.1404 19.0028L35.8266 19.9007L24.1766 23.7864L12.5265 19.9007L24.1766 16.0149L32.0774 18.6509L32.4293 17.5879L24.1766 14.837L8.99268 19.9007L15.421 22.0411V31.4646ZM37.7875 28.1821V29.8628H35.9272V28.1821C35.9272 27.665 36.3438 27.2484 36.8609 27.2484C37.3709 27.2484 37.7875 27.6722 37.7875 28.1821ZM16.5415 22.4217L24.1837 24.9715L31.826 22.4217V26.8031H30.4469V27.9236H31.826V29.044H29.4055V30.1645H31.826V30.8397C31.1077 31.1916 28.7878 32.1038 24.1837 32.1038C19.5797 32.1038 17.2598 31.1916 16.5415 30.8397V22.4217Z" fill="white"/>
<path d="M27.1646 29.0441H28.285V30.1645H27.1646V29.0441Z" fill="white"/>
</g>
<defs>
<clipPath id="clip0">
<rect width="45.2859" height="44.0936" fill="white" transform="translate(0 0.543701)"/>
</clipPath>
</defs>
</svg>
