<svg width="46" height="45" viewBox="0 0 46 45" fill="none" xmlns="http://www.w3.org/2000/svg">
<g clip-path="url(#clip0)">
<path d="M24.2267 44.0936C35.8574 44.0936 45.2859 34.6651 45.2859 23.0344C45.2859 11.4037 35.8574 1.97522 24.2267 1.97522C12.596 1.97522 3.16748 11.4037 3.16748 23.0344C3.16748 34.6651 12.596 44.0936 24.2267 44.0936Z" fill="#EC7A96"/>
<path d="M17.8844 30.5976C16.8645 30.5474 16.8788 29.1108 17.8844 29.0606C20.7215 29.0678 28.2129 29.0606 31.1434 29.0678C31.9478 29.0678 32.6302 28.5219 32.8097 27.739L34.4761 20.5349C34.5694 20.1255 34.4761 19.6945 34.2103 19.3641C33.9446 19.0337 33.5567 18.8398 33.1329 18.8398C31.955 18.8398 21.9497 18.7967 16.8286 18.7752L16.0169 15.7585C15.823 15.0403 15.1622 14.5375 14.4152 14.5375H11.8152C11.4345 14.5375 11.1328 14.8463 11.1328 15.2198C11.1328 15.5933 11.4417 15.9022 11.8152 15.9022H14.4152C14.5445 15.9022 14.6594 15.9883 14.6882 16.1105L17.8054 27.6815C17.2595 27.7031 16.7496 27.9257 16.3617 28.3208C15.9523 28.7374 15.7368 29.2832 15.744 29.8578C15.7656 31.0142 16.7208 31.9623 17.8844 31.9623H18.8828C18.7319 32.2712 18.6529 32.6231 18.6529 32.9894C18.6529 34.311 19.7303 35.3884 21.0519 35.3884C22.3735 35.3884 23.4509 34.311 23.4509 32.9894C23.4509 32.6231 23.3647 32.2712 23.221 31.9623H27.5521C27.4013 32.2712 27.3223 32.6231 27.3223 32.9894C27.3223 34.311 28.3996 35.3884 29.7212 35.3884C31.0428 35.3884 32.1202 34.311 32.1202 32.9894C32.1202 32.6087 32.0268 32.2496 31.8688 31.9264C32.1417 31.833 32.3357 31.5816 32.3357 31.28C32.3357 30.8993 32.0268 30.5976 31.6533 30.5976H17.8844ZM22.079 32.9966C22.079 33.564 21.6193 34.0237 21.0519 34.0237C20.4845 34.0237 20.0248 33.564 20.0248 32.9966C20.0248 32.4292 20.4845 31.9695 21.0519 31.9695C21.6193 31.9695 22.079 32.4292 22.079 32.9966ZM29.714 34.0237C29.1466 34.0237 28.6869 33.564 28.6869 32.9966C28.6869 32.4364 29.1394 31.9767 29.6997 31.9695H29.7356C30.2958 31.9767 30.7483 32.4364 30.7483 32.9966C30.7411 33.564 30.2743 34.0237 29.714 34.0237ZM33.1329 20.2189C33.1401 20.226 33.1329 20.226 33.1329 20.2332L32.429 23.2714H30.0588L30.461 20.2117L33.1186 20.2189C33.1257 20.2117 33.1257 20.2117 33.1329 20.2189ZM26.0653 27.6959V24.6361H28.493L28.0908 27.6959H26.0653ZM22.668 27.6959L22.2586 24.6361H24.6934V27.6959H22.668ZM19.5148 27.6959C19.3425 27.6959 19.1988 27.581 19.1557 27.423L18.4015 24.6361H20.8795L21.2889 27.6959H19.5148ZM22.079 23.2643L21.6696 20.1686L24.7006 20.183V23.2714H22.079V23.2643ZM26.0653 23.2643V20.183L29.082 20.1973L28.6798 23.2643H26.0653ZM20.2834 20.1614L20.6928 23.2643H18.0281L17.1877 20.147L20.2834 20.1614ZM31.1362 27.6959H29.4698L29.8721 24.6361H32.113L31.4666 27.4301C31.4379 27.5881 31.3014 27.6959 31.1362 27.6959Z" fill="white"/>
<path d="M0 20.7143C1.18512 9.75375 6.98861 4.69006 11.6429 2.36291C16.6419 -0.129427 21.3681 -0.00732394 21.562 -0.000141404L21.404 5.12819C20.815 5.11383 6.86651 4.95581 5.0996 21.2674L0 20.7143Z" fill="#103E68"/>
</g>
<defs>
<clipPath id="clip0">
<rect width="45.2859" height="44.0936" fill="white"/>
</clipPath>
</defs>
</svg>
