<svg width="108" height="76" viewBox="0 0 108 76" fill="none" xmlns="http://www.w3.org/2000/svg">
<path fill-rule="evenodd" clip-rule="evenodd" d="M74.391 61.5122V34.5034V33.16L73.4462 32.2087L54.0161 12.7652L34.5731 32.2087L33.6283 33.16V34.5034V61.5122H40.1071V35.8403L54.0225 21.9246L67.925 35.8403V61.5122H74.391ZM0 12.3731V21.5325L14.3074 35.8403V61.5122H20.7863V34.5034V33.16L19.835 32.2087L0 12.3731ZM87.2266 33.16V34.5034V61.5122H93.699V35.8403L107.994 21.5325V12.3731L88.1714 32.2087L87.2266 33.16ZM27.008 18.7365C32.1821 18.7365 36.3728 14.5457 36.3728 9.37145C36.3728 4.1908 32.1821 0 27.008 0C21.834 0 17.6433 4.1908 17.6433 9.36502C17.6433 14.5392 21.834 18.7365 27.008 18.7365ZM81.0048 18.7365C86.1725 18.7365 90.3632 14.5457 90.3632 9.37145C90.3696 4.1908 86.1789 0 81.0048 0C75.8372 0 71.6465 4.1908 71.6465 9.36502C71.6465 14.5392 75.8372 18.7365 81.0048 18.7365ZM80.9791 27.3752L54.0161 0.398512L27.0337 27.3752L0 0.340663V9.5L23.8008 33.3014V61.5122H30.2732V33.3014L54.0161 9.55785L77.7397 33.3014V61.5122H84.2121V33.3014L107.994 9.5V0.340663L80.9791 27.3752ZM0.115694 75.7429H3.35512V65.1695H0.115694V75.7429ZM15.5736 72.2656H15.5222L9.39689 65.1695H6.18318V75.7429H9.21693V68.6597H9.25549L15.368 75.7429H18.601V65.1695H15.5672V72.2656H15.5736ZM21.429 75.7429H24.6685V71.3657H30.8195V69.5724H24.6685V67.1171H31.7643V65.1695H21.429V75.7429ZM45.5319 66.5321C44.9148 66.0244 44.1628 65.6323 43.2694 65.343C42.376 65.0538 41.3605 64.9124 40.2228 64.9124C39.098 64.9124 38.0889 65.0538 37.1891 65.343C36.2892 65.6323 35.5308 66.0244 34.9138 66.5321C34.2967 67.0335 33.8211 67.6248 33.4933 68.3062C33.1655 68.9811 32.9984 69.7202 32.9984 70.5108C32.9984 71.2821 33.1655 72.002 33.4933 72.6705C33.8211 73.339 34.2967 73.9175 34.9138 74.4124C35.5308 74.9073 36.2892 75.293 37.1891 75.5758C38.0889 75.8586 39.098 76 40.2228 76C41.3605 76 42.376 75.8586 43.2694 75.5758C44.1628 75.293 44.9148 74.9073 45.5319 74.4124C46.1489 73.9175 46.6245 73.339 46.9523 72.6705C47.2801 72.002 47.4472 71.2821 47.4472 70.5108C47.4472 69.7202 47.2801 68.9875 46.9523 68.3062C46.6245 67.6313 46.1489 67.0399 45.5319 66.5321ZM43.9893 71.8028C43.8479 72.2206 43.6165 72.5998 43.3016 72.9405C42.9866 73.2747 42.5753 73.5447 42.0675 73.7503C41.5597 73.956 40.9427 74.0524 40.2164 74.0524C39.4901 74.0524 38.8731 73.9496 38.3653 73.7503C37.8575 73.5447 37.4462 73.2811 37.1312 72.9405C36.8163 72.6062 36.5849 72.227 36.4435 71.8028C36.3021 71.385 36.225 70.9479 36.225 70.5044C36.225 70.0416 36.2957 69.5917 36.4435 69.1546C36.5849 68.7175 36.8163 68.3319 37.1312 67.9912C37.4462 67.6505 37.8575 67.3742 38.3653 67.1749C38.8731 66.9692 39.4901 66.8728 40.2164 66.8728C40.9427 66.8728 41.5597 66.9756 42.0675 67.1749C42.5753 67.3806 42.9866 67.6505 43.3016 67.9912C43.6165 68.3319 43.8479 68.724 43.9893 69.1546C44.1307 69.5917 44.2078 70.0416 44.2078 70.5044C44.2078 70.9479 44.1371 71.3786 43.9893 71.8028ZM59.023 72.2656H58.9716L52.8463 65.1695H49.639V75.7429H52.6727V68.6597H52.7113L58.8238 75.7429H62.0568V65.1695H59.023V72.2656ZM82.2839 72.6062H82.2389L78.5688 65.1695H74.8538L80.1885 75.7429H84.2764L89.7461 65.1695H86.0054L82.2839 72.6062ZM68.6963 65.1695L63.4258 75.7429H67.0316L70.6117 68.3062H70.6567L74.1918 75.7429H77.7718L72.6299 65.1695H68.6963ZM90.993 75.7429H94.2325V65.1695H90.993V75.7429ZM95.8972 67.1171H100.3V75.7429H103.539V67.1171H107.942V65.1695H95.8972V67.1171Z" fill="#575756"/>
</svg>
