<?xml version="1.0" encoding="utf-8"?>
<!-- Generator: Adobe Illustrator 24.0.2, SVG Export Plug-In . SVG Version: 6.00 Build 0)  -->
<svg version="1.1" id="Capa_1" xmlns="http://www.w3.org/2000/svg" xmlns:xlink="http://www.w3.org/1999/xlink" x="0px" y="0px"
	 viewBox="0 0 108 117.7" style="enable-background:new 0 0 108 117.7;" xml:space="preserve">
<style type="text/css">
	.st0{fill-rule:evenodd;clip-rule:evenodd;fill:#575756;}
</style>
<path class="st0" d="M74.4,82.4v-27V54l-0.9-1L54,33.6L34.6,53.1l-0.9,1v1.3v27h6.5V56.7L54,42.8l13.9,13.9v25.7H74.4z M0,33.2v9.2
	l14.3,14.3v25.7h6.5v-27V54l-1-1L0,33.2z M87.2,54v1.3v27h6.5V56.7L108,42.4v-9.2L88.2,53.1L87.2,54z M27,39.6
	c5.2,0,9.4-4.2,9.4-9.4c0-5.2-4.2-9.4-9.4-9.4c-5.2,0-9.4,4.2-9.4,9.4C17.6,35.4,21.8,39.6,27,39.6z M81,39.6c5.2,0,9.4-4.2,9.4-9.4
	c0-5.2-4.2-9.4-9.4-9.4c-5.2,0-9.4,4.2-9.4,9.4C71.6,35.4,75.8,39.6,81,39.6z M81,48.2l-27-27l-27,27l-27-27v9.2l23.8,23.8v28.2h6.5
	V54.2L54,30.4l23.7,23.7v28.2h6.5V54.2L108,30.4v-9.2L81,48.2z M0.1,96.6h3.2V86H0.1V96.6z M15.6,93.1L15.6,93.1L9.4,86H6.2v10.6h3
	v-7.1h0l6.1,7.1h3.2V86h-3L15.6,93.1L15.6,93.1z M21.4,96.6h3.2v-4.4h6.2v-1.8h-6.2V88h7.1V86H21.4V96.6z M45.5,87.4
	c-0.6-0.5-1.4-0.9-2.3-1.2c-0.9-0.3-1.9-0.4-3-0.4c-1.1,0-2.1,0.1-3,0.4c-0.9,0.3-1.7,0.7-2.3,1.2c-0.6,0.5-1.1,1.1-1.4,1.8
	c-0.3,0.7-0.5,1.4-0.5,2.2c0,0.8,0.2,1.5,0.5,2.2c0.3,0.7,0.8,1.2,1.4,1.7c0.6,0.5,1.4,0.9,2.3,1.2c0.9,0.3,1.9,0.4,3,0.4
	c1.1,0,2.2-0.1,3-0.4c0.9-0.3,1.6-0.7,2.3-1.2c0.6-0.5,1.1-1.1,1.4-1.7c0.3-0.7,0.5-1.4,0.5-2.2c0-0.8-0.2-1.5-0.5-2.2
	C46.6,88.5,46.1,87.9,45.5,87.4z M44,92.7c-0.1,0.4-0.4,0.8-0.7,1.1c-0.3,0.3-0.7,0.6-1.2,0.8c-0.5,0.2-1.1,0.3-1.9,0.3
	s-1.3-0.1-1.9-0.3c-0.5-0.2-0.9-0.5-1.2-0.8c-0.3-0.3-0.5-0.7-0.7-1.1c-0.1-0.4-0.2-0.9-0.2-1.3c0-0.5,0.1-0.9,0.2-1.3
	c0.1-0.4,0.4-0.8,0.7-1.2c0.3-0.3,0.7-0.6,1.2-0.8c0.5-0.2,1.1-0.3,1.9-0.3s1.3,0.1,1.9,0.3c0.5,0.2,0.9,0.5,1.2,0.8
	c0.3,0.3,0.5,0.7,0.7,1.2c0.1,0.4,0.2,0.9,0.2,1.3C44.2,91.8,44.1,92.2,44,92.7z M59,93.1L59,93.1L52.8,86h-3.2v10.6h3v-7.1h0
	l6.1,7.1h3.2V86h-3V93.1z M82.3,93.5L82.3,93.5L78.6,86h-3.7l5.3,10.6h4.1L89.7,86H86L82.3,93.5z M68.7,86l-5.3,10.6H67l3.6-7.4h0
	l3.5,7.4h3.6L72.6,86H68.7z M91,96.6h3.2V86H91V96.6z M95.9,88h4.4v8.6h3.2V88h4.4V86h-12V88z"/>
</svg>
