<?xml version="1.0" encoding="utf-8"?>
<!-- Generator: Adobe Illustrator 24.0.2, SVG Export Plug-In . SVG Version: 6.00 Build 0)  -->
<svg version="1.1" id="Capa_1" xmlns="http://www.w3.org/2000/svg" xmlns:xlink="http://www.w3.org/1999/xlink" x="0px" y="0px"
	 viewBox="0 0 108 117.7" style="enable-background:new 0 0 108 117.7;" xml:space="preserve">
<style type="text/css">
	.st0{clip-path:url(#SVGID_2_);}
	.st1{fill:#575756;}
</style>
<g>
	<defs>
		<rect id="SVGID_1_" x="12.5" y="13.3" width="84" height="85"/>
	</defs>
	<clipPath id="SVGID_2_">
		<use xlink:href="#SVGID_1_"  style="overflow:visible;"/>
	</clipPath>
	<g class="st0">
		<path class="st1" d="M15.7,94c0,1.4,0,2.4,0.1,3c0,0.4,0.1,0.7,0.6,0.8c0.2,0,0.5,0.1,0.7,0.1c0.2,0,0.2,0,0.2,0.1
			c0,0.1-0.1,0.1-0.3,0.1c-0.9,0-1.8,0-2.1,0c-0.4,0-1.3,0-1.8,0c-0.2,0-0.3,0-0.3-0.1c0-0.1,0.1-0.1,0.2-0.1c0.2,0,0.4,0,0.5-0.1
			c0.3-0.1,0.4-0.4,0.4-0.8c0.1-0.6,0.1-1.6,0.1-3v-2.5c0-2.1,0-2.5,0-3c0-0.5-0.1-0.7-0.6-0.8c-0.1,0-0.4,0-0.6,0
			c-0.1,0-0.2,0-0.2-0.1c0-0.1,0.1-0.1,0.3-0.1c0.4,0,0.8,0,1.1,0c0.4,0,0.7,0,0.9,0c0.5,0,3.4,0,3.7,0c0.3,0,0.4,0,0.6-0.1
			c0.1,0,0.2-0.1,0.2-0.1c0.1,0,0.1,0.1,0.1,0.1c0,0.1-0.1,0.3-0.1,0.6c0,0.1,0,1-0.1,1.1c0,0.1,0,0.2-0.1,0.2
			c-0.1,0-0.1-0.1-0.1-0.2c0-0.1,0-0.3-0.1-0.5c-0.1-0.2-0.4-0.4-0.9-0.4l-2.2,0c-0.1,0-0.1,0-0.1,0.2v3.5c0,0.1,0,0.1,0.1,0.1
			l1.8,0c0.2,0,0.4,0,0.6,0c0.3,0,0.5-0.1,0.6-0.3c0.1-0.1,0.1-0.1,0.2-0.1c0.1,0,0.1,0,0.1,0.1c0,0.1-0.1,0.4-0.1,0.9
			c0,0.3-0.1,0.9-0.1,1c0,0.1,0,0.3-0.1,0.3c-0.1,0-0.1-0.1-0.1-0.2c0-0.1,0-0.3-0.1-0.4c-0.1-0.2-0.3-0.5-0.7-0.5
			c-0.4,0-1.9,0-2.1,0c-0.1,0-0.1,0-0.1,0.1L15.7,94L15.7,94z"/>
		<path class="st1" d="M31.2,93c0-3.2-1.8-5.1-4.1-5.1c-1.6,0-3.5,0.9-3.5,4.4c0,2.9,1.6,5.3,4.3,5.3C28.9,97.6,31.2,97.1,31.2,93z
			 M21.6,92.8c0-2.4,1.6-5.5,5.8-5.5c3.5,0,5.7,2,5.7,5.3c0,3.2-2.3,5.8-5.8,5.8C23.3,98.3,21.6,95.3,21.6,92.8z"/>
		<path class="st1" d="M35.1,88.8c-0.3-0.8-0.6-0.9-1.1-1.1c-0.2-0.1-0.4-0.1-0.6-0.1c-0.1,0-0.2,0-0.2-0.1c0-0.1,0.2-0.1,0.4-0.1
			c0.7,0,1.6,0,2,0c0.4,0,1,0,1.7,0c0.2,0,0.3,0,0.3,0.1c0,0.1-0.1,0.1-0.2,0.1c-0.2,0-0.4,0-0.6,0.1c-0.1,0.1-0.1,0.2-0.1,0.3
			c0,0.2,0.1,0.6,0.3,1.1l2.4,6.4h0.1c0.6-1.5,2.4-6.1,2.8-7c0.1-0.2,0.1-0.4,0.1-0.5c0-0.1-0.1-0.2-0.2-0.3
			c-0.2-0.1-0.4-0.1-0.6-0.1c-0.1,0-0.2,0-0.2-0.1c0-0.1,0.1-0.1,0.4-0.1c0.7,0,1.3,0,1.5,0c0.2,0,0.9,0,1.3,0c0.2,0,0.3,0,0.3,0.1
			c0,0.1-0.1,0.1-0.2,0.1c-0.1,0-0.4,0-0.7,0.2c-0.2,0.1-0.4,0.4-0.8,1.3c-0.6,1.3-0.9,2.1-1.7,3.8c-0.9,2.1-1.6,3.6-1.9,4.3
			c-0.4,0.8-0.5,1-0.6,1c-0.2,0-0.3-0.2-0.5-0.9L35.1,88.8z"/>
		<path class="st1" d="M47.4,91.5c0-2.1,0-2.5,0-3c0-0.5-0.2-0.7-0.5-0.8c-0.2,0-0.3-0.1-0.5-0.1c-0.1,0-0.2,0-0.2-0.1
			c0-0.1,0.1-0.1,0.3-0.1c0.5,0,1.4,0,1.8,0c0.4,0,1.2,0,1.7,0c0.2,0,0.3,0,0.3,0.1c0,0.1-0.1,0.1-0.2,0.1c-0.1,0-0.3,0-0.4,0
			c-0.4,0.1-0.5,0.3-0.5,0.8c0,0.5,0,0.8,0,3V94c0,1.4,0,2.5,0.1,3.1c0,0.4,0.1,0.6,0.6,0.7c0.2,0,0.5,0.1,0.7,0.1
			c0.2,0,0.2,0,0.2,0.1c0,0.1-0.1,0.1-0.3,0.1c-0.9,0-1.8,0-2.2,0c-0.3,0-1.2,0-1.8,0c-0.2,0-0.3,0-0.3-0.1c0-0.1,0.1-0.1,0.2-0.1
			c0.2,0,0.4,0,0.5-0.1c0.3-0.1,0.4-0.3,0.4-0.7c0.1-0.6,0.1-1.7,0.1-3.1L47.4,91.5L47.4,91.5z"/>
		<path class="st1" d="M52.8,97.9c-0.3-0.1-0.3-0.2-0.3-0.5c0-0.8,0.1-1.6,0.1-1.9c0-0.2,0.1-0.4,0.2-0.4c0.1,0,0.2,0.1,0.2,0.2
			c0,0.2,0.1,0.5,0.1,0.7c0.3,1,1.3,1.4,2.3,1.4c1.4,0,2.1-0.9,2.1-1.6c0-0.7-0.2-1.3-1.5-2.3l-0.7-0.5c-1.7-1.2-2.3-2.2-2.3-3.3
			c0-1.5,1.5-2.7,3.6-2.7c1,0,1.7,0.1,2.1,0.2c0.1,0,0.2,0.1,0.2,0.2c0,0.2-0.1,0.6-0.1,1.7c0,0.3,0,0.4-0.2,0.4
			c-0.1,0-0.2-0.1-0.2-0.3c0-0.1-0.1-0.6-0.4-0.9c-0.2-0.3-0.7-0.7-1.7-0.7c-1.2,0-1.9,0.6-1.9,1.5c0,0.6,0.4,1.1,1.7,2l0.4,0.3
			c1.9,1.3,2.6,2.3,2.6,3.6c0,0.8-0.3,1.8-1.5,2.5c-0.8,0.5-1.7,0.6-2.5,0.6C54.2,98.3,53.5,98.2,52.8,97.9z"/>
		<path class="st1" d="M61.3,97.9C61,97.8,61,97.8,61,97.5c0-0.8,0.1-1.6,0.1-1.9c0-0.2,0.1-0.4,0.2-0.4c0.1,0,0.2,0.1,0.2,0.2
			c0,0.2,0.1,0.5,0.1,0.7c0.3,1,1.3,1.4,2.3,1.4c1.4,0,2.1-0.9,2.1-1.6c0-0.7-0.2-1.3-1.5-2.3l-0.7-0.5c-1.7-1.2-2.3-2.2-2.3-3.3
			c0-1.5,1.5-2.7,3.6-2.7c1,0,1.7,0.1,2.1,0.2c0.1,0,0.2,0.1,0.2,0.2c0,0.2-0.1,0.6-0.1,1.7c0,0.3,0,0.4-0.2,0.4
			c-0.1,0-0.2-0.1-0.2-0.3c0-0.1-0.1-0.6-0.4-0.9c-0.2-0.3-0.7-0.7-1.7-0.7c-1.2,0-1.9,0.6-1.9,1.5c0,0.6,0.4,1.1,1.7,2l0.4,0.3
			c1.9,1.3,2.6,2.3,2.6,3.6c0,0.8-0.3,1.8-1.5,2.5c-0.8,0.5-1.7,0.6-2.5,0.6C62.7,98.3,62,98.2,61.3,97.9z"/>
		<path class="st1" d="M69.9,97.9c-0.3-0.1-0.3-0.2-0.3-0.5c0-0.8,0.1-1.6,0.1-1.9c0-0.2,0.1-0.4,0.2-0.4c0.1,0,0.2,0.1,0.2,0.2
			c0,0.2,0.1,0.5,0.1,0.7c0.3,1,1.3,1.4,2.3,1.4c1.4,0,2.1-0.9,2.1-1.6c0-0.7-0.2-1.3-1.5-2.3l-0.7-0.5C70.6,92,70,91.1,70,89.9
			c0-1.5,1.5-2.7,3.6-2.7c1,0,1.7,0.1,2.1,0.2c0.1,0,0.2,0.1,0.2,0.2c0,0.2-0.1,0.6-0.1,1.7c0,0.3,0,0.4-0.2,0.4
			c-0.1,0-0.2-0.1-0.2-0.3c0-0.1-0.1-0.6-0.4-0.9c-0.2-0.3-0.7-0.7-1.7-0.7c-1.2,0-1.9,0.6-1.9,1.5c0,0.6,0.4,1.1,1.7,2l0.4,0.3
			c1.9,1.3,2.6,2.3,2.6,3.6c0,0.8-0.3,1.8-1.5,2.5c-0.8,0.5-1.7,0.6-2.5,0.6C71.3,98.3,70.6,98.2,69.9,97.9z"/>
		<path class="st1" d="M82,88.2l-2.1,0.1c-0.8,0-1.2,0.1-1.4,0.4c-0.1,0.2-0.2,0.4-0.2,0.5c0,0.1-0.1,0.2-0.2,0.2
			c-0.1,0-0.1-0.1-0.1-0.2c0-0.2,0.3-1.5,0.3-1.6c0-0.2,0.1-0.3,0.2-0.3c0.1,0,0.3,0.1,0.6,0.2c0.4,0,0.9,0.1,1.4,0.1h5.6
			c0.5,0,0.8,0,1-0.1c0.2,0,0.3-0.1,0.4-0.1c0.1,0,0.1,0.1,0.1,0.3c0,0.3,0,1.3,0,1.6c0,0.1,0,0.2-0.1,0.2c-0.1,0-0.1-0.1-0.2-0.3
			l0-0.2c0-0.4-0.4-0.8-1.7-0.8l-1.8,0V94c0,1.3,0,2.4,0.1,3c0,0.4,0.1,0.7,0.6,0.8c0.2,0,0.5,0.1,0.7,0.1c0.2,0,0.2,0,0.2,0.1
			c0,0.1-0.1,0.1-0.3,0.1c-0.9,0-1.8,0-2.2,0c-0.3,0-1.2,0-1.8,0c-0.2,0-0.3,0-0.3-0.1c0-0.1,0.1-0.1,0.2-0.1c0.2,0,0.4,0,0.5-0.1
			c0.3-0.1,0.4-0.4,0.4-0.8c0.1-0.6,0.1-1.7,0.1-3L82,88.2L82,88.2z"/>
		<path class="st1" d="M90.8,91.5c0-2.1,0-2.5,0-3c0-0.5-0.1-0.7-0.6-0.8c-0.1,0-0.4,0-0.6,0c-0.2,0-0.2,0-0.2-0.1
			c0-0.1,0.1-0.1,0.3-0.1c0.4,0,0.8,0,1.1,0c0.4,0,0.7,0,0.9,0c0.5,0,3.3,0,3.5,0c0.3,0,0.5-0.1,0.6-0.1c0.1,0,0.2-0.1,0.2-0.1
			c0.1,0,0.1,0.1,0.1,0.1c0,0.1-0.1,0.3-0.1,0.9c0,0.1,0,0.8-0.1,0.9c0,0.1,0,0.2-0.1,0.2c-0.1,0-0.1-0.1-0.1-0.2
			c0-0.1,0-0.3-0.1-0.5c-0.1-0.3-0.2-0.4-0.9-0.5c-0.2,0-1.7-0.1-2-0.1c-0.1,0-0.1,0-0.1,0.1v3.6c0,0.1,0,0.2,0.1,0.2
			c0.3,0,1.9,0,2.3,0c0.3,0,0.6-0.1,0.7-0.2c0.1-0.1,0.2-0.2,0.2-0.2c0.1,0,0.1,0,0.1,0.1s-0.1,0.3-0.1,1c0,0.3-0.1,0.8-0.1,0.9
			c0,0.1,0,0.3-0.1,0.3c-0.1,0-0.1-0.1-0.1-0.1c0-0.1,0-0.3-0.1-0.5c-0.1-0.3-0.3-0.5-0.8-0.6c-0.3,0-1.7,0-2,0
			c-0.1,0-0.1,0.1-0.1,0.1V94c0,0.5,0,1.8,0,2.2c0,1,0.3,1.2,1.7,1.2c0.4,0,1,0,1.3-0.2c0.4-0.2,0.5-0.5,0.6-1
			c0-0.2,0.1-0.2,0.2-0.2c0.1,0,0.1,0.1,0.1,0.3c0,0.3-0.1,1.3-0.2,1.6c-0.1,0.4-0.2,0.4-0.8,0.4c-1.1,0-1.8,0-2.4,0
			c-0.6,0-1,0-1.5,0c-0.2,0-0.5,0-0.8,0c-0.3,0-0.7,0-1,0c-0.2,0-0.3,0-0.3-0.1c0-0.1,0.1-0.1,0.2-0.1c0.2,0,0.4,0,0.5-0.1
			c0.3-0.1,0.4-0.4,0.4-0.8c0.1-0.6,0.1-1.7,0.1-3L90.8,91.5L90.8,91.5z"/>
		<path class="st1" d="M35,35.5c0,0.3-0.1,0.5-0.1,0.6c0.3,1.6,0.5,3.2,0.8,4.8c0.1,0.3,0.3,0.5,0.6,0.8c0.1,0.1,0.2,0,0.2,0
			C36.9,40,36.4,36.3,35,35.5z M74,35.6c-0.1,0-0.1,0-0.2,0c-0.2,0.3-0.4,0.5-0.6,0.8c-0.7,1.4-0.8,3-0.9,4.6c0,0.2,0.1,0.4,0.1,0.6
			c0,0.1,0.1,0.1,0.2,0.1c0.2-0.2,0.4-0.3,0.5-0.5c0.1-0.1,0.1-0.2,0.1-0.3c0.1-0.2,0.1-0.5,0.2-0.7c0.2-1.2,0.4-2.5,0.6-3.8
			C74.1,36.1,74,35.9,74,35.6z M77.9,31.7c-1.1,0.3-1.9,5-1.9,7.4c0,0.1,0.1,0.1,0.1,0C77,38.1,78.3,32.7,77.9,31.7z M32.9,39.3
			c0,0,0.1,0,0.1,0c0-0.2,0-0.3,0-0.5c-0.1-0.8-0.1-1.7-0.2-2.5c-0.2-1.5-0.5-3-1.3-4.4c-0.1-0.1-0.2-0.2-0.4-0.3
			c0,0.1-0.1,0.3-0.1,0.4c0.1,1,0.2,1.9,0.3,2.9C31.6,36.5,32.2,37.9,32.9,39.3z M29.5,37.9c0-0.2,0-0.4-0.1-0.6
			c-0.1-1-0.3-2-0.4-3.1c-0.3-1.7-0.6-3.3-1-4.9c-0.2-0.7-0.7-1.3-1.1-2c-0.1-0.1-0.3-0.1-0.4-0.2c0,0.1-0.1,0.2-0.1,0.4
			c0.2,1.4,0.4,2.8,0.6,4.2c0.2,1.3,0.3,2.6,0.6,3.9c0.2,1,0.5,2,0.7,3c0.1,0.4,0.5,0.5,0.8,0.2C29.3,38.6,29.6,37.9,29.5,37.9z
			 M82.6,27.7c0-0.2-0.1-0.4-0.1-0.7c-0.2,0.1-0.4,0.3-0.6,0.4c-0.1,0.1-0.2,0.2-0.3,0.4c-0.9,1.5-1.1,3.1-1.4,4.8
			c-0.3,1.6-0.5,3.2-0.7,4.8c0,0.4,0,0.8,0.2,1.2c0.1,0.2,0.4,0.3,0.6,0.3c0.1,0,0.3-0.2,0.4-0.3c0.2-0.4,0.4-0.8,0.4-1.2
			c0.3-1.7,0.5-3.4,0.8-5.1C82.2,30.8,82.4,29.3,82.6,27.7z M22.6,27.6c-0.1,0.5-0.3,0.8-0.3,1.2c-0.2,1.8-0.3,3.6-0.4,5.3
			c-0.2,2.5-0.3,5-0.4,7.5c-0.1,1.6-0.1,3.2,0.6,4.7c1.3,2.8,2.5,5.7,4.3,8.2c1,1.4,2,2.9,3.6,3.7c2.1,1,4.1,2.2,6.2,3.2
			c3.6,1.7,7.3,3.2,10.8,4.9c1.7,0.8,3.3,1.8,4.9,2.8c0.7,0.5,1.3,1.1,2,1.6c0.6,0.5,0.7,0.5,1.3,0c1.3-1.1,2.6-2.3,4.2-3.1
			c3.1-1.5,6.3-3,9.4-4.4c3.4-1.6,6.9-3,10.1-4.9c0.9-0.5,1.8-1.1,2.5-2c2.2-2.8,3.8-5.9,5.2-9.1c0.3-0.7,0.6-1.4,0.8-2.1
			c0.5-1.7,0.2-3.5,0.1-5.3c-0.1-2.3-0.3-4.6-0.4-6.9c-0.1-1.3-0.1-2.5-0.2-3.8c0-0.4-0.2-0.8-0.3-1.2c-0.1-0.4-0.3-0.5-0.6-0.2
			c-0.3,0.4-0.7,0.8-0.8,1.3c-0.3,1.5-0.5,3-0.7,4.6c-0.2,1.5-0.5,3.1-0.8,4.6c-0.3,1.7-0.5,3.4-0.9,5c-0.3,1.4-0.6,2.8-1.1,4.1
			c-0.7,2-2.2,3.4-3.9,4.5c-1.6,0.9-3.2,1.8-4.8,2.6c-0.9,0.4-1.9,0.7-2.8,1c-0.4,0.1-0.6,0-0.7-0.5c-0.3-1.1,0.1-2.1,1-2.6
			c1.4-0.9,2.9-1.6,4.4-2.3c1.6-0.9,3.2-1.8,3.9-3.6c0.4-1,0.7-2,0.3-3.1c-0.1-0.3-0.3-0.5-0.6-0.3c-0.7,0.3-1.5,0.6-2.2,1
			c-1.9,1-3.8,2-5.7,2.9c-2.5,1.2-5,2.4-7.5,3.6c-1.4,0.7-2.6,1.5-3.7,2.6c-1.9,1.8-2.7,4.2-3.4,6.6c-0.4,1.5-0.7,3-1.1,4.5
			c0,0.2-0.1,0.3-0.2,0.6c-0.1-0.2-0.1-0.2-0.1-0.3c-0.6-2.2-1-4.5-1.7-6.7c-0.6-2.1-1.8-4-3.5-5.4c-1.8-1.5-4-2.5-6.1-3.5
			c-2.4-1.1-4.7-2.3-7.1-3.5c-1.9-0.9-3.7-1.9-5.7-2.8c-0.2,0.4-0.3,0.6-0.4,0.9c-0.2,1.7,0.3,3.2,1.5,4.5c1,1.1,2.3,1.7,3.6,2.4
			c1.2,0.6,2.3,1.2,3.4,1.9c1.1,0.7,1.4,1.8,1,2.8c-0.1,0.3-0.3,0.4-0.5,0.3c-0.6-0.1-1.2-0.2-1.7-0.4c-1.6-0.7-3.2-1.5-4.8-2.3
			c-1.1-0.6-2.2-1.4-3.2-2.2c-1.8-1.6-2.6-3.8-3.1-6.1c-0.3-1.8-0.6-3.6-0.9-5.4c-0.5-3.2-1-6.3-1.5-9.5
			C23.9,28.8,23.5,28.1,22.6,27.6z M54.5,52.7c0.1-0.1,0.2-0.1,0.2-0.2c2.1-2.9,5-4.8,8.2-6.3c1.4-0.6,2.8-1.2,4.2-1.7
			c1-0.4,1.5-1.1,1.8-2.1c0.5-1.8,0.9-3.7,1.4-5.6c0.4-1.6,0.8-3.2,1.7-4.6c0.2-0.4,0.5-0.8,0.8-1c0.7-0.5,1.1-1.1,1.5-1.8
			c0.4-0.8,1-1.3,1.8-1.8c0.3-0.2,0.7-0.4,1-0.6c0.8-0.5,1.2-1.2,1.6-2.1c1.2-2.6,3.9-4.2,6.8-3.9c1.9,0.2,3,1.4,3.7,3
			c0.5,1.1,0.6,2.3,0.7,3.5c0.2,2.6,0.4,5.3,0.7,7.9c0.2,3,0.5,5.9,0.3,8.9c-0.1,1.2-0.4,2.3-1,3.3c-2,4-4.2,7.9-6.6,11.6
			c-1,1.6-2.5,2.5-4.1,3.3c-3.1,1.4-6.1,2.7-9.2,4.1c-3,1.3-6,2.6-8.7,4.3c-1.4,0.9-2.8,2-4.2,2.9c-0.5,0.3-0.9,0.7-1.4,1
			c-1,0.6-1.9,0.4-2.8-0.2c-1-0.7-1.8-1.4-2.8-2.1c-1.5-1-3-2-4.6-2.8c-3.3-1.6-6.6-3.1-10-4.6c-2.2-1-4.4-2-6.7-3.1
			c-1.4-0.7-2.6-1.7-3.4-3c-1.5-2.5-3-5.1-4.5-7.6c-0.9-1.6-1.7-3.2-2.4-4.8c-0.4-0.8-0.5-1.8-0.6-2.7c-0.1-1.5,0-3,0.1-4.4
			c0.1-1.6,0.2-3.2,0.4-4.9c0.1-1.6,0.3-3.3,0.4-4.9c0.1-1.1,0.2-2.3,0.3-3.4c0.1-1.3,0.5-2.4,1.2-3.5c1.1-1.6,2.7-2,4.6-1.8
			c2,0.3,3.6,1.3,4.8,3c0.2,0.3,0.5,0.7,0.6,1.1c0.4,1,1.1,1.7,2,2.2c1.2,0.6,2.1,1.5,2.7,2.7c0.2,0.4,0.6,0.8,1,1.1
			c0.8,0.6,1.2,1.5,1.5,2.4c0.6,2,1.1,3.9,1.7,5.9c0.3,1.1,0.6,2.3,1,3.4c0.3,0.8,0.8,1.3,1.6,1.6c2.5,0.9,5,2,7.2,3.4
			c2,1.2,3.7,2.8,5.2,4.6C54.3,52.5,54.4,52.6,54.5,52.7z"/>
		<path class="st1" d="M65.2,40c0-0.1,0-0.2,0-0.3c0-4.4,0-8.8,0-13.2c0-0.2-0.1-0.4-0.3-0.5c-3.4-2.2-6.7-4.5-10.1-6.7
			c-0.3-0.2-0.5-0.2-0.7,0c-3.4,2.2-6.7,4.5-10.1,6.7c-0.2,0.1-0.3,0.4-0.3,0.6c0,4.3,0,8.6,0,12.9c0,0.4,0.1,0.5,0.5,0.5
			c1.6,0,3.2,0,4.8,0c0.4,0,0.5-0.1,0.5-0.5c0-1.8,0-3.5,0-5.3c0-0.5,0.2-0.6,0.6-0.6c2.5,0,5.1,0,7.6,0c0.5,0,1.1-0.1,1.3,0.1
			c0.2,0.3,0.1,0.9,0.1,1.4c0,1.5,0,3,0,4.5c0,0.2-0.1,0.5,0.3,0.5C61.5,40,63.3,40,65.2,40z M68.1,28c0,0.2,0,0.4,0,0.5
			c0,4.5,0,9,0,13.4c0,0.6,0,0.7-0.7,0.7c-8.6,0-17.3,0-25.9,0c-0.6,0-0.7,0-0.7-0.7c0-4.5,0-14.2,0-14.2s-1,0.7-1.5,1
			c-0.3,0.2-0.5,0.2-0.7,0c-0.8-0.9-1.6-1.9-2.4-2.8c-0.3-0.3-0.2-0.5,0.1-0.7c2.5-1.6,16.7-11.1,17.9-11.9c0.1-0.1,0.4-0.1,0.5,0
			c2.7,1.8,17.3,11.5,17.9,11.9c0.3,0.2,0.3,0.4,0.1,0.6c-0.8,0.9-1.6,1.9-2.4,2.8c-0.2,0.3-0.4,0.3-0.7,0.1
			c-0.4-0.3-0.9-0.6-1.4-0.9C68.2,27.9,68.2,27.9,68.1,28z"/>
	</g>
</g>
</svg>
