<svg width="84" height="85" viewBox="0 0 84 85" fill="none" xmlns="http://www.w3.org/2000/svg">
<g clip-path="url(#clip0)">
<path d="M3.20718 80.7135C3.20718 82.068 3.20718 83.1271 3.27969 83.7179C3.32432 84.1249 3.40799 84.437 3.83192 84.4927C4.02715 84.5206 4.33952 84.5485 4.54033 84.5485C4.72441 84.5485 4.78019 84.5931 4.78019 84.66C4.78019 84.7603 4.67978 84.7993 4.46782 84.7993C3.58091 84.7993 2.68842 84.7603 2.32027 84.7603C1.95211 84.7603 1.0652 84.7993 0.529709 84.7993C0.334477 84.7993 0.234072 84.7715 0.234072 84.66C0.234072 84.5875 0.289852 84.5485 0.446038 84.5485C0.658004 84.5485 0.825346 84.5206 0.953641 84.4927C1.23812 84.437 1.30506 84.1249 1.36084 83.7179C1.43335 83.1271 1.43335 82.068 1.43335 80.7135V78.233C1.43335 76.087 1.43335 75.6968 1.40546 75.2453C1.37757 74.7659 1.26601 74.5373 0.797456 74.4426C0.685894 74.4147 0.446038 74.398 0.245228 74.398C0.105776 74.398 0.00537109 74.3701 0.00537109 74.2865C0.00537109 74.175 0.116932 74.1472 0.328899 74.1472C0.697051 74.1472 1.10425 74.1583 1.4724 74.1583C1.84055 74.1694 2.16408 74.1862 2.35931 74.1862C2.89481 74.1862 5.76193 74.1862 6.08546 74.1694C6.3532 74.1583 6.52054 74.1583 6.66557 74.1137C6.74924 74.0858 6.82176 74.0301 6.8887 74.0301C6.94448 74.0301 6.9891 74.0858 6.9891 74.1583C6.9891 74.2586 6.91659 74.4259 6.87754 74.7937C6.86081 74.9331 6.83292 75.7692 6.80503 75.9364C6.79387 76.0479 6.7604 76.1371 6.66557 76.1371C6.56517 76.1371 6.53728 76.0647 6.52612 75.9142C6.52612 75.8027 6.52612 75.5741 6.44245 75.379C6.34205 75.1784 6.04641 74.9721 5.51092 74.9554L3.33547 74.9108C3.2518 74.9108 3.20718 74.9554 3.20718 75.1059V78.6343C3.20718 78.7179 3.22391 78.7625 3.30758 78.7625L5.11487 78.7458C5.35473 78.7458 5.54996 78.7458 5.75077 78.7291C6.01852 78.7124 6.21933 78.6566 6.35878 78.4727C6.4313 78.3891 6.45919 78.3333 6.54286 78.3333C6.59864 78.3333 6.62653 78.3779 6.62653 78.4615C6.62653 78.5451 6.55401 78.9019 6.51497 79.3367C6.48708 79.621 6.45919 80.2675 6.45919 80.3679C6.45919 80.4961 6.45919 80.6354 6.31973 80.6354C6.23606 80.6354 6.20817 80.5351 6.20817 80.4403C6.20817 80.34 6.18028 80.1728 6.1245 80C6.05199 79.8049 5.84002 79.5485 5.40493 79.4927C5.05351 79.4482 3.55302 79.4482 3.31316 79.4482C3.24065 79.4482 3.21276 79.476 3.21276 79.5764V80.7135H3.20718Z" fill="#575756"/>
<path d="M18.6919 79.738C18.6919 76.5775 16.8735 74.6154 14.5586 74.6154C12.9354 74.6154 11.0835 75.5184 11.0835 79.0301C11.0835 81.9621 12.7067 84.2921 15.4176 84.2921C16.4049 84.2921 18.6919 83.8127 18.6919 79.738ZM9.13672 79.4705C9.13672 77.0569 10.732 73.9409 14.9658 73.9409C18.48 73.9409 20.6666 75.9866 20.6666 79.2196C20.6666 82.4526 18.4075 85.0056 14.8208 85.0056C10.7711 85 9.13672 81.9677 9.13672 79.4705Z" fill="#575756"/>
<path d="M22.5518 75.5184C22.2283 74.7436 21.9884 74.5875 21.4808 74.4482C21.2688 74.3924 21.0457 74.3924 20.9286 74.3924C20.8003 74.3924 20.7612 74.3478 20.7612 74.2642C20.7612 74.1527 20.9174 74.136 21.1294 74.136C21.8768 74.136 22.6801 74.1806 23.1765 74.1806C23.5279 74.1806 24.2085 74.136 24.9113 74.136C25.0786 74.136 25.2348 74.1639 25.2348 74.2642C25.2348 74.3646 25.1512 74.3924 25.0229 74.3924C24.7942 74.3924 24.5878 74.4091 24.4706 74.4928C24.3702 74.5652 24.3312 74.66 24.3312 74.7882C24.3312 74.9721 24.4595 75.3679 24.6547 75.8751L27.0812 82.2798H27.137C27.745 80.7302 29.5801 76.1873 29.9204 75.2564C29.9929 75.0725 30.0487 74.8607 30.0487 74.7325C30.0487 74.621 29.9929 74.5095 29.8646 74.4649C29.6973 74.4091 29.4853 74.3924 29.3012 74.3924C29.1729 74.3924 29.0614 74.3757 29.0614 74.2809C29.0614 74.1695 29.1897 74.1416 29.4574 74.1416C30.1658 74.1416 30.7571 74.1862 30.9412 74.1862C31.181 74.1862 31.8448 74.1416 32.2688 74.1416C32.4528 74.1416 32.5644 74.1695 32.5644 74.2698C32.5644 74.3701 32.4807 74.398 32.3413 74.398C32.2018 74.398 31.9062 74.398 31.6496 74.5652C31.4655 74.6934 31.2536 74.9331 30.8743 75.8361C30.322 77.1628 29.9427 77.9264 29.1785 79.66C28.2749 81.7168 27.6111 83.2553 27.2987 83.9632C26.9306 84.7826 26.8469 85.0056 26.6517 85.0056C26.4676 85.0056 26.3839 84.8049 26.1162 84.1472L22.5518 75.5184Z" fill="#575756"/>
<path d="M34.9126 78.2274C34.9126 76.0814 34.9126 75.6912 34.8848 75.2397C34.8569 74.7603 34.7174 74.5206 34.405 74.4482C34.2489 74.4036 34.0648 74.3924 33.8974 74.3924C33.758 74.3924 33.6743 74.3646 33.6743 74.2531C33.6743 74.1695 33.7859 74.1416 34.0146 74.1416C34.5501 74.1416 35.4426 74.1862 35.8498 74.1862C36.2012 74.1862 37.0379 74.1416 37.5734 74.1416C37.7575 74.1416 37.869 74.1695 37.869 74.2531C37.869 74.3646 37.7853 74.3924 37.6403 74.3924C37.5009 74.3924 37.3837 74.4091 37.2164 74.437C36.8371 74.5095 36.7199 74.7492 36.692 75.2397C36.6642 75.6912 36.6642 76.087 36.6642 78.2274V80.7079C36.6642 82.0792 36.6642 83.1884 36.7199 83.796C36.7646 84.175 36.8594 84.4314 37.2833 84.4872C37.4785 84.5151 37.7909 84.5429 38.0029 84.5429C38.1591 84.5429 38.226 84.5875 38.226 84.6544C38.226 84.7547 38.1145 84.7938 37.9583 84.7938C37.0267 84.7938 36.1342 84.7547 35.7549 84.7547C35.4314 84.7547 34.5389 84.7938 33.9755 84.7938C33.7915 84.7938 33.6911 84.7547 33.6911 84.6544C33.6911 84.5819 33.7468 84.5429 33.9198 84.5429C34.1317 84.5429 34.2991 84.5151 34.4274 84.4872C34.7118 84.4314 34.7955 84.1918 34.8346 83.7793C34.9071 83.1884 34.9071 82.0736 34.9071 80.7023V78.2274H34.9126Z" fill="#575756"/>
<path d="M40.29 84.6321C40.039 84.5318 39.9888 84.4649 39.9888 84.1527C39.9888 83.3779 40.0501 82.5307 40.0669 82.3021C40.0836 82.0903 40.1282 81.9342 40.2565 81.9342C40.396 81.9342 40.4127 82.0624 40.4127 82.1739C40.4127 82.3579 40.4741 82.6533 40.5522 82.893C40.898 83.9353 41.8295 84.32 42.8057 84.32C44.2225 84.32 44.9198 83.4615 44.9198 82.7146C44.9198 82.0234 44.6855 81.3768 43.3747 80.4571L42.6495 79.9498C40.9147 78.7347 40.3179 77.7481 40.3179 76.6054C40.3179 75.0557 41.7682 73.9409 43.9604 73.9409C44.9867 73.9409 45.6505 74.0803 46.0577 74.1806C46.1972 74.2085 46.2808 74.2531 46.2808 74.3478C46.2808 74.5318 46.2195 74.9387 46.2195 76.0424C46.2195 76.3545 46.1748 76.466 46.0466 76.466C45.935 76.466 45.8904 76.3824 45.8904 76.2152C45.8904 76.087 45.8123 75.6522 45.4776 75.2843C45.2433 75.0167 44.7859 74.5931 43.7595 74.5931C42.5937 74.5931 41.8853 75.2007 41.8853 76.0479C41.8853 76.6945 42.2479 77.1906 43.5587 78.0769L43.9994 78.3724C45.9071 79.6544 46.5876 80.6299 46.5876 81.9677C46.5876 82.7871 46.2418 83.757 45.1039 84.4203C44.3173 84.8718 43.4304 85 42.5937 85C41.6789 85 40.9705 84.8997 40.29 84.6321Z" fill="#575756"/>
<path d="M48.7631 84.6321C48.5121 84.5318 48.4619 84.4649 48.4619 84.1527C48.4619 83.3779 48.5233 82.5307 48.54 82.3021C48.5567 82.0903 48.6014 81.9342 48.7297 81.9342C48.8691 81.9342 48.8858 82.0624 48.8858 82.1739C48.8858 82.3579 48.9472 82.6533 49.0253 82.893C49.3711 83.9353 50.3027 84.32 51.2788 84.32C52.6957 84.32 53.3929 83.4615 53.3929 82.7146C53.3929 82.0234 53.1586 81.3768 51.8478 80.4571L51.1227 79.9498C49.3879 78.7347 48.791 77.7481 48.791 76.6054C48.791 75.0557 50.2413 73.9409 52.4335 73.9409C53.4599 73.9409 54.1237 74.0803 54.5309 74.1806C54.6703 74.2085 54.754 74.2531 54.754 74.3478C54.754 74.5318 54.6926 74.9387 54.6926 76.0424C54.6926 76.3545 54.648 76.466 54.5197 76.466C54.4081 76.466 54.3635 76.3824 54.3635 76.2152C54.3635 76.087 54.2854 75.6522 53.9563 75.2843C53.722 75.0167 53.2646 74.5931 52.2383 74.5931C51.0725 74.5931 50.364 75.2007 50.364 76.0479C50.364 76.6945 50.7266 77.1906 52.0375 78.0769L52.4781 78.3724C54.3858 79.6544 55.0663 80.6299 55.0663 81.9677C55.0663 82.7871 54.7205 83.757 53.5826 84.4203C52.7961 84.8718 51.9092 85 51.0724 85C50.1521 85 49.4437 84.8997 48.7631 84.6321Z" fill="#575756"/>
<path d="M57.4204 84.6321C57.1693 84.5318 57.1191 84.4649 57.1191 84.1527C57.1191 83.3779 57.1805 82.5307 57.1972 82.3021C57.214 82.0903 57.2586 81.9342 57.3869 81.9342C57.5319 81.9342 57.5431 82.0624 57.5431 82.1739C57.5431 82.3579 57.6044 82.6533 57.6825 82.893C58.0284 83.9353 58.9599 84.32 59.9361 84.32C61.3529 84.32 62.0501 83.4615 62.0501 82.7146C62.0501 82.0234 61.8159 81.3768 60.505 80.4571L59.7799 79.9498C58.0451 78.7347 57.4427 77.7481 57.4427 76.6054C57.4427 75.0557 58.893 73.9409 61.0851 73.9409C62.1115 73.9409 62.7697 74.0803 63.1825 74.1806C63.3219 74.2085 63.4056 74.2531 63.4056 74.3478C63.4056 74.5318 63.3443 74.9387 63.3443 76.0424C63.3443 76.3545 63.2996 76.466 63.1713 76.466C63.0598 76.466 63.0151 76.3824 63.0151 76.2152C63.0151 76.087 62.9371 75.6522 62.6024 75.2843C62.3681 75.0167 61.9107 74.5931 60.8843 74.5931C59.7185 74.5931 59.0045 75.2007 59.0045 76.0479C59.0045 76.6945 59.3671 77.1906 60.6779 78.0769L61.1186 78.3724C63.0263 79.6544 63.7068 80.6299 63.7068 81.9677C63.7068 82.7871 63.361 83.757 62.2231 84.4203C61.4366 84.8718 60.5496 85 59.7129 85C58.8093 85 58.1009 84.8997 57.4204 84.6321Z" fill="#575756"/>
<path d="M69.4965 74.9275L67.3936 74.9833C66.5736 75.0112 66.239 75.0836 66.0214 75.3902C65.882 75.602 65.8094 75.7692 65.7816 75.8863C65.7537 75.9978 65.709 76.0535 65.6254 76.0535C65.525 76.0535 65.4971 75.981 65.4971 75.8305C65.4971 75.602 65.7648 74.32 65.7927 74.2085C65.8373 74.0245 65.8764 73.9409 65.9601 73.9409C66.0716 73.9409 66.2166 74.0803 66.5681 74.1081C66.9753 74.1527 67.5163 74.1806 67.9793 74.1806H73.5685C74.0203 74.1806 74.3327 74.136 74.5447 74.1081C74.7566 74.0691 74.8682 74.0357 74.924 74.0357C75.0244 74.0357 75.0356 74.1193 75.0356 74.3311C75.0356 74.6265 74.9909 75.602 74.9909 75.9699C74.9798 76.1093 74.9519 76.1929 74.8626 76.1929C74.7511 76.1929 74.7232 76.1204 74.7064 75.9086L74.6897 75.7525C74.6618 75.3846 74.2825 74.9889 73.0219 74.961L71.2425 74.922V80.7079C71.2425 82.0067 71.2425 83.1215 71.315 83.7291C71.3596 84.1249 71.4433 84.437 71.8672 84.4928C72.0624 84.5206 72.3748 84.5485 72.5868 84.5485C72.743 84.5485 72.8099 84.5931 72.8099 84.66C72.8099 84.7603 72.6983 84.7993 72.5422 84.7993C71.6106 84.7993 70.7237 84.7603 70.3277 84.7603C70.0041 84.7603 69.1117 84.7993 68.5483 84.7993C68.3642 84.7993 68.2638 84.7603 68.2638 84.66C68.2638 84.5875 68.3196 84.5485 68.4869 84.5485C68.6989 84.5485 68.8662 84.5206 68.9945 84.4928C69.279 84.437 69.3627 84.1249 69.4017 83.7179C69.4742 83.1271 69.4742 82.0123 69.4742 80.7135V74.9275H69.4965Z" fill="#575756"/>
<path d="M78.2991 78.2274C78.2991 76.0814 78.2991 75.6912 78.2712 75.2397C78.2433 74.7603 78.1317 74.5318 77.6632 74.437C77.5516 74.4091 77.3118 74.3924 77.111 74.3924C76.9548 74.3924 76.8711 74.3645 76.8711 74.2642C76.8711 74.1639 76.9715 74.136 77.1835 74.136C77.5628 74.136 77.9756 74.1472 78.327 74.1472C78.6951 74.1583 79.0186 74.175 79.2139 74.175C79.6657 74.175 82.4771 74.175 82.7448 74.1583C83.0125 74.1304 83.2412 74.1026 83.3528 74.0747C83.4253 74.0635 83.509 74.019 83.5759 74.019C83.6484 74.019 83.6596 74.0747 83.6596 74.1472C83.6596 74.2475 83.5871 74.4147 83.548 75.0613C83.5313 75.2007 83.5034 75.825 83.4755 75.9922C83.4588 76.0647 83.4309 76.1483 83.3361 76.1483C83.2357 76.1483 83.2078 76.0758 83.2078 75.9532C83.2078 75.8528 83.191 75.6132 83.1241 75.4459C83.0237 75.1895 82.8843 75.0223 82.1758 74.9387C81.936 74.9108 80.4522 74.8829 80.1733 74.8829C80.1008 74.8829 80.0729 74.9275 80.0729 75.0223V78.5898C80.0729 78.6901 80.0896 78.7458 80.1733 78.7458C80.4857 78.7458 82.1089 78.7458 82.4324 78.718C82.7727 78.6901 82.9847 78.6455 83.113 78.5061C83.2134 78.3947 83.2691 78.3222 83.3361 78.3222C83.3919 78.3222 83.4365 78.3501 83.4365 78.4337C83.4365 78.5173 83.3807 78.7458 83.3249 79.4649C83.3082 79.7492 83.2691 80.3122 83.2691 80.4125C83.2691 80.524 83.2691 80.6801 83.1408 80.6801C83.0404 80.6801 83.0126 80.6243 83.0126 80.5518C82.9958 80.4125 82.9958 80.2285 82.9568 80.0446C82.8843 79.7603 82.689 79.5485 82.1647 79.4928C81.8969 79.4649 80.4968 79.4482 80.1622 79.4482C80.0896 79.4482 80.0785 79.5039 80.0785 79.5875V80.7023C80.0785 81.1817 80.0617 82.4805 80.0785 82.8874C80.1064 83.8629 80.3351 84.0747 81.7742 84.0747C82.1424 84.0747 82.7336 84.0747 83.1018 83.9075C83.4699 83.7402 83.6373 83.4448 83.7377 82.8651C83.7656 82.709 83.7935 82.6533 83.8939 82.6533C84.0054 82.6533 84.0054 82.7648 84.0054 82.9097C84.0054 83.233 83.8939 84.1918 83.8214 84.476C83.721 84.8439 83.5927 84.8439 83.0572 84.8439C81.9973 84.8439 81.222 84.8161 80.614 84.7993C80.006 84.7715 79.5709 84.7603 79.1469 84.7603C78.9908 84.7603 78.6784 84.7603 78.3437 84.777C78.0202 84.777 77.652 84.8049 77.3675 84.8049C77.1835 84.8049 77.0831 84.7659 77.0831 84.6656C77.0831 84.5931 77.1388 84.5541 77.3062 84.5541C77.5181 84.5541 77.6855 84.5262 77.8138 84.4983C78.0983 84.4426 78.1652 84.1304 78.221 83.7235C78.2935 83.1327 78.2935 82.0178 78.2935 80.7191V78.2274H78.2991Z" fill="#575756"/>
<path d="M22.5132 22.2241C22.4909 22.4805 22.4351 22.6756 22.463 22.8595C22.714 24.4704 22.9483 26.0814 23.2607 27.6811C23.3164 27.9599 23.573 28.194 23.8241 28.4894C23.8798 28.5563 23.997 28.534 24.0137 28.4448C24.3763 26.7335 23.8464 23.0044 22.5132 22.2241ZM61.4871 22.3411C61.4202 22.33 61.3532 22.3188 61.2863 22.3021C61.0966 22.5752 60.8679 22.8372 60.7173 23.1326C59.9978 24.5708 59.8918 26.1427 59.836 27.709C59.8304 27.8985 59.9029 28.0881 59.9643 28.2776C59.9922 28.3612 60.0982 28.3891 60.1651 28.3333C60.3436 28.1717 60.5277 28.01 60.695 27.8372C60.7675 27.7648 60.7675 27.6254 60.7954 27.5251C60.8624 27.2965 60.9293 27.0736 60.9739 26.8395C61.1971 25.5908 61.3979 24.3367 61.5596 23.0769C61.5931 22.8372 61.515 22.5864 61.4871 22.3411ZM65.4196 18.3668C64.3375 18.6789 63.5175 23.3891 63.5677 25.8082C63.5677 25.8751 63.6514 25.903 63.696 25.8528C64.516 24.8383 65.8101 19.4036 65.4196 18.3668ZM20.3657 26.0368C20.4103 26.0256 20.4549 26.0201 20.4995 26.0089C20.4995 25.8528 20.5107 25.6968 20.4995 25.5407C20.427 24.7046 20.3824 23.8684 20.2708 23.0435C20.0644 21.5162 19.7688 20.0056 18.9935 18.6399C18.9265 18.5228 18.7648 18.4615 18.642 18.3779C18.6086 18.5117 18.5361 18.651 18.5528 18.7792C18.6588 19.738 18.7926 20.6968 18.893 21.6611C19.0492 23.2386 19.713 24.6321 20.3657 26.0368ZM17.0188 24.5485C16.9965 24.3367 16.9798 24.1248 16.9463 23.913C16.8013 22.893 16.6841 21.8673 16.5056 20.8528C16.2044 19.1973 15.9311 17.5306 15.5127 15.903C15.3342 15.2007 14.8266 14.5819 14.4418 13.9465C14.3804 13.8461 14.1684 13.8406 14.0234 13.7848C13.9844 13.9019 13.9007 14.0245 13.9174 14.136C14.1015 15.5295 14.2967 16.9231 14.4864 18.3222C14.6705 19.6377 14.8155 20.9532 15.0553 22.2575C15.245 23.2832 15.5183 24.2921 15.8028 25.2954C15.9255 25.7358 16.2658 25.8361 16.5893 25.524C16.8347 25.2954 17.0579 24.5708 17.0188 24.5485ZM70.1219 14.437C70.0773 14.2308 70.0271 14.0022 69.9769 13.7737C69.7705 13.9075 69.553 14.0301 69.3689 14.1862C69.2629 14.2753 69.1904 14.4203 69.1123 14.5485C68.2143 16.0089 67.9911 17.6756 67.7178 19.3199C67.4501 20.9197 67.2325 22.5251 67.0373 24.1304C66.9927 24.515 67.0763 24.9442 67.2102 25.3121C67.2716 25.4849 67.5839 25.6187 67.8015 25.6522C67.9186 25.6689 68.1306 25.4626 68.1975 25.3177C68.376 24.9164 68.5657 24.5039 68.6382 24.0747C68.9282 22.369 69.1793 20.6522 69.4358 18.9409C69.6646 17.4526 69.8877 15.9643 70.1219 14.437ZM10.0797 14.2642C9.957 14.7157 9.79523 15.0836 9.75619 15.4626C9.6 17.2408 9.46055 19.0189 9.34341 20.8027C9.18165 23.3054 9.03104 25.8082 8.89716 28.311C8.81349 29.9164 8.80792 31.5106 9.51633 33.0323C10.8272 35.8528 12.0432 38.7179 13.8616 41.2709C14.8824 42.709 15.8418 44.1694 17.4874 45C19.5624 46.0479 21.5928 47.2018 23.7013 48.1828C27.2936 49.8551 30.9584 51.3768 34.5395 53.0769C36.2352 53.8796 37.825 54.9164 39.4147 55.9197C40.1287 56.3712 40.7033 57.0345 41.3726 57.5585C41.9862 58.0379 42.1089 58.0323 42.6891 57.5195C43.9943 56.3712 45.294 55.1951 46.867 54.4258C49.9852 52.9041 53.1256 51.427 56.2828 49.9833C59.6966 48.4225 63.1773 47.0011 66.4125 45.0724C67.3273 44.5262 68.2143 43.9297 68.878 43.0658C71.0312 40.2675 72.6711 37.1739 74.0935 33.9576C74.3892 33.2831 74.6792 32.6031 74.88 31.8952C75.3709 30.1505 75.092 28.3723 75.0139 26.6109C74.9079 24.3199 74.7517 22.029 74.6123 19.7436C74.5342 18.4838 74.4728 17.2241 74.3724 15.9643C74.339 15.5463 74.2051 15.1282 74.0991 14.7157C73.9987 14.3422 73.7588 14.2419 73.5134 14.5596C73.1955 14.9665 72.7938 15.3902 72.699 15.864C72.3922 17.369 72.2137 18.9019 71.9739 20.418C71.7284 21.9565 71.4663 23.4894 71.2097 25.0223C70.9252 26.7001 70.6853 28.3946 70.3339 30.0557C70.0383 31.4437 69.7148 32.8372 69.2239 34.1639C68.4932 36.1371 67.054 37.6031 65.2802 38.6845C63.7295 39.6265 62.123 40.4905 60.4886 41.282C59.6017 41.7112 58.6088 41.9398 57.655 42.2352C57.2701 42.3523 57.0247 42.2241 56.9131 41.767C56.6342 40.6299 56.9856 39.699 57.9395 39.1248C59.3507 38.272 60.8456 37.5474 62.3071 36.7781C63.9191 35.9253 65.4643 35.0111 66.1671 33.1828C66.5576 32.1739 66.8421 31.165 66.5074 30.0724C66.4014 29.7269 66.2564 29.5596 65.8715 29.738C65.1296 30.078 64.3542 30.3567 63.6235 30.7246C61.7047 31.6889 59.8193 32.7146 57.8948 33.6678C55.4126 34.8997 52.9025 36.0591 50.4202 37.2965C49.048 37.9766 47.7874 38.835 46.6829 39.9108C44.8087 41.728 43.9608 44.0858 43.2971 46.5161C42.8899 48.0156 42.5775 49.5429 42.2205 51.0591C42.1814 51.2319 42.0922 51.3991 41.9918 51.6666C41.9137 51.4883 41.8802 51.4381 41.8691 51.3768C41.3113 49.1583 40.8204 46.9175 40.1789 44.7157C39.5598 42.5864 38.4107 40.7413 36.6759 39.2976C34.8407 37.7648 32.682 36.806 30.5568 35.7748C28.1973 34.6321 25.8433 33.4727 23.4949 32.3077C21.6207 31.3824 19.7521 30.4403 17.8165 29.4704C17.6547 29.8606 17.4874 30.1003 17.4595 30.3623C17.2587 32.0736 17.7942 33.5674 18.9377 34.8328C19.9417 35.9364 21.2805 36.544 22.5857 37.2018C23.7515 37.7926 24.9229 38.3891 26.033 39.0747C27.1207 39.7491 27.4665 40.8695 27.0816 41.9231C26.9812 42.1962 26.8306 42.3021 26.5685 42.2408C26.0107 42.1237 25.4138 42.0736 24.9006 41.845C23.2886 41.1148 21.6709 40.3846 20.137 39.5206C19.0158 38.8907 17.9392 38.1382 16.9742 37.2854C15.1669 35.68 14.3581 33.5117 13.9118 31.204C13.566 29.4203 13.2759 27.6254 12.9859 25.8305C12.4839 22.6756 12.0041 19.515 11.5021 16.3656C11.3515 15.5072 10.961 14.7882 10.0797 14.2642ZM41.9751 39.3478C42.0699 39.2698 42.1536 39.2196 42.2093 39.1471C44.3569 36.2653 47.224 34.3144 50.4314 32.8205C51.8092 32.1795 53.226 31.6109 54.654 31.0925C55.6692 30.7246 56.1768 29.9721 56.439 29.0245C56.9466 27.1795 57.3872 25.3177 57.8837 23.4671C58.302 21.884 58.726 20.301 59.5571 18.8684C59.7746 18.495 60.0536 18.1104 60.3938 17.8539C61.0464 17.3634 61.5038 16.7335 61.8608 16.0312C62.2625 15.2397 62.8816 14.6823 63.6291 14.2363C63.9638 14.0357 64.2985 13.8183 64.6331 13.6176C65.4364 13.1382 65.8603 12.3801 66.2452 11.5607C67.4724 8.95762 70.1721 7.3467 73.0449 7.63655C74.9191 7.82607 76.0737 8.99107 76.771 10.6689C77.234 11.7893 77.3734 12.971 77.4683 14.1694C77.6746 16.8004 77.9145 19.4314 78.1265 22.0624C78.3663 25.0223 78.5894 27.9821 78.4388 30.9532C78.3775 32.1349 77.9982 33.2218 77.4738 34.2753C75.4936 38.272 73.2903 42.1404 70.875 45.8974C69.8598 47.4749 68.3872 48.4392 66.7361 49.1806C63.6737 50.5574 60.6002 51.9119 57.5267 53.2776C54.5592 54.5931 51.5693 55.8695 48.797 57.5752C47.3523 58.4671 46.008 59.5373 44.6191 60.5184C44.1505 60.8472 43.6819 61.1817 43.1911 61.4827C42.2261 62.0736 41.2945 61.8562 40.4355 61.2486C39.4817 60.5797 38.6003 59.8105 37.6242 59.175C36.1125 58.194 34.6176 57.1683 33.0055 56.3768C29.7256 54.7714 26.3788 53.311 23.0543 51.7893C20.8342 50.7748 18.6141 49.7659 16.3997 48.7347C14.9605 48.0658 13.8226 47.0513 13.0138 45.6856C11.5077 43.1494 9.97931 40.6299 8.53459 38.0658C7.65326 36.4994 6.83886 34.8829 6.12487 33.233C5.76787 32.408 5.5838 31.466 5.53917 30.563C5.46666 29.0914 5.52802 27.6087 5.60611 26.1371C5.68978 24.515 5.84039 22.8985 5.97426 21.282C6.10814 19.6321 6.26432 17.9821 6.40377 16.3322C6.4986 15.1895 6.55996 14.0412 6.68268 12.9041C6.81655 11.6499 7.1847 10.4626 7.93216 9.42585C9.06451 7.85952 10.6487 7.40801 12.495 7.66442C14.5143 7.94871 16.065 8.99107 17.2475 10.6187C17.4874 10.9476 17.7049 11.3099 17.8444 11.6889C18.2181 12.7034 18.9154 13.4114 19.8469 13.8963C21.0406 14.515 21.8996 15.4236 22.5299 16.6109C22.7642 17.0568 23.177 17.4359 23.573 17.7592C24.3484 18.3946 24.7891 19.2363 25.0735 20.1393C25.6927 22.0959 26.217 24.0691 26.7748 26.0368C27.104 27.185 27.394 28.3445 27.7566 29.4816C28.0076 30.262 28.5487 30.8138 29.3575 31.0925C31.8899 31.9621 34.3275 33.0435 36.6034 34.4593C38.6003 35.7023 40.3518 37.2185 41.7743 39.1025C41.8356 39.1806 41.897 39.253 41.9751 39.3478Z" fill="#575756"/>
<path d="M52.7125 26.6611C52.7292 26.5217 52.7515 26.4437 52.7515 26.3657C52.7515 21.9677 52.7571 17.5697 52.7403 13.1661C52.7403 12.9933 52.5953 12.7592 52.4503 12.6589C49.0867 10.4125 45.712 8.18283 42.3428 5.93087C42.0584 5.74135 41.8799 5.7525 41.6121 5.93645C38.2597 8.17725 34.9017 10.4013 31.5549 12.6477C31.3875 12.7592 31.2425 13.0435 31.2425 13.2441C31.2258 17.5474 31.2369 21.845 31.2258 26.1483C31.2258 26.5663 31.3708 26.6722 31.7724 26.6667C33.3845 26.6444 34.991 26.6444 36.603 26.6667C37.0325 26.6722 37.1274 26.5217 37.1274 26.126C37.1106 24.3534 37.1329 22.5808 37.1162 20.8082C37.1106 20.3456 37.2668 20.1839 37.7521 20.1895C40.2957 20.2118 42.8449 20.2007 45.3885 20.2062C45.8459 20.2062 46.4929 20.0669 46.7049 20.3066C46.9503 20.5797 46.8332 21.1984 46.8332 21.6611C46.8443 23.1717 46.8332 24.6823 46.8388 26.1929C46.8388 26.4103 46.7774 26.6722 47.1567 26.6667C48.9919 26.6555 50.8271 26.6611 52.7125 26.6611ZM55.6186 14.6655C55.6186 14.8439 55.6186 15.0167 55.6186 15.1951C55.6186 19.6767 55.6186 24.1583 55.6186 28.6399C55.6186 29.2698 55.574 29.3199 54.9493 29.3199C46.3088 29.3199 37.6684 29.3199 29.028 29.3199C28.4033 29.3199 28.3698 29.2865 28.3698 28.6455C28.3698 24.1137 28.3475 14.4593 28.3475 14.4593C28.3475 14.4593 27.31 15.1449 26.8637 15.4682C26.6071 15.6577 26.4119 15.68 26.1888 15.4236C25.3855 14.4927 24.5767 13.5674 23.7567 12.6477C23.489 12.3523 23.528 12.1572 23.8572 11.9398C26.3338 10.301 40.5523 0.813817 41.7516 0.0445861C41.8743 -0.0334518 42.1476 -0.00558109 42.2759 0.078031C45.0036 1.8729 59.6181 11.5998 60.1815 11.9621C60.4771 12.1516 60.4883 12.3356 60.254 12.5975C59.4396 13.5173 58.6308 14.4482 57.8331 15.379C57.61 15.641 57.4036 15.6745 57.1135 15.4738C56.6673 15.1561 56.1987 14.8662 55.7413 14.5652C55.7079 14.5987 55.6632 14.6321 55.6186 14.6655Z" fill="#575756"/>
</g>
<defs>
<clipPath id="clip0">
<rect width="84" height="85" fill="white"/>
</clipPath>
</defs>
</svg>
