<svg width="166" height="48" viewBox="0 0 166 48" fill="none" xmlns="http://www.w3.org/2000/svg">
<path d="M39.6536 5.32315C41.048 5.0617 42.849 4.85515 44.7934 4.85515C46.8263 4.85515 48.3354 5.1166 49.6438 5.90619C50.9496 6.57812 51.9088 7.83309 51.9088 9.49592C51.9088 11.9771 50.0791 13.5537 47.9601 14.1681V14.2544C49.8471 14.8374 51.0382 16.3852 51.0382 18.5448C51.0382 20.6469 49.9071 22.1947 48.3667 23.2169C46.7117 24.3255 44.2434 24.8222 40.9907 24.8222C38.7831 24.8222 37.0133 24.6471 36.0542 24.4431L39.6536 5.32315ZM40.7014 21.4391C41.194 21.4966 41.6892 21.5253 42.2991 21.5253C44.564 21.5253 46.6257 20.6207 46.6257 18.4297C46.6257 16.4741 44.9993 15.891 43.0523 15.891H41.7465L40.7014 21.4391ZM42.3851 12.8268H43.7795C46.0731 12.8268 47.6421 11.8333 47.6421 10.1705C47.6421 8.74033 46.4797 8.12591 44.882 8.12591C44.1548 8.12591 43.5762 8.18343 43.2556 8.27233L42.3851 12.8268Z" fill="#575756"/>
<path d="M62.045 24.6811C62.0737 23.834 62.1623 22.8718 62.2483 21.8495H62.1623C60.8565 24.2131 59.0555 25.0027 57.4004 25.0027C54.8462 25.0027 53.1025 23.0182 53.1025 20.0403C53.1025 15.2243 56.2693 10.0842 63.2674 10.0842C64.9511 10.0842 66.7808 10.4058 67.9719 10.7849L66.4628 18.2598C66.1136 20.0978 65.8529 22.9006 65.9103 24.6837H62.045V24.6811ZM63.2648 13.3811C62.9442 13.3236 62.5376 13.2635 62.1336 13.2635C59.4334 13.2635 57.4578 16.5917 57.4578 19.2481C57.4578 20.6495 58.0103 21.6116 59.1702 21.6116C60.4186 21.6116 61.959 20.1815 62.5976 16.678L63.2648 13.3811Z" fill="#575756"/>
<path d="M68.9858 24.6811L70.7868 15.0466C71.1361 13.2373 71.3681 11.6608 71.5427 10.4058H75.2594L74.9701 12.7693H75.0274C76.3645 10.8999 78.1342 10.0842 80.0212 10.0842C82.3435 10.0842 83.6519 11.5143 83.6519 13.9668C83.6519 14.6099 83.5346 15.6897 83.42 16.3904L81.8509 24.6811H77.6703L79.1507 16.7695C79.2367 16.2728 79.2967 15.6897 79.2967 15.1642C79.2967 14.1707 78.9474 13.47 77.9023 13.47C76.5365 13.47 74.9388 15.193 74.3602 18.3461L73.1691 24.6811H68.9858Z" fill="#575756"/>
<path d="M92.6257 10.4032L90.0402 24.1843C89.6049 26.6367 88.995 28.2133 88.0646 29.2643C87.1341 30.3154 85.6537 30.7834 84.1732 30.7834C83.5347 30.7834 82.8362 30.7259 82.1689 30.5507L82.6615 27.3688C82.9509 27.4263 83.2141 27.4551 83.592 27.4551C84.5512 27.4551 85.3644 26.9583 85.8283 24.3909L88.4425 10.4058H92.6257V10.4032ZM90.9133 8.62269C89.7509 8.62269 88.909 7.8331 88.909 6.57813C88.909 5.14799 90.0115 4.18323 91.3199 4.18323C92.5397 4.18323 93.4102 5.00157 93.4102 6.25654C93.4102 7.74421 92.2791 8.62007 90.942 8.62007H90.9133V8.62269Z" fill="#575756"/>
<path d="M105.201 23.8627C103.546 24.7098 101.485 25.0001 99.9155 25.0001C95.8496 25.0001 93.7593 22.6653 93.7593 18.9579C93.7593 14.6073 96.8947 10.0816 102.035 10.0816C104.909 10.0816 106.971 11.6869 106.971 14.3433C106.971 17.9931 103.458 19.3056 97.7653 19.1592C97.7653 19.5671 97.9112 20.2102 98.2005 20.6181C98.7531 21.3476 99.7096 21.7267 100.929 21.7267C102.47 21.7267 103.776 21.3763 104.907 20.822L105.201 23.8627ZM103.051 14.3459C103.051 13.6452 102.47 13.1484 101.511 13.1484C99.5637 13.1484 98.4612 14.7537 98.1719 16.0976C101.425 16.1264 103.051 15.661 103.051 14.3746V14.3459Z" fill="#575756"/>
<path d="M107.873 24.6811L109.471 16.1865C109.877 14.0269 110.052 11.632 110.198 10.4058H113.829C113.743 11.3705 113.654 12.3327 113.568 13.3262H113.654C114.642 11.4281 116.24 10.0842 118.184 10.0842C118.445 10.0842 118.705 10.0842 118.968 10.113L118.155 14.1995C117.952 14.1995 117.72 14.1707 117.488 14.1707C114.816 14.1707 113.568 16.5656 113.044 19.3684L112.056 24.6811H107.873Z" fill="#575756"/>
<path d="M129.102 24.2418C128.203 24.6785 126.748 25.0001 125.065 25.0001C121.551 25.0001 119.083 22.8405 119.083 19.1331C119.083 14.053 122.946 10.0816 128.346 10.0816C129.566 10.0816 130.611 10.3143 131.221 10.5496L130.204 13.789C129.712 13.585 129.131 13.4386 128.289 13.4386C125.297 13.4386 123.467 15.9773 123.467 18.6651C123.467 20.6207 124.687 21.6142 126.256 21.6142C127.476 21.6142 128.346 21.3214 129.073 21.0312L129.102 24.2418Z" fill="#575756"/>
<path d="M131.338 24.6811L134.038 10.4058H138.219L135.519 24.6811H131.338ZM136.624 8.62269C135.492 8.62269 134.619 7.8331 134.619 6.57813C134.648 5.14799 135.75 4.18323 137.03 4.18323C138.25 4.18323 139.121 5.00157 139.121 6.25654C139.121 7.74421 137.989 8.62007 136.652 8.62007H136.624V8.62269Z" fill="#575756"/>
<path d="M147.05 6.52061L146.322 10.4032H149.343L148.733 13.5851H145.713L144.753 18.4324C144.636 18.9867 144.521 19.7449 144.521 20.2416C144.521 20.9423 144.811 21.4391 145.713 21.4391C146.09 21.4391 146.497 21.4391 146.875 21.3816L146.382 24.6811C145.858 24.885 144.813 25.0027 143.914 25.0027C141.417 25.0027 140.226 23.6902 140.226 21.9071C140.226 21.1175 140.312 20.3593 140.515 19.2507L141.618 13.5877H139.817L140.398 10.4058H142.228L142.749 7.72068L147.05 6.52061Z" fill="#575756"/>
<path d="M163.98 15.9512C163.98 21.1776 160.438 25.0027 155.499 25.0027C151.897 25.0027 149.489 22.6391 149.489 19.1043C149.489 14.1419 152.916 10.0842 157.967 10.0842C161.773 10.0842 163.98 12.7118 163.98 15.9512ZM153.818 19.0154C153.818 20.6782 154.631 21.7894 156.083 21.7894C158.376 21.7894 159.656 18.4324 159.656 15.9799C159.656 14.6675 159.104 13.2661 157.42 13.2661C155.006 13.2661 153.787 16.7983 153.818 19.0154Z" fill="#575756"/>
<path d="M29.5797 7.41478C26.7232 2.95702 21.7372 0 16.0605 0C10.3812 0 5.39259 2.96225 2.536 7.42524L15.8181 15.6165L29.5797 7.41478ZM14.7495 4.81072C14.7495 4.81072 15.3411 2.76355 17.1187 2.82891C17.1187 2.82891 20.8041 2.89428 20.4105 6.19642C20.4105 6.19642 18.1716 4.47868 17.7781 7.12196L18.8311 12.0739L15.8702 14.1864L12.7113 11.8752L14.7495 4.81072ZM32.0011 14.1576L16.0813 25.1909L0.119893 14.1629C0.0443084 14.8008 0 15.4518 0 16.1133C0 25.0131 7.19099 32.2266 16.0605 32.2266C24.93 32.2266 32.121 25.0131 32.121 16.1133C32.1236 15.4492 32.0793 14.7982 32.0011 14.1576ZM16.527 31.0239C16.527 31.0239 10.9989 31.0893 9.54976 29.2408L10.6027 23.5621L16.0005 27.0629L21.2002 23.366L22.2532 29.1101C22.2532 29.1075 21.0022 30.8906 16.527 31.0239Z" fill="#575756"/>
<path d="M2.84619 32.7234V39.712C2.84619 42.3579 4.01645 43.4795 5.5881 43.4795C7.33437 43.4795 8.4525 42.3239 8.4525 39.712V32.7234H9.99026V39.6074C9.99026 43.2337 8.08761 44.7214 5.53597 44.7214C3.12507 44.7214 1.31104 43.3383 1.31104 39.6754V32.7207H2.84619V32.7234Z" fill="#575756"/>
<path d="M13.4463 38.3472C13.4463 37.4713 13.4281 36.7523 13.376 36.0516H14.7391L14.8251 37.453H14.859C15.2786 36.6478 16.256 35.8582 17.653 35.8582C18.8233 35.8582 20.6399 36.5589 20.6399 39.4662V44.5279H19.1022V39.6414C19.1022 38.274 18.5965 37.1367 17.1474 37.1367C16.1335 37.1367 15.349 37.8557 15.0858 38.7132C15.0154 38.9067 14.9815 39.1682 14.9815 39.4322V44.5305H13.4437V38.3472H13.4463Z" fill="#575756"/>
<path d="M28.6388 32.8802C29.3035 32.7391 30.3512 32.6345 31.4146 32.6345C32.9341 32.6345 33.9115 32.8985 34.6465 33.492C35.2564 33.947 35.6239 34.6477 35.6239 35.5758C35.6239 36.7131 34.8733 37.7119 33.6327 38.1694V38.2034C34.7508 38.4832 36.0592 39.4113 36.0592 41.163C36.0592 42.1801 35.6578 42.9488 35.0636 43.5266C34.2425 44.2796 32.9159 44.6299 30.995 44.6299C29.9472 44.6299 29.1445 44.5593 28.6362 44.4887V32.8802H28.6388ZM30.1584 37.7171H31.5371C33.1453 37.7171 34.0862 36.8752 34.0862 35.7379C34.0862 34.3548 33.0384 33.811 31.5006 33.811C30.8021 33.811 30.4007 33.8633 30.1557 33.9156V37.7171H30.1584ZM30.1584 43.3749C30.4555 43.4272 30.8907 43.4455 31.4329 43.4455C33.0045 43.4455 34.4537 42.8677 34.4537 41.15C34.4537 39.5394 33.0749 38.8727 31.4146 38.8727H30.1584V43.3749Z" fill="#575756"/>
<path d="M44.8612 42.4991C44.8612 43.2337 44.8951 43.9527 45.002 44.5305H43.605L43.4825 43.4612H43.4303C42.9586 44.1253 42.0516 44.7214 40.8448 44.7214C39.1324 44.7214 38.2593 43.5135 38.2593 42.2873C38.2593 40.2375 40.0759 39.1159 43.3417 39.1342V38.959C43.3417 38.2583 43.1488 36.9981 41.4208 36.9981C40.6337 36.9981 39.8153 37.2439 39.221 37.6282L38.8718 36.6112C39.5703 36.1562 40.5842 35.8582 41.6476 35.8582C44.2331 35.8582 44.8612 37.6282 44.8612 39.3276V42.4991ZM43.3782 40.2035C41.7023 40.1695 39.797 40.465 39.797 42.1121C39.797 43.1109 40.4617 43.5841 41.2462 43.5841C42.3461 43.5841 43.0446 42.8834 43.2896 42.1644C43.3417 42.0075 43.3782 41.8324 43.3782 41.6729V40.2035Z" fill="#575756"/>
<path d="M48.2125 38.3472C48.2125 37.4713 48.1942 36.7523 48.1421 36.0516H49.5052L49.5912 37.453H49.6251C50.0447 36.6478 51.0221 35.8582 52.4192 35.8582C53.5894 35.8582 55.4061 36.5589 55.4061 39.4662V44.5279H53.8683V39.6414C53.8683 38.274 53.3627 37.1367 51.9135 37.1367C50.8996 37.1367 50.1151 37.8557 49.8519 38.7132C49.7815 38.9067 49.7476 39.1682 49.7476 39.4322V44.5305H48.2099V38.3472H48.2125Z" fill="#575756"/>
<path d="M64.8023 44.2142C64.401 44.4234 63.5096 44.7214 62.3758 44.7214C59.8268 44.7214 58.1665 42.9697 58.1665 40.3761C58.1665 37.7668 59.9467 35.8739 62.7068 35.8739C63.6138 35.8739 64.4192 36.1013 64.8362 36.3105L64.487 37.5027C64.1195 37.2936 63.5435 37.1001 62.7068 37.1001C60.7677 37.1001 59.7199 38.5355 59.7199 40.3055C59.7199 42.2664 60.9762 43.4769 62.6547 43.4769C63.5278 43.4769 64.1038 43.2494 64.5417 43.056L64.8023 44.2142Z" fill="#575756"/>
<path d="M75.0194 40.2218C75.0194 43.3566 72.8535 44.724 70.8101 44.724C68.5217 44.724 66.7598 43.0429 66.7598 40.363C66.7598 37.5262 68.6103 35.8608 70.9508 35.8608C73.3774 35.8582 75.0194 37.6282 75.0194 40.2218ZM68.3132 40.3081C68.3132 42.1644 69.3792 43.5658 70.8804 43.5658C72.3478 43.5658 73.4477 42.1827 73.4477 40.2715C73.4477 38.8361 72.731 37.0138 70.9143 37.0138C69.1003 37.0164 68.3132 38.6975 68.3132 40.3081Z" fill="#575756"/>
<path d="M82.4058 38.8204C82.4058 37.7354 82.3719 36.8595 82.3354 36.0516H83.7142L83.7846 37.5053H83.8185C84.4466 36.4726 85.4422 35.8582 86.821 35.8582C88.8644 35.8582 90.4022 37.5916 90.4022 40.1669C90.4022 43.2154 88.5517 44.7214 86.5604 44.7214C85.4422 44.7214 84.4649 44.2299 83.9592 43.3906H83.9253V47.9974H82.4058V38.8204ZM83.9253 41.0794C83.9253 41.3068 83.9592 41.5186 83.9957 41.7095C84.2746 42.7788 85.1999 43.5135 86.2997 43.5135C87.9235 43.5135 88.867 42.1827 88.867 40.2375C88.867 38.5381 87.9757 37.0844 86.3519 37.0844C85.3041 37.0844 84.3267 37.8374 84.0296 38.993C83.9775 39.1865 83.9253 39.4139 83.9253 39.6231V41.0794Z" fill="#575756"/>
<path d="M99.1518 42.4991C99.1518 43.2337 99.1856 43.9527 99.2925 44.5305H97.8955L97.773 43.4612H97.7209C97.2491 44.1253 96.3421 44.7214 95.1353 44.7214C93.4229 44.7214 92.5498 43.5135 92.5498 42.2873C92.5498 40.2375 94.3665 39.1159 97.6322 39.1342V38.959C97.6322 38.2583 97.4394 36.9981 95.7113 36.9981C94.9242 36.9981 94.1058 37.2439 93.5116 37.6282L93.1623 36.6112C93.8608 36.1562 94.8747 35.8582 95.9381 35.8582C98.5236 35.8582 99.1518 37.6282 99.1518 39.3276V42.4991ZM97.6687 40.2035C95.9928 40.1695 94.0876 40.465 94.0876 42.1121C94.0876 43.1109 94.7522 43.5841 95.5367 43.5841C96.6366 43.5841 97.3351 42.8834 97.5801 42.1644C97.6323 42.0075 97.6661 41.8324 97.6661 41.6729V40.2035H97.6687Z" fill="#575756"/>
<path d="M102.503 38.6975C102.503 37.6988 102.485 36.8412 102.433 36.0516H103.778L103.83 37.7171H103.901C104.284 36.5798 105.212 35.8608 106.241 35.8608C106.416 35.8608 106.538 35.8791 106.676 35.9131V37.3667C106.52 37.3327 106.361 37.3144 106.152 37.3144C105.071 37.3144 104.302 38.138 104.091 39.2936C104.057 39.5028 104.02 39.7486 104.02 40.0126V44.5331H102.501V38.6975H102.503Z" fill="#575756"/>
<path d="M114.939 42.4991C114.939 43.2337 114.973 43.9527 115.08 44.5305H113.683L113.56 43.4612H113.508C113.036 44.1253 112.129 44.7214 110.922 44.7214C109.21 44.7214 108.337 43.5135 108.337 42.2873C108.337 40.2375 110.154 39.1159 113.419 39.1342V38.959C113.419 38.2583 113.226 36.9981 111.498 36.9981C110.711 36.9981 109.893 37.2439 109.299 37.6282L108.949 36.6112C109.648 36.1562 110.662 35.8582 111.725 35.8582C114.311 35.8582 114.939 37.6282 114.939 39.3276V42.4991ZM113.453 40.2035C111.777 40.1695 109.872 40.465 109.872 42.1121C109.872 43.1109 110.537 43.5841 111.321 43.5841C112.421 43.5841 113.12 42.8834 113.365 42.1644C113.417 42.0075 113.451 41.8324 113.451 41.6729V40.2035H113.453Z" fill="#575756"/>
<path d="M124.718 34.0202V36.0517H126.918V37.2256H124.718V41.7984C124.718 42.8494 125.015 43.4455 125.87 43.4455C126.289 43.4455 126.534 43.4115 126.761 43.3409L126.832 44.4966C126.534 44.6194 126.063 44.724 125.468 44.724C124.752 44.724 124.176 44.4783 123.808 44.0573C123.373 43.6024 123.214 42.8494 123.214 41.8507V37.2256H121.903V36.0517H123.214V34.4934L124.718 34.0202Z" fill="#575756"/>
<path d="M137.064 40.2218C137.064 43.3566 134.898 44.724 132.855 44.724C130.566 44.724 128.804 43.0429 128.804 40.363C128.804 37.5262 130.655 35.8608 132.995 35.8608C135.422 35.8582 137.064 37.6282 137.064 40.2218ZM130.358 40.3081C130.358 42.1644 131.424 43.5658 132.925 43.5658C134.392 43.5658 135.492 42.1827 135.492 40.2715C135.492 38.8361 134.775 37.0138 132.959 37.0138C131.142 37.0164 130.358 38.6975 130.358 40.3081Z" fill="#575756"/>
<path d="M147.174 32.0933V42.3422C147.174 43.0952 147.192 43.9527 147.245 44.5332H145.866L145.795 43.0612H145.762C145.29 44.0076 144.26 44.724 142.879 44.724C140.835 44.724 139.264 42.9906 139.264 40.4153C139.246 37.5942 140.992 35.8608 143.053 35.8608C144.346 35.8608 145.219 36.4726 145.603 37.1576H145.636V32.0959H147.174V32.0933ZM145.636 39.5028C145.636 39.3093 145.618 39.0479 145.566 38.8544C145.339 37.874 144.5 37.0687 143.348 37.0687C141.758 37.0687 140.815 38.4701 140.815 40.3447C140.815 42.0624 141.654 43.4795 143.312 43.4795C144.341 43.4795 145.285 42.7971 145.563 41.6389C145.616 41.4297 145.634 41.2179 145.634 40.9722V39.5028H145.636Z" fill="#575756"/>
<path d="M158.246 40.2218C158.246 43.3566 156.08 44.724 154.037 44.724C151.748 44.724 149.986 43.0429 149.986 40.363C149.986 37.5262 151.837 35.8608 154.177 35.8608C156.604 35.8582 158.246 37.6282 158.246 40.2218ZM151.54 40.3081C151.54 42.1644 152.606 43.5658 154.107 43.5658C155.574 43.5658 156.674 42.1827 156.674 40.2715C156.674 38.8361 155.958 37.0138 154.141 37.0138C152.324 37.0164 151.54 38.6975 151.54 40.3081Z" fill="#575756"/>
<path d="M160.847 42.954C161.301 43.252 162.103 43.5658 162.872 43.5658C163.99 43.5658 164.514 43.0063 164.514 42.3056C164.514 41.5709 164.079 41.1682 162.943 40.7473C161.423 40.2035 160.706 39.3642 160.706 38.3472C160.706 36.9798 161.806 35.8608 163.623 35.8608C164.478 35.8608 165.229 36.1065 165.7 36.3863L165.317 37.5079C164.986 37.2988 164.374 37.0164 163.589 37.0164C162.682 37.0164 162.174 37.5419 162.174 38.172C162.174 38.8727 162.679 39.1891 163.779 39.6074C165.247 40.1669 165.997 40.9042 165.997 42.1644C165.997 43.6547 164.845 44.7214 162.836 44.7214C161.911 44.7214 161.056 44.4756 160.461 44.1253L160.847 42.954Z" fill="#575756"/>
</svg>
