<?xml version="1.0" encoding="utf-8"?>
<!-- Generator: Adobe Illustrator 24.0.2, SVG Export Plug-In . SVG Version: 6.00 Build 0)  -->
<svg version="1.1" id="Capa_1" xmlns="http://www.w3.org/2000/svg" xmlns:xlink="http://www.w3.org/1999/xlink" x="0px" y="0px"
	 viewBox="0 0 221.5 168.4" style="enable-background:new 0 0 221.5 168.4;" xml:space="preserve">
<style type="text/css">
	.st0{fill:#575756;}
</style>
<g>
	<path class="st0" d="M55.7,45.8c1.7-0.3,3.9-0.6,6.3-0.6c2.5,0,4.3,0.3,5.9,1.3c1.6,0.8,2.8,2.4,2.8,4.4c0,3-2.2,5-4.8,5.7v0.1
		c2.3,0.7,3.8,2.6,3.8,5.3c0,2.6-1.4,4.5-3.3,5.7c-2,1.4-5.1,2-9,2c-2.7,0-4.9-0.2-6-0.5L55.7,45.8z M57,65.6c0.6,0.1,1.2,0.1,2,0.1
		c2.8,0,5.3-1.1,5.3-3.8c0-2.4-2-3.1-4.4-3.1h-1.6L57,65.6z M59.1,55h1.7c2.8,0,4.7-1.2,4.7-3.3c0-1.8-1.4-2.5-3.4-2.5
		c-0.9,0-1.6,0.1-2,0.2L59.1,55z"/>
	<path class="st0" d="M83.2,69.5c0-1,0.1-2.2,0.2-3.5h-0.1c-1.6,2.9-3.8,3.9-5.8,3.9c-3.1,0-5.3-2.4-5.3-6.1
		c0-5.9,3.9-12.2,12.5-12.2c2.1,0,4.3,0.4,5.8,0.9l-1.8,9.2C88.3,64,88,67.4,88,69.6L83.2,69.5L83.2,69.5z M84.7,55.7
		c-0.4-0.1-0.9-0.1-1.4-0.1c-3.3,0-5.7,4.1-5.7,7.3c0,1.7,0.7,2.9,2.1,2.9c1.5,0,3.4-1.8,4.2-6L84.7,55.7z"/>
	<path class="st0" d="M91.7,69.5l2.2-11.8c0.4-2.2,0.7-4.1,0.9-5.7h4.6L99,54.9h0.1c1.6-2.3,3.8-3.3,6.1-3.3c2.8,0,4.4,1.8,4.4,4.8
		c0,0.8-0.1,2.1-0.3,3l-1.9,10.2h-5.1l1.8-9.7c0.1-0.6,0.2-1.3,0.2-2c0-1.2-0.4-2.1-1.7-2.1c-1.7,0-3.6,2.1-4.3,6l-1.5,7.8h-5.1
		V69.5z"/>
	<path class="st0" d="M120.7,52l-3.2,16.9c-0.5,3-1.3,4.9-2.4,6.2c-1.1,1.3-3,1.9-4.8,1.9c-0.8,0-1.6-0.1-2.5-0.3l0.6-3.9
		c0.4,0.1,0.7,0.1,1.1,0.1c1.2,0,2.2-0.6,2.7-3.8l3.2-17.1L120.7,52L120.7,52z M118.6,49.9c-1.4,0-2.5-1-2.5-2.5
		c0-1.8,1.4-2.9,3-2.9c1.5,0,2.6,1,2.6,2.5C121.6,48.8,120.2,49.9,118.6,49.9L118.6,49.9L118.6,49.9z"/>
	<path class="st0" d="M136.1,68.5c-2,1-4.6,1.4-6.5,1.4c-5,0-7.5-2.9-7.5-7.4c0-5.3,3.8-10.9,10.1-10.9c3.5,0,6,2,6,5.2
		c0,4.5-4.3,6.1-11.3,5.9c0,0.5,0.2,1.3,0.5,1.8c0.7,0.9,1.8,1.4,3.3,1.4c1.9,0,3.5-0.4,4.9-1.1L136.1,68.5z M133.4,56.9
		c0-0.9-0.7-1.5-1.9-1.5c-2.4,0-3.7,2-4.1,3.6C131.4,59.1,133.4,58.5,133.4,56.9L133.4,56.9z"/>
	<path class="st0" d="M139.3,69.5l2-10.4c0.5-2.6,0.7-5.6,0.9-7.1h4.4c-0.1,1.2-0.2,2.4-0.3,3.6h0.1c1.2-2.3,3.2-4,5.6-4
		c0.3,0,0.6,0,1,0l-1,5c-0.2,0-0.5,0-0.8,0c-3.3,0-4.8,2.9-5.4,6.4l-1.2,6.5H139.3z"/>
	<path class="st0" d="M165.4,69c-1.1,0.5-2.9,0.9-4.9,0.9c-4.3,0-7.3-2.6-7.3-7.2c0-6.2,4.7-11.1,11.4-11.1c1.5,0,2.8,0.3,3.5,0.6
		l-1.2,4c-0.6-0.2-1.3-0.4-2.3-0.4c-3.7,0-5.9,3.1-5.9,6.4c0,2.4,1.5,3.6,3.4,3.6c1.5,0,2.6-0.4,3.5-0.7L165.4,69z"/>
	<path class="st0" d="M168.1,69.5l3.3-17.5h5.1l-3.3,17.5H168.1z M174.6,49.9c-1.4,0-2.5-1-2.5-2.5c0-1.8,1.4-2.9,3-2.9
		c1.5,0,2.6,1,2.6,2.5C177.6,48.8,176.2,49.9,174.6,49.9L174.6,49.9L174.6,49.9z"/>
	<path class="st0" d="M187.4,47.3l-0.9,4.8h3.7l-0.7,3.9h-3.7l-1.2,5.9c-0.1,0.7-0.3,1.6-0.3,2.2c0,0.9,0.4,1.5,1.5,1.5
		c0.5,0,1,0,1.4-0.1l-0.6,4c-0.6,0.2-1.9,0.4-3,0.4c-3.1,0-4.5-1.6-4.5-3.8c0-1,0.1-1.9,0.4-3.3l1.4-6.9h-2.2l0.7-3.9h2.2l0.6-3.3
		L187.4,47.3z"/>
	<path class="st0" d="M208.1,58.8c0,6.4-4.3,11.1-10.4,11.1c-4.4,0-7.4-2.9-7.4-7.2c0-6.1,4.2-11.1,10.4-11.1
		C205.4,51.7,208.1,54.9,208.1,58.8z M195.6,62.6c0,2,1,3.4,2.8,3.4c2.8,0,4.4-4.1,4.4-7.1c0-1.6-0.7-3.3-2.7-3.3
		C197.1,55.6,195.6,59.9,195.6,62.6z"/>
	<path class="st0" d="M43.4,48.4c-3.5-5.5-9.6-9.1-16.6-9.1s-13.1,3.6-16.6,9.1l16.3,10L43.4,48.4z M25.2,45.2c0,0,0.7-2.5,2.9-2.4
		c0,0,4.5,0.1,4,4.1c0,0-2.7-2.1-3.2,1.1l1.3,6.1l-3.6,2.6l-3.9-2.8L25.2,45.2z M46.4,56.6L26.9,70.2L7.3,56.7
		c-0.1,0.8-0.1,1.6-0.1,2.4C7.2,70,16,78.8,26.9,78.8S46.6,70,46.6,59.1C46.5,58.2,46.5,57.4,46.4,56.6z M27.4,77.3
		c0,0-6.8,0.1-8.6-2.2l1.3-7l6.6,4.3l6.4-4.5l1.3,7C34.4,75,32.9,77.2,27.4,77.3z"/>
	<path class="st0" d="M10.6,79.4V88c0,3.2,1.4,4.6,3.4,4.6c2.1,0,3.5-1.4,3.5-4.6v-8.6h1.9v8.4c0,4.4-2.3,6.3-5.5,6.3
		c-3,0-5.2-1.7-5.2-6.2v-8.5L10.6,79.4L10.6,79.4z"/>
	<path class="st0" d="M23.6,86.3c0-1.1,0-2-0.1-2.8h1.7l0.1,1.7l0,0c0.5-1,1.7-2,3.4-2c1.4,0,3.7,0.9,3.7,4.4v6.2h-1.9v-6
		c0-1.7-0.6-3.1-2.4-3.1c-1.2,0-2.2,0.9-2.5,1.9c-0.1,0.2-0.1,0.6-0.1,0.9v6.2h-1.9L23.6,86.3L23.6,86.3z"/>
	<path class="st0" d="M42.2,79.6c0.8-0.2,2.1-0.3,3.4-0.3c1.9,0,3.1,0.3,4,1.1c0.7,0.6,1.2,1.4,1.2,2.6c0,1.4-0.9,2.6-2.4,3.2l0,0
		c1.4,0.3,3,1.5,3,3.6c0,1.2-0.5,2.2-1.2,2.9c-1,0.9-2.6,1.4-5,1.4c-1.3,0-2.3-0.1-2.9-0.2L42.2,79.6L42.2,79.6z M44.1,85.5h1.7
		c2,0,3.1-1,3.1-2.4c0-1.7-1.3-2.4-3.2-2.4c-0.9,0-1.3,0.1-1.6,0.1V85.5L44.1,85.5z M44.1,92.5c0.4,0.1,0.9,0.1,1.6,0.1
		c1.9,0,3.7-0.7,3.7-2.8c0-2-1.7-2.8-3.7-2.8h-1.5L44.1,92.5L44.1,92.5z"/>
	<path class="st0" d="M62.1,91.4c0,0.9,0,1.8,0.2,2.5h-1.7l-0.2-1.3h-0.1c-0.6,0.8-1.7,1.5-3.2,1.5c-2.1,0-3.2-1.5-3.2-3
		c0-2.5,2.2-3.9,6.2-3.9V87c0-0.9-0.2-2.4-2.4-2.4c-1,0-2,0.3-2.7,0.8l-0.4-1.2c0.9-0.6,2.1-0.9,3.4-0.9c3.2,0,3.9,2.2,3.9,4.3v3.8
		C61.9,91.4,62.1,91.4,62.1,91.4z M60.3,88.6c-2.1,0-4.4,0.3-4.4,2.3c0,1.2,0.8,1.8,1.8,1.8c1.3,0,2.2-0.9,2.5-1.7
		c0.1-0.2,0.1-0.4,0.1-0.6C60.3,90.4,60.3,88.6,60.3,88.6z"/>
	<path class="st0" d="M66.2,86.3c0-1.1,0-2-0.1-2.8h1.7l0.1,1.7l0,0c0.5-1,1.7-2,3.4-2c1.4,0,3.7,0.9,3.7,4.4v6.2h-1.9v-6
		c0-1.7-0.6-3.1-2.4-3.1c-1.2,0-2.2,0.9-2.5,1.9c-0.1,0.2-0.1,0.6-0.1,0.9v6.2h-1.9L66.2,86.3L66.2,86.3z"/>
	<path class="st0" d="M86.6,93.5c-0.5,0.3-1.6,0.6-3,0.6c-3.1,0-5.2-2.1-5.2-5.3c0-3.2,2.2-5.5,5.6-5.5c1.1,0,2.1,0.3,2.6,0.5
		l-0.4,1.5C85.7,85,85,84.8,84,84.8c-2.4,0-3.7,1.8-3.7,3.9c0,2.4,1.5,3.9,3.6,3.9c1.1,0,1.8-0.3,2.3-0.5L86.6,93.5z"/>
	<path class="st0" d="M99.1,88.6c0,3.8-2.7,5.5-5.2,5.5c-2.8,0-5-2.1-5-5.3c0-3.5,2.3-5.5,5.1-5.5C97.1,83.2,99.1,85.4,99.1,88.6z
		 M90.9,88.7c0,2.3,1.3,4,3.1,4c1.8,0,3.1-1.7,3.1-4c0-1.8-0.9-4-3.1-4S90.9,86.7,90.9,88.7z"/>
	<path class="st0" d="M108.1,86.9c0-1.3,0-2.4-0.1-3.4h1.7l0.1,1.8l0,0c0.8-1.3,2-2,3.7-2c2.5,0,4.4,2.1,4.4,5.3
		c0,3.7-2.3,5.6-4.7,5.6c-1.4,0-2.6-0.6-3.2-1.6l0,0v5.6h-1.9V86.9z M110,89.6c0,0.3,0,0.5,0.1,0.8c0.3,1.3,1.5,2.2,2.8,2.2
		c2,0,3.1-1.6,3.1-4c0-2.1-1.1-3.9-3.1-3.9c-1.3,0-2.5,0.9-2.8,2.3c-0.1,0.2-0.1,0.5-0.1,0.8V89.6z"/>
	<path class="st0" d="M128.7,91.4c0,0.9,0,1.8,0.2,2.5h-1.7l-0.2-1.3h-0.1c-0.6,0.8-1.7,1.5-3.2,1.5c-2.1,0-3.2-1.5-3.2-3
		c0-2.5,2.2-3.9,6.2-3.9V87c0-0.9-0.2-2.4-2.4-2.4c-1,0-2,0.3-2.7,0.8l-0.4-1.2c0.9-0.6,2.1-0.9,3.4-0.9c3.2,0,3.9,2.2,3.9,4.3v3.8
		C128.5,91.4,128.7,91.4,128.7,91.4z M126.8,88.6c-2.1,0-4.4,0.3-4.4,2.3c0,1.2,0.8,1.8,1.8,1.8c1.3,0,2.2-0.9,2.5-1.7
		c0.1-0.2,0.1-0.4,0.1-0.6V88.6L126.8,88.6z"/>
	<path class="st0" d="M132.8,86.7c0-1.2,0-2.3-0.1-3.2h1.6l0.1,2h0.1c0.5-1.4,1.6-2.3,2.9-2.3c0.2,0,0.4,0,0.5,0.1v1.8
		c-0.2,0-0.4-0.1-0.6-0.1c-1.3,0-2.3,1-2.5,2.4c0,0.3-0.1,0.6-0.1,0.9v5.5h-1.9V86.7L132.8,86.7z"/>
	<path class="st0" d="M148,91.4c0,0.9,0,1.8,0.2,2.5h-1.7l-0.2-1.3h-0.1c-0.6,0.8-1.7,1.5-3.2,1.5c-2.1,0-3.2-1.5-3.2-3
		c0-2.5,2.2-3.9,6.2-3.9V87c0-0.9-0.2-2.4-2.4-2.4c-1,0-2,0.3-2.7,0.8l-0.4-1.2c0.9-0.6,2.1-0.9,3.4-0.9c3.2,0,3.9,2.2,3.9,4.3v3.8
		C147.8,91.4,148,91.4,148,91.4z M146.2,88.6c-2.1,0-4.4,0.3-4.4,2.3c0,1.2,0.8,1.8,1.8,1.8c1.3,0,2.2-0.9,2.5-1.7
		c0.1-0.2,0.1-0.4,0.1-0.6L146.2,88.6L146.2,88.6z"/>
	<path class="st0" d="M160,81v2.5h2.7v1.4H160v5.6c0,1.3,0.4,2,1.4,2c0.5,0,0.8,0,1.1-0.1l0.1,1.4c-0.4,0.2-0.9,0.3-1.7,0.3
		c-0.9,0-1.6-0.3-2-0.8c-0.5-0.6-0.7-1.5-0.7-2.7v-5.7h-1.6v-1.4h1.6v-1.9L160,81z"/>
	<path class="st0" d="M175.1,88.6c0,3.8-2.7,5.5-5.2,5.5c-2.8,0-5-2.1-5-5.3c0-3.5,2.3-5.5,5.1-5.5
		C173.1,83.2,175.1,85.4,175.1,88.6z M166.9,88.7c0,2.3,1.3,4,3.1,4s3.1-1.7,3.1-4c0-1.8-0.9-4-3.1-4
		C167.9,84.7,166.9,86.7,166.9,88.7z"/>
	<path class="st0" d="M187.5,78.6v12.6c0,0.9,0,2,0.1,2.7h-1.7l-0.1-1.8l0,0c-0.6,1.2-1.8,2-3.5,2c-2.5,0-4.4-2.1-4.4-5.3
		c0-3.5,2.1-5.6,4.6-5.6c1.6,0,2.7,0.7,3.1,1.6l0,0v-6.2L187.5,78.6L187.5,78.6z M185.6,87.7c0-0.2,0-0.6-0.1-0.8
		c-0.3-1.2-1.3-2.2-2.7-2.2c-1.9,0-3.1,1.7-3.1,4c0,2.1,1,3.8,3.1,3.8c1.3,0,2.4-0.8,2.8-2.3c0.1-0.3,0.1-0.5,0.1-0.8L185.6,87.7
		L185.6,87.7z"/>
	<path class="st0" d="M201.1,88.6c0,3.8-2.7,5.5-5.2,5.5c-2.8,0-5-2.1-5-5.3c0-3.5,2.3-5.5,5.1-5.5
		C199.1,83.2,201.1,85.4,201.1,88.6z M192.9,88.7c0,2.3,1.3,4,3.1,4s3.1-1.7,3.1-4c0-1.8-0.9-4-3.1-4
		C193.8,84.7,192.9,86.7,192.9,88.7z"/>
	<path class="st0" d="M204.3,91.9c0.6,0.4,1.5,0.7,2.5,0.7c1.4,0,2-0.7,2-1.5c0-0.9-0.5-1.4-1.9-1.9c-1.9-0.7-2.7-1.7-2.7-2.9
		c0-1.7,1.3-3,3.6-3c1,0,2,0.3,2.5,0.6l-0.5,1.4c-0.4-0.3-1.2-0.6-2.1-0.6c-1.1,0-1.7,0.6-1.7,1.4c0,0.9,0.6,1.2,2,1.8
		c1.8,0.7,2.7,1.6,2.7,3.1c0,1.8-1.4,3.1-3.9,3.1c-1.1,0-2.2-0.3-2.9-0.7L204.3,91.9z"/>
</g>
</svg>
