<?xml version="1.0" encoding="utf-8"?>
<!-- Generator: Adobe Illustrator 24.0.2, SVG Export Plug-In . SVG Version: 6.00 Build 0)  -->
<svg version="1.1" id="Capa_1" xmlns="http://www.w3.org/2000/svg" xmlns:xlink="http://www.w3.org/1999/xlink" x="0px" y="0px"
	 viewBox="0 0 108 117.7" style="enable-background:new 0 0 108 117.7;" xml:space="preserve">
<style type="text/css">
	.st0{clip-path:url(#SVGID_2_);}
	.st1{fill:#575756;}
</style>
<g>
	<g>
		<defs>
			<rect id="SVGID_1_" x="22.6" y="13.6" width="62.6" height="86.6"/>
		</defs>
		<clipPath id="SVGID_2_">
			<use xlink:href="#SVGID_1_"  style="overflow:visible;"/>
		</clipPath>
		<g class="st0">
			<path class="st1" d="M32.7,84.7c0,0.4-0.1,0.8-0.3,1.2c-0.1,0.4-0.4,0.7-0.6,0.9c-0.3,0.3-0.6,0.5-1,0.6
				c-0.4,0.2-0.9,0.2-1.4,0.2c-0.6,0-1.1-0.1-1.6-0.3c-0.5-0.2-0.8-0.5-1.1-0.8c-0.3-0.3-0.5-0.8-0.7-1.2c-0.2-0.5-0.2-1-0.2-1.6
				c0-0.6,0.1-1.1,0.2-1.6c0.2-0.5,0.4-0.9,0.7-1.3c0.3-0.4,0.7-0.6,1.1-0.8c0.5-0.2,1-0.3,1.6-0.3c0.9,0,1.6,0.2,2.2,0.7
				c0.5,0.5,0.9,1.1,1,2l-2,0.2c0-0.2-0.1-0.3-0.1-0.5c-0.1-0.1-0.1-0.3-0.2-0.4c-0.1-0.1-0.2-0.2-0.4-0.2c-0.1-0.1-0.3-0.1-0.5-0.1
				c-1,0-1.4,0.7-1.4,2.2c0,0.4,0,0.8,0.1,1c0.1,0.3,0.2,0.5,0.3,0.7c0.1,0.2,0.3,0.3,0.5,0.4c0.2,0.1,0.4,0.1,0.6,0.1
				c0.7,0,1.2-0.4,1.3-1.2L32.7,84.7L32.7,84.7z"/>
			<path class="st1" d="M39.6,82.3c0,0.5-0.1,0.9-0.3,1.3c-0.2,0.4-0.5,0.7-0.8,0.9l1.5,3h-2.1l-1.2-2.6h-1.1v2.6h-1.9v-7.5h3
				c0.6,0,1.1,0.1,1.5,0.2c0.4,0.1,0.7,0.3,0.9,0.5c0.2,0.2,0.4,0.5,0.5,0.8C39.6,81.7,39.6,82,39.6,82.3z M35.6,83.3h1
				c0.4,0,0.7-0.1,0.9-0.2c0.2-0.2,0.2-0.4,0.2-0.7c0-0.3-0.1-0.5-0.3-0.7c-0.2-0.2-0.5-0.2-0.9-0.2h-0.9V83.3z"/>
			<path class="st1" d="M40.8,79.9h5.4v1.7h-3.4v1.2H46v1.7h-3.2v1.3h3.6l-0.2,1.7h-5.4V79.9z M44.1,79.3h-1.8l1.3-1.6h2.2
				L44.1,79.3z"/>
			<path class="st1" d="M47.4,87.4v-7.5h3c1.2,0,2.2,0.3,2.8,0.9c0.6,0.6,1,1.5,1,2.7c0,1.2-0.3,2.2-1,2.8c-0.7,0.7-1.6,1-2.9,1
				H47.4z M49.4,85.7h0.9c0.6,0,1.1-0.2,1.4-0.5c0.3-0.4,0.4-0.9,0.4-1.5c0-0.7-0.1-1.2-0.4-1.5c-0.3-0.3-0.7-0.5-1.3-0.5h-1V85.7z"
				/>
			<path class="st1" d="M55.3,79.9h2v7.5h-2V79.9z"/>
			<path class="st1" d="M60.4,81.6h-2.2v-1.7h6.4v1.7h-2.2v5.8h-2V81.6z"/>
			<path class="st1" d="M68.7,79.7c0.6,0,1.1,0.1,1.6,0.3c0.5,0.2,0.8,0.4,1.2,0.8c0.3,0.3,0.5,0.7,0.7,1.2c0.2,0.5,0.2,1,0.2,1.6
				c0,0.6-0.1,1.2-0.2,1.7c-0.2,0.5-0.4,0.9-0.7,1.2c-0.3,0.3-0.7,0.6-1.2,0.8c-0.5,0.2-1,0.3-1.6,0.3c-0.6,0-1.1-0.1-1.6-0.3
				c-0.5-0.2-0.8-0.4-1.2-0.8c-0.3-0.3-0.5-0.7-0.7-1.2c-0.2-0.5-0.2-1-0.2-1.6c0-0.6,0.1-1.2,0.2-1.7c0.2-0.5,0.4-0.9,0.7-1.2
				c0.3-0.3,0.7-0.6,1.2-0.8C67.6,79.8,68.1,79.7,68.7,79.7z M67,83.7c0,0.7,0.1,1.3,0.4,1.6c0.3,0.4,0.7,0.6,1.2,0.6
				c0.5,0,0.9-0.2,1.2-0.6c0.3-0.4,0.4-0.9,0.4-1.6c0-0.7-0.1-1.3-0.4-1.6c-0.3-0.4-0.7-0.6-1.2-0.6c-0.5,0-0.9,0.2-1.2,0.6
				C67.2,82.4,67,83,67,83.7z"/>
			<path class="st1" d="M75.1,85c0,0.4,0.2,0.6,0.4,0.8c0.2,0.2,0.5,0.3,1,0.3c0.4,0,0.6-0.1,0.8-0.2c0.2-0.1,0.3-0.3,0.3-0.5
				c0-0.2-0.1-0.3-0.2-0.4c-0.1-0.1-0.3-0.2-0.7-0.3l-1-0.2c-0.8-0.2-1.5-0.4-1.9-0.8c-0.4-0.4-0.6-0.9-0.6-1.5
				c0-0.8,0.3-1.4,0.8-1.8c0.5-0.4,1.3-0.6,2.2-0.6c0.5,0,1,0.1,1.4,0.2c0.4,0.1,0.7,0.3,0.9,0.5c0.2,0.2,0.4,0.5,0.6,0.7
				c0.1,0.3,0.2,0.6,0.2,0.9l-2,0.2c-0.1-0.3-0.2-0.5-0.4-0.7c-0.2-0.1-0.5-0.2-0.8-0.2c-0.3,0-0.6,0.1-0.8,0.2
				c-0.2,0.1-0.2,0.3-0.2,0.5c0,0.2,0.1,0.3,0.2,0.4c0.1,0.1,0.4,0.2,0.6,0.2l1,0.2c0.9,0.2,1.5,0.5,1.9,0.8
				c0.4,0.4,0.6,0.9,0.6,1.5c0,0.4-0.1,0.7-0.2,1c-0.1,0.3-0.3,0.6-0.6,0.8c-0.3,0.2-0.6,0.4-1,0.5c-0.4,0.1-0.9,0.2-1.4,0.2
				c-2.1,0-3.2-0.9-3.3-2.7L75.1,85L75.1,85z"/>
			<path class="st1" d="M22.6,92.6h3.1c0.5,0,1,0.1,1.3,0.2c0.3,0.1,0.6,0.2,0.8,0.4c0.2,0.2,0.4,0.4,0.4,0.6
				c0.1,0.2,0.1,0.5,0.1,0.8c0,0.3-0.1,0.6-0.2,0.9c-0.1,0.3-0.4,0.5-0.7,0.7c0.4,0.2,0.7,0.5,0.9,0.7c0.2,0.3,0.3,0.6,0.3,1
				c0,0.3,0,0.6-0.1,0.8c-0.1,0.3-0.3,0.5-0.5,0.7c-0.2,0.2-0.5,0.4-0.9,0.5c-0.4,0.1-0.8,0.2-1.4,0.2h-3.2V92.6z M24.5,95.4h1.1
				c0.4,0,0.6-0.1,0.7-0.2c0.1-0.1,0.2-0.3,0.2-0.5c0-0.2-0.1-0.4-0.2-0.5c-0.2-0.1-0.4-0.2-0.8-0.2h-1V95.4z M24.5,98.6h1.1
				c0.4,0,0.7-0.1,0.9-0.2c0.2-0.2,0.2-0.4,0.2-0.6c0-0.3-0.1-0.5-0.2-0.6c-0.2-0.1-0.4-0.2-0.8-0.2h-1.2V98.6z"/>
			<path class="st1" d="M33.8,92.6l2.6,7.5h-2.1l-0.4-1.4h-2.5l-0.4,1.4h-2l2.6-7.5H33.8z M31.9,97h1.5l-0.8-2.6L31.9,97z"/>
			<path class="st1" d="M37.3,92.6h1.8l2.7,4.3v-4.3h1.9v7.5h-1.8l-2.7-4.3v4.3h-1.9L37.3,92.6L37.3,92.6z"/>
			<path class="st1" d="M51.7,97.3c0,0.4-0.1,0.8-0.3,1.2c-0.1,0.4-0.4,0.7-0.6,0.9c-0.3,0.3-0.6,0.5-1,0.6
				c-0.4,0.2-0.9,0.2-1.4,0.2c-0.6,0-1.1-0.1-1.6-0.3c-0.5-0.2-0.8-0.5-1.1-0.8c-0.3-0.3-0.5-0.8-0.7-1.2c-0.1-0.5-0.2-1-0.2-1.6
				c0-0.6,0.1-1.1,0.2-1.6c0.2-0.5,0.4-0.9,0.7-1.3c0.3-0.4,0.7-0.6,1.1-0.8c0.5-0.2,1-0.3,1.6-0.3c0.9,0,1.6,0.2,2.2,0.7
				c0.5,0.5,0.9,1.1,1,2l-2,0.2c0-0.2-0.1-0.3-0.1-0.5c-0.1-0.1-0.1-0.3-0.2-0.4c-0.1-0.1-0.2-0.2-0.4-0.2c-0.1-0.1-0.3-0.1-0.5-0.1
				c-1,0-1.4,0.7-1.4,2.2c0,0.4,0,0.8,0.1,1c0.1,0.3,0.2,0.5,0.3,0.7c0.1,0.2,0.3,0.3,0.5,0.4c0.2,0.1,0.4,0.1,0.6,0.1
				c0.7,0,1.2-0.4,1.3-1.2L51.7,97.3L51.7,97.3z"/>
			<path class="st1" d="M56.9,92.6l2.6,7.5h-2.1l-0.4-1.4h-2.5l-0.4,1.4h-2l2.6-7.5H56.9z M54.9,97h1.5l-0.8-2.6L54.9,97z"/>
			<path class="st1" d="M66.3,94.9c0,0.5-0.1,0.9-0.3,1.3c-0.2,0.4-0.5,0.7-0.8,0.9l1.5,3h-2.1l-1.2-2.6h-1.1v2.6h-1.9v-7.5h3
				c0.6,0,1.1,0.1,1.5,0.2c0.4,0.1,0.7,0.3,0.9,0.5c0.2,0.2,0.4,0.5,0.5,0.8C66.2,94.3,66.3,94.6,66.3,94.9z M62.2,95.9h1
				c0.4,0,0.7-0.1,0.9-0.2c0.2-0.2,0.2-0.4,0.2-0.7c0-0.3-0.1-0.5-0.3-0.7c-0.2-0.2-0.5-0.2-0.9-0.2h-0.9V95.9z"/>
			<path class="st1" d="M67.5,92.6h2v7.5h-2V92.6z"/>
			<path class="st1" d="M74.3,92.4c0.6,0,1.1,0.1,1.6,0.3c0.5,0.2,0.8,0.4,1.2,0.8c0.3,0.3,0.5,0.7,0.7,1.2c0.2,0.5,0.2,1,0.2,1.6
				c0,0.6-0.1,1.2-0.2,1.7c-0.2,0.5-0.4,0.9-0.7,1.2c-0.3,0.3-0.7,0.6-1.2,0.8c-0.5,0.2-1,0.3-1.6,0.3c-0.6,0-1.1-0.1-1.6-0.3
				c-0.5-0.2-0.8-0.4-1.2-0.8c-0.3-0.3-0.5-0.7-0.7-1.2c-0.2-0.5-0.2-1-0.2-1.6c0-0.6,0.1-1.2,0.2-1.7c0.2-0.5,0.4-0.9,0.7-1.2
				c0.3-0.3,0.7-0.6,1.2-0.8C73.2,92.5,73.8,92.4,74.3,92.4z M72.7,96.3c0,0.7,0.1,1.3,0.4,1.6c0.3,0.4,0.7,0.6,1.2,0.6
				c0.5,0,0.9-0.2,1.2-0.6c0.3-0.4,0.4-0.9,0.4-1.6c0-0.7-0.1-1.3-0.4-1.6c-0.3-0.4-0.7-0.6-1.2-0.6c-0.5,0-0.9,0.2-1.2,0.6
				C72.8,95,72.7,95.6,72.7,96.3z"/>
			<path class="st1" d="M80.8,97.6c0,0.4,0.2,0.6,0.4,0.8c0.2,0.2,0.5,0.3,1,0.3c0.4,0,0.6-0.1,0.8-0.2c0.2-0.1,0.3-0.3,0.3-0.5
				c0-0.2-0.1-0.3-0.2-0.4c-0.1-0.1-0.3-0.2-0.7-0.3l-1-0.2c-0.8-0.2-1.5-0.4-1.9-0.8c-0.4-0.4-0.6-0.9-0.6-1.5
				c0-0.8,0.3-1.4,0.8-1.8c0.5-0.4,1.3-0.6,2.2-0.6c0.5,0,1,0.1,1.4,0.2c0.4,0.1,0.7,0.3,0.9,0.5c0.2,0.2,0.4,0.5,0.6,0.7
				c0.1,0.3,0.2,0.6,0.2,0.9l-2,0.2c-0.1-0.3-0.2-0.5-0.4-0.7C82.6,94,82.3,94,81.9,94c-0.3,0-0.6,0.1-0.8,0.2
				c-0.2,0.1-0.2,0.3-0.2,0.5c0,0.2,0.1,0.3,0.2,0.4c0.1,0.1,0.4,0.2,0.6,0.2l1,0.2c0.9,0.2,1.5,0.5,1.9,0.8
				c0.4,0.4,0.6,0.9,0.6,1.5c0,0.4-0.1,0.7-0.2,1c-0.1,0.3-0.3,0.6-0.6,0.8c-0.3,0.2-0.6,0.4-1,0.5c-0.4,0.1-0.9,0.2-1.4,0.2
				c-2.1,0-3.2-0.9-3.3-2.7L80.8,97.6L80.8,97.6z"/>
			<path class="st1" d="M80.3,63.6c3.1-5.5,1.8-12.4-3-16.4v-7.7h1.2c0.7,0,1.2-0.5,1.2-1.2v-3.5h1.2c0.7,0,1.2-0.5,1.2-1.2
				c0-0.4-0.2-0.7-0.5-1L54.4,13.8c-0.4-0.3-0.9-0.3-1.3,0L26,32.7c-0.5,0.4-0.7,1.1-0.3,1.6c0.2,0.3,0.6,0.5,1,0.5h1.2v3.5
				c0,0.7,0.5,1.2,1.2,1.2h1.2v18.9H29c-0.7,0-1.2,0.5-1.2,1.2v3.7c-1.4,0.5-2.4,1.8-2.4,3.3V69c0,0.7,0.5,1.2,1.2,1.2h54.2
				c0.7,0,1.2-0.5,1.2-1.2v-2.4C82,65.4,81.4,64.3,80.3,63.6z M77.3,37.2h-9.4v-2.4h9.4V37.2z M75,39.6v6.1
				c-1.5-0.8-3.1-1.2-4.7-1.4v-4.8L75,39.6z M53.7,16.3l23.3,16.2H30.4L53.7,16.3z M40.8,58.4h-1.2V39.6h1.2c0.7,0,1.2-0.5,1.2-1.2
				v-3.5h4.7v3.5c0,0.7,0.5,1.2,1.2,1.2H49v18.9h-1.2c-0.7,0-1.2,0.5-1.2,1.2v3.5H42v-3.5C42,58.9,41.4,58.4,40.8,58.4z M49,60.8
				h7.6c0.2,0.8,0.5,1.6,0.9,2.4H49V60.8z M51.4,58.4V39.6h4.7v18.9H51.4z M57.3,37.2H49v-2.4h9.4v2.4H57.3z M58.5,39.6h1.2
				c0.7,0,1.2-0.5,1.2-1.2v-3.5h4.7v3.5c0,0.7,0.5,1.2,1.2,1.2h1.2v4.8c-3.8,0.4-7.2,2.3-9.4,5.5V39.6z M30.2,34.8h9.4v2.4h-9.4
				V34.8z M37.3,39.6v18.9h-4.7V39.6H37.3z M30.2,60.8h9.4v2.4h-9.4V60.8z M27.8,67.8v-1.2c0-0.7,0.5-1.2,1.2-1.2h30.1
				c0.7,0.9,1.6,1.7,2.6,2.4H27.8z M79.7,67.8h-3.2c0.9-0.6,1.8-1.4,2.5-2.3c0.4,0.2,0.7,0.6,0.7,1.1V67.8z M69.1,67.8
				c-5.9,0-10.6-4.7-10.6-10.6s4.7-10.6,10.6-10.6c5.9,0,10.6,4.7,10.6,10.6S74.9,67.8,69.1,67.8z"/>
			<path class="st1" d="M67.5,28l-13-9.4l-1.4,1.9l10,7.3H42v2.4h24.7c0.5,0,1-0.3,1.2-0.8C68.1,28.8,67.9,28.3,67.5,28z"/>
			<path class="st1" d="M71.4,51.3h-1.2V49h-2.4v2.4h-1.2c-1.3,0-2.4,1.1-2.4,2.4V56c0,1.3,1.1,2.4,2.4,2.4h4.7v2.4h-4.7v-1.2h-2.4
				v1.2c0,1.3,1.1,2.4,2.4,2.4h1.2v2.4h2.4v-2.4h1.2c1.3,0,2.4-1.1,2.4-2.4v-2.4c0-1.3-1.1-2.4-2.4-2.4h-4.7v-2.4h4.7v1.2h2.4v-1.2
				C73.8,52.4,72.7,51.3,71.4,51.3z"/>
		</g>
	</g>
</g>
</svg>
