<svg width="81" height="112" viewBox="0 0 81 112" fill="none" xmlns="http://www.w3.org/2000/svg">
<g clip-path="url(#clip0)">
<path d="M13.0756 91.8726C13.0366 92.4111 12.9273 92.9106 12.7321 93.3711C12.5448 93.8315 12.2715 94.2373 11.9124 94.5729C11.5611 94.9163 11.1162 95.1817 10.5931 95.3768C10.0701 95.5719 9.4534 95.6655 8.75862 95.6655C7.97017 95.6655 7.2832 95.5407 6.70552 95.2987C6.12003 95.0568 5.64384 94.7056 5.26132 94.2686C4.8788 93.8237 4.59777 93.293 4.40261 92.6687C4.20745 92.0443 4.11377 91.3653 4.11377 90.6161C4.11377 89.8513 4.20745 89.1567 4.40261 88.5246C4.59777 87.8924 4.89442 87.3539 5.28474 86.9013C5.68287 86.4486 6.16687 86.0974 6.75236 85.8399C7.33784 85.5901 8.02481 85.4575 8.81327 85.4575C10.0077 85.4575 10.9444 85.754 11.6236 86.3472C12.3028 86.9403 12.7243 87.791 12.9117 88.8836L10.3121 89.1801C10.2653 88.9694 10.2106 88.7743 10.1326 88.5948C10.0623 88.4153 9.96082 88.2592 9.83592 88.1265C9.71101 87.9939 9.56269 87.8924 9.38314 87.8144C9.20359 87.7363 8.98501 87.6973 8.7274 87.6973C7.48617 87.6973 6.86165 88.6416 6.86165 90.5381C6.86165 91.061 6.90849 91.5136 6.99436 91.8804C7.08804 92.2472 7.21294 92.5438 7.38468 92.7701C7.54862 92.9964 7.75159 93.1603 7.98578 93.2618C8.21998 93.3632 8.46978 93.4101 8.75082 93.4101C9.70321 93.4101 10.2497 92.895 10.3824 91.857H13.0756V91.8726Z" fill="#575756"/>
<path d="M22.0375 88.7821C22.0375 89.3987 21.9204 89.9449 21.6862 90.4054C21.452 90.8737 21.0851 91.2483 20.5933 91.5448L22.584 95.4236H19.8205L18.2279 92.0755H16.815V95.4236H14.3247V85.7072H18.1655C18.9227 85.7072 19.5472 85.793 20.0469 85.9647C20.5465 86.1364 20.9446 86.3628 21.2412 86.6515C21.5379 86.9403 21.7487 87.2681 21.8658 87.6349C21.9751 88.0095 22.0375 88.3919 22.0375 88.7821ZM16.8072 90.0464H18.0874C18.6105 90.0464 18.9852 89.945 19.1959 89.742C19.4067 89.5391 19.516 89.2426 19.516 88.8602C19.516 88.5012 19.3989 88.2202 19.1725 88.0173C18.9461 87.8144 18.5558 87.7207 18.0016 87.7207H16.8072V90.0464Z" fill="#575756"/>
<path d="M23.5835 85.7072H30.5391V87.8612H26.1284V89.4143H30.2658V91.5605H26.1284V93.2774H30.8279L30.6093 95.4314H23.5835V85.7072ZM27.8224 84.919H25.5195L27.2603 82.8118H30.0629L27.8224 84.919Z" fill="#575756"/>
<path d="M32.1313 95.4236V85.7072H35.9565C37.5725 85.7072 38.7981 86.113 39.6256 86.9169C40.453 87.7207 40.8746 88.907 40.8746 90.4522C40.8746 92.0521 40.4374 93.2774 39.5631 94.1359C38.6888 94.9944 37.4398 95.4236 35.816 95.4236H32.1313ZM34.7465 93.215H35.8472C36.6435 93.215 37.229 92.9808 37.6037 92.5126C37.9784 92.0443 38.1658 91.3888 38.1658 90.5303C38.1658 89.6718 37.994 89.024 37.6505 88.5792C37.307 88.1343 36.7528 87.908 35.9877 87.908H34.7465V93.215Z" fill="#575756"/>
<path d="M42.3188 85.7072H44.934V95.4236H42.3188V85.7072Z" fill="#575756"/>
<path d="M48.9466 87.9236H46.144V85.7072H54.3643V87.9236H51.5617V95.4236H48.9466V87.9236Z" fill="#575756"/>
<path d="M59.6335 85.4575C60.3985 85.4575 61.0699 85.5745 61.6632 85.8087C62.2565 86.0428 62.7483 86.3784 63.1542 86.8154C63.5602 87.2525 63.8646 87.7831 64.0754 88.4075C64.2862 89.0318 64.3876 89.7342 64.3876 90.5147C64.3876 91.3029 64.2783 92.0131 64.0676 92.6531C63.8568 93.2852 63.5445 93.8315 63.1386 94.2686C62.7327 94.7134 62.2252 95.0568 61.6241 95.2987C61.023 95.5407 60.3439 95.6577 59.571 95.6577C58.806 95.6577 58.1346 95.5407 57.5414 95.3065C56.9481 95.0724 56.4563 94.7368 56.0503 94.2998C55.6444 93.8627 55.3399 93.332 55.1292 92.7077C54.9184 92.0833 54.8169 91.3809 54.8169 90.6005C54.8169 89.8123 54.9262 89.1021 55.137 88.4621C55.3477 87.83 55.66 87.2837 56.0659 86.8466C56.4719 86.4018 56.9793 86.0584 57.5804 85.8165C58.1815 85.5823 58.8606 85.4575 59.6335 85.4575ZM57.5257 90.5615C57.5257 91.498 57.6975 92.2082 58.041 92.6921C58.3845 93.1759 58.9075 93.4179 59.6101 93.4179C60.3127 93.4179 60.8279 93.1759 61.1714 92.6921C61.5149 92.2082 61.6788 91.498 61.6788 90.5615C61.6788 89.625 61.507 88.9148 61.1714 88.4309C60.8279 87.947 60.3127 87.7051 59.6101 87.7051C58.9075 87.7051 58.3923 87.947 58.041 88.4309C57.6975 88.9226 57.5257 89.6328 57.5257 90.5615Z" fill="#575756"/>
<path d="M67.9242 92.2238C67.9789 92.6765 68.1428 93.0121 68.4239 93.2384C68.7049 93.4647 69.1186 93.574 69.6651 93.574C70.1257 93.574 70.477 93.4881 70.7034 93.332C70.9375 93.1682 71.0468 92.934 71.0468 92.6375C71.0468 92.4111 70.9688 92.2238 70.8126 92.0756C70.6565 91.9273 70.3755 91.8102 69.9695 91.7322L68.6737 91.4824C67.5964 91.2795 66.7923 90.9439 66.2771 90.4757C65.7619 90.0074 65.5042 89.3518 65.5042 88.5168C65.5042 87.51 65.8477 86.7452 66.5425 86.2379C67.2373 85.7228 68.1897 85.4731 69.4075 85.4731C70.1179 85.4731 70.719 85.5589 71.2186 85.715C71.7182 85.8789 72.1241 86.0974 72.4442 86.3706C72.7643 86.6437 72.9985 86.9559 73.1624 87.3149C73.3263 87.6739 73.4278 88.0485 73.4747 88.4387L70.9454 88.6963C70.8595 88.3061 70.7034 88.0173 70.477 87.8222C70.2428 87.6349 69.8837 87.5334 69.3919 87.5334C68.9469 87.5334 68.619 87.6115 68.4082 87.7598C68.1975 87.908 68.0882 88.111 68.0882 88.3685C68.0882 88.5948 68.1741 88.7743 68.3458 88.9148C68.5175 89.0475 68.7986 89.1567 69.1733 89.227L70.4926 89.4845C71.6323 89.7108 72.4442 90.0776 72.9282 90.5771C73.4122 91.0844 73.6464 91.7166 73.6464 92.4892C73.6464 92.9731 73.5683 93.4023 73.4044 93.7925C73.2405 94.1827 72.9907 94.5183 72.655 94.7915C72.3193 95.0646 71.8899 95.2831 71.3747 95.4392C70.8595 95.5953 70.2506 95.6733 69.548 95.6733C66.8548 95.6577 65.434 94.5105 65.3013 92.2316H67.9242V92.2238Z" fill="#575756"/>
<path d="M0 102.034H4.06717C4.74634 102.034 5.31621 102.104 5.76118 102.229C6.20615 102.362 6.56525 102.541 6.83847 102.775C7.10389 103.009 7.29125 103.275 7.40054 103.579C7.50983 103.883 7.56448 104.203 7.56448 104.555C7.56448 104.992 7.4786 105.382 7.29906 105.725C7.11951 106.069 6.80725 106.357 6.37008 106.599C6.90873 106.865 7.28344 107.185 7.50202 107.559C7.7206 107.934 7.8299 108.379 7.8299 108.886C7.8299 109.268 7.76744 109.635 7.64254 109.979C7.51764 110.33 7.30686 110.634 7.01802 110.9C6.72918 111.165 6.34667 111.368 5.87047 111.524C5.39428 111.68 4.80879 111.758 4.12182 111.758H0V102.034ZM2.46685 105.764H3.87982C4.33259 105.764 4.64485 105.686 4.80879 105.538C4.97273 105.39 5.05079 105.171 5.05079 104.875C5.05079 104.562 4.95711 104.344 4.76195 104.203C4.56679 104.063 4.23111 103.993 3.7393 103.993H2.46685V105.764ZM2.46685 109.799H3.89543C4.44969 109.799 4.8244 109.706 5.02737 109.503C5.23034 109.308 5.32402 109.042 5.32402 108.707C5.32402 108.371 5.22253 108.113 5.02737 107.942C4.83221 107.762 4.48092 107.676 3.9735 107.676H2.46685V109.799Z" fill="#575756"/>
<path d="M14.5903 102.034L17.9627 111.75H15.2539L14.6918 109.885H11.4131L10.8666 111.75H8.23584L11.616 102.034H14.5903ZM12.061 107.809H14.0595L13.068 104.461L12.061 107.809Z" fill="#575756"/>
<path d="M19.0713 102.034H21.3586L24.8559 107.598V102.034H27.3227V111.75H25.0588L21.5303 106.194V111.75H19.0635V102.034H19.0713Z" fill="#575756"/>
<path d="M37.7367 108.207C37.6977 108.746 37.5884 109.245 37.3933 109.706C37.2059 110.166 36.9327 110.572 36.5736 110.907C36.2223 111.251 35.7773 111.516 35.2543 111.711C34.7312 111.906 34.1145 112 33.4198 112C32.6313 112 31.9443 111.875 31.3667 111.633C30.7812 111.391 30.305 111.04 29.9225 110.603C29.5399 110.158 29.2589 109.627 29.0637 109.003C28.8764 108.379 28.7749 107.7 28.7749 106.951C28.7749 106.186 28.8686 105.491 29.0637 104.859C29.2589 104.227 29.5556 103.688 29.9459 103.236C30.344 102.783 30.828 102.432 31.4135 102.174C31.999 101.925 32.6859 101.792 33.4744 101.792C34.6688 101.792 35.6056 102.089 36.2847 102.682C36.9639 103.275 37.3854 104.125 37.5728 105.218L34.9732 105.515C34.9264 105.304 34.8718 105.109 34.7937 104.929C34.7234 104.75 34.622 104.594 34.497 104.461C34.3721 104.328 34.2238 104.227 34.0443 104.149C33.8647 104.071 33.6461 104.032 33.3885 104.032C32.1473 104.032 31.5228 104.976 31.5228 106.873C31.5228 107.395 31.5696 107.848 31.6555 108.215C31.7492 108.582 31.8741 108.878 32.0458 109.105C32.2098 109.331 32.4127 109.495 32.6469 109.596C32.8811 109.698 33.1309 109.745 33.4119 109.745C34.3643 109.745 34.9108 109.229 35.0435 108.191H37.7367V108.207Z" fill="#575756"/>
<path d="M44.3408 102.034L47.7132 111.75H45.0044L44.4423 109.885H41.1636L40.6171 111.75H37.9863L41.3743 102.034H44.3408ZM41.8037 107.809H43.8022L42.8107 104.461L41.8037 107.809Z" fill="#575756"/>
<path d="M56.5346 105.117C56.5346 105.733 56.4175 106.279 56.1833 106.74C55.9491 107.208 55.5822 107.583 55.0904 107.879L57.081 111.758H54.3175L52.725 108.41H51.312V111.758H48.8218V102.042H52.6626C53.4198 102.042 54.0443 102.128 54.5439 102.299C55.0435 102.471 55.4417 102.697 55.7383 102.986C56.035 103.275 56.2457 103.603 56.3628 103.969C56.4799 104.344 56.5346 104.726 56.5346 105.117ZM51.312 106.381H52.5923C53.1153 106.381 53.4901 106.279 53.7008 106.077C53.9116 105.874 54.0209 105.577 54.0209 105.195C54.0209 104.836 53.9038 104.555 53.6774 104.352C53.451 104.149 53.0607 104.055 52.5064 104.055H51.312V106.381Z" fill="#575756"/>
<path d="M58.0879 102.034H60.7031V111.75H58.0879V102.034Z" fill="#575756"/>
<path d="M66.9641 101.792C67.7291 101.792 68.4004 101.909 68.9937 102.143C69.587 102.377 70.0788 102.713 70.4848 103.15C70.8907 103.587 71.1952 104.118 71.4059 104.742C71.6167 105.366 71.7182 106.069 71.7182 106.849C71.7182 107.637 71.6089 108.348 71.3981 108.988C71.1874 109.62 70.8751 110.166 70.4692 110.603C70.0632 111.04 69.5558 111.391 68.9547 111.633C68.3536 111.875 67.6744 111.992 66.9016 111.992C66.1366 111.992 65.4652 111.875 64.8719 111.641C64.2786 111.407 63.7868 111.071 63.3809 110.634C62.9749 110.197 62.6705 109.667 62.4597 109.042C62.2489 108.418 62.1475 107.715 62.1475 106.935C62.1475 106.147 62.2567 105.437 62.4675 104.797C62.6783 104.164 62.9906 103.618 63.3965 103.181C63.8024 102.736 64.3099 102.393 64.911 102.151C65.5121 101.917 66.1912 101.792 66.9641 101.792ZM64.8563 106.896C64.8563 107.832 65.028 108.543 65.3715 109.027C65.715 109.51 66.2381 109.752 66.9406 109.752C67.6432 109.752 68.1584 109.51 68.5019 109.027C68.8454 108.543 69.0094 107.832 69.0094 106.896C69.0094 105.959 68.8376 105.249 68.5019 104.765C68.1584 104.282 67.6432 104.04 66.9406 104.04C66.2381 104.04 65.7228 104.282 65.3715 104.765C65.0202 105.249 64.8563 105.959 64.8563 106.896Z" fill="#575756"/>
<path d="M75.2543 108.558C75.309 109.011 75.4729 109.347 75.7539 109.573C76.035 109.799 76.4487 109.908 76.9952 109.908C77.4558 109.908 77.807 109.823 78.0334 109.667C78.2676 109.503 78.3769 109.268 78.3769 108.972C78.3769 108.746 78.2989 108.558 78.1427 108.41C77.9866 108.262 77.7056 108.145 77.2996 108.067L76.0037 107.817C74.9265 107.614 74.1224 107.278 73.6072 106.81C73.0919 106.342 72.8343 105.686 72.8343 104.851C72.8343 103.844 73.1778 103.08 73.8726 102.572C74.5674 102.057 75.5197 101.808 76.7376 101.808C77.4479 101.808 78.049 101.893 78.5487 102.049C79.0483 102.213 79.4542 102.432 79.7743 102.705C80.0943 102.978 80.3285 103.29 80.4925 103.649C80.6564 104.008 80.7579 104.383 80.8047 104.773L78.2754 105.031C78.1896 104.641 78.0334 104.352 77.807 104.157C77.5728 103.969 77.2138 103.868 76.7219 103.868C76.277 103.868 75.9491 103.946 75.7383 104.094C75.5275 104.242 75.4183 104.445 75.4183 104.703C75.4183 104.929 75.5041 105.109 75.6759 105.249C75.8476 105.39 76.1287 105.491 76.5034 105.561L77.8227 105.819C78.9624 106.045 79.7743 106.412 80.2583 106.912C80.7423 107.419 80.9765 108.051 80.9765 108.824C80.9765 109.308 80.8984 109.737 80.7345 110.127C80.5705 110.517 80.3207 110.853 79.9851 111.126C79.6494 111.399 79.22 111.618 78.7048 111.774C78.1896 111.93 77.5807 112.008 76.8781 112.008C74.1848 111.992 72.7641 110.845 72.6313 108.566H75.2543V108.558Z" fill="#575756"/>
<path d="M74.6848 64.6355C78.713 57.5648 77.0736 48.621 70.7972 43.4311V33.504H72.3195C73.1626 33.504 73.8417 32.825 73.8417 31.9822V27.4166H75.364C76.2071 27.4166 76.8862 26.7298 76.8862 25.887C76.8862 25.3875 76.6442 24.927 76.2383 24.6383L41.2028 0.273156C40.6798 -0.0858436 39.985 -0.0858436 39.4698 0.273156L4.42653 24.6383C3.73956 25.1222 3.56781 26.0665 4.05181 26.7611C4.33285 27.1669 4.80124 27.4088 5.30085 27.4088H6.82311V31.9744C6.82311 32.8172 7.50228 33.4962 8.34538 33.4962H9.86764V57.8691H8.34538C7.50228 57.8691 6.82311 58.5481 6.82311 59.391V64.2375C5.0042 64.8774 3.77859 66.6022 3.77859 68.5299V71.5735C3.77859 72.4164 4.45775 73.0954 5.30085 73.0954H75.3796C76.2227 73.0954 76.9019 72.4164 76.9019 71.5735V68.5299C76.8941 66.9378 76.0509 65.4628 74.6848 64.6355ZM70.805 30.4603H58.6113V27.4166H70.805V30.4603ZM67.7527 33.504V41.441C65.8557 40.4655 63.787 39.8645 61.6558 39.6772V33.5118L67.7527 33.504ZM40.3285 3.37928L70.5083 24.3651H10.1487L40.3285 3.37928ZM23.5758 57.8769H22.0536V33.504H23.5758C24.4189 33.504 25.0981 32.825 25.0981 31.9822V27.4166H31.1949V31.9822C31.1949 32.825 31.8741 33.504 32.7172 33.504H34.2395V57.8769H32.7172C31.8741 57.8769 31.1949 58.5559 31.1949 59.3988V63.9643H25.0981V59.3988C25.0981 58.5559 24.4189 57.8769 23.5758 57.8769ZM34.2395 60.9206H44.0366C44.3332 61.9742 44.7392 62.9966 45.2388 63.9643H34.2395V60.9206ZM37.284 57.8769V33.504H43.3808V57.8769H37.284ZM44.9031 30.4603H34.2395V27.4166H46.4254V30.4603H44.9031ZM46.4254 33.504H47.9476C48.7907 33.504 49.4699 32.825 49.4699 31.9822V27.4166H55.5668V31.9822C55.5668 32.825 56.2459 33.504 57.089 33.504H58.6113V39.6694C53.7088 40.1221 49.2513 42.7053 46.4254 46.7402V33.504ZM9.85983 27.4166H22.0457V30.4603H9.85983V27.4166ZM19.0012 33.504V57.8769H12.9044V33.504H19.0012ZM9.85983 60.9206H22.0457V63.9643H9.85983V60.9206ZM6.81531 70.0595V68.5377C6.81531 67.6948 7.49447 67.0158 8.33757 67.0158H47.2138C48.174 68.1709 49.2904 69.201 50.5238 70.0595H6.81531ZM73.8495 70.0595H69.7355C70.9221 69.2322 71.9994 68.2567 72.9362 67.1485C73.4904 67.3904 73.8495 67.9289 73.8495 68.5377V70.0595ZM60.1413 70.0595C52.5691 70.0595 46.4332 63.9253 46.4332 56.3551C46.4332 48.7849 52.5691 42.6507 60.1413 42.6507C67.7136 42.6507 73.8495 48.7849 73.8495 56.3551C73.8495 63.9253 67.7136 70.0595 60.1413 70.0595Z" fill="#575756"/>
<path d="M58.0649 18.5665L41.3044 6.37614L39.4308 8.84231L52.3974 18.27H25.0981V21.3136H57.0891C57.7761 21.3449 58.4006 20.9156 58.6113 20.2601C58.8221 19.6435 58.5957 18.9567 58.0649 18.5665Z" fill="#575756"/>
<path d="M63.1858 48.7381H61.6636V45.6944H58.619V48.7381H57.0968C55.4106 48.7381 54.0522 50.1038 54.0522 51.7818V54.8255C54.0522 56.5112 55.4184 57.8691 57.0968 57.8691H63.1936V60.9128H57.0968V59.391H54.0522V60.9128C54.0522 62.5986 55.4184 63.9565 57.0968 63.9565H58.619V67.0002H61.6636V63.9565H63.1858C64.872 63.9565 66.2304 62.5908 66.2304 60.9128V57.8691C66.2304 56.1834 64.8642 54.8255 63.1858 54.8255H57.089V51.7818H63.1858V53.3036H66.2304V51.7818C66.2304 50.1038 64.8642 48.7381 63.1858 48.7381Z" fill="#575756"/>
</g>
<defs>
<clipPath id="clip0">
<rect width="81" height="112" fill="white"/>
</clipPath>
</defs>
</svg>
