<svg width="327" height="132" viewBox="0 0 327 132" fill="none" xmlns="http://www.w3.org/2000/svg">
<rect width="327" height="132" fill="white"/>
<path fill-rule="evenodd" clip-rule="evenodd" d="M110.891 90.9727V63.9639V62.6205L109.946 61.6693L90.5161 42.2258L71.0731 61.6693L70.1283 62.6205V63.9639V90.9727H76.6071V65.3009L90.5225 51.3851L104.425 65.3009V90.9727H110.891ZM36.5 41.8337V50.993L50.8074 65.3009V90.9727H57.2863V63.9639V62.6205L56.335 61.6693L36.5 41.8337ZM123.727 62.6205V63.9639V90.9727H130.199V65.3009L144.494 50.993V41.8337L124.671 61.6693L123.727 62.6205ZM63.508 48.197C68.6821 48.197 72.8728 44.0062 72.8728 38.832C72.8728 33.6513 68.6821 29.4605 63.508 29.4605C58.334 29.4605 54.1433 33.6513 54.1433 38.8255C54.1433 43.9998 58.334 48.197 63.508 48.197ZM117.505 48.197C122.672 48.197 126.863 44.0062 126.863 38.832C126.87 33.6513 122.679 29.4605 117.505 29.4605C112.337 29.4605 108.146 33.6513 108.146 38.8255C108.146 43.9998 112.337 48.197 117.505 48.197ZM117.479 56.8357L90.5161 29.859L63.5337 56.8357L36.5 29.8012V38.9605L60.3008 62.762V90.9727H66.7732V62.762L90.5161 39.0184L114.24 62.762V90.9727H120.712V62.762L144.494 38.9605V29.8012L117.479 56.8357ZM36.6157 105.203H39.8551V94.63H36.6157V105.203ZM52.0736 101.726H52.0222L45.8969 94.63H42.6832V105.203H45.7169V98.1202H45.7555L51.868 105.203H55.101V94.63H52.0672V101.726H52.0736ZM57.929 105.203H61.1685V100.826H67.3195V99.0329H61.1685V96.5776H68.2643V94.63H57.929V105.203ZM82.0319 95.9927C81.4148 95.4849 80.6628 95.0928 79.7694 94.8036C78.876 94.5143 77.8605 94.3729 76.7228 94.3729C75.598 94.3729 74.5889 94.5143 73.6891 94.8036C72.7892 95.0928 72.0308 95.4849 71.4138 95.9927C70.7967 96.494 70.3211 97.0854 69.9933 97.7667C69.6655 98.4416 69.4984 99.1808 69.4984 99.9714C69.4984 100.743 69.6655 101.463 69.9933 102.131C70.3211 102.8 70.7967 103.378 71.4138 103.873C72.0308 104.368 72.7892 104.753 73.6891 105.036C74.5889 105.319 75.598 105.461 76.7228 105.461C77.8605 105.461 78.876 105.319 79.7694 105.036C80.6628 104.753 81.4148 104.368 82.0319 103.873C82.6489 103.378 83.1245 102.8 83.4523 102.131C83.7801 101.463 83.9472 100.743 83.9472 99.9714C83.9472 99.1808 83.7801 98.448 83.4523 97.7667C83.1245 97.0918 82.6489 96.5005 82.0319 95.9927ZM80.4893 101.263C80.3479 101.681 80.1165 102.06 79.8016 102.401C79.4866 102.735 79.0753 103.005 78.5675 103.211C78.0597 103.417 77.4427 103.513 76.7164 103.513C75.9901 103.513 75.3731 103.41 74.8653 103.211C74.3575 103.005 73.9462 102.742 73.6312 102.401C73.3163 102.067 73.0849 101.688 72.9435 101.263C72.8021 100.846 72.725 100.408 72.725 99.9649C72.725 99.5021 72.7957 99.0522 72.9435 98.6151C73.0849 98.1781 73.3163 97.7924 73.6312 97.4517C73.9462 97.1111 74.3575 96.8347 74.8653 96.6354C75.3731 96.4297 75.9901 96.3333 76.7164 96.3333C77.4427 96.3333 78.0597 96.4362 78.5675 96.6354C79.0753 96.8411 79.4866 97.1111 79.8016 97.4517C80.1165 97.7924 80.3479 98.1845 80.4893 98.6151C80.6307 99.0522 80.7078 99.5021 80.7078 99.9649C80.7078 100.408 80.6371 100.839 80.4893 101.263ZM95.523 101.726H95.4716L89.3463 94.63H86.139V105.203H89.1727V98.1202H89.2113L95.3238 105.203H98.5568V94.63H95.523V101.726V101.726ZM118.784 102.067H118.739L115.069 94.63H111.354L116.689 105.203H120.776L126.246 94.63H122.505L118.784 102.067ZM105.196 94.63L99.9258 105.203H103.532L107.112 97.7667H107.157L110.692 105.203H114.272L109.13 94.63H105.196ZM127.493 105.203H130.732V94.63H127.493V105.203ZM132.397 96.5776H136.8V105.203H140.039V96.5776H144.442V94.63H132.397V96.5776Z" fill="#575756"/>
<path d="M203.931 106.941C203.931 108.392 203.931 109.527 204.008 110.16C204.056 110.596 204.146 110.93 204.6 110.99C204.809 111.02 205.144 111.05 205.359 111.05C205.556 111.05 205.616 111.098 205.616 111.169C205.616 111.277 205.508 111.318 205.281 111.318C204.331 111.318 203.375 111.277 202.98 111.277C202.586 111.277 201.636 111.318 201.062 111.318C200.853 111.318 200.745 111.289 200.745 111.169C200.745 111.092 200.805 111.05 200.972 111.05C201.199 111.05 201.379 111.02 201.516 110.99C201.821 110.93 201.893 110.596 201.952 110.16C202.03 109.527 202.03 108.392 202.03 106.941V104.283C202.03 101.984 202.03 101.566 202 101.082C201.97 100.568 201.851 100.323 201.349 100.222C201.229 100.192 200.972 100.174 200.757 100.174C200.608 100.174 200.5 100.144 200.5 100.055C200.5 99.9353 200.62 99.9054 200.847 99.9054C201.241 99.9054 201.677 99.9174 202.072 99.9174C202.466 99.9293 202.813 99.9472 203.022 99.9472C203.596 99.9472 206.668 99.9472 207.014 99.9293C207.301 99.9174 207.481 99.9174 207.636 99.8696C207.726 99.8397 207.803 99.78 207.875 99.78C207.935 99.78 207.983 99.8397 207.983 99.9174C207.983 100.025 207.905 100.204 207.863 100.598C207.845 100.748 207.815 101.643 207.785 101.823C207.773 101.942 207.738 102.038 207.636 102.038C207.528 102.038 207.498 101.96 207.487 101.799C207.487 101.679 207.487 101.434 207.397 101.225C207.289 101.01 206.973 100.789 206.399 100.771L204.068 100.724C203.978 100.724 203.931 100.771 203.931 100.933V104.713C203.931 104.803 203.948 104.85 204.038 104.85L205.974 104.833C206.231 104.833 206.441 104.833 206.656 104.815C206.943 104.797 207.158 104.737 207.307 104.54C207.385 104.45 207.415 104.391 207.504 104.391C207.564 104.391 207.594 104.438 207.594 104.528C207.594 104.618 207.516 105 207.475 105.466C207.445 105.77 207.415 106.463 207.415 106.571C207.415 106.708 207.415 106.857 207.265 106.857C207.176 106.857 207.146 106.75 207.146 106.648C207.146 106.541 207.116 106.361 207.056 106.176C206.979 105.967 206.751 105.693 206.285 105.633C205.909 105.585 204.301 105.585 204.044 105.585C203.966 105.585 203.936 105.615 203.936 105.722V106.941H203.931Z" fill="#575756"/>
<path d="M220.521 105.896C220.521 102.509 218.573 100.407 216.092 100.407C214.353 100.407 212.369 101.375 212.369 105.137C212.369 108.279 214.108 110.775 217.013 110.775C218.071 110.775 220.521 110.261 220.521 105.896ZM210.283 105.609C210.283 103.023 211.992 99.6845 216.529 99.6845C220.294 99.6845 222.637 101.876 222.637 105.34C222.637 108.804 220.216 111.539 216.373 111.539C212.034 111.533 210.283 108.285 210.283 105.609Z" fill="#575756"/>
<path d="M224.657 101.375C224.31 100.544 224.053 100.377 223.509 100.228C223.282 100.168 223.043 100.168 222.918 100.168C222.78 100.168 222.738 100.12 222.738 100.031C222.738 99.9114 222.906 99.8935 223.133 99.8935C223.934 99.8935 224.794 99.9413 225.326 99.9413C225.703 99.9413 226.432 99.8935 227.185 99.8935C227.364 99.8935 227.531 99.9234 227.531 100.031C227.531 100.138 227.442 100.168 227.304 100.168C227.059 100.168 226.838 100.186 226.713 100.276C226.605 100.353 226.563 100.455 226.563 100.592C226.563 100.789 226.701 101.213 226.91 101.757L229.51 108.619H229.569C230.221 106.959 232.187 102.091 232.552 101.094C232.629 100.897 232.689 100.67 232.689 100.533C232.689 100.413 232.629 100.294 232.492 100.246C232.313 100.186 232.086 100.168 231.888 100.168C231.751 100.168 231.631 100.15 231.631 100.049C231.631 99.9293 231.769 99.8995 232.056 99.8995C232.815 99.8995 233.448 99.9473 233.645 99.9473C233.902 99.9473 234.614 99.8995 235.068 99.8995C235.265 99.8995 235.385 99.9294 235.385 100.037C235.385 100.144 235.295 100.174 235.145 100.174C234.996 100.174 234.679 100.174 234.404 100.353C234.207 100.491 233.98 100.748 233.574 101.715C232.982 103.136 232.576 103.955 231.757 105.812C230.789 108.016 230.077 109.664 229.743 110.423C229.348 111.301 229.259 111.539 229.049 111.539C228.852 111.539 228.763 111.324 228.476 110.62L224.657 101.375Z" fill="#575756"/>
<path d="M237.901 104.277C237.901 101.978 237.901 101.56 237.871 101.076C237.841 100.562 237.692 100.306 237.357 100.228C237.19 100.18 236.993 100.168 236.813 100.168C236.664 100.168 236.574 100.138 236.574 100.019C236.574 99.9293 236.694 99.8995 236.939 99.8995C237.513 99.8995 238.469 99.9473 238.905 99.9473C239.282 99.9473 240.178 99.8995 240.752 99.8995C240.949 99.8995 241.069 99.9293 241.069 100.019C241.069 100.138 240.979 100.168 240.824 100.168C240.674 100.168 240.549 100.186 240.369 100.216C239.963 100.294 239.837 100.55 239.807 101.076C239.778 101.56 239.778 101.984 239.778 104.277V106.935C239.778 108.404 239.778 109.593 239.837 110.243C239.885 110.65 239.987 110.924 240.441 110.984C240.65 111.014 240.985 111.044 241.212 111.044C241.379 111.044 241.451 111.092 241.451 111.163C241.451 111.271 241.332 111.313 241.164 111.313C240.166 111.313 239.21 111.271 238.803 111.271C238.457 111.271 237.501 111.313 236.897 111.313C236.7 111.313 236.592 111.271 236.592 111.163C236.592 111.086 236.652 111.044 236.837 111.044C237.064 111.044 237.244 111.014 237.381 110.984C237.686 110.924 237.775 110.668 237.817 110.226C237.895 109.593 237.895 108.398 237.895 106.929V104.277H237.901Z" fill="#575756"/>
<path d="M243.662 111.139C243.393 111.032 243.339 110.96 243.339 110.626C243.339 109.796 243.405 108.888 243.423 108.643C243.44 108.416 243.488 108.249 243.626 108.249C243.775 108.249 243.793 108.386 243.793 108.506C243.793 108.703 243.859 109.019 243.942 109.276C244.313 110.393 245.311 110.805 246.357 110.805C247.875 110.805 248.622 109.885 248.622 109.085C248.622 108.344 248.371 107.652 246.967 106.666L246.19 106.123C244.331 104.821 243.691 103.764 243.691 102.539C243.691 100.879 245.245 99.6845 247.594 99.6845C248.694 99.6845 249.405 99.8338 249.841 99.9413C249.991 99.9711 250.08 100.019 250.08 100.12C250.08 100.318 250.015 100.754 250.015 101.936C250.015 102.27 249.967 102.39 249.829 102.39C249.71 102.39 249.662 102.3 249.662 102.121C249.662 101.984 249.578 101.518 249.22 101.124C248.969 100.837 248.479 100.383 247.379 100.383C246.13 100.383 245.371 101.034 245.371 101.942C245.371 102.635 245.759 103.166 247.164 104.116L247.636 104.432C249.68 105.806 250.409 106.851 250.409 108.285C250.409 109.162 250.039 110.202 248.819 110.912C247.977 111.396 247.026 111.533 246.13 111.533C245.15 111.533 244.391 111.426 243.662 111.139Z" fill="#575756"/>
<path d="M252.741 111.139C252.472 111.032 252.418 110.96 252.418 110.626C252.418 109.796 252.484 108.888 252.502 108.643C252.52 108.416 252.567 108.249 252.705 108.249C252.854 108.249 252.872 108.386 252.872 108.506C252.872 108.703 252.938 109.019 253.022 109.276C253.392 110.393 254.39 110.805 255.436 110.805C256.954 110.805 257.701 109.885 257.701 109.085C257.701 108.344 257.45 107.652 256.046 106.666L255.269 106.123C253.41 104.821 252.771 103.764 252.771 102.539C252.771 100.879 254.324 99.6845 256.673 99.6845C257.773 99.6845 258.484 99.8338 258.92 99.9413C259.07 99.9711 259.159 100.019 259.159 100.12C259.159 100.318 259.094 100.754 259.094 101.936C259.094 102.27 259.046 102.39 258.908 102.39C258.789 102.39 258.741 102.3 258.741 102.121C258.741 101.984 258.657 101.518 258.305 101.124C258.054 100.837 257.564 100.383 256.464 100.383C255.215 100.383 254.456 101.034 254.456 101.942C254.456 102.635 254.844 103.166 256.249 104.116L256.721 104.432C258.765 105.806 259.494 106.851 259.494 108.285C259.494 109.162 259.124 110.202 257.904 110.912C257.062 111.396 256.111 111.533 255.215 111.533C254.229 111.533 253.47 111.426 252.741 111.139Z" fill="#575756"/>
<path d="M262.015 111.139C261.746 111.032 261.692 110.96 261.692 110.626C261.692 109.796 261.758 108.888 261.776 108.643C261.794 108.416 261.842 108.249 261.979 108.249C262.135 108.249 262.147 108.386 262.147 108.506C262.147 108.703 262.212 109.019 262.296 109.276C262.667 110.393 263.665 110.805 264.711 110.805C266.229 110.805 266.976 109.885 266.976 109.085C266.976 108.344 266.725 107.652 265.32 106.666L264.543 106.123C262.684 104.821 262.039 103.764 262.039 102.539C262.039 100.879 263.593 99.6845 265.942 99.6845C267.041 99.6845 267.747 99.8338 268.189 99.9413C268.338 99.9711 268.428 100.019 268.428 100.12C268.428 100.318 268.362 100.754 268.362 101.936C268.362 102.27 268.314 102.39 268.177 102.39C268.057 102.39 268.01 102.3 268.01 102.121C268.01 101.984 267.926 101.518 267.567 101.124C267.316 100.837 266.826 100.383 265.727 100.383C264.477 100.383 263.712 101.034 263.712 101.942C263.712 102.635 264.101 103.166 265.505 104.116L265.978 104.432C268.021 105.806 268.751 106.851 268.751 108.285C268.751 109.162 268.38 110.202 267.161 110.912C266.318 111.396 265.368 111.533 264.471 111.533C263.503 111.533 262.744 111.426 262.015 111.139Z" fill="#575756"/>
<path d="M274.955 100.742L272.702 100.801C271.823 100.831 271.465 100.909 271.232 101.237C271.082 101.464 271.005 101.643 270.975 101.769C270.945 101.888 270.897 101.948 270.807 101.948C270.7 101.948 270.67 101.87 270.67 101.709C270.67 101.464 270.957 100.091 270.987 99.9711C271.034 99.7741 271.076 99.6845 271.166 99.6845C271.286 99.6845 271.441 99.8338 271.817 99.8636C272.254 99.9114 272.833 99.9413 273.329 99.9413H279.318C279.802 99.9413 280.137 99.8935 280.364 99.8636C280.591 99.8218 280.71 99.786 280.77 99.786C280.878 99.786 280.89 99.8756 280.89 100.103C280.89 100.419 280.842 101.464 280.842 101.858C280.83 102.008 280.8 102.097 280.704 102.097C280.585 102.097 280.555 102.02 280.537 101.793L280.519 101.625C280.489 101.231 280.083 100.807 278.732 100.777L276.826 100.736V106.935C276.826 108.326 276.826 109.521 276.903 110.172C276.951 110.596 277.041 110.93 277.495 110.99C277.704 111.02 278.039 111.05 278.266 111.05C278.433 111.05 278.505 111.098 278.505 111.169C278.505 111.277 278.386 111.318 278.218 111.318C277.22 111.318 276.27 111.277 275.846 111.277C275.499 111.277 274.543 111.318 273.939 111.318C273.742 111.318 273.634 111.277 273.634 111.169C273.634 111.092 273.694 111.05 273.873 111.05C274.1 111.05 274.28 111.02 274.417 110.99C274.722 110.93 274.812 110.596 274.853 110.16C274.931 109.527 274.931 108.332 274.931 106.941V100.742H274.955Z" fill="#575756"/>
<path d="M284.386 104.277C284.386 101.978 284.386 101.56 284.357 101.076C284.327 100.562 284.207 100.318 283.705 100.216C283.586 100.186 283.329 100.168 283.113 100.168C282.946 100.168 282.856 100.138 282.856 100.031C282.856 99.9234 282.964 99.8935 283.191 99.8935C283.598 99.8935 284.04 99.9054 284.416 99.9054C284.811 99.9174 285.157 99.9353 285.367 99.9353C285.851 99.9353 288.863 99.9353 289.15 99.9174C289.437 99.8875 289.682 99.8577 289.801 99.8278C289.879 99.8159 289.968 99.7681 290.04 99.7681C290.118 99.7681 290.13 99.8278 290.13 99.9054C290.13 100.013 290.052 100.192 290.01 100.885C289.992 101.034 289.963 101.703 289.933 101.882C289.915 101.96 289.885 102.049 289.783 102.049C289.676 102.049 289.646 101.972 289.646 101.84C289.646 101.733 289.628 101.476 289.556 101.297C289.449 101.022 289.299 100.843 288.54 100.754C288.283 100.724 286.693 100.694 286.395 100.694C286.317 100.694 286.287 100.742 286.287 100.843V104.665C286.287 104.773 286.305 104.833 286.395 104.833C286.729 104.833 288.468 104.833 288.815 104.803C289.18 104.773 289.407 104.725 289.544 104.576C289.652 104.456 289.711 104.379 289.783 104.379C289.843 104.379 289.891 104.409 289.891 104.498C289.891 104.588 289.831 104.833 289.771 105.603C289.753 105.908 289.711 106.511 289.711 106.618C289.711 106.738 289.711 106.905 289.574 106.905C289.466 106.905 289.437 106.845 289.437 106.768C289.419 106.618 289.419 106.421 289.377 106.224C289.299 105.92 289.09 105.693 288.528 105.633C288.241 105.603 286.741 105.585 286.383 105.585C286.305 105.585 286.293 105.645 286.293 105.734V106.929C286.293 107.442 286.275 108.834 286.293 109.27C286.323 110.315 286.568 110.542 288.11 110.542C288.504 110.542 289.138 110.542 289.532 110.363C289.927 110.184 290.106 109.867 290.214 109.246C290.243 109.079 290.273 109.019 290.381 109.019C290.5 109.019 290.5 109.139 290.5 109.294C290.5 109.64 290.381 110.668 290.303 110.972C290.196 111.366 290.058 111.366 289.484 111.366C288.349 111.366 287.518 111.336 286.867 111.318C286.215 111.289 285.749 111.277 285.295 111.277C285.128 111.277 284.793 111.277 284.434 111.295C284.088 111.295 283.693 111.324 283.388 111.324C283.191 111.324 283.084 111.283 283.084 111.175C283.084 111.098 283.143 111.056 283.323 111.056C283.55 111.056 283.729 111.026 283.866 110.996C284.171 110.936 284.243 110.602 284.303 110.166C284.38 109.533 284.38 108.338 284.38 106.947V104.277H284.386Z" fill="#575756"/>
<path d="M224.616 44.2736C224.592 44.5483 224.532 44.7573 224.562 44.9544C224.831 46.6804 225.082 48.4064 225.416 50.1205C225.476 50.4191 225.751 50.6699 226.02 50.9864C226.08 51.0581 226.205 51.0342 226.223 50.9387C226.612 49.1052 226.044 45.1097 224.616 44.2736ZM266.373 44.399C266.302 44.3871 266.23 44.3751 266.158 44.3572C265.955 44.6498 265.71 44.9305 265.549 45.2471C264.778 46.7879 264.664 48.4721 264.604 50.1503C264.598 50.3534 264.676 50.5564 264.742 50.7595C264.772 50.8491 264.885 50.8789 264.957 50.8192C265.148 50.646 265.345 50.4728 265.525 50.2877C265.602 50.21 265.602 50.0607 265.632 49.9532C265.704 49.7084 265.776 49.4695 265.824 49.2186C266.063 47.8808 266.278 46.5371 266.451 45.1873C266.487 44.9305 266.403 44.6618 266.373 44.399ZM270.587 40.1408C269.427 40.4752 268.549 45.5218 268.603 48.1138C268.603 48.1854 268.692 48.2153 268.74 48.1615C269.619 47.0746 271.005 41.2516 270.587 40.1408ZM222.315 48.3586C222.363 48.3467 222.41 48.3407 222.458 48.3288C222.458 48.1615 222.47 47.9943 222.458 47.8271C222.38 46.9313 222.333 46.0354 222.213 45.1515C221.992 43.5151 221.675 41.8966 220.844 40.4334C220.773 40.308 220.599 40.2423 220.468 40.1527C220.432 40.296 220.354 40.4453 220.372 40.5827C220.486 41.6099 220.629 42.6372 220.737 43.6704C220.904 45.3605 221.615 46.8536 222.315 48.3586ZM218.729 46.764C218.705 46.5371 218.687 46.3101 218.651 46.0832C218.496 44.9903 218.37 43.8914 218.179 42.8044C217.856 41.0306 217.563 39.2449 217.115 37.501C216.924 36.7485 216.38 36.0856 215.968 35.4047C215.902 35.2972 215.675 35.2913 215.519 35.2315C215.478 35.357 215.388 35.4884 215.406 35.6078C215.603 37.1009 215.812 38.5939 216.015 40.093C216.213 41.5024 216.368 42.9119 216.625 44.3094C216.828 45.4083 217.121 46.4893 217.426 47.5643C217.557 48.0361 217.922 48.1436 218.269 47.8092C218.532 47.5643 218.771 46.7879 218.729 46.764ZM275.625 35.9303C275.577 35.7093 275.523 35.4645 275.47 35.2196C275.248 35.3629 275.015 35.4943 274.818 35.6615C274.705 35.7571 274.627 35.9124 274.543 36.0497C273.581 37.6145 273.342 39.4002 273.049 41.162C272.762 42.8761 272.529 44.5961 272.32 46.3161C272.272 46.7282 272.362 47.1881 272.505 47.5822C272.571 47.7674 272.906 47.9107 273.139 47.9465C273.264 47.9645 273.491 47.7435 273.563 47.5882C273.754 47.1582 273.958 46.7162 274.035 46.2564C274.346 44.4289 274.615 42.5894 274.89 40.7559C275.135 39.1613 275.374 37.5667 275.625 35.9303ZM211.294 35.7452C211.163 36.2289 210.989 36.6231 210.947 37.0292C210.78 38.9344 210.631 40.8395 210.505 42.7507C210.332 45.4322 210.17 48.1138 210.027 50.7953C209.937 52.5153 209.931 54.2234 210.69 55.8538C212.095 58.8758 213.398 61.9456 215.346 64.6809C216.44 66.2217 217.468 67.7865 219.231 68.6764C221.454 69.7991 223.63 71.0354 225.889 72.0865C229.737 73.8782 233.664 75.5086 237.501 77.3302C239.318 78.1902 241.021 79.301 242.724 80.3761C243.489 80.8598 244.105 81.5705 244.822 82.1319C245.48 82.6455 245.611 82.6396 246.233 82.0901C247.631 80.8598 249.024 79.5997 250.709 78.7755C254.05 77.1451 257.415 75.5624 260.797 74.0156C264.455 72.3433 268.184 70.8204 271.651 68.754C272.631 68.1687 273.581 67.5297 274.292 66.604C276.599 63.6059 278.356 60.2913 279.88 56.8452C280.197 56.1226 280.508 55.394 280.723 54.6355C281.249 52.7662 280.95 50.861 280.866 48.9738C280.753 46.5192 280.585 44.0646 280.436 41.6159C280.352 40.2662 280.287 38.9164 280.179 37.5667C280.143 37.1188 280 36.6709 279.886 36.2289C279.779 35.8288 279.522 35.7213 279.259 36.0617C278.918 36.4977 278.488 36.9516 278.386 37.4592C278.057 39.0717 277.866 40.7141 277.609 42.3386C277.346 43.9869 277.065 45.6293 276.79 47.2717C276.486 49.0693 276.229 50.8849 275.852 52.6646C275.535 54.1517 275.189 55.6448 274.663 57.0662C273.88 59.1804 272.338 60.7511 270.437 61.9097C268.776 62.9191 267.055 63.8448 265.304 64.6928C264.353 65.1527 263.29 65.3976 262.268 65.7141C261.855 65.8395 261.592 65.7022 261.473 65.2124C261.174 63.9941 261.55 62.9967 262.572 62.3816C264.084 61.4678 265.686 60.6914 267.252 59.8672C268.979 58.9535 270.635 57.974 271.388 56.0151C271.806 54.9341 272.111 53.8531 271.752 52.6826C271.639 52.3123 271.483 52.1331 271.071 52.3242C270.276 52.6885 269.445 52.9872 268.662 53.3813C266.606 54.4145 264.586 55.5134 262.525 56.5347C259.865 57.8546 257.176 59.0968 254.516 60.4227C253.046 61.1513 251.695 62.071 250.512 63.2237C248.504 65.1706 247.595 67.6969 246.884 70.3008C246.448 71.9074 246.113 73.5438 245.731 75.1682C245.689 75.3534 245.593 75.5325 245.486 75.8192C245.402 75.6281 245.366 75.5743 245.354 75.5086C244.756 73.1317 244.23 70.7308 243.543 68.3718C242.88 66.0903 241.649 64.1135 239.79 62.5667C237.824 60.9243 235.511 59.8971 233.234 58.7922C230.706 57.5679 228.184 56.3257 225.668 55.0775C223.659 54.0861 221.657 53.0767 219.583 52.0376C219.41 52.4556 219.231 52.7124 219.201 52.9931C218.986 54.8266 219.56 56.4272 220.785 57.7829C221.86 58.9654 223.295 59.6164 224.693 60.3211C225.942 60.9542 227.197 61.5932 228.387 62.3278C229.552 63.0505 229.923 64.2509 229.51 65.3796C229.403 65.6723 229.241 65.7858 228.961 65.7201C228.363 65.5946 227.723 65.5409 227.174 65.296C225.446 64.5137 223.713 63.7313 222.07 62.8056C220.868 62.1307 219.715 61.3245 218.681 60.4107C216.745 58.6907 215.878 56.3675 215.4 53.8949C215.029 51.9838 214.719 50.0607 214.408 48.1377C213.87 44.7573 213.356 41.3711 212.818 37.9967C212.657 37.077 212.238 36.3066 211.294 35.7452ZM245.468 62.6204C245.569 62.5368 245.659 62.4831 245.719 62.4055C248.02 59.3178 251.092 57.2275 254.528 55.6269C256.004 54.9401 257.522 54.3309 259.052 53.7755C260.14 53.3813 260.684 52.5751 260.965 51.5598C261.509 49.5829 261.981 47.5882 262.513 45.6054C262.961 43.9093 263.415 42.2131 264.306 40.6783C264.539 40.2781 264.837 39.866 265.202 39.5913C265.901 39.0658 266.391 38.3909 266.774 37.6384C267.204 36.7903 267.868 36.1931 268.668 35.7153C269.027 35.5003 269.386 35.2674 269.744 35.0524C270.605 34.5388 271.059 33.7265 271.471 32.8486C272.786 30.0595 275.679 28.3336 278.757 28.6441C280.765 28.8472 282.002 30.0954 282.749 31.893C283.245 33.0935 283.394 34.3596 283.496 35.6436C283.717 38.4626 283.974 41.2815 284.201 44.1004C284.458 47.2717 284.697 50.443 284.536 53.6262C284.47 54.8923 284.064 56.0569 283.502 57.1857C281.38 61.4678 279.02 65.6126 276.432 69.6379C275.344 71.328 273.766 72.3613 271.997 73.1556C268.716 74.6307 265.423 76.082 262.13 77.5452C258.951 78.9547 255.747 80.3223 252.777 82.1498C251.229 83.1054 249.789 84.2521 248.3 85.3032C247.798 85.6556 247.296 86.0139 246.77 86.3364C245.737 86.9695 244.738 86.7365 243.818 86.0856C242.796 85.3689 241.852 84.5447 240.806 83.8639C239.186 82.8128 237.585 81.7139 235.857 80.8658C232.343 79.1458 228.757 77.581 225.195 75.9506C222.817 74.8636 220.438 73.7827 218.065 72.6778C216.523 71.9611 215.304 70.8742 214.438 69.4109C212.824 66.6935 211.186 63.9941 209.639 61.2468C208.694 59.5686 207.822 57.8366 207.057 56.0689C206.674 55.185 206.477 54.1756 206.429 53.2081C206.351 51.6314 206.417 50.0428 206.501 48.4661C206.591 46.7282 206.752 44.9962 206.895 43.2643C207.039 41.4965 207.206 39.7287 207.356 37.9609C207.457 36.7366 207.523 35.5063 207.654 34.2879C207.798 32.9442 208.192 31.6721 208.993 30.5612C210.206 28.883 211.904 28.3992 213.882 28.674C216.045 28.9786 217.707 30.0954 218.974 31.8393C219.231 32.1916 219.464 32.5798 219.613 32.986C220.014 34.0729 220.761 34.8314 221.759 35.351C223.038 36.0139 223.958 36.9874 224.634 38.2595C224.885 38.7373 225.327 39.1434 225.751 39.4898C226.582 40.1706 227.054 41.0724 227.359 42.04C228.022 44.1362 228.584 46.2504 229.182 48.3586C229.534 49.5889 229.845 50.8312 230.234 52.0495C230.502 52.8856 231.082 53.4769 231.949 53.7755C234.662 54.7072 237.274 55.8658 239.712 57.3828C241.852 58.7146 243.728 60.339 245.252 62.3577C245.318 62.4413 245.384 62.5189 245.468 62.6204Z" fill="#575756"/>
<path d="M256.971 49.0275C256.989 48.8782 257.013 48.7946 257.013 48.711C257.013 43.9989 257.019 39.2867 257.001 34.5686C257.001 34.3835 256.846 34.1326 256.69 34.0251C253.086 31.6183 249.471 29.2294 245.861 26.8166C245.556 26.6135 245.365 26.6255 245.078 26.8226C241.486 29.2234 237.888 31.6064 234.302 34.0132C234.123 34.1326 233.968 34.4372 233.968 34.6522C233.95 39.2628 233.962 43.8675 233.95 48.4781C233.95 48.926 234.105 49.0395 234.535 49.0335C236.263 49.0096 237.984 49.0096 239.711 49.0335C240.171 49.0395 240.273 48.8782 240.273 48.4542C240.255 46.555 240.279 44.6558 240.261 42.7566C240.255 42.2609 240.422 42.0877 240.942 42.0937C243.667 42.1176 246.399 42.1056 249.124 42.1116C249.614 42.1116 250.307 41.9623 250.534 42.2191C250.797 42.5118 250.672 43.1747 250.672 43.6704C250.684 45.2889 250.672 46.9074 250.678 48.5259C250.678 48.7588 250.612 49.0395 251.018 49.0335C252.985 49.0216 254.951 49.0275 256.971 49.0275ZM260.085 36.1752C260.085 36.3663 260.085 36.5514 260.085 36.7425C260.085 41.5443 260.085 46.346 260.085 51.1477C260.085 51.8226 260.037 51.8763 259.368 51.8763C250.11 51.8763 240.852 51.8763 231.595 51.8763C230.926 51.8763 230.89 51.8405 230.89 51.1537C230.89 46.2982 230.866 35.9542 230.866 35.9542C230.866 35.9542 229.754 36.6888 229.276 37.0352C229.001 37.2382 228.792 37.2621 228.553 36.9874C227.692 35.99 226.826 34.9986 225.947 34.0132C225.66 33.6967 225.702 33.4876 226.055 33.2547C228.708 31.4989 243.942 21.334 245.227 20.5099C245.359 20.4262 245.652 20.4561 245.789 20.5457C248.712 22.4688 264.37 32.8904 264.974 33.2786C265.29 33.4817 265.302 33.6787 265.051 33.9594C264.179 34.9449 263.312 35.9422 262.457 36.9396C262.218 37.2203 261.997 37.2561 261.687 37.0411C261.208 36.7007 260.706 36.3902 260.216 36.0677C260.18 36.1035 260.133 36.1393 260.085 36.1752Z" fill="#575756"/>
</svg>
