<svg width="327" height="132" viewBox="0 0 327 132" fill="none" xmlns="http://www.w3.org/2000/svg">
<rect width="327" height="132" fill="white"/>
<path d="M69.2417 51.3387C70.2876 51.1426 71.6384 50.9877 73.0967 50.9877C74.6215 50.9877 75.7534 51.1838 76.7348 51.776C77.7142 52.28 78.4336 53.2213 78.4336 54.4685C78.4336 56.3294 77.0612 57.5119 75.4719 57.9728V58.0375C76.8873 58.4748 77.7806 59.6357 77.7806 61.2555C77.7806 62.8321 76.9322 63.993 75.7769 64.7598C74.5355 65.5912 72.6842 65.9638 70.2445 65.9638C68.5888 65.9638 67.2614 65.8324 66.542 65.6795L69.2417 51.3387ZM70.0276 63.4263C70.397 63.4694 70.7685 63.491 71.2259 63.491C72.9247 63.491 74.471 62.8125 74.471 61.1692C74.471 59.7024 73.2512 59.2651 71.7909 59.2651H70.8115L70.0276 63.4263ZM71.2904 56.9668H72.3363C74.0566 56.9668 75.2334 56.2216 75.2334 54.9744C75.2334 53.9017 74.3615 53.4409 73.1632 53.4409C72.6178 53.4409 72.1838 53.484 71.9433 53.5507L71.2904 56.9668Z" fill="#575756"/>
<path d="M86.0353 65.8579C86.0568 65.2226 86.1233 64.5009 86.1878 63.7342H86.1233C85.1439 65.5069 83.7931 66.0991 82.5517 66.0991C80.6359 66.0991 79.3281 64.6108 79.3281 62.3772C79.3281 58.765 81.7033 54.9097 86.9522 54.9097C88.215 54.9097 89.5874 55.1509 90.4808 55.4352L89.3489 61.0417C89.0869 62.4203 88.8914 64.5225 88.9344 65.8599H86.0353V65.8579ZM86.9502 57.3825C86.7098 57.3394 86.4048 57.2943 86.1018 57.2943C84.0765 57.2943 82.5947 59.7906 82.5947 61.783C82.5947 62.8341 83.0092 63.5557 83.8791 63.5557C84.8155 63.5557 85.9708 62.4831 86.4498 59.8553L86.9502 57.3825Z" fill="#575756"/>
<path d="M91.2422 65.858L92.593 58.6317C92.855 57.2747 93.029 56.0922 93.1599 55.1509H95.9476L95.7306 56.9236H95.7736C96.7765 55.5215 98.1038 54.9097 99.5192 54.9097C101.261 54.9097 102.242 55.9824 102.242 57.8218C102.242 58.3042 102.154 59.1141 102.068 59.6396L100.892 65.858H97.7559L98.8663 59.924C98.9308 59.5514 98.9757 59.1141 98.9757 58.7199C98.9757 57.9747 98.7138 57.4492 97.9299 57.4492C96.9055 57.4492 95.7072 58.7415 95.2732 61.1065L94.3798 65.858H91.2422V65.858Z" fill="#575756"/>
<path d="M108.973 55.1489L107.034 65.4854C106.707 67.3248 106.25 68.5073 105.552 69.2956C104.854 70.0839 103.744 70.4349 102.633 70.4349C102.154 70.4349 101.63 70.3918 101.13 70.2604L101.499 67.8739C101.716 67.917 101.914 67.9386 102.197 67.9386C102.917 67.9386 103.527 67.566 103.875 65.6403L105.835 55.1509H108.973V55.1489ZM107.689 53.8135C106.817 53.8135 106.185 53.2213 106.185 52.28C106.185 51.2073 107.012 50.4837 107.993 50.4837C108.908 50.4837 109.561 51.0975 109.561 52.0388C109.561 53.1546 108.713 53.8115 107.71 53.8115H107.689V53.8135Z" fill="#575756"/>
<path d="M118.405 65.2442C117.164 65.8795 115.618 66.0972 114.441 66.0972C111.391 66.0972 109.823 64.346 109.823 61.5653C109.823 58.3022 112.175 54.9077 116.03 54.9077C118.186 54.9077 119.733 56.1118 119.733 58.1042C119.733 60.8417 117.097 61.8261 112.828 61.7163C112.828 62.0222 112.937 62.5047 113.154 62.8106C113.569 63.3577 114.286 63.642 115.201 63.642C116.356 63.642 117.336 63.3793 118.184 62.9635L118.405 65.2442ZM116.792 58.1061C116.792 57.5806 116.356 57.208 115.637 57.208C114.177 57.208 113.35 58.412 113.133 59.42C115.573 59.4416 116.792 59.0925 116.792 58.1277V58.1061Z" fill="#575756"/>
<path d="M120.408 65.858L121.607 59.4867C121.912 57.8669 122.042 56.0706 122.152 55.1509H124.875C124.811 55.8745 124.744 56.5962 124.68 57.3413H124.744C125.485 55.9177 126.683 54.9097 128.142 54.9097C128.337 54.9097 128.533 54.9097 128.73 54.9313L128.12 57.9963C127.968 57.9963 127.794 57.9747 127.62 57.9747C125.616 57.9747 124.68 59.771 124.287 61.8732L123.546 65.858H120.408Z" fill="#575756"/>
<path d="M136.331 65.5285C135.657 65.856 134.566 66.0972 133.303 66.0972C130.668 66.0972 128.816 64.4774 128.816 61.6967C128.816 57.8865 131.714 54.9077 135.764 54.9077C136.679 54.9077 137.463 55.0823 137.92 55.2588L137.158 57.6884C136.788 57.5355 136.352 57.4257 135.721 57.4257C133.477 57.4257 132.105 59.3298 132.105 61.3457C132.105 62.8125 133.019 63.5577 134.196 63.5577C135.111 63.5577 135.764 63.3381 136.309 63.1204L136.331 65.5285Z" fill="#575756"/>
<path d="M138.01 65.858L140.035 55.1509H143.171L141.145 65.858H138.01ZM141.974 53.8135C141.126 53.8135 140.471 53.2213 140.471 52.28C140.492 51.2073 141.319 50.4837 142.279 50.4837C143.194 50.4837 143.847 51.0975 143.847 52.0388C143.847 53.1546 142.999 53.8115 141.996 53.8115H141.974V53.8135Z" fill="#575756"/>
<path d="M149.793 52.2369L149.248 55.149H151.513L151.056 57.5355H148.79L148.071 61.1712C147.983 61.5869 147.897 62.1556 147.897 62.5282C147.897 63.0537 148.114 63.4263 148.79 63.4263C149.074 63.4263 149.379 63.4263 149.662 63.3832L149.293 65.858C148.9 66.0109 148.116 66.0992 147.441 66.0992C145.568 66.0992 144.675 65.1147 144.675 63.7773C144.675 63.1851 144.74 62.6164 144.892 61.785L145.719 57.5375H144.368L144.804 55.1509H146.176L146.567 53.137L149.793 52.2369Z" fill="#575756"/>
<path d="M162.492 59.3102C162.492 63.2302 159.836 66.0991 156.131 66.0991C153.429 66.0991 151.623 64.3264 151.623 61.6751C151.623 57.9532 154.194 54.9097 157.982 54.9097C160.836 54.9097 162.492 56.8805 162.492 59.3102ZM154.87 61.6085C154.87 62.8557 155.48 63.6891 156.569 63.6891C158.289 63.6891 159.249 61.1712 159.249 59.3317C159.249 58.3473 158.835 57.2962 157.572 57.2962C155.762 57.2962 154.847 59.9455 154.87 61.6085Z" fill="#575756"/>
<path d="M61.686 52.9075C59.5435 49.564 55.8038 47.3461 51.546 47.3461C47.2863 47.3461 43.5447 49.568 41.4021 52.9154L51.3642 59.0592L61.686 52.9075ZM50.5627 50.9544C50.5627 50.9544 51.0065 49.4189 52.3397 49.4679C52.3397 49.4679 55.1039 49.517 54.8087 51.9937C54.8087 51.9937 53.1295 50.7053 52.8343 52.6879L53.6241 56.402L51.4033 57.9865L49.034 56.253L50.5627 50.9544ZM63.5021 57.9649L51.5617 66.2404L39.5899 57.9689C39.5332 58.4474 39.5 58.9356 39.5 59.4318C39.5 66.107 44.8935 71.5174 51.546 71.5174C58.1985 71.5174 63.592 66.107 63.592 59.4318C63.594 58.9337 63.5607 58.4454 63.5021 57.9649ZM51.8959 70.6153C51.8959 70.6153 47.7496 70.6644 46.6627 69.2779L47.4525 65.0187L51.5011 67.6444L55.401 64.8716L56.1908 69.1799C56.1908 69.1779 55.2525 70.5153 51.8959 70.6153Z" fill="#575756"/>
<path d="M41.6358 71.89V77.1317C41.6358 79.1163 42.5135 79.9575 43.6923 79.9575C45.0021 79.9575 45.8408 79.0908 45.8408 77.1317V71.89H46.9942V77.0533C46.9942 79.7732 45.5671 80.889 43.6532 80.889C41.845 80.889 40.4844 79.8516 40.4844 77.1043V71.888H41.6358V71.89Z" fill="#575756"/>
<path d="M49.586 76.1081C49.586 75.4512 49.5723 74.9119 49.5332 74.3863H50.5556L50.6201 75.4374H50.6455C50.9603 74.8334 51.6934 74.2412 52.7412 74.2412C53.6189 74.2412 54.9815 74.7668 54.9815 76.9474V80.7439H53.8281V77.0788C53.8281 76.0532 53.4488 75.2002 52.3619 75.2002C51.6015 75.2002 51.0131 75.7394 50.8156 76.3826C50.7628 76.5278 50.7374 76.7239 50.7374 76.9219V80.7459H49.584V76.1081H49.586Z" fill="#575756"/>
<path d="M60.9824 72.0077C61.4809 71.9018 62.2668 71.8233 63.0644 71.8233C64.2041 71.8233 64.9372 72.0214 65.4884 72.4665C65.9459 72.8077 66.2215 73.3333 66.2215 74.0294C66.2215 74.8825 65.6585 75.6316 64.728 75.9748V76.0002C65.5666 76.2101 66.548 76.9062 66.548 78.2201C66.548 78.9829 66.2469 79.5595 65.8012 79.9928C65.1854 80.5576 64.1904 80.8204 62.7496 80.8204C61.9638 80.8204 61.3617 80.7674 60.9805 80.7145V72.0077H60.9824ZM62.1221 75.6355H63.1563C64.3624 75.6355 65.0681 75.0041 65.0681 74.151C65.0681 73.1137 64.2823 72.7058 63.1289 72.7058C62.605 72.7058 62.3039 72.745 62.1202 72.7842V75.6355H62.1221ZM62.1221 79.8791C62.345 79.9183 62.6714 79.932 63.0781 79.932C64.2569 79.932 65.3438 79.4987 65.3438 78.2103C65.3438 77.0023 64.3096 76.5023 63.0644 76.5023H62.1221V79.8791V79.8791Z" fill="#575756"/>
<path d="M73.148 79.2222C73.148 79.7732 73.1734 80.3125 73.2536 80.7459H72.2058L72.1139 79.9438H72.0748C71.721 80.4419 71.0407 80.889 70.1355 80.889C68.8512 80.889 68.1963 79.983 68.1963 79.0633C68.1963 77.5259 69.5588 76.6846 72.0083 76.6984V76.567C72.0083 76.0414 71.8637 75.0962 70.5676 75.0962C69.9772 75.0962 69.3634 75.2806 68.9176 75.5688L68.6557 74.806C69.1796 74.4648 69.94 74.2412 70.7376 74.2412C72.6769 74.2412 73.148 75.5688 73.148 76.8435V79.2222V79.2222ZM72.0357 77.5004C70.7787 77.4749 69.3497 77.6965 69.3497 78.9319C69.3497 79.681 69.8482 80.036 70.4366 80.036C71.2616 80.036 71.7855 79.5104 71.9692 78.9712C72.0083 78.8535 72.0357 78.7221 72.0357 78.6025V77.5004Z" fill="#575756"/>
<path d="M75.6622 76.1081C75.6622 75.4512 75.6485 74.9119 75.6094 74.3863H76.6318L76.6963 75.4374H76.7217C77.0364 74.8334 77.7695 74.2412 78.8173 74.2412C79.6951 74.2412 81.0577 74.7668 81.0577 76.9474V80.7439H79.9043V77.0788C79.9043 76.0532 79.525 75.2002 78.4381 75.2002C77.6776 75.2002 77.0892 75.7394 76.8918 76.3826C76.839 76.5278 76.8136 76.7239 76.8136 76.9219V80.7459H75.6602V76.1081H75.6622Z" fill="#575756"/>
<path d="M88.1051 80.5086C87.804 80.6655 87.1355 80.889 86.2851 80.889C84.3732 80.889 83.1279 79.5752 83.1279 77.6298C83.1279 75.6728 84.4631 74.253 86.5333 74.253C87.2136 74.253 87.8177 74.4236 88.1305 74.5805L87.8685 75.4747C87.5929 75.3178 87.1609 75.1727 86.5333 75.1727C85.0789 75.1727 84.293 76.2493 84.293 77.5769C84.293 79.0476 85.2353 79.9556 86.4942 79.9556C87.1491 79.9556 87.5812 79.785 87.9096 79.6399L88.1051 80.5086Z" fill="#575756"/>
<path d="M95.7683 77.5141C95.7683 79.8654 94.1438 80.891 92.6111 80.891C90.8947 80.891 89.5732 79.6301 89.5732 77.62C89.5732 75.4924 90.9612 74.2432 92.7167 74.2432C94.5367 74.2412 95.7683 75.5688 95.7683 77.5141ZM90.7384 77.5789C90.7384 78.9712 91.5379 80.0223 92.6639 80.0223C93.7645 80.0223 94.5895 78.9849 94.5895 77.5514C94.5895 76.4748 94.0519 75.108 92.6893 75.108C91.3287 75.11 90.7384 76.3709 90.7384 77.5789Z" fill="#575756"/>
<path d="M101.31 76.463C101.31 75.6492 101.284 74.9923 101.257 74.3863H102.291L102.344 75.4767H102.369C102.84 74.7021 103.587 74.2412 104.621 74.2412C106.154 74.2412 107.307 75.5414 107.307 77.473C107.307 79.7595 105.919 80.889 104.426 80.889C103.587 80.889 102.854 80.5203 102.475 79.8909H102.449V83.3461H101.31V76.463ZM102.449 78.1573C102.449 78.3279 102.475 78.4868 102.502 78.6299C102.711 79.432 103.405 79.983 104.23 79.983C105.448 79.983 106.156 78.9849 106.156 77.5259C106.156 76.2512 105.487 75.1609 104.269 75.1609C103.483 75.1609 102.75 75.7257 102.528 76.5925C102.488 76.7376 102.449 76.9082 102.449 77.0651V78.1573Z" fill="#575756"/>
<path d="M113.87 79.2222C113.87 79.7732 113.895 80.3125 113.975 80.7459H112.927L112.836 79.9438H112.796C112.443 80.4419 111.762 80.889 110.857 80.889C109.573 80.889 108.918 79.983 108.918 79.0633C108.918 77.5259 110.281 76.6846 112.73 76.6984V76.567C112.73 76.0414 112.585 75.0962 111.289 75.0962C110.699 75.0962 110.085 75.2806 109.639 75.5688L109.377 74.806C109.901 74.4648 110.662 74.2412 111.459 74.2412C113.399 74.2412 113.87 75.5688 113.87 76.8435V79.2222V79.2222ZM112.757 77.5004C111.5 77.4749 110.071 77.6965 110.071 78.9319C110.071 79.681 110.57 80.036 111.158 80.036C111.983 80.036 112.507 79.5104 112.691 78.9712C112.73 78.8535 112.755 78.7221 112.755 78.6025V77.5004H112.757Z" fill="#575756"/>
<path d="M116.383 76.3708C116.383 75.6217 116.369 74.9785 116.33 74.3863H117.339L117.378 75.6355H117.431C117.718 74.7824 118.414 74.2432 119.186 74.2432C119.317 74.2432 119.409 74.2569 119.513 74.2824V75.3727C119.395 75.3472 119.276 75.3335 119.12 75.3335C118.308 75.3335 117.732 75.9512 117.573 76.818C117.548 76.9748 117.521 77.1592 117.521 77.3572V80.7478H116.381V76.3708H116.383Z" fill="#575756"/>
<path d="M125.71 79.2222C125.71 79.7732 125.735 80.3125 125.815 80.7459H124.767L124.675 79.9438H124.636C124.282 80.4419 123.602 80.889 122.697 80.889C121.413 80.889 120.758 79.983 120.758 79.0633C120.758 77.5259 122.12 76.6846 124.57 76.6984V76.567C124.57 76.0414 124.425 75.0962 123.129 75.0962C122.539 75.0962 121.925 75.2806 121.479 75.5688L121.217 74.806C121.741 74.4648 122.502 74.2412 123.299 74.2412C125.238 74.2412 125.71 75.5688 125.71 76.8435V79.2222V79.2222ZM124.595 77.5004C123.338 77.4749 121.909 77.6965 121.909 78.9319C121.909 79.681 122.408 80.036 122.996 80.036C123.821 80.036 124.345 79.5104 124.529 78.9712C124.568 78.8535 124.593 78.7221 124.593 78.6025V77.5004H124.595Z" fill="#575756"/>
<path d="M133.045 72.8627V74.3864H134.695V75.2668H133.045V78.6966C133.045 79.4849 133.268 79.9321 133.909 79.9321C134.224 79.9321 134.407 79.9066 134.578 79.8536L134.63 80.7204C134.407 80.8125 134.054 80.891 133.608 80.891C133.07 80.891 132.638 80.7066 132.363 80.3909C132.036 80.0497 131.917 79.4849 131.917 78.7358V75.2668H130.934V74.3864H131.917V73.2176L133.045 72.8627Z" fill="#575756"/>
<path d="M142.304 77.5141C142.304 79.8654 140.68 80.891 139.147 80.891C137.431 80.891 136.109 79.6301 136.109 77.62C136.109 75.4924 137.497 74.2432 139.253 74.2432C141.073 74.2412 142.304 75.5688 142.304 77.5141ZM137.274 77.5789C137.274 78.9712 138.074 80.0223 139.2 80.0223C140.301 80.0223 141.126 78.9849 141.126 77.5514C141.126 76.4748 140.588 75.108 139.225 75.108C137.863 75.11 137.274 76.3709 137.274 77.5789Z" fill="#575756"/>
<path d="M149.888 71.4174V79.1045C149.888 79.6693 149.902 80.3125 149.941 80.7478H148.907L148.854 79.6438H148.829C148.475 80.3537 147.703 80.891 146.667 80.891C145.134 80.891 143.955 79.5908 143.955 77.6592C143.942 75.5433 145.251 74.2432 146.798 74.2432C147.767 74.2432 148.422 74.7021 148.709 75.2158H148.735V71.4194H149.888V71.4174ZM148.735 76.9749C148.735 76.8297 148.721 76.6336 148.682 76.4885C148.512 75.7532 147.883 75.1492 147.018 75.1492C145.826 75.1492 145.118 76.2003 145.118 77.6063C145.118 78.8947 145.748 79.9575 146.991 79.9575C147.763 79.9575 148.471 79.4457 148.68 78.577C148.719 78.4201 148.733 78.2613 148.733 78.0769V76.9749H148.735Z" fill="#575756"/>
<path d="M158.192 77.5141C158.192 79.8654 156.568 80.891 155.035 80.891C153.319 80.891 151.997 79.6301 151.997 77.62C151.997 75.4924 153.385 74.2432 155.141 74.2432C156.961 74.2412 158.192 75.5688 158.192 77.5141ZM153.162 77.5789C153.162 78.9712 153.962 80.0223 155.088 80.0223C156.188 80.0223 157.013 78.9849 157.013 77.5514C157.013 76.4748 156.476 75.108 155.113 75.108C153.751 75.11 153.162 76.3709 153.162 77.5789Z" fill="#575756"/>
<path d="M160.143 79.5634C160.483 79.7869 161.085 80.0222 161.662 80.0222C162.5 80.0222 162.893 79.6026 162.893 79.077C162.893 78.526 162.567 78.224 161.715 77.9083C160.575 77.5004 160.037 76.8709 160.037 76.1081C160.037 75.0825 160.862 74.2432 162.225 74.2432C162.866 74.2432 163.429 74.4275 163.783 74.6373L163.495 75.4786C163.247 75.3217 162.788 75.1099 162.199 75.1099C161.519 75.1099 161.138 75.5041 161.138 75.9767C161.138 76.5022 161.517 76.7395 162.342 77.0533C163.443 77.4729 164.006 78.0259 164.006 78.9711C164.006 80.0889 163.142 80.889 161.634 80.889C160.94 80.889 160.299 80.7047 159.854 80.4419L160.143 79.5634Z" fill="#575756"/>
<path d="M243.058 89.4752C243.032 89.8276 242.961 90.1545 242.833 90.4559C242.711 90.7573 242.532 91.0229 242.297 91.2425C242.067 91.4673 241.776 91.641 241.433 91.7687C241.091 91.8964 240.687 91.9577 240.232 91.9577C239.716 91.9577 239.267 91.8759 238.889 91.7176C238.506 91.5592 238.194 91.3294 237.943 91.0433C237.693 90.7522 237.509 90.4048 237.381 89.9962C237.254 89.5875 237.192 89.1431 237.192 88.6528C237.192 88.1522 237.254 87.6976 237.381 87.2838C237.509 86.8701 237.703 86.5176 237.959 86.2213C238.219 85.9251 238.536 85.6952 238.919 85.5267C239.303 85.3632 239.752 85.2764 240.268 85.2764C241.05 85.2764 241.663 85.4705 242.108 85.8587C242.552 86.2469 242.828 86.8037 242.951 87.5188L241.249 87.7129C241.219 87.575 241.183 87.4473 241.132 87.3298C241.086 87.2123 241.019 87.1101 240.938 87.0233C240.856 86.9365 240.759 86.8701 240.641 86.819C240.524 86.7679 240.381 86.7424 240.212 86.7424C239.4 86.7424 238.991 87.3604 238.991 88.6017C238.991 88.9439 239.022 89.2402 239.078 89.4803C239.139 89.7203 239.221 89.9144 239.333 90.0626C239.441 90.2107 239.573 90.318 239.727 90.3844C239.88 90.4508 240.043 90.4814 240.227 90.4814C240.851 90.4814 241.208 90.1443 241.295 89.4649H243.058V89.4752Z" fill="#575756"/>
<path d="M248.924 87.4524C248.924 87.8559 248.847 88.2135 248.694 88.5149C248.541 88.8213 248.301 89.0665 247.979 89.2606L249.282 91.7993H247.473L246.431 89.608H245.506V91.7993H243.876V85.4398H246.39C246.885 85.4398 247.294 85.496 247.621 85.6084C247.948 85.7208 248.209 85.8689 248.403 86.0579C248.597 86.2469 248.735 86.4614 248.812 86.7015C248.883 86.9467 248.924 87.197 248.924 87.4524ZM245.501 88.2799H246.339C246.681 88.2799 246.926 88.2135 247.064 88.0807C247.202 87.9479 247.274 87.7538 247.274 87.5035C247.274 87.2685 247.197 87.0846 247.049 86.9518C246.901 86.819 246.645 86.7577 246.283 86.7577H245.501V88.2799Z" fill="#575756"/>
<path d="M249.936 85.4398H254.488V86.8496H251.601V87.8661H254.309V89.2708H251.601V90.3946H254.677L254.534 91.8044H249.936V85.4398V85.4398ZM252.71 84.9239H251.203L252.342 83.5448H254.176L252.71 84.9239Z" fill="#575756"/>
<path d="M255.53 91.7993V85.4398H258.034C259.092 85.4398 259.894 85.7055 260.435 86.2316C260.977 86.7577 261.253 87.5341 261.253 88.5455C261.253 89.5927 260.967 90.3946 260.394 90.9565C259.822 91.5184 259.005 91.7993 257.942 91.7993H255.53ZM257.242 90.3537H257.962C258.484 90.3537 258.867 90.2005 259.112 89.894C259.357 89.5875 259.48 89.1585 259.48 88.5966C259.48 88.0347 259.367 87.6107 259.143 87.3196C258.918 87.0284 258.555 86.8803 258.054 86.8803H257.242V90.3537V90.3537Z" fill="#575756"/>
<path d="M262.198 85.4398H263.91V91.7993H262.198V85.4398Z" fill="#575756"/>
<path d="M266.536 86.8905H264.702V85.4398H270.082V86.8905H268.248V91.7993H266.536V86.8905Z" fill="#575756"/>
<path d="M273.531 85.2764C274.032 85.2764 274.472 85.353 274.86 85.5062C275.248 85.6595 275.57 85.8791 275.836 86.1652C276.101 86.4512 276.301 86.7986 276.439 87.2072C276.577 87.6158 276.643 88.0756 276.643 88.5864C276.643 89.1023 276.572 89.5671 276.434 89.986C276.296 90.3997 276.091 90.7573 275.826 91.0433C275.56 91.3345 275.228 91.5592 274.834 91.7176C274.441 91.8759 273.996 91.9525 273.491 91.9525C272.99 91.9525 272.55 91.8759 272.162 91.7227C271.774 91.5694 271.452 91.3498 271.186 91.0638C270.921 90.7777 270.721 90.4304 270.583 90.0217C270.445 89.6131 270.379 89.1534 270.379 88.6425C270.379 88.1266 270.45 87.6618 270.588 87.243C270.726 86.8292 270.931 86.4716 271.196 86.1856C271.462 85.8944 271.794 85.6697 272.188 85.5113C272.581 85.3581 273.026 85.2764 273.531 85.2764ZM272.152 88.617C272.152 89.23 272.264 89.6948 272.489 90.0115C272.714 90.3282 273.056 90.4865 273.516 90.4865C273.976 90.4865 274.313 90.3282 274.538 90.0115C274.763 89.6948 274.87 89.23 274.87 88.617C274.87 88.004 274.758 87.5392 274.538 87.2225C274.313 86.9058 273.976 86.7475 273.516 86.7475C273.056 86.7475 272.719 86.9058 272.489 87.2225C272.264 87.5443 272.152 88.0092 272.152 88.617Z" fill="#575756"/>
<path d="M278.957 89.705C278.993 90.0013 279.1 90.2209 279.284 90.3691C279.468 90.5172 279.739 90.5887 280.096 90.5887C280.398 90.5887 280.628 90.5325 280.776 90.4304C280.929 90.3231 281.001 90.1699 281.001 89.9758C281.001 89.8276 280.95 89.705 280.847 89.608C280.745 89.5109 280.561 89.4343 280.296 89.3832L279.448 89.2198C278.742 89.087 278.216 88.8673 277.879 88.5608C277.542 88.2544 277.373 87.8253 277.373 87.2787C277.373 86.6198 277.598 86.1192 278.053 85.7872C278.507 85.45 279.131 85.2866 279.928 85.2866C280.393 85.2866 280.786 85.3428 281.113 85.4449C281.44 85.5522 281.706 85.6952 281.915 85.874C282.125 86.0528 282.278 86.2571 282.385 86.4921C282.493 86.7271 282.559 86.9722 282.59 87.2276L280.934 87.3962C280.878 87.1408 280.776 86.9518 280.628 86.8241C280.474 86.7015 280.239 86.6351 279.918 86.6351C279.626 86.6351 279.412 86.6862 279.274 86.7832C279.136 86.8803 279.064 87.0131 279.064 87.1817C279.064 87.3298 279.121 87.4473 279.233 87.5392C279.345 87.6261 279.529 87.6976 279.775 87.7435L280.638 87.9121C281.384 88.0602 281.915 88.3003 282.232 88.6272C282.549 88.9593 282.702 89.373 282.702 89.8787C282.702 90.1954 282.651 90.4763 282.544 90.7317C282.437 90.9871 282.273 91.2068 282.053 91.3856C281.834 91.5643 281.553 91.7074 281.215 91.8095C280.878 91.9117 280.48 91.9628 280.02 91.9628C278.257 91.9526 277.327 91.2017 277.24 89.7101H278.957V89.705Z" fill="#575756"/>
<path d="M234.5 96.1258H237.162C237.607 96.1258 237.98 96.1718 238.271 96.2535C238.562 96.3403 238.797 96.4578 238.976 96.6111C239.15 96.7643 239.272 96.938 239.344 97.1372C239.415 97.3364 239.451 97.5458 239.451 97.7757C239.451 98.0617 239.395 98.3171 239.277 98.5419C239.16 98.7667 238.955 98.9556 238.669 99.114C239.022 99.2877 239.267 99.4971 239.41 99.7423C239.553 99.9875 239.625 100.279 239.625 100.611C239.625 100.861 239.584 101.101 239.502 101.326C239.42 101.556 239.282 101.755 239.093 101.929C238.904 102.102 238.654 102.235 238.342 102.337C238.031 102.439 237.647 102.49 237.198 102.49H234.5V96.1258ZM236.115 98.5674H237.039C237.336 98.5674 237.54 98.5164 237.647 98.4193C237.755 98.3223 237.806 98.1792 237.806 97.9851C237.806 97.7808 237.744 97.6378 237.617 97.5458C237.489 97.4539 237.269 97.4079 236.947 97.4079H236.115V98.5674ZM236.115 101.208H237.05C237.412 101.208 237.658 101.147 237.79 101.014C237.923 100.886 237.985 100.713 237.985 100.493C237.985 100.274 237.918 100.105 237.79 99.9926C237.663 99.8751 237.433 99.8189 237.101 99.8189H236.115V101.208Z" fill="#575756"/>
<path d="M244.05 96.1258L246.257 102.485H244.484L244.116 101.264H241.97L241.612 102.485H239.891L242.103 96.1258H244.05ZM242.394 99.9057H243.702L243.053 97.7144L242.394 99.9057Z" fill="#575756"/>
<path d="M246.983 96.1258H248.48L250.769 99.7678V96.1258H252.383V102.485H250.902L248.592 98.8484V102.485H246.978V96.1258H246.983Z" fill="#575756"/>
<path d="M259.199 100.166C259.173 100.519 259.102 100.846 258.974 101.147C258.851 101.448 258.672 101.714 258.437 101.934C258.207 102.158 257.916 102.332 257.574 102.46C257.231 102.587 256.828 102.649 256.373 102.649C255.857 102.649 255.407 102.567 255.029 102.409C254.646 102.25 254.334 102.02 254.084 101.734C253.834 101.443 253.65 101.096 253.522 100.687C253.399 100.279 253.333 99.8342 253.333 99.3439C253.333 98.8433 253.394 98.3887 253.522 97.9749C253.65 97.5612 253.844 97.2087 254.099 96.9124C254.36 96.6162 254.677 96.3863 255.06 96.2177C255.443 96.0543 255.893 95.9675 256.409 95.9675C257.191 95.9675 257.804 96.1616 258.248 96.5498C258.693 96.938 258.969 97.4948 259.091 98.2099L257.39 98.404C257.359 98.2661 257.323 98.1384 257.272 98.0209C257.226 97.9034 257.16 97.8012 257.078 97.7144C256.996 97.6276 256.899 97.5612 256.782 97.5101C256.664 97.459 256.521 97.4335 256.353 97.4335C255.54 97.4335 255.132 98.0515 255.132 99.2928C255.132 99.635 255.162 99.9313 255.218 100.171C255.28 100.411 255.361 100.606 255.474 100.754C255.581 100.902 255.714 101.009 255.867 101.075C256.021 101.142 256.184 101.173 256.368 101.173C256.991 101.173 257.349 100.835 257.436 100.156H259.199V100.166Z" fill="#575756"/>
<path d="M263.521 96.1258L265.729 102.485H263.956L263.588 101.264H261.442L261.084 102.485H259.362L261.58 96.1258H263.521ZM261.861 99.9057H263.169L262.52 97.7144L261.861 99.9057Z" fill="#575756"/>
<path d="M271.502 98.1435C271.502 98.547 271.426 98.9046 271.272 99.2059C271.119 99.5124 270.879 99.7576 270.557 99.9517L271.86 102.49H270.051L269.009 100.299H268.084V102.49H266.454V96.1309H268.968C269.464 96.1309 269.872 96.1871 270.199 96.2995C270.526 96.4118 270.787 96.56 270.981 96.749C271.175 96.938 271.313 97.1525 271.39 97.3926C271.466 97.6378 271.502 97.8881 271.502 98.1435ZM268.084 98.971H268.922C269.264 98.971 269.51 98.9046 269.647 98.7717C269.785 98.6389 269.857 98.4448 269.857 98.1945C269.857 97.9596 269.78 97.7757 269.632 97.6429C269.484 97.5101 269.229 97.4488 268.866 97.4488H268.084V98.971Z" fill="#575756"/>
<path d="M272.52 96.1258H274.231V102.485H272.52V96.1258Z" fill="#575756"/>
<path d="M278.328 95.9675C278.829 95.9675 279.268 96.0441 279.657 96.1973C280.045 96.3506 280.367 96.5702 280.633 96.8563C280.898 97.1423 281.098 97.4896 281.236 97.8983C281.374 98.3069 281.44 98.7667 281.44 99.2775C281.44 99.7934 281.368 100.258 281.23 100.677C281.092 101.091 280.888 101.448 280.622 101.734C280.357 102.02 280.025 102.25 279.631 102.409C279.238 102.567 278.793 102.644 278.287 102.644C277.787 102.644 277.347 102.567 276.959 102.414C276.571 102.261 276.249 102.041 275.983 101.755C275.717 101.469 275.518 101.121 275.38 100.713C275.242 100.304 275.176 99.8444 275.176 99.3336C275.176 98.8177 275.247 98.3529 275.385 97.934C275.523 97.5203 275.728 97.1627 275.993 96.8767C276.259 96.5855 276.591 96.3608 276.985 96.2024C277.378 96.0492 277.822 95.9675 278.328 95.9675ZM276.949 99.3081C276.949 99.9211 277.061 100.386 277.286 100.703C277.511 101.019 277.853 101.178 278.313 101.178C278.773 101.178 279.11 101.019 279.335 100.703C279.56 100.386 279.667 99.9211 279.667 99.3081C279.667 98.6951 279.555 98.2303 279.335 97.9136C279.11 97.5969 278.773 97.4386 278.313 97.4386C277.853 97.4386 277.516 97.5969 277.286 97.9136C277.056 98.2303 276.949 98.6951 276.949 99.3081Z" fill="#575756"/>
<path d="M283.755 100.396C283.791 100.692 283.898 100.912 284.082 101.06C284.266 101.208 284.537 101.28 284.894 101.28C285.196 101.28 285.426 101.224 285.574 101.121C285.727 101.014 285.799 100.861 285.799 100.667C285.799 100.519 285.748 100.396 285.645 100.299C285.543 100.202 285.359 100.125 285.094 100.074L284.245 99.9108C283.54 99.778 283.014 99.5584 282.677 99.2519C282.34 98.9454 282.171 98.5164 282.171 97.9698C282.171 97.3109 282.396 96.8103 282.85 96.4782C283.305 96.1411 283.929 95.9777 284.726 95.9777C285.191 95.9777 285.584 96.0338 285.911 96.136C286.238 96.2433 286.504 96.3863 286.713 96.5651C286.923 96.7439 287.076 96.9482 287.183 97.1832C287.291 97.4181 287.357 97.6633 287.388 97.9187L285.732 98.0873C285.676 97.8319 285.574 97.6429 285.426 97.5152C285.272 97.3926 285.037 97.3262 284.715 97.3262C284.424 97.3262 284.21 97.3773 284.072 97.4743C283.934 97.5714 283.862 97.7042 283.862 97.8727C283.862 98.0209 283.918 98.1384 284.031 98.2303C284.143 98.3222 284.327 98.3886 284.572 98.4346L285.436 98.6032C286.182 98.7513 286.713 98.9914 287.03 99.3183C287.347 99.6503 287.5 100.064 287.5 100.57C287.5 100.886 287.449 101.167 287.342 101.423C287.234 101.678 287.071 101.898 286.851 102.077C286.631 102.255 286.35 102.398 286.013 102.501C285.676 102.603 285.277 102.654 284.818 102.654C283.055 102.644 282.125 101.893 282.038 100.401H283.755V100.396Z" fill="#575756"/>
<path d="M283.382 71.6482C286.018 67.0203 284.945 61.1665 280.837 57.7697V51.2723H281.834C282.386 51.2723 282.83 50.8279 282.83 50.2762V47.2881H283.827C284.378 47.2881 284.823 46.8385 284.823 46.2869C284.823 45.96 284.664 45.6586 284.399 45.4696L261.468 29.5224C261.125 29.2874 260.671 29.2874 260.333 29.5224L237.397 45.4696C236.948 45.7863 236.835 46.4044 237.152 46.859C237.336 47.1246 237.642 47.2829 237.969 47.2829H238.966V50.2711C238.966 50.8228 239.41 51.2672 239.962 51.2672H240.958V67.2195H239.962C239.41 67.2195 238.966 67.6639 238.966 68.2156V71.3877C237.775 71.8065 236.973 72.9354 236.973 74.1971V76.1892C236.973 76.7409 237.418 77.1853 237.969 77.1853H283.837C284.389 77.1853 284.833 76.7409 284.833 76.1892V74.1971C284.828 73.155 284.276 72.1896 283.382 71.6482ZM280.843 49.2802H272.862V47.2881H280.843V49.2802ZM278.845 51.2723V56.4672C277.603 55.8287 276.249 55.4353 274.854 55.3127V51.2774L278.845 51.2723ZM260.895 31.5554L280.648 45.2908H241.142L260.895 31.5554ZM249.931 67.2246H248.934V51.2723H249.931C250.482 51.2723 250.927 50.8279 250.927 50.2762V47.2881H254.917V50.2762C254.917 50.8279 255.362 51.2723 255.914 51.2723H256.91V67.2246H255.914C255.362 67.2246 254.917 67.669 254.917 68.2207V71.2089H250.927V68.2207C250.927 67.669 250.482 67.2246 249.931 67.2246ZM256.91 69.2168H263.322C263.517 69.9063 263.782 70.5755 264.109 71.2089H256.91V69.2168ZM258.903 67.2246V51.2723H262.893V67.2246H258.903ZM263.89 49.2802H256.91V47.2881H264.886V49.2802H263.89ZM264.886 51.2723H265.882C266.434 51.2723 266.879 50.8279 266.879 50.2762V47.2881H270.869V50.2762C270.869 50.8279 271.314 51.2723 271.865 51.2723H272.862V55.3076C269.653 55.6039 266.736 57.2947 264.886 59.9355V51.2723V51.2723ZM240.953 47.2881H248.929V49.2802H240.953V47.2881ZM246.937 51.2723V67.2246H242.946V51.2723H246.937ZM240.953 69.2168H248.929V71.2089H240.953V69.2168ZM238.961 75.1983V74.2022C238.961 73.6505 239.405 73.2061 239.957 73.2061H265.402C266.03 73.9621 266.761 74.6364 267.568 75.1983H238.961ZM282.835 75.1983H280.143C280.919 74.6568 281.624 74.0183 282.237 73.293C282.6 73.4513 282.835 73.8038 282.835 74.2022V75.1983ZM273.863 75.1983C268.907 75.1983 264.891 71.1834 264.891 66.2286C264.891 61.2738 268.907 57.2589 273.863 57.2589C278.819 57.2589 282.835 61.2738 282.835 66.2286C282.835 71.1834 278.819 75.1983 273.863 75.1983Z" fill="#575756"/>
<path d="M272.504 41.4956L261.534 33.5168L260.308 35.131L268.794 41.3015H250.927V43.2936H271.865C272.315 43.314 272.724 43.0331 272.861 42.604C272.999 42.2005 272.851 41.751 272.504 41.4956Z" fill="#575756"/>
<path d="M275.856 61.2432H274.86V59.251H272.867V61.2432H271.871C270.767 61.2432 269.878 62.1371 269.878 63.2353V65.2274C269.878 66.3307 270.772 67.2195 271.871 67.2195H275.861V69.2117H271.871V68.2156H269.878V69.2117C269.878 70.315 270.772 71.2038 271.871 71.2038H272.867V73.1959H274.86V71.2038H275.856C276.96 71.2038 277.849 70.3099 277.849 69.2117V67.2195C277.849 66.1162 276.954 65.2274 275.856 65.2274H271.865V63.2353H275.856V64.2314H277.849V63.2353C277.849 62.1371 276.954 61.2432 275.856 61.2432Z" fill="#575756"/>
</svg>
