<?xml version="1.0" encoding="utf-8"?>
<!-- Generator: Adobe Illustrator 24.0.2, SVG Export Plug-In . SVG Version: 6.00 Build 0)  -->
<svg version="1.1" id="Capa_1" xmlns="http://www.w3.org/2000/svg" xmlns:xlink="http://www.w3.org/1999/xlink" x="0px" y="0px"
	 viewBox="0 0 120 120" style="enable-background:new 0 0 120 120;" xml:space="preserve">
<style type="text/css">
	.st0{fill:#0D3E69;}
	.st1{fill:#FAF7F2;}
	.st2{fill:#FF7062;}
</style>
<circle class="st0" cx="60" cy="60" r="60"/>
<path class="st1" d="M27.9,44.4c0,4.7-3.8,8.5-8.5,8.5s-8.5-3.8-8.5-8.5s3.8-8.5,8.5-8.5S27.9,39.8,27.9,44.4z"/>
<path class="st2" d="M14.8,60.9h11.3c0,19.8,16.1,35.8,35.8,35.8s35.8-16.1,35.8-35.8h11.3c0,26-21.1,47.1-47.1,47.1
	C36,108.1,14.8,86.9,14.8,60.9z"/>
<path class="st1" d="M69.8,54.3c0.7,0,1.3,0.6,1.3,1.3c0,0.7-0.6,1.3-1.3,1.3s-1.3-0.6-1.3-1.3C68.5,54.8,69.1,54.3,69.8,54.3z
	 M53.3,54.3c0.7,0,1.3,0.6,1.3,1.3c0,0.7-0.6,1.3-1.3,1.3c-0.7,0-1.3-0.6-1.3-1.3C52,54.8,52.5,54.3,53.3,54.3z M46,75.1l-0.8-26H52
	v2.8c-1.5,0.5-2.6,2-2.6,3.7c0,2.1,1.7,3.9,3.9,3.9c2.1,0,3.9-1.7,3.9-3.9c0-1.7-1.1-3.1-2.6-3.7v-2.8h14v2.8
	c-1.5,0.5-2.6,2-2.6,3.7c0,2.1,1.7,3.9,3.9,3.9c2.1,0,3.9-1.7,3.9-3.9c0-1.7-1.1-3.1-2.6-3.7v-2.8h6.8l0.4,26H46z M54.5,44.2
	c0-3.9,3.1-7,7-7s7,3.2,7,7v2.3h-14V44.2z M81.1,76.2l-0.7-28.6c-0.1-0.7-0.6-1.2-1.3-1.2h-7.9v-2.3c0-5.3-4.3-9.6-9.6-9.6
	S52,38.9,52,44.2v2.3H44c-0.7,0-1.2,0.5-1.3,1.2l0.5,28.6c0,0.4,0.1,0.7,0.3,1c0.2,0.3,0.6,0.4,1,0.4h35.2c0.4,0,0.7-0.2,1-0.4
	C81,76.9,81.1,76.6,81.1,76.2z"/>
</svg>
