<svg width="120" height="120" viewBox="0 0 120 120" fill="none" xmlns="http://www.w3.org/2000/svg">
<circle cx="60" cy="60" r="60" fill="#0D3E69"/>
<g clip-path="url(#clip0)">
<path d="M27.93 44.46C27.93 49.14 24.14 52.93 19.46 52.93C14.78 52.93 11 49.13 11 44.46C11 39.79 14.79 35.99 19.47 35.99C24.15 35.99 27.93 39.78 27.93 44.46Z" fill="#FAF7F2"/>
<path d="M14.8999 60.95H26.1699C26.1699 80.71 42.2499 96.79 62.0099 96.79C81.7699 96.79 97.8499 80.71 97.8499 60.95H109.12C109.12 86.93 87.9799 108.07 61.9999 108.07C36.0399 108.07 14.8999 86.93 14.8999 60.95Z" fill="#FF7062"/>
<path d="M48.5799 57.7201C48.3399 57.7201 48.0999 57.8201 47.9199 58.0001C47.5699 58.3701 47.5799 58.9501 47.9399 59.3101C49.1399 60.4801 51.0899 60.4801 52.2899 59.3101C52.6499 58.9501 52.6599 58.3701 52.3099 58.0001C51.9599 57.6301 51.3799 57.6201 51.0099 57.9801C50.5099 58.4701 49.7099 58.4701 49.2099 57.9801C49.0399 57.8101 48.8099 57.7201 48.5799 57.7201Z" fill="#FAF7F2"/>
<path d="M48.58 57.89C48.37 57.89 48.18 57.9701 48.04 58.1201C47.9 58.2701 47.82 58.46 47.83 58.66C47.83 58.86 47.91 59.0501 48.06 59.1901C49.2 60.3001 51.04 60.3001 52.18 59.1901C52.32 59.0501 52.41 58.86 52.41 58.66C52.41 58.46 52.34 58.2601 52.2 58.1201C52.06 57.9701 51.87 57.89 51.67 57.89C51.48 57.89 51.28 57.96 51.14 58.1C50.58 58.65 49.67 58.65 49.11 58.1C48.97 57.97 48.78 57.89 48.58 57.89ZM50.12 60.3601C49.29 60.3601 48.46 60.0501 47.83 59.4401C47.62 59.2401 47.5 58.97 47.5 58.67C47.5 58.38 47.6 58.1 47.8 57.89C48.2 57.47 48.92 57.4601 49.33 57.8601C49.76 58.2801 50.47 58.2801 50.9 57.8601C51.1 57.6601 51.37 57.55 51.65 57.55H51.67C51.96 57.55 52.23 57.67 52.43 57.88C52.63 58.09 52.74 58.37 52.73 58.66C52.72 58.95 52.61 59.23 52.4 59.43C51.78 60.05 50.95 60.3601 50.12 60.3601Z" fill="#FAF7F2"/>
<path d="M80.5699 65.1101C79.4699 64.6001 78.2699 64.2701 77.1599 63.9601C76.7499 63.8501 76.3599 63.7401 75.9799 63.6301V62.1601C77.1199 61.4901 78.0799 60.5201 78.7299 59.3501C79.7699 61.3501 81.5799 62.4801 83.0599 63.1101C82.6299 64.4001 82.0099 64.8601 80.5699 65.1101ZM82.3799 77.8401H79.3099V74.0901C79.3099 73.5801 78.8999 73.1601 78.3899 73.1601C77.8799 73.1601 77.4699 73.5701 77.4699 74.0901V77.8401H70.8699C70.1699 74.7701 67.6399 74.0201 65.3799 73.3401C65.1799 73.2801 64.9799 73.2201 64.7799 73.1601V72.3001C66.1999 71.2201 67.1299 69.4901 67.1299 67.5601V66.2701C67.1299 66.1601 67.1299 66.0501 67.1199 65.9401C67.3399 65.8801 67.5599 65.8201 67.7799 65.7601C68.0799 65.6801 68.3799 65.6001 68.6799 65.5101C69.1699 67.0101 70.5799 68.1001 72.2299 68.1001C73.8799 68.1001 75.2899 67.0101 75.7899 65.5101C76.0899 65.5901 76.3899 65.6801 76.6799 65.7601C80.1899 66.7101 82.3199 67.5201 82.3699 70.6801L82.3799 77.8401ZM63.4399 71.0001C62.2099 71.8301 60.3599 71.8701 59.1299 71.0201C58.0199 70.3101 57.2699 69.0701 57.2399 67.6601C59.6399 66.0401 62.8999 66.0401 65.2999 67.6601C65.2699 69.0501 64.5299 70.2901 63.4399 71.0001ZM62.9499 73.8401C62.9499 74.9701 62.0399 75.4701 61.1899 75.4701C60.2999 75.4701 59.5799 74.7401 59.5799 73.8401V73.2401C59.7999 73.3101 60.0299 73.3601 60.2699 73.4001C60.5999 73.4601 60.9299 73.4901 61.2699 73.4901C61.5499 73.4901 61.8299 73.4701 62.0999 73.4301C62.3899 73.3901 62.6799 73.3301 62.9499 73.2401V73.8401ZM57.7399 73.1701C57.5399 73.2301 57.3399 73.2901 57.1399 73.3501C54.8799 74.0201 52.3499 74.7801 51.6499 77.8501H44.8899V74.1001C44.8899 73.5901 44.4799 73.1701 43.9699 73.1701C43.4599 73.1701 43.0499 73.5801 43.0499 74.1001V77.8501H39.9799V70.6801C40.0299 67.5201 42.1699 66.7101 45.6699 65.7601C45.9599 65.6801 46.2699 65.6001 46.5599 65.5101C47.0599 67.0101 48.4599 68.1001 50.1199 68.1001C51.7699 68.1001 53.1799 67.0101 53.6699 65.5101C53.9699 65.5901 55.1299 65.9101 55.3999 65.9901C55.3999 66.0801 55.3899 66.1701 55.3899 66.2601V67.5701C55.3899 69.5101 56.3099 71.2301 57.7399 72.3101V73.1701ZM52.0299 63.7401V64.3101C52.0299 64.3101 52.0299 64.3101 52.0299 64.3201C52.0299 65.3801 51.1699 66.2501 50.1199 66.2501C49.0699 66.2501 48.2099 65.3901 48.2099 64.3201C48.2099 64.3201 48.2099 64.3201 48.2099 64.3101V63.7401C48.8199 63.9001 49.4599 63.9801 50.1199 63.9801C50.7799 63.9701 51.4199 63.8901 52.0299 63.7401ZM44.0899 56.0301V55.0701C45.5599 54.9001 46.9499 54.6301 48.1099 53.5101C50.6199 54.9501 53.6899 55.2401 56.1499 55.1601V56.0301C56.1499 59.3901 53.4499 62.1201 50.1199 62.1201C46.7999 62.1201 44.0899 59.3901 44.0899 56.0301ZM44.0899 52.3501C44.0899 48.9901 46.7899 46.2601 50.1199 46.2601C53.4399 46.2601 56.1499 48.9901 56.1499 52.3501V53.3101C53.7399 53.3901 50.6999 53.1001 48.4599 51.5501C48.0599 51.2701 47.5099 51.3601 47.2099 51.7501C46.4299 52.7801 45.4599 53.0301 44.0899 53.2001V52.3501ZM57.5299 64.7201C58.1299 63.2301 59.5799 62.1801 61.2699 62.1801C63.2299 62.1801 64.8699 63.6101 65.2299 65.4901C64.0099 64.9001 62.6499 64.5801 61.2699 64.5801C59.8899 64.5801 58.5299 64.9001 57.3099 65.4901C57.3499 65.2201 57.4299 64.9601 57.5299 64.7201ZM65.7399 59.3501C66.3999 60.5201 67.3499 61.4901 68.4999 62.1701V63.6401C68.1199 63.7501 67.7199 63.8601 67.3099 63.9701C67.1199 64.0201 66.9299 64.0701 66.7399 64.1301C66.2699 62.9201 65.4299 61.9001 64.3499 61.2201C64.9099 60.6501 65.3799 60.0301 65.7399 59.3501ZM74.1499 62.9301V64.3101C74.1499 65.3701 73.2899 66.2401 72.2399 66.2401C71.1899 66.2401 70.3299 65.3801 70.3299 64.3101V62.9301C70.9399 63.0901 71.5799 63.1801 72.2399 63.1801C72.8999 63.1801 73.5399 63.0901 74.1499 62.9301ZM66.5999 54.8201C66.9899 54.8801 67.3699 54.9001 67.7399 54.9001C69.5899 54.9001 71.1399 54.2101 72.2399 52.8901C73.3399 54.2101 74.8899 54.9001 76.7399 54.9001C77.1099 54.9001 77.4899 54.8701 77.8799 54.8201V55.6301C77.8799 58.7701 75.3499 61.3301 72.2399 61.3301C69.1299 61.3301 66.5999 58.7701 66.5999 55.6301V54.8201ZM72.2399 46.1601C73.9699 46.1601 75.3299 46.7501 76.2799 47.9001C77.2299 49.0601 77.7599 50.7501 77.8599 52.9501C76.1599 53.2501 74.1599 53.0101 73.0599 50.8001C72.7299 50.1401 71.7499 50.1401 71.4199 50.8001C70.3199 53.0101 68.3199 53.2501 66.6199 52.9501C66.8299 48.6801 68.8999 46.1601 72.2399 46.1601ZM85.0799 62.7601C85.1899 62.2901 84.9299 61.8101 84.4799 61.6601C82.3099 60.9301 79.7199 59.3001 79.7199 55.6301V53.6901C79.7199 50.6901 79.0399 48.3501 77.6999 46.7201C76.3999 45.1401 74.5199 44.3101 72.2499 44.3101C70.0799 44.3101 68.2199 45.1401 66.8999 46.7101C65.5099 48.3501 64.7799 50.7701 64.7799 53.6901V55.6301C64.7799 57.6601 63.9899 59.2801 62.4299 60.4401C62.0599 60.3601 61.6699 60.3201 61.2799 60.3201C58.7699 60.3201 56.6299 61.9201 55.7899 64.1601C55.5499 64.0901 54.2599 63.7401 53.8799 63.6301V63.0101C56.3299 61.6601 57.9999 59.0401 57.9999 56.0301V52.3501C57.9999 47.9701 54.4699 44.4101 50.1399 44.4101C45.7999 44.4101 42.2799 47.9701 42.2799 52.3501V56.0301C42.2799 59.0401 43.9499 61.6701 46.3999 63.0101V63.6301C46.0199 63.7401 45.6299 63.8501 45.2199 63.9601C42.1099 64.8101 38.2499 65.8601 38.1699 70.6501V78.7701C38.1699 79.2801 38.5799 79.7001 39.0899 79.7001H51.4899V81.0201V81.0301C51.4899 81.5401 51.8999 81.9601 52.4099 81.9601H57.1699C57.6799 81.9601 58.0899 81.5401 58.0899 81.0301C58.0899 80.5201 57.6799 80.1001 57.1699 80.1001H53.2999V79.5401C53.3099 78.8601 53.3999 78.3101 53.5599 77.8401C54.1399 76.1701 55.6299 75.7301 57.6599 75.1201C57.7599 75.0901 57.8499 75.0601 57.9499 75.0301C58.4299 76.3701 59.6999 77.3201 61.1899 77.3201C62.7999 77.3201 64.0999 76.3901 64.5799 75.0301C64.6699 75.0601 64.7699 75.0901 64.8599 75.1101C67.4599 75.8801 69.1699 76.3901 69.2199 79.5301V80.0901H65.3699C64.8599 80.0901 64.4499 80.5101 64.4499 81.0201C64.4499 81.5301 64.8599 81.9501 65.3699 81.9501H70.1399C70.6499 81.9501 71.0599 81.5301 71.0599 81.0201C71.0599 81.0201 71.0599 81.0201 71.0599 81.0101V79.7001H83.2999C83.8099 79.7001 84.2199 79.2801 84.2199 78.7701V70.6701V70.6601C84.1899 68.7201 83.5399 67.3901 82.5599 66.4401C83.8799 65.8101 84.5999 64.6901 85.0799 62.7601Z" fill="#FAF7F2"/>
<path d="M72.24 50.13C72.65 50.13 73.02 50.35 73.21 50.72C74.07 52.43 75.57 53.13 77.69 52.81C77.58 50.73 77.06 49.11 76.16 48.01C75.24 46.89 73.92 46.33 72.25 46.33C69.03 46.33 67.05 48.69 66.8 52.81C68.92 53.14 70.42 52.44 71.28 50.72C71.45 50.36 71.82 50.13 72.24 50.13ZM76.74 53.22C75 53.22 73.68 52.42 72.91 50.87C72.78 50.62 72.53 50.47 72.24 50.47C71.95 50.47 71.7 50.62 71.57 50.87C70.63 52.74 68.91 53.52 66.59 53.11L66.45 53.08L66.46 52.93C66.68 48.58 68.84 45.98 72.25 45.98C74.03 45.98 75.44 46.58 76.42 47.78C77.39 48.97 77.94 50.7 78.04 52.93L78.05 53.08L77.91 53.11C77.49 53.18 77.1 53.22 76.74 53.22ZM47.94 51.22C48.15 51.22 48.37 51.28 48.55 51.41C50.76 52.94 53.78 53.2 55.98 53.14V52.34C55.98 49.07 53.35 46.42 50.12 46.42C46.89 46.42 44.26 49.08 44.26 52.34V53C45.55 52.83 46.4 52.54 47.08 51.64C47.29 51.37 47.62 51.22 47.94 51.22ZM55.44 53.49C53.25 53.49 50.46 53.14 48.37 51.69C48.04 51.46 47.59 51.53 47.35 51.86C46.57 52.9 45.61 53.19 44.12 53.37L43.94 53.39V52.35C43.94 48.9 46.72 46.09 50.13 46.09C53.54 46.09 56.32 48.9 56.32 52.35V53.47L56.16 53.48C55.93 53.49 55.69 53.49 55.44 53.49ZM66.76 55.01V55.63C66.76 58.68 69.21 61.16 72.23 61.16C75.25 61.16 77.7 58.68 77.7 55.63V55.01C75.44 55.28 73.54 54.62 72.23 53.15C70.92 54.62 69.02 55.27 66.76 55.01ZM72.24 61.5C69.04 61.5 66.43 58.87 66.43 55.64V54.63L66.62 54.66C68.91 54.98 70.83 54.32 72.11 52.79L72.24 52.64L72.37 52.79C73.65 54.32 75.57 54.98 77.86 54.66L78.05 54.63V55.64C78.04 58.86 75.44 61.5 72.24 61.5ZM44.26 55.22V56.03C44.26 59.29 46.89 61.95 50.12 61.95C53.35 61.95 55.98 59.29 55.98 56.03V55.33C53.78 55.4 50.68 55.13 48.13 53.71C46.97 54.8 45.59 55.06 44.26 55.22ZM50.12 62.29C46.7 62.29 43.93 59.48 43.93 56.03V54.92L44.08 54.9C45.43 54.75 46.85 54.5 48 53.39L48.09 53.3L48.2 53.36C50.77 54.83 53.94 55.05 56.15 54.99L56.32 54.98V56.02C56.32 59.48 53.54 62.29 50.12 62.29ZM64.61 61.18C65.6 61.85 66.38 62.81 66.84 63.92C66.99 63.88 67.13 63.84 67.27 63.8C67.64 63.7 67.99 63.6 68.33 63.51V62.26C67.28 61.63 66.39 60.74 65.74 59.69C65.43 60.22 65.05 60.72 64.61 61.18ZM66.64 64.32L66.58 64.18C66.13 63.01 65.31 62.01 64.26 61.35L64.08 61.24L64.23 61.09C64.79 60.55 65.24 59.93 65.59 59.27L65.73 59L65.88 59.27C66.52 60.41 67.45 61.36 68.58 62.02L68.66 62.07V63.76L68.54 63.79C68.16 63.9 67.76 64.01 67.35 64.12C67.16 64.17 66.97 64.22 66.78 64.28L66.64 64.32ZM76.15 63.51C76.49 63.61 76.84 63.71 77.21 63.8C78.29 64.09 79.5 64.43 80.6 64.93C81.91 64.7 82.46 64.28 82.86 63.2C81.52 62.62 79.8 61.55 78.73 59.69C78.09 60.74 77.2 61.62 76.15 62.25V63.51ZM80.55 65.28L80.5 65.26C79.42 64.75 78.2 64.42 77.12 64.13C76.71 64.02 76.31 63.91 75.93 63.8L75.81 63.77V62.08L75.89 62.03C77.01 61.37 77.94 60.42 78.58 59.29L78.73 59.02L78.87 59.29C79.91 61.29 81.76 62.4 83.12 62.97L83.26 63.03L83.21 63.18C82.76 64.5 82.1 65.03 80.58 65.29L80.55 65.28ZM57.68 64.78C57.63 64.91 57.58 65.05 57.54 65.19C59.87 64.17 62.65 64.17 64.98 65.19C64.51 63.52 62.99 62.34 61.26 62.34C59.68 62.34 58.28 63.3 57.68 64.78ZM57.08 65.78L57.14 65.45C57.19 65.17 57.27 64.91 57.37 64.65C58.02 63.04 59.55 62 61.26 62C63.27 62 65 63.45 65.38 65.44L65.44 65.77L65.14 65.63C62.73 64.46 59.76 64.47 57.36 65.63L57.08 65.78ZM48.38 63.95V64.31C48.38 65.29 49.16 66.08 50.13 66.08C51.09 66.08 51.87 65.29 51.87 64.32V63.96C50.72 64.2 49.52 64.2 48.38 63.95ZM50.12 66.41C48.98 66.41 48.04 65.47 48.04 64.31V63.52L48.25 63.57C49.47 63.88 50.76 63.88 51.99 63.57L52.2 63.52V64.3C52.2 65.47 51.27 66.41 50.12 66.41ZM70.5 63.15V64.32C70.5 65.29 71.28 66.08 72.24 66.08C73.2 66.08 73.98 65.29 73.98 64.32V63.15C72.84 63.42 71.64 63.41 70.5 63.15ZM72.24 66.41C71.09 66.41 70.16 65.47 70.16 64.31V62.71L70.37 62.77C71.59 63.1 72.89 63.1 74.11 62.77L74.32 62.71V64.31C74.32 65.47 73.38 66.41 72.24 66.41ZM57.4 67.74C57.46 69.02 58.13 70.19 59.21 70.87C60.37 71.67 62.14 71.66 63.34 70.85C64.4 70.16 65.06 69 65.12 67.74C62.8 66.22 59.72 66.22 57.4 67.74ZM61.24 71.8C60.44 71.8 59.65 71.58 59.03 71.15C57.83 70.39 57.1 69.08 57.07 67.65V67.56L57.15 67.51C59.62 65.85 62.93 65.85 65.4 67.51L65.48 67.56V67.65C65.45 69.06 64.73 70.37 63.55 71.13C62.87 71.58 62.05 71.8 61.24 71.8ZM59.74 73.46V73.84C59.74 74.65 60.39 75.31 61.19 75.31C61.96 75.31 62.78 74.85 62.78 73.85V73.47C62.56 73.53 62.34 73.57 62.12 73.6C61.49 73.69 60.85 73.68 60.23 73.57C60.07 73.54 59.91 73.51 59.74 73.46ZM61.19 75.64C60.21 75.64 59.41 74.83 59.41 73.84V73.01L59.62 73.07C59.85 73.14 60.07 73.19 60.28 73.23C60.86 73.33 61.47 73.34 62.06 73.26C62.34 73.22 62.62 73.16 62.89 73.08L63.1 73.01V73.84C63.12 75.08 62.12 75.64 61.19 75.64ZM45.06 77.68H51.53C52.29 74.62 54.84 73.86 57.1 73.19C57.26 73.14 57.42 73.09 57.59 73.04V72.38C56.1 71.21 55.24 69.46 55.24 67.56V66.25C55.24 66.2 55.24 66.15 55.24 66.11C55.08 66.07 54.85 66 54.6 65.93C54.3 65.85 53.99 65.76 53.79 65.71C53.22 67.25 51.77 68.27 50.13 68.27C48.5 68.27 47.05 67.25 46.47 65.71C46.23 65.78 45.99 65.84 45.76 65.91C42.3 66.85 40.21 67.64 40.16 70.68V77.68H42.9V74.1C42.9 73.5 43.39 73.01 43.98 73.01C44.57 73.01 45.06 73.5 45.06 74.1V77.68ZM51.79 78.01H44.73V74.09C44.73 73.67 44.39 73.33 43.98 73.33C43.57 73.33 43.23 73.67 43.23 74.09V78.01H39.82V70.67C39.88 67.39 42.06 66.56 45.64 65.59C45.96 65.5 46.24 65.42 46.53 65.34L46.68 65.3L46.73 65.45C47.22 66.93 48.58 67.93 50.13 67.93C51.67 67.93 53.04 66.93 53.53 65.45L53.58 65.3L53.73 65.34C53.89 65.39 54.3 65.5 54.69 65.61C55.02 65.7 55.34 65.79 55.46 65.83L55.59 65.86L55.58 65.99C55.58 66.07 55.57 66.16 55.57 66.25V67.56C55.57 69.39 56.4 71.07 57.85 72.17L57.92 72.22V73.29L57.8 73.33C57.6 73.39 57.4 73.45 57.2 73.51C55 74.17 52.51 74.91 51.83 77.89L51.79 78.01ZM79.47 77.68H82.21V70.68C82.16 67.64 80.07 66.85 76.64 65.92C76.39 65.85 76.14 65.78 75.89 65.71C75.32 67.25 73.87 68.27 72.23 68.27C70.59 68.27 69.15 67.25 68.57 65.71C68.32 65.78 68.07 65.85 67.82 65.92C67.64 65.97 67.47 66.02 67.29 66.07C67.29 66.14 67.29 66.21 67.29 66.28V67.57C67.29 69.45 66.41 71.24 64.94 72.4V73.05C65.1 73.1 65.26 73.15 65.42 73.19C67.68 73.86 70.23 74.62 70.99 77.68H77.29V74.1C77.29 73.5 77.78 73.01 78.37 73.01C78.96 73.01 79.45 73.5 79.45 74.1V77.68H79.47ZM82.55 78.01H79.15V74.09C79.15 73.67 78.81 73.33 78.4 73.33C77.99 73.33 77.65 73.67 77.65 74.09V78.01H70.75L70.72 77.88C70.04 74.9 67.55 74.16 65.35 73.5C65.15 73.44 64.95 73.38 64.75 73.32L64.63 73.28V72.21L64.7 72.16C66.15 71.06 66.98 69.38 66.98 67.55V66.26C66.98 66.15 66.98 66.04 66.97 65.93L66.96 65.8L67.09 65.76C67.31 65.7 67.53 65.64 67.75 65.58C68.05 65.5 68.35 65.42 68.65 65.33L68.8 65.29L68.85 65.44C69.34 66.92 70.7 67.92 72.25 67.92C73.79 67.92 75.16 66.92 75.65 65.44L75.7 65.29L75.85 65.33C76.15 65.42 76.45 65.5 76.74 65.58C80.32 66.55 82.5 67.38 82.56 70.66V78.01H82.55ZM65.38 80.26C64.97 80.26 64.63 80.6 64.63 81.02C64.63 81.44 64.97 81.78 65.38 81.78H70.15C70.56 81.78 70.9 81.44 70.9 81.02V79.53H83.3C83.71 79.53 84.05 79.19 84.05 78.77V70.66C84.02 68.92 83.5 67.58 82.44 66.55L82.27 66.38L82.49 66.28C83.74 65.69 84.45 64.66 84.92 62.72C85.01 62.34 84.8 61.94 84.42 61.82C82.2 61.08 79.54 59.4 79.54 55.63V53.69C79.54 50.73 78.87 48.42 77.56 46.83C76.3 45.29 74.45 44.48 72.23 44.48C70.1 44.48 68.3 45.29 67 46.82C65.64 48.43 64.92 50.81 64.92 53.69V55.63C64.92 57.72 64.11 59.38 62.5 60.57L62.44 60.62L62.37 60.61C62 60.53 61.62 60.5 61.25 60.5C58.89 60.5 56.75 62 55.91 64.23L55.86 64.37L55.22 64.19C54.74 64.06 54.06 63.87 53.81 63.79L53.69 63.76V62.92L53.78 62.87C56.27 61.5 57.81 58.88 57.81 56.03V52.35C57.81 48.06 54.36 44.57 50.12 44.57C45.88 44.57 42.42 48.06 42.42 52.35V56.03C42.42 58.88 43.96 61.5 46.45 62.86L46.54 62.91V63.75L46.42 63.78C46.04 63.89 45.66 64 45.25 64.11C42.18 64.95 38.38 65.98 38.31 70.64V78.76C38.31 79.18 38.65 79.52 39.06 79.52H51.63V81C51.63 81.43 51.97 81.77 52.38 81.77H57.14C57.56 81.77 57.89 81.43 57.89 81.01C57.89 80.59 57.55 80.25 57.14 80.25H53.13V79.53C53.14 78.84 53.23 78.27 53.4 77.78C54 76.03 55.6 75.56 57.61 74.96L58.05 74.83L58.1 74.98C58.57 76.29 59.81 77.16 61.18 77.16C62.68 77.16 63.95 76.3 64.42 74.98L64.47 74.83L64.9 74.96C67.47 75.73 69.33 76.28 69.38 79.53V80.26H65.38ZM70.15 82.12H65.38C64.78 82.12 64.3 81.63 64.3 81.03C64.3 80.43 64.79 79.94 65.38 79.94H69.06V79.55C69.01 76.54 67.43 76.08 64.82 75.29L64.68 75.25C64.13 76.63 62.77 77.5 61.19 77.5C59.73 77.5 58.41 76.6 57.85 75.24L57.71 75.28C55.71 75.88 54.27 76.31 53.72 77.89C53.56 78.35 53.48 78.89 53.47 79.53V79.91H57.15C57.75 79.91 58.23 80.4 58.23 81.01C58.23 81.61 57.74 82.1 57.15 82.1H52.39C51.79 82.1 51.31 81.61 51.31 81.01V79.85H39.06C38.46 79.85 37.98 79.36 37.98 78.76V70.64C38.06 65.72 41.99 64.65 45.15 63.79C45.53 63.69 45.87 63.59 46.21 63.5V63.11C43.67 61.67 42.09 58.97 42.09 56.03V52.35C42.09 47.88 45.69 44.24 50.12 44.24C54.55 44.24 58.15 47.88 58.15 52.35V56.03C58.15 58.97 56.57 61.67 54.03 63.11V63.5C54.34 63.59 54.9 63.74 55.32 63.86L55.67 63.96C56.59 61.68 58.82 60.15 61.26 60.15C61.63 60.15 62 60.18 62.37 60.25C63.85 59.13 64.6 57.57 64.6 55.62V53.68C64.6 50.71 65.35 48.26 66.76 46.59C68.12 44.98 70.01 44.13 72.24 44.13C74.56 44.13 76.49 44.98 77.82 46.6C79.19 48.26 79.88 50.64 79.88 53.68V55.62C79.88 59.19 82.41 60.78 84.53 61.49C85.06 61.67 85.38 62.24 85.24 62.79C84.77 64.7 84.05 65.81 82.84 66.46C83.85 67.53 84.36 68.9 84.38 70.63V78.75C84.38 79.35 83.89 79.84 83.3 79.84H71.23V80.99C71.23 81.62 70.74 82.12 70.15 82.12Z" fill="#FAF7F2"/>
<path d="M57.4102 37.7C57.8202 37.27 58.3702 37.03 58.9602 37.02C58.9702 37.02 58.9902 37.02 59.0002 37.02C59.5802 37.02 60.1202 37.24 60.5302 37.64L61.0502 38.14C61.4002 38.49 61.9702 38.49 62.3202 38.14L62.8402 37.64C63.2602 37.23 63.8202 37.01 64.4102 37.02C65.0002 37.03 65.5502 37.27 65.9602 37.7C66.8002 38.58 66.7802 40 65.9002 40.85L61.6802 44.96L57.4602 40.85C56.6002 40 56.5702 38.58 57.4102 37.7ZM61.0502 46.92C61.2302 47.09 61.4602 47.18 61.6902 47.18C61.9202 47.18 62.1502 47.09 62.3302 46.92L67.1802 42.19C68.7802 40.63 68.8302 38.04 67.2802 36.42C66.5302 35.64 65.5302 35.2 64.4402 35.18C63.4102 35.16 62.4402 35.53 61.6802 36.21C60.9202 35.53 59.9502 35.16 58.9202 35.18C57.8402 35.2 56.8302 35.64 56.0802 36.42C54.5402 38.04 54.5802 40.63 56.1802 42.19L61.0502 46.92Z" fill="#FAF7F2"/>
<path d="M57.5302 37.81C56.7502 38.63 56.7702 39.94 57.5802 40.73L61.6802 44.73L65.7802 40.73C66.1702 40.35 66.3902 39.84 66.4002 39.28C66.4102 38.73 66.2102 38.21 65.8302 37.81C65.4502 37.42 64.9402 37.19 64.4002 37.18C63.8602 37.17 63.3402 37.37 62.9502 37.75L62.4302 38.25C62.0102 38.66 61.3502 38.66 60.9302 38.25L60.4102 37.75C60.0402 37.39 59.5402 37.19 59.0002 37.19C58.4202 37.2 57.9102 37.42 57.5302 37.81ZM61.6902 45.19L57.3602 40.97C56.4202 40.05 56.3902 38.53 57.3002 37.58C57.7402 37.12 58.3302 36.86 58.9702 36.85H59.0002C59.6202 36.85 60.2002 37.09 60.6502 37.52L61.1702 38.02C61.4602 38.31 61.9202 38.31 62.2102 38.02L62.7302 37.51C63.1802 37.07 63.7702 36.85 64.4202 36.84C65.0602 36.85 65.6502 37.11 66.0902 37.57C66.5302 38.03 66.7602 38.64 66.7502 39.28C66.7402 39.92 66.4802 40.52 66.0202 40.96L61.6902 45.19ZM59.0002 35.34H58.9302C57.8902 35.36 56.9302 35.78 56.2102 36.53C54.7302 38.09 54.7702 40.57 56.3102 42.07L61.1602 46.8C61.4402 47.07 61.9202 47.07 62.2002 46.8L67.0502 42.07C68.5902 40.57 68.6302 38.09 67.1502 36.53C66.4302 35.78 65.4702 35.36 64.4302 35.34H64.3602C63.4002 35.34 62.4902 35.69 61.7902 36.33L61.6802 36.43L61.5702 36.33C60.8702 35.68 59.9602 35.34 59.0002 35.34ZM61.6902 47.34C61.4102 47.34 61.1402 47.23 60.9402 47.03L56.0802 42.3C54.4102 40.68 54.3602 37.98 55.9702 36.29C56.7502 35.48 57.8002 35.02 58.9302 35C59.9402 34.98 60.9202 35.32 61.6902 35.97C62.4402 35.34 63.3802 35 64.3702 35H64.4502C65.5802 35.02 66.6202 35.48 67.4002 36.29C69.0102 37.98 68.9602 40.67 67.2902 42.3L62.4402 47.03C62.2402 47.23 61.9702 47.34 61.6902 47.34Z" fill="#FAF7F2"/>
</g>
<defs>
<clipPath id="clip0">
<rect width="98.13" height="73.07" fill="white" transform="translate(11 35)"/>
</clipPath>
</defs>
</svg>
