<svg width="120" height="120" viewBox="0 0 120 120" fill="none" xmlns="http://www.w3.org/2000/svg">
<circle cx="60" cy="60" r="60" fill="#0D3E69"/>
<g clip-path="url(#clip0)">
<path d="M26.93 43.47C26.93 48.15 23.14 51.94 18.46 51.94C13.78 51.94 10 48.14 10 43.47C10 38.8 13.79 35 18.47 35C23.15 35 26.93 38.79 26.93 43.47Z" fill="#FAF7F2"/>
<path d="M13.8999 59.97H25.1699C25.1699 79.73 41.2499 95.81 61.0099 95.81C80.7699 95.81 96.8499 79.73 96.8499 59.97H108.12C108.12 85.95 86.9799 107.09 60.9999 107.09C35.0399 107.08 13.8999 85.95 13.8999 59.97Z" fill="#FF7062"/>
<path d="M43.1401 57.2601L58.2301 62.4501L73.3201 57.2601V66.1901H70.6001V68.4701H73.3201V70.7501H68.5301V73.0301H73.3201V74.4101C71.9001 75.1301 67.3201 76.9901 58.2301 76.9901C49.1301 76.9901 44.5501 75.1301 43.1401 74.4101V57.2601ZM85.1101 69.0101V72.4301H81.4301V69.0101C81.4301 67.9601 82.2501 67.1101 83.2701 67.1101C84.2901 67.1101 85.1101 67.9601 85.1101 69.0101ZM40.9401 75.7001L41.4301 76.0401C41.6201 76.1701 46.2601 79.2701 58.2401 79.2701C70.2201 79.2701 74.8601 76.1701 75.0501 76.0401L75.5401 75.7001V56.5001L82.1701 54.2201V64.9901C80.4701 65.4901 79.2301 67.1001 79.2301 69.0101V74.7101H87.3301V69.0101C87.3301 67.1001 86.0801 65.4901 84.3801 64.9901V53.4601C84.3801 53.4601 86.4501 52.7801 86.4501 52.1301C86.4501 51.4801 76.6501 48.1401 76.6501 48.1401L75.9501 50.3001L81.2601 52.1301L58.2501 60.0501L35.2401 52.1301L58.2501 44.2101L73.8601 49.5801L74.5601 47.4201L58.2601 41.8101C58.2601 41.8101 31.8501 50.8601 31.8501 52.1301C31.8501 53.4101 40.9601 56.5001 40.9601 56.5001V75.7001H40.9401Z" fill="#FAF7F2"/>
</g>
<defs>
<clipPath id="clip0">
<rect width="98.13" height="72.08" fill="white" transform="translate(10 35)"/>
</clipPath>
</defs>
</svg>
