<?xml version="1.0" encoding="utf-8"?>
<!-- Generator: Adobe Illustrator 24.0.2, SVG Export Plug-In . SVG Version: 6.00 Build 0)  -->
<svg version="1.1" id="Capa_1" xmlns="http://www.w3.org/2000/svg" xmlns:xlink="http://www.w3.org/1999/xlink" x="0px" y="0px"
	 viewBox="0 0 120 120" style="enable-background:new 0 0 120 120;" xml:space="preserve">
<style type="text/css">
	.st0{fill:#0D3E69;}
	.st1{fill:#FAF7F2;}
	.st2{fill:#FF7062;}
	.st3{fill:#FFFFFF;}
</style>
<circle class="st0" cx="60" cy="60" r="60"/>
<path class="st1" d="M27.9,44.4c0,4.7-3.8,8.5-8.5,8.5s-8.5-3.8-8.5-8.5s3.8-8.5,8.5-8.5S27.9,39.8,27.9,44.4z"/>
<path class="st2" d="M14.8,60.9h11.3c0,19.8,16.1,35.8,35.8,35.8s35.8-16.1,35.8-35.8h11.3c0,26-21.1,47.1-47.1,47.1
	C36,108.1,14.8,86.9,14.8,60.9z"/>
<path class="st3" d="M80.6,58.3c0-0.3-0.3-0.6-0.7-0.6h-9.6L69.9,49c0-0.4-0.3-0.6-0.7-0.6h-4.7V45c0-3.3-2.7-6-6-6
	c-0.7,0-1.4,0.1-2,0.3c-3.1-1.1-6.6,0.5-7.7,3.7c-0.2,0.6-0.3,1.3-0.3,2v3.3h-4.7c-0.4,0-0.7,0.3-0.7,0.6l-1.3,26.7
	c0,0.4,0.3,0.7,0.6,0.7c0,0,0,0,0,0h38.7c0.4,0,0.7-0.3,0.7-0.7c0,0,0,0,0,0L80.6,58.3z M78.6,72.9L80,75h-2.8L78.6,72.9z
	 M80.4,73.2l-1.2-1.7L78,59h1.3L80.4,73.2z M76.7,59l1.3,12.5l-1.5,2.2L75.3,59H76.7z M69,57.7h-1.3l-0.5-8h1.3L69,57.7z M66,49.7
	l0.5,8H65l-0.4-8H66z M58.6,40.3c2.6,0,4.7,2.1,4.7,4.7v3.3h-2.7V45c0-1.8-0.8-3.5-2.2-4.7C58.4,40.3,58.5,40.3,58.6,40.3z
	 M56.6,40.8c1.6,0.8,2.7,2.4,2.7,4.2v3.3h-5.3V45C53.9,43.2,55,41.5,56.6,40.8z M49.9,45c0-2.6,2.1-4.7,4.7-4.7c0.1,0,0.1,0,0.2,0
	c-1.4,1.1-2.2,2.9-2.2,4.7v3.3h-2.7V45z M58,75H43.3l1.3-25.4h4V54l-1.7,1.1c-0.2,0.1-0.3,0.3-0.3,0.6V61c0,0.4,0.3,0.7,0.7,0.7h4
	c0.4,0,0.7-0.3,0.7-0.7v-5.3c0-0.2-0.1-0.4-0.3-0.6L49.9,54v-4.3h9.3v2c0,0.4,0.3,0.7,0.7,0.7s0.7-0.3,0.7-0.7v-2h2.7l0.4,8h-3.8
	c-0.4,0-0.6,0.3-0.7,0.6L58,75z M49.3,55.1l1.3,0.9v4.3h-2.7V56L49.3,55.1z M60.5,59H74l1.2,16H59.3L60.5,59z"/>
<path class="st3" d="M70.6,61.7c-0.4,0-0.7,0.3-0.7,0.7v5.3c0,1.1-0.9,2-2,2h-1.3c-1.1,0-2-0.9-2-2v-5.3c0-0.4-0.3-0.7-0.7-0.7
	c-0.4,0-0.7,0.3-0.7,0.7v5.3c0,1.8,1.5,3.3,3.3,3.3H68c1.8,0,3.3-1.5,3.3-3.3v-5.3C71.3,62,71,61.7,70.6,61.7z"/>
</svg>
