<svg width="345" height="121" viewBox="0 0 345 121" fill="none" xmlns="http://www.w3.org/2000/svg">
<g clip-path="url(#clip0)">
<path d="M25.6788 121C13.3534 121 3.35754 110.735 3.35754 98.0781C3.35754 85.4211 13.3534 75.1562 25.6788 75.1562C38.0042 75.1562 48.0001 85.4211 48.0001 98.0781C48.0001 110.735 38.0042 121 25.6788 121Z" fill="#EF7869"/>
<path d="M34.1544 77.6046V103.559L42.4005 114.7" stroke="white" stroke-miterlimit="10"/>
<path d="M17.203 77.6046V103.559L8.95691 114.7" stroke="white" stroke-miterlimit="10"/>
<path d="M0 95.5514C1.25769 83.6244 7.40396 78.0989 12.3363 75.572C17.6405 72.8542 22.6493 73.0002 22.8571 73.0002L22.6931 78.5818C22.0588 78.5706 7.27273 78.4021 5.4026 96.1466L0 95.5514Z" fill="#0E3E67"/>
<path d="M30.3048 101.11H21.0526L25.6787 96.3599L30.3048 101.11Z" fill="white"/>
<path d="M25.6787 101.11V117.597" stroke="white" stroke-miterlimit="10"/>
</g>
<g clip-path="url(#clip1)">
<path d="M26.6788 48C39.0065 48 49.0001 37.7375 49.0001 25.0781C49.0001 12.4187 39.0065 2.15625 26.6788 2.15625C14.3511 2.15625 4.35754 12.4187 4.35754 25.0781C4.35754 37.7375 14.3511 48 26.6788 48Z" fill="#EE7768"/>
<path d="M1 22.5514C2.25769 10.6244 8.40396 5.09889 13.3363 2.57198C18.6405 -0.145846 23.6493 0.000153428 23.8571 0.000153428L23.6931 5.58181C23.0588 5.57058 8.28366 5.40212 6.4026 23.1466L1 22.5514Z" fill="#103E68"/>
<path d="M24.7977 24.1348H14.3315V18.6429H24.7977V24.1348ZM14.9549 23.4946H24.1634V19.2943H14.9549V23.4946Z" fill="white"/>
<path d="M30.6596 28.9864H20.1935V23.4946H30.6596V28.9864ZM20.8169 28.3463H30.0253V24.146H20.8169V28.3463Z" fill="white"/>
<path d="M40.4914 28.9864H30.0253V23.4946H40.4914V28.9864ZM30.6596 28.3463H39.8681V24.146H30.6596V28.3463Z" fill="white"/>
<path d="M20.8168 28.9864H10.3616V23.4946H20.8277V28.9864H20.8168ZM10.9849 28.3463H20.1934V24.146H10.9849V28.3463Z" fill="white"/>
<path d="M32.7485 34.029H22.2823V28.5372H32.7485V34.029ZM22.9167 33.3889H32.1251V29.1886H22.9167V33.3889Z" fill="white"/>
<path d="M42.5913 34.029H32.1251V28.5372H42.5913V34.029ZM32.7485 33.3889H41.957V29.1886H32.7485V33.3889Z" fill="white"/>
<path d="M22.9166 34.029H12.4504V28.5372H22.9166V34.029ZM13.0848 33.3889H22.2932V29.1886H13.0848V33.3889Z" fill="white"/>
<path d="M34.6295 24.1348H24.1633V18.6429H34.6295V24.1348ZM24.7976 23.4946H34.0061V19.2943H24.7976V23.4946Z" fill="white"/>
</g>
<g clip-path="url(#clip2)">
<path d="M230.679 48C243.006 48 253 37.7375 253 25.0781C253 12.4187 243.006 2.15625 230.679 2.15625C218.351 2.15625 208.357 12.4187 208.357 25.0781C208.357 37.7375 218.351 48 230.679 48Z" fill="#EE7768"/>
<path d="M205 22.5514C206.258 10.6244 212.404 5.09889 217.336 2.57198C222.64 -0.145846 227.649 0.000153428 227.857 0.000153428L227.693 5.58181C227.059 5.57058 212.284 5.40212 210.403 23.1466L205 22.5514Z" fill="#103E68"/>
<path d="M236.005 37.4656H219.709V20.743H235.994V37.4656H236.005ZM221.601 35.5339H234.124V22.6747H221.601V35.5339Z" fill="white"/>
<path d="M243.201 30.0646H226.917V13.342H243.201V30.0646ZM228.798 28.1329H241.32V15.2737H228.798V28.1329Z" fill="white"/>
</g>
<path d="M60.444 14.812C60.444 13.996 60.632 13.264 61.008 12.616C61.392 11.968 61.908 11.464 62.556 11.104C63.212 10.736 63.928 10.552 64.704 10.552C65.592 10.552 66.38 10.772 67.068 11.212C67.764 11.644 68.268 12.26 68.58 13.06H66.936C66.72 12.62 66.42 12.292 66.036 12.076C65.652 11.86 65.208 11.752 64.704 11.752C64.152 11.752 63.66 11.876 63.228 12.124C62.796 12.372 62.456 12.728 62.208 13.192C61.968 13.656 61.848 14.196 61.848 14.812C61.848 15.428 61.968 15.968 62.208 16.432C62.456 16.896 62.796 17.256 63.228 17.512C63.66 17.76 64.152 17.884 64.704 17.884C65.208 17.884 65.652 17.776 66.036 17.56C66.42 17.344 66.72 17.016 66.936 16.576H68.58C68.268 17.376 67.764 17.992 67.068 18.424C66.38 18.856 65.592 19.072 64.704 19.072C63.92 19.072 63.204 18.892 62.556 18.532C61.908 18.164 61.392 17.656 61.008 17.008C60.632 16.36 60.444 15.628 60.444 14.812ZM73.9853 19.084C73.2093 19.084 72.4933 18.904 71.8373 18.544C71.1893 18.176 70.6733 17.668 70.2893 17.02C69.9133 16.364 69.7253 15.628 69.7253 14.812C69.7253 13.996 69.9133 13.264 70.2893 12.616C70.6733 11.968 71.1893 11.464 71.8373 11.104C72.4933 10.736 73.2093 10.552 73.9853 10.552C74.7693 10.552 75.4853 10.736 76.1333 11.104C76.7893 11.464 77.3053 11.968 77.6813 12.616C78.0573 13.264 78.2453 13.996 78.2453 14.812C78.2453 15.628 78.0573 16.364 77.6813 17.02C77.3053 17.668 76.7893 18.176 76.1333 18.544C75.4853 18.904 74.7693 19.084 73.9853 19.084ZM73.9853 17.896C74.5373 17.896 75.0293 17.772 75.4613 17.524C75.8933 17.268 76.2293 16.908 76.4693 16.444C76.7173 15.972 76.8413 15.428 76.8413 14.812C76.8413 14.196 76.7173 13.656 76.4693 13.192C76.2293 12.728 75.8933 12.372 75.4613 12.124C75.0293 11.876 74.5373 11.752 73.9853 11.752C73.4333 11.752 72.9413 11.876 72.5093 12.124C72.0773 12.372 71.7373 12.728 71.4893 13.192C71.2493 13.656 71.1293 14.196 71.1293 14.812C71.1293 15.428 71.2493 15.972 71.4893 16.444C71.7373 16.908 72.0773 17.268 72.5093 17.524C72.9413 17.772 73.4333 17.896 73.9853 17.896ZM86.4434 19H85.0754L80.9594 12.772V19H79.5914V10.648H80.9594L85.0754 16.864V10.648H86.4434V19ZM90.9878 19.084C90.4278 19.084 89.9238 18.988 89.4758 18.796C89.0278 18.596 88.6758 18.316 88.4198 17.956C88.1638 17.596 88.0358 17.176 88.0358 16.696H89.4998C89.5318 17.056 89.6718 17.352 89.9198 17.584C90.1758 17.816 90.5318 17.932 90.9878 17.932C91.4598 17.932 91.8278 17.82 92.0918 17.596C92.3558 17.364 92.4878 17.068 92.4878 16.708C92.4878 16.428 92.4038 16.2 92.2358 16.024C92.0758 15.848 91.8718 15.712 91.6238 15.616C91.3838 15.52 91.0478 15.416 90.6158 15.304C90.0718 15.16 89.6278 15.016 89.2838 14.872C88.9478 14.72 88.6598 14.488 88.4198 14.176C88.1798 13.864 88.0598 13.448 88.0598 12.928C88.0598 12.448 88.1798 12.028 88.4198 11.668C88.6598 11.308 88.9958 11.032 89.4278 10.84C89.8598 10.648 90.3598 10.552 90.9278 10.552C91.7358 10.552 92.3958 10.756 92.9078 11.164C93.4278 11.564 93.7158 12.116 93.7718 12.82H92.2598C92.2358 12.516 92.0918 12.256 91.8278 12.04C91.5638 11.824 91.2158 11.716 90.7838 11.716C90.3918 11.716 90.0718 11.816 89.8238 12.016C89.5758 12.216 89.4518 12.504 89.4518 12.88C89.4518 13.136 89.5278 13.348 89.6798 13.516C89.8398 13.676 90.0398 13.804 90.2798 13.9C90.5198 13.996 90.8478 14.1 91.2638 14.212C91.8158 14.364 92.2638 14.516 92.6078 14.668C92.9598 14.82 93.2558 15.056 93.4958 15.376C93.7438 15.688 93.8678 16.108 93.8678 16.636C93.8678 17.06 93.7518 17.46 93.5198 17.836C93.2958 18.212 92.9638 18.516 92.5238 18.748C92.0918 18.972 91.5798 19.084 90.9878 19.084ZM100.87 10.66V11.776H98.65V19H97.282V11.776H95.05V10.66H100.87ZM106.587 19L104.667 15.664H103.623V19H102.255V10.66H105.135C105.775 10.66 106.315 10.772 106.755 10.996C107.203 11.22 107.535 11.52 107.751 11.896C107.975 12.272 108.087 12.692 108.087 13.156C108.087 13.7 107.927 14.196 107.607 14.644C107.295 15.084 106.811 15.384 106.155 15.544L108.219 19H106.587ZM103.623 14.572H105.135C105.647 14.572 106.031 14.444 106.287 14.188C106.551 13.932 106.683 13.588 106.683 13.156C106.683 12.724 106.555 12.388 106.299 12.148C106.043 11.9 105.655 11.776 105.135 11.776H103.623V14.572ZM111.194 10.66V15.976C111.194 16.608 111.358 17.084 111.686 17.404C112.022 17.724 112.486 17.884 113.078 17.884C113.678 17.884 114.142 17.724 114.47 17.404C114.806 17.084 114.974 16.608 114.974 15.976V10.66H116.342V15.952C116.342 16.632 116.194 17.208 115.898 17.68C115.602 18.152 115.206 18.504 114.71 18.736C114.214 18.968 113.666 19.084 113.066 19.084C112.466 19.084 111.918 18.968 111.422 18.736C110.934 18.504 110.546 18.152 110.258 17.68C109.97 17.208 109.826 16.632 109.826 15.952V10.66H111.194ZM117.667 14.812C117.667 13.996 117.855 13.264 118.231 12.616C118.615 11.968 119.131 11.464 119.779 11.104C120.435 10.736 121.151 10.552 121.927 10.552C122.815 10.552 123.603 10.772 124.291 11.212C124.987 11.644 125.491 12.26 125.803 13.06H124.159C123.943 12.62 123.643 12.292 123.259 12.076C122.875 11.86 122.431 11.752 121.927 11.752C121.375 11.752 120.883 11.876 120.451 12.124C120.019 12.372 119.679 12.728 119.431 13.192C119.191 13.656 119.071 14.196 119.071 14.812C119.071 15.428 119.191 15.968 119.431 16.432C119.679 16.896 120.019 17.256 120.451 17.512C120.883 17.76 121.375 17.884 121.927 17.884C122.431 17.884 122.875 17.776 123.259 17.56C123.643 17.344 123.943 17.016 124.159 16.576H125.803C125.491 17.376 124.987 17.992 124.291 18.424C123.603 18.856 122.815 19.072 121.927 19.072C121.143 19.072 120.427 18.892 119.779 18.532C119.131 18.164 118.615 17.656 118.231 17.008C117.855 16.36 117.667 15.628 117.667 14.812ZM126.948 14.812C126.948 13.996 127.136 13.264 127.512 12.616C127.896 11.968 128.412 11.464 129.06 11.104C129.716 10.736 130.432 10.552 131.208 10.552C132.096 10.552 132.884 10.772 133.572 11.212C134.268 11.644 134.772 12.26 135.084 13.06H133.44C133.224 12.62 132.924 12.292 132.54 12.076C132.156 11.86 131.712 11.752 131.208 11.752C130.656 11.752 130.164 11.876 129.732 12.124C129.3 12.372 128.96 12.728 128.712 13.192C128.472 13.656 128.352 14.196 128.352 14.812C128.352 15.428 128.472 15.968 128.712 16.432C128.96 16.896 129.3 17.256 129.732 17.512C130.164 17.76 130.656 17.884 131.208 17.884C131.712 17.884 132.156 17.776 132.54 17.56C132.924 17.344 133.224 17.016 133.44 16.576H135.084C134.772 17.376 134.268 17.992 133.572 18.424C132.884 18.856 132.096 19.072 131.208 19.072C130.424 19.072 129.708 18.892 129.06 18.532C128.412 18.164 127.896 17.656 127.512 17.008C127.136 16.36 126.948 15.628 126.948 14.812ZM138.053 10.66V19H136.685V10.66H138.053ZM143.653 19.084C142.877 19.084 142.161 18.904 141.505 18.544C140.857 18.176 140.341 17.668 139.957 17.02C139.581 16.364 139.393 15.628 139.393 14.812C139.393 13.996 139.581 13.264 139.957 12.616C140.341 11.968 140.857 11.464 141.505 11.104C142.161 10.736 142.877 10.552 143.653 10.552C144.437 10.552 145.153 10.736 145.801 11.104C146.457 11.464 146.973 11.968 147.349 12.616C147.725 13.264 147.913 13.996 147.913 14.812C147.913 15.628 147.725 16.364 147.349 17.02C146.973 17.668 146.457 18.176 145.801 18.544C145.153 18.904 144.437 19.084 143.653 19.084ZM143.653 17.896C144.205 17.896 144.697 17.772 145.129 17.524C145.561 17.268 145.897 16.908 146.137 16.444C146.385 15.972 146.509 15.428 146.509 14.812C146.509 14.196 146.385 13.656 146.137 13.192C145.897 12.728 145.561 12.372 145.129 12.124C144.697 11.876 144.205 11.752 143.653 11.752C143.101 11.752 142.609 11.876 142.177 12.124C141.745 12.372 141.405 12.728 141.157 13.192C140.917 13.656 140.797 14.196 140.797 14.812C140.797 15.428 140.917 15.972 141.157 16.444C141.405 16.908 141.745 17.268 142.177 17.524C142.609 17.772 143.101 17.896 143.653 17.896ZM144.889 8.872L142.237 10.18V9.172L144.889 7.708V8.872ZM156.111 19H154.743L150.627 12.772V19H149.259V10.648H150.627L154.743 16.864V10.648H156.111V19ZM63.624 28.66C64.512 28.66 65.288 28.832 65.952 29.176C66.624 29.512 67.14 30 67.5 30.64C67.868 31.272 68.052 32.012 68.052 32.86C68.052 33.708 67.868 34.444 67.5 35.068C67.14 35.692 66.624 36.172 65.952 36.508C65.288 36.836 64.512 37 63.624 37H60.9V28.66H63.624ZM63.624 35.884C64.6 35.884 65.348 35.62 65.868 35.092C66.388 34.564 66.648 33.82 66.648 32.86C66.648 31.892 66.388 31.136 65.868 30.592C65.348 30.048 64.6 29.776 63.624 29.776H62.268V35.884H63.624ZM70.7758 29.764V32.212H73.6558V33.328H70.7758V35.884H74.0158V37H69.4078V28.648H74.0158V29.764H70.7758ZM83.282 32.716C83.73 32.796 84.11 33.032 84.422 33.424C84.734 33.816 84.89 34.26 84.89 34.756C84.89 35.18 84.778 35.564 84.554 35.908C84.338 36.244 84.022 36.512 83.606 36.712C83.19 36.904 82.706 37 82.154 37H78.818V28.66H81.998C82.566 28.66 83.054 28.756 83.462 28.948C83.87 29.14 84.178 29.4 84.386 29.728C84.594 30.048 84.698 30.408 84.698 30.808C84.698 31.288 84.57 31.688 84.314 32.008C84.058 32.328 83.714 32.564 83.282 32.716ZM80.186 32.164H81.878C82.326 32.164 82.674 32.064 82.922 31.864C83.178 31.656 83.306 31.36 83.306 30.976C83.306 30.6 83.178 30.308 82.922 30.1C82.674 29.884 82.326 29.776 81.878 29.776H80.186V32.164ZM82.034 35.884C82.498 35.884 82.862 35.772 83.126 35.548C83.39 35.324 83.522 35.012 83.522 34.612C83.522 34.204 83.382 33.88 83.102 33.64C82.822 33.4 82.45 33.28 81.986 33.28H80.186V35.884H82.034ZM87.7446 35.896H90.5646V37H86.3766V28.66H87.7446V35.896ZM95.5126 37.084C94.7366 37.084 94.0206 36.904 93.3646 36.544C92.7166 36.176 92.2006 35.668 91.8166 35.02C91.4406 34.364 91.2526 33.628 91.2526 32.812C91.2526 31.996 91.4406 31.264 91.8166 30.616C92.2006 29.968 92.7166 29.464 93.3646 29.104C94.0206 28.736 94.7366 28.552 95.5126 28.552C96.2966 28.552 97.0126 28.736 97.6606 29.104C98.3166 29.464 98.8326 29.968 99.2086 30.616C99.5846 31.264 99.7726 31.996 99.7726 32.812C99.7726 33.628 99.5846 34.364 99.2086 35.02C98.8326 35.668 98.3166 36.176 97.6606 36.544C97.0126 36.904 96.2966 37.084 95.5126 37.084ZM95.5126 35.896C96.0646 35.896 96.5566 35.772 96.9886 35.524C97.4206 35.268 97.7566 34.908 97.9966 34.444C98.2446 33.972 98.3686 33.428 98.3686 32.812C98.3686 32.196 98.2446 31.656 97.9966 31.192C97.7566 30.728 97.4206 30.372 96.9886 30.124C96.5566 29.876 96.0646 29.752 95.5126 29.752C94.9606 29.752 94.4686 29.876 94.0366 30.124C93.6046 30.372 93.2646 30.728 93.0166 31.192C92.7766 31.656 92.6566 32.196 92.6566 32.812C92.6566 33.428 92.7766 33.972 93.0166 34.444C93.2646 34.908 93.6046 35.268 94.0366 35.524C94.4686 35.772 94.9606 35.896 95.5126 35.896ZM100.663 32.812C100.663 31.996 100.851 31.264 101.227 30.616C101.611 29.968 102.127 29.464 102.775 29.104C103.431 28.736 104.147 28.552 104.923 28.552C105.811 28.552 106.599 28.772 107.287 29.212C107.983 29.644 108.487 30.26 108.799 31.06H107.155C106.939 30.62 106.639 30.292 106.255 30.076C105.871 29.86 105.427 29.752 104.923 29.752C104.371 29.752 103.879 29.876 103.447 30.124C103.015 30.372 102.675 30.728 102.427 31.192C102.187 31.656 102.067 32.196 102.067 32.812C102.067 33.428 102.187 33.968 102.427 34.432C102.675 34.896 103.015 35.256 103.447 35.512C103.879 35.76 104.371 35.884 104.923 35.884C105.427 35.884 105.871 35.776 106.255 35.56C106.639 35.344 106.939 35.016 107.155 34.576H108.799C108.487 35.376 107.983 35.992 107.287 36.424C106.599 36.856 105.811 37.072 104.923 37.072C104.139 37.072 103.423 36.892 102.775 36.532C102.127 36.164 101.611 35.656 101.227 35.008C100.851 34.36 100.663 33.628 100.663 32.812ZM114.996 37L111.768 33.268V37H110.4V28.66H111.768V32.464L115.008 28.66H116.724L113.1 32.836L116.784 37H114.996Z" fill="#575756"/>
<path d="M267.624 10.66C268.512 10.66 269.288 10.832 269.952 11.176C270.624 11.512 271.14 12 271.5 12.64C271.868 13.272 272.052 14.012 272.052 14.86C272.052 15.708 271.868 16.444 271.5 17.068C271.14 17.692 270.624 18.172 269.952 18.508C269.288 18.836 268.512 19 267.624 19H264.9V10.66H267.624ZM267.624 17.884C268.6 17.884 269.348 17.62 269.868 17.092C270.388 16.564 270.648 15.82 270.648 14.86C270.648 13.892 270.388 13.136 269.868 12.592C269.348 12.048 268.6 11.776 267.624 11.776H266.268V17.884H267.624ZM274.776 10.66V19H273.408V10.66H274.776ZM279.32 19.084C278.76 19.084 278.256 18.988 277.808 18.796C277.36 18.596 277.008 18.316 276.752 17.956C276.496 17.596 276.368 17.176 276.368 16.696H277.832C277.864 17.056 278.004 17.352 278.252 17.584C278.508 17.816 278.864 17.932 279.32 17.932C279.792 17.932 280.16 17.82 280.424 17.596C280.688 17.364 280.82 17.068 280.82 16.708C280.82 16.428 280.736 16.2 280.568 16.024C280.408 15.848 280.204 15.712 279.956 15.616C279.716 15.52 279.38 15.416 278.948 15.304C278.404 15.16 277.96 15.016 277.616 14.872C277.28 14.72 276.992 14.488 276.752 14.176C276.512 13.864 276.392 13.448 276.392 12.928C276.392 12.448 276.512 12.028 276.752 11.668C276.992 11.308 277.328 11.032 277.76 10.84C278.192 10.648 278.692 10.552 279.26 10.552C280.068 10.552 280.728 10.756 281.24 11.164C281.76 11.564 282.048 12.116 282.104 12.82H280.592C280.568 12.516 280.424 12.256 280.16 12.04C279.896 11.824 279.548 11.716 279.116 11.716C278.724 11.716 278.404 11.816 278.156 12.016C277.908 12.216 277.784 12.504 277.784 12.88C277.784 13.136 277.86 13.348 278.012 13.516C278.172 13.676 278.372 13.804 278.612 13.9C278.852 13.996 279.18 14.1 279.596 14.212C280.148 14.364 280.596 14.516 280.94 14.668C281.292 14.82 281.588 15.056 281.828 15.376C282.076 15.688 282.2 16.108 282.2 16.636C282.2 17.06 282.084 17.46 281.852 17.836C281.628 18.212 281.296 18.516 280.856 18.748C280.424 18.972 279.912 19.084 279.32 19.084ZM285.182 11.764V14.212H288.062V15.328H285.182V17.884H288.422V19H283.814V10.648H288.422V11.764H285.182ZM296.959 19H295.591L291.475 12.772V19H290.107V10.648H291.475L295.591 16.864V10.648H296.959V19ZM291.583 9.964C291.647 9.5 291.799 9.152 292.039 8.92C292.279 8.68 292.579 8.56 292.939 8.56C293.091 8.56 293.223 8.584 293.335 8.632C293.447 8.68 293.583 8.752 293.743 8.848C293.863 8.928 293.963 8.988 294.043 9.028C294.131 9.068 294.227 9.088 294.331 9.088C294.467 9.088 294.579 9.048 294.667 8.968C294.763 8.88 294.823 8.752 294.847 8.584H295.615C295.551 9.048 295.399 9.4 295.159 9.64C294.919 9.872 294.619 9.988 294.259 9.988C294.107 9.988 293.971 9.964 293.851 9.916C293.731 9.86 293.599 9.784 293.455 9.688C293.311 9.6 293.199 9.54 293.119 9.508C293.047 9.468 292.963 9.448 292.867 9.448C292.731 9.448 292.615 9.492 292.519 9.58C292.431 9.668 292.375 9.796 292.351 9.964H291.583ZM302.559 19.084C301.783 19.084 301.067 18.904 300.411 18.544C299.763 18.176 299.247 17.668 298.863 17.02C298.487 16.364 298.299 15.628 298.299 14.812C298.299 13.996 298.487 13.264 298.863 12.616C299.247 11.968 299.763 11.464 300.411 11.104C301.067 10.736 301.783 10.552 302.559 10.552C303.343 10.552 304.059 10.736 304.707 11.104C305.363 11.464 305.879 11.968 306.255 12.616C306.631 13.264 306.819 13.996 306.819 14.812C306.819 15.628 306.631 16.364 306.255 17.02C305.879 17.668 305.363 18.176 304.707 18.544C304.059 18.904 303.343 19.084 302.559 19.084ZM302.559 17.896C303.111 17.896 303.603 17.772 304.035 17.524C304.467 17.268 304.803 16.908 305.043 16.444C305.291 15.972 305.415 15.428 305.415 14.812C305.415 14.196 305.291 13.656 305.043 13.192C304.803 12.728 304.467 12.372 304.035 12.124C303.603 11.876 303.111 11.752 302.559 11.752C302.007 11.752 301.515 11.876 301.083 12.124C300.651 12.372 300.311 12.728 300.063 13.192C299.823 13.656 299.703 14.196 299.703 14.812C299.703 15.428 299.823 15.972 300.063 16.444C300.311 16.908 300.651 17.268 301.083 17.524C301.515 17.772 302.007 17.896 302.559 17.896ZM273.684 28.66V37H272.316V31.288L269.772 37H268.824L266.268 31.288V37H264.9V28.66H266.376L269.304 35.2L272.22 28.66H273.684ZM279.286 37.084C278.51 37.084 277.794 36.904 277.138 36.544C276.49 36.176 275.974 35.668 275.59 35.02C275.214 34.364 275.026 33.628 275.026 32.812C275.026 31.996 275.214 31.264 275.59 30.616C275.974 29.968 276.49 29.464 277.138 29.104C277.794 28.736 278.51 28.552 279.286 28.552C280.07 28.552 280.786 28.736 281.434 29.104C282.09 29.464 282.606 29.968 282.982 30.616C283.358 31.264 283.546 31.996 283.546 32.812C283.546 33.628 283.358 34.364 282.982 35.02C282.606 35.668 282.09 36.176 281.434 36.544C280.786 36.904 280.07 37.084 279.286 37.084ZM279.286 35.896C279.838 35.896 280.33 35.772 280.762 35.524C281.194 35.268 281.53 34.908 281.77 34.444C282.018 33.972 282.142 33.428 282.142 32.812C282.142 32.196 282.018 31.656 281.77 31.192C281.53 30.728 281.194 30.372 280.762 30.124C280.33 29.876 279.838 29.752 279.286 29.752C278.734 29.752 278.242 29.876 277.81 30.124C277.378 30.372 277.038 30.728 276.79 31.192C276.55 31.656 276.43 32.196 276.43 32.812C276.43 33.428 276.55 33.972 276.79 34.444C277.038 34.908 277.378 35.268 277.81 35.524C278.242 35.772 278.734 35.896 279.286 35.896ZM287.616 28.66C288.504 28.66 289.28 28.832 289.944 29.176C290.616 29.512 291.132 30 291.492 30.64C291.86 31.272 292.044 32.012 292.044 32.86C292.044 33.708 291.86 34.444 291.492 35.068C291.132 35.692 290.616 36.172 289.944 36.508C289.28 36.836 288.504 37 287.616 37H284.892V28.66H287.616ZM287.616 35.884C288.592 35.884 289.34 35.62 289.86 35.092C290.38 34.564 290.64 33.82 290.64 32.86C290.64 31.892 290.38 31.136 289.86 30.592C289.34 30.048 288.592 29.776 287.616 29.776H286.26V35.884H287.616ZM294.768 29.764V32.212H297.648V33.328H294.768V35.884H298.008V37H293.4V28.648H298.008V29.764H294.768ZM304.025 37L302.105 33.664H301.061V37H299.693V28.66H302.573C303.213 28.66 303.753 28.772 304.193 28.996C304.641 29.22 304.973 29.52 305.189 29.896C305.413 30.272 305.525 30.692 305.525 31.156C305.525 31.7 305.365 32.196 305.045 32.644C304.733 33.084 304.249 33.384 303.593 33.544L305.657 37H304.025ZM301.061 32.572H302.573C303.085 32.572 303.469 32.444 303.725 32.188C303.989 31.932 304.121 31.588 304.121 31.156C304.121 30.724 303.993 30.388 303.737 30.148C303.481 29.9 303.093 29.776 302.573 29.776H301.061V32.572ZM314.127 37H312.759L308.643 30.772V37H307.275V28.648H308.643L312.759 34.864V28.648H314.127V37ZM319.727 37.084C318.951 37.084 318.235 36.904 317.579 36.544C316.931 36.176 316.415 35.668 316.031 35.02C315.655 34.364 315.467 33.628 315.467 32.812C315.467 31.996 315.655 31.264 316.031 30.616C316.415 29.968 316.931 29.464 317.579 29.104C318.235 28.736 318.951 28.552 319.727 28.552C320.511 28.552 321.227 28.736 321.875 29.104C322.531 29.464 323.047 29.968 323.423 30.616C323.799 31.264 323.987 31.996 323.987 32.812C323.987 33.628 323.799 34.364 323.423 35.02C323.047 35.668 322.531 36.176 321.875 36.544C321.227 36.904 320.511 37.084 319.727 37.084ZM319.727 35.896C320.279 35.896 320.771 35.772 321.203 35.524C321.635 35.268 321.971 34.908 322.211 34.444C322.459 33.972 322.583 33.428 322.583 32.812C322.583 32.196 322.459 31.656 322.211 31.192C321.971 30.728 321.635 30.372 321.203 30.124C320.771 29.876 320.279 29.752 319.727 29.752C319.175 29.752 318.683 29.876 318.251 30.124C317.819 30.372 317.479 30.728 317.231 31.192C316.991 31.656 316.871 32.196 316.871 32.812C316.871 33.428 316.991 33.972 317.231 34.444C317.479 34.908 317.819 35.268 318.251 35.524C318.683 35.772 319.175 35.896 319.727 35.896Z" fill="#575756"/>
<path d="M75.732 86.144C75.732 86.568 75.632 86.968 75.432 87.344C75.232 87.72 74.912 88.028 74.472 88.268C74.032 88.5 73.468 88.616 72.78 88.616H71.268V92H69.9V83.66H72.78C73.42 83.66 73.96 83.772 74.4 83.996C74.848 84.212 75.18 84.508 75.396 84.884C75.62 85.26 75.732 85.68 75.732 86.144ZM72.78 87.5C73.3 87.5 73.688 87.384 73.944 87.152C74.2 86.912 74.328 86.576 74.328 86.144C74.328 85.232 73.812 84.776 72.78 84.776H71.268V87.5H72.78ZM82.0647 90.296H78.5727L77.9727 92H76.5447L79.5327 83.648H81.1167L84.1047 92H82.6647L82.0647 90.296ZM81.6807 89.18L80.3247 85.304L78.9567 89.18H81.6807ZM88.1519 92.084C87.5919 92.084 87.0879 91.988 86.6399 91.796C86.1919 91.596 85.8399 91.316 85.5839 90.956C85.3279 90.596 85.1999 90.176 85.1999 89.696H86.6639C86.6959 90.056 86.8359 90.352 87.0839 90.584C87.3399 90.816 87.6959 90.932 88.1519 90.932C88.6239 90.932 88.9919 90.82 89.2559 90.596C89.5199 90.364 89.6519 90.068 89.6519 89.708C89.6519 89.428 89.5679 89.2 89.3999 89.024C89.2399 88.848 89.0359 88.712 88.7879 88.616C88.5479 88.52 88.2119 88.416 87.7799 88.304C87.2359 88.16 86.7919 88.016 86.4479 87.872C86.1119 87.72 85.8239 87.488 85.5839 87.176C85.3439 86.864 85.2239 86.448 85.2239 85.928C85.2239 85.448 85.3439 85.028 85.5839 84.668C85.8239 84.308 86.1599 84.032 86.5919 83.84C87.0239 83.648 87.5239 83.552 88.0919 83.552C88.8999 83.552 89.5599 83.756 90.0719 84.164C90.5919 84.564 90.8799 85.116 90.9359 85.82H89.4239C89.3999 85.516 89.2559 85.256 88.9919 85.04C88.7279 84.824 88.3799 84.716 87.9479 84.716C87.5559 84.716 87.2359 84.816 86.9879 85.016C86.7399 85.216 86.6159 85.504 86.6159 85.88C86.6159 86.136 86.6919 86.348 86.8439 86.516C87.0039 86.676 87.2039 86.804 87.4439 86.9C87.6839 86.996 88.0119 87.1 88.4279 87.212C88.9799 87.364 89.4279 87.516 89.7719 87.668C90.1239 87.82 90.4199 88.056 90.6599 88.376C90.9079 88.688 91.0319 89.108 91.0319 89.636C91.0319 90.06 90.9159 90.46 90.6839 90.836C90.4599 91.212 90.1279 91.516 89.6879 91.748C89.2559 91.972 88.7439 92.084 88.1519 92.084ZM94.0141 83.66V92H92.6461V83.66H94.0141ZM97.1782 90.896H99.9982V92H95.8102V83.66H97.1782V90.896ZM102.51 90.896H105.33V92H101.142V83.66H102.51V90.896ZM110.278 92.084C109.502 92.084 108.786 91.904 108.13 91.544C107.482 91.176 106.966 90.668 106.582 90.02C106.206 89.364 106.018 88.628 106.018 87.812C106.018 86.996 106.206 86.264 106.582 85.616C106.966 84.968 107.482 84.464 108.13 84.104C108.786 83.736 109.502 83.552 110.278 83.552C111.062 83.552 111.778 83.736 112.426 84.104C113.082 84.464 113.598 84.968 113.974 85.616C114.35 86.264 114.538 86.996 114.538 87.812C114.538 88.628 114.35 89.364 113.974 90.02C113.598 90.668 113.082 91.176 112.426 91.544C111.778 91.904 111.062 92.084 110.278 92.084ZM110.278 90.896C110.83 90.896 111.322 90.772 111.754 90.524C112.186 90.268 112.522 89.908 112.762 89.444C113.01 88.972 113.134 88.428 113.134 87.812C113.134 87.196 113.01 86.656 112.762 86.192C112.522 85.728 112.186 85.372 111.754 85.124C111.322 84.876 110.83 84.752 110.278 84.752C109.726 84.752 109.234 84.876 108.802 85.124C108.37 85.372 108.03 85.728 107.782 86.192C107.542 86.656 107.422 87.196 107.422 87.812C107.422 88.428 107.542 88.972 107.782 89.444C108.03 89.908 108.37 90.268 108.802 90.524C109.234 90.772 109.726 90.896 110.278 90.896ZM71.268 108.896H74.088V110H69.9V101.66H71.268V108.896ZM80.26 108.296H76.768L76.168 110H74.74L77.728 101.648H79.312L82.3 110H80.86L80.26 108.296ZM79.876 107.18L78.52 103.304L77.152 107.18H79.876ZM88.9872 101.66V102.776H86.7672V110H85.3992V102.776H83.1672V101.66H88.9872ZM91.7407 102.764V105.212H94.6207V106.328H91.7407V108.884H94.9807V110H90.3727V101.648H94.9807V102.764H91.7407ZM100.998 110L99.0776 106.664H98.0336V110H96.6656V101.66H99.5456C100.186 101.66 100.726 101.772 101.166 101.996C101.614 102.22 101.946 102.52 102.162 102.896C102.386 103.272 102.498 103.692 102.498 104.156C102.498 104.7 102.338 105.196 102.018 105.644C101.706 106.084 101.222 106.384 100.566 106.544L102.63 110H100.998ZM98.0336 105.572H99.5456C100.058 105.572 100.442 105.444 100.698 105.188C100.962 104.932 101.094 104.588 101.094 104.156C101.094 103.724 100.966 103.388 100.71 103.148C100.454 102.9 100.066 102.776 99.5456 102.776H98.0336V105.572ZM109.276 108.296H105.784L105.184 110H103.756L106.744 101.648H108.328L111.316 110H109.876L109.276 108.296ZM108.892 107.18L107.536 103.304L106.168 107.18H108.892ZM113.983 108.896H116.803V110H112.615V101.66H113.983V108.896Z" fill="#575756"/>
<defs>
<clipPath id="clip0">
<rect width="48" height="48" fill="white" transform="translate(0 73)"/>
</clipPath>
<clipPath id="clip1">
<rect width="48" height="48" fill="white" transform="translate(1)"/>
</clipPath>
<clipPath id="clip2">
<rect width="48" height="48" fill="white" transform="translate(205)"/>
</clipPath>
</defs>
</svg>
